<?xml version="1.0" encoding="utf-8" standalone="no"?>
<!DOCTYPE svg PUBLIC "-//W3C//DTD SVG 1.1//EN"
  "http://www.w3.org/Graphics/SVG/1.1/DTD/svg11.dtd">
<svg xmlns:xlink="http://www.w3.org/1999/xlink" width="608.98125pt" height="337.074375pt" viewBox="0 0 608.98125 337.074375" xmlns="http://www.w3.org/2000/svg" version="1.1">
 <metadata>
  <rdf:RDF xmlns:dc="http://purl.org/dc/elements/1.1/" xmlns:cc="http://creativecommons.org/ns#" xmlns:rdf="http://www.w3.org/1999/02/22-rdf-syntax-ns#">
   <cc:Work>
    <dc:type rdf:resource="http://purl.org/dc/dcmitype/StillImage"/>
    <dc:date>2026-01-25T21:18:47.096850</dc:date>
    <dc:format>image/svg+xml</dc:format>
    <dc:creator>
     <cc:Agent>
      <dc:title>Matplotlib v3.6.3, https://matplotlib.org/</dc:title>
     </cc:Agent>
    </dc:creator>
   </cc:Work>
  </rdf:RDF>
 </metadata>
 <defs>
  <style type="text/css">*{stroke-linejoin: round; stroke-linecap: butt}</style>
 </defs>
 <g id="figure_1">
  <g id="patch_1">
   <path d="M 0 337.074375 
L 608.98125 337.074375 
L 608.98125 0 
L 0 0 
z
" style="fill: #ffffff"/>
  </g>
  <g id="axes_1">
   <g id="patch_2">
    <path d="M 43.78125 299.518125 
L 601.78125 299.518125 
L 601.78125 22.318125 
L 43.78125 22.318125 
z
" style="fill: #ffffff"/>
   </g>
   <g id="matplotlib.axis_1">
    <g id="xtick_1">
     <g id="line2d_1">
      <path d="M 69.144886 299.518125 
L 69.144886 22.318125 
" clip-path="url(#p4f64824b3e)" style="fill: none; stroke-dasharray: 2.96,1.28; stroke-dashoffset: 0; stroke: #b0b0b0; stroke-opacity: 0.6; stroke-width: 0.8"/>
     </g>
     <g id="line2d_2">
      <defs>
       <path id="mbf38627e44" d="M 0 0 
L 0 3.5 
" style="stroke: #000000; stroke-width: 0.8"/>
      </defs>
      <g>
       <use xlink:href="#mbf38627e44" x="69.144886" y="299.518125" style="stroke: #000000; stroke-width: 0.8"/>
      </g>
     </g>
     <g id="text_1">
      <!-- −1.5 -->
      <g transform="translate(57.00348 314.116563) scale(0.1 -0.1)">
       <defs>
        <path id="DejaVuSans-2212" d="M 678 2272 
L 4684 2272 
L 4684 1741 
L 678 1741 
L 678 2272 
z
" transform="scale(0.015625)"/>
        <path id="DejaVuSans-31" d="M 794 531 
L 1825 531 
L 1825 4091 
L 703 3866 
L 703 4441 
L 1819 4666 
L 2450 4666 
L 2450 531 
L 3481 531 
L 3481 0 
L 794 0 
L 794 531 
z
" transform="scale(0.015625)"/>
        <path id="DejaVuSans-2e" d="M 684 794 
L 1344 794 
L 1344 0 
L 684 0 
L 684 794 
z
" transform="scale(0.015625)"/>
        <path id="DejaVuSans-35" d="M 691 4666 
L 3169 4666 
L 3169 4134 
L 1269 4134 
L 1269 2991 
Q 1406 3038 1543 3061 
Q 1681 3084 1819 3084 
Q 2600 3084 3056 2656 
Q 3513 2228 3513 1497 
Q 3513 744 3044 326 
Q 2575 -91 1722 -91 
Q 1428 -91 1123 -41 
Q 819 9 494 109 
L 494 744 
Q 775 591 1075 516 
Q 1375 441 1709 441 
Q 2250 441 2565 725 
Q 2881 1009 2881 1497 
Q 2881 1984 2565 2268 
Q 2250 2553 1709 2553 
Q 1456 2553 1204 2497 
Q 953 2441 691 2322 
L 691 4666 
z
" transform="scale(0.015625)"/>
       </defs>
       <use xlink:href="#DejaVuSans-2212"/>
       <use xlink:href="#DejaVuSans-31" x="83.789062"/>
       <use xlink:href="#DejaVuSans-2e" x="147.412109"/>
       <use xlink:href="#DejaVuSans-35" x="179.199219"/>
      </g>
     </g>
    </g>
    <g id="xtick_2">
     <g id="line2d_3">
      <path d="M 153.690341 299.518125 
L 153.690341 22.318125 
" clip-path="url(#p4f64824b3e)" style="fill: none; stroke-dasharray: 2.96,1.28; stroke-dashoffset: 0; stroke: #b0b0b0; stroke-opacity: 0.6; stroke-width: 0.8"/>
     </g>
     <g id="line2d_4">
      <g>
       <use xlink:href="#mbf38627e44" x="153.690341" y="299.518125" style="stroke: #000000; stroke-width: 0.8"/>
      </g>
     </g>
     <g id="text_2">
      <!-- −1.0 -->
      <g transform="translate(141.548935 314.116563) scale(0.1 -0.1)">
       <defs>
        <path id="DejaVuSans-30" d="M 2034 4250 
Q 1547 4250 1301 3770 
Q 1056 3291 1056 2328 
Q 1056 1369 1301 889 
Q 1547 409 2034 409 
Q 2525 409 2770 889 
Q 3016 1369 3016 2328 
Q 3016 3291 2770 3770 
Q 2525 4250 2034 4250 
z
M 2034 4750 
Q 2819 4750 3233 4129 
Q 3647 3509 3647 2328 
Q 3647 1150 3233 529 
Q 2819 -91 2034 -91 
Q 1250 -91 836 529 
Q 422 1150 422 2328 
Q 422 3509 836 4129 
Q 1250 4750 2034 4750 
z
" transform="scale(0.015625)"/>
       </defs>
       <use xlink:href="#DejaVuSans-2212"/>
       <use xlink:href="#DejaVuSans-31" x="83.789062"/>
       <use xlink:href="#DejaVuSans-2e" x="147.412109"/>
       <use xlink:href="#DejaVuSans-30" x="179.199219"/>
      </g>
     </g>
    </g>
    <g id="xtick_3">
     <g id="line2d_5">
      <path d="M 238.235795 299.518125 
L 238.235795 22.318125 
" clip-path="url(#p4f64824b3e)" style="fill: none; stroke-dasharray: 2.96,1.28; stroke-dashoffset: 0; stroke: #b0b0b0; stroke-opacity: 0.6; stroke-width: 0.8"/>
     </g>
     <g id="line2d_6">
      <g>
       <use xlink:href="#mbf38627e44" x="238.235795" y="299.518125" style="stroke: #000000; stroke-width: 0.8"/>
      </g>
     </g>
     <g id="text_3">
      <!-- −0.5 -->
      <g transform="translate(226.094389 314.116563) scale(0.1 -0.1)">
       <use xlink:href="#DejaVuSans-2212"/>
       <use xlink:href="#DejaVuSans-30" x="83.789062"/>
       <use xlink:href="#DejaVuSans-2e" x="147.412109"/>
       <use xlink:href="#DejaVuSans-35" x="179.199219"/>
      </g>
     </g>
    </g>
    <g id="xtick_4">
     <g id="line2d_7">
      <path d="M 322.78125 299.518125 
L 322.78125 22.318125 
" clip-path="url(#p4f64824b3e)" style="fill: none; stroke-dasharray: 2.96,1.28; stroke-dashoffset: 0; stroke: #b0b0b0; stroke-opacity: 0.6; stroke-width: 0.8"/>
     </g>
     <g id="line2d_8">
      <g>
       <use xlink:href="#mbf38627e44" x="322.78125" y="299.518125" style="stroke: #000000; stroke-width: 0.8"/>
      </g>
     </g>
     <g id="text_4">
      <!-- 0.0 -->
      <g transform="translate(314.829687 314.116563) scale(0.1 -0.1)">
       <use xlink:href="#DejaVuSans-30"/>
       <use xlink:href="#DejaVuSans-2e" x="63.623047"/>
       <use xlink:href="#DejaVuSans-30" x="95.410156"/>
      </g>
     </g>
    </g>
    <g id="xtick_5">
     <g id="line2d_9">
      <path d="M 407.326705 299.518125 
L 407.326705 22.318125 
" clip-path="url(#p4f64824b3e)" style="fill: none; stroke-dasharray: 2.96,1.28; stroke-dashoffset: 0; stroke: #b0b0b0; stroke-opacity: 0.6; stroke-width: 0.8"/>
     </g>
     <g id="line2d_10">
      <g>
       <use xlink:href="#mbf38627e44" x="407.326705" y="299.518125" style="stroke: #000000; stroke-width: 0.8"/>
      </g>
     </g>
     <g id="text_5">
      <!-- 0.5 -->
      <g transform="translate(399.375142 314.116563) scale(0.1 -0.1)">
       <use xlink:href="#DejaVuSans-30"/>
       <use xlink:href="#DejaVuSans-2e" x="63.623047"/>
       <use xlink:href="#DejaVuSans-35" x="95.410156"/>
      </g>
     </g>
    </g>
    <g id="xtick_6">
     <g id="line2d_11">
      <path d="M 491.872159 299.518125 
L 491.872159 22.318125 
" clip-path="url(#p4f64824b3e)" style="fill: none; stroke-dasharray: 2.96,1.28; stroke-dashoffset: 0; stroke: #b0b0b0; stroke-opacity: 0.6; stroke-width: 0.8"/>
     </g>
     <g id="line2d_12">
      <g>
       <use xlink:href="#mbf38627e44" x="491.872159" y="299.518125" style="stroke: #000000; stroke-width: 0.8"/>
      </g>
     </g>
     <g id="text_6">
      <!-- 1.0 -->
      <g transform="translate(483.920597 314.116563) scale(0.1 -0.1)">
       <use xlink:href="#DejaVuSans-31"/>
       <use xlink:href="#DejaVuSans-2e" x="63.623047"/>
       <use xlink:href="#DejaVuSans-30" x="95.410156"/>
      </g>
     </g>
    </g>
    <g id="xtick_7">
     <g id="line2d_13">
      <path d="M 576.417614 299.518125 
L 576.417614 22.318125 
" clip-path="url(#p4f64824b3e)" style="fill: none; stroke-dasharray: 2.96,1.28; stroke-dashoffset: 0; stroke: #b0b0b0; stroke-opacity: 0.6; stroke-width: 0.8"/>
     </g>
     <g id="line2d_14">
      <g>
       <use xlink:href="#mbf38627e44" x="576.417614" y="299.518125" style="stroke: #000000; stroke-width: 0.8"/>
      </g>
     </g>
     <g id="text_7">
      <!-- 1.5 -->
      <g transform="translate(568.466051 314.116563) scale(0.1 -0.1)">
       <use xlink:href="#DejaVuSans-31"/>
       <use xlink:href="#DejaVuSans-2e" x="63.623047"/>
       <use xlink:href="#DejaVuSans-35" x="95.410156"/>
      </g>
     </g>
    </g>
    <g id="text_8"><text x="258.359" y="327.795" font-family="DejaVu Sans,sans-serif" font-size="10.0" text-anchor="middle" dominant-baseline="auto">Versatz (Chip-Bruchteil)</text></g>
   </g>
   <g id="matplotlib.axis_2">
    <g id="ytick_1">
     <g id="line2d_15">
      <path d="M 43.78125 286.918125 
L 601.78125 286.918125 
" clip-path="url(#p4f64824b3e)" style="fill: none; stroke-dasharray: 2.96,1.28; stroke-dashoffset: 0; stroke: #b0b0b0; stroke-opacity: 0.6; stroke-width: 0.8"/>
     </g>
     <g id="line2d_16">
      <defs>
       <path id="m648e58de1b" d="M 0 0 
L -3.5 0 
" style="stroke: #000000; stroke-width: 0.8"/>
      </defs>
      <g>
       <use xlink:href="#m648e58de1b" x="43.78125" y="286.918125" style="stroke: #000000; stroke-width: 0.8"/>
      </g>
     </g>
     <g id="text_9">
      <!-- 0.0 -->
      <g transform="translate(20.878125 290.717344) scale(0.1 -0.1)">
       <use xlink:href="#DejaVuSans-30"/>
       <use xlink:href="#DejaVuSans-2e" x="63.623047"/>
       <use xlink:href="#DejaVuSans-30" x="95.410156"/>
      </g>
     </g>
    </g>
    <g id="ytick_2">
     <g id="line2d_17">
      <path d="M 43.78125 236.518125 
L 601.78125 236.518125 
" clip-path="url(#p4f64824b3e)" style="fill: none; stroke-dasharray: 2.96,1.28; stroke-dashoffset: 0; stroke: #b0b0b0; stroke-opacity: 0.6; stroke-width: 0.8"/>
     </g>
     <g id="line2d_18">
      <g>
       <use xlink:href="#m648e58de1b" x="43.78125" y="236.518125" style="stroke: #000000; stroke-width: 0.8"/>
      </g>
     </g>
     <g id="text_10">
      <!-- 0.2 -->
      <g transform="translate(20.878125 240.317344) scale(0.1 -0.1)">
       <defs>
        <path id="DejaVuSans-32" d="M 1228 531 
L 3431 531 
L 3431 0 
L 469 0 
L 469 531 
Q 828 903 1448 1529 
Q 2069 2156 2228 2338 
Q 2531 2678 2651 2914 
Q 2772 3150 2772 3378 
Q 2772 3750 2511 3984 
Q 2250 4219 1831 4219 
Q 1534 4219 1204 4116 
Q 875 4013 500 3803 
L 500 4441 
Q 881 4594 1212 4672 
Q 1544 4750 1819 4750 
Q 2544 4750 2975 4387 
Q 3406 4025 3406 3419 
Q 3406 3131 3298 2873 
Q 3191 2616 2906 2266 
Q 2828 2175 2409 1742 
Q 1991 1309 1228 531 
z
" transform="scale(0.015625)"/>
       </defs>
       <use xlink:href="#DejaVuSans-30"/>
       <use xlink:href="#DejaVuSans-2e" x="63.623047"/>
       <use xlink:href="#DejaVuSans-32" x="95.410156"/>
      </g>
     </g>
    </g>
    <g id="ytick_3">
     <g id="line2d_19">
      <path d="M 43.78125 186.118125 
L 601.78125 186.118125 
" clip-path="url(#p4f64824b3e)" style="fill: none; stroke-dasharray: 2.96,1.28; stroke-dashoffset: 0; stroke: #b0b0b0; stroke-opacity: 0.6; stroke-width: 0.8"/>
     </g>
     <g id="line2d_20">
      <g>
       <use xlink:href="#m648e58de1b" x="43.78125" y="186.118125" style="stroke: #000000; stroke-width: 0.8"/>
      </g>
     </g>
     <g id="text_11">
      <!-- 0.4 -->
      <g transform="translate(20.878125 189.917344) scale(0.1 -0.1)">
       <defs>
        <path id="DejaVuSans-34" d="M 2419 4116 
L 825 1625 
L 2419 1625 
L 2419 4116 
z
M 2253 4666 
L 3047 4666 
L 3047 1625 
L 3713 1625 
L 3713 1100 
L 3047 1100 
L 3047 0 
L 2419 0 
L 2419 1100 
L 313 1100 
L 313 1709 
L 2253 4666 
z
" transform="scale(0.015625)"/>
       </defs>
       <use xlink:href="#DejaVuSans-30"/>
       <use xlink:href="#DejaVuSans-2e" x="63.623047"/>
       <use xlink:href="#DejaVuSans-34" x="95.410156"/>
      </g>
     </g>
    </g>
    <g id="ytick_4">
     <g id="line2d_21">
      <path d="M 43.78125 135.718125 
L 601.78125 135.718125 
" clip-path="url(#p4f64824b3e)" style="fill: none; stroke-dasharray: 2.96,1.28; stroke-dashoffset: 0; stroke: #b0b0b0; stroke-opacity: 0.6; stroke-width: 0.8"/>
     </g>
     <g id="line2d_22">
      <g>
       <use xlink:href="#m648e58de1b" x="43.78125" y="135.718125" style="stroke: #000000; stroke-width: 0.8"/>
      </g>
     </g>
     <g id="text_12">
      <!-- 0.6 -->
      <g transform="translate(20.878125 139.517344) scale(0.1 -0.1)">
       <defs>
        <path id="DejaVuSans-36" d="M 2113 2584 
Q 1688 2584 1439 2293 
Q 1191 2003 1191 1497 
Q 1191 994 1439 701 
Q 1688 409 2113 409 
Q 2538 409 2786 701 
Q 3034 994 3034 1497 
Q 3034 2003 2786 2293 
Q 2538 2584 2113 2584 
z
M 3366 4563 
L 3366 3988 
Q 3128 4100 2886 4159 
Q 2644 4219 2406 4219 
Q 1781 4219 1451 3797 
Q 1122 3375 1075 2522 
Q 1259 2794 1537 2939 
Q 1816 3084 2150 3084 
Q 2853 3084 3261 2657 
Q 3669 2231 3669 1497 
Q 3669 778 3244 343 
Q 2819 -91 2113 -91 
Q 1303 -91 875 529 
Q 447 1150 447 2328 
Q 447 3434 972 4092 
Q 1497 4750 2381 4750 
Q 2619 4750 2861 4703 
Q 3103 4656 3366 4563 
z
" transform="scale(0.015625)"/>
       </defs>
       <use xlink:href="#DejaVuSans-30"/>
       <use xlink:href="#DejaVuSans-2e" x="63.623047"/>
       <use xlink:href="#DejaVuSans-36" x="95.410156"/>
      </g>
     </g>
    </g>
    <g id="ytick_5">
     <g id="line2d_23">
      <path d="M 43.78125 85.318125 
L 601.78125 85.318125 
" clip-path="url(#p4f64824b3e)" style="fill: none; stroke-dasharray: 2.96,1.28; stroke-dashoffset: 0; stroke: #b0b0b0; stroke-opacity: 0.6; stroke-width: 0.8"/>
     </g>
     <g id="line2d_24">
      <g>
       <use xlink:href="#m648e58de1b" x="43.78125" y="85.318125" style="stroke: #000000; stroke-width: 0.8"/>
      </g>
     </g>
     <g id="text_13">
      <!-- 0.8 -->
      <g transform="translate(20.878125 89.117344) scale(0.1 -0.1)">
       <defs>
        <path id="DejaVuSans-38" d="M 2034 2216 
Q 1584 2216 1326 1975 
Q 1069 1734 1069 1313 
Q 1069 891 1326 650 
Q 1584 409 2034 409 
Q 2484 409 2743 651 
Q 3003 894 3003 1313 
Q 3003 1734 2745 1975 
Q 2488 2216 2034 2216 
z
M 1403 2484 
Q 997 2584 770 2862 
Q 544 3141 544 3541 
Q 544 4100 942 4425 
Q 1341 4750 2034 4750 
Q 2731 4750 3128 4425 
Q 3525 4100 3525 3541 
Q 3525 3141 3298 2862 
Q 3072 2584 2669 2484 
Q 3125 2378 3379 2068 
Q 3634 1759 3634 1313 
Q 3634 634 3220 271 
Q 2806 -91 2034 -91 
Q 1263 -91 848 271 
Q 434 634 434 1313 
Q 434 1759 690 2068 
Q 947 2378 1403 2484 
z
M 1172 3481 
Q 1172 3119 1398 2916 
Q 1625 2713 2034 2713 
Q 2441 2713 2670 2916 
Q 2900 3119 2900 3481 
Q 2900 3844 2670 4047 
Q 2441 4250 2034 4250 
Q 1625 4250 1398 4047 
Q 1172 3844 1172 3481 
z
" transform="scale(0.015625)"/>
       </defs>
       <use xlink:href="#DejaVuSans-30"/>
       <use xlink:href="#DejaVuSans-2e" x="63.623047"/>
       <use xlink:href="#DejaVuSans-38" x="95.410156"/>
      </g>
     </g>
    </g>
    <g id="ytick_6">
     <g id="line2d_25">
      <path d="M 43.78125 34.918125 
L 601.78125 34.918125 
" clip-path="url(#p4f64824b3e)" style="fill: none; stroke-dasharray: 2.96,1.28; stroke-dashoffset: 0; stroke: #b0b0b0; stroke-opacity: 0.6; stroke-width: 0.8"/>
     </g>
     <g id="line2d_26">
      <g>
       <use xlink:href="#m648e58de1b" x="43.78125" y="34.918125" style="stroke: #000000; stroke-width: 0.8"/>
      </g>
     </g>
     <g id="text_14">
      <!-- 1.0 -->
      <g transform="translate(20.878125 38.717344) scale(0.1 -0.1)">
       <use xlink:href="#DejaVuSans-31"/>
       <use xlink:href="#DejaVuSans-2e" x="63.623047"/>
       <use xlink:href="#DejaVuSans-30" x="95.410156"/>
      </g>
     </g>
    </g>
    <g id="text_15"><text x="0" y="0" transform="translate(14.798,259.969) rotate(-90)" font-family="DejaVu Sans,sans-serif" font-size="10.0" text-anchor="middle" dominant-baseline="auto">Normierter Korrelations-Spitzenwert</text></g>
   </g>
   <g id="line2d_27">
    <path d="M 69.144886 275.46358 
L 71.178044 275.921761 
L 72.194622 275.921761 
L 74.227779 276.379943 
L 75.244358 276.379943 
L 76.260937 276.609034 
L 77.277515 276.609034 
L 79.310672 277.067216 
L 80.327251 277.067216 
L 81.34383 277.296307 
L 82.360408 277.296307 
L 84.393566 277.754489 
L 85.410144 277.754489 
L 86.426723 277.98358 
L 87.443301 277.98358 
L 89.476459 278.441761 
L 90.493037 278.441761 
L 91.509616 278.670852 
L 92.526194 278.670852 
L 94.559352 279.129034 
L 95.57593 279.129034 
L 96.592509 279.358125 
L 97.609087 279.358125 
L 99.642245 279.816307 
L 100.658823 279.816307 
L 101.675402 280.045398 
L 102.691981 280.045398 
L 104.725138 280.50358 
L 105.741716 280.50358 
L 106.758295 280.73267 
L 107.774874 280.73267 
L 109.808031 281.190852 
L 110.824609 281.190852 
L 111.841188 281.419943 
L 112.857767 281.419943 
L 114.890924 281.878125 
L 115.907503 281.878125 
L 116.924081 282.107216 
L 117.94066 282.107216 
L 119.973817 282.565398 
L 120.990396 282.565398 
L 122.006974 282.794489 
L 123.023553 282.794489 
L 125.05671 283.25267 
L 126.073289 283.25267 
L 127.089867 283.481761 
L 128.106446 283.481761 
L 130.139603 283.939943 
L 131.156182 283.939943 
L 132.17276 284.169034 
L 133.189339 284.169034 
L 135.222496 284.627216 
L 136.239075 284.627216 
L 137.255653 284.856307 
L 138.272232 284.856307 
L 140.305389 285.314489 
L 141.321968 285.314489 
L 142.338546 285.54358 
L 143.355125 285.54358 
L 145.388282 286.001761 
L 146.404861 286.001761 
L 147.421439 286.230852 
L 148.438018 286.230852 
L 150.471175 286.689034 
L 151.487754 286.689034 
L 152.504333 286.918125 
L 153.520911 286.918125 
L 155.554068 281.878125 
L 156.570647 281.878125 
L 157.587226 279.358125 
L 158.603804 279.358125 
L 160.636961 274.318125 
L 161.65354 274.318125 
L 162.670119 271.798125 
L 163.686697 271.798125 
L 165.719854 266.758125 
L 166.736433 266.758125 
L 167.753012 264.238125 
L 168.76959 264.238125 
L 170.802748 259.198125 
L 171.819326 259.198125 
L 172.835905 256.678125 
L 173.852483 256.678125 
L 175.885641 251.638125 
L 176.902219 251.638125 
L 177.918798 249.118125 
L 178.935376 249.118125 
L 180.968534 244.078125 
L 181.985112 244.078125 
L 183.001691 241.558125 
L 184.018269 241.558125 
L 186.051427 236.518125 
L 187.068005 236.518125 
L 188.084584 233.998125 
L 189.101163 233.998125 
L 191.13432 228.958125 
L 192.150898 228.958125 
L 193.167477 226.438125 
L 194.184056 226.438125 
L 196.217213 221.398125 
L 197.233791 221.398125 
L 198.25037 218.878125 
L 199.266949 218.878125 
L 201.300106 213.838125 
L 202.316685 213.838125 
L 203.333263 211.318125 
L 204.349842 211.318125 
L 206.382999 206.278125 
L 207.399578 206.278125 
L 208.416156 203.758125 
L 209.432735 203.758125 
L 211.465892 198.718125 
L 212.482471 198.718125 
L 213.499049 196.198125 
L 214.515628 196.198125 
L 216.548785 191.158125 
L 217.565364 191.158125 
L 218.581942 188.638125 
L 219.598521 188.638125 
L 221.631678 183.598125 
L 222.648257 183.598125 
L 223.664835 181.078125 
L 224.681414 181.078125 
L 226.714571 176.038125 
L 227.73115 176.038125 
L 228.747728 173.518125 
L 229.764307 173.518125 
L 231.797464 168.478125 
L 232.814043 168.478125 
L 233.830621 165.958125 
L 234.8472 165.958125 
L 236.880357 160.918125 
L 237.896936 160.918125 
L 239.930093 155.878125 
L 240.946672 155.878125 
L 241.96325 153.358125 
L 242.979829 153.358125 
L 245.012986 148.318125 
L 246.029565 148.318125 
L 247.046143 145.798125 
L 248.062722 145.798125 
L 250.095879 140.758125 
L 251.112458 140.758125 
L 252.129036 138.238125 
L 253.145615 138.238125 
L 255.178772 133.198125 
L 256.195351 133.198125 
L 257.21193 130.678125 
L 258.228508 130.678125 
L 260.261665 125.638125 
L 261.278244 125.638125 
L 262.294823 123.118125 
L 263.311401 123.118125 
L 265.344558 118.078125 
L 266.361137 118.078125 
L 267.377716 115.558125 
L 268.394294 115.558125 
L 270.427451 110.518125 
L 271.44403 110.518125 
L 272.460609 107.998125 
L 273.477187 107.998125 
L 275.510345 102.958125 
L 276.526923 102.958125 
L 277.543502 100.438125 
L 278.56008 100.438125 
L 280.593238 95.398125 
L 281.609816 95.398125 
L 282.626395 92.878125 
L 283.642973 92.878125 
L 285.676131 87.838125 
L 286.692709 87.838125 
L 287.709288 85.318125 
L 288.725867 85.318125 
L 290.759024 80.278125 
L 291.775602 80.278125 
L 292.792181 77.758125 
L 293.80876 77.758125 
L 295.841917 72.718125 
L 296.858495 72.718125 
L 297.875074 70.198125 
L 298.891653 70.198125 
L 300.92481 65.158125 
L 301.941388 65.158125 
L 302.957967 62.638125 
L 303.974546 62.638125 
L 306.007703 57.598125 
L 307.024282 57.598125 
L 308.04086 55.078125 
L 309.057439 55.078125 
L 311.090596 50.038125 
L 312.107175 50.038125 
L 313.123753 47.518125 
L 314.140332 47.518125 
L 316.173489 42.478125 
L 317.190068 42.478125 
L 318.206646 39.958125 
L 319.223225 39.958125 
L 321.256382 34.918125 
L 324.306118 34.918125 
L 326.339275 39.958125 
L 327.355854 39.958125 
L 328.372432 42.478125 
L 329.389011 42.478125 
L 331.422168 47.518125 
L 332.438747 47.518125 
L 333.455325 50.038125 
L 334.471904 50.038125 
L 336.505061 55.078125 
L 337.52164 55.078125 
L 338.538218 57.598125 
L 339.554797 57.598125 
L 341.587954 62.638125 
L 342.604533 62.638125 
L 343.621112 65.158125 
L 344.63769 65.158125 
L 346.670847 70.198125 
L 347.687426 70.198125 
L 348.704005 72.718125 
L 349.720583 72.718125 
L 351.75374 77.758125 
L 352.770319 77.758125 
L 353.786898 80.278125 
L 354.803476 80.278125 
L 356.836633 85.318125 
L 357.853212 85.318125 
L 358.869791 87.838125 
L 359.886369 87.838125 
L 361.919527 92.878125 
L 362.936105 92.878125 
L 363.952684 95.398125 
L 364.969262 95.398125 
L 367.00242 100.438125 
L 368.018998 100.438125 
L 369.035577 102.958125 
L 370.052155 102.958125 
L 372.085313 107.998125 
L 373.101891 107.998125 
L 374.11847 110.518125 
L 375.135049 110.518125 
L 377.168206 115.558125 
L 378.184784 115.558125 
L 379.201363 118.078125 
L 380.217942 118.078125 
L 382.251099 123.118125 
L 383.267677 123.118125 
L 384.284256 125.638125 
L 385.300835 125.638125 
L 387.333992 130.678125 
L 388.35057 130.678125 
L 389.367149 133.198125 
L 390.383728 133.198125 
L 392.416885 138.238125 
L 393.433464 138.238125 
L 394.450042 140.758125 
L 395.466621 140.758125 
L 397.499778 145.798125 
L 398.516357 145.798125 
L 399.532935 148.318125 
L 400.549514 148.318125 
L 402.582671 153.358125 
L 403.59925 153.358125 
L 404.615828 155.878125 
L 405.632407 155.878125 
L 407.665564 160.918125 
L 408.682143 160.918125 
L 410.7153 165.958125 
L 411.731879 165.958125 
L 412.748457 168.478125 
L 413.765036 168.478125 
L 415.798193 173.518125 
L 416.814772 173.518125 
L 417.83135 176.038125 
L 418.847929 176.038125 
L 420.881086 181.078125 
L 421.897665 181.078125 
L 422.914243 183.598125 
L 423.930822 183.598125 
L 425.963979 188.638125 
L 426.980558 188.638125 
L 427.997136 191.158125 
L 429.013715 191.158125 
L 431.046872 196.198125 
L 432.063451 196.198125 
L 433.080029 198.718125 
L 434.096608 198.718125 
L 436.129765 203.758125 
L 437.146344 203.758125 
L 438.162922 206.278125 
L 439.179501 206.278125 
L 441.212658 211.318125 
L 442.229237 211.318125 
L 443.245815 213.838125 
L 444.262394 213.838125 
L 446.295551 218.878125 
L 447.31213 218.878125 
L 448.328709 221.398125 
L 449.345287 221.398125 
L 451.378444 226.438125 
L 452.395023 226.438125 
L 453.411602 228.958125 
L 454.42818 228.958125 
L 456.461337 233.998125 
L 457.477916 233.998125 
L 458.494495 236.518125 
L 459.511073 236.518125 
L 461.544231 241.558125 
L 462.560809 241.558125 
L 463.577388 244.078125 
L 464.593966 244.078125 
L 466.627124 249.118125 
L 467.643702 249.118125 
L 468.660281 251.638125 
L 469.676859 251.638125 
L 471.710017 256.678125 
L 472.726595 256.678125 
L 473.743174 259.198125 
L 474.759752 259.198125 
L 476.79291 264.238125 
L 477.809488 264.238125 
L 478.826067 266.758125 
L 479.842646 266.758125 
L 481.875803 271.798125 
L 482.892381 271.798125 
L 483.90896 274.318125 
L 484.925539 274.318125 
L 486.958696 279.358125 
L 487.975274 279.358125 
L 488.991853 281.878125 
L 490.008432 281.878125 
L 492.041589 286.918125 
L 493.058167 286.918125 
L 494.074746 286.689034 
L 495.091325 286.689034 
L 497.124482 286.230852 
L 498.141061 286.230852 
L 499.157639 286.001761 
L 500.174218 286.001761 
L 502.207375 285.54358 
L 503.223954 285.54358 
L 504.240532 285.314489 
L 505.257111 285.314489 
L 507.290268 284.856307 
L 508.306847 284.856307 
L 509.323425 284.627216 
L 510.340004 284.627216 
L 512.373161 284.169034 
L 513.38974 284.169034 
L 514.406318 283.939943 
L 515.422897 283.939943 
L 517.456054 283.481761 
L 518.472633 283.481761 
L 519.489211 283.25267 
L 520.50579 283.25267 
L 522.538947 282.794489 
L 523.555526 282.794489 
L 524.572104 282.565398 
L 525.588683 282.565398 
L 527.62184 282.107216 
L 528.638419 282.107216 
L 529.654997 281.878125 
L 530.671576 281.878125 
L 532.704733 281.419943 
L 533.721312 281.419943 
L 534.737891 281.190852 
L 535.754469 281.190852 
L 537.787626 280.73267 
L 538.804205 280.73267 
L 539.820784 280.50358 
L 540.837362 280.50358 
L 542.870519 280.045398 
L 543.887098 280.045398 
L 544.903677 279.816307 
L 545.920255 279.816307 
L 547.953413 279.358125 
L 548.969991 279.358125 
L 549.98657 279.129034 
L 551.003148 279.129034 
L 553.036306 278.670852 
L 554.052884 278.670852 
L 555.069463 278.441761 
L 556.086041 278.441761 
L 558.119199 277.98358 
L 559.135777 277.98358 
L 560.152356 277.754489 
L 561.168934 277.754489 
L 563.202092 277.296307 
L 564.21867 277.296307 
L 565.235249 277.067216 
L 566.251828 277.067216 
L 568.284985 276.609034 
L 569.301563 276.609034 
L 570.318142 276.379943 
L 571.334721 276.379943 
L 573.367878 275.921761 
L 574.384456 275.921761 
L 576.417614 275.46358 
L 576.417614 275.46358 
" clip-path="url(#p4f64824b3e)" style="fill: none; stroke: #0000ff; stroke-width: 2; stroke-linecap: square"/>
   </g>
   <g id="line2d_28">
    <path d="M 322.78125 299.518125 
L 322.78125 22.318125 
" clip-path="url(#p4f64824b3e)" style="fill: none; stroke-dasharray: 5.55,2.4; stroke-dashoffset: 0; stroke: #ff0000; stroke-opacity: 0.5; stroke-width: 1.5"/>
   </g>
   <g id="patch_3">
    <path d="M 43.78125 299.518125 
L 43.78125 22.318125 
" style="fill: none; stroke: #000000; stroke-width: 0.8; stroke-linejoin: miter; stroke-linecap: square"/>
   </g>
   <g id="patch_4">
    <path d="M 601.78125 299.518125 
L 601.78125 22.318125 
" style="fill: none; stroke: #000000; stroke-width: 0.8; stroke-linejoin: miter; stroke-linecap: square"/>
   </g>
   <g id="patch_5">
    <path d="M 43.78125 299.518125 
L 601.78125 299.518125 
" style="fill: none; stroke: #000000; stroke-width: 0.8; stroke-linejoin: miter; stroke-linecap: square"/>
   </g>
   <g id="patch_6">
    <path d="M 43.78125 22.318125 
L 601.78125 22.318125 
" style="fill: none; stroke: #000000; stroke-width: 0.8; stroke-linejoin: miter; stroke-linecap: square"/>
   </g>
   <g id="text_16"><text x="156.329" y="16.318" font-family="DejaVu Sans,sans-serif" font-size="12.0" text-anchor="middle" dominant-baseline="auto">DSSS-Korrelationspeak vs. fraktionaler Chip-Timing-Versatz</text></g>
   <g id="legend_1">
    <g id="patch_7">
     <path d="M 447.754687 59.674375 
L 594.78125 59.674375 
Q 596.78125 59.674375 596.78125 57.674375 
L 596.78125 29.318125 
Q 596.78125 27.318125 594.78125 27.318125 
L 447.754687 27.318125 
Q 445.754687 27.318125 445.754687 29.318125 
L 445.754687 57.674375 
Q 445.754687 59.674375 447.754687 59.674375 
z
" style="fill: #ffffff; opacity: 0.8; stroke: #cccccc; stroke-linejoin: miter"/>
    </g>
    <g id="line2d_29">
     <path d="M 449.754687 35.416562 
L 459.754687 35.416562 
L 469.754687 35.416562 
" style="fill: none; stroke: #0000ff; stroke-width: 2; stroke-linecap: square"/>
    </g>
    <g id="text_17"><text x="477.755" y="38.917" font-family="DejaVu Sans,sans-serif" font-size="10.0" text-anchor="middle" dominant-baseline="auto">Normierte Korrelation</text></g>
    <g id="line2d_30">
     <path d="M 449.754687 50.094688 
L 459.754687 50.094688 
L 469.754687 50.094688 
" style="fill: none; stroke-dasharray: 5.55,2.4; stroke-dashoffset: 0; stroke: #ff0000; stroke-opacity: 0.5; stroke-width: 1.5"/>
    </g>
    <g id="text_18"><text x="477.755" y="53.595" font-family="DejaVu Sans,sans-serif" font-size="10.0" text-anchor="middle" dominant-baseline="auto">Perfekte Ausrichtung</text></g>
   </g>
  </g>
 </g>
 <defs>
  <clipPath id="p4f64824b3e">
   <rect x="43.78125" y="22.318125" width="558" height="277.2"/>
  </clipPath>
 </defs>
</svg>
