<?xml version="1.0" encoding="UTF-8" standalone="no"?>
<svg
   width="312.19989pt"
   height="166.45912pt"
   viewBox="0 0 312.1999 166.45913"
   version="1.1"
   id="svg259"
   sodipodi:docname="doa_quiescent.svg"
   inkscape:version="1.2.1 (9c6d41e410, 2022-07-14)"
   xmlns:inkscape="http://www.inkscape.org/namespaces/inkscape"
   xmlns:sodipodi="http://sodipodi.sourceforge.net/DTD/sodipodi-0.dtd"
   xmlns:xlink="http://www.w3.org/1999/xlink"
   xmlns="http://www.w3.org/2000/svg"
   xmlns:svg="http://www.w3.org/2000/svg"
   xmlns:rdf="http://www.w3.org/1999/02/22-rdf-syntax-ns#"
   xmlns:cc="http://creativecommons.org/ns#"
   xmlns:dc="http://purl.org/dc/elements/1.1/">
  <sodipodi:namedview
     id="namedview261"
     pagecolor="#ffffff"
     bordercolor="#000000"
     borderopacity="0.25"
     inkscape:showpageshadow="2"
     inkscape:pageopacity="0.0"
     inkscape:pagecheckerboard="0"
     inkscape:deskcolor="#d1d1d1"
     inkscape:document-units="pt"
     showgrid="false"
     inkscape:zoom="2.7458719"
     inkscape:cx="150.22551"
     inkscape:cy="113.26093"
     inkscape:window-width="2560"
     inkscape:window-height="1369"
     inkscape:window-x="-8"
     inkscape:window-y="-8"
     inkscape:window-maximized="1"
     inkscape:current-layer="svg259" />
  <metadata
     id="metadata2">
    <rdf:RDF>
      <cc:Work>
        <dc:type
           rdf:resource="http://purl.org/dc/dcmitype/StillImage" />
        <dc:date>2024-01-27T03:01:17.896605</dc:date>
        <dc:format>image/svg+xml</dc:format>
        <dc:creator>
          <cc:Agent>
            <dc:title>Matplotlib v3.8.0, https://matplotlib.org/</dc:title>
          </cc:Agent>
        </dc:creator>
      </cc:Work>
    </rdf:RDF>
  </metadata>
  <defs
     id="defs6">
    <style
       type="text/css"
       id="style4">*{stroke-linejoin: round; stroke-linecap: butt}</style>
  </defs>
  <g
     id="axes_1"
     transform="translate(-7.6890625,-55.0655)">
    <g
       id="patch_2">
      <path
         d="m 297.97841,206.784 c 0,-35.27511 -14.02793,-69.14153 -38.9712,-94.0848 -24.94327,-24.94327 -58.80969,-38.9712 -94.0848,-38.9712 -35.27511,0 -69.141533,14.02793 -94.084804,38.9712 -24.94327,24.94327 -38.9712,58.80969 -38.9712,94.0848 H 164.92241 c 0,0 0,0 0,0 0,0 0,0 0,0 0,0 0,0 0,0 0,0 0,0 0,0 z"
         style="fill:#ffffff"
         id="path11" />
    </g>
    <g
       id="matplotlib.axis_1">
      <g
         id="xtick_1">
        <g
           id="line2d_1">
          <path
             d="M 164.92241,206.784 H 31.866406"
             clip-path="url(#pe85cf258ab)"
             style="fill:none;stroke:#b0b0b0;stroke-width:0.8;stroke-linecap:square"
             id="path14" />
        </g>
        <g
           id="text_1">
          <!-- -90° -->
          <g
             transform="matrix(0.1,0,0,-0.1,7.2,209.54337)"
             id="g31">
            <defs
               id="defs21">
              <path
                 id="DejaVuSans-2d"
                 d="M 313,2009 H 1997 V 1497 H 313 Z"
                 transform="scale(0.015625)" />
              <path
                 id="DejaVuSans-39"
                 d="m 703,97 v 575 q 238,-113 481,-172 244,-59 479,-59 625,0 954,420 330,420 377,1277 -181,-269 -460,-413 -278,-144 -615,-144 -700,0 -1108,423 -408,424 -408,1159 0,718 425,1152 425,435 1131,435 810,0 1236,-621 427,-620 427,-1801 Q 3622,1225 3098,567 2575,-91 1691,-91 1453,-91 1209,-44 966,3 703,97 Z m 1256,1978 q 425,0 673,290 249,291 249,798 0,503 -249,795 -248,292 -673,292 -425,0 -673,-292 -248,-292 -248,-795 0,-507 248,-798 248,-290 673,-290 z"
                 transform="scale(0.015625)" />
              <path
                 id="DejaVuSans-30"
                 d="m 2034,4250 q -487,0 -733,-480 -245,-479 -245,-1442 0,-959 245,-1439 246,-480 733,-480 491,0 736,480 246,480 246,1439 0,963 -246,1442 -245,480 -736,480 z m 0,500 q 785,0 1199,-621 414,-620 414,-1801 0,-1178 -414,-1799 -414,-620 -1199,-620 -784,0 -1198,620 -414,621 -414,1799 0,1181 414,1801 414,621 1198,621 z"
                 transform="scale(0.015625)" />
              <path
                 id="DejaVuSans-b0"
                 d="m 1600,4347 q -250,0 -422,-174 -172,-173 -172,-423 0,-247 172,-417 172,-170 422,-170 250,0 422,170 172,170 172,417 0,247 -174,422 -173,175 -420,175 z m 0,403 q 200,0 384,-77 185,-76 319,-220 144,-140 216,-319 72,-178 72,-384 0,-412 -289,-698 -289,-286 -708,-286 -422,0 -704,281 -281,281 -281,703 0,419 287,709 288,291 704,291 z"
                 transform="scale(0.015625)" />
            </defs>
            <use
               xlink:href="#DejaVuSans-2d"
               id="use23" />
            <use
               xlink:href="#DejaVuSans-39"
               x="36.083984"
               id="use25" />
            <use
               xlink:href="#DejaVuSans-30"
               x="99.707031"
               id="use27" />
            <use
               xlink:href="#DejaVuSans-b0"
               x="163.33008"
               id="use29" />
          </g>
        </g>
      </g>
      <g
         id="xtick_2">
        <g
           id="line2d_2">
          <path
             d="M 164.92241,206.784 49.69253,140.256"
             clip-path="url(#pe85cf258ab)"
             style="fill:none;stroke:#b0b0b0;stroke-width:0.8;stroke-linecap:square"
             id="path35" />
        </g>
        <g
           id="text_2">
          <!-- -60° -->
          <g
             transform="matrix(0.1,0,0,-0.1,26.901768,136.01537)"
             id="g49">
            <defs
               id="defs39">
              <path
                 id="DejaVuSans-36"
                 d="m 2113,2584 q -425,0 -674,-291 -248,-290 -248,-796 0,-503 248,-796 249,-292 674,-292 425,0 673,292 248,293 248,796 0,506 -248,796 -248,291 -673,291 z m 1253,1979 v -575 q -238,112 -480,171 -242,60 -480,60 -625,0 -955,-422 -329,-422 -376,-1275 184,272 462,417 279,145 613,145 703,0 1111,-427 408,-426 408,-1160 0,-719 -425,-1154 -425,-434 -1131,-434 -810,0 -1238,620 -428,621 -428,1799 0,1106 525,1764 525,658 1409,658 238,0 480,-47 242,-47 505,-140 z"
                 transform="scale(0.015625)" />
            </defs>
            <use
               xlink:href="#DejaVuSans-2d"
               id="use41" />
            <use
               xlink:href="#DejaVuSans-36"
               x="36.083984"
               id="use43" />
            <use
               xlink:href="#DejaVuSans-30"
               x="99.707031"
               id="use45" />
            <use
               xlink:href="#DejaVuSans-b0"
               x="163.33008"
               id="use47" />
          </g>
        </g>
      </g>
      <g
         id="xtick_3">
        <g
           id="line2d_3">
          <path
             d="M 164.92241,206.784 98.394406,91.554124"
             clip-path="url(#pe85cf258ab)"
             style="fill:none;stroke:#b0b0b0;stroke-width:0.8;stroke-linecap:square"
             id="path53" />
        </g>
        <g
           id="text_3">
          <!-- -30° -->
          <g
             transform="matrix(0.1,0,0,-0.1,80.728,82.189143)"
             id="g67">
            <defs
               id="defs57">
              <path
                 id="DejaVuSans-33"
                 d="m 2597,2516 q 453,-97 707,-404 255,-306 255,-756 0,-690 -475,-1069 -475,-378 -1350,-378 -293,0 -604,58 -311,58 -642,174 v 609 q 262,-153 574,-231 313,-78 654,-78 593,0 904,234 311,234 311,681 0,413 -289,645 -289,233 -804,233 h -544 v 519 h 569 q 465,0 712,186 247,186 247,536 0,359 -255,551 -254,193 -729,193 -260,0 -557,-57 -297,-56 -653,-174 v 562 q 360,100 674,150 314,50 592,50 719,0 1137,-327 419,-326 419,-882 0,-388 -222,-655 -222,-267 -631,-370 z"
                 transform="scale(0.015625)" />
            </defs>
            <use
               xlink:href="#DejaVuSans-2d"
               id="use59" />
            <use
               xlink:href="#DejaVuSans-33"
               x="36.083984"
               id="use61" />
            <use
               xlink:href="#DejaVuSans-30"
               x="99.707031"
               id="use63" />
            <use
               xlink:href="#DejaVuSans-b0"
               x="163.33008"
               id="use65" />
          </g>
        </g>
      </g>
      <g
         id="xtick_4">
        <g
           id="line2d_4">
          <path
             d="M 164.92241,206.784 V 73.728"
             clip-path="url(#pe85cf258ab)"
             style="fill:none;stroke:#b0b0b0;stroke-width:0.8;stroke-linecap:square"
             id="path71" />
        </g>
        <g
           id="text_4">
          <!-- 0° -->
          <g
             transform="matrix(0.1,0,0,-0.1,159.24116,62.487375)"
             id="g78">
            <use
               xlink:href="#DejaVuSans-30"
               id="use74" />
            <use
               xlink:href="#DejaVuSans-b0"
               x="63.623047"
               id="use76" />
          </g>
        </g>
      </g>
      <g
         id="xtick_5">
        <g
           id="line2d_5">
          <path
             d="m 164.92241,206.784 66.528,-115.229876"
             clip-path="url(#pe85cf258ab)"
             style="fill:none;stroke:#b0b0b0;stroke-width:0.8;stroke-linecap:square"
             id="path82" />
        </g>
        <g
           id="text_5">
          <!-- 30° -->
          <g
             transform="matrix(0.1,0,0,-0.1,229.58791,82.189143)"
             id="g91">
            <use
               xlink:href="#DejaVuSans-33"
               id="use85" />
            <use
               xlink:href="#DejaVuSans-30"
               x="63.623047"
               id="use87" />
            <use
               xlink:href="#DejaVuSans-b0"
               x="127.24609"
               id="use89" />
          </g>
        </g>
      </g>
      <g
         id="xtick_6">
        <g
           id="line2d_6">
          <path
             d="M 164.92241,206.784 280.15228,140.256"
             clip-path="url(#pe85cf258ab)"
             style="fill:none;stroke:#b0b0b0;stroke-width:0.8;stroke-linecap:square"
             id="path95" />
        </g>
        <g
           id="text_6">
          <!-- 60° -->
          <g
             transform="matrix(0.1,0,0,-0.1,283.41414,136.01537)"
             id="g104">
            <use
               xlink:href="#DejaVuSans-36"
               id="use98" />
            <use
               xlink:href="#DejaVuSans-30"
               x="63.623047"
               id="use100" />
            <use
               xlink:href="#DejaVuSans-b0"
               x="127.24609"
               id="use102" />
          </g>
        </g>
      </g>
      <g
         id="xtick_7">
        <g
           id="line2d_7">
          <path
             d="m 164.92241,206.784 h 133.056"
             clip-path="url(#pe85cf258ab)"
             style="fill:none;stroke:#b0b0b0;stroke-width:0.8;stroke-linecap:square"
             id="path108" />
        </g>
        <g
           id="text_7">
          <!-- 90° -->
          <g
             transform="matrix(0.1,0,0,-0.1,303.11591,209.54337)"
             id="g117">
            <use
               xlink:href="#DejaVuSans-39"
               id="use111" />
            <use
               xlink:href="#DejaVuSans-30"
               x="63.623047"
               id="use113" />
            <use
               xlink:href="#DejaVuSans-b0"
               x="127.24609"
               id="use115" />
          </g>
        </g>
      </g>
    </g>
    <g
       id="matplotlib.axis_2">
      <g
         id="ytick_1">
        <g
           id="line2d_8">
          <path
             d="m 164.92241,206.784 c 0,0 0,0 0,0 0,0 0,0 0,0 0,0 0,0 0,0 0,0 0,0 0,0"
             clip-path="url(#pe85cf258ab)"
             style="fill:none;stroke:#b0b0b0;stroke-width:0.8;stroke-linecap:square"
             id="path122" />
        </g>
        <g
           id="text_8">
          <!-- −30 -->
          <g
             transform="matrix(0.1,0,0,-0.1,154.37006,221.38244)"
             id="g134">
            <defs
               id="defs126">
              <path
                 id="DejaVuSans-2212"
                 d="M 678,2272 H 4684 V 1741 H 678 Z"
                 transform="scale(0.015625)" />
            </defs>
            <use
               xlink:href="#DejaVuSans-2212"
               id="use128" />
            <use
               xlink:href="#DejaVuSans-33"
               x="83.789062"
               id="use130" />
            <use
               xlink:href="#DejaVuSans-30"
               x="147.41211"
               id="use132" />
          </g>
        </g>
      </g>
      <g
         id="ytick_2">
        <g
           id="line2d_9">
          <path
             d="m 143.46176,206.784 c 0,-5.68953 2.26257,-11.15186 6.28568,-15.17497 4.02311,-4.02311 9.48543,-6.28568 15.17497,-6.28568 5.68953,0 11.15186,2.26257 15.17496,6.28568 4.02311,4.02311 6.28568,9.48544 6.28568,15.17497"
             clip-path="url(#pe85cf258ab)"
             style="fill:none;stroke:#b0b0b0;stroke-width:0.8;stroke-linecap:square"
             id="path138" />
        </g>
        <g
           id="text_9">
          <!-- −25 -->
          <g
             transform="matrix(0.1,0,0,-0.1,132.90942,221.38244)"
             id="g151">
            <defs
               id="defs143">
              <path
                 id="DejaVuSans-32"
                 d="M 1228,531 H 3431 V 0 H 469 v 531 q 359,372 979,998 621,627 780,809 303,340 423,576 121,236 121,464 0,372 -261,606 -261,235 -680,235 -297,0 -627,-103 -329,-103 -704,-313 v 638 q 381,153 712,231 332,78 607,78 725,0 1156,-363 431,-362 431,-968 0,-288 -108,-546 -107,-257 -392,-607 -78,-91 -497,-524 Q 1991,1309 1228,531 Z"
                 transform="scale(0.015625)" />
              <path
                 id="DejaVuSans-35"
                 d="M 691,4666 H 3169 V 4134 H 1269 V 2991 q 137,47 274,70 138,23 276,23 781,0 1237,-428 457,-428 457,-1159 Q 3513,744 3044,326 2575,-91 1722,-91 1428,-91 1123,-41 819,9 494,109 v 635 q 281,-153 581,-228 300,-75 634,-75 541,0 856,284 316,284 316,772 0,487 -316,771 -315,285 -856,285 -253,0 -505,-56 -251,-56 -513,-175 z"
                 transform="scale(0.015625)" />
            </defs>
            <use
               xlink:href="#DejaVuSans-2212"
               id="use145" />
            <use
               xlink:href="#DejaVuSans-32"
               x="83.789062"
               id="use147" />
            <use
               xlink:href="#DejaVuSans-35"
               x="147.41211"
               id="use149" />
          </g>
        </g>
      </g>
      <g
         id="ytick_3">
        <g
           id="line2d_10">
          <path
             d="m 122.00112,206.784 c 0,-11.37907 4.52514,-22.30372 12.57135,-30.34994 8.04622,-8.04621 18.97087,-12.57135 30.34994,-12.57135 11.37906,0 22.30371,4.52514 30.34993,12.57135 8.04622,8.04622 12.57136,18.97087 12.57136,30.34994"
             clip-path="url(#pe85cf258ab)"
             style="fill:none;stroke:#b0b0b0;stroke-width:0.8;stroke-linecap:square"
             id="path155" />
        </g>
        <g
           id="text_10">
          <!-- −20 -->
          <g
             transform="matrix(0.1,0,0,-0.1,111.44877,221.38244)"
             id="g164">
            <use
               xlink:href="#DejaVuSans-2212"
               id="use158" />
            <use
               xlink:href="#DejaVuSans-32"
               x="83.789062"
               id="use160" />
            <use
               xlink:href="#DejaVuSans-30"
               x="147.41211"
               id="use162" />
          </g>
        </g>
      </g>
      <g
         id="ytick_4">
        <g
           id="line2d_11">
          <path
             d="m 100.54047,206.784 c 0,-17.0686 6.78771,-33.45558 18.85703,-45.5249 12.06933,-12.06933 28.4563,-18.85704 45.52491,-18.85704 17.0686,0 33.45557,6.78771 45.5249,18.85704 12.06932,12.06932 18.85703,28.4563 18.85703,45.5249"
             clip-path="url(#pe85cf258ab)"
             style="fill:none;stroke:#b0b0b0;stroke-width:0.8;stroke-linecap:square"
             id="path168" />
        </g>
        <g
           id="text_11">
          <!-- −15 -->
          <g
             transform="matrix(0.1,0,0,-0.1,89.988127,221.38244)"
             id="g180">
            <defs
               id="defs172">
              <path
                 id="DejaVuSans-31"
                 d="M 794,531 H 1825 V 4091 L 703,3866 v 575 l 1116,225 h 631 V 531 H 3481 V 0 H 794 Z"
                 transform="scale(0.015625)" />
            </defs>
            <use
               xlink:href="#DejaVuSans-2212"
               id="use174" />
            <use
               xlink:href="#DejaVuSans-31"
               x="83.789062"
               id="use176" />
            <use
               xlink:href="#DejaVuSans-35"
               x="147.41211"
               id="use178" />
          </g>
        </g>
      </g>
      <g
         id="ytick_5">
        <g
           id="line2d_12">
          <path
             d="m 79.079826,206.784 c 0,-22.75814 9.050277,-44.60744 25.142704,-60.69987 16.09244,-16.09243 37.94174,-25.14271 60.69988,-25.14271 22.75813,0 44.60743,9.05028 60.69987,25.14271 16.09243,16.09243 25.14271,37.94173 25.14271,60.69987"
             clip-path="url(#pe85cf258ab)"
             style="fill:none;stroke:#b0b0b0;stroke-width:0.8;stroke-linecap:square"
             id="path184" />
        </g>
        <g
           id="text_12">
          <!-- −10 -->
          <g
             transform="matrix(0.1,0,0,-0.1,68.527482,221.38244)"
             id="g193">
            <use
               xlink:href="#DejaVuSans-2212"
               id="use187" />
            <use
               xlink:href="#DejaVuSans-31"
               x="83.789062"
               id="use189" />
            <use
               xlink:href="#DejaVuSans-30"
               x="147.41211"
               id="use191" />
          </g>
        </g>
      </g>
      <g
         id="ytick_6">
        <g
           id="line2d_13">
          <path
             d="m 57.61918,206.784 c 0,-28.44767 11.312847,-55.7593 31.428388,-75.87484 20.115542,-20.11554 47.427172,-31.428386 75.874842,-31.428386 28.44767,0 55.75929,11.312846 75.87483,31.428386 20.11555,20.11554 31.42839,47.42717 31.42839,75.87484"
             clip-path="url(#pe85cf258ab)"
             style="fill:none;stroke:#b0b0b0;stroke-width:0.8;stroke-linecap:square"
             id="path197" />
        </g>
        <g
           id="text_13">
          <!-- −5 -->
          <g
             transform="matrix(0.1,0,0,-0.1,50.248087,221.38244)"
             id="g204">
            <use
               xlink:href="#DejaVuSans-2212"
               id="use200" />
            <use
               xlink:href="#DejaVuSans-35"
               x="83.789062"
               id="use202" />
          </g>
        </g>
      </g>
      <g
         id="ytick_7">
        <g
           id="line2d_14">
          <path
             d="m 36.158535,206.784 c 0,-34.1372 13.575416,-66.91116 37.714065,-91.04981 24.138649,-24.138645 56.9126,-37.714061 91.04981,-37.714061 34.1372,0 66.91115,13.575416 91.0498,37.714061 24.13865,24.13865 37.71407,56.91261 37.71407,91.04981"
             clip-path="url(#pe85cf258ab)"
             style="fill:none;stroke:#b0b0b0;stroke-width:0.8;stroke-linecap:square"
             id="path208" />
        </g>
        <g
           id="text_14">
          <!-- 0 -->
          <g
             transform="matrix(0.1,0,0,-0.1,32.977285,221.38244)"
             id="g213">
            <use
               xlink:href="#DejaVuSans-30"
               id="use211" />
          </g>
        </g>
      </g>
    </g>
    <g
       id="line2d_15">
      <path
         d="m 163.10465,206.34952 -6.71787,-1.75323 -5.56667,-1.65773 -4.73012,-1.58423 -4.09384,-1.52435 -3.59306,-1.47359 -6.04216,-2.8192 -4.90623,-2.67559 -4.07209,-2.55393 -3.43194,-2.4473 -2.92406,-2.3517 -2.51051,-2.26453 -2.16663,-2.18406 -2.71782,-3.13678 -2.19343,-2.98227 -1.76413,-2.83909 -1.40532,-2.70489 -1.10034,-2.57793 -0.83738,-2.45689 -0.60796,-2.34072 -0.49997,-2.94705 -0.19146,-2.75512 0.0764,-2.56894 0.31162,-2.38697 0.52026,-2.20792 0.70696,-2.03058 0.87533,-1.85386 1.02828,-1.67667 1.16817,-1.49798 1.297,-1.31665 1.41639,-1.13149 1.52785,-0.9412 1.63265,-0.74427 1.73203,-0.53899 1.82715,-0.32327 1.9192,-0.0946 2.00948,0.15011 2.09939,0.41483 2.19063,0.70466 2.2853,1.02639 2.38617,1.38917 1.86164,1.31173 1.92996,1.57493 2.00666,1.87507 2.09488,2.22293 2.19916,2.63375 2.32623,3.13006 2.48662,3.7464 2.69751,4.53887 2.98929,5.60494 2.21989,4.54319 2.47706,5.43277 2.84532,6.67544 3.41344,8.5435 4.39642,11.69033 m -0.7884,-2.84945 -3.66431,-12.00452 -2.58104,-9.11172 -1.9149,-7.37754 -2.05782,-9.00307 -1.39408,-7.37046 -0.92894,-6.26153 -0.58128,-5.45539 -0.30931,-4.84004 -0.0893,-4.35257 0.0933,-3.95493 0.36112,-4.76544 0.58741,-4.28556 0.77729,-3.88562 0.93939,-3.54443 1.07964,-3.2477 1.20229,-2.98535 1.31042,-2.75013 1.77175,-3.13963 1.90197,-2.83965 2.01552,-2.566309 2.11489,-2.314271 2.20194,-2.079516 2.27817,-1.858946 2.3447,-1.650136 2.4025,-1.451164 2.45228,-1.260483 2.99811,-1.270707 3.04735,-1.016411 3.08554,-0.7706 3.11332,-0.531863 3.13116,-0.299035 3.13942,-0.07115 3.13832,0.152629 3.12804,0.372999 3.10865,0.590581 3.08012,0.805921 3.04236,1.019509 2.9952,1.231794 2.93837,1.44319 2.87153,1.654093 2.79423,1.864882 2.70592,2.075935 2.60587,2.287627 2.49328,2.500348 2.3671,2.714513 2.22608,2.93053 2.06871,3.1489 1.59061,2.79296 1.45695,2.94856 1.31018,3.10647 1.14871,3.26703 0.97054,3.43067 0.77324,3.59787 0.55375,3.7692 0.30819,3.94532 0.0491,3.28678 -0.14659,3.40637 -0.36443,3.5297 -0.60868,3.65734 -0.88487,3.78996 -1.20038,3.92829 -1.13648,3.04097 -1.36701,3.12574 -1.62884,3.2141 -1.92949,3.30656 -2.27921,3.40358 -2.69233,3.5057 -2.06483,2.39662 -2.31723,2.44622 -2.6097,2.49757 -2.95339,2.55052 -3.36397,2.60469 -3.86443,2.65921 -4.48979,2.71217 -5.29629,2.75945 -3.03176,1.3934 -3.34861,1.3983 -3.72882,1.39764 -4.19407,1.38785 -4.7773,1.36246 -5.53114,1.30874 -6.54522,1.19803 v 0"
         clip-path="url(#pe85cf258ab)"
         style="fill:none;stroke:#1f77b4;stroke-width:1.5;stroke-linecap:square"
         id="path218" />
    </g>
    <g
       id="line2d_16">
      <defs
         id="defs222">
        <path
           id="m733ea1e3a4"
           d="M 0,3 C 0.795609,3 1.55874,2.683901 2.12132,2.12132 2.683901,1.55874 3,0.795609 3,0 3,-0.795609 2.683901,-1.55874 2.12132,-2.12132 1.55874,-2.683901 0.795609,-3 0,-3 -0.795609,-3 -1.55874,-2.683901 -2.12132,-2.12132 -2.683901,-1.55874 -3,-0.795609 -3,0 -3,0.795609 -2.683901,1.55874 -2.12132,2.12132 -1.55874,2.683901 -0.795609,3 0,3 Z"
           style="stroke:#ff0000" />
      </defs>
      <g
         clip-path="url(#pe85cf258ab)"
         id="g226">
        <use
           xlink:href="#m733ea1e3a4"
           x="209.52359"
           y="85.991333"
           style="fill:#ff0000;stroke:#ff0000"
           id="use224" />
      </g>
    </g>
    <g
       id="patch_3">
      <path
         d="m 297.97841,206.784 c 0,-35.27511 -14.02793,-69.14153 -38.9712,-94.0848 -24.94327,-24.94327 -58.80969,-38.9712 -94.0848,-38.9712 -35.27511,0 -69.141533,14.02793 -94.084804,38.9712 -24.94327,24.94327 -38.9712,58.80969 -38.9712,94.0848"
         style="fill:none;stroke:#000000;stroke-width:0.8;stroke-linecap:square;stroke-linejoin:miter"
         id="path229" />
    </g>
    <g
       id="patch_4">
      <path
         d="M 164.92241,206.784 H 31.866406"
         style="fill:none;stroke:#000000;stroke-width:0.8;stroke-linecap:square;stroke-linejoin:miter"
         id="path232" />
    </g>
    <g
       id="patch_5">
      <path
         d="m 164.92241,206.784 h 133.056"
         style="fill:none;stroke:#000000;stroke-width:0.8;stroke-linecap:square;stroke-linejoin:miter"
         id="path235" />
    </g>
    <g
       id="text_15">
      <!-- 20.0 -->
      <g
         transform="matrix(0.1,0,0,-0.1,192.9324,98.761022)"
         id="g249">
        <defs
           id="defs239">
          <path
             id="DejaVuSans-2e"
             d="m 684,794 h 660 V 0 H 684 Z"
             transform="scale(0.015625)" />
        </defs>
        <use
           xlink:href="#DejaVuSans-32"
           id="use241" />
        <use
           xlink:href="#DejaVuSans-30"
           x="63.623047"
           id="use243" />
        <use
           xlink:href="#DejaVuSans-2e"
           x="127.24609"
           id="use245" />
        <use
           xlink:href="#DejaVuSans-30"
           x="159.0332"
           id="use247" />
      </g>
    </g>
  </g>
  <defs
     id="defs257">
    <clipPath
       id="pe85cf258ab">
      <path
         d="m 297.97841,206.784 c 0,-35.27511 -14.02793,-69.14153 -38.9712,-94.0848 -24.94327,-24.94327 -58.80969,-38.9712 -94.0848,-38.9712 -35.27511,0 -69.141533,14.02793 -94.084804,38.9712 -24.94327,24.94327 -38.9712,58.80969 -38.9712,94.0848 H 164.92241 c 0,0 0,0 0,0 0,0 0,0 0,0 0,0 0,0 0,0 0,0 0,0 0,0 z"
         id="path254" />
    </clipPath>
  </defs>
</svg>
