<?xml version="1.0" encoding="utf-8" standalone="no"?>
<!DOCTYPE svg PUBLIC "-//W3C//DTD SVG 1.1//EN"
  "http://www.w3.org/Graphics/SVG/1.1/DTD/svg11.dtd">
<svg xmlns:xlink="http://www.w3.org/1999/xlink" width="329.41825pt" height="318.190125pt" viewBox="0 0 329.41825 318.190125" xmlns="http://www.w3.org/2000/svg" version="1.1">
 <metadata>
  <rdf:RDF xmlns:dc="http://purl.org/dc/elements/1.1/" xmlns:cc="http://creativecommons.org/ns#" xmlns:rdf="http://www.w3.org/1999/02/22-rdf-syntax-ns#">
   <cc:Work>
    <dc:type rdf:resource="http://purl.org/dc/dcmitype/StillImage"/>
    <dc:date>2024-01-27T03:22:24.303597</dc:date>
    <dc:format>image/svg+xml</dc:format>
    <dc:creator>
     <cc:Agent>
      <dc:title>Matplotlib v3.8.0, https://matplotlib.org/</dc:title>
     </cc:Agent>
    </dc:creator>
   </cc:Work>
  </rdf:RDF>
 </metadata>
 <defs>
  <style type="text/css">*{stroke-linejoin: round; stroke-linecap: butt}</style>
 </defs>
 <g id="figure_1">
  <g id="patch_1">
   <path d="M 0 318.190125 
L 329.41825 318.190125 
L 329.41825 0 
L 0 0 
z
" style="fill: #ffffff"/>
  </g>
  <g id="axes_1">
   <g id="patch_2">
    <path d="M 299.35575 159.095062 
C 299.35575 141.622309 295.913998 124.319455 289.227465 108.176736 
C 282.540932 92.034016 272.739653 77.365365 260.38455 65.010263 
C 248.029447 52.65516 233.360796 42.853881 217.218077 36.167347 
C 201.075357 29.480814 183.772504 26.039062 166.29975 26.039062 
C 148.826996 26.039062 131.524143 29.480814 115.381423 36.167347 
C 99.238704 42.853881 84.570053 52.65516 72.21495 65.010263 
C 59.859847 77.365365 50.058568 92.034016 43.372035 108.176736 
C 36.685502 124.319455 33.24375 141.622309 33.24375 159.095062 
C 33.24375 176.567816 36.685502 193.87067 43.372035 210.013389 
C 50.058568 226.156109 59.859847 240.82476 72.21495 253.179862 
C 84.570053 265.534965 99.238704 275.336244 115.381423 282.022778 
C 131.524143 288.709311 148.826996 292.151062 166.29975 292.151062 
C 183.772504 292.151062 201.075357 288.709311 217.218077 282.022778 
C 233.360796 275.336244 248.029447 265.534965 260.38455 253.179862 
C 272.739653 240.82476 282.540932 226.156109 289.227465 210.013389 
C 295.913998 193.87067 299.35575 176.567816 299.35575 159.095062 
M 166.29975 159.095062 
C 166.29975 159.095062 166.29975 159.095062 166.29975 159.095062 
C 166.29975 159.095062 166.29975 159.095062 166.29975 159.095062 
C 166.29975 159.095062 166.29975 159.095062 166.29975 159.095062 
C 166.29975 159.095062 166.29975 159.095062 166.29975 159.095062 
C 166.29975 159.095062 166.29975 159.095062 166.29975 159.095062 
C 166.29975 159.095062 166.29975 159.095062 166.29975 159.095062 
C 166.29975 159.095062 166.29975 159.095062 166.29975 159.095062 
C 166.29975 159.095062 166.29975 159.095062 166.29975 159.095062 
C 166.29975 159.095062 166.29975 159.095062 166.29975 159.095062 
C 166.29975 159.095062 166.29975 159.095062 166.29975 159.095062 
C 166.29975 159.095062 166.29975 159.095062 166.29975 159.095062 
C 166.29975 159.095062 166.29975 159.095062 166.29975 159.095062 
C 166.29975 159.095062 166.29975 159.095062 166.29975 159.095062 
C 166.29975 159.095062 166.29975 159.095062 166.29975 159.095062 
C 166.29975 159.095062 166.29975 159.095062 166.29975 159.095062 
C 166.29975 159.095062 166.29975 159.095062 166.29975 159.095062 
z
" style="fill: #ffffff"/>
   </g>
   <g id="matplotlib.axis_1">
    <g id="xtick_1">
     <g id="line2d_1">
      <path d="M 166.29975 159.095062 
L 166.29975 26.039062 
" clip-path="url(#pf5ad669344)" style="fill: none; stroke: #b0b0b0; stroke-width: 0.8; stroke-linecap: square"/>
     </g>
     <g id="text_1">
      <!-- 0° -->
      <g transform="translate(160.6185 14.798437) scale(0.1 -0.1)">
       <defs>
        <path id="DejaVuSans-30" d="M 2034 4250 
Q 1547 4250 1301 3770 
Q 1056 3291 1056 2328 
Q 1056 1369 1301 889 
Q 1547 409 2034 409 
Q 2525 409 2770 889 
Q 3016 1369 3016 2328 
Q 3016 3291 2770 3770 
Q 2525 4250 2034 4250 
z
M 2034 4750 
Q 2819 4750 3233 4129 
Q 3647 3509 3647 2328 
Q 3647 1150 3233 529 
Q 2819 -91 2034 -91 
Q 1250 -91 836 529 
Q 422 1150 422 2328 
Q 422 3509 836 4129 
Q 1250 4750 2034 4750 
z
" transform="scale(0.015625)"/>
        <path id="DejaVuSans-b0" d="M 1600 4347 
Q 1350 4347 1178 4173 
Q 1006 4000 1006 3750 
Q 1006 3503 1178 3333 
Q 1350 3163 1600 3163 
Q 1850 3163 2022 3333 
Q 2194 3503 2194 3750 
Q 2194 3997 2020 4172 
Q 1847 4347 1600 4347 
z
M 1600 4750 
Q 1800 4750 1984 4673 
Q 2169 4597 2303 4453 
Q 2447 4313 2519 4134 
Q 2591 3956 2591 3750 
Q 2591 3338 2302 3052 
Q 2013 2766 1594 2766 
Q 1172 2766 890 3047 
Q 609 3328 609 3750 
Q 609 4169 896 4459 
Q 1184 4750 1600 4750 
z
" transform="scale(0.015625)"/>
       </defs>
       <use xlink:href="#DejaVuSans-30"/>
       <use xlink:href="#DejaVuSans-b0" x="63.623047"/>
      </g>
     </g>
    </g>
    <g id="xtick_2">
     <g id="line2d_2">
      <path d="M 166.29975 159.095062 
L 260.38455 65.010263 
" clip-path="url(#pf5ad669344)" style="fill: none; stroke: #b0b0b0; stroke-width: 0.8; stroke-linecap: square"/>
     </g>
     <g id="text_2">
      <!-- 45° -->
      <g transform="translate(261.421545 57.870143) scale(0.1 -0.1)">
       <defs>
        <path id="DejaVuSans-34" d="M 2419 4116 
L 825 1625 
L 2419 1625 
L 2419 4116 
z
M 2253 4666 
L 3047 4666 
L 3047 1625 
L 3713 1625 
L 3713 1100 
L 3047 1100 
L 3047 0 
L 2419 0 
L 2419 1100 
L 313 1100 
L 313 1709 
L 2253 4666 
z
" transform="scale(0.015625)"/>
        <path id="DejaVuSans-35" d="M 691 4666 
L 3169 4666 
L 3169 4134 
L 1269 4134 
L 1269 2991 
Q 1406 3038 1543 3061 
Q 1681 3084 1819 3084 
Q 2600 3084 3056 2656 
Q 3513 2228 3513 1497 
Q 3513 744 3044 326 
Q 2575 -91 1722 -91 
Q 1428 -91 1123 -41 
Q 819 9 494 109 
L 494 744 
Q 775 591 1075 516 
Q 1375 441 1709 441 
Q 2250 441 2565 725 
Q 2881 1009 2881 1497 
Q 2881 1984 2565 2268 
Q 2250 2553 1709 2553 
Q 1456 2553 1204 2497 
Q 953 2441 691 2322 
L 691 4666 
z
" transform="scale(0.015625)"/>
       </defs>
       <use xlink:href="#DejaVuSans-34"/>
       <use xlink:href="#DejaVuSans-35" x="63.623047"/>
       <use xlink:href="#DejaVuSans-b0" x="127.246094"/>
      </g>
     </g>
    </g>
    <g id="xtick_3">
     <g id="line2d_3">
      <path d="M 166.29975 159.095062 
L 299.35575 159.095062 
" clip-path="url(#pf5ad669344)" style="fill: none; stroke: #b0b0b0; stroke-width: 0.8; stroke-linecap: square"/>
     </g>
     <g id="text_3">
      <!-- 90° -->
      <g transform="translate(304.49325 161.854437) scale(0.1 -0.1)">
       <defs>
        <path id="DejaVuSans-39" d="M 703 97 
L 703 672 
Q 941 559 1184 500 
Q 1428 441 1663 441 
Q 2288 441 2617 861 
Q 2947 1281 2994 2138 
Q 2813 1869 2534 1725 
Q 2256 1581 1919 1581 
Q 1219 1581 811 2004 
Q 403 2428 403 3163 
Q 403 3881 828 4315 
Q 1253 4750 1959 4750 
Q 2769 4750 3195 4129 
Q 3622 3509 3622 2328 
Q 3622 1225 3098 567 
Q 2575 -91 1691 -91 
Q 1453 -91 1209 -44 
Q 966 3 703 97 
z
M 1959 2075 
Q 2384 2075 2632 2365 
Q 2881 2656 2881 3163 
Q 2881 3666 2632 3958 
Q 2384 4250 1959 4250 
Q 1534 4250 1286 3958 
Q 1038 3666 1038 3163 
Q 1038 2656 1286 2365 
Q 1534 2075 1959 2075 
z
" transform="scale(0.015625)"/>
       </defs>
       <use xlink:href="#DejaVuSans-39"/>
       <use xlink:href="#DejaVuSans-30" x="63.623047"/>
       <use xlink:href="#DejaVuSans-b0" x="127.246094"/>
      </g>
     </g>
    </g>
    <g id="xtick_4">
     <g id="line2d_4">
      <path d="M 166.29975 159.095062 
L 260.38455 253.179862 
" clip-path="url(#pf5ad669344)" style="fill: none; stroke: #b0b0b0; stroke-width: 0.8; stroke-linecap: square"/>
     </g>
     <g id="text_4">
      <!-- 135° -->
      <g transform="translate(258.240295 265.838732) scale(0.1 -0.1)">
       <defs>
        <path id="DejaVuSans-31" d="M 794 531 
L 1825 531 
L 1825 4091 
L 703 3866 
L 703 4441 
L 1819 4666 
L 2450 4666 
L 2450 531 
L 3481 531 
L 3481 0 
L 794 0 
L 794 531 
z
" transform="scale(0.015625)"/>
        <path id="DejaVuSans-33" d="M 2597 2516 
Q 3050 2419 3304 2112 
Q 3559 1806 3559 1356 
Q 3559 666 3084 287 
Q 2609 -91 1734 -91 
Q 1441 -91 1130 -33 
Q 819 25 488 141 
L 488 750 
Q 750 597 1062 519 
Q 1375 441 1716 441 
Q 2309 441 2620 675 
Q 2931 909 2931 1356 
Q 2931 1769 2642 2001 
Q 2353 2234 1838 2234 
L 1294 2234 
L 1294 2753 
L 1863 2753 
Q 2328 2753 2575 2939 
Q 2822 3125 2822 3475 
Q 2822 3834 2567 4026 
Q 2313 4219 1838 4219 
Q 1578 4219 1281 4162 
Q 984 4106 628 3988 
L 628 4550 
Q 988 4650 1302 4700 
Q 1616 4750 1894 4750 
Q 2613 4750 3031 4423 
Q 3450 4097 3450 3541 
Q 3450 3153 3228 2886 
Q 3006 2619 2597 2516 
z
" transform="scale(0.015625)"/>
       </defs>
       <use xlink:href="#DejaVuSans-31"/>
       <use xlink:href="#DejaVuSans-33" x="63.623047"/>
       <use xlink:href="#DejaVuSans-35" x="127.246094"/>
       <use xlink:href="#DejaVuSans-b0" x="190.869141"/>
      </g>
     </g>
    </g>
    <g id="xtick_5">
     <g id="line2d_5">
      <path d="M 166.29975 159.095062 
L 166.29975 292.151062 
" clip-path="url(#pf5ad669344)" style="fill: none; stroke: #b0b0b0; stroke-width: 0.8; stroke-linecap: square"/>
     </g>
     <g id="text_5">
      <!-- 180° -->
      <g transform="translate(154.256 308.910437) scale(0.1 -0.1)">
       <defs>
        <path id="DejaVuSans-38" d="M 2034 2216 
Q 1584 2216 1326 1975 
Q 1069 1734 1069 1313 
Q 1069 891 1326 650 
Q 1584 409 2034 409 
Q 2484 409 2743 651 
Q 3003 894 3003 1313 
Q 3003 1734 2745 1975 
Q 2488 2216 2034 2216 
z
M 1403 2484 
Q 997 2584 770 2862 
Q 544 3141 544 3541 
Q 544 4100 942 4425 
Q 1341 4750 2034 4750 
Q 2731 4750 3128 4425 
Q 3525 4100 3525 3541 
Q 3525 3141 3298 2862 
Q 3072 2584 2669 2484 
Q 3125 2378 3379 2068 
Q 3634 1759 3634 1313 
Q 3634 634 3220 271 
Q 2806 -91 2034 -91 
Q 1263 -91 848 271 
Q 434 634 434 1313 
Q 434 1759 690 2068 
Q 947 2378 1403 2484 
z
M 1172 3481 
Q 1172 3119 1398 2916 
Q 1625 2713 2034 2713 
Q 2441 2713 2670 2916 
Q 2900 3119 2900 3481 
Q 2900 3844 2670 4047 
Q 2441 4250 2034 4250 
Q 1625 4250 1398 4047 
Q 1172 3844 1172 3481 
z
" transform="scale(0.015625)"/>
       </defs>
       <use xlink:href="#DejaVuSans-31"/>
       <use xlink:href="#DejaVuSans-38" x="63.623047"/>
       <use xlink:href="#DejaVuSans-30" x="127.246094"/>
       <use xlink:href="#DejaVuSans-b0" x="190.869141"/>
      </g>
     </g>
    </g>
    <g id="xtick_6">
     <g id="line2d_6">
      <path d="M 166.29975 159.095062 
L 72.21495 253.179862 
" clip-path="url(#pf5ad669344)" style="fill: none; stroke: #b0b0b0; stroke-width: 0.8; stroke-linecap: square"/>
     </g>
     <g id="text_6">
      <!-- 225° -->
      <g transform="translate(50.271705 265.838732) scale(0.1 -0.1)">
       <defs>
        <path id="DejaVuSans-32" d="M 1228 531 
L 3431 531 
L 3431 0 
L 469 0 
L 469 531 
Q 828 903 1448 1529 
Q 2069 2156 2228 2338 
Q 2531 2678 2651 2914 
Q 2772 3150 2772 3378 
Q 2772 3750 2511 3984 
Q 2250 4219 1831 4219 
Q 1534 4219 1204 4116 
Q 875 4013 500 3803 
L 500 4441 
Q 881 4594 1212 4672 
Q 1544 4750 1819 4750 
Q 2544 4750 2975 4387 
Q 3406 4025 3406 3419 
Q 3406 3131 3298 2873 
Q 3191 2616 2906 2266 
Q 2828 2175 2409 1742 
Q 1991 1309 1228 531 
z
" transform="scale(0.015625)"/>
       </defs>
       <use xlink:href="#DejaVuSans-32"/>
       <use xlink:href="#DejaVuSans-32" x="63.623047"/>
       <use xlink:href="#DejaVuSans-35" x="127.246094"/>
       <use xlink:href="#DejaVuSans-b0" x="190.869141"/>
      </g>
     </g>
    </g>
    <g id="xtick_7">
     <g id="line2d_7">
      <path d="M 166.29975 159.095062 
L 33.24375 159.095062 
" clip-path="url(#pf5ad669344)" style="fill: none; stroke: #b0b0b0; stroke-width: 0.8; stroke-linecap: square"/>
     </g>
     <g id="text_7">
      <!-- 270° -->
      <g transform="translate(7.2 161.854437) scale(0.1 -0.1)">
       <defs>
        <path id="DejaVuSans-37" d="M 525 4666 
L 3525 4666 
L 3525 4397 
L 1831 0 
L 1172 0 
L 2766 4134 
L 525 4134 
L 525 4666 
z
" transform="scale(0.015625)"/>
       </defs>
       <use xlink:href="#DejaVuSans-32"/>
       <use xlink:href="#DejaVuSans-37" x="63.623047"/>
       <use xlink:href="#DejaVuSans-30" x="127.246094"/>
       <use xlink:href="#DejaVuSans-b0" x="190.869141"/>
      </g>
     </g>
    </g>
    <g id="xtick_8">
     <g id="line2d_8">
      <path d="M 166.29975 159.095062 
L 72.21495 65.010263 
" clip-path="url(#pf5ad669344)" style="fill: none; stroke: #b0b0b0; stroke-width: 0.8; stroke-linecap: square"/>
     </g>
     <g id="text_8">
      <!-- 315° -->
      <g transform="translate(50.271705 57.870143) scale(0.1 -0.1)">
       <use xlink:href="#DejaVuSans-33"/>
       <use xlink:href="#DejaVuSans-31" x="63.623047"/>
       <use xlink:href="#DejaVuSans-35" x="127.246094"/>
       <use xlink:href="#DejaVuSans-b0" x="190.869141"/>
      </g>
     </g>
    </g>
   </g>
   <g id="matplotlib.axis_2">
    <g id="ytick_1">
     <g id="line2d_9">
      <path d="M 166.29975 142.463062 
C 168.483844 142.463062 170.646701 142.893281 172.664541 143.729098 
C 174.682381 144.564915 176.515962 145.790075 178.06035 147.334463 
C 179.604738 148.87885 180.829898 150.712432 181.665714 152.730272 
C 182.501531 154.748112 182.93175 156.910968 182.93175 159.095062 
C 182.93175 161.279157 182.501531 163.442013 181.665714 165.459853 
C 180.829898 167.477693 179.604738 169.311275 178.06035 170.855662 
C 176.515962 172.40005 174.682381 173.62521 172.664541 174.461027 
C 170.646701 175.296844 168.483844 175.727062 166.29975 175.727062 
C 164.115656 175.727062 161.952799 175.296844 159.934959 174.461027 
C 157.917119 173.62521 156.083538 172.40005 154.53915 170.855662 
C 152.994762 169.311275 151.769602 167.477693 150.933786 165.459853 
C 150.097969 163.442013 149.66775 161.279157 149.66775 159.095062 
C 149.66775 156.910968 150.097969 154.748112 150.933786 152.730272 
C 151.769602 150.712432 152.994762 148.87885 154.53915 147.334463 
C 156.083538 145.790075 157.917119 144.564915 159.934959 143.729098 
C 161.952799 142.893281 164.115656 142.463062 166.29975 142.463062 
" clip-path="url(#pf5ad669344)" style="fill: none; stroke: #b0b0b0; stroke-width: 0.8; stroke-linecap: square"/>
     </g>
     <g id="text_9">
      <!-- −35 -->
      <g transform="translate(179.923887 147.475652) scale(0.1 -0.1)">
       <defs>
        <path id="DejaVuSans-2212" d="M 678 2272 
L 4684 2272 
L 4684 1741 
L 678 1741 
L 678 2272 
z
" transform="scale(0.015625)"/>
       </defs>
       <use xlink:href="#DejaVuSans-2212"/>
       <use xlink:href="#DejaVuSans-33" x="83.789062"/>
       <use xlink:href="#DejaVuSans-35" x="147.412109"/>
      </g>
     </g>
    </g>
    <g id="ytick_2">
     <g id="line2d_10">
      <path d="M 166.29975 125.831062 
C 170.667938 125.831062 174.993652 126.6915 179.029332 128.363134 
C 183.065012 130.034767 186.732174 132.485087 189.82095 135.573863 
C 192.909726 138.662638 195.360045 142.329801 197.031679 146.365481 
C 198.703312 150.401161 199.56375 154.726874 199.56375 159.095062 
C 199.56375 163.463251 198.703312 167.788964 197.031679 171.824644 
C 195.360045 175.860324 192.909726 179.527487 189.82095 182.616262 
C 186.732174 185.705038 183.065012 188.155358 179.029332 189.826991 
C 174.993652 191.498625 170.667938 192.359062 166.29975 192.359062 
C 161.931562 192.359062 157.605848 191.498625 153.570168 189.826991 
C 149.534488 188.155358 145.867326 185.705038 142.77855 182.616262 
C 139.689774 179.527487 137.239455 175.860324 135.567821 171.824644 
C 133.896188 167.788964 133.03575 163.463251 133.03575 159.095062 
C 133.03575 154.726874 133.896188 150.401161 135.567821 146.365481 
C 137.239455 142.329801 139.689774 138.662638 142.77855 135.573863 
C 145.867326 132.485087 149.534488 130.034767 153.570168 128.363134 
C 157.605848 126.6915 161.931562 125.831062 166.29975 125.831062 
" clip-path="url(#pf5ad669344)" style="fill: none; stroke: #b0b0b0; stroke-width: 0.8; stroke-linecap: square"/>
     </g>
     <g id="text_10">
      <!-- −30 -->
      <g transform="translate(193.548024 137.935928) scale(0.1 -0.1)">
       <use xlink:href="#DejaVuSans-2212"/>
       <use xlink:href="#DejaVuSans-33" x="83.789062"/>
       <use xlink:href="#DejaVuSans-30" x="147.412109"/>
      </g>
     </g>
    </g>
    <g id="ytick_3">
     <g id="line2d_11">
      <path d="M 166.29975 109.199062 
C 172.852033 109.199062 179.340603 110.489719 185.394123 112.997169 
C 191.447642 115.504619 196.948386 119.180099 201.58155 123.813263 
C 206.214713 128.446426 209.890193 133.94717 212.397643 140.00069 
C 214.905093 146.05421 216.19575 152.54278 216.19575 159.095062 
C 216.19575 165.647345 214.905093 172.135915 212.397643 178.189435 
C 209.890193 184.242955 206.214713 189.743699 201.58155 194.376862 
C 196.948386 199.010026 191.447642 202.685506 185.394123 205.192956 
C 179.340603 207.700406 172.852033 208.991062 166.29975 208.991062 
C 159.747467 208.991062 153.258897 207.700406 147.205377 205.192956 
C 141.151858 202.685506 135.651114 199.010026 131.01795 194.376862 
C 126.384787 189.743699 122.709307 184.242955 120.201857 178.189435 
C 117.694407 172.135915 116.40375 165.647345 116.40375 159.095062 
C 116.40375 152.54278 117.694407 146.05421 120.201857 140.00069 
C 122.709307 133.94717 126.384787 128.446426 131.01795 123.813263 
C 135.651114 119.180099 141.151858 115.504619 147.205377 112.997169 
C 153.258897 110.489719 159.747467 109.199062 166.29975 109.199062 
" clip-path="url(#pf5ad669344)" style="fill: none; stroke: #b0b0b0; stroke-width: 0.8; stroke-linecap: square"/>
     </g>
     <g id="text_11">
      <!-- −25 -->
      <g transform="translate(207.17216 128.396205) scale(0.1 -0.1)">
       <use xlink:href="#DejaVuSans-2212"/>
       <use xlink:href="#DejaVuSans-32" x="83.789062"/>
       <use xlink:href="#DejaVuSans-35" x="147.412109"/>
      </g>
     </g>
    </g>
    <g id="ytick_4">
     <g id="line2d_12">
      <path d="M 166.29975 92.567062 
C 175.036127 92.567062 183.687554 94.287938 191.758913 97.631205 
C 199.830273 100.974472 207.164599 105.875111 213.34215 112.052663 
C 219.519701 118.230214 224.420341 125.564539 227.763608 133.635899 
C 231.106874 141.707259 232.82775 150.358686 232.82775 159.095062 
C 232.82775 167.831439 231.106874 176.482866 227.763608 184.554226 
C 224.420341 192.625586 219.519701 199.959911 213.34215 206.137462 
C 207.164599 212.315014 199.830273 217.215653 191.758913 220.55892 
C 183.687554 223.902187 175.036127 225.623062 166.29975 225.623062 
C 157.563373 225.623062 148.911946 223.902187 140.840587 220.55892 
C 132.769227 217.215653 125.434901 212.315014 119.25735 206.137462 
C 113.079799 199.959911 108.179159 192.625586 104.835892 184.554226 
C 101.492626 176.482866 99.77175 167.831439 99.77175 159.095062 
C 99.77175 150.358686 101.492626 141.707259 104.835892 133.635899 
C 108.179159 125.564539 113.079799 118.230214 119.25735 112.052663 
C 125.434901 105.875111 132.769227 100.974472 140.840587 97.631205 
C 148.911946 94.287938 157.563373 92.567062 166.29975 92.567062 
" clip-path="url(#pf5ad669344)" style="fill: none; stroke: #b0b0b0; stroke-width: 0.8; stroke-linecap: square"/>
     </g>
     <g id="text_12">
      <!-- −20 -->
      <g transform="translate(220.796297 118.856482) scale(0.1 -0.1)">
       <use xlink:href="#DejaVuSans-2212"/>
       <use xlink:href="#DejaVuSans-32" x="83.789062"/>
       <use xlink:href="#DejaVuSans-30" x="147.412109"/>
      </g>
     </g>
    </g>
    <g id="ytick_5">
     <g id="line2d_13">
      <path d="M 166.29975 75.935062 
C 177.220221 75.935062 188.034504 78.086157 198.123704 82.265241 
C 208.212904 86.444324 217.380811 92.570123 225.10275 100.292063 
C 232.824689 108.014002 238.950489 117.181908 243.129572 127.271108 
C 247.308655 137.360308 249.45975 148.174591 249.45975 159.095062 
C 249.45975 170.015534 247.308655 180.829817 243.129572 190.919017 
C 238.950489 201.008217 232.824689 210.176123 225.10275 217.898062 
C 217.380811 225.620002 208.212904 231.745801 198.123704 235.924884 
C 188.034504 240.103968 177.220221 242.255062 166.29975 242.255062 
C 155.379279 242.255062 144.564996 240.103968 134.475796 235.924884 
C 124.386596 231.745801 115.218689 225.620002 107.49675 217.898062 
C 99.774811 210.176123 93.649011 201.008217 89.469928 190.919017 
C 85.290845 180.829817 83.13975 170.015534 83.13975 159.095062 
C 83.13975 148.174591 85.290845 137.360308 89.469928 127.271108 
C 93.649011 117.181908 99.774811 108.014002 107.49675 100.292063 
C 115.218689 92.570123 124.386596 86.444324 134.475796 82.265241 
C 144.564996 78.086157 155.379279 75.935062 166.29975 75.935062 
" clip-path="url(#pf5ad669344)" style="fill: none; stroke: #b0b0b0; stroke-width: 0.8; stroke-linecap: square"/>
     </g>
     <g id="text_13">
      <!-- −15 -->
      <g transform="translate(234.420434 109.316759) scale(0.1 -0.1)">
       <use xlink:href="#DejaVuSans-2212"/>
       <use xlink:href="#DejaVuSans-31" x="83.789062"/>
       <use xlink:href="#DejaVuSans-35" x="147.412109"/>
      </g>
     </g>
    </g>
    <g id="ytick_6">
     <g id="line2d_14">
      <path d="M 166.29975 59.303062 
C 179.404315 59.303062 192.381455 61.884376 204.488495 66.899276 
C 216.595535 71.914176 227.597023 79.265136 236.86335 88.531463 
C 246.129677 97.79779 253.480636 108.799278 258.495536 120.906317 
C 263.510436 133.013357 266.09175 145.990497 266.09175 159.095062 
C 266.09175 172.199628 263.510436 185.176768 258.495536 197.283808 
C 253.480636 209.390847 246.129677 220.392335 236.86335 229.658662 
C 227.597023 238.924989 216.595535 246.275949 204.488495 251.290849 
C 192.381455 256.305749 179.404315 258.887062 166.29975 258.887062 
C 153.195185 258.887062 140.218045 256.305749 128.111005 251.290849 
C 116.003965 246.275949 105.002477 238.924989 95.73615 229.658662 
C 86.469823 220.392335 79.118864 209.390847 74.103964 197.283808 
C 69.089064 185.176768 66.50775 172.199628 66.50775 159.095062 
C 66.50775 145.990497 69.089064 133.013357 74.103964 120.906317 
C 79.118864 108.799278 86.469823 97.79779 95.73615 88.531463 
C 105.002477 79.265136 116.003965 71.914176 128.111005 66.899276 
C 140.218045 61.884376 153.195185 59.303062 166.29975 59.303062 
" clip-path="url(#pf5ad669344)" style="fill: none; stroke: #b0b0b0; stroke-width: 0.8; stroke-linecap: square"/>
     </g>
     <g id="text_14">
      <!-- −10 -->
      <g transform="translate(248.044571 99.777035) scale(0.1 -0.1)">
       <use xlink:href="#DejaVuSans-2212"/>
       <use xlink:href="#DejaVuSans-31" x="83.789062"/>
       <use xlink:href="#DejaVuSans-30" x="147.412109"/>
      </g>
     </g>
    </g>
    <g id="ytick_7">
     <g id="line2d_15">
      <path d="M 166.29975 42.671062 
C 181.58841 42.671062 196.728406 45.682595 210.853286 51.533312 
C 224.978166 57.384029 237.813235 65.960148 248.62395 76.770863 
C 259.434665 87.581577 268.010784 100.416647 273.861501 114.541527 
C 279.712217 128.666406 282.72375 143.806403 282.72375 159.095062 
C 282.72375 174.383722 279.712217 189.523719 273.861501 203.648598 
C 268.010784 217.773478 259.434665 230.608548 248.62395 241.419262 
C 237.813235 252.229977 224.978166 260.806096 210.853286 266.656813 
C 196.728406 272.50753 181.58841 275.519062 166.29975 275.519062 
C 151.01109 275.519062 135.871094 272.50753 121.746214 266.656813 
C 107.621334 260.806096 94.786265 252.229977 83.97555 241.419262 
C 73.164835 230.608548 64.588716 217.773478 58.737999 203.648598 
C 52.887283 189.523719 49.87575 174.383722 49.87575 159.095062 
C 49.87575 143.806403 52.887283 128.666406 58.737999 114.541527 
C 64.588716 100.416647 73.164835 87.581577 83.97555 76.770863 
C 94.786265 65.960148 107.621334 57.384029 121.746214 51.533312 
C 135.871094 45.682595 151.01109 42.671062 166.29975 42.671062 
" clip-path="url(#pf5ad669344)" style="fill: none; stroke: #b0b0b0; stroke-width: 0.8; stroke-linecap: square"/>
     </g>
     <g id="text_15">
      <!-- −5 -->
      <g transform="translate(261.668708 90.237312) scale(0.1 -0.1)">
       <use xlink:href="#DejaVuSans-2212"/>
       <use xlink:href="#DejaVuSans-35" x="83.789062"/>
      </g>
     </g>
    </g>
    <g id="ytick_8">
     <g id="line2d_16">
      <path d="M 166.29975 26.039062 
C 183.772504 26.039062 201.075357 29.480814 217.218077 36.167347 
C 233.360796 42.853881 248.029447 52.65516 260.38455 65.010263 
C 272.739653 77.365365 282.540932 92.034016 289.227465 108.176736 
C 295.913998 124.319455 299.35575 141.622309 299.35575 159.095062 
C 299.35575 176.567816 295.913998 193.87067 289.227465 210.013389 
C 282.540932 226.156109 272.739653 240.82476 260.38455 253.179862 
C 248.029447 265.534965 233.360796 275.336244 217.218077 282.022778 
C 201.075357 288.709311 183.772504 292.151062 166.29975 292.151062 
C 148.826996 292.151062 131.524143 288.709311 115.381423 282.022778 
C 99.238704 275.336244 84.570053 265.534965 72.21495 253.179862 
C 59.859847 240.82476 50.058568 226.156109 43.372035 210.013389 
C 36.685502 193.87067 33.24375 176.567816 33.24375 159.095062 
C 33.24375 141.622309 36.685502 124.319455 43.372035 108.176736 
C 50.058568 92.034016 59.859847 77.365365 72.21495 65.010263 
C 84.570053 52.65516 99.238704 42.853881 115.381423 36.167347 
C 131.524143 29.480814 148.826996 26.039062 166.29975 26.039062 
" clip-path="url(#pf5ad669344)" style="fill: none; stroke: #b0b0b0; stroke-width: 0.8; stroke-linecap: square"/>
     </g>
     <g id="text_16">
      <!-- 0 -->
      <g transform="translate(275.292844 80.697589) scale(0.1 -0.1)">
       <use xlink:href="#DejaVuSans-30"/>
      </g>
     </g>
    </g>
   </g>
   <g id="line2d_17">
    <path d="M 166.29975 169.790365 
L 166.147503 165.145433 
L 166.223168 160.615809 
L 166.276957 159.497304 
M 166.24833 158.134152 
L 166.144651 153.61651 
L 166.267965 148.987794 
L 166.627335 144.216135 
L 167.235433 139.273828 
L 168.108081 134.137192 
L 169.263744 128.787403 
L 170.722702 123.21295 
L 172.505414 117.415103 
L 174.628986 111.419378 
L 177.099299 105.299568 
L 179.167566 100.726436 
L 181.386188 96.320752 
L 183.680004 92.345424 
L 185.177688 90.161345 
L 186.55618 88.619817 
L 187.159702 88.202565 
L 187.673764 88.107324 
L 188.06395 88.424554 
L 188.283115 89.277051 
L 188.264221 90.838647 
L 187.90656 93.370612 
L 187.046079 97.300777 
L 185.381446 103.421983 
L 182.250031 113.49535 
L 173.917207 138.166272 
L 183.570518 112.556844 
L 189.649558 97.369107 
L 194.059909 87.08214 
L 197.596499 79.404886 
L 200.591263 73.367983 
L 203.213644 68.469294 
L 205.563488 64.409305 
L 207.705982 60.99103 
L 209.686832 58.07605 
L 213.289423 53.375632 
L 216.551327 49.763327 
L 219.56927 46.937024 
L 222.380109 44.752807 
L 224.971965 43.179416 
L 226.17084 42.634557 
L 227.292989 42.264733 
L 228.3277 42.082607 
L 229.263692 42.101048 
L 230.089893 42.331665 
L 230.796281 42.783376 
L 231.374693 43.461145 
L 231.819511 44.365059 
L 232.12813 45.489865 
L 232.301144 46.825023 
L 232.342242 48.355263 
L 232.056541 51.922168 
L 231.344601 56.014192 
L 230.294512 60.449931 
L 228.992215 65.069259 
L 226.723798 72.074525 
L 224.237665 78.927007 
L 221.653143 85.470166 
L 218.172133 93.597643 
L 214.727799 101.010781 
L 211.358005 107.736336 
L 208.075999 113.82686 
L 204.88361 119.340942 
L 201.777695 124.335002 
L 198.009227 129.923819 
L 194.357566 134.866966 
L 190.813122 139.238142 
L 187.367868 143.099313 
L 184.015538 146.502592 
L 180.751658 149.491927 
L 177.573555 152.104516 
L 174.480377 154.371975 
L 171.47316 156.321314 
L 168.554922 157.975762 
L 166.848726 158.835383 
M 166.567748 159.220803 
L 169.420788 160.680986 
L 172.366159 162.421657 
L 175.399389 164.463836 
L 178.518066 166.831805 
L 181.721729 169.553865 
L 185.011781 172.663195 
L 188.391437 176.198885 
L 191.865708 180.207172 
L 195.441397 184.742937 
L 198.380648 188.794804 
L 201.395295 193.264812 
L 204.490734 198.197593 
L 207.672083 203.643678 
L 210.942842 209.658938 
L 214.302062 216.301991 
L 217.738462 223.626898 
L 221.218342 231.665383 
L 223.811333 238.14836 
L 226.3206 244.957313 
L 228.636244 251.952989 
L 229.989441 256.597013 
L 231.110286 261.092462 
L 231.915173 265.286929 
L 232.315236 269.002423 
L 232.33784 270.623252 
L 232.231427 272.058122 
L 231.990884 273.289735 
L 231.614038 274.30509 
L 231.101901 275.09625 
L 230.458626 275.660657 
L 229.691177 276.000927 
L 228.808743 276.124141 
L 227.821975 276.040734 
L 226.742153 275.76313 
L 225.580366 275.304273 
L 224.346777 274.676197 
L 221.69671 272.948152 
L 218.834741 270.610137 
L 215.761364 267.60606 
L 212.426051 263.757605 
L 210.627479 261.415615 
L 208.714287 258.712458 
L 206.65745 255.560468 
L 204.417979 251.84162 
L 201.941683 247.391876 
L 199.148744 241.970764 
L 195.911036 235.196076 
L 191.99636 226.384659 
L 186.905714 214.08956 
L 179.310058 194.493825 
L 171.632079 173.890116 
L 179.658937 196.905245 
L 184.068629 210.411134 
L 186.342543 218.177376 
L 187.553366 223.066381 
L 188.135973 226.228203 
L 188.308697 228.234573 
L 188.198518 229.415595 
L 187.886927 229.982497 
L 187.429826 230.080477 
L 186.867345 229.814473 
L 186.229187 229.263034 
L 184.810389 227.531654 
L 183.297761 225.228866 
L 181.008425 221.155841 
L 178.81115 216.708156 
L 176.771903 212.123323 
L 174.34452 206.012312 
L 172.264221 200.038616 
L 170.523034 194.267956 
L 169.103127 188.721856 
L 167.983923 183.399527 
L 167.145305 178.288326 
L 166.569104 173.368731 
L 166.29975 169.790365 
L 166.29975 169.790365 
" clip-path="url(#pf5ad669344)" style="fill: none; stroke: #1f77b4; stroke-width: 1.5; stroke-linecap: square"/>
   </g>
   <g id="patch_3">
    <path d="M 166.29975 26.039062 
C 148.826996 26.039062 131.524143 29.480814 115.381423 36.167347 
C 99.238704 42.853881 84.570053 52.65516 72.21495 65.010263 
C 59.859847 77.365365 50.058568 92.034016 43.372035 108.176736 
C 36.685502 124.319455 33.24375 141.622309 33.24375 159.095062 
C 33.24375 176.567816 36.685502 193.87067 43.372035 210.013389 
C 50.058568 226.156109 59.859847 240.82476 72.21495 253.179862 
C 84.570053 265.534965 99.238704 275.336244 115.381423 282.022778 
C 131.524143 288.709311 148.826996 292.151062 166.29975 292.151062 
C 183.772504 292.151062 201.075357 288.709311 217.218077 282.022778 
C 233.360796 275.336244 248.029447 265.534965 260.38455 253.179862 
C 272.739653 240.82476 282.540932 226.156109 289.227465 210.013389 
C 295.913998 193.87067 299.35575 176.567816 299.35575 159.095062 
C 299.35575 141.622309 295.913998 124.319455 289.227465 108.176736 
C 282.540932 92.034016 272.739653 77.365365 260.38455 65.010263 
C 248.029447 52.65516 233.360796 42.853881 217.218077 36.167347 
C 201.075357 29.480814 183.772504 26.039062 166.29975 26.039062 
" style="fill: none; stroke: #000000; stroke-width: 0.8; stroke-linejoin: miter; stroke-linecap: square"/>
   </g>
  </g>
 </g>
 <defs>
  <clipPath id="pf5ad669344">
   <path d="M 299.35575 159.095062 
C 299.35575 141.622309 295.913998 124.319455 289.227465 108.176736 
C 282.540932 92.034016 272.739653 77.365365 260.38455 65.010263 
C 248.029447 52.65516 233.360796 42.853881 217.218077 36.167347 
C 201.075357 29.480814 183.772504 26.039062 166.29975 26.039062 
C 148.826996 26.039062 131.524143 29.480814 115.381423 36.167347 
C 99.238704 42.853881 84.570053 52.65516 72.21495 65.010263 
C 59.859847 77.365365 50.058568 92.034016 43.372035 108.176736 
C 36.685502 124.319455 33.24375 141.622309 33.24375 159.095062 
C 33.24375 176.567816 36.685502 193.87067 43.372035 210.013389 
C 50.058568 226.156109 59.859847 240.82476 72.21495 253.179862 
C 84.570053 265.534965 99.238704 275.336244 115.381423 282.022778 
C 131.524143 288.709311 148.826996 292.151062 166.29975 292.151062 
C 183.772504 292.151062 201.075357 288.709311 217.218077 282.022778 
C 233.360796 275.336244 248.029447 265.534965 260.38455 253.179862 
C 272.739653 240.82476 282.540932 226.156109 289.227465 210.013389 
C 295.913998 193.87067 299.35575 176.567816 299.35575 159.095062 
M 166.29975 159.095062 
C 166.29975 159.095062 166.29975 159.095062 166.29975 159.095062 
C 166.29975 159.095062 166.29975 159.095062 166.29975 159.095062 
C 166.29975 159.095062 166.29975 159.095062 166.29975 159.095062 
C 166.29975 159.095062 166.29975 159.095062 166.29975 159.095062 
C 166.29975 159.095062 166.29975 159.095062 166.29975 159.095062 
C 166.29975 159.095062 166.29975 159.095062 166.29975 159.095062 
C 166.29975 159.095062 166.29975 159.095062 166.29975 159.095062 
C 166.29975 159.095062 166.29975 159.095062 166.29975 159.095062 
C 166.29975 159.095062 166.29975 159.095062 166.29975 159.095062 
C 166.29975 159.095062 166.29975 159.095062 166.29975 159.095062 
C 166.29975 159.095062 166.29975 159.095062 166.29975 159.095062 
C 166.29975 159.095062 166.29975 159.095062 166.29975 159.095062 
C 166.29975 159.095062 166.29975 159.095062 166.29975 159.095062 
C 166.29975 159.095062 166.29975 159.095062 166.29975 159.095062 
C 166.29975 159.095062 166.29975 159.095062 166.29975 159.095062 
C 166.29975 159.095062 166.29975 159.095062 166.29975 159.095062 
z
"/>
  </clipPath>
 </defs>
</svg>
