<?xml version="1.0" encoding="utf-8" standalone="no"?>
<!DOCTYPE svg PUBLIC "-//W3C//DTD SVG 1.1//EN"
  "http://www.w3.org/Graphics/SVG/1.1/DTD/svg11.dtd">
<svg xmlns:xlink="http://www.w3.org/1999/xlink" width="413.302812pt" height="310.86825pt" viewBox="0 0 413.302812 310.86825" xmlns="http://www.w3.org/2000/svg" version="1.1">
 <metadata>
  <rdf:RDF xmlns:dc="http://purl.org/dc/elements/1.1/" xmlns:cc="http://creativecommons.org/ns#" xmlns:rdf="http://www.w3.org/1999/02/22-rdf-syntax-ns#">
   <cc:Work>
    <dc:type rdf:resource="http://purl.org/dc/dcmitype/StillImage"/>
    <dc:date>2024-05-10T23:13:07.577953</dc:date>
    <dc:format>image/svg+xml</dc:format>
    <dc:creator>
     <cc:Agent>
      <dc:title>Matplotlib v3.8.0, https://matplotlib.org/</dc:title>
     </cc:Agent>
    </dc:creator>
   </cc:Work>
  </rdf:RDF>
 </metadata>
 <defs>
  <style type="text/css">*{stroke-linejoin: round; stroke-linecap: butt}</style>
 </defs>
 <g id="figure_1">
  <g id="patch_1">
   <path d="M 0 310.86825 
L 413.302812 310.86825 
L 413.302812 0 
L 0 0 
z
" style="fill: #ffffff"/>
  </g>
  <g id="axes_1">
   <g id="patch_2">
    <path d="M 48.982813 273.312 
L 406.102813 273.312 
L 406.102813 7.2 
L 48.982813 7.2 
z
" style="fill: #ffffff"/>
   </g>
   <g id="matplotlib.axis_1">
    <g id="xtick_1">
     <g id="line2d_1">
      <path d="M 68.822812 273.312 
L 68.822812 7.2 
" clip-path="url(#p9488a5bc46)" style="fill: none; stroke: #b0b0b0; stroke-width: 0.8; stroke-linecap: square"/>
     </g>
     <g id="line2d_2">
      <defs>
       <path id="m016b347836" d="M 0 0 
L 0 3.5 
" style="stroke: #000000; stroke-width: 0.8"/>
      </defs>
      <g>
       <use xlink:href="#m016b347836" x="68.822812" y="273.312" style="stroke: #000000; stroke-width: 0.8"/>
      </g>
     </g>
     <g id="text_1">
      <!-- −80 -->
      <g transform="translate(58.270469 287.910437) scale(0.1 -0.1)">
       <defs>
        <path id="DejaVuSans-2212" d="M 678 2272 
L 4684 2272 
L 4684 1741 
L 678 1741 
L 678 2272 
z
" transform="scale(0.015625)"/>
        <path id="DejaVuSans-38" d="M 2034 2216 
Q 1584 2216 1326 1975 
Q 1069 1734 1069 1313 
Q 1069 891 1326 650 
Q 1584 409 2034 409 
Q 2484 409 2743 651 
Q 3003 894 3003 1313 
Q 3003 1734 2745 1975 
Q 2488 2216 2034 2216 
z
M 1403 2484 
Q 997 2584 770 2862 
Q 544 3141 544 3541 
Q 544 4100 942 4425 
Q 1341 4750 2034 4750 
Q 2731 4750 3128 4425 
Q 3525 4100 3525 3541 
Q 3525 3141 3298 2862 
Q 3072 2584 2669 2484 
Q 3125 2378 3379 2068 
Q 3634 1759 3634 1313 
Q 3634 634 3220 271 
Q 2806 -91 2034 -91 
Q 1263 -91 848 271 
Q 434 634 434 1313 
Q 434 1759 690 2068 
Q 947 2378 1403 2484 
z
M 1172 3481 
Q 1172 3119 1398 2916 
Q 1625 2713 2034 2713 
Q 2441 2713 2670 2916 
Q 2900 3119 2900 3481 
Q 2900 3844 2670 4047 
Q 2441 4250 2034 4250 
Q 1625 4250 1398 4047 
Q 1172 3844 1172 3481 
z
" transform="scale(0.015625)"/>
        <path id="DejaVuSans-30" d="M 2034 4250 
Q 1547 4250 1301 3770 
Q 1056 3291 1056 2328 
Q 1056 1369 1301 889 
Q 1547 409 2034 409 
Q 2525 409 2770 889 
Q 3016 1369 3016 2328 
Q 3016 3291 2770 3770 
Q 2525 4250 2034 4250 
z
M 2034 4750 
Q 2819 4750 3233 4129 
Q 3647 3509 3647 2328 
Q 3647 1150 3233 529 
Q 2819 -91 2034 -91 
Q 1250 -91 836 529 
Q 422 1150 422 2328 
Q 422 3509 836 4129 
Q 1250 4750 2034 4750 
z
" transform="scale(0.015625)"/>
       </defs>
       <use xlink:href="#DejaVuSans-2212"/>
       <use xlink:href="#DejaVuSans-38" x="83.789062"/>
       <use xlink:href="#DejaVuSans-30" x="147.412109"/>
      </g>
     </g>
    </g>
    <g id="xtick_2">
     <g id="line2d_3">
      <path d="M 108.502813 273.312 
L 108.502813 7.2 
" clip-path="url(#p9488a5bc46)" style="fill: none; stroke: #b0b0b0; stroke-width: 0.8; stroke-linecap: square"/>
     </g>
     <g id="line2d_4">
      <g>
       <use xlink:href="#m016b347836" x="108.502813" y="273.312" style="stroke: #000000; stroke-width: 0.8"/>
      </g>
     </g>
     <g id="text_2">
      <!-- −60 -->
      <g transform="translate(97.950469 287.910437) scale(0.1 -0.1)">
       <defs>
        <path id="DejaVuSans-36" d="M 2113 2584 
Q 1688 2584 1439 2293 
Q 1191 2003 1191 1497 
Q 1191 994 1439 701 
Q 1688 409 2113 409 
Q 2538 409 2786 701 
Q 3034 994 3034 1497 
Q 3034 2003 2786 2293 
Q 2538 2584 2113 2584 
z
M 3366 4563 
L 3366 3988 
Q 3128 4100 2886 4159 
Q 2644 4219 2406 4219 
Q 1781 4219 1451 3797 
Q 1122 3375 1075 2522 
Q 1259 2794 1537 2939 
Q 1816 3084 2150 3084 
Q 2853 3084 3261 2657 
Q 3669 2231 3669 1497 
Q 3669 778 3244 343 
Q 2819 -91 2113 -91 
Q 1303 -91 875 529 
Q 447 1150 447 2328 
Q 447 3434 972 4092 
Q 1497 4750 2381 4750 
Q 2619 4750 2861 4703 
Q 3103 4656 3366 4563 
z
" transform="scale(0.015625)"/>
       </defs>
       <use xlink:href="#DejaVuSans-2212"/>
       <use xlink:href="#DejaVuSans-36" x="83.789062"/>
       <use xlink:href="#DejaVuSans-30" x="147.412109"/>
      </g>
     </g>
    </g>
    <g id="xtick_3">
     <g id="line2d_5">
      <path d="M 148.182813 273.312 
L 148.182813 7.2 
" clip-path="url(#p9488a5bc46)" style="fill: none; stroke: #b0b0b0; stroke-width: 0.8; stroke-linecap: square"/>
     </g>
     <g id="line2d_6">
      <g>
       <use xlink:href="#m016b347836" x="148.182813" y="273.312" style="stroke: #000000; stroke-width: 0.8"/>
      </g>
     </g>
     <g id="text_3">
      <!-- −40 -->
      <g transform="translate(137.630469 287.910437) scale(0.1 -0.1)">
       <defs>
        <path id="DejaVuSans-34" d="M 2419 4116 
L 825 1625 
L 2419 1625 
L 2419 4116 
z
M 2253 4666 
L 3047 4666 
L 3047 1625 
L 3713 1625 
L 3713 1100 
L 3047 1100 
L 3047 0 
L 2419 0 
L 2419 1100 
L 313 1100 
L 313 1709 
L 2253 4666 
z
" transform="scale(0.015625)"/>
       </defs>
       <use xlink:href="#DejaVuSans-2212"/>
       <use xlink:href="#DejaVuSans-34" x="83.789062"/>
       <use xlink:href="#DejaVuSans-30" x="147.412109"/>
      </g>
     </g>
    </g>
    <g id="xtick_4">
     <g id="line2d_7">
      <path d="M 187.862813 273.312 
L 187.862813 7.2 
" clip-path="url(#p9488a5bc46)" style="fill: none; stroke: #b0b0b0; stroke-width: 0.8; stroke-linecap: square"/>
     </g>
     <g id="line2d_8">
      <g>
       <use xlink:href="#m016b347836" x="187.862813" y="273.312" style="stroke: #000000; stroke-width: 0.8"/>
      </g>
     </g>
     <g id="text_4">
      <!-- −20 -->
      <g transform="translate(177.310469 287.910437) scale(0.1 -0.1)">
       <defs>
        <path id="DejaVuSans-32" d="M 1228 531 
L 3431 531 
L 3431 0 
L 469 0 
L 469 531 
Q 828 903 1448 1529 
Q 2069 2156 2228 2338 
Q 2531 2678 2651 2914 
Q 2772 3150 2772 3378 
Q 2772 3750 2511 3984 
Q 2250 4219 1831 4219 
Q 1534 4219 1204 4116 
Q 875 4013 500 3803 
L 500 4441 
Q 881 4594 1212 4672 
Q 1544 4750 1819 4750 
Q 2544 4750 2975 4387 
Q 3406 4025 3406 3419 
Q 3406 3131 3298 2873 
Q 3191 2616 2906 2266 
Q 2828 2175 2409 1742 
Q 1991 1309 1228 531 
z
" transform="scale(0.015625)"/>
       </defs>
       <use xlink:href="#DejaVuSans-2212"/>
       <use xlink:href="#DejaVuSans-32" x="83.789062"/>
       <use xlink:href="#DejaVuSans-30" x="147.412109"/>
      </g>
     </g>
    </g>
    <g id="xtick_5">
     <g id="line2d_9">
      <path d="M 227.542813 273.312 
L 227.542813 7.2 
" clip-path="url(#p9488a5bc46)" style="fill: none; stroke: #b0b0b0; stroke-width: 0.8; stroke-linecap: square"/>
     </g>
     <g id="line2d_10">
      <g>
       <use xlink:href="#m016b347836" x="227.542813" y="273.312" style="stroke: #000000; stroke-width: 0.8"/>
      </g>
     </g>
     <g id="text_5">
      <!-- 0 -->
      <g transform="translate(224.361563 287.910437) scale(0.1 -0.1)">
       <use xlink:href="#DejaVuSans-30"/>
      </g>
     </g>
    </g>
    <g id="xtick_6">
     <g id="line2d_11">
      <path d="M 267.222813 273.312 
L 267.222813 7.2 
" clip-path="url(#p9488a5bc46)" style="fill: none; stroke: #b0b0b0; stroke-width: 0.8; stroke-linecap: square"/>
     </g>
     <g id="line2d_12">
      <g>
       <use xlink:href="#m016b347836" x="267.222813" y="273.312" style="stroke: #000000; stroke-width: 0.8"/>
      </g>
     </g>
     <g id="text_6">
      <!-- 20 -->
      <g transform="translate(260.860313 287.910437) scale(0.1 -0.1)">
       <use xlink:href="#DejaVuSans-32"/>
       <use xlink:href="#DejaVuSans-30" x="63.623047"/>
      </g>
     </g>
    </g>
    <g id="xtick_7">
     <g id="line2d_13">
      <path d="M 306.902813 273.312 
L 306.902813 7.2 
" clip-path="url(#p9488a5bc46)" style="fill: none; stroke: #b0b0b0; stroke-width: 0.8; stroke-linecap: square"/>
     </g>
     <g id="line2d_14">
      <g>
       <use xlink:href="#m016b347836" x="306.902813" y="273.312" style="stroke: #000000; stroke-width: 0.8"/>
      </g>
     </g>
     <g id="text_7">
      <!-- 40 -->
      <g transform="translate(300.540313 287.910437) scale(0.1 -0.1)">
       <use xlink:href="#DejaVuSans-34"/>
       <use xlink:href="#DejaVuSans-30" x="63.623047"/>
      </g>
     </g>
    </g>
    <g id="xtick_8">
     <g id="line2d_15">
      <path d="M 346.582813 273.312 
L 346.582813 7.2 
" clip-path="url(#p9488a5bc46)" style="fill: none; stroke: #b0b0b0; stroke-width: 0.8; stroke-linecap: square"/>
     </g>
     <g id="line2d_16">
      <g>
       <use xlink:href="#m016b347836" x="346.582813" y="273.312" style="stroke: #000000; stroke-width: 0.8"/>
      </g>
     </g>
     <g id="text_8">
      <!-- 60 -->
      <g transform="translate(340.220313 287.910437) scale(0.1 -0.1)">
       <use xlink:href="#DejaVuSans-36"/>
       <use xlink:href="#DejaVuSans-30" x="63.623047"/>
      </g>
     </g>
    </g>
    <g id="xtick_9">
     <g id="line2d_17">
      <path d="M 386.262813 273.312 
L 386.262813 7.2 
" clip-path="url(#p9488a5bc46)" style="fill: none; stroke: #b0b0b0; stroke-width: 0.8; stroke-linecap: square"/>
     </g>
     <g id="line2d_18">
      <g>
       <use xlink:href="#m016b347836" x="386.262813" y="273.312" style="stroke: #000000; stroke-width: 0.8"/>
      </g>
     </g>
     <g id="text_9">
      <!-- 80 -->
      <g transform="translate(379.900313 287.910437) scale(0.1 -0.1)">
       <use xlink:href="#DejaVuSans-38"/>
       <use xlink:href="#DejaVuSans-30" x="63.623047"/>
      </g>
     </g>
    </g>
    <g id="text_10"><text x="186.927" y="301.589" font-family="DejaVu Sans,sans-serif" font-size="10.0" text-anchor="middle" dominant-baseline="auto">Theta [Grad]</text></g>
   </g>
   <g id="matplotlib.axis_2">
    <g id="ytick_1">
     <g id="line2d_19">
      <path d="M 48.982813 273.312 
L 406.102813 273.312 
" clip-path="url(#p9488a5bc46)" style="fill: none; stroke: #b0b0b0; stroke-width: 0.8; stroke-linecap: square"/>
     </g>
     <g id="line2d_20">
      <defs>
       <path id="m91a9760653" d="M 0 0 
L -3.5 0 
" style="stroke: #000000; stroke-width: 0.8"/>
      </defs>
      <g>
       <use xlink:href="#m91a9760653" x="48.982813" y="273.312" style="stroke: #000000; stroke-width: 0.8"/>
      </g>
     </g>
     <g id="text_11">
      <!-- −30 -->
      <g transform="translate(20.878125 277.111219) scale(0.1 -0.1)">
       <defs>
        <path id="DejaVuSans-33" d="M 2597 2516 
Q 3050 2419 3304 2112 
Q 3559 1806 3559 1356 
Q 3559 666 3084 287 
Q 2609 -91 1734 -91 
Q 1441 -91 1130 -33 
Q 819 25 488 141 
L 488 750 
Q 750 597 1062 519 
Q 1375 441 1716 441 
Q 2309 441 2620 675 
Q 2931 909 2931 1356 
Q 2931 1769 2642 2001 
Q 2353 2234 1838 2234 
L 1294 2234 
L 1294 2753 
L 1863 2753 
Q 2328 2753 2575 2939 
Q 2822 3125 2822 3475 
Q 2822 3834 2567 4026 
Q 2313 4219 1838 4219 
Q 1578 4219 1281 4162 
Q 984 4106 628 3988 
L 628 4550 
Q 988 4650 1302 4700 
Q 1616 4750 1894 4750 
Q 2613 4750 3031 4423 
Q 3450 4097 3450 3541 
Q 3450 3153 3228 2886 
Q 3006 2619 2597 2516 
z
" transform="scale(0.015625)"/>
       </defs>
       <use xlink:href="#DejaVuSans-2212"/>
       <use xlink:href="#DejaVuSans-33" x="83.789062"/>
       <use xlink:href="#DejaVuSans-30" x="147.412109"/>
      </g>
     </g>
    </g>
    <g id="ytick_2">
     <g id="line2d_21">
      <path d="M 48.982813 230.39071 
L 406.102813 230.39071 
" clip-path="url(#p9488a5bc46)" style="fill: none; stroke: #b0b0b0; stroke-width: 0.8; stroke-linecap: square"/>
     </g>
     <g id="line2d_22">
      <g>
       <use xlink:href="#m91a9760653" x="48.982813" y="230.39071" style="stroke: #000000; stroke-width: 0.8"/>
      </g>
     </g>
     <g id="text_12">
      <!-- −25 -->
      <g transform="translate(20.878125 234.189928) scale(0.1 -0.1)">
       <defs>
        <path id="DejaVuSans-35" d="M 691 4666 
L 3169 4666 
L 3169 4134 
L 1269 4134 
L 1269 2991 
Q 1406 3038 1543 3061 
Q 1681 3084 1819 3084 
Q 2600 3084 3056 2656 
Q 3513 2228 3513 1497 
Q 3513 744 3044 326 
Q 2575 -91 1722 -91 
Q 1428 -91 1123 -41 
Q 819 9 494 109 
L 494 744 
Q 775 591 1075 516 
Q 1375 441 1709 441 
Q 2250 441 2565 725 
Q 2881 1009 2881 1497 
Q 2881 1984 2565 2268 
Q 2250 2553 1709 2553 
Q 1456 2553 1204 2497 
Q 953 2441 691 2322 
L 691 4666 
z
" transform="scale(0.015625)"/>
       </defs>
       <use xlink:href="#DejaVuSans-2212"/>
       <use xlink:href="#DejaVuSans-32" x="83.789062"/>
       <use xlink:href="#DejaVuSans-35" x="147.412109"/>
      </g>
     </g>
    </g>
    <g id="ytick_3">
     <g id="line2d_23">
      <path d="M 48.982813 187.469419 
L 406.102813 187.469419 
" clip-path="url(#p9488a5bc46)" style="fill: none; stroke: #b0b0b0; stroke-width: 0.8; stroke-linecap: square"/>
     </g>
     <g id="line2d_24">
      <g>
       <use xlink:href="#m91a9760653" x="48.982813" y="187.469419" style="stroke: #000000; stroke-width: 0.8"/>
      </g>
     </g>
     <g id="text_13">
      <!-- −20 -->
      <g transform="translate(20.878125 191.268638) scale(0.1 -0.1)">
       <use xlink:href="#DejaVuSans-2212"/>
       <use xlink:href="#DejaVuSans-32" x="83.789062"/>
       <use xlink:href="#DejaVuSans-30" x="147.412109"/>
      </g>
     </g>
    </g>
    <g id="ytick_4">
     <g id="line2d_25">
      <path d="M 48.982813 144.548129 
L 406.102813 144.548129 
" clip-path="url(#p9488a5bc46)" style="fill: none; stroke: #b0b0b0; stroke-width: 0.8; stroke-linecap: square"/>
     </g>
     <g id="line2d_26">
      <g>
       <use xlink:href="#m91a9760653" x="48.982813" y="144.548129" style="stroke: #000000; stroke-width: 0.8"/>
      </g>
     </g>
     <g id="text_14">
      <!-- −15 -->
      <g transform="translate(20.878125 148.347348) scale(0.1 -0.1)">
       <defs>
        <path id="DejaVuSans-31" d="M 794 531 
L 1825 531 
L 1825 4091 
L 703 3866 
L 703 4441 
L 1819 4666 
L 2450 4666 
L 2450 531 
L 3481 531 
L 3481 0 
L 794 0 
L 794 531 
z
" transform="scale(0.015625)"/>
       </defs>
       <use xlink:href="#DejaVuSans-2212"/>
       <use xlink:href="#DejaVuSans-31" x="83.789062"/>
       <use xlink:href="#DejaVuSans-35" x="147.412109"/>
      </g>
     </g>
    </g>
    <g id="ytick_5">
     <g id="line2d_27">
      <path d="M 48.982813 101.626839 
L 406.102813 101.626839 
" clip-path="url(#p9488a5bc46)" style="fill: none; stroke: #b0b0b0; stroke-width: 0.8; stroke-linecap: square"/>
     </g>
     <g id="line2d_28">
      <g>
       <use xlink:href="#m91a9760653" x="48.982813" y="101.626839" style="stroke: #000000; stroke-width: 0.8"/>
      </g>
     </g>
     <g id="text_15">
      <!-- −10 -->
      <g transform="translate(20.878125 105.426057) scale(0.1 -0.1)">
       <use xlink:href="#DejaVuSans-2212"/>
       <use xlink:href="#DejaVuSans-31" x="83.789062"/>
       <use xlink:href="#DejaVuSans-30" x="147.412109"/>
      </g>
     </g>
    </g>
    <g id="ytick_6">
     <g id="line2d_29">
      <path d="M 48.982813 58.705548 
L 406.102813 58.705548 
" clip-path="url(#p9488a5bc46)" style="fill: none; stroke: #b0b0b0; stroke-width: 0.8; stroke-linecap: square"/>
     </g>
     <g id="line2d_30">
      <g>
       <use xlink:href="#m91a9760653" x="48.982813" y="58.705548" style="stroke: #000000; stroke-width: 0.8"/>
      </g>
     </g>
     <g id="text_16">
      <!-- −5 -->
      <g transform="translate(27.240625 62.504767) scale(0.1 -0.1)">
       <use xlink:href="#DejaVuSans-2212"/>
       <use xlink:href="#DejaVuSans-35" x="83.789062"/>
      </g>
     </g>
    </g>
    <g id="ytick_7">
     <g id="line2d_31">
      <path d="M 48.982813 15.784258 
L 406.102813 15.784258 
" clip-path="url(#p9488a5bc46)" style="fill: none; stroke: #b0b0b0; stroke-width: 0.8; stroke-linecap: square"/>
     </g>
     <g id="line2d_32">
      <g>
       <use xlink:href="#m91a9760653" x="48.982813" y="15.784258" style="stroke: #000000; stroke-width: 0.8"/>
      </g>
     </g>
     <g id="text_17">
      <!-- 0 -->
      <g transform="translate(35.620313 19.583477) scale(0.1 -0.1)">
       <use xlink:href="#DejaVuSans-30"/>
      </g>
     </g>
    </g>
    <g id="text_18"><text x="0" y="0" transform="translate(14.798,186.369) rotate(-90)" font-family="DejaVu Sans,sans-serif" font-size="10.0" text-anchor="middle" dominant-baseline="auto">Strahlmuster [dB]</text></g>
   </g>
   <g id="line2d_33">
    <path d="M 48.982812 233.905176 
L 59.043452 228.091041 
L 69.123861 216.870813 
L 71.508583 214.859047 
L 73.666671 213.611003 
L 75.653206 213.096291 
L 77.504065 213.299931 
L 79.244159 214.221148 
L 80.891622 215.873306 
L 82.460139 218.284981 
L 83.960338 221.502343 
L 85.400669 225.593314 
L 86.78798 230.654331 
L 88.127916 236.821308 
L 89.425191 244.287821 
L 90.683792 253.336586 
L 91.907126 264.397479 
L 93.098132 278.163969 
L 94.259367 295.85624 
L 95.013441 311.86825 
M 101.212369 311.86825 
L 101.713881 299.523207 
L 102.699745 281.641052 
L 103.669159 267.881182 
L 104.622987 256.93244 
L 105.562022 248.058848 
L 106.486992 240.807957 
L 107.398571 234.883907 
L 108.297378 230.084903 
L 109.183992 226.269571 
L 110.058946 223.337653 
L 110.922738 221.218407 
L 111.775834 219.863459 
L 112.618668 219.242405 
L 113.451645 219.340255 
L 114.275147 220.156219 
L 115.089533 221.703652 
L 115.895138 224.011114 
L 116.692279 227.124767 
L 117.481258 231.11252 
L 118.262355 236.070799 
L 119.035838 242.135507 
L 119.80196 249.500209 
L 120.560963 258.44761 
L 121.313072 269.407575 
L 122.058505 283.073563 
L 122.797468 300.665749 
L 123.139846 311.86825 
M 127.572629 311.86825 
L 127.804421 303.642918 
L 128.497976 285.66365 
L 129.186537 271.806994 
L 129.870237 260.761788 
L 130.5492 251.792042 
L 131.223548 244.4453 
L 131.893397 238.425693 
L 132.558858 233.531416 
L 133.220039 229.621089 
L 133.877043 226.594444 
L 134.529971 224.380731 
L 135.178918 222.931567 
L 135.823977 222.216542 
L 136.465237 222.220656 
L 137.102785 222.943112 
L 137.736704 224.397255 
L 138.367075 226.61164 
L 138.993976 229.63242 
L 139.617482 233.527497 
L 140.237667 238.393287 
L 140.8546 244.365688 
L 141.468352 251.638256 
L 142.078987 260.49369 
L 142.68657 271.361847 
L 143.291164 284.936177 
L 144.129303 311.86825 
M 147.861145 311.86825 
L 148.027207 304.776847 
L 148.607423 286.706957 
L 149.185182 272.75976 
L 150.333515 252.563937 
L 151.472558 239.016951 
L 152.602643 230.031892 
L 153.164427 226.915069 
L 153.724089 224.611203 
L 154.281667 223.071904 
L 154.837197 222.266754 
L 155.390714 222.180746 
L 155.942254 222.813078 
L 156.491851 224.177087 
L 157.039536 226.301322 
L 157.585344 229.231927 
L 158.129304 233.036799 
L 158.671449 237.812347 
L 159.211809 243.694461 
L 159.750413 250.876692 
L 160.28729 259.64173 
L 160.822468 270.419426 
L 161.355976 283.903224 
L 162.123084 311.86825 
M 165.38236 311.86825 
L 165.567045 303.016199 
L 166.086677 284.854811 
L 167.121697 259.588508 
L 168.151205 242.90721 
L 169.175372 231.628033 
L 170.194362 224.32517 
L 170.701965 221.92825 
L 171.208332 220.295687 
L 171.713483 219.397054 
L 172.217437 219.217336 
L 172.72021 219.755724 
L 173.221823 221.025546 
L 173.722292 223.055343 
L 174.221634 225.891251 
L 174.719867 229.601159 
L 175.217008 234.281467 
L 175.713073 240.068057 
L 176.208079 247.154471 
L 176.702041 255.82339 
L 177.194976 266.504657 
L 177.6869 279.891707 
L 178.177826 297.204691 
L 178.481041 311.86825 
M 181.323981 311.86825 
L 181.587655 298.218106 
L 182.55375 265.817388 
L 183.516426 245.235632 
L 184.475789 231.30027 
L 185.431939 221.924242 
L 185.90884 218.610917 
L 186.384975 216.109844 
L 186.860356 214.372613 
L 187.334994 213.368789 
L 187.808902 213.083343 
L 188.282091 213.515452 
L 188.754572 214.678435 
L 189.226357 216.600818 
L 189.697457 219.328726 
L 190.167882 222.930031 
L 190.637645 227.501124 
L 191.575222 240.153802 
L 192.510275 259.28104 
L 192.97688 272.555596 
L 193.442885 289.755387 
L 193.879343 311.86825 
M 196.287045 311.86825 
L 196.68895 289.955539 
L 197.611555 257.31524 
L 198.532145 236.490433 
L 199.450795 222.308398 
L 200.367575 212.681917 
L 201.282556 206.613119 
L 201.739394 204.747155 
L 202.195809 203.613543 
L 202.651808 203.197235 
L 203.107401 203.497383 
L 203.562595 204.527281 
L 204.017399 206.31543 
L 204.471822 208.907931 
L 204.925871 212.372631 
L 205.379554 216.805891 
L 206.285858 229.179115 
L 207.190796 248.021656 
L 207.642773 261.151824 
L 208.094432 278.205825 
L 208.67379 311.86825 
M 210.693016 311.86825 
L 210.798151 302.693533 
L 211.247802 277.343418 
L 212.146343 244.384944 
L 213.043917 223.23491 
L 213.940582 208.720251 
L 214.836398 198.753387 
L 215.731422 192.336064 
L 216.178656 190.292657 
L 216.625712 188.979412 
L 217.0726 188.381224 
L 217.519325 188.497189 
L 217.965895 189.340543 
L 218.412317 190.939726 
L 218.858598 193.340776 
L 219.304745 196.611475 
L 219.750765 200.848118 
L 220.642451 212.81998 
L 221.533712 231.249833 
L 221.979201 244.169217 
L 222.424604 261.009365 
L 222.869928 284.225125 
L 223.213495 311.86825 
M 224.783229 311.86825 
L 225.095612 284.14455 
L 225.540608 258.556547 
L 226.430517 225.11066 
L 227.320357 203.456914 
L 228.210183 188.421245 
L 229.100051 177.914984 
L 229.990013 170.938702 
L 230.435048 168.608083 
L 230.880126 167.002249 
L 231.325256 166.105915 
L 231.770444 165.917994 
L 232.215697 166.451526 
L 232.661021 167.73475 
L 233.106424 169.813491 
L 233.551913 172.755311 
L 233.997494 176.656273 
L 234.443174 181.651905 
L 235.33486 195.789001 
L 235.78088 205.642204 
L 236.227027 218.188008 
L 236.673308 234.646127 
L 237.11973 257.471082 
L 237.5663 292.895876 
L 237.678864 311.86825 
M 238.823356 311.86825 
L 238.906969 295.22887 
L 239.354203 255.292243 
L 239.801619 229.252932 
L 240.697032 194.869148 
L 241.593266 172.226998 
L 242.490378 156.147805 
L 243.388428 144.537707 
L 244.287474 136.391392 
L 245.187576 131.212031 
L 245.638043 129.664572 
L 246.088796 128.804362 
L 246.539843 128.643311 
L 246.991193 129.208444 
L 247.442852 130.54428 
L 247.894829 132.716974 
L 248.347131 135.821071 
L 248.799767 139.990462 
L 249.252744 145.416543 
L 249.706071 152.379691 
L 250.159754 161.307256 
L 250.613803 172.88998 
L 251.068226 188.345097 
L 251.52303 210.124416 
L 251.978224 244.457967 
L 252.392382 311.86825 
M 252.998872 311.86825 
L 253.346231 243.209277 
L 253.803069 201.962831 
L 254.260339 174.548005 
L 255.176211 137.193725 
L 256.093917 111.244107 
L 257.013528 91.45461 
L 257.935116 75.646083 
L 258.858755 62.700345 
L 259.784521 51.967258 
L 260.71249 43.036567 
L 261.64274 35.634533 
L 262.57535 29.571523 
L 263.510403 24.713196 
L 264.44798 20.963688 
L 265.388168 18.255398 
L 266.331053 16.542666 
L 266.803534 16.050374 
L 267.276723 15.797899 
L 267.750631 15.784258 
L 268.225269 16.009399 
L 268.70065 16.474197 
L 269.176785 17.180471 
L 270.131366 19.32967 
L 271.08911 22.492234 
L 272.050116 26.722939 
L 273.014489 32.100935 
L 273.982333 38.737558 
L 274.953758 46.789017 
L 275.928875 56.477612 
L 276.907799 68.12897 
L 277.890649 82.242029 
L 278.877546 99.633454 
L 279.868617 121.77751 
L 280.863991 151.781378 
L 281.363333 171.913117 
L 281.863802 198.335835 
L 282.365415 237.289189 
L 282.841499 311.86825 
M 283.511356 311.86825 
L 283.877293 249.85103 
L 284.38366 213.22229 
L 284.891263 190.447685 
L 285.400121 174.429715 
L 285.910253 162.480138 
L 286.421679 153.290745 
L 286.93442 146.128274 
L 287.448495 140.542789 
L 287.963928 136.240758 
L 288.480738 133.022546 
L 288.998948 130.748789 
L 289.51858 129.3211 
L 290.039656 128.670482 
L 290.562201 128.750191 
L 291.086237 129.531351 
L 291.611788 131.0004 
L 292.13888 133.157893 
L 292.667537 136.018442 
L 293.197784 139.611798 
L 294.263157 149.207721 
L 295.335212 162.628935 
L 296.414176 181.2503 
L 296.956321 193.333613 
L 297.500281 208.103117 
L 298.046089 226.779706 
L 298.593774 251.819064 
L 299.143371 289.455347 
L 299.302867 311.86825 
M 300.717824 311.86825 
L 300.803958 298.416731 
L 301.361536 260.691332 
L 301.921198 236.866033 
L 302.482982 219.840329 
L 303.046925 206.923238 
L 303.613067 196.804046 
L 304.181448 188.747193 
L 304.75211 182.300633 
L 305.325093 177.168891 
L 305.900443 173.150542 
L 306.478202 170.104567 
L 307.058418 167.931048 
L 307.641136 166.55957 
L 308.226405 165.942072 
L 308.814274 166.048454 
L 309.404795 166.864013 
L 309.998019 168.388241 
L 310.594001 170.634761 
L 311.192796 173.632392 
L 311.794461 177.427545 
L 312.399055 182.088371 
L 313.006638 187.711527 
L 313.617273 194.43314 
L 314.231025 202.446991 
L 314.847958 212.035994 
L 315.468143 223.630217 
L 316.091649 237.923311 
L 316.71855 256.135641 
L 317.348921 280.72239 
L 317.879746 311.86825 
M 320.140724 311.86825 
L 320.555654 287.490623 
L 321.208582 263.273495 
L 321.865586 245.864775 
L 322.526767 232.573155 
L 323.192228 222.087608 
L 323.862077 213.67228 
L 324.536425 206.874843 
L 325.215388 201.399553 
L 325.899088 197.04473 
L 326.587649 193.669111 
L 327.281204 191.172544 
L 327.979887 189.484391 
L 328.683844 188.55638 
L 329.393221 188.358206 
L 330.108174 188.874973 
L 330.828866 190.105986 
L 331.555468 192.064688 
L 332.288157 194.77973 
L 333.02712 198.297358 
L 333.772553 202.685565 
L 334.524662 208.040857 
L 335.283665 214.499218 
L 336.049787 222.254289 
L 336.82327 231.588852 
L 337.604367 242.932843 
L 338.393346 256.979794 
L 339.190487 274.949948 
L 339.996092 299.298376 
L 340.273058 311.86825 
M 344.008513 311.86825 
L 344.162887 304.9291 
L 345.026679 280.4946 
L 345.901633 262.871672 
L 346.788247 249.368921 
L 347.687054 238.675239 
L 348.598633 230.054692 
L 349.523603 223.054876 
L 350.462638 217.379972 
L 351.416466 212.828228 
L 352.38588 209.258312 
L 353.371744 206.570006 
L 354.375003 204.692606 
L 355.396695 203.577777 
L 356.437961 203.195154 
L 357.500065 203.529781 
L 358.584408 204.580907 
L 359.692555 206.361918 
L 360.826258 208.901413 
L 361.987493 212.245585 
L 363.178499 216.462377 
L 364.401833 221.648247 
L 365.660434 227.93913 
L 366.957709 235.528622 
L 368.297645 244.699459 
L 369.684956 255.881534 
L 371.125287 269.768337 
L 372.625486 287.580071 
L 374.198321 311.86825 
M 384.040229 311.86825 
L 385.961764 292.060918 
L 388.66587 274.292038 
L 391.870268 260.64474 
L 396.042173 249.807885 
L 406.102813 241.045508 
L 406.102813 241.045508 
" clip-path="url(#p9488a5bc46)" style="fill: none; stroke-dasharray: 5.55,2.4; stroke-dashoffset: 0; stroke: #1f77b4; stroke-width: 1.5"/>
   </g>
   <g id="line2d_34">
    <path d="M 48.982812 41.537032 
L 406.102813 41.537032 
" clip-path="url(#p9488a5bc46)" style="fill: none; stroke-dasharray: 1.5,2.475; stroke-dashoffset: 0; stroke: #008000; stroke-width: 1.5"/>
   </g>
   <g id="line2d_35">
    <path d="M 260.874013 41.537032 
L 274.365213 41.537032 
" clip-path="url(#p9488a5bc46)" style="fill: none; stroke: #008000; stroke-width: 3; stroke-linecap: square"/>
   </g>
   <g id="line2d_36">
    <path d="M 260.874013 50.12129 
L 260.874013 32.952774 
" clip-path="url(#p9488a5bc46)" style="fill: none; stroke: #008000; stroke-width: 3; stroke-linecap: square"/>
   </g>
   <g id="line2d_37">
    <path d="M 274.365213 50.12129 
L 274.365213 32.952774 
" clip-path="url(#p9488a5bc46)" style="fill: none; stroke: #008000; stroke-width: 3; stroke-linecap: square"/>
   </g>
   <g id="line2d_38">
    <path d="M 252.541213 256.143484 
L 283.094813 256.143484 
" clip-path="url(#p9488a5bc46)" style="fill: none; stroke: #ff0000; stroke-width: 3; stroke-linecap: square"/>
   </g>
   <g id="line2d_39">
    <path d="M 252.541213 264.727742 
L 252.541213 247.559226 
" clip-path="url(#p9488a5bc46)" style="fill: none; stroke: #ff0000; stroke-width: 3; stroke-linecap: square"/>
   </g>
   <g id="line2d_40">
    <path d="M 283.094813 264.727742 
L 283.094813 247.559226 
" clip-path="url(#p9488a5bc46)" style="fill: none; stroke: #ff0000; stroke-width: 3; stroke-linecap: square"/>
   </g>
   <g id="patch_3">
    <path d="M 48.982813 273.312 
L 48.982813 7.2 
" style="fill: none; stroke: #000000; stroke-width: 0.8; stroke-linejoin: miter; stroke-linecap: square"/>
   </g>
   <g id="patch_4">
    <path d="M 406.102813 273.312 
L 406.102813 7.2 
" style="fill: none; stroke: #000000; stroke-width: 0.8; stroke-linejoin: miter; stroke-linecap: square"/>
   </g>
   <g id="patch_5">
    <path d="M 48.982812 273.312 
L 406.102813 273.312 
" style="fill: none; stroke: #000000; stroke-width: 0.8; stroke-linejoin: miter; stroke-linecap: square"/>
   </g>
   <g id="patch_6">
    <path d="M 48.982812 7.2 
L 406.102813 7.2 
" style="fill: none; stroke: #000000; stroke-width: 0.8; stroke-linejoin: miter; stroke-linecap: square"/>
   </g>
   <g id="text_19">
    <!-- -3 -->
    <g style="fill: #008000" transform="translate(33.110813 45.829161) scale(0.12 -0.12)">
     <defs>
      <path id="DejaVuSans-2d" d="M 313 2009 
L 1997 2009 
L 1997 1497 
L 313 1497 
L 313 2009 
z
" transform="scale(0.015625)"/>
     </defs>
     <use xlink:href="#DejaVuSans-2d"/>
     <use xlink:href="#DejaVuSans-33" x="36.083984"/>
    </g>
   </g>
  </g>
 </g>
 <defs>
  <clipPath id="p9488a5bc46">
   <rect x="48.982813" y="7.2" width="357.12" height="266.112"/>
  </clipPath>
 </defs>
</svg>
