<?xml version="1.0" encoding="UTF-8" standalone="no"?>
<svg
   width="312.19989pt"
   height="166.45912pt"
   viewBox="0 0 312.1999 166.45913"
   version="1.1"
   id="svg209"
   sodipodi:docname="doa_complex_scenario.svg"
   inkscape:version="1.2.1 (9c6d41e410, 2022-07-14)"
   xmlns:inkscape="http://www.inkscape.org/namespaces/inkscape"
   xmlns:sodipodi="http://sodipodi.sourceforge.net/DTD/sodipodi-0.dtd"
   xmlns:xlink="http://www.w3.org/1999/xlink"
   xmlns="http://www.w3.org/2000/svg"
   xmlns:svg="http://www.w3.org/2000/svg"
   xmlns:rdf="http://www.w3.org/1999/02/22-rdf-syntax-ns#"
   xmlns:cc="http://creativecommons.org/ns#"
   xmlns:dc="http://purl.org/dc/elements/1.1/">
  <sodipodi:namedview
     id="namedview211"
     pagecolor="#ffffff"
     bordercolor="#000000"
     borderopacity="0.25"
     inkscape:showpageshadow="2"
     inkscape:pageopacity="0.0"
     inkscape:pagecheckerboard="0"
     inkscape:deskcolor="#d1d1d1"
     inkscape:document-units="pt"
     showgrid="false"
     inkscape:zoom="2.7458719"
     inkscape:cx="150.22551"
     inkscape:cy="113.26093"
     inkscape:window-width="2560"
     inkscape:window-height="1369"
     inkscape:window-x="-8"
     inkscape:window-y="-8"
     inkscape:window-maximized="1"
     inkscape:current-layer="svg209" />
  <metadata
     id="metadata2">
    <rdf:RDF>
      <cc:Work>
        <dc:type
           rdf:resource="http://purl.org/dc/dcmitype/StillImage" />
        <dc:date>2024-04-17T16:57:46.215398</dc:date>
        <dc:format>image/svg+xml</dc:format>
        <dc:creator>
          <cc:Agent>
            <dc:title>Matplotlib v3.8.0, https://matplotlib.org/</dc:title>
          </cc:Agent>
        </dc:creator>
      </cc:Work>
    </rdf:RDF>
  </metadata>
  <defs
     id="defs6">
    <style
       type="text/css"
       id="style4">*{stroke-linejoin: round; stroke-linecap: butt}</style>
  </defs>
  <g
     id="axes_1"
     transform="translate(-7.6890625,-55.0655)">
    <g
       id="patch_2">
      <path
         d="m 297.97841,206.784 c 0,-35.27511 -14.02793,-69.14153 -38.9712,-94.0848 -24.94327,-24.94327 -58.80969,-38.9712 -94.0848,-38.9712 -35.27511,0 -69.141533,14.02793 -94.084804,38.9712 -24.94327,24.94327 -38.9712,58.80969 -38.9712,94.0848 H 164.92241 c 0,0 0,0 0,0 0,0 0,0 0,0 0,0 0,0 0,0 0,0 0,0 0,0 z"
         style="fill:#ffffff"
         id="path11" />
    </g>
    <g
       id="matplotlib.axis_1">
      <g
         id="xtick_1">
        <g
           id="line2d_1">
          <path
             d="M 164.92241,206.784 H 31.866406"
             clip-path="url(#pee2545dad8)"
             style="fill:none;stroke:#b0b0b0;stroke-width:0.8;stroke-linecap:square"
             id="path14" />
        </g>
        <g
           id="text_1">
          <!-- -90° -->
          <g
             transform="matrix(0.1,0,0,-0.1,7.2,209.54337)"
             id="g31">
            <defs
               id="defs21">
              <path
                 id="DejaVuSans-2d"
                 d="M 313,2009 H 1997 V 1497 H 313 Z"
                 transform="scale(0.015625)" />
              <path
                 id="DejaVuSans-39"
                 d="m 703,97 v 575 q 238,-113 481,-172 244,-59 479,-59 625,0 954,420 330,420 377,1277 -181,-269 -460,-413 -278,-144 -615,-144 -700,0 -1108,423 -408,424 -408,1159 0,718 425,1152 425,435 1131,435 810,0 1236,-621 427,-620 427,-1801 Q 3622,1225 3098,567 2575,-91 1691,-91 1453,-91 1209,-44 966,3 703,97 Z m 1256,1978 q 425,0 673,290 249,291 249,798 0,503 -249,795 -248,292 -673,292 -425,0 -673,-292 -248,-292 -248,-795 0,-507 248,-798 248,-290 673,-290 z"
                 transform="scale(0.015625)" />
              <path
                 id="DejaVuSans-30"
                 d="m 2034,4250 q -487,0 -733,-480 -245,-479 -245,-1442 0,-959 245,-1439 246,-480 733,-480 491,0 736,480 246,480 246,1439 0,963 -246,1442 -245,480 -736,480 z m 0,500 q 785,0 1199,-621 414,-620 414,-1801 0,-1178 -414,-1799 -414,-620 -1199,-620 -784,0 -1198,620 -414,621 -414,1799 0,1181 414,1801 414,621 1198,621 z"
                 transform="scale(0.015625)" />
              <path
                 id="DejaVuSans-b0"
                 d="m 1600,4347 q -250,0 -422,-174 -172,-173 -172,-423 0,-247 172,-417 172,-170 422,-170 250,0 422,170 172,170 172,417 0,247 -174,422 -173,175 -420,175 z m 0,403 q 200,0 384,-77 185,-76 319,-220 144,-140 216,-319 72,-178 72,-384 0,-412 -289,-698 -289,-286 -708,-286 -422,0 -704,281 -281,281 -281,703 0,419 287,709 288,291 704,291 z"
                 transform="scale(0.015625)" />
            </defs>
            <use
               xlink:href="#DejaVuSans-2d"
               id="use23" />
            <use
               xlink:href="#DejaVuSans-39"
               x="36.083984"
               id="use25" />
            <use
               xlink:href="#DejaVuSans-30"
               x="99.707031"
               id="use27" />
            <use
               xlink:href="#DejaVuSans-b0"
               x="163.33008"
               id="use29" />
          </g>
        </g>
      </g>
      <g
         id="xtick_2">
        <g
           id="line2d_2">
          <path
             d="M 164.92241,206.784 49.69253,140.256"
             clip-path="url(#pee2545dad8)"
             style="fill:none;stroke:#b0b0b0;stroke-width:0.8;stroke-linecap:square"
             id="path35" />
        </g>
        <g
           id="text_2">
          <!-- -60° -->
          <g
             transform="matrix(0.1,0,0,-0.1,26.901768,136.01537)"
             id="g49">
            <defs
               id="defs39">
              <path
                 id="DejaVuSans-36"
                 d="m 2113,2584 q -425,0 -674,-291 -248,-290 -248,-796 0,-503 248,-796 249,-292 674,-292 425,0 673,292 248,293 248,796 0,506 -248,796 -248,291 -673,291 z m 1253,1979 v -575 q -238,112 -480,171 -242,60 -480,60 -625,0 -955,-422 -329,-422 -376,-1275 184,272 462,417 279,145 613,145 703,0 1111,-427 408,-426 408,-1160 0,-719 -425,-1154 -425,-434 -1131,-434 -810,0 -1238,620 -428,621 -428,1799 0,1106 525,1764 525,658 1409,658 238,0 480,-47 242,-47 505,-140 z"
                 transform="scale(0.015625)" />
            </defs>
            <use
               xlink:href="#DejaVuSans-2d"
               id="use41" />
            <use
               xlink:href="#DejaVuSans-36"
               x="36.083984"
               id="use43" />
            <use
               xlink:href="#DejaVuSans-30"
               x="99.707031"
               id="use45" />
            <use
               xlink:href="#DejaVuSans-b0"
               x="163.33008"
               id="use47" />
          </g>
        </g>
      </g>
      <g
         id="xtick_3">
        <g
           id="line2d_3">
          <path
             d="M 164.92241,206.784 98.394406,91.554124"
             clip-path="url(#pee2545dad8)"
             style="fill:none;stroke:#b0b0b0;stroke-width:0.8;stroke-linecap:square"
             id="path53" />
        </g>
        <g
           id="text_3">
          <!-- -30° -->
          <g
             transform="matrix(0.1,0,0,-0.1,80.728,82.189143)"
             id="g67">
            <defs
               id="defs57">
              <path
                 id="DejaVuSans-33"
                 d="m 2597,2516 q 453,-97 707,-404 255,-306 255,-756 0,-690 -475,-1069 -475,-378 -1350,-378 -293,0 -604,58 -311,58 -642,174 v 609 q 262,-153 574,-231 313,-78 654,-78 593,0 904,234 311,234 311,681 0,413 -289,645 -289,233 -804,233 h -544 v 519 h 569 q 465,0 712,186 247,186 247,536 0,359 -255,551 -254,193 -729,193 -260,0 -557,-57 -297,-56 -653,-174 v 562 q 360,100 674,150 314,50 592,50 719,0 1137,-327 419,-326 419,-882 0,-388 -222,-655 -222,-267 -631,-370 z"
                 transform="scale(0.015625)" />
            </defs>
            <use
               xlink:href="#DejaVuSans-2d"
               id="use59" />
            <use
               xlink:href="#DejaVuSans-33"
               x="36.083984"
               id="use61" />
            <use
               xlink:href="#DejaVuSans-30"
               x="99.707031"
               id="use63" />
            <use
               xlink:href="#DejaVuSans-b0"
               x="163.33008"
               id="use65" />
          </g>
        </g>
      </g>
      <g
         id="xtick_4">
        <g
           id="line2d_4">
          <path
             d="M 164.92241,206.784 V 73.728"
             clip-path="url(#pee2545dad8)"
             style="fill:none;stroke:#b0b0b0;stroke-width:0.8;stroke-linecap:square"
             id="path71" />
        </g>
        <g
           id="text_4">
          <!-- 0° -->
          <g
             transform="matrix(0.1,0,0,-0.1,159.24116,62.487375)"
             id="g78">
            <use
               xlink:href="#DejaVuSans-30"
               id="use74" />
            <use
               xlink:href="#DejaVuSans-b0"
               x="63.623047"
               id="use76" />
          </g>
        </g>
      </g>
      <g
         id="xtick_5">
        <g
           id="line2d_5">
          <path
             d="m 164.92241,206.784 66.528,-115.229876"
             clip-path="url(#pee2545dad8)"
             style="fill:none;stroke:#b0b0b0;stroke-width:0.8;stroke-linecap:square"
             id="path82" />
        </g>
        <g
           id="text_5">
          <!-- 30° -->
          <g
             transform="matrix(0.1,0,0,-0.1,229.58791,82.189143)"
             id="g91">
            <use
               xlink:href="#DejaVuSans-33"
               id="use85" />
            <use
               xlink:href="#DejaVuSans-30"
               x="63.623047"
               id="use87" />
            <use
               xlink:href="#DejaVuSans-b0"
               x="127.24609"
               id="use89" />
          </g>
        </g>
      </g>
      <g
         id="xtick_6">
        <g
           id="line2d_6">
          <path
             d="M 164.92241,206.784 280.15228,140.256"
             clip-path="url(#pee2545dad8)"
             style="fill:none;stroke:#b0b0b0;stroke-width:0.8;stroke-linecap:square"
             id="path95" />
        </g>
        <g
           id="text_6">
          <!-- 60° -->
          <g
             transform="matrix(0.1,0,0,-0.1,283.41414,136.01537)"
             id="g104">
            <use
               xlink:href="#DejaVuSans-36"
               id="use98" />
            <use
               xlink:href="#DejaVuSans-30"
               x="63.623047"
               id="use100" />
            <use
               xlink:href="#DejaVuSans-b0"
               x="127.24609"
               id="use102" />
          </g>
        </g>
      </g>
      <g
         id="xtick_7">
        <g
           id="line2d_7">
          <path
             d="m 164.92241,206.784 h 133.056"
             clip-path="url(#pee2545dad8)"
             style="fill:none;stroke:#b0b0b0;stroke-width:0.8;stroke-linecap:square"
             id="path108" />
        </g>
        <g
           id="text_7">
          <!-- 90° -->
          <g
             transform="matrix(0.1,0,0,-0.1,303.11591,209.54337)"
             id="g117">
            <use
               xlink:href="#DejaVuSans-39"
               id="use111" />
            <use
               xlink:href="#DejaVuSans-30"
               x="63.623047"
               id="use113" />
            <use
               xlink:href="#DejaVuSans-b0"
               x="127.24609"
               id="use115" />
          </g>
        </g>
      </g>
    </g>
    <g
       id="matplotlib.axis_2">
      <g
         id="ytick_1">
        <g
           id="line2d_8">
          <path
             d="m 142.22413,206.784 c 0,-6.01765 2.39305,-11.79499 6.64817,-16.05011 4.25512,-4.25511 10.03246,-6.64817 16.05011,-6.64817 6.01764,0 11.79498,2.39306 16.0501,6.64817 4.25512,4.25512 6.64817,10.03246 6.64817,16.05011"
             clip-path="url(#pee2545dad8)"
             style="fill:none;stroke:#b0b0b0;stroke-width:0.8;stroke-linecap:square"
             id="path122" />
        </g>
        <g
           id="text_8">
          <!-- −20 -->
          <g
             transform="matrix(0.1,0,0,-0.1,131.67179,221.38244)"
             id="g135">
            <defs
               id="defs127">
              <path
                 id="DejaVuSans-2212"
                 d="M 678,2272 H 4684 V 1741 H 678 Z"
                 transform="scale(0.015625)" />
              <path
                 id="DejaVuSans-32"
                 d="M 1228,531 H 3431 V 0 H 469 v 531 q 359,372 979,998 621,627 780,809 303,340 423,576 121,236 121,464 0,372 -261,606 -261,235 -680,235 -297,0 -627,-103 -329,-103 -704,-313 v 638 q 381,153 712,231 332,78 607,78 725,0 1156,-363 431,-362 431,-968 0,-288 -108,-546 -107,-257 -392,-607 -78,-91 -497,-524 Q 1991,1309 1228,531 Z"
                 transform="scale(0.015625)" />
            </defs>
            <use
               xlink:href="#DejaVuSans-2212"
               id="use129" />
            <use
               xlink:href="#DejaVuSans-32"
               x="83.789062"
               id="use131" />
            <use
               xlink:href="#DejaVuSans-30"
               x="147.41211"
               id="use133" />
          </g>
        </g>
      </g>
      <g
         id="ytick_2">
        <g
           id="line2d_9">
          <path
             d="m 114.6347,206.784 c 0,-13.33201 5.30177,-26.13162 14.72893,-35.55878 9.42715,-9.42716 22.22676,-14.72893 35.55878,-14.72893 13.33201,0 26.13162,5.30177 35.55877,14.72893 9.42716,9.42716 14.72893,22.22677 14.72893,35.55878"
             clip-path="url(#pee2545dad8)"
             style="fill:none;stroke:#b0b0b0;stroke-width:0.8;stroke-linecap:square"
             id="path139" />
        </g>
        <g
           id="text_9">
          <!-- −15 -->
          <g
             transform="matrix(0.1,0,0,-0.1,104.08236,221.38244)"
             id="g152">
            <defs
               id="defs144">
              <path
                 id="DejaVuSans-31"
                 d="M 794,531 H 1825 V 4091 L 703,3866 v 575 l 1116,225 h 631 V 531 H 3481 V 0 H 794 Z"
                 transform="scale(0.015625)" />
              <path
                 id="DejaVuSans-35"
                 d="M 691,4666 H 3169 V 4134 H 1269 V 2991 q 137,47 274,70 138,23 276,23 781,0 1237,-428 457,-428 457,-1159 Q 3513,744 3044,326 2575,-91 1722,-91 1428,-91 1123,-41 819,9 494,109 v 635 q 281,-153 581,-228 300,-75 634,-75 541,0 856,284 316,284 316,772 0,487 -316,771 -315,285 -856,285 -253,0 -505,-56 -251,-56 -513,-175 z"
                 transform="scale(0.015625)" />
            </defs>
            <use
               xlink:href="#DejaVuSans-2212"
               id="use146" />
            <use
               xlink:href="#DejaVuSans-31"
               x="83.789062"
               id="use148" />
            <use
               xlink:href="#DejaVuSans-35"
               x="147.41211"
               id="use150" />
          </g>
        </g>
      </g>
      <g
         id="ytick_3">
        <g
           id="line2d_10">
          <path
             d="m 87.045268,206.784 c 0,-20.64638 8.210491,-40.46826 22.809682,-55.06745 14.5992,-14.5992 34.42108,-22.80969 55.06746,-22.80969 20.64638,0 40.46825,8.21049 55.06745,22.80969 14.59919,14.59919 22.80968,34.42107 22.80968,55.06745"
             clip-path="url(#pee2545dad8)"
             style="fill:none;stroke:#b0b0b0;stroke-width:0.8;stroke-linecap:square"
             id="path156" />
        </g>
        <g
           id="text_10">
          <!-- −10 -->
          <g
             transform="matrix(0.1,0,0,-0.1,76.492925,221.38244)"
             id="g165">
            <use
               xlink:href="#DejaVuSans-2212"
               id="use159" />
            <use
               xlink:href="#DejaVuSans-31"
               x="83.789062"
               id="use161" />
            <use
               xlink:href="#DejaVuSans-30"
               x="147.41211"
               id="use163" />
          </g>
        </g>
      </g>
      <g
         id="ytick_4">
        <g
           id="line2d_11">
          <path
             d="m 59.455837,206.784 c 0,-27.96075 11.11921,-54.80489 30.890443,-74.57613 19.77123,-19.77123 46.61538,-30.89044 74.57613,-30.89044 27.96074,0 54.80489,11.11921 74.57612,30.89044 19.77123,19.77124 30.89045,46.61538 30.89045,74.57613"
             clip-path="url(#pee2545dad8)"
             style="fill:none;stroke:#b0b0b0;stroke-width:0.8;stroke-linecap:square"
             id="path169" />
        </g>
        <g
           id="text_11">
          <!-- −5 -->
          <g
             transform="matrix(0.1,0,0,-0.1,52.084744,221.38244)"
             id="g176">
            <use
               xlink:href="#DejaVuSans-2212"
               id="use172" />
            <use
               xlink:href="#DejaVuSans-35"
               x="83.789062"
               id="use174" />
          </g>
        </g>
      </g>
      <g
         id="ytick_5">
        <g
           id="line2d_12">
          <path
             d="m 31.866406,206.784 c 0,-35.27511 14.02793,-69.14153 38.9712,-94.0848 C 95.780877,87.75593 129.6473,73.728 164.92241,73.728 c 35.27511,0 69.14153,14.02793 94.0848,38.9712 24.94327,24.94327 38.9712,58.80969 38.9712,94.0848"
             clip-path="url(#pee2545dad8)"
             style="fill:none;stroke:#b0b0b0;stroke-width:0.8;stroke-linecap:square"
             id="path180" />
        </g>
        <g
           id="text_12">
          <!-- 0 -->
          <g
             transform="matrix(0.1,0,0,-0.1,28.685156,221.38244)"
             id="g185">
            <use
               xlink:href="#DejaVuSans-30"
               id="use183" />
          </g>
        </g>
      </g>
    </g>
    <g
       id="line2d_13">
      <path
         d="m 164.92241,264.40322 -0.70493,-1.58218 -0.64414,-2.42459 -0.55195,-3.26087 -0.42902,-4.08245 -0.27796,-4.85779 -0.1069,-5.50821 0.0633,-5.86782 0.31703,-12.46306 -0.46201,1.6247 -2.2008,8.88602 -1.50067,4.82119 -0.92478,2.34415 -0.8155,1.56955 -0.67474,0.7891 -0.2759,0.10554 -0.23056,-0.0843 -0.18198,-0.27199 -0.20549,-1.09844 0.0269,-1.82393 0.28347,-2.53053 0.56028,-3.20733 0.84677,-3.82552 1.76384,-6.60199 2.07403,-6.70039 1.88001,-5.69267 -0.17591,0.32318 -4.24358,8.70014 -2.76533,5.06009 -2.49024,4.02818 -2.03173,2.77431 -1.06237,1.16127 -0.81771,0.64453 -0.56996,0.16534 -0.19229,-0.0841 -0.20218,-0.47373 0.0327,-0.83944 0.25058,-1.148 0.71898,-2.14593 1.32465,-3.16098 1.29548,-3.073 0.0892,-0.57589 -0.085,-0.11322 -0.44321,0.11861 -1.29571,0.91214 -5.3493,4.07938 -1.96022,1.23308 -1.65595,0.80499 -1.25566,0.32378 -0.58379,-0.0571 -0.36631,-0.27164 -0.13967,-0.4791 0.0939,-0.67737 0.33252,-0.86494 0.95252,-1.62227 1.49684,-1.96958 2.02412,-2.25867 2.50345,-2.47134 2.88218,-2.57796 4.09716,-3.33618 5.02268,-3.73032 1.13605,-0.89786 -0.0868,0.001 -1.11025,0.4627 -4.91851,2.12363 -4.08165,1.54469 -4.00878,1.27364 -3.64931,0.89919 -3.17991,0.52068 -2.69178,0.18069 -2.22787,-0.10685 -1.80685,-0.34094 -1.43571,-0.52593 -1.11579,-0.66804 -0.84577,-0.77396 -0.62286,-0.85015 -0.531,-1.13418 -0.37247,-1.42175 -0.20354,-1.69547 -0.0823,-2.92569 0.11136,-3.16863 0.2462,-1.69005 0.43528,-1.40889 0.60675,-1.11368 0.70114,-0.82468 0.94134,-0.73806 1.2298,-0.61935 1.56888,-0.46193 1.9591,-0.25921 1.75465,-0.0308 2.01847,0.13478 3.1187,0.47559 3.59412,0.85083 3.97485,1.22971 4.09706,1.52192 5.12089,2.1917 1.46787,0.60615 0.0115,-0.0423 -0.85807,-0.67372 -5.7956,-4.31912 -4.08916,-3.37067 -2.82917,-2.56924 -2.42878,-2.44229 -1.93852,-2.21519 -1.40671,-1.91537 -0.86152,-1.55957 -0.27249,-0.81913 -0.035,-0.62876 0.19705,-0.42801 0.42165,-0.21858 0.63639,-0.003 0.83802,0.21596 1.59473,0.72698 1.91822,1.1681 2.80951,2.03664 4.32246,3.25694 0.35232,0.006 -0.005,-0.46082 -0.5648,-1.49161 -2.25157,-5.31203 -0.65721,-2.0751 -0.21488,-1.49739 0.14233,-0.57003 0.16164,-0.13675 0.22308,-0.0301 0.63195,0.28137 0.87935,0.77039 1.12247,1.29563 1.35549,1.8489 1.56867,2.41278 2.66224,4.59919 2.7626,5.31683 3.06296,6.30006 -0.14014,-0.46634 -2.78839,-8.4543 -1.98148,-6.83534 -1.47795,-6.12959 -0.63163,-3.36908 -0.35103,-2.70325 -0.0889,-2.00257 0.14975,-1.28138 0.1565,-0.36501 0.20667,-0.17843 0.25363,0.0103 0.29737,0.20129 0.7126,0.98343 0.84601,1.76496 0.94633,2.53218 1.00358,3.22441 1.47129,5.61558 1.36187,5.59392 0.1434,0.22884 0.057,-0.44718 -0.0891,-2.88113 -0.37583,-10.64301 -0.0228,-5.81889 0.15071,-5.36444 0.31806,-4.67147 0.46256,-3.87959 0.57792,-3.05257 0.66229,-2.21452 0.71518,-1.37053 0.36752,-0.36616 0.36879,-0.15141 0.36601,0.0652 0.3591,0.2835 0.34806,0.50326 0.6465,1.66534 0.55464,2.51282 0.44049,3.22676 0.7993,7.5851 0.24122,0.26721 0.33559,-0.56604 0.45524,-1.47501 1.30425,-5.41857 2.77007,-11.66215 2.17667,-8.2264 2.31204,-7.77785 2.3851,-7.08977 2.42166,-6.34719 2.43549,-5.62627 2.43373,-4.95332 2.42003,-4.33375 2.39638,-3.764893 2.36379,-3.241375 2.32286,-2.757405 2.27391,-2.307564 2.21707,-1.887091 2.15246,-1.491904 2.08006,-1.118533 1.99983,-0.764036 1.91169,-0.425906 1.81552,-0.101986 1.71115,0.209593 1.5984,0.51048 1.47698,0.802147 1.3466,1.085936 1.20688,1.363094 1.05737,1.634807 0.89754,1.902224 0.72678,2.16649 0.54431,2.428763 0.34927,2.690236 0.14065,2.952153 -0.0827,3.21582 -0.32225,3.48258 -0.57939,3.75379 -0.85576,4.03071 -1.15291,4.31428 -1.47205,4.6047 -1.81344,4.90062 -2.17505,5.19751 -2.55014,5.48475 -2.92257,5.7401 -3.25829,5.9205 -3.49223,5.94815 -5.17166,8.32346 -3.8649,6.18289 -1.10567,2.16909 -0.0371,0.4551 0.28112,0.0853 0.55398,-0.21948 1.70034,-1.05917 5.43468,-3.56248 2.01873,-1.11102 1.76956,-0.78902 1.48508,-0.45403 1.18772,-0.12929 0.88866,0.17491 0.59306,0.45487 0.30302,0.71006 0.019,0.94138 -0.25892,1.15021 -0.53109,1.3379 -0.79749,1.50562 -1.68183,2.53078 -2.2401,2.79975 -2.75686,2.99886 -3.20404,3.11599 -3.53377,3.12962 -4.88274,3.95652 -8.49371,6.66903 0.0714,0.0881 0.49023,0.0102 2.04388,-0.42194 4.32558,-0.9362 2.94703,-0.45278 2.68376,-0.20574 2.3236,0.047 1.94466,0.27311 1.58547,0.46161 1.26326,0.61164 0.98438,0.72673 0.74961,0.81196 0.67054,1.09818 0.44283,1.15729 0.31756,1.4318 0.19016,1.94065 0.006,2.43785 -0.21535,2.18287 -0.33392,1.42896 -0.4626,1.15269 -0.6972,1.09046 -0.7766,0.80275 -1.01681,0.71409 -1.30122,0.59489 -1.62857,0.44019 -1.99148,0.24681 -2.37076,0.0165 -2.72418,-0.23793 -2.96684,-0.48024 -4.84597,-1.07043 -1.55566,-0.22809 -0.14085,0.17792 0.37863,0.44889 1.56888,1.25149 8.35503,6.33469 3.66714,3.03978 3.48973,3.13575 3.13609,3.10295 2.6746,2.97093 2.14941,2.75956 1.58592,2.4796 0.73144,1.46551 0.46359,1.29289 0.18997,1.10003 -0.0895,0.88572 -0.37497,0.64855 -0.66649,0.38722 -0.96323,0.10106 -1.26252,-0.20881 -1.55804,-0.53743 -1.8364,-0.87206 -2.07113,-1.18471 -3.3221,-2.16767 -2.91513,-1.93043 -0.66968,-0.3443 -0.42412,-0.076 -0.12663,0.2631 0.20743,0.65843 1.44235,2.59479 11.18806,18.15477 3.32978,5.94575 3.01182,5.79455 2.64444,5.55281 1.60709,3.69118 m -38.06256,0 -2.04648,-7.11951 -2.12848,-8.26173 -3.80612,-15.86636 -0.39296,-1.01809 -0.28464,-0.13339 -0.20591,0.62599 -0.30164,2.75864 -0.50144,5.28869 -0.47011,3.07065 -0.58024,2.30781 -0.66473,1.44644 -0.3541,0.39325 -0.36307,0.17411 -0.36791,-0.0434 -0.36866,-0.259 -0.36537,-0.47291 v 0"
         clip-path="url(#pee2545dad8)"
         style="fill:none;stroke:#1f77b4;stroke-width:1.5;stroke-linecap:square"
         id="path190" />
    </g>
    <g
       id="patch_3">
      <path
         d="m 297.97841,206.784 c 0,-35.27511 -14.02793,-69.14153 -38.9712,-94.0848 -24.94327,-24.94327 -58.80969,-38.9712 -94.0848,-38.9712 -35.27511,0 -69.141533,14.02793 -94.084804,38.9712 -24.94327,24.94327 -38.9712,58.80969 -38.9712,94.0848"
         style="fill:none;stroke:#000000;stroke-width:0.8;stroke-linecap:square;stroke-linejoin:miter"
         id="path193" />
    </g>
    <g
       id="patch_4">
      <path
         d="M 164.92241,206.784 H 31.866406"
         style="fill:none;stroke:#000000;stroke-width:0.8;stroke-linecap:square;stroke-linejoin:miter"
         id="path196" />
    </g>
    <g
       id="patch_5">
      <path
         d="m 164.92241,206.784 h 133.056"
         style="fill:none;stroke:#000000;stroke-width:0.8;stroke-linecap:square;stroke-linejoin:miter"
         id="path199" />
    </g>
  </g>
  <defs
     id="defs207">
    <clipPath
       id="pee2545dad8">
      <path
         d="m 297.97841,206.784 c 0,-35.27511 -14.02793,-69.14153 -38.9712,-94.0848 -24.94327,-24.94327 -58.80969,-38.9712 -94.0848,-38.9712 -35.27511,0 -69.141533,14.02793 -94.084804,38.9712 -24.94327,24.94327 -38.9712,58.80969 -38.9712,94.0848 H 164.92241 c 0,0 0,0 0,0 0,0 0,0 0,0 0,0 0,0 0,0 0,0 0,0 0,0 z"
         id="path204" />
    </clipPath>
  </defs>
</svg>
