<?xml version="1.0" encoding="utf-8" standalone="no"?>
<!DOCTYPE svg PUBLIC "-//W3C//DTD SVG 1.1//EN"
  "http://www.w3.org/Graphics/SVG/1.1/DTD/svg11.dtd">
<svg xmlns:xlink="http://www.w3.org/1999/xlink" width="440.420313pt" height="223.595667pt" viewBox="0 0 440.420313 223.595667" xmlns="http://www.w3.org/2000/svg" version="1.1">
 <metadata>
  <rdf:RDF xmlns:dc="http://purl.org/dc/elements/1.1/" xmlns:cc="http://creativecommons.org/ns#" xmlns:rdf="http://www.w3.org/1999/02/22-rdf-syntax-ns#">
   <cc:Work>
    <dc:type rdf:resource="http://purl.org/dc/dcmitype/StillImage"/>
    <dc:date>2024-01-22T23:20:00.151337</dc:date>
    <dc:format>image/svg+xml</dc:format>
    <dc:creator>
     <cc:Agent>
      <dc:title>Matplotlib v3.8.0, https://matplotlib.org/</dc:title>
     </cc:Agent>
    </dc:creator>
   </cc:Work>
  </rdf:RDF>
 </metadata>
 <defs>
  <style type="text/css">*{stroke-linejoin: round; stroke-linecap: butt}</style>
 </defs>
 <g id="figure_1">
  <g id="patch_1">
   <path d="M 0 223.595667 
L 440.420313 223.595667 
L 440.420313 0 
L 0 0 
z
" style="fill: #ffffff"/>
  </g>
  <g id="axes_1">
   <g id="patch_2">
    <path d="M 42.620312 186.039417 
L 433.220313 186.039417 
L 433.220313 19.719417 
L 42.620312 19.719417 
z
" style="fill: #ffffff"/>
   </g>
   <g id="matplotlib.axis_1">
    <g id="xtick_1">
     <g id="line2d_1">
      <path d="M 89.965767 186.039417 
L 89.965767 19.719417 
" clip-path="url(#pbccdee7f55)" style="fill: none; stroke: #b0b0b0; stroke-width: 0.8; stroke-linecap: square"/>
     </g>
     <g id="line2d_2">
      <defs>
       <path id="mc66d6b7a10" d="M 0 0 
L 0 3.5 
" style="stroke: #000000; stroke-width: 0.8"/>
      </defs>
      <g>
       <use xlink:href="#mc66d6b7a10" x="89.965767" y="186.039417" style="stroke: #000000; stroke-width: 0.8"/>
      </g>
     </g>
     <g id="text_1">
      <!-- −150 -->
      <g transform="translate(76.232173 200.637854) scale(0.1 -0.1)">
       <defs>
        <path id="DejaVuSans-2212" d="M 678 2272 
L 4684 2272 
L 4684 1741 
L 678 1741 
L 678 2272 
z
" transform="scale(0.015625)"/>
        <path id="DejaVuSans-31" d="M 794 531 
L 1825 531 
L 1825 4091 
L 703 3866 
L 703 4441 
L 1819 4666 
L 2450 4666 
L 2450 531 
L 3481 531 
L 3481 0 
L 794 0 
L 794 531 
z
" transform="scale(0.015625)"/>
        <path id="DejaVuSans-35" d="M 691 4666 
L 3169 4666 
L 3169 4134 
L 1269 4134 
L 1269 2991 
Q 1406 3038 1543 3061 
Q 1681 3084 1819 3084 
Q 2600 3084 3056 2656 
Q 3513 2228 3513 1497 
Q 3513 744 3044 326 
Q 2575 -91 1722 -91 
Q 1428 -91 1123 -41 
Q 819 9 494 109 
L 494 744 
Q 775 591 1075 516 
Q 1375 441 1709 441 
Q 2250 441 2565 725 
Q 2881 1009 2881 1497 
Q 2881 1984 2565 2268 
Q 2250 2553 1709 2553 
Q 1456 2553 1204 2497 
Q 953 2441 691 2322 
L 691 4666 
z
" transform="scale(0.015625)"/>
        <path id="DejaVuSans-30" d="M 2034 4250 
Q 1547 4250 1301 3770 
Q 1056 3291 1056 2328 
Q 1056 1369 1301 889 
Q 1547 409 2034 409 
Q 2525 409 2770 889 
Q 3016 1369 3016 2328 
Q 3016 3291 2770 3770 
Q 2525 4250 2034 4250 
z
M 2034 4750 
Q 2819 4750 3233 4129 
Q 3647 3509 3647 2328 
Q 3647 1150 3233 529 
Q 2819 -91 2034 -91 
Q 1250 -91 836 529 
Q 422 1150 422 2328 
Q 422 3509 836 4129 
Q 1250 4750 2034 4750 
z
" transform="scale(0.015625)"/>
       </defs>
       <use xlink:href="#DejaVuSans-2212"/>
       <use xlink:href="#DejaVuSans-31" x="83.789062"/>
       <use xlink:href="#DejaVuSans-35" x="147.412109"/>
       <use xlink:href="#DejaVuSans-30" x="211.035156"/>
      </g>
     </g>
    </g>
    <g id="xtick_2">
     <g id="line2d_3">
      <path d="M 139.283949 186.039417 
L 139.283949 19.719417 
" clip-path="url(#pbccdee7f55)" style="fill: none; stroke: #b0b0b0; stroke-width: 0.8; stroke-linecap: square"/>
     </g>
     <g id="line2d_4">
      <g>
       <use xlink:href="#mc66d6b7a10" x="139.283949" y="186.039417" style="stroke: #000000; stroke-width: 0.8"/>
      </g>
     </g>
     <g id="text_2">
      <!-- −100 -->
      <g transform="translate(125.550355 200.637854) scale(0.1 -0.1)">
       <use xlink:href="#DejaVuSans-2212"/>
       <use xlink:href="#DejaVuSans-31" x="83.789062"/>
       <use xlink:href="#DejaVuSans-30" x="147.412109"/>
       <use xlink:href="#DejaVuSans-30" x="211.035156"/>
      </g>
     </g>
    </g>
    <g id="xtick_3">
     <g id="line2d_5">
      <path d="M 188.602131 186.039417 
L 188.602131 19.719417 
" clip-path="url(#pbccdee7f55)" style="fill: none; stroke: #b0b0b0; stroke-width: 0.8; stroke-linecap: square"/>
     </g>
     <g id="line2d_6">
      <g>
       <use xlink:href="#mc66d6b7a10" x="188.602131" y="186.039417" style="stroke: #000000; stroke-width: 0.8"/>
      </g>
     </g>
     <g id="text_3">
      <!-- −50 -->
      <g transform="translate(178.049787 200.637854) scale(0.1 -0.1)">
       <use xlink:href="#DejaVuSans-2212"/>
       <use xlink:href="#DejaVuSans-35" x="83.789062"/>
       <use xlink:href="#DejaVuSans-30" x="147.412109"/>
      </g>
     </g>
    </g>
    <g id="xtick_4">
     <g id="line2d_7">
      <path d="M 237.920313 186.039417 
L 237.920313 19.719417 
" clip-path="url(#pbccdee7f55)" style="fill: none; stroke: #b0b0b0; stroke-width: 0.8; stroke-linecap: square"/>
     </g>
     <g id="line2d_8">
      <g>
       <use xlink:href="#mc66d6b7a10" x="237.920313" y="186.039417" style="stroke: #000000; stroke-width: 0.8"/>
      </g>
     </g>
     <g id="text_4">
      <!-- 0 -->
      <g transform="translate(234.739063 200.637854) scale(0.1 -0.1)">
       <use xlink:href="#DejaVuSans-30"/>
      </g>
     </g>
    </g>
    <g id="xtick_5">
     <g id="line2d_9">
      <path d="M 287.238494 186.039417 
L 287.238494 19.719417 
" clip-path="url(#pbccdee7f55)" style="fill: none; stroke: #b0b0b0; stroke-width: 0.8; stroke-linecap: square"/>
     </g>
     <g id="line2d_10">
      <g>
       <use xlink:href="#mc66d6b7a10" x="287.238494" y="186.039417" style="stroke: #000000; stroke-width: 0.8"/>
      </g>
     </g>
     <g id="text_5">
      <!-- 50 -->
      <g transform="translate(280.875994 200.637854) scale(0.1 -0.1)">
       <use xlink:href="#DejaVuSans-35"/>
       <use xlink:href="#DejaVuSans-30" x="63.623047"/>
      </g>
     </g>
    </g>
    <g id="xtick_6">
     <g id="line2d_11">
      <path d="M 336.556676 186.039417 
L 336.556676 19.719417 
" clip-path="url(#pbccdee7f55)" style="fill: none; stroke: #b0b0b0; stroke-width: 0.8; stroke-linecap: square"/>
     </g>
     <g id="line2d_12">
      <g>
       <use xlink:href="#mc66d6b7a10" x="336.556676" y="186.039417" style="stroke: #000000; stroke-width: 0.8"/>
      </g>
     </g>
     <g id="text_6">
      <!-- 100 -->
      <g transform="translate(327.012926 200.637854) scale(0.1 -0.1)">
       <use xlink:href="#DejaVuSans-31"/>
       <use xlink:href="#DejaVuSans-30" x="63.623047"/>
       <use xlink:href="#DejaVuSans-30" x="127.246094"/>
      </g>
     </g>
    </g>
    <g id="xtick_7">
     <g id="line2d_13">
      <path d="M 385.874858 186.039417 
L 385.874858 19.719417 
" clip-path="url(#pbccdee7f55)" style="fill: none; stroke: #b0b0b0; stroke-width: 0.8; stroke-linecap: square"/>
     </g>
     <g id="line2d_14">
      <g>
       <use xlink:href="#mc66d6b7a10" x="385.874858" y="186.039417" style="stroke: #000000; stroke-width: 0.8"/>
      </g>
     </g>
     <g id="text_7">
      <!-- 150 -->
      <g transform="translate(376.331108 200.637854) scale(0.1 -0.1)">
       <use xlink:href="#DejaVuSans-31"/>
       <use xlink:href="#DejaVuSans-35" x="63.623047"/>
       <use xlink:href="#DejaVuSans-30" x="127.246094"/>
      </g>
     </g>
    </g>
    <g id="text_8"><text x="197.305" y="214.316" font-family="DejaVu Sans,sans-serif" font-size="10.0" text-anchor="middle" dominant-baseline="auto">Theta [Grad]</text></g>
   </g>
   <g id="matplotlib.axis_2">
    <g id="ytick_1">
     <g id="line2d_15">
      <path d="M 42.620312 169.919181 
L 433.220313 169.919181 
" clip-path="url(#pbccdee7f55)" style="fill: none; stroke: #b0b0b0; stroke-width: 0.8; stroke-linecap: square"/>
     </g>
     <g id="line2d_16">
      <defs>
       <path id="m6cb6bb5725" d="M 0 0 
L -3.5 0 
" style="stroke: #000000; stroke-width: 0.8"/>
      </defs>
      <g>
       <use xlink:href="#m6cb6bb5725" x="42.620312" y="169.919181" style="stroke: #000000; stroke-width: 0.8"/>
      </g>
     </g>
     <g id="text_9">
      <!-- −8 -->
      <g transform="translate(20.878125 173.7184) scale(0.1 -0.1)">
       <defs>
        <path id="DejaVuSans-38" d="M 2034 2216 
Q 1584 2216 1326 1975 
Q 1069 1734 1069 1313 
Q 1069 891 1326 650 
Q 1584 409 2034 409 
Q 2484 409 2743 651 
Q 3003 894 3003 1313 
Q 3003 1734 2745 1975 
Q 2488 2216 2034 2216 
z
M 1403 2484 
Q 997 2584 770 2862 
Q 544 3141 544 3541 
Q 544 4100 942 4425 
Q 1341 4750 2034 4750 
Q 2731 4750 3128 4425 
Q 3525 4100 3525 3541 
Q 3525 3141 3298 2862 
Q 3072 2584 2669 2484 
Q 3125 2378 3379 2068 
Q 3634 1759 3634 1313 
Q 3634 634 3220 271 
Q 2806 -91 2034 -91 
Q 1263 -91 848 271 
Q 434 634 434 1313 
Q 434 1759 690 2068 
Q 947 2378 1403 2484 
z
M 1172 3481 
Q 1172 3119 1398 2916 
Q 1625 2713 2034 2713 
Q 2441 2713 2670 2916 
Q 2900 3119 2900 3481 
Q 2900 3844 2670 4047 
Q 2441 4250 2034 4250 
Q 1625 4250 1398 4047 
Q 1172 3844 1172 3481 
z
" transform="scale(0.015625)"/>
       </defs>
       <use xlink:href="#DejaVuSans-2212"/>
       <use xlink:href="#DejaVuSans-38" x="83.789062"/>
      </g>
     </g>
    </g>
    <g id="ytick_2">
     <g id="line2d_17">
      <path d="M 42.620312 134.25924 
L 433.220313 134.25924 
" clip-path="url(#pbccdee7f55)" style="fill: none; stroke: #b0b0b0; stroke-width: 0.8; stroke-linecap: square"/>
     </g>
     <g id="line2d_18">
      <g>
       <use xlink:href="#m6cb6bb5725" x="42.620312" y="134.25924" style="stroke: #000000; stroke-width: 0.8"/>
      </g>
     </g>
     <g id="text_10">
      <!-- −6 -->
      <g transform="translate(20.878125 138.058459) scale(0.1 -0.1)">
       <defs>
        <path id="DejaVuSans-36" d="M 2113 2584 
Q 1688 2584 1439 2293 
Q 1191 2003 1191 1497 
Q 1191 994 1439 701 
Q 1688 409 2113 409 
Q 2538 409 2786 701 
Q 3034 994 3034 1497 
Q 3034 2003 2786 2293 
Q 2538 2584 2113 2584 
z
M 3366 4563 
L 3366 3988 
Q 3128 4100 2886 4159 
Q 2644 4219 2406 4219 
Q 1781 4219 1451 3797 
Q 1122 3375 1075 2522 
Q 1259 2794 1537 2939 
Q 1816 3084 2150 3084 
Q 2853 3084 3261 2657 
Q 3669 2231 3669 1497 
Q 3669 778 3244 343 
Q 2819 -91 2113 -91 
Q 1303 -91 875 529 
Q 447 1150 447 2328 
Q 447 3434 972 4092 
Q 1497 4750 2381 4750 
Q 2619 4750 2861 4703 
Q 3103 4656 3366 4563 
z
" transform="scale(0.015625)"/>
       </defs>
       <use xlink:href="#DejaVuSans-2212"/>
       <use xlink:href="#DejaVuSans-36" x="83.789062"/>
      </g>
     </g>
    </g>
    <g id="ytick_3">
     <g id="line2d_19">
      <path d="M 42.620312 98.599299 
L 433.220313 98.599299 
" clip-path="url(#pbccdee7f55)" style="fill: none; stroke: #b0b0b0; stroke-width: 0.8; stroke-linecap: square"/>
     </g>
     <g id="line2d_20">
      <g>
       <use xlink:href="#m6cb6bb5725" x="42.620312" y="98.599299" style="stroke: #000000; stroke-width: 0.8"/>
      </g>
     </g>
     <g id="text_11">
      <!-- −4 -->
      <g transform="translate(20.878125 102.398518) scale(0.1 -0.1)">
       <defs>
        <path id="DejaVuSans-34" d="M 2419 4116 
L 825 1625 
L 2419 1625 
L 2419 4116 
z
M 2253 4666 
L 3047 4666 
L 3047 1625 
L 3713 1625 
L 3713 1100 
L 3047 1100 
L 3047 0 
L 2419 0 
L 2419 1100 
L 313 1100 
L 313 1709 
L 2253 4666 
z
" transform="scale(0.015625)"/>
       </defs>
       <use xlink:href="#DejaVuSans-2212"/>
       <use xlink:href="#DejaVuSans-34" x="83.789062"/>
      </g>
     </g>
    </g>
    <g id="ytick_4">
     <g id="line2d_21">
      <path d="M 42.620312 62.939358 
L 433.220313 62.939358 
" clip-path="url(#pbccdee7f55)" style="fill: none; stroke: #b0b0b0; stroke-width: 0.8; stroke-linecap: square"/>
     </g>
     <g id="line2d_22">
      <g>
       <use xlink:href="#m6cb6bb5725" x="42.620312" y="62.939358" style="stroke: #000000; stroke-width: 0.8"/>
      </g>
     </g>
     <g id="text_12">
      <!-- −2 -->
      <g transform="translate(20.878125 66.738577) scale(0.1 -0.1)">
       <defs>
        <path id="DejaVuSans-32" d="M 1228 531 
L 3431 531 
L 3431 0 
L 469 0 
L 469 531 
Q 828 903 1448 1529 
Q 2069 2156 2228 2338 
Q 2531 2678 2651 2914 
Q 2772 3150 2772 3378 
Q 2772 3750 2511 3984 
Q 2250 4219 1831 4219 
Q 1534 4219 1204 4116 
Q 875 4013 500 3803 
L 500 4441 
Q 881 4594 1212 4672 
Q 1544 4750 1819 4750 
Q 2544 4750 2975 4387 
Q 3406 4025 3406 3419 
Q 3406 3131 3298 2873 
Q 3191 2616 2906 2266 
Q 2828 2175 2409 1742 
Q 1991 1309 1228 531 
z
" transform="scale(0.015625)"/>
       </defs>
       <use xlink:href="#DejaVuSans-2212"/>
       <use xlink:href="#DejaVuSans-32" x="83.789062"/>
      </g>
     </g>
    </g>
    <g id="ytick_5">
     <g id="line2d_23">
      <path d="M 42.620312 27.279417 
L 433.220313 27.279417 
" clip-path="url(#pbccdee7f55)" style="fill: none; stroke: #b0b0b0; stroke-width: 0.8; stroke-linecap: square"/>
     </g>
     <g id="line2d_24">
      <g>
       <use xlink:href="#m6cb6bb5725" x="42.620312" y="27.279417" style="stroke: #000000; stroke-width: 0.8"/>
      </g>
     </g>
     <g id="text_13">
      <!-- 0 -->
      <g transform="translate(29.257812 31.078636) scale(0.1 -0.1)">
       <use xlink:href="#DejaVuSans-30"/>
      </g>
     </g>
    </g>
    <g id="text_14"><text x="0" y="0" transform="translate(14.798,131.132) rotate(-90)" font-family="DejaVu Sans,sans-serif" font-size="10.0" text-anchor="middle" dominant-baseline="auto">DOA-Metrik</text></g>
   </g>
   <g id="line2d_25">
    <path d="M 60.374858 79.652675 
L 62.507536 92.080007 
L 64.995661 107.997361 
L 72.460034 157.396693 
L 73.881819 164.813879 
L 74.948159 169.408123 
L 76.014498 173.031114 
L 76.72539 174.865247 
L 77.436283 176.221078 
L 78.147176 177.100508 
L 78.858068 177.517191 
L 79.568961 177.495562 
L 80.279854 177.069183 
L 80.990747 176.278639 
L 81.701639 175.169225 
L 82.767978 173.011815 
L 84.189764 169.46363 
L 86.677888 162.357575 
L 89.521459 154.345881 
L 91.298691 149.948153 
L 92.720476 146.911133 
L 94.142262 144.35138 
L 95.564047 142.290158 
L 96.630386 141.074772 
L 97.696725 140.140214 
L 98.763064 139.481 
L 99.829403 139.089307 
L 100.895742 138.955426 
L 101.962082 139.068106 
L 103.028421 139.414803 
L 104.09476 139.981865 
L 105.516545 141.05532 
L 106.938331 142.457355 
L 108.360116 144.148435 
L 110.137348 146.605005 
L 112.270026 149.942055 
L 115.469043 155.421062 
L 120.445292 163.959503 
L 122.933417 167.760933 
L 125.066095 170.597154 
L 126.843326 172.613717 
L 128.620558 174.29695 
L 130.39779 175.648596 
L 132.175022 176.686242 
L 133.952254 177.440401 
L 135.729485 177.950876 
L 137.862163 178.305601 
L 140.350288 178.465852 
L 144.260198 178.435023 
L 151.013679 178.365791 
L 159.188945 178.41278 
L 161.321623 178.187324 
L 163.454301 177.723355 
L 165.231533 177.096442 
L 167.008765 176.205024 
L 168.785996 175.013464 
L 170.563228 173.497289 
L 172.34046 171.646533 
L 174.117692 169.468131 
L 176.25037 166.457928 
L 178.738494 162.499981 
L 182.648404 155.733184 
L 186.558314 149.075555 
L 188.690992 145.832486 
L 190.468224 143.483011 
L 191.890009 141.895545 
L 193.311795 140.612221 
L 194.73358 139.671681 
L 195.799919 139.213032 
L 196.866258 138.981702 
L 197.932598 138.99081 
L 198.998937 139.252281 
L 200.065276 139.776629 
L 201.131615 140.572671 
L 202.197954 141.647125 
L 203.264293 143.004089 
L 204.686078 145.253593 
L 206.107864 147.995875 
L 207.529649 151.202002 
L 209.306881 155.775944 
L 211.795005 162.87737 
L 214.638576 170.864462 
L 216.060362 174.156592 
L 217.126701 176.02934 
L 217.837593 176.903981 
L 218.548486 177.425429 
L 219.259379 177.551705 
L 219.970272 177.24728 
L 220.681164 176.485261 
L 221.392057 175.249177 
L 222.10295 173.534141 
L 222.813842 171.347222 
L 223.880181 167.225504 
L 224.946521 162.190081 
L 226.368306 154.301138 
L 228.145538 143.090656 
L 232.055448 116.385746 
L 235.254465 95.373624 
L 237.742589 80.640182 
L 239.875267 69.398997 
L 241.652499 61.070794 
L 243.429731 53.700913 
L 245.206963 47.283914 
L 246.984195 41.804321 
L 248.40598 38.081424 
L 249.827765 34.932542 
L 251.249551 32.344596 
L 252.671336 30.30417 
L 253.737675 29.125024 
L 254.804014 28.240547 
L 255.870353 27.645055 
L 256.936693 27.332897 
L 258.003032 27.298441 
L 259.069371 27.536077 
L 260.13571 28.040195 
L 261.202049 28.805173 
L 262.268388 29.825348 
L 263.690173 31.572651 
L 265.111959 33.749616 
L 266.533744 36.341971 
L 268.310976 40.143833 
L 270.088208 44.540644 
L 271.865439 49.499047 
L 273.998118 56.138582 
L 276.486242 64.744249 
L 278.974367 74.149207 
L 282.173384 87.159855 
L 287.149633 108.51669 
L 291.770435 128.049155 
L 294.614006 139.130168 
L 296.746684 146.675374 
L 298.879362 153.413453 
L 300.656594 158.345243 
L 302.433826 162.627695 
L 304.211058 166.261574 
L 305.632843 168.717786 
L 307.054629 170.79693 
L 308.476414 172.52801 
L 309.898199 173.944679 
L 311.319985 175.083278 
L 312.74177 175.981044 
L 314.519002 176.820164 
L 316.296234 177.407139 
L 318.428912 177.862525 
L 320.917036 178.158288 
L 324.4715 178.327769 
L 329.447749 178.314636 
L 333.002213 178.111015 
L 335.490337 177.769582 
L 337.623015 177.253795 
L 339.400247 176.597838 
L 341.177479 175.670252 
L 342.599264 174.686526 
L 344.02105 173.448003 
L 345.442835 171.917586 
L 346.86462 170.059719 
L 348.286406 167.842261 
L 349.708191 165.238458 
L 351.129977 162.228847 
L 352.907208 157.881074 
L 354.68444 152.885304 
L 356.461672 147.26927 
L 358.59435 139.786748 
L 361.082475 130.200659 
L 364.281492 116.922616 
L 374.23399 74.8476 
L 377.077561 64.101358 
L 379.565685 55.558096 
L 381.698363 48.97895 
L 383.831041 43.161059 
L 385.608273 38.93936 
L 387.385505 35.322088 
L 388.80729 32.883798 
L 390.229076 30.86631 
L 391.650861 29.283716 
L 392.7172 28.390429 
L 393.783539 27.755177 
L 394.849878 27.383598 
L 395.916217 27.281307 
L 396.982557 27.453912 
L 398.048896 27.907032 
L 399.115235 28.646308 
L 400.181574 29.677408 
L 401.247913 31.006025 
L 402.314252 32.63787 
L 403.736037 35.295203 
L 405.157823 38.515132 
L 406.579608 42.310671 
L 408.001394 46.694088 
L 409.778625 53.016528 
L 411.555857 60.290667 
L 413.333089 68.523203 
L 415.110321 77.704912 
L 415.465767 79.652675 
L 415.465767 79.652675 
" clip-path="url(#pbccdee7f55)" style="fill: none; stroke: #1f77b4; stroke-width: 1.5; stroke-linecap: square"/>
   </g>
   <g id="line2d_26">
    <defs>
     <path id="mb32b4567fd" d="M 0 1.5 
C 0.397805 1.5 0.77937 1.341951 1.06066 1.06066 
C 1.341951 0.77937 1.5 0.397805 1.5 0 
C 1.5 -0.397805 1.341951 -0.77937 1.06066 -1.06066 
C 0.77937 -1.341951 0.397805 -1.5 0 -1.5 
C -0.397805 -1.5 -0.77937 -1.341951 -1.06066 -1.06066 
C -1.341951 -0.77937 -1.5 -0.397805 -1.5 0 
C -1.5 0.397805 -1.341951 0.77937 -1.06066 1.06066 
C -0.77937 1.341951 -0.397805 1.5 0 1.5 
z
" style="stroke: #ff0000"/>
    </defs>
    <g clip-path="url(#pbccdee7f55)">
     <use xlink:href="#mb32b4567fd" x="257.647585" y="27.279417" style="fill: #ff0000; stroke: #ff0000"/>
    </g>
   </g>
   <g id="patch_3">
    <path d="M 42.620312 186.039417 
L 42.620312 19.719417 
" style="fill: none; stroke: #000000; stroke-width: 0.8; stroke-linejoin: miter; stroke-linecap: square"/>
   </g>
   <g id="patch_4">
    <path d="M 433.220313 186.039417 
L 433.220313 19.719417 
" style="fill: none; stroke: #000000; stroke-width: 0.8; stroke-linejoin: miter; stroke-linecap: square"/>
   </g>
   <g id="patch_5">
    <path d="M 42.620312 186.039417 
L 433.220313 186.039417 
" style="fill: none; stroke: #000000; stroke-width: 0.8; stroke-linejoin: miter; stroke-linecap: square"/>
   </g>
   <g id="patch_6">
    <path d="M 42.620312 19.719417 
L 433.220313 19.719417 
" style="fill: none; stroke: #000000; stroke-width: 0.8; stroke-linejoin: miter; stroke-linecap: square"/>
   </g>
   <g id="text_15"><text x="232.988" y="14.798" font-family="DejaVu Sans,sans-serif" font-size="10.0" text-anchor="middle">20 Grad</text></g>
  </g>
 </g>
 <defs>
  <clipPath id="pbccdee7f55">
   <rect x="42.620312" y="19.719417" width="390.6" height="166.32"/>
  </clipPath>
 </defs>
</svg>
