<?xml version="1.0" encoding="UTF-8" standalone="no"?>
<svg
   xmlns:dc="http://purl.org/dc/elements/1.1/"
   xmlns:cc="http://creativecommons.org/ns#"
   xmlns:rdf="http://www.w3.org/1999/02/22-rdf-syntax-ns#"
   xmlns:svg="http://www.w3.org/2000/svg"
   xmlns="http://www.w3.org/2000/svg"
   xmlns:xlink="http://www.w3.org/1999/xlink"
   xmlns:sodipodi="http://sodipodi.sourceforge.net/DTD/sodipodi-0.dtd"
   xmlns:inkscape="http://www.inkscape.org/namespaces/inkscape"
   width="388.52127pt"
   height="186.67226pt"
   viewBox="0 0 388.52127 186.67225"
   version="1.1"
   id="svg346"
   sodipodi:docname="manchester_freq_response.svg"
   inkscape:version="0.92.5 (2060ec1f9f, 2020-04-08)">
  <sodipodi:namedview
     pagecolor="#ffffff"
     bordercolor="#666666"
     borderopacity="1"
     objecttolerance="10"
     gridtolerance="10"
     guidetolerance="10"
     inkscape:pageopacity="0"
     inkscape:pageshadow="2"
     inkscape:window-width="1767"
     inkscape:window-height="934"
     id="namedview348"
     showgrid="false"
     inkscape:zoom="1.7256772"
     inkscape:cx="336.88"
     inkscape:cy="120.41058"
     inkscape:window-x="72"
     inkscape:window-y="27"
     inkscape:window-maximized="0"
     inkscape:current-layer="svg346" />
  <metadata
     id="metadata2">
    <rdf:RDF>
      <cc:Work>
        <dc:type
           rdf:resource="http://purl.org/dc/dcmitype/StillImage" />
        <dc:date>2022-02-21T23:55:42.655859</dc:date>
        <dc:format>image/svg+xml</dc:format>
        <dc:creator>
          <cc:Agent>
            <dc:title>Matplotlib v3.5.1, https://matplotlib.org/</dc:title>
          </cc:Agent>
        </dc:creator>
      </cc:Work>
    </rdf:RDF>
  </metadata>
  <defs
     id="defs6"
     style="stroke-linecap:butt;stroke-linejoin:round">
    <style
       type="text/css"
       id="style4">*{stroke-linejoin: round; stroke-linecap: butt}</style>
  </defs>
  <g
     style="stroke-linecap:butt;stroke-linejoin:round"
     id="axes_1"
     transform="translate(-20.118749,-25.952)">
    <g
       style="stroke-linecap:butt;stroke-linejoin:round"
       id="patch_2">
      <path
         inkscape:connector-curvature="0"
         id="path11"
         style="fill:#ffffff;stroke-linecap:butt;stroke-linejoin:round"
         d="M 56.7,182.268 H 408.24 V 26.352 H 56.7 Z" />
    </g>
    <g
       style="stroke-linecap:butt;stroke-linejoin:round"
       id="matplotlib.axis_1">
      <g
         style="stroke-linecap:butt;stroke-linejoin:round"
         id="xtick_1">
        <g
           style="stroke-linecap:butt;stroke-linejoin:round"
           id="line2d_1">
          <path
             inkscape:connector-curvature="0"
             id="path14"
             style="fill:none;stroke:#b0b0b0;stroke-width:0.80000001;stroke-linecap:square;stroke-linejoin:round"
             clip-path="url(#p79da4c9ff7)"
             d="M 72.679091,182.268 V 26.352" />
        </g>
        <g
           style="stroke-linecap:butt;stroke-linejoin:round"
           id="line2d_2">
          <defs
             id="defs18">
            <path
               inkscape:connector-curvature="0"
               style="stroke:#000000;stroke-width:0.80000001;stroke-linecap:butt;stroke-linejoin:round"
               d="M 0,0 V 3.5"
               id="m29c9ea13d4" />
          </defs>
          <g
             style="stroke-linecap:butt;stroke-linejoin:round"
             id="g22">
            <use
               height="100%"
               width="100%"
               id="use20"
               style="stroke:#000000;stroke-width:0.80000001;stroke-linecap:butt;stroke-linejoin:round"
               y="182.26801"
               x="72.679092"
               xlink:href="#m29c9ea13d4" />
          </g>
        </g>
        <g
           style="stroke-linecap:butt;stroke-linejoin:round"
           id="text_1">
          <!-- 0 -->
          <g
             style="stroke-linecap:butt;stroke-linejoin:round"
             id="g30"
             transform="matrix(0.1,0,0,-0.1,69.497841,196.86644)">
            <defs
               id="defs26">
              <path
                 style="stroke-linecap:butt;stroke-linejoin:round"
                 inkscape:connector-curvature="0"
                 transform="scale(0.015625)"
                 d="m 2034,4250 q -487,0 -733,-480 -245,-479 -245,-1442 0,-959 245,-1439 246,-480 733,-480 491,0 736,480 246,480 246,1439 0,963 -246,1442 -245,480 -736,480 z m 0,500 q 785,0 1199,-621 414,-620 414,-1801 0,-1178 -414,-1799 -414,-620 -1199,-620 -784,0 -1198,620 -414,621 -414,1799 0,1181 414,1801 414,621 1198,621 z"
                 id="DejaVuSans-30" />
            </defs>
            <use
               height="100%"
               width="100%"
               y="0"
               x="0"
               style="stroke-linecap:butt;stroke-linejoin:round"
               id="use28"
               xlink:href="#DejaVuSans-30" />
          </g>
        </g>
      </g>
      <g
         style="stroke-linecap:butt;stroke-linejoin:round"
         id="xtick_2">
        <g
           style="stroke-linecap:butt;stroke-linejoin:round"
           id="line2d_3">
          <path
             inkscape:connector-curvature="0"
             id="path34"
             style="fill:none;stroke:#b0b0b0;stroke-width:0.80000001;stroke-linecap:square;stroke-linejoin:round"
             clip-path="url(#p79da4c9ff7)"
             d="M 139.95947,182.268 V 26.352" />
        </g>
        <g
           style="stroke-linecap:butt;stroke-linejoin:round"
           id="line2d_4">
          <g
             style="stroke-linecap:butt;stroke-linejoin:round"
             id="g39">
            <use
               height="100%"
               width="100%"
               id="use37"
               style="stroke:#000000;stroke-width:0.80000001;stroke-linecap:butt;stroke-linejoin:round"
               y="182.26801"
               x="139.95947"
               xlink:href="#m29c9ea13d4" />
          </g>
        </g>
        <g
           style="stroke-linecap:butt;stroke-linejoin:round"
           id="text_2">
          <!-- 2 -->
          <g
             style="stroke-linecap:butt;stroke-linejoin:round"
             id="g47"
             transform="matrix(0.1,0,0,-0.1,136.77822,196.86644)">
            <defs
               id="defs43">
              <path
                 style="stroke-linecap:butt;stroke-linejoin:round"
                 inkscape:connector-curvature="0"
                 transform="scale(0.015625)"
                 d="M 1228,531 H 3431 V 0 H 469 v 531 q 359,372 979,998 621,627 780,809 303,340 423,576 121,236 121,464 0,372 -261,606 -261,235 -680,235 -297,0 -627,-103 -329,-103 -704,-313 v 638 q 381,153 712,231 332,78 607,78 725,0 1156,-363 431,-362 431,-968 0,-288 -108,-546 -107,-257 -392,-607 -78,-91 -497,-524 Q 1991,1309 1228,531 Z"
                 id="DejaVuSans-32" />
            </defs>
            <use
               height="100%"
               width="100%"
               y="0"
               x="0"
               style="stroke-linecap:butt;stroke-linejoin:round"
               id="use45"
               xlink:href="#DejaVuSans-32" />
          </g>
        </g>
      </g>
      <g
         style="stroke-linecap:butt;stroke-linejoin:round"
         id="xtick_3">
        <g
           style="stroke-linecap:butt;stroke-linejoin:round"
           id="line2d_5">
          <path
             inkscape:connector-curvature="0"
             id="path51"
             style="fill:none;stroke:#b0b0b0;stroke-width:0.80000001;stroke-linecap:square;stroke-linejoin:round"
             clip-path="url(#p79da4c9ff7)"
             d="M 207.23986,182.268 V 26.352" />
        </g>
        <g
           style="stroke-linecap:butt;stroke-linejoin:round"
           id="line2d_6">
          <g
             style="stroke-linecap:butt;stroke-linejoin:round"
             id="g56">
            <use
               height="100%"
               width="100%"
               id="use54"
               style="stroke:#000000;stroke-width:0.80000001;stroke-linecap:butt;stroke-linejoin:round"
               y="182.26801"
               x="207.23985"
               xlink:href="#m29c9ea13d4" />
          </g>
        </g>
        <g
           style="stroke-linecap:butt;stroke-linejoin:round"
           id="text_3">
          <!-- 4 -->
          <g
             style="stroke-linecap:butt;stroke-linejoin:round"
             id="g64"
             transform="matrix(0.1,0,0,-0.1,204.05861,196.86644)">
            <defs
               id="defs60">
              <path
                 style="stroke-linecap:butt;stroke-linejoin:round"
                 inkscape:connector-curvature="0"
                 transform="scale(0.015625)"
                 d="M 2419,4116 825,1625 h 1594 z m -166,550 h 794 V 1625 h 666 V 1100 H 3047 V 0 H 2419 V 1100 H 313 v 609 z"
                 id="DejaVuSans-34" />
            </defs>
            <use
               height="100%"
               width="100%"
               y="0"
               x="0"
               style="stroke-linecap:butt;stroke-linejoin:round"
               id="use62"
               xlink:href="#DejaVuSans-34" />
          </g>
        </g>
      </g>
      <g
         style="stroke-linecap:butt;stroke-linejoin:round"
         id="xtick_4">
        <g
           style="stroke-linecap:butt;stroke-linejoin:round"
           id="line2d_7">
          <path
             inkscape:connector-curvature="0"
             id="path68"
             style="fill:none;stroke:#b0b0b0;stroke-width:0.80000001;stroke-linecap:square;stroke-linejoin:round"
             clip-path="url(#p79da4c9ff7)"
             d="M 274.52024,182.268 V 26.352" />
        </g>
        <g
           style="stroke-linecap:butt;stroke-linejoin:round"
           id="line2d_8">
          <g
             style="stroke-linecap:butt;stroke-linejoin:round"
             id="g73">
            <use
               height="100%"
               width="100%"
               id="use71"
               style="stroke:#000000;stroke-width:0.80000001;stroke-linecap:butt;stroke-linejoin:round"
               y="182.26801"
               x="274.52023"
               xlink:href="#m29c9ea13d4" />
          </g>
        </g>
        <g
           style="stroke-linecap:butt;stroke-linejoin:round"
           id="text_4">
          <!-- 6 -->
          <g
             style="stroke-linecap:butt;stroke-linejoin:round"
             id="g81"
             transform="matrix(0.1,0,0,-0.1,271.33899,196.86644)">
            <defs
               id="defs77">
              <path
                 style="stroke-linecap:butt;stroke-linejoin:round"
                 inkscape:connector-curvature="0"
                 transform="scale(0.015625)"
                 d="m 2113,2584 q -425,0 -674,-291 -248,-290 -248,-796 0,-503 248,-796 249,-292 674,-292 425,0 673,292 248,293 248,796 0,506 -248,796 -248,291 -673,291 z m 1253,1979 v -575 q -238,112 -480,171 -242,60 -480,60 -625,0 -955,-422 -329,-422 -376,-1275 184,272 462,417 279,145 613,145 703,0 1111,-427 408,-426 408,-1160 0,-719 -425,-1154 -425,-434 -1131,-434 -810,0 -1238,620 -428,621 -428,1799 0,1106 525,1764 525,658 1409,658 238,0 480,-47 242,-47 505,-140 z"
                 id="DejaVuSans-36" />
            </defs>
            <use
               height="100%"
               width="100%"
               y="0"
               x="0"
               style="stroke-linecap:butt;stroke-linejoin:round"
               id="use79"
               xlink:href="#DejaVuSans-36" />
          </g>
        </g>
      </g>
      <g
         style="stroke-linecap:butt;stroke-linejoin:round"
         id="xtick_5">
        <g
           style="stroke-linecap:butt;stroke-linejoin:round"
           id="line2d_9">
          <path
             inkscape:connector-curvature="0"
             id="path85"
             style="fill:none;stroke:#b0b0b0;stroke-width:0.80000001;stroke-linecap:square;stroke-linejoin:round"
             clip-path="url(#p79da4c9ff7)"
             d="M 341.80062,182.268 V 26.352" />
        </g>
        <g
           style="stroke-linecap:butt;stroke-linejoin:round"
           id="line2d_10">
          <g
             style="stroke-linecap:butt;stroke-linejoin:round"
             id="g90">
            <use
               height="100%"
               width="100%"
               id="use88"
               style="stroke:#000000;stroke-width:0.80000001;stroke-linecap:butt;stroke-linejoin:round"
               y="182.26801"
               x="341.80063"
               xlink:href="#m29c9ea13d4" />
          </g>
        </g>
        <g
           style="stroke-linecap:butt;stroke-linejoin:round"
           id="text_5">
          <!-- 8 -->
          <g
             style="stroke-linecap:butt;stroke-linejoin:round"
             id="g98"
             transform="matrix(0.1,0,0,-0.1,338.61937,196.86644)">
            <defs
               id="defs94">
              <path
                 style="stroke-linecap:butt;stroke-linejoin:round"
                 inkscape:connector-curvature="0"
                 transform="scale(0.015625)"
                 d="m 2034,2216 q -450,0 -708,-241 -257,-241 -257,-662 0,-422 257,-663 258,-241 708,-241 450,0 709,242 260,243 260,662 0,421 -258,662 -257,241 -711,241 z m -631,268 q -406,100 -633,378 -226,279 -226,679 0,559 398,884 399,325 1092,325 697,0 1094,-325 397,-325 397,-884 0,-400 -227,-679 -226,-278 -629,-378 456,-106 710,-416 255,-309 255,-755 Q 3634,634 3220,271 2806,-91 2034,-91 1263,-91 848,271 434,634 434,1313 q 0,446 256,755 257,310 713,416 z m -231,997 q 0,-362 226,-565 227,-203 636,-203 407,0 636,203 230,203 230,565 0,363 -230,566 -229,203 -636,203 -409,0 -636,-203 -226,-203 -226,-566 z"
                 id="DejaVuSans-38" />
            </defs>
            <use
               height="100%"
               width="100%"
               y="0"
               x="0"
               style="stroke-linecap:butt;stroke-linejoin:round"
               id="use96"
               xlink:href="#DejaVuSans-38" />
          </g>
        </g>
      </g>
      <g id="text_6"><text x="191.870" y="210.545" font-family="DejaVu Sans,sans-serif" font-size="10.0" text-anchor="middle">Frequenz [kHz]</text></g>
    </g>
    <g
       style="stroke-linecap:butt;stroke-linejoin:round"
       id="matplotlib.axis_2">
      <g
         style="stroke-linecap:butt;stroke-linejoin:round"
         id="ytick_1">
        <g
           style="stroke-linecap:butt;stroke-linejoin:round"
           id="line2d_11">
          <path
             inkscape:connector-curvature="0"
             id="path152"
             style="fill:none;stroke:#b0b0b0;stroke-width:0.80000001;stroke-linecap:square;stroke-linejoin:round"
             clip-path="url(#p79da4c9ff7)"
             d="M 56.7,175.18091 H 408.24" />
        </g>
        <g
           style="stroke-linecap:butt;stroke-linejoin:round"
           id="line2d_12">
          <defs
             id="defs156">
            <path
               inkscape:connector-curvature="0"
               style="stroke:#000000;stroke-width:0.80000001;stroke-linecap:butt;stroke-linejoin:round"
               d="M 0,0 H -3.5"
               id="mdb75450853" />
          </defs>
          <g
             style="stroke-linecap:butt;stroke-linejoin:round"
             id="g160">
            <use
               height="100%"
               width="100%"
               id="use158"
               style="stroke:#000000;stroke-width:0.80000001;stroke-linecap:butt;stroke-linejoin:round"
               y="175.18091"
               x="56.700001"
               xlink:href="#mdb75450853" />
          </g>
        </g>
        <g
           style="stroke-linecap:butt;stroke-linejoin:round"
           id="text_7">
          <!-- 0.0 -->
          <g
             style="stroke-linecap:butt;stroke-linejoin:round"
             id="g172"
             transform="matrix(0.1,0,0,-0.1,33.796875,178.98013)">
            <defs
               id="defs164">
              <path
                 style="stroke-linecap:butt;stroke-linejoin:round"
                 inkscape:connector-curvature="0"
                 transform="scale(0.015625)"
                 d="m 684,794 h 660 V 0 H 684 Z"
                 id="DejaVuSans-2e" />
            </defs>
            <use
               height="100%"
               width="100%"
               y="0"
               x="0"
               style="stroke-linecap:butt;stroke-linejoin:round"
               id="use166"
               xlink:href="#DejaVuSans-30" />
            <use
               height="100%"
               width="100%"
               y="0"
               style="stroke-linecap:butt;stroke-linejoin:round"
               id="use168"
               x="63.623047"
               xlink:href="#DejaVuSans-2e" />
            <use
               height="100%"
               width="100%"
               y="0"
               style="stroke-linecap:butt;stroke-linejoin:round"
               id="use170"
               x="95.410156"
               xlink:href="#DejaVuSans-30" />
          </g>
        </g>
      </g>
      <g
         style="stroke-linecap:butt;stroke-linejoin:round"
         id="ytick_2">
        <g
           style="stroke-linecap:butt;stroke-linejoin:round"
           id="line2d_13">
          <path
             inkscape:connector-curvature="0"
             id="path176"
             style="fill:none;stroke:#b0b0b0;stroke-width:0.80000001;stroke-linecap:square;stroke-linejoin:round"
             clip-path="url(#p79da4c9ff7)"
             d="M 56.7,145.28833 H 408.24" />
        </g>
        <g
           style="stroke-linecap:butt;stroke-linejoin:round"
           id="line2d_14">
          <g
             style="stroke-linecap:butt;stroke-linejoin:round"
             id="g181">
            <use
               height="100%"
               width="100%"
               id="use179"
               style="stroke:#000000;stroke-width:0.80000001;stroke-linecap:butt;stroke-linejoin:round"
               y="145.28833"
               x="56.700001"
               xlink:href="#mdb75450853" />
          </g>
        </g>
        <g
           style="stroke-linecap:butt;stroke-linejoin:round"
           id="text_8">
          <!-- 0.5 -->
          <g
             style="stroke-linecap:butt;stroke-linejoin:round"
             id="g193"
             transform="matrix(0.1,0,0,-0.1,33.796875,149.08755)">
            <defs
               id="defs185">
              <path
                 style="stroke-linecap:butt;stroke-linejoin:round"
                 inkscape:connector-curvature="0"
                 transform="scale(0.015625)"
                 d="M 691,4666 H 3169 V 4134 H 1269 V 2991 q 137,47 274,70 138,23 276,23 781,0 1237,-428 457,-428 457,-1159 Q 3513,744 3044,326 2575,-91 1722,-91 1428,-91 1123,-41 819,9 494,109 v 635 q 281,-153 581,-228 300,-75 634,-75 541,0 856,284 316,284 316,772 0,487 -316,771 -315,285 -856,285 -253,0 -505,-56 -251,-56 -513,-175 z"
                 id="DejaVuSans-35" />
            </defs>
            <use
               height="100%"
               width="100%"
               y="0"
               x="0"
               style="stroke-linecap:butt;stroke-linejoin:round"
               id="use187"
               xlink:href="#DejaVuSans-30" />
            <use
               height="100%"
               width="100%"
               y="0"
               style="stroke-linecap:butt;stroke-linejoin:round"
               id="use189"
               x="63.623047"
               xlink:href="#DejaVuSans-2e" />
            <use
               height="100%"
               width="100%"
               y="0"
               style="stroke-linecap:butt;stroke-linejoin:round"
               id="use191"
               x="95.410156"
               xlink:href="#DejaVuSans-35" />
          </g>
        </g>
      </g>
      <g
         style="stroke-linecap:butt;stroke-linejoin:round"
         id="ytick_3">
        <g
           style="stroke-linecap:butt;stroke-linejoin:round"
           id="line2d_15">
          <path
             inkscape:connector-curvature="0"
             id="path197"
             style="fill:none;stroke:#b0b0b0;stroke-width:0.80000001;stroke-linecap:square;stroke-linejoin:round"
             clip-path="url(#p79da4c9ff7)"
             d="M 56.7,115.39575 H 408.24" />
        </g>
        <g
           style="stroke-linecap:butt;stroke-linejoin:round"
           id="line2d_16">
          <g
             style="stroke-linecap:butt;stroke-linejoin:round"
             id="g202">
            <use
               height="100%"
               width="100%"
               id="use200"
               style="stroke:#000000;stroke-width:0.80000001;stroke-linecap:butt;stroke-linejoin:round"
               y="115.39575"
               x="56.700001"
               xlink:href="#mdb75450853" />
          </g>
        </g>
        <g
           style="stroke-linecap:butt;stroke-linejoin:round"
           id="text_9">
          <!-- 1.0 -->
          <g
             style="stroke-linecap:butt;stroke-linejoin:round"
             id="g214"
             transform="matrix(0.1,0,0,-0.1,33.796875,119.19497)">
            <defs
               id="defs206">
              <path
                 style="stroke-linecap:butt;stroke-linejoin:round"
                 inkscape:connector-curvature="0"
                 transform="scale(0.015625)"
                 d="M 794,531 H 1825 V 4091 L 703,3866 v 575 l 1116,225 h 631 V 531 H 3481 V 0 H 794 Z"
                 id="DejaVuSans-31" />
            </defs>
            <use
               height="100%"
               width="100%"
               y="0"
               x="0"
               style="stroke-linecap:butt;stroke-linejoin:round"
               id="use208"
               xlink:href="#DejaVuSans-31" />
            <use
               height="100%"
               width="100%"
               y="0"
               style="stroke-linecap:butt;stroke-linejoin:round"
               id="use210"
               x="63.623047"
               xlink:href="#DejaVuSans-2e" />
            <use
               height="100%"
               width="100%"
               y="0"
               style="stroke-linecap:butt;stroke-linejoin:round"
               id="use212"
               x="95.410156"
               xlink:href="#DejaVuSans-30" />
          </g>
        </g>
      </g>
      <g
         style="stroke-linecap:butt;stroke-linejoin:round"
         id="ytick_4">
        <g
           style="stroke-linecap:butt;stroke-linejoin:round"
           id="line2d_17">
          <path
             inkscape:connector-curvature="0"
             id="path218"
             style="fill:none;stroke:#b0b0b0;stroke-width:0.80000001;stroke-linecap:square;stroke-linejoin:round"
             clip-path="url(#p79da4c9ff7)"
             d="M 56.7,85.503171 H 408.24" />
        </g>
        <g
           style="stroke-linecap:butt;stroke-linejoin:round"
           id="line2d_18">
          <g
             style="stroke-linecap:butt;stroke-linejoin:round"
             id="g223">
            <use
               height="100%"
               width="100%"
               id="use221"
               style="stroke:#000000;stroke-width:0.80000001;stroke-linecap:butt;stroke-linejoin:round"
               y="85.503174"
               x="56.700001"
               xlink:href="#mdb75450853" />
          </g>
        </g>
        <g
           style="stroke-linecap:butt;stroke-linejoin:round"
           id="text_10">
          <!-- 1.5 -->
          <g
             style="stroke-linecap:butt;stroke-linejoin:round"
             id="g232"
             transform="matrix(0.1,0,0,-0.1,33.796875,89.30239)">
            <use
               height="100%"
               width="100%"
               y="0"
               x="0"
               style="stroke-linecap:butt;stroke-linejoin:round"
               id="use226"
               xlink:href="#DejaVuSans-31" />
            <use
               height="100%"
               width="100%"
               y="0"
               style="stroke-linecap:butt;stroke-linejoin:round"
               id="use228"
               x="63.623047"
               xlink:href="#DejaVuSans-2e" />
            <use
               height="100%"
               width="100%"
               y="0"
               style="stroke-linecap:butt;stroke-linejoin:round"
               id="use230"
               x="95.410156"
               xlink:href="#DejaVuSans-35" />
          </g>
        </g>
      </g>
      <g
         style="stroke-linecap:butt;stroke-linejoin:round"
         id="ytick_5">
        <g
           style="stroke-linecap:butt;stroke-linejoin:round"
           id="line2d_19">
          <path
             inkscape:connector-curvature="0"
             id="path236"
             style="fill:none;stroke:#b0b0b0;stroke-width:0.80000001;stroke-linecap:square;stroke-linejoin:round"
             clip-path="url(#p79da4c9ff7)"
             d="M 56.7,55.610592 H 408.24" />
        </g>
        <g
           style="stroke-linecap:butt;stroke-linejoin:round"
           id="line2d_20">
          <g
             style="stroke-linecap:butt;stroke-linejoin:round"
             id="g241">
            <use
               height="100%"
               width="100%"
               id="use239"
               style="stroke:#000000;stroke-width:0.80000001;stroke-linecap:butt;stroke-linejoin:round"
               y="55.610592"
               x="56.700001"
               xlink:href="#mdb75450853" />
          </g>
        </g>
        <g
           style="stroke-linecap:butt;stroke-linejoin:round"
           id="text_11">
          <!-- 2.0 -->
          <g
             style="stroke-linecap:butt;stroke-linejoin:round"
             id="g250"
             transform="matrix(0.1,0,0,-0.1,33.796875,59.409811)">
            <use
               height="100%"
               width="100%"
               y="0"
               x="0"
               style="stroke-linecap:butt;stroke-linejoin:round"
               id="use244"
               xlink:href="#DejaVuSans-32" />
            <use
               height="100%"
               width="100%"
               y="0"
               style="stroke-linecap:butt;stroke-linejoin:round"
               id="use246"
               x="63.623047"
               xlink:href="#DejaVuSans-2e" />
            <use
               height="100%"
               width="100%"
               y="0"
               style="stroke-linecap:butt;stroke-linejoin:round"
               id="use248"
               x="95.410156"
               xlink:href="#DejaVuSans-30" />
          </g>
        </g>
      </g>
      <g id="text_12"><text x="27.717" y="176.124" font-family="DejaVu Sans,sans-serif" font-size="6.0" text-anchor="middle">Frequenzgang des Filters</text></g>
    </g>
    <g
       style="stroke-linecap:butt;stroke-linejoin:round"
       id="line2d_21">
      <path
         inkscape:connector-curvature="0"
         id="path324"
         style="fill:none;stroke:#1f77b4;stroke-width:1.5;stroke-linecap:square;stroke-linejoin:round"
         clip-path="url(#p79da4c9ff7)"
         d="m 72.679091,175.18091 4.501152,-7.25642 4.501153,-20.23445 4.501152,-28.9552 4.501152,-31.684911 4.501153,-28.009918 4.501152,-18.970161 4.501155,-6.630759 4.50115,6.265049 4.50115,17.212448 4.50115,24.219148 4.50116,26.569924 4.50115,24.49686 4.50115,19.40844 4.50115,12.98821 4.50116,7.08371 4.50115,2.82178 4.50115,0.64373 4.50115,0.0325 4.50116,1e-5 h 4.50115 l 4.50115,1e-5 h 4.50115 4.50115 4.50116 4.50115 4.50115 4.50115 4.50116 4.50115 4.50115 4.50115 4.50116 4.50115 4.50115 4.50115 4.50116 4.50115 4.50115 4.50115 4.50116 4.50115 4.50115 4.50115 4.50116 4.50115 4.50115 4.50115 4.50115 4.50116 4.50115 4.50115 4.50115 4.50116 4.50115 4.50115 4.50115 4.50116 4.50115 4.50115 4.50115 4.50116 4.50115 4.50115 4.50115 4.50115 4.50116 4.50115 4.50115 4.50115 4.50116 4.50115" />
    </g>
    <g
       style="stroke-linecap:butt;stroke-linejoin:round"
       id="patch_3">
      <path
         inkscape:connector-curvature="0"
         id="path327"
         style="fill:none;stroke:#000000;stroke-width:0.80000001;stroke-linecap:square;stroke-linejoin:miter"
         d="M 56.7,182.268 V 26.352" />
    </g>
    <g
       style="stroke-linecap:butt;stroke-linejoin:round"
       id="patch_4">
      <path
         inkscape:connector-curvature="0"
         id="path330"
         style="fill:none;stroke:#000000;stroke-width:0.80000001;stroke-linecap:square;stroke-linejoin:miter"
         d="M 408.24,182.268 V 26.352" />
    </g>
    <g
       style="stroke-linecap:butt;stroke-linejoin:round"
       id="patch_5">
      <path
         inkscape:connector-curvature="0"
         id="path333"
         style="fill:none;stroke:#000000;stroke-width:0.80000001;stroke-linecap:square;stroke-linejoin:miter"
         d="M 56.7,182.268 H 408.24" />
    </g>
    <g
       style="stroke-linecap:butt;stroke-linejoin:round"
       id="patch_6">
      <path
         inkscape:connector-curvature="0"
         id="path336"
         style="fill:none;stroke:#000000;stroke-width:0.80000001;stroke-linecap:square;stroke-linejoin:miter"
         d="M 56.7,26.352 H 408.24" />
    </g>
  </g>
  <defs
     id="defs344">
    <clipPath
       id="p79da4c9ff7"
       style="stroke-linecap:butt;stroke-linejoin:round">
      <rect
         x="56.700001"
         y="26.351999"
         width="351.54001"
         height="155.916"
         id="rect341"
         style="stroke-linecap:butt;stroke-linejoin:round" />
    </clipPath>
  </defs>
</svg>
