<?xml version="1.0" encoding="UTF-8" standalone="no"?>
<svg
   width="432.78281pt"
   height="195.13875pt"
   viewBox="0 0 432.78281 195.13875"
   version="1.1"
   id="svg80"
   sodipodi:docname="2d_array_eigenvalues.svg"
   inkscape:version="1.4 (86a8ad7, 2024-10-11)"
   xmlns:inkscape="http://www.inkscape.org/namespaces/inkscape"
   xmlns:sodipodi="http://sodipodi.sourceforge.net/DTD/sodipodi-0.dtd"
   xmlns:xlink="http://www.w3.org/1999/xlink"
   xmlns="http://www.w3.org/2000/svg"
   xmlns:svg="http://www.w3.org/2000/svg"
   xmlns:rdf="http://www.w3.org/1999/02/22-rdf-syntax-ns#"
   xmlns:cc="http://creativecommons.org/ns#"
   xmlns:dc="http://purl.org/dc/elements/1.1/">
  <sodipodi:namedview
     id="namedview80"
     pagecolor="#ffffff"
     bordercolor="#000000"
     borderopacity="0.25"
     inkscape:showpageshadow="2"
     inkscape:pageopacity="0.0"
     inkscape:pagecheckerboard="0"
     inkscape:deskcolor="#d1d1d1"
     inkscape:document-units="pt"
     inkscape:zoom="1.4035213"
     inkscape:cx="240.11036"
     inkscape:cy="193.08578"
     inkscape:window-width="1920"
     inkscape:window-height="992"
     inkscape:window-x="-8"
     inkscape:window-y="-8"
     inkscape:window-maximized="1"
     inkscape:current-layer="svg80" />
  <metadata
     id="metadata1">
    <rdf:RDF>
      <cc:Work>
        <dc:type
           rdf:resource="http://purl.org/dc/dcmitype/StillImage" />
        <dc:date>2025-06-20T02:09:33.187766</dc:date>
        <dc:format>image/svg+xml</dc:format>
        <dc:creator>
          <cc:Agent>
            <dc:title>Matplotlib v3.10.3, https://matplotlib.org/</dc:title>
          </cc:Agent>
        </dc:creator>
      </cc:Work>
    </rdf:RDF>
  </metadata>
  <defs
     id="defs1">
    <style
       type="text/css"
       id="style1">*{stroke-linejoin: round; stroke-linecap: butt}</style>
  </defs>
  <g
     id="axes_1"
     transform="translate(-7.1999995,-6.8)">
    <g
       id="patch_2">
      <path
         d="M 48.982813,173.52 H 439.58281 V 7.2 H 48.982813 Z"
         style="fill:#ffffff"
         id="path2" />
    </g>
    <g
       id="matplotlib.axis_1">
      <g
         id="xtick_1">
        <g
           id="line2d_1">
          <defs
             id="defs2">
            <path
               id="mf175370788"
               d="M 0,0 V 3.5"
               style="stroke:#000000;stroke-width:0.8" />
          </defs>
          <g
             id="g2">
            <use
               xlink:href="#mf175370788"
               x="66.737358"
               y="173.52"
               style="stroke:#000000;stroke-width:0.8"
               id="use2" />
          </g>
        </g>
        <g
           id="text_1">
          <!-- 0 -->
          <g
             transform="matrix(0.1,0,0,-0.1,63.556108,188.11844)"
             id="g3">
            <defs
               id="defs3">
              <path
                 id="DejaVuSans-30"
                 d="m 2034,4250 q -487,0 -733,-480 -245,-479 -245,-1442 0,-959 245,-1439 246,-480 733,-480 491,0 736,480 246,480 246,1439 0,963 -246,1442 -245,480 -736,480 z m 0,500 q 785,0 1199,-621 414,-620 414,-1801 0,-1178 -414,-1799 -414,-620 -1199,-620 -784,0 -1198,620 -414,621 -414,1799 0,1181 414,1801 414,621 1198,621 z"
                 transform="scale(0.015625)" />
            </defs>
            <use
               xlink:href="#DejaVuSans-30"
               id="use3" />
          </g>
        </g>
      </g>
      <g
         id="xtick_2">
        <g
           id="line2d_2">
          <g
             id="g4">
            <use
               xlink:href="#mf175370788"
               x="117.46463"
               y="173.52"
               style="stroke:#000000;stroke-width:0.8"
               id="use4" />
          </g>
        </g>
        <g
           id="text_2">
          <!-- 2 -->
          <g
             transform="matrix(0.1,0,0,-0.1,114.28338,188.11844)"
             id="g5">
            <defs
               id="defs4">
              <path
                 id="DejaVuSans-32"
                 d="M 1228,531 H 3431 V 0 H 469 v 531 q 359,372 979,998 621,627 780,809 303,340 423,576 121,236 121,464 0,372 -261,606 -261,235 -680,235 -297,0 -627,-103 -329,-103 -704,-313 v 638 q 381,153 712,231 332,78 607,78 725,0 1156,-363 431,-362 431,-968 0,-288 -108,-546 -107,-257 -392,-607 -78,-91 -497,-524 Q 1991,1309 1228,531 Z"
                 transform="scale(0.015625)" />
            </defs>
            <use
               xlink:href="#DejaVuSans-32"
               id="use5" />
          </g>
        </g>
      </g>
      <g
         id="xtick_3">
        <g
           id="line2d_3">
          <g
             id="g6">
            <use
               xlink:href="#mf175370788"
               x="168.19191"
               y="173.52"
               style="stroke:#000000;stroke-width:0.8"
               id="use6" />
          </g>
        </g>
        <g
           id="text_3">
          <!-- 4 -->
          <g
             transform="matrix(0.1,0,0,-0.1,165.01065,188.11844)"
             id="g7">
            <defs
               id="defs6">
              <path
                 id="DejaVuSans-34"
                 d="M 2419,4116 825,1625 h 1594 z m -166,550 h 794 V 1625 h 666 V 1100 H 3047 V 0 H 2419 V 1100 H 313 v 609 z"
                 transform="scale(0.015625)" />
            </defs>
            <use
               xlink:href="#DejaVuSans-34"
               id="use7" />
          </g>
        </g>
      </g>
      <g
         id="xtick_4">
        <g
           id="line2d_4">
          <g
             id="g8">
            <use
               xlink:href="#mf175370788"
               x="218.91917"
               y="173.52"
               style="stroke:#000000;stroke-width:0.8"
               id="use8" />
          </g>
        </g>
        <g
           id="text_4">
          <!-- 6 -->
          <g
             transform="matrix(0.1,0,0,-0.1,215.73793,188.11844)"
             id="g9">
            <defs
               id="defs8">
              <path
                 id="DejaVuSans-36"
                 d="m 2113,2584 q -425,0 -674,-291 -248,-290 -248,-796 0,-503 248,-796 249,-292 674,-292 425,0 673,292 248,293 248,796 0,506 -248,796 -248,291 -673,291 z m 1253,1979 v -575 q -238,112 -480,171 -242,60 -480,60 -625,0 -955,-422 -329,-422 -376,-1275 184,272 462,417 279,145 613,145 703,0 1111,-427 408,-426 408,-1160 0,-719 -425,-1154 -425,-434 -1131,-434 -810,0 -1238,620 -428,621 -428,1799 0,1106 525,1764 525,658 1409,658 238,0 480,-47 242,-47 505,-140 z"
                 transform="scale(0.015625)" />
            </defs>
            <use
               xlink:href="#DejaVuSans-36"
               id="use9" />
          </g>
        </g>
      </g>
      <g
         id="xtick_5">
        <g
           id="line2d_5">
          <g
             id="g10">
            <use
               xlink:href="#mf175370788"
               x="269.64645"
               y="173.52"
               style="stroke:#000000;stroke-width:0.8"
               id="use10" />
          </g>
        </g>
        <g
           id="text_5">
          <!-- 8 -->
          <g
             transform="matrix(0.1,0,0,-0.1,266.4652,188.11844)"
             id="g11">
            <defs
               id="defs10">
              <path
                 id="DejaVuSans-38"
                 d="m 2034,2216 q -450,0 -708,-241 -257,-241 -257,-662 0,-422 257,-663 258,-241 708,-241 450,0 709,242 260,243 260,662 0,421 -258,662 -257,241 -711,241 z m -631,268 q -406,100 -633,378 -226,279 -226,679 0,559 398,884 399,325 1092,325 697,0 1094,-325 397,-325 397,-884 0,-400 -227,-679 -226,-278 -629,-378 456,-106 710,-416 255,-309 255,-755 Q 3634,634 3220,271 2806,-91 2034,-91 1263,-91 848,271 434,634 434,1313 q 0,446 256,755 257,310 713,416 z m -231,997 q 0,-362 226,-565 227,-203 636,-203 407,0 636,203 230,203 230,565 0,363 -230,566 -229,203 -636,203 -409,0 -636,-203 -226,-203 -226,-566 z"
                 transform="scale(0.015625)" />
            </defs>
            <use
               xlink:href="#DejaVuSans-38"
               id="use11" />
          </g>
        </g>
      </g>
      <g
         id="xtick_6">
        <g
           id="line2d_6">
          <g
             id="g12">
            <use
               xlink:href="#mf175370788"
               x="320.37372"
               y="173.52"
               style="stroke:#000000;stroke-width:0.8"
               id="use12" />
          </g>
        </g>
        <g
           id="text_6">
          <!-- 10 -->
          <g
             transform="matrix(0.1,0,0,-0.1,314.01122,188.11844)"
             id="g14">
            <defs
               id="defs12">
              <path
                 id="DejaVuSans-31"
                 d="M 794,531 H 1825 V 4091 L 703,3866 v 575 l 1116,225 h 631 V 531 H 3481 V 0 H 794 Z"
                 transform="scale(0.015625)" />
            </defs>
            <use
               xlink:href="#DejaVuSans-31"
               id="use13" />
            <use
               xlink:href="#DejaVuSans-30"
               transform="translate(63.623047)"
               id="use14" />
          </g>
        </g>
      </g>
      <g
         id="xtick_7">
        <g
           id="line2d_7">
          <g
             id="g15">
            <use
               xlink:href="#mf175370788"
               x="371.10098"
               y="173.52"
               style="stroke:#000000;stroke-width:0.8"
               id="use15" />
          </g>
        </g>
        <g
           id="text_7">
          <!-- 12 -->
          <g
             transform="matrix(0.1,0,0,-0.1,364.73849,188.11844)"
             id="g17">
            <use
               xlink:href="#DejaVuSans-31"
               id="use16" />
            <use
               xlink:href="#DejaVuSans-32"
               transform="translate(63.623047)"
               id="use17" />
          </g>
        </g>
      </g>
      <g
         id="xtick_8">
        <g
           id="line2d_8">
          <g
             id="g18">
            <use
               xlink:href="#mf175370788"
               x="421.82828"
               y="173.52"
               style="stroke:#000000;stroke-width:0.8"
               id="use18" />
          </g>
        </g>
        <g
           id="text_8">
          <!-- 14 -->
          <g
             transform="matrix(0.1,0,0,-0.1,415.46577,188.11844)"
             id="g20">
            <use
               xlink:href="#DejaVuSans-31"
               id="use19" />
            <use
               xlink:href="#DejaVuSans-34"
               transform="translate(63.623047)"
               id="use20" />
          </g>
        </g>
      </g>
      <g
         id="text_9">
        <!-- Index -->
        <g
           transform="matrix(0.1,0,0,-0.1,230.51641,201.79656)"
           id="g25">
          <defs
             id="defs20">
            <path
               id="DejaVuSans-49"
               d="m 628,4666 h 631 V 0 H 628 Z"
               transform="scale(0.015625)" />
            <path
               id="DejaVuSans-6e"
               d="M 3513,2113 V 0 h -575 v 2094 q 0,497 -194,743 -194,247 -581,247 -466,0 -735,-297 -269,-296 -269,-809 V 0 H 581 v 3500 h 578 v -544 q 207,316 486,472 280,156 646,156 603,0 912,-373 310,-373 310,-1098 z"
               transform="scale(0.015625)" />
            <path
               id="DejaVuSans-64"
               d="m 2906,2969 v 1894 h 575 V 0 H 2906 V 525 Q 2725,213 2448,61 2172,-91 1784,-91 1150,-91 751,415 353,922 353,1747 q 0,825 398,1331 399,506 1033,506 388,0 664,-152 277,-151 458,-463 z M 947,1747 q 0,-634 261,-995 261,-361 717,-361 456,0 718,361 263,361 263,995 0,634 -263,995 -262,361 -718,361 -456,0 -717,-361 -261,-361 -261,-995 z"
               transform="scale(0.015625)" />
            <path
               id="DejaVuSans-65"
               d="M 3597,1894 V 1613 H 953 q 38,-594 358,-905 320,-311 892,-311 331,0 642,81 311,81 618,244 V 178 Q 3153,47 2828,-22 2503,-91 2169,-91 1331,-91 842,396 353,884 353,1716 q 0,859 464,1363 464,505 1252,505 706,0 1117,-455 411,-454 411,-1235 z m -575,169 q -6,471 -264,752 -258,282 -683,282 -481,0 -770,-272 -289,-272 -333,-766 z"
               transform="scale(0.015625)" />
            <path
               id="DejaVuSans-78"
               d="M 3513,3500 2247,1797 3578,0 H 2900 L 1881,1375 863,0 H 184 L 1544,1831 300,3500 h 678 l 928,-1247 928,1247 z"
               transform="scale(0.015625)" />
          </defs>
          <use
             xlink:href="#DejaVuSans-49"
             id="use21" />
          <use
             xlink:href="#DejaVuSans-6e"
             transform="translate(29.492188)"
             id="use22" />
          <use
             xlink:href="#DejaVuSans-64"
             transform="translate(92.871094)"
             id="use23" />
          <use
             xlink:href="#DejaVuSans-65"
             transform="translate(156.34766)"
             id="use24" />
          <use
             xlink:href="#DejaVuSans-78"
             transform="translate(216.12109)"
             id="use25" />
        </g>
      </g>
    </g>
    <g
       id="matplotlib.axis_2">
      <g
         id="ytick_1">
        <g
           id="line2d_9">
          <defs
             id="defs25">
            <path
               id="ma2856e7f18"
               d="M 0,0 H -3.5"
               style="stroke:#000000;stroke-width:0.8" />
          </defs>
          <g
             id="g26">
            <use
               xlink:href="#ma2856e7f18"
               x="48.982815"
               y="160.67371"
               style="stroke:#000000;stroke-width:0.8"
               id="use26" />
          </g>
        </g>
        <g
           id="text_10">
          <!-- −50 -->
          <g
             transform="matrix(0.1,0,0,-0.1,20.878125,164.47292)"
             id="g29">
            <defs
               id="defs26">
              <path
                 id="DejaVuSans-2212"
                 d="M 678,2272 H 4684 V 1741 H 678 Z"
                 transform="scale(0.015625)" />
              <path
                 id="DejaVuSans-35"
                 d="M 691,4666 H 3169 V 4134 H 1269 V 2991 q 137,47 274,70 138,23 276,23 781,0 1237,-428 457,-428 457,-1159 Q 3513,744 3044,326 2575,-91 1722,-91 1428,-91 1123,-41 819,9 494,109 v 635 q 281,-153 581,-228 300,-75 634,-75 541,0 856,284 316,284 316,772 0,487 -316,771 -315,285 -856,285 -253,0 -505,-56 -251,-56 -513,-175 z"
                 transform="scale(0.015625)" />
            </defs>
            <use
               xlink:href="#DejaVuSans-2212"
               id="use27" />
            <use
               xlink:href="#DejaVuSans-35"
               transform="translate(83.789062)"
               id="use28" />
            <use
               xlink:href="#DejaVuSans-30"
               transform="translate(147.41211)"
               id="use29" />
          </g>
        </g>
      </g>
      <g
         id="ytick_2">
        <g
           id="line2d_10">
          <g
             id="g30">
            <use
               xlink:href="#ma2856e7f18"
               x="48.982815"
               y="131.49097"
               style="stroke:#000000;stroke-width:0.8"
               id="use30" />
          </g>
        </g>
        <g
           id="text_11">
          <!-- −40 -->
          <g
             transform="matrix(0.1,0,0,-0.1,20.878125,135.29018)"
             id="g33">
            <use
               xlink:href="#DejaVuSans-2212"
               id="use31" />
            <use
               xlink:href="#DejaVuSans-34"
               transform="translate(83.789062)"
               id="use32" />
            <use
               xlink:href="#DejaVuSans-30"
               transform="translate(147.41211)"
               id="use33" />
          </g>
        </g>
      </g>
      <g
         id="ytick_3">
        <g
           id="line2d_11">
          <g
             id="g34">
            <use
               xlink:href="#ma2856e7f18"
               x="48.982815"
               y="102.30822"
               style="stroke:#000000;stroke-width:0.8"
               id="use34" />
          </g>
        </g>
        <g
           id="text_12">
          <!-- −30 -->
          <g
             transform="matrix(0.1,0,0,-0.1,20.878125,106.10744)"
             id="g37">
            <defs
               id="defs34">
              <path
                 id="DejaVuSans-33"
                 d="m 2597,2516 q 453,-97 707,-404 255,-306 255,-756 0,-690 -475,-1069 -475,-378 -1350,-378 -293,0 -604,58 -311,58 -642,174 v 609 q 262,-153 574,-231 313,-78 654,-78 593,0 904,234 311,234 311,681 0,413 -289,645 -289,233 -804,233 h -544 v 519 h 569 q 465,0 712,186 247,186 247,536 0,359 -255,551 -254,193 -729,193 -260,0 -557,-57 -297,-56 -653,-174 v 562 q 360,100 674,150 314,50 592,50 719,0 1137,-327 419,-326 419,-882 0,-388 -222,-655 -222,-267 -631,-370 z"
                 transform="scale(0.015625)" />
            </defs>
            <use
               xlink:href="#DejaVuSans-2212"
               id="use35" />
            <use
               xlink:href="#DejaVuSans-33"
               transform="translate(83.789062)"
               id="use36" />
            <use
               xlink:href="#DejaVuSans-30"
               transform="translate(147.41211)"
               id="use37" />
          </g>
        </g>
      </g>
      <g
         id="ytick_4">
        <g
           id="line2d_12">
          <g
             id="g38">
            <use
               xlink:href="#ma2856e7f18"
               x="48.982815"
               y="73.125481"
               style="stroke:#000000;stroke-width:0.8"
               id="use38" />
          </g>
        </g>
        <g
           id="text_13">
          <!-- −20 -->
          <g
             transform="matrix(0.1,0,0,-0.1,20.878125,76.9247)"
             id="g41">
            <use
               xlink:href="#DejaVuSans-2212"
               id="use39" />
            <use
               xlink:href="#DejaVuSans-32"
               transform="translate(83.789062)"
               id="use40" />
            <use
               xlink:href="#DejaVuSans-30"
               transform="translate(147.41211)"
               id="use41" />
          </g>
        </g>
      </g>
      <g
         id="ytick_5">
        <g
           id="line2d_13">
          <g
             id="g42">
            <use
               xlink:href="#ma2856e7f18"
               x="48.982815"
               y="43.942741"
               style="stroke:#000000;stroke-width:0.8"
               id="use42" />
          </g>
        </g>
        <g
           id="text_14">
          <!-- −10 -->
          <g
             transform="matrix(0.1,0,0,-0.1,20.878125,47.741959)"
             id="g45">
            <use
               xlink:href="#DejaVuSans-2212"
               id="use43" />
            <use
               xlink:href="#DejaVuSans-31"
               transform="translate(83.789062)"
               id="use44" />
            <use
               xlink:href="#DejaVuSans-30"
               transform="translate(147.41211)"
               id="use45" />
          </g>
        </g>
      </g>
      <g
         id="ytick_6">
        <g
           id="line2d_14">
          <g
             id="g46">
            <use
               xlink:href="#ma2856e7f18"
               x="48.982815"
               y="14.76"
               style="stroke:#000000;stroke-width:0.8"
               id="use46" />
          </g>
        </g>
        <g
           id="text_15">
          <!-- 0 -->
          <g
             transform="matrix(0.1,0,0,-0.1,35.620312,18.559219)"
             id="g47">
            <use
               xlink:href="#DejaVuSans-30"
               id="use47" />
          </g>
        </g>
      </g>
      <g
         id="text_16">
        <!-- Eigenvalue [dB] -->
        <g
           transform="matrix(0,-0.1,-0.1,0,14.798437,130.08109)"
           id="g62">
          <defs
             id="defs47">
            <path
               id="DejaVuSans-45"
               d="M 628,4666 H 3578 V 4134 H 1259 V 2753 H 3481 V 2222 H 1259 V 531 H 3634 V 0 H 628 Z"
               transform="scale(0.015625)" />
            <path
               id="DejaVuSans-69"
               d="m 603,3500 h 575 V 0 H 603 Z m 0,1363 h 575 V 4134 H 603 Z"
               transform="scale(0.015625)" />
            <path
               id="DejaVuSans-67"
               d="m 2906,1791 q 0,625 -258,968 -257,344 -723,344 -462,0 -720,-344 -258,-343 -258,-968 0,-622 258,-966 258,-344 720,-344 466,0 723,344 258,344 258,966 z M 3481,434 q 0,-893 -397,-1329 -396,-436 -1215,-436 -303,0 -572,45 -269,45 -522,139 v 559 q 253,-137 500,-202 247,-66 503,-66 566,0 847,295 281,295 281,892 V 616 Q 2728,306 2450,153 2172,0 1784,0 1141,0 747,490 353,981 353,1791 q 0,812 394,1302 394,491 1037,491 388,0 666,-153 278,-153 456,-462 v 531 h 575 z"
               transform="scale(0.015625)" />
            <path
               id="DejaVuSans-76"
               d="M 191,3500 H 800 L 1894,563 2988,3500 h 609 L 2284,0 h -781 z"
               transform="scale(0.015625)" />
            <path
               id="DejaVuSans-61"
               d="m 2194,1759 q -697,0 -966,-159 -269,-159 -269,-544 0,-306 202,-486 202,-179 548,-179 479,0 768,339 289,339 289,901 v 128 z m 1147,238 V 0 H 2766 V 531 Q 2569,213 2275,61 1981,-91 1556,-91 q -537,0 -855,302 -317,302 -317,808 0,590 395,890 396,300 1180,300 h 807 v 57 q 0,397 -261,614 -261,217 -733,217 -300,0 -585,-72 -284,-72 -546,-216 v 532 q 315,122 612,182 297,61 578,61 760,0 1135,-394 375,-393 375,-1193 z"
               transform="scale(0.015625)" />
            <path
               id="DejaVuSans-6c"
               d="m 603,4863 h 575 V 0 H 603 Z"
               transform="scale(0.015625)" />
            <path
               id="DejaVuSans-75"
               d="m 544,1381 v 2119 h 575 V 1403 q 0,-497 193,-746 194,-248 582,-248 465,0 735,297 271,297 271,810 v 1984 h 575 V 0 H 2900 V 538 Q 2691,219 2414,64 2138,-91 1772,-91 1169,-91 856,284 544,659 544,1381 Z m 1447,2203 z"
               transform="scale(0.015625)" />
            <path
               id="DejaVuSans-20"
               transform="scale(0.015625)"
               d="" />
            <path
               id="DejaVuSans-5b"
               d="M 550,4863 H 1875 V 4416 H 1125 V -397 h 750 V -844 H 550 Z"
               transform="scale(0.015625)" />
            <path
               id="DejaVuSans-42"
               d="M 1259,2228 V 519 h 1013 q 509,0 754,211 246,211 246,645 0,438 -246,645 -245,208 -754,208 z m 0,1919 V 2741 h 935 q 462,0 688,173 227,174 227,530 0,353 -227,528 -226,175 -688,175 z m -631,519 h 1613 q 722,0 1112,-300 391,-300 391,-853 0,-429 -200,-682 -200,-253 -588,-315 466,-100 724,-418 258,-317 258,-792 0,-625 -425,-966 Q 3088,0 2303,0 H 628 Z"
               transform="scale(0.015625)" />
            <path
               id="DejaVuSans-5d"
               d="M 1947,4863 V -844 H 622 v 447 h 747 V 4416 H 622 v 447 z"
               transform="scale(0.015625)" />
          </defs>
          <use
             xlink:href="#DejaVuSans-45"
             id="use48" />
          <use
             xlink:href="#DejaVuSans-69"
             transform="translate(63.183594)"
             id="use49" />
          <use
             xlink:href="#DejaVuSans-67"
             transform="translate(90.966797)"
             id="use50" />
          <use
             xlink:href="#DejaVuSans-65"
             transform="translate(154.44336)"
             id="use51" />
          <use
             xlink:href="#DejaVuSans-6e"
             transform="translate(215.9668)"
             id="use52" />
          <use
             xlink:href="#DejaVuSans-76"
             transform="translate(279.3457)"
             id="use53" />
          <use
             xlink:href="#DejaVuSans-61"
             transform="translate(338.52539)"
             id="use54" />
          <use
             xlink:href="#DejaVuSans-6c"
             transform="translate(399.80469)"
             id="use55" />
          <use
             xlink:href="#DejaVuSans-75"
             transform="translate(427.58789)"
             id="use56" />
          <use
             xlink:href="#DejaVuSans-65"
             transform="translate(490.9668)"
             id="use57" />
          <use
             xlink:href="#DejaVuSans-20"
             transform="translate(552.49023)"
             id="use58" />
          <use
             xlink:href="#DejaVuSans-5b"
             transform="translate(584.27734)"
             id="use59" />
          <use
             xlink:href="#DejaVuSans-64"
             transform="translate(623.29102)"
             id="use60" />
          <use
             xlink:href="#DejaVuSans-42"
             transform="translate(686.76758)"
             id="use61" />
          <use
             xlink:href="#DejaVuSans-5d"
             transform="translate(755.37109)"
             id="use62" />
        </g>
      </g>
    </g>
    <g
       id="line2d_15">
      <path
         d="m 66.737358,14.76 25.363636,87.68598 25.363636,19.19681 25.36364,7.79801 25.36363,9.04847 25.36364,3.23411 25.36364,4.25184 25.36363,3.00008 25.36364,2.94803 25.36363,14.03667 25.36364,-2.01037 25.36364,-3.72039 25.36363,-6.15147 25.36364,3.08901 25.36364,-0.82093"
         clip-path="url(#pa2f4f797c7)"
         style="fill:none;stroke:#1f77b4;stroke-width:1.5;stroke-linecap:square"
         id="path62" />
      <defs
         id="defs62">
        <path
           id="m500209ebc1"
           d="M 0,1.5 C 0.397805,1.5 0.77937,1.341951 1.06066,1.06066 1.341951,0.77937 1.5,0.397805 1.5,0 1.5,-0.397805 1.341951,-0.77937 1.06066,-1.06066 0.77937,-1.341951 0.397805,-1.5 0,-1.5 c -0.397805,0 -0.77937,0.158049 -1.06066,0.43934 C -1.341951,-0.77937 -1.5,-0.397805 -1.5,0 c 0,0.397805 0.158049,0.77937 0.43934,1.06066 C -0.77937,1.341951 -0.397805,1.5 0,1.5 Z"
           style="stroke:#1f77b4" />
      </defs>
      <g
         clip-path="url(#pa2f4f797c7)"
         id="g77">
        <use
           xlink:href="#m500209ebc1"
           x="66.737358"
           y="14.76"
           style="fill:#1f77b4;stroke:#1f77b4"
           id="use63" />
        <use
           xlink:href="#m500209ebc1"
           x="92.10099"
           y="102.44598"
           style="fill:#1f77b4;stroke:#1f77b4"
           id="use64" />
        <use
           xlink:href="#m500209ebc1"
           x="117.46463"
           y="121.64279"
           style="fill:#1f77b4;stroke:#1f77b4"
           id="use65" />
        <use
           xlink:href="#m500209ebc1"
           x="142.82826"
           y="129.4408"
           style="fill:#1f77b4;stroke:#1f77b4"
           id="use66" />
        <use
           xlink:href="#m500209ebc1"
           x="168.19191"
           y="138.48927"
           style="fill:#1f77b4;stroke:#1f77b4"
           id="use67" />
        <use
           xlink:href="#m500209ebc1"
           x="193.55554"
           y="141.72339"
           style="fill:#1f77b4;stroke:#1f77b4"
           id="use68" />
        <use
           xlink:href="#m500209ebc1"
           x="218.91917"
           y="145.97522"
           style="fill:#1f77b4;stroke:#1f77b4"
           id="use69" />
        <use
           xlink:href="#m500209ebc1"
           x="244.28281"
           y="148.97531"
           style="fill:#1f77b4;stroke:#1f77b4"
           id="use70" />
        <use
           xlink:href="#m500209ebc1"
           x="269.64645"
           y="151.92332"
           style="fill:#1f77b4;stroke:#1f77b4"
           id="use71" />
        <use
           xlink:href="#m500209ebc1"
           x="295.01007"
           y="165.96001"
           style="fill:#1f77b4;stroke:#1f77b4"
           id="use72" />
        <use
           xlink:href="#m500209ebc1"
           x="320.37372"
           y="163.94963"
           style="fill:#1f77b4;stroke:#1f77b4"
           id="use73" />
        <use
           xlink:href="#m500209ebc1"
           x="345.73737"
           y="160.22925"
           style="fill:#1f77b4;stroke:#1f77b4"
           id="use74" />
        <use
           xlink:href="#m500209ebc1"
           x="371.10098"
           y="154.07777"
           style="fill:#1f77b4;stroke:#1f77b4"
           id="use75" />
        <use
           xlink:href="#m500209ebc1"
           x="396.46463"
           y="157.16678"
           style="fill:#1f77b4;stroke:#1f77b4"
           id="use76" />
        <use
           xlink:href="#m500209ebc1"
           x="421.82828"
           y="156.34586"
           style="fill:#1f77b4;stroke:#1f77b4"
           id="use77" />
      </g>
    </g>
    <g
       id="patch_3">
      <path
         d="M 48.982813,173.52 V 7.2"
         style="fill:none;stroke:#000000;stroke-width:0.8;stroke-linecap:square;stroke-linejoin:miter"
         id="path77" />
    </g>
    <g
       id="patch_4">
      <path
         d="M 439.58281,173.52 V 7.2"
         style="fill:none;stroke:#000000;stroke-width:0.8;stroke-linecap:square;stroke-linejoin:miter"
         id="path78" />
    </g>
    <g
       id="patch_5">
      <path
         d="M 48.982813,173.52 H 439.58281"
         style="fill:none;stroke:#000000;stroke-width:0.8;stroke-linecap:square;stroke-linejoin:miter"
         id="path79" />
    </g>
    <g
       id="patch_6">
      <path
         d="M 48.982813,7.2 H 439.58281"
         style="fill:none;stroke:#000000;stroke-width:0.8;stroke-linecap:square;stroke-linejoin:miter"
         id="path80" />
    </g>
  </g>
  <defs
     id="defs80">
    <clipPath
       id="pa2f4f797c7">
      <rect
         x="48.982815"
         y="7.1999998"
         width="390.60001"
         height="166.32001"
         id="rect80" />
    </clipPath>
  </defs>
</svg>
