<?xml version="1.0" encoding="utf-8" standalone="no"?>
<!DOCTYPE svg PUBLIC "-//W3C//DTD SVG 1.1//EN"
  "http://www.w3.org/Graphics/SVG/1.1/DTD/svg11.dtd">
<svg xmlns:xlink="http://www.w3.org/1999/xlink" width="419.665312pt" height="310.86825pt" viewBox="0 0 419.665312 310.86825" xmlns="http://www.w3.org/2000/svg" version="1.1">
 <metadata>
  <rdf:RDF xmlns:dc="http://purl.org/dc/elements/1.1/" xmlns:cc="http://creativecommons.org/ns#" xmlns:rdf="http://www.w3.org/1999/02/22-rdf-syntax-ns#">
   <cc:Work>
    <dc:type rdf:resource="http://purl.org/dc/dcmitype/StillImage"/>
    <dc:date>2024-06-24T03:31:37.470488</dc:date>
    <dc:format>image/svg+xml</dc:format>
    <dc:creator>
     <cc:Agent>
      <dc:title>Matplotlib v3.9.0, https://matplotlib.org/</dc:title>
     </cc:Agent>
    </dc:creator>
   </cc:Work>
  </rdf:RDF>
 </metadata>
 <defs>
  <style type="text/css">*{stroke-linejoin: round; stroke-linecap: butt}</style>
 </defs>
 <g id="figure_1">
  <g id="patch_1">
   <path d="M 0 310.86825 
L 419.665312 310.86825 
L 419.665312 0 
L 0 0 
z
" style="fill: #ffffff"/>
  </g>
  <g id="axes_1">
   <g id="patch_2">
    <path d="M 55.345313 273.312 
L 412.465312 273.312 
L 412.465312 7.2 
L 55.345313 7.2 
z
" style="fill: #ffffff"/>
   </g>
   <g id="matplotlib.axis_1">
    <g id="xtick_1">
     <g id="line2d_1">
      <defs>
       <path id="mbaf8390044" d="M 0 0 
L 0 3.5 
" style="stroke: #000000; stroke-width: 0.8"/>
      </defs>
      <g>
       <use xlink:href="#mbaf8390044" x="71.57804" y="273.312" style="stroke: #000000; stroke-width: 0.8"/>
      </g>
     </g>
     <g id="text_1">
      <!-- −100 -->
      <g transform="translate(57.844446 287.910437) scale(0.1 -0.1)">
       <defs>
        <path id="DejaVuSans-2212" d="M 678 2272 
L 4684 2272 
L 4684 1741 
L 678 1741 
L 678 2272 
z
" transform="scale(0.015625)"/>
        <path id="DejaVuSans-31" d="M 794 531 
L 1825 531 
L 1825 4091 
L 703 3866 
L 703 4441 
L 1819 4666 
L 2450 4666 
L 2450 531 
L 3481 531 
L 3481 0 
L 794 0 
L 794 531 
z
" transform="scale(0.015625)"/>
        <path id="DejaVuSans-30" d="M 2034 4250 
Q 1547 4250 1301 3770 
Q 1056 3291 1056 2328 
Q 1056 1369 1301 889 
Q 1547 409 2034 409 
Q 2525 409 2770 889 
Q 3016 1369 3016 2328 
Q 3016 3291 2770 3770 
Q 2525 4250 2034 4250 
z
M 2034 4750 
Q 2819 4750 3233 4129 
Q 3647 3509 3647 2328 
Q 3647 1150 3233 529 
Q 2819 -91 2034 -91 
Q 1250 -91 836 529 
Q 422 1150 422 2328 
Q 422 3509 836 4129 
Q 1250 4750 2034 4750 
z
" transform="scale(0.015625)"/>
       </defs>
       <use xlink:href="#DejaVuSans-2212"/>
       <use xlink:href="#DejaVuSans-31" x="83.789062"/>
       <use xlink:href="#DejaVuSans-30" x="147.412109"/>
       <use xlink:href="#DejaVuSans-30" x="211.035156"/>
      </g>
     </g>
    </g>
    <g id="xtick_2">
     <g id="line2d_2">
      <g>
       <use xlink:href="#mbaf8390044" x="112.159858" y="273.312" style="stroke: #000000; stroke-width: 0.8"/>
      </g>
     </g>
     <g id="text_2">
      <!-- −75 -->
      <g transform="translate(101.607514 287.910437) scale(0.1 -0.1)">
       <defs>
        <path id="DejaVuSans-37" d="M 525 4666 
L 3525 4666 
L 3525 4397 
L 1831 0 
L 1172 0 
L 2766 4134 
L 525 4134 
L 525 4666 
z
" transform="scale(0.015625)"/>
        <path id="DejaVuSans-35" d="M 691 4666 
L 3169 4666 
L 3169 4134 
L 1269 4134 
L 1269 2991 
Q 1406 3038 1543 3061 
Q 1681 3084 1819 3084 
Q 2600 3084 3056 2656 
Q 3513 2228 3513 1497 
Q 3513 744 3044 326 
Q 2575 -91 1722 -91 
Q 1428 -91 1123 -41 
Q 819 9 494 109 
L 494 744 
Q 775 591 1075 516 
Q 1375 441 1709 441 
Q 2250 441 2565 725 
Q 2881 1009 2881 1497 
Q 2881 1984 2565 2268 
Q 2250 2553 1709 2553 
Q 1456 2553 1204 2497 
Q 953 2441 691 2322 
L 691 4666 
z
" transform="scale(0.015625)"/>
       </defs>
       <use xlink:href="#DejaVuSans-2212"/>
       <use xlink:href="#DejaVuSans-37" x="83.789062"/>
       <use xlink:href="#DejaVuSans-35" x="147.412109"/>
      </g>
     </g>
    </g>
    <g id="xtick_3">
     <g id="line2d_3">
      <g>
       <use xlink:href="#mbaf8390044" x="152.741676" y="273.312" style="stroke: #000000; stroke-width: 0.8"/>
      </g>
     </g>
     <g id="text_3">
      <!-- −50 -->
      <g transform="translate(142.189332 287.910437) scale(0.1 -0.1)">
       <use xlink:href="#DejaVuSans-2212"/>
       <use xlink:href="#DejaVuSans-35" x="83.789062"/>
       <use xlink:href="#DejaVuSans-30" x="147.412109"/>
      </g>
     </g>
    </g>
    <g id="xtick_4">
     <g id="line2d_4">
      <g>
       <use xlink:href="#mbaf8390044" x="193.323494" y="273.312" style="stroke: #000000; stroke-width: 0.8"/>
      </g>
     </g>
     <g id="text_4">
      <!-- −25 -->
      <g transform="translate(182.771151 287.910437) scale(0.1 -0.1)">
       <defs>
        <path id="DejaVuSans-32" d="M 1228 531 
L 3431 531 
L 3431 0 
L 469 0 
L 469 531 
Q 828 903 1448 1529 
Q 2069 2156 2228 2338 
Q 2531 2678 2651 2914 
Q 2772 3150 2772 3378 
Q 2772 3750 2511 3984 
Q 2250 4219 1831 4219 
Q 1534 4219 1204 4116 
Q 875 4013 500 3803 
L 500 4441 
Q 881 4594 1212 4672 
Q 1544 4750 1819 4750 
Q 2544 4750 2975 4387 
Q 3406 4025 3406 3419 
Q 3406 3131 3298 2873 
Q 3191 2616 2906 2266 
Q 2828 2175 2409 1742 
Q 1991 1309 1228 531 
z
" transform="scale(0.015625)"/>
       </defs>
       <use xlink:href="#DejaVuSans-2212"/>
       <use xlink:href="#DejaVuSans-32" x="83.789062"/>
       <use xlink:href="#DejaVuSans-35" x="147.412109"/>
      </g>
     </g>
    </g>
    <g id="xtick_5">
     <g id="line2d_5">
      <g>
       <use xlink:href="#mbaf8390044" x="233.905313" y="273.312" style="stroke: #000000; stroke-width: 0.8"/>
      </g>
     </g>
     <g id="text_5">
      <!-- 0 -->
      <g transform="translate(230.724063 287.910437) scale(0.1 -0.1)">
       <use xlink:href="#DejaVuSans-30"/>
      </g>
     </g>
    </g>
    <g id="xtick_6">
     <g id="line2d_6">
      <g>
       <use xlink:href="#mbaf8390044" x="274.487131" y="273.312" style="stroke: #000000; stroke-width: 0.8"/>
      </g>
     </g>
     <g id="text_6">
      <!-- 25 -->
      <g transform="translate(268.124631 287.910437) scale(0.1 -0.1)">
       <use xlink:href="#DejaVuSans-32"/>
       <use xlink:href="#DejaVuSans-35" x="63.623047"/>
      </g>
     </g>
    </g>
    <g id="xtick_7">
     <g id="line2d_7">
      <g>
       <use xlink:href="#mbaf8390044" x="315.068949" y="273.312" style="stroke: #000000; stroke-width: 0.8"/>
      </g>
     </g>
     <g id="text_7">
      <!-- 50 -->
      <g transform="translate(308.706449 287.910437) scale(0.1 -0.1)">
       <use xlink:href="#DejaVuSans-35"/>
       <use xlink:href="#DejaVuSans-30" x="63.623047"/>
      </g>
     </g>
    </g>
    <g id="xtick_8">
     <g id="line2d_8">
      <g>
       <use xlink:href="#mbaf8390044" x="355.650767" y="273.312" style="stroke: #000000; stroke-width: 0.8"/>
      </g>
     </g>
     <g id="text_8">
      <!-- 75 -->
      <g transform="translate(349.288267 287.910437) scale(0.1 -0.1)">
       <use xlink:href="#DejaVuSans-37"/>
       <use xlink:href="#DejaVuSans-35" x="63.623047"/>
      </g>
     </g>
    </g>
    <g id="xtick_9">
     <g id="line2d_9">
      <g>
       <use xlink:href="#mbaf8390044" x="396.232585" y="273.312" style="stroke: #000000; stroke-width: 0.8"/>
      </g>
     </g>
     <g id="text_9">
      <!-- 100 -->
      <g transform="translate(386.688835 287.910437) scale(0.1 -0.1)">
       <use xlink:href="#DejaVuSans-31"/>
       <use xlink:href="#DejaVuSans-30" x="63.623047"/>
       <use xlink:href="#DejaVuSans-30" x="127.246094"/>
      </g>
     </g>
    </g>
    <g id="text_10">
     <!-- Tau -->
     <g transform="translate(225.443594 301.588562) scale(0.1 -0.1)">
      <defs>
       <path id="DejaVuSans-54" d="M -19 4666 
L 3928 4666 
L 3928 4134 
L 2272 4134 
L 2272 0 
L 1638 0 
L 1638 4134 
L -19 4134 
L -19 4666 
z
" transform="scale(0.015625)"/>
       <path id="DejaVuSans-61" d="M 2194 1759 
Q 1497 1759 1228 1600 
Q 959 1441 959 1056 
Q 959 750 1161 570 
Q 1363 391 1709 391 
Q 2188 391 2477 730 
Q 2766 1069 2766 1631 
L 2766 1759 
L 2194 1759 
z
M 3341 1997 
L 3341 0 
L 2766 0 
L 2766 531 
Q 2569 213 2275 61 
Q 1981 -91 1556 -91 
Q 1019 -91 701 211 
Q 384 513 384 1019 
Q 384 1609 779 1909 
Q 1175 2209 1959 2209 
L 2766 2209 
L 2766 2266 
Q 2766 2663 2505 2880 
Q 2244 3097 1772 3097 
Q 1472 3097 1187 3025 
Q 903 2953 641 2809 
L 641 3341 
Q 956 3463 1253 3523 
Q 1550 3584 1831 3584 
Q 2591 3584 2966 3190 
Q 3341 2797 3341 1997 
z
" transform="scale(0.015625)"/>
       <path id="DejaVuSans-75" d="M 544 1381 
L 544 3500 
L 1119 3500 
L 1119 1403 
Q 1119 906 1312 657 
Q 1506 409 1894 409 
Q 2359 409 2629 706 
Q 2900 1003 2900 1516 
L 2900 3500 
L 3475 3500 
L 3475 0 
L 2900 0 
L 2900 538 
Q 2691 219 2414 64 
Q 2138 -91 1772 -91 
Q 1169 -91 856 284 
Q 544 659 544 1381 
z
M 1991 3584 
L 1991 3584 
z
" transform="scale(0.015625)"/>
      </defs>
      <use xlink:href="#DejaVuSans-54"/>
      <use xlink:href="#DejaVuSans-61" x="44.583984"/>
      <use xlink:href="#DejaVuSans-75" x="105.863281"/>
     </g>
    </g>
   </g>
   <g id="matplotlib.axis_2">
    <g id="ytick_1">
     <g id="line2d_10">
      <defs>
       <path id="mfeeaddf83e" d="M 0 0 
L -3.5 0 
" style="stroke: #000000; stroke-width: 0.8"/>
      </defs>
      <g>
       <use xlink:href="#mfeeaddf83e" x="55.345313" y="255.802775" style="stroke: #000000; stroke-width: 0.8"/>
      </g>
     </g>
     <g id="text_11">
      <!-- −400 -->
      <g transform="translate(20.878125 259.601994) scale(0.1 -0.1)">
       <defs>
        <path id="DejaVuSans-34" d="M 2419 4116 
L 825 1625 
L 2419 1625 
L 2419 4116 
z
M 2253 4666 
L 3047 4666 
L 3047 1625 
L 3713 1625 
L 3713 1100 
L 3047 1100 
L 3047 0 
L 2419 0 
L 2419 1100 
L 313 1100 
L 313 1709 
L 2253 4666 
z
" transform="scale(0.015625)"/>
       </defs>
       <use xlink:href="#DejaVuSans-2212"/>
       <use xlink:href="#DejaVuSans-34" x="83.789062"/>
       <use xlink:href="#DejaVuSans-30" x="147.412109"/>
       <use xlink:href="#DejaVuSans-30" x="211.035156"/>
      </g>
     </g>
    </g>
    <g id="ytick_2">
     <g id="line2d_11">
      <g>
       <use xlink:href="#mfeeaddf83e" x="55.345313" y="197.437309" style="stroke: #000000; stroke-width: 0.8"/>
      </g>
     </g>
     <g id="text_12">
      <!-- −200 -->
      <g transform="translate(20.878125 201.236528) scale(0.1 -0.1)">
       <use xlink:href="#DejaVuSans-2212"/>
       <use xlink:href="#DejaVuSans-32" x="83.789062"/>
       <use xlink:href="#DejaVuSans-30" x="147.412109"/>
       <use xlink:href="#DejaVuSans-30" x="211.035156"/>
      </g>
     </g>
    </g>
    <g id="ytick_3">
     <g id="line2d_12">
      <g>
       <use xlink:href="#mfeeaddf83e" x="55.345313" y="139.071843" style="stroke: #000000; stroke-width: 0.8"/>
      </g>
     </g>
     <g id="text_13">
      <!-- 0 -->
      <g transform="translate(41.982813 142.871061) scale(0.1 -0.1)">
       <use xlink:href="#DejaVuSans-30"/>
      </g>
     </g>
    </g>
    <g id="ytick_4">
     <g id="line2d_13">
      <g>
       <use xlink:href="#mfeeaddf83e" x="55.345313" y="80.706376" style="stroke: #000000; stroke-width: 0.8"/>
      </g>
     </g>
     <g id="text_14">
      <!-- 200 -->
      <g transform="translate(29.257813 84.505595) scale(0.1 -0.1)">
       <use xlink:href="#DejaVuSans-32"/>
       <use xlink:href="#DejaVuSans-30" x="63.623047"/>
       <use xlink:href="#DejaVuSans-30" x="127.246094"/>
      </g>
     </g>
    </g>
    <g id="ytick_5">
     <g id="line2d_14">
      <g>
       <use xlink:href="#mfeeaddf83e" x="55.345313" y="22.34091" style="stroke: #000000; stroke-width: 0.8"/>
      </g>
     </g>
     <g id="text_15">
      <!-- 400 -->
      <g transform="translate(29.257813 26.140129) scale(0.1 -0.1)">
       <use xlink:href="#DejaVuSans-34"/>
       <use xlink:href="#DejaVuSans-30" x="63.623047"/>
       <use xlink:href="#DejaVuSans-30" x="127.246094"/>
      </g>
     </g>
    </g>
    <g id="text_16">
     <!-- CAF (real part) -->
     <g transform="translate(14.798438 176.84975) rotate(-90) scale(0.1 -0.1)">
      <defs>
       <path id="DejaVuSans-43" d="M 4122 4306 
L 4122 3641 
Q 3803 3938 3442 4084 
Q 3081 4231 2675 4231 
Q 1875 4231 1450 3742 
Q 1025 3253 1025 2328 
Q 1025 1406 1450 917 
Q 1875 428 2675 428 
Q 3081 428 3442 575 
Q 3803 722 4122 1019 
L 4122 359 
Q 3791 134 3420 21 
Q 3050 -91 2638 -91 
Q 1578 -91 968 557 
Q 359 1206 359 2328 
Q 359 3453 968 4101 
Q 1578 4750 2638 4750 
Q 3056 4750 3426 4639 
Q 3797 4528 4122 4306 
z
" transform="scale(0.015625)"/>
       <path id="DejaVuSans-41" d="M 2188 4044 
L 1331 1722 
L 3047 1722 
L 2188 4044 
z
M 1831 4666 
L 2547 4666 
L 4325 0 
L 3669 0 
L 3244 1197 
L 1141 1197 
L 716 0 
L 50 0 
L 1831 4666 
z
" transform="scale(0.015625)"/>
       <path id="DejaVuSans-46" d="M 628 4666 
L 3309 4666 
L 3309 4134 
L 1259 4134 
L 1259 2759 
L 3109 2759 
L 3109 2228 
L 1259 2228 
L 1259 0 
L 628 0 
L 628 4666 
z
" transform="scale(0.015625)"/>
       <path id="DejaVuSans-20" transform="scale(0.015625)"/>
       <path id="DejaVuSans-28" d="M 1984 4856 
Q 1566 4138 1362 3434 
Q 1159 2731 1159 2009 
Q 1159 1288 1364 580 
Q 1569 -128 1984 -844 
L 1484 -844 
Q 1016 -109 783 600 
Q 550 1309 550 2009 
Q 550 2706 781 3412 
Q 1013 4119 1484 4856 
L 1984 4856 
z
" transform="scale(0.015625)"/>
       <path id="DejaVuSans-72" d="M 2631 2963 
Q 2534 3019 2420 3045 
Q 2306 3072 2169 3072 
Q 1681 3072 1420 2755 
Q 1159 2438 1159 1844 
L 1159 0 
L 581 0 
L 581 3500 
L 1159 3500 
L 1159 2956 
Q 1341 3275 1631 3429 
Q 1922 3584 2338 3584 
Q 2397 3584 2469 3576 
Q 2541 3569 2628 3553 
L 2631 2963 
z
" transform="scale(0.015625)"/>
       <path id="DejaVuSans-65" d="M 3597 1894 
L 3597 1613 
L 953 1613 
Q 991 1019 1311 708 
Q 1631 397 2203 397 
Q 2534 397 2845 478 
Q 3156 559 3463 722 
L 3463 178 
Q 3153 47 2828 -22 
Q 2503 -91 2169 -91 
Q 1331 -91 842 396 
Q 353 884 353 1716 
Q 353 2575 817 3079 
Q 1281 3584 2069 3584 
Q 2775 3584 3186 3129 
Q 3597 2675 3597 1894 
z
M 3022 2063 
Q 3016 2534 2758 2815 
Q 2500 3097 2075 3097 
Q 1594 3097 1305 2825 
Q 1016 2553 972 2059 
L 3022 2063 
z
" transform="scale(0.015625)"/>
       <path id="DejaVuSans-6c" d="M 603 4863 
L 1178 4863 
L 1178 0 
L 603 0 
L 603 4863 
z
" transform="scale(0.015625)"/>
       <path id="DejaVuSans-70" d="M 1159 525 
L 1159 -1331 
L 581 -1331 
L 581 3500 
L 1159 3500 
L 1159 2969 
Q 1341 3281 1617 3432 
Q 1894 3584 2278 3584 
Q 2916 3584 3314 3078 
Q 3713 2572 3713 1747 
Q 3713 922 3314 415 
Q 2916 -91 2278 -91 
Q 1894 -91 1617 61 
Q 1341 213 1159 525 
z
M 3116 1747 
Q 3116 2381 2855 2742 
Q 2594 3103 2138 3103 
Q 1681 3103 1420 2742 
Q 1159 2381 1159 1747 
Q 1159 1113 1420 752 
Q 1681 391 2138 391 
Q 2594 391 2855 752 
Q 3116 1113 3116 1747 
z
" transform="scale(0.015625)"/>
       <path id="DejaVuSans-74" d="M 1172 4494 
L 1172 3500 
L 2356 3500 
L 2356 3053 
L 1172 3053 
L 1172 1153 
Q 1172 725 1289 603 
Q 1406 481 1766 481 
L 2356 481 
L 2356 0 
L 1766 0 
Q 1100 0 847 248 
Q 594 497 594 1153 
L 594 3053 
L 172 3053 
L 172 3500 
L 594 3500 
L 594 4494 
L 1172 4494 
z
" transform="scale(0.015625)"/>
       <path id="DejaVuSans-29" d="M 513 4856 
L 1013 4856 
Q 1481 4119 1714 3412 
Q 1947 2706 1947 2009 
Q 1947 1309 1714 600 
Q 1481 -109 1013 -844 
L 513 -844 
Q 928 -128 1133 580 
Q 1338 1288 1338 2009 
Q 1338 2731 1133 3434 
Q 928 4138 513 4856 
z
" transform="scale(0.015625)"/>
      </defs>
      <use xlink:href="#DejaVuSans-43"/>
      <use xlink:href="#DejaVuSans-41" x="69.824219"/>
      <use xlink:href="#DejaVuSans-46" x="138.232422"/>
      <use xlink:href="#DejaVuSans-20" x="195.751953"/>
      <use xlink:href="#DejaVuSans-28" x="227.539062"/>
      <use xlink:href="#DejaVuSans-72" x="266.552734"/>
      <use xlink:href="#DejaVuSans-65" x="305.416016"/>
      <use xlink:href="#DejaVuSans-61" x="366.939453"/>
      <use xlink:href="#DejaVuSans-6c" x="428.21875"/>
      <use xlink:href="#DejaVuSans-20" x="456.001953"/>
      <use xlink:href="#DejaVuSans-70" x="487.789062"/>
      <use xlink:href="#DejaVuSans-61" x="551.265625"/>
      <use xlink:href="#DejaVuSans-72" x="612.544922"/>
      <use xlink:href="#DejaVuSans-74" x="653.658203"/>
      <use xlink:href="#DejaVuSans-29" x="692.867188"/>
     </g>
    </g>
   </g>
   <g id="line2d_15">
    <path d="M 71.57804 110.428143 
L 73.201313 54.670648 
L 74.824585 96.839743 
L 76.447858 204.877838 
L 78.071131 251.277099 
L 79.694403 168.662453 
L 81.317676 70.723901 
L 82.940949 54.137865 
L 84.564222 128.890061 
L 86.187494 189.959104 
L 87.810767 158.109147 
L 89.43404 100.439206 
L 91.057313 107.24536 
L 92.680585 202.740228 
L 94.303858 252.321083 
L 95.927131 151.659013 
L 97.550403 38.772196 
L 99.173676 35.91547 
L 100.796949 139.821992 
L 102.420222 234.610847 
L 104.043494 193.579892 
L 105.666767 106.152161 
L 107.29004 117.78791 
L 108.913313 176.63388 
L 110.536585 179.515789 
L 112.159858 99.592571 
L 113.783131 31.772389 
L 115.406403 88.178904 
L 117.029676 219.75129 
L 118.652949 259.241383 
L 121.899494 59.977811 
L 123.522767 71.699638 
L 125.14604 153.084757 
L 126.769313 183.443805 
L 130.015858 80.803139 
L 131.639131 131.892536 
L 133.262403 223.997489 
L 134.885676 225.020213 
L 136.508949 120.424134 
L 138.132222 46.29519 
L 139.755494 94.176103 
L 141.378767 175.058191 
L 143.00204 166.248876 
L 144.625313 97.343487 
L 146.248585 83.652309 
L 147.871858 168.700451 
L 149.495131 239.301568 
L 151.118403 191.439927 
L 152.741676 67.183521 
L 154.364949 21.646399 
L 155.988222 102.229549 
L 157.611494 203.532339 
L 159.234767 208.584295 
L 160.85804 130.308965 
L 162.481313 103.280549 
L 164.104585 156.029412 
L 165.727858 202.05894 
L 167.351131 157.314162 
L 168.974403 59.512274 
L 170.597676 40.58482 
L 172.220949 69.354747 
L 173.844222 134.618564 
L 175.467494 224.40131 
L 177.090767 261.216 
L 178.71404 229.355521 
L 180.337312 131.548276 
L 181.960585 47.471168 
L 183.583858 32.018488 
L 185.207131 69.393682 
L 186.830403 123.287375 
L 188.453676 185.727216 
L 190.076949 233.10964 
L 191.700222 243.435512 
L 193.323494 189.661623 
L 194.946767 83.065084 
L 196.57004 19.296 
L 198.193313 25.202836 
L 199.816585 106.618135 
L 201.439858 196.32062 
L 203.063131 247.602213 
L 204.686403 202.853421 
L 206.309676 117.500444 
L 207.932949 87.035702 
L 209.556222 109.180416 
L 211.179494 138.678584 
L 212.802767 133.584372 
L 214.42604 115.245493 
L 216.049313 143.517967 
L 217.672585 192.372936 
L 219.295858 206.991124 
L 220.919131 143.605901 
L 222.542403 56.001905 
L 224.165676 48.393972 
L 227.412222 207.365776 
L 229.035494 205.742421 
L 230.658767 155.19314 
L 232.28204 125.179415 
L 233.905313 140.495291 
L 235.528585 130.186805 
L 237.151858 156.928719 
L 238.775131 191.602753 
L 240.398403 172.47578 
L 242.021676 115.558021 
L 243.644949 72.27821 
L 245.268222 101.768342 
L 246.891494 161.788634 
L 248.514767 182.621825 
L 251.761313 119.515187 
L 253.384585 133.768436 
L 255.007858 158.669772 
L 256.631131 145.525209 
L 258.254403 93.879666 
L 259.877676 74.554195 
L 261.500949 138.342012 
L 263.124222 218.202211 
L 264.747494 223.976219 
L 266.370767 139.860611 
L 267.99404 42.661364 
L 269.617313 65.629924 
L 271.240585 189.150305 
L 272.863858 248.110742 
L 274.487131 180.412674 
L 276.110403 73.414715 
L 277.733676 81.042267 
L 279.356949 173.297937 
L 280.980222 215.895509 
L 282.603494 133.755543 
L 284.226767 34.298721 
L 285.85004 62.875532 
L 287.473313 187.346181 
L 289.096585 245.670883 
L 290.719858 181.966585 
L 292.343131 84.8791 
L 293.966403 69.858381 
L 295.589676 142.917205 
L 297.212949 203.41396 
L 298.836222 157.778837 
L 300.459494 117.905852 
L 302.082767 113.757047 
L 303.70604 110.0384 
L 305.329313 106.041371 
L 306.952585 103.355524 
L 308.575858 144.433279 
L 310.199131 203.334494 
L 311.822403 224.409134 
L 313.445676 173.691378 
L 315.068949 99.693874 
L 316.692222 55.136517 
L 318.315494 79.237329 
L 319.938767 132.235535 
L 321.56204 178.425201 
L 323.185313 184.547389 
L 324.808585 175.930807 
L 326.431858 175.734374 
L 328.055131 161.342771 
L 331.301676 42.999918 
L 332.924949 61.123989 
L 334.548222 135.181024 
L 336.171494 197.072319 
L 337.794767 194.113474 
L 339.41804 170.996851 
L 341.041313 171.255172 
L 342.664585 162.018342 
L 345.911131 52.647643 
L 347.534403 48.039112 
L 349.157676 132.569248 
L 350.780949 234.10861 
L 352.404222 256.617914 
L 355.650767 99.407852 
L 357.27404 82.55018 
L 358.897312 110.134792 
L 360.520585 111.26643 
L 362.143858 89.724681 
L 363.767131 107.202336 
L 367.013676 245.933061 
L 368.636949 225.262315 
L 370.260222 128.124658 
L 371.883494 39.747963 
L 373.506767 51.969559 
L 375.13004 132.771515 
L 376.753312 185.483032 
L 378.376585 174.696087 
L 379.999858 150.650821 
L 381.623131 159.123753 
L 383.246403 174.16035 
L 384.869676 157.287485 
L 386.492949 77.623971 
L 388.116222 37.891906 
L 389.739494 92.633189 
L 391.362767 193.578285 
L 392.98604 240.197725 
L 394.609312 198.433381 
L 396.232585 118.631276 
L 396.232585 118.631276 
" clip-path="url(#p180df42ac6)" style="fill: none; stroke: #1f77b4; stroke-width: 1.5; stroke-linecap: square"/>
   </g>
   <g id="patch_3">
    <path d="M 55.345313 273.312 
L 55.345313 7.2 
" style="fill: none; stroke: #000000; stroke-width: 0.8; stroke-linejoin: miter; stroke-linecap: square"/>
   </g>
   <g id="patch_4">
    <path d="M 412.465312 273.312 
L 412.465312 7.2 
" style="fill: none; stroke: #000000; stroke-width: 0.8; stroke-linejoin: miter; stroke-linecap: square"/>
   </g>
   <g id="patch_5">
    <path d="M 55.345313 273.312 
L 412.465312 273.312 
" style="fill: none; stroke: #000000; stroke-width: 0.8; stroke-linejoin: miter; stroke-linecap: square"/>
   </g>
   <g id="patch_6">
    <path d="M 55.345313 7.2 
L 412.465312 7.2 
" style="fill: none; stroke: #000000; stroke-width: 0.8; stroke-linejoin: miter; stroke-linecap: square"/>
   </g>
  </g>
 </g>
 <defs>
  <clipPath id="p180df42ac6">
   <rect x="55.345313" y="7.2" width="357.12" height="266.112"/>
  </clipPath>
 </defs>
</svg>
