<?xml version="1.0" encoding="utf-8" standalone="no"?>
<!DOCTYPE svg PUBLIC "-//W3C//DTD SVG 1.1//EN"
  "http://www.w3.org/Graphics/SVG/1.1/DTD/svg11.dtd">
<svg xmlns:xlink="http://www.w3.org/1999/xlink" width="411.285625pt" height="325.986375pt" viewBox="0 0 411.285625 325.986375" xmlns="http://www.w3.org/2000/svg" version="1.1">
 <metadata>
  <rdf:RDF xmlns:dc="http://purl.org/dc/elements/1.1/" xmlns:cc="http://creativecommons.org/ns#" xmlns:rdf="http://www.w3.org/1999/02/22-rdf-syntax-ns#">
   <cc:Work>
    <dc:type rdf:resource="http://purl.org/dc/dcmitype/StillImage"/>
    <dc:date>2024-04-19T18:12:55.749063</dc:date>
    <dc:format>image/svg+xml</dc:format>
    <dc:creator>
     <cc:Agent>
      <dc:title>Matplotlib v3.8.0, https://matplotlib.org/</dc:title>
     </cc:Agent>
    </dc:creator>
   </cc:Work>
  </rdf:RDF>
 </metadata>
 <defs>
  <style type="text/css">*{stroke-linejoin: round; stroke-linecap: butt}</style>
 </defs>
 <g id="figure_1">
  <g id="patch_1">
   <path d="M 0 325.986375 
L 411.285625 325.986375 
L 411.285625 0 
L 0 0 
z
" style="fill: #ffffff"/>
  </g>
  <g id="axes_1">
   <g id="patch_2">
    <path d="M 46.965625 288.430125 
L 404.085625 288.430125 
L 404.085625 22.318125 
L 46.965625 22.318125 
z
" style="fill: #ffffff"/>
   </g>
   <g id="matplotlib.axis_1">
    <g id="xtick_1">
     <g id="line2d_1">
      <defs>
       <path id="m191fc855e0" d="M 0 0 
L 0 3.5 
" style="stroke: #000000; stroke-width: 0.8"/>
      </defs>
      <g>
       <use xlink:href="#m191fc855e0" x="62.873373" y="288.430125" style="stroke: #000000; stroke-width: 0.8"/>
      </g>
     </g>
     <g id="text_1">
      <!-- 0 -->
      <g transform="translate(59.692123 303.028562) scale(0.1 -0.1)">
       <defs>
        <path id="DejaVuSans-30" d="M 2034 4250 
Q 1547 4250 1301 3770 
Q 1056 3291 1056 2328 
Q 1056 1369 1301 889 
Q 1547 409 2034 409 
Q 2525 409 2770 889 
Q 3016 1369 3016 2328 
Q 3016 3291 2770 3770 
Q 2525 4250 2034 4250 
z
M 2034 4750 
Q 2819 4750 3233 4129 
Q 3647 3509 3647 2328 
Q 3647 1150 3233 529 
Q 2819 -91 2034 -91 
Q 1250 -91 836 529 
Q 422 1150 422 2328 
Q 422 3509 836 4129 
Q 1250 4750 2034 4750 
z
" transform="scale(0.015625)"/>
       </defs>
       <use xlink:href="#DejaVuSans-30"/>
      </g>
     </g>
    </g>
    <g id="xtick_2">
     <g id="line2d_2">
      <g>
       <use xlink:href="#m191fc855e0" x="127.869278" y="288.430125" style="stroke: #000000; stroke-width: 0.8"/>
      </g>
     </g>
     <g id="text_2">
      <!-- 2000 -->
      <g transform="translate(115.144278 303.028562) scale(0.1 -0.1)">
       <defs>
        <path id="DejaVuSans-32" d="M 1228 531 
L 3431 531 
L 3431 0 
L 469 0 
L 469 531 
Q 828 903 1448 1529 
Q 2069 2156 2228 2338 
Q 2531 2678 2651 2914 
Q 2772 3150 2772 3378 
Q 2772 3750 2511 3984 
Q 2250 4219 1831 4219 
Q 1534 4219 1204 4116 
Q 875 4013 500 3803 
L 500 4441 
Q 881 4594 1212 4672 
Q 1544 4750 1819 4750 
Q 2544 4750 2975 4387 
Q 3406 4025 3406 3419 
Q 3406 3131 3298 2873 
Q 3191 2616 2906 2266 
Q 2828 2175 2409 1742 
Q 1991 1309 1228 531 
z
" transform="scale(0.015625)"/>
       </defs>
       <use xlink:href="#DejaVuSans-32"/>
       <use xlink:href="#DejaVuSans-30" x="63.623047"/>
       <use xlink:href="#DejaVuSans-30" x="127.246094"/>
       <use xlink:href="#DejaVuSans-30" x="190.869141"/>
      </g>
     </g>
    </g>
    <g id="xtick_3">
     <g id="line2d_3">
      <g>
       <use xlink:href="#m191fc855e0" x="192.865183" y="288.430125" style="stroke: #000000; stroke-width: 0.8"/>
      </g>
     </g>
     <g id="text_3">
      <!-- 4000 -->
      <g transform="translate(180.140183 303.028562) scale(0.1 -0.1)">
       <defs>
        <path id="DejaVuSans-34" d="M 2419 4116 
L 825 1625 
L 2419 1625 
L 2419 4116 
z
M 2253 4666 
L 3047 4666 
L 3047 1625 
L 3713 1625 
L 3713 1100 
L 3047 1100 
L 3047 0 
L 2419 0 
L 2419 1100 
L 313 1100 
L 313 1709 
L 2253 4666 
z
" transform="scale(0.015625)"/>
       </defs>
       <use xlink:href="#DejaVuSans-34"/>
       <use xlink:href="#DejaVuSans-30" x="63.623047"/>
       <use xlink:href="#DejaVuSans-30" x="127.246094"/>
       <use xlink:href="#DejaVuSans-30" x="190.869141"/>
      </g>
     </g>
    </g>
    <g id="xtick_4">
     <g id="line2d_4">
      <g>
       <use xlink:href="#m191fc855e0" x="257.861088" y="288.430125" style="stroke: #000000; stroke-width: 0.8"/>
      </g>
     </g>
     <g id="text_4">
      <!-- 6000 -->
      <g transform="translate(245.136088 303.028562) scale(0.1 -0.1)">
       <defs>
        <path id="DejaVuSans-36" d="M 2113 2584 
Q 1688 2584 1439 2293 
Q 1191 2003 1191 1497 
Q 1191 994 1439 701 
Q 1688 409 2113 409 
Q 2538 409 2786 701 
Q 3034 994 3034 1497 
Q 3034 2003 2786 2293 
Q 2538 2584 2113 2584 
z
M 3366 4563 
L 3366 3988 
Q 3128 4100 2886 4159 
Q 2644 4219 2406 4219 
Q 1781 4219 1451 3797 
Q 1122 3375 1075 2522 
Q 1259 2794 1537 2939 
Q 1816 3084 2150 3084 
Q 2853 3084 3261 2657 
Q 3669 2231 3669 1497 
Q 3669 778 3244 343 
Q 2819 -91 2113 -91 
Q 1303 -91 875 529 
Q 447 1150 447 2328 
Q 447 3434 972 4092 
Q 1497 4750 2381 4750 
Q 2619 4750 2861 4703 
Q 3103 4656 3366 4563 
z
" transform="scale(0.015625)"/>
       </defs>
       <use xlink:href="#DejaVuSans-36"/>
       <use xlink:href="#DejaVuSans-30" x="63.623047"/>
       <use xlink:href="#DejaVuSans-30" x="127.246094"/>
       <use xlink:href="#DejaVuSans-30" x="190.869141"/>
      </g>
     </g>
    </g>
    <g id="xtick_5">
     <g id="line2d_5">
      <g>
       <use xlink:href="#m191fc855e0" x="322.856993" y="288.430125" style="stroke: #000000; stroke-width: 0.8"/>
      </g>
     </g>
     <g id="text_5">
      <!-- 8000 -->
      <g transform="translate(310.131993 303.028562) scale(0.1 -0.1)">
       <defs>
        <path id="DejaVuSans-38" d="M 2034 2216 
Q 1584 2216 1326 1975 
Q 1069 1734 1069 1313 
Q 1069 891 1326 650 
Q 1584 409 2034 409 
Q 2484 409 2743 651 
Q 3003 894 3003 1313 
Q 3003 1734 2745 1975 
Q 2488 2216 2034 2216 
z
M 1403 2484 
Q 997 2584 770 2862 
Q 544 3141 544 3541 
Q 544 4100 942 4425 
Q 1341 4750 2034 4750 
Q 2731 4750 3128 4425 
Q 3525 4100 3525 3541 
Q 3525 3141 3298 2862 
Q 3072 2584 2669 2484 
Q 3125 2378 3379 2068 
Q 3634 1759 3634 1313 
Q 3634 634 3220 271 
Q 2806 -91 2034 -91 
Q 1263 -91 848 271 
Q 434 634 434 1313 
Q 434 1759 690 2068 
Q 947 2378 1403 2484 
z
M 1172 3481 
Q 1172 3119 1398 2916 
Q 1625 2713 2034 2713 
Q 2441 2713 2670 2916 
Q 2900 3119 2900 3481 
Q 2900 3844 2670 4047 
Q 2441 4250 2034 4250 
Q 1625 4250 1398 4047 
Q 1172 3844 1172 3481 
z
" transform="scale(0.015625)"/>
       </defs>
       <use xlink:href="#DejaVuSans-38"/>
       <use xlink:href="#DejaVuSans-30" x="63.623047"/>
       <use xlink:href="#DejaVuSans-30" x="127.246094"/>
       <use xlink:href="#DejaVuSans-30" x="190.869141"/>
      </g>
     </g>
    </g>
    <g id="xtick_6">
     <g id="line2d_6">
      <g>
       <use xlink:href="#m191fc855e0" x="387.852898" y="288.430125" style="stroke: #000000; stroke-width: 0.8"/>
      </g>
     </g>
     <g id="text_6">
      <!-- 10000 -->
      <g transform="translate(371.946648 303.028562) scale(0.1 -0.1)">
       <defs>
        <path id="DejaVuSans-31" d="M 794 531 
L 1825 531 
L 1825 4091 
L 703 3866 
L 703 4441 
L 1819 4666 
L 2450 4666 
L 2450 531 
L 3481 531 
L 3481 0 
L 794 0 
L 794 531 
z
" transform="scale(0.015625)"/>
       </defs>
       <use xlink:href="#DejaVuSans-31"/>
       <use xlink:href="#DejaVuSans-30" x="63.623047"/>
       <use xlink:href="#DejaVuSans-30" x="127.246094"/>
       <use xlink:href="#DejaVuSans-30" x="190.869141"/>
       <use xlink:href="#DejaVuSans-30" x="254.492188"/>
      </g>
     </g>
    </g>
    <g id="text_7">
     <!-- Number of taps -->
     <g transform="translate(186.638906 316.706687) scale(0.1 -0.1)">
      <defs>
       <path id="DejaVuSans-4e" d="M 628 4666 
L 1478 4666 
L 3547 763 
L 3547 4666 
L 4159 4666 
L 4159 0 
L 3309 0 
L 1241 3903 
L 1241 0 
L 628 0 
L 628 4666 
z
" transform="scale(0.015625)"/>
       <path id="DejaVuSans-75" d="M 544 1381 
L 544 3500 
L 1119 3500 
L 1119 1403 
Q 1119 906 1312 657 
Q 1506 409 1894 409 
Q 2359 409 2629 706 
Q 2900 1003 2900 1516 
L 2900 3500 
L 3475 3500 
L 3475 0 
L 2900 0 
L 2900 538 
Q 2691 219 2414 64 
Q 2138 -91 1772 -91 
Q 1169 -91 856 284 
Q 544 659 544 1381 
z
M 1991 3584 
L 1991 3584 
z
" transform="scale(0.015625)"/>
       <path id="DejaVuSans-6d" d="M 3328 2828 
Q 3544 3216 3844 3400 
Q 4144 3584 4550 3584 
Q 5097 3584 5394 3201 
Q 5691 2819 5691 2113 
L 5691 0 
L 5113 0 
L 5113 2094 
Q 5113 2597 4934 2840 
Q 4756 3084 4391 3084 
Q 3944 3084 3684 2787 
Q 3425 2491 3425 1978 
L 3425 0 
L 2847 0 
L 2847 2094 
Q 2847 2600 2669 2842 
Q 2491 3084 2119 3084 
Q 1678 3084 1418 2786 
Q 1159 2488 1159 1978 
L 1159 0 
L 581 0 
L 581 3500 
L 1159 3500 
L 1159 2956 
Q 1356 3278 1631 3431 
Q 1906 3584 2284 3584 
Q 2666 3584 2933 3390 
Q 3200 3197 3328 2828 
z
" transform="scale(0.015625)"/>
       <path id="DejaVuSans-62" d="M 3116 1747 
Q 3116 2381 2855 2742 
Q 2594 3103 2138 3103 
Q 1681 3103 1420 2742 
Q 1159 2381 1159 1747 
Q 1159 1113 1420 752 
Q 1681 391 2138 391 
Q 2594 391 2855 752 
Q 3116 1113 3116 1747 
z
M 1159 2969 
Q 1341 3281 1617 3432 
Q 1894 3584 2278 3584 
Q 2916 3584 3314 3078 
Q 3713 2572 3713 1747 
Q 3713 922 3314 415 
Q 2916 -91 2278 -91 
Q 1894 -91 1617 61 
Q 1341 213 1159 525 
L 1159 0 
L 581 0 
L 581 4863 
L 1159 4863 
L 1159 2969 
z
" transform="scale(0.015625)"/>
       <path id="DejaVuSans-65" d="M 3597 1894 
L 3597 1613 
L 953 1613 
Q 991 1019 1311 708 
Q 1631 397 2203 397 
Q 2534 397 2845 478 
Q 3156 559 3463 722 
L 3463 178 
Q 3153 47 2828 -22 
Q 2503 -91 2169 -91 
Q 1331 -91 842 396 
Q 353 884 353 1716 
Q 353 2575 817 3079 
Q 1281 3584 2069 3584 
Q 2775 3584 3186 3129 
Q 3597 2675 3597 1894 
z
M 3022 2063 
Q 3016 2534 2758 2815 
Q 2500 3097 2075 3097 
Q 1594 3097 1305 2825 
Q 1016 2553 972 2059 
L 3022 2063 
z
" transform="scale(0.015625)"/>
       <path id="DejaVuSans-72" d="M 2631 2963 
Q 2534 3019 2420 3045 
Q 2306 3072 2169 3072 
Q 1681 3072 1420 2755 
Q 1159 2438 1159 1844 
L 1159 0 
L 581 0 
L 581 3500 
L 1159 3500 
L 1159 2956 
Q 1341 3275 1631 3429 
Q 1922 3584 2338 3584 
Q 2397 3584 2469 3576 
Q 2541 3569 2628 3553 
L 2631 2963 
z
" transform="scale(0.015625)"/>
       <path id="DejaVuSans-20" transform="scale(0.015625)"/>
       <path id="DejaVuSans-6f" d="M 1959 3097 
Q 1497 3097 1228 2736 
Q 959 2375 959 1747 
Q 959 1119 1226 758 
Q 1494 397 1959 397 
Q 2419 397 2687 759 
Q 2956 1122 2956 1747 
Q 2956 2369 2687 2733 
Q 2419 3097 1959 3097 
z
M 1959 3584 
Q 2709 3584 3137 3096 
Q 3566 2609 3566 1747 
Q 3566 888 3137 398 
Q 2709 -91 1959 -91 
Q 1206 -91 779 398 
Q 353 888 353 1747 
Q 353 2609 779 3096 
Q 1206 3584 1959 3584 
z
" transform="scale(0.015625)"/>
       <path id="DejaVuSans-66" d="M 2375 4863 
L 2375 4384 
L 1825 4384 
Q 1516 4384 1395 4259 
Q 1275 4134 1275 3809 
L 1275 3500 
L 2222 3500 
L 2222 3053 
L 1275 3053 
L 1275 0 
L 697 0 
L 697 3053 
L 147 3053 
L 147 3500 
L 697 3500 
L 697 3744 
Q 697 4328 969 4595 
Q 1241 4863 1831 4863 
L 2375 4863 
z
" transform="scale(0.015625)"/>
       <path id="DejaVuSans-74" d="M 1172 4494 
L 1172 3500 
L 2356 3500 
L 2356 3053 
L 1172 3053 
L 1172 1153 
Q 1172 725 1289 603 
Q 1406 481 1766 481 
L 2356 481 
L 2356 0 
L 1766 0 
Q 1100 0 847 248 
Q 594 497 594 1153 
L 594 3053 
L 172 3053 
L 172 3500 
L 594 3500 
L 594 4494 
L 1172 4494 
z
" transform="scale(0.015625)"/>
       <path id="DejaVuSans-61" d="M 2194 1759 
Q 1497 1759 1228 1600 
Q 959 1441 959 1056 
Q 959 750 1161 570 
Q 1363 391 1709 391 
Q 2188 391 2477 730 
Q 2766 1069 2766 1631 
L 2766 1759 
L 2194 1759 
z
M 3341 1997 
L 3341 0 
L 2766 0 
L 2766 531 
Q 2569 213 2275 61 
Q 1981 -91 1556 -91 
Q 1019 -91 701 211 
Q 384 513 384 1019 
Q 384 1609 779 1909 
Q 1175 2209 1959 2209 
L 2766 2209 
L 2766 2266 
Q 2766 2663 2505 2880 
Q 2244 3097 1772 3097 
Q 1472 3097 1187 3025 
Q 903 2953 641 2809 
L 641 3341 
Q 956 3463 1253 3523 
Q 1550 3584 1831 3584 
Q 2591 3584 2966 3190 
Q 3341 2797 3341 1997 
z
" transform="scale(0.015625)"/>
       <path id="DejaVuSans-70" d="M 1159 525 
L 1159 -1331 
L 581 -1331 
L 581 3500 
L 1159 3500 
L 1159 2969 
Q 1341 3281 1617 3432 
Q 1894 3584 2278 3584 
Q 2916 3584 3314 3078 
Q 3713 2572 3713 1747 
Q 3713 922 3314 415 
Q 2916 -91 2278 -91 
Q 1894 -91 1617 61 
Q 1341 213 1159 525 
z
M 3116 1747 
Q 3116 2381 2855 2742 
Q 2594 3103 2138 3103 
Q 1681 3103 1420 2742 
Q 1159 2381 1159 1747 
Q 1159 1113 1420 752 
Q 1681 391 2138 391 
Q 2594 391 2855 752 
Q 3116 1113 3116 1747 
z
" transform="scale(0.015625)"/>
       <path id="DejaVuSans-73" d="M 2834 3397 
L 2834 2853 
Q 2591 2978 2328 3040 
Q 2066 3103 1784 3103 
Q 1356 3103 1142 2972 
Q 928 2841 928 2578 
Q 928 2378 1081 2264 
Q 1234 2150 1697 2047 
L 1894 2003 
Q 2506 1872 2764 1633 
Q 3022 1394 3022 966 
Q 3022 478 2636 193 
Q 2250 -91 1575 -91 
Q 1294 -91 989 -36 
Q 684 19 347 128 
L 347 722 
Q 666 556 975 473 
Q 1284 391 1588 391 
Q 1994 391 2212 530 
Q 2431 669 2431 922 
Q 2431 1156 2273 1281 
Q 2116 1406 1581 1522 
L 1381 1569 
Q 847 1681 609 1914 
Q 372 2147 372 2553 
Q 372 3047 722 3315 
Q 1072 3584 1716 3584 
Q 2034 3584 2315 3537 
Q 2597 3491 2834 3397 
z
" transform="scale(0.015625)"/>
      </defs>
      <use xlink:href="#DejaVuSans-4e"/>
      <use xlink:href="#DejaVuSans-75" x="74.804688"/>
      <use xlink:href="#DejaVuSans-6d" x="138.183594"/>
      <use xlink:href="#DejaVuSans-62" x="235.595703"/>
      <use xlink:href="#DejaVuSans-65" x="299.072266"/>
      <use xlink:href="#DejaVuSans-72" x="360.595703"/>
      <use xlink:href="#DejaVuSans-20" x="401.708984"/>
      <use xlink:href="#DejaVuSans-6f" x="433.496094"/>
      <use xlink:href="#DejaVuSans-66" x="494.677734"/>
      <use xlink:href="#DejaVuSans-20" x="529.882812"/>
      <use xlink:href="#DejaVuSans-74" x="561.669922"/>
      <use xlink:href="#DejaVuSans-61" x="600.878906"/>
      <use xlink:href="#DejaVuSans-70" x="662.158203"/>
      <use xlink:href="#DejaVuSans-73" x="725.634766"/>
     </g>
    </g>
   </g>
   <g id="matplotlib.axis_2">
    <g id="ytick_1">
     <g id="line2d_7">
      <defs>
       <path id="mc5aa7d741b" d="M 0 0 
L -3.5 0 
" style="stroke: #000000; stroke-width: 0.8"/>
      </defs>
      <g>
       <use xlink:href="#mc5aa7d741b" x="46.965625" y="277.222968" style="stroke: #000000; stroke-width: 0.8"/>
      </g>
     </g>
     <g id="text_8">
      <!-- 0 -->
      <g transform="translate(33.603125 281.022187) scale(0.1 -0.1)">
       <use xlink:href="#DejaVuSans-30"/>
      </g>
     </g>
    </g>
    <g id="ytick_2">
     <g id="line2d_8">
      <g>
       <use xlink:href="#mc5aa7d741b" x="46.965625" y="243.552424" style="stroke: #000000; stroke-width: 0.8"/>
      </g>
     </g>
     <g id="text_9">
      <!-- 50 -->
      <g transform="translate(27.240625 247.351642) scale(0.1 -0.1)">
       <defs>
        <path id="DejaVuSans-35" d="M 691 4666 
L 3169 4666 
L 3169 4134 
L 1269 4134 
L 1269 2991 
Q 1406 3038 1543 3061 
Q 1681 3084 1819 3084 
Q 2600 3084 3056 2656 
Q 3513 2228 3513 1497 
Q 3513 744 3044 326 
Q 2575 -91 1722 -91 
Q 1428 -91 1123 -41 
Q 819 9 494 109 
L 494 744 
Q 775 591 1075 516 
Q 1375 441 1709 441 
Q 2250 441 2565 725 
Q 2881 1009 2881 1497 
Q 2881 1984 2565 2268 
Q 2250 2553 1709 2553 
Q 1456 2553 1204 2497 
Q 953 2441 691 2322 
L 691 4666 
z
" transform="scale(0.015625)"/>
       </defs>
       <use xlink:href="#DejaVuSans-35"/>
       <use xlink:href="#DejaVuSans-30" x="63.623047"/>
      </g>
     </g>
    </g>
    <g id="ytick_3">
     <g id="line2d_9">
      <g>
       <use xlink:href="#mc5aa7d741b" x="46.965625" y="209.881879" style="stroke: #000000; stroke-width: 0.8"/>
      </g>
     </g>
     <g id="text_10">
      <!-- 100 -->
      <g transform="translate(20.878125 213.681098) scale(0.1 -0.1)">
       <use xlink:href="#DejaVuSans-31"/>
       <use xlink:href="#DejaVuSans-30" x="63.623047"/>
       <use xlink:href="#DejaVuSans-30" x="127.246094"/>
      </g>
     </g>
    </g>
    <g id="ytick_4">
     <g id="line2d_10">
      <g>
       <use xlink:href="#mc5aa7d741b" x="46.965625" y="176.211335" style="stroke: #000000; stroke-width: 0.8"/>
      </g>
     </g>
     <g id="text_11">
      <!-- 150 -->
      <g transform="translate(20.878125 180.010553) scale(0.1 -0.1)">
       <use xlink:href="#DejaVuSans-31"/>
       <use xlink:href="#DejaVuSans-35" x="63.623047"/>
       <use xlink:href="#DejaVuSans-30" x="127.246094"/>
      </g>
     </g>
    </g>
    <g id="ytick_5">
     <g id="line2d_11">
      <g>
       <use xlink:href="#mc5aa7d741b" x="46.965625" y="142.54079" style="stroke: #000000; stroke-width: 0.8"/>
      </g>
     </g>
     <g id="text_12">
      <!-- 200 -->
      <g transform="translate(20.878125 146.340009) scale(0.1 -0.1)">
       <use xlink:href="#DejaVuSans-32"/>
       <use xlink:href="#DejaVuSans-30" x="63.623047"/>
       <use xlink:href="#DejaVuSans-30" x="127.246094"/>
      </g>
     </g>
    </g>
    <g id="ytick_6">
     <g id="line2d_12">
      <g>
       <use xlink:href="#mc5aa7d741b" x="46.965625" y="108.870246" style="stroke: #000000; stroke-width: 0.8"/>
      </g>
     </g>
     <g id="text_13">
      <!-- 250 -->
      <g transform="translate(20.878125 112.669465) scale(0.1 -0.1)">
       <use xlink:href="#DejaVuSans-32"/>
       <use xlink:href="#DejaVuSans-35" x="63.623047"/>
       <use xlink:href="#DejaVuSans-30" x="127.246094"/>
      </g>
     </g>
    </g>
    <g id="ytick_7">
     <g id="line2d_13">
      <g>
       <use xlink:href="#mc5aa7d741b" x="46.965625" y="75.199701" style="stroke: #000000; stroke-width: 0.8"/>
      </g>
     </g>
     <g id="text_14">
      <!-- 300 -->
      <g transform="translate(20.878125 78.99892) scale(0.1 -0.1)">
       <defs>
        <path id="DejaVuSans-33" d="M 2597 2516 
Q 3050 2419 3304 2112 
Q 3559 1806 3559 1356 
Q 3559 666 3084 287 
Q 2609 -91 1734 -91 
Q 1441 -91 1130 -33 
Q 819 25 488 141 
L 488 750 
Q 750 597 1062 519 
Q 1375 441 1716 441 
Q 2309 441 2620 675 
Q 2931 909 2931 1356 
Q 2931 1769 2642 2001 
Q 2353 2234 1838 2234 
L 1294 2234 
L 1294 2753 
L 1863 2753 
Q 2328 2753 2575 2939 
Q 2822 3125 2822 3475 
Q 2822 3834 2567 4026 
Q 2313 4219 1838 4219 
Q 1578 4219 1281 4162 
Q 984 4106 628 3988 
L 628 4550 
Q 988 4650 1302 4700 
Q 1616 4750 1894 4750 
Q 2613 4750 3031 4423 
Q 3450 4097 3450 3541 
Q 3450 3153 3228 2886 
Q 3006 2619 2597 2516 
z
" transform="scale(0.015625)"/>
       </defs>
       <use xlink:href="#DejaVuSans-33"/>
       <use xlink:href="#DejaVuSans-30" x="63.623047"/>
       <use xlink:href="#DejaVuSans-30" x="127.246094"/>
      </g>
     </g>
    </g>
    <g id="ytick_8">
     <g id="line2d_14">
      <g>
       <use xlink:href="#mc5aa7d741b" x="46.965625" y="41.529157" style="stroke: #000000; stroke-width: 0.8"/>
      </g>
     </g>
     <g id="text_15">
      <!-- 350 -->
      <g transform="translate(20.878125 45.328376) scale(0.1 -0.1)">
       <use xlink:href="#DejaVuSans-33"/>
       <use xlink:href="#DejaVuSans-35" x="63.623047"/>
       <use xlink:href="#DejaVuSans-30" x="127.246094"/>
      </g>
     </g>
    </g>
    <g id="text_16">
     <!-- Time per call (ms) -->
     <g transform="translate(14.798438 200.649125) rotate(-90) scale(0.1 -0.1)">
      <defs>
       <path id="DejaVuSans-54" d="M -19 4666 
L 3928 4666 
L 3928 4134 
L 2272 4134 
L 2272 0 
L 1638 0 
L 1638 4134 
L -19 4134 
L -19 4666 
z
" transform="scale(0.015625)"/>
       <path id="DejaVuSans-69" d="M 603 3500 
L 1178 3500 
L 1178 0 
L 603 0 
L 603 3500 
z
M 603 4863 
L 1178 4863 
L 1178 4134 
L 603 4134 
L 603 4863 
z
" transform="scale(0.015625)"/>
       <path id="DejaVuSans-63" d="M 3122 3366 
L 3122 2828 
Q 2878 2963 2633 3030 
Q 2388 3097 2138 3097 
Q 1578 3097 1268 2742 
Q 959 2388 959 1747 
Q 959 1106 1268 751 
Q 1578 397 2138 397 
Q 2388 397 2633 464 
Q 2878 531 3122 666 
L 3122 134 
Q 2881 22 2623 -34 
Q 2366 -91 2075 -91 
Q 1284 -91 818 406 
Q 353 903 353 1747 
Q 353 2603 823 3093 
Q 1294 3584 2113 3584 
Q 2378 3584 2631 3529 
Q 2884 3475 3122 3366 
z
" transform="scale(0.015625)"/>
       <path id="DejaVuSans-6c" d="M 603 4863 
L 1178 4863 
L 1178 0 
L 603 0 
L 603 4863 
z
" transform="scale(0.015625)"/>
       <path id="DejaVuSans-28" d="M 1984 4856 
Q 1566 4138 1362 3434 
Q 1159 2731 1159 2009 
Q 1159 1288 1364 580 
Q 1569 -128 1984 -844 
L 1484 -844 
Q 1016 -109 783 600 
Q 550 1309 550 2009 
Q 550 2706 781 3412 
Q 1013 4119 1484 4856 
L 1984 4856 
z
" transform="scale(0.015625)"/>
       <path id="DejaVuSans-29" d="M 513 4856 
L 1013 4856 
Q 1481 4119 1714 3412 
Q 1947 2706 1947 2009 
Q 1947 1309 1714 600 
Q 1481 -109 1013 -844 
L 513 -844 
Q 928 -128 1133 580 
Q 1338 1288 1338 2009 
Q 1338 2731 1133 3434 
Q 928 4138 513 4856 
z
" transform="scale(0.015625)"/>
      </defs>
      <use xlink:href="#DejaVuSans-54"/>
      <use xlink:href="#DejaVuSans-69" x="57.958984"/>
      <use xlink:href="#DejaVuSans-6d" x="85.742188"/>
      <use xlink:href="#DejaVuSans-65" x="183.154297"/>
      <use xlink:href="#DejaVuSans-20" x="244.677734"/>
      <use xlink:href="#DejaVuSans-70" x="276.464844"/>
      <use xlink:href="#DejaVuSans-65" x="339.941406"/>
      <use xlink:href="#DejaVuSans-72" x="401.464844"/>
      <use xlink:href="#DejaVuSans-20" x="442.578125"/>
      <use xlink:href="#DejaVuSans-63" x="474.365234"/>
      <use xlink:href="#DejaVuSans-61" x="529.345703"/>
      <use xlink:href="#DejaVuSans-6c" x="590.625"/>
      <use xlink:href="#DejaVuSans-6c" x="618.408203"/>
      <use xlink:href="#DejaVuSans-20" x="646.191406"/>
      <use xlink:href="#DejaVuSans-28" x="677.978516"/>
      <use xlink:href="#DejaVuSans-6d" x="716.992188"/>
      <use xlink:href="#DejaVuSans-73" x="814.404297"/>
      <use xlink:href="#DejaVuSans-29" x="866.503906"/>
     </g>
    </g>
   </g>
   <g id="line2d_15">
    <path d="M 63.198352 276.334125 
L 66.477691 274.738764 
L 69.75703 273.980119 
L 73.036369 272.624095 
L 76.315708 271.342068 
L 79.595046 270.395313 
L 82.874385 269.598545 
L 86.153724 268.689392 
L 89.433063 266.852927 
L 92.712402 266.590382 
L 95.991741 263.422809 
L 99.27108 261.238365 
L 102.550418 255.481031 
L 105.829757 254.809309 
L 109.109096 249.758268 
L 112.388435 249.042588 
L 115.667774 246.716059 
L 118.947113 248.532156 
L 122.226451 242.896401 
L 125.50579 240.966482 
L 128.785129 242.352518 
L 132.064468 236.737836 
L 135.343807 234.771535 
L 138.623146 234.040775 
L 141.902485 232.512545 
L 145.181823 234.536457 
L 148.461162 227.486706 
L 151.740501 227.585179 
L 155.01984 223.463178 
L 158.299179 227.816858 
L 161.578518 218.815042 
L 164.857856 217.010259 
L 168.137195 215.381602 
L 171.416534 219.904988 
L 174.695873 217.295348 
L 177.975212 210.746685 
L 181.254551 212.536136 
L 184.533889 205.20052 
L 187.813228 211.882121 
L 191.092567 201.185313 
L 194.371906 197.447062 
L 197.651245 202.014974 
L 200.930584 201.942003 
L 204.209923 202.032475 
L 207.489261 196.675762 
L 210.7686 192.999886 
L 214.047939 187.21008 
L 217.327278 197.017902 
L 220.606617 185.403048 
L 223.885956 182.346106 
L 227.165294 191.158335 
L 230.444633 186.590583 
L 233.723972 182.865257 
L 237.003311 183.705434 
L 240.28265 175.314739 
L 243.561989 180.377156 
L 246.841327 162.936372 
L 250.120666 166.946361 
L 253.400005 158.027765 
L 256.679344 156.877237 
L 259.958683 166.127537 
L 263.238022 169.657149 
L 266.517361 157.660258 
L 269.796699 146.259823 
L 273.076038 156.81125 
L 276.355377 136.488045 
L 279.634716 142.684935 
L 282.914055 140.631293 
L 286.193394 135.26848 
L 289.472732 135.438827 
L 292.752071 149.185111 
L 296.03141 127.646676 
L 299.310749 133.976023 
L 302.590088 139.702651 
L 305.869427 121.451873 
L 309.148765 121.206869 
L 312.428104 122.300881 
L 315.707443 122.643984 
L 318.986782 108.641457 
L 322.266121 129.050076 
L 325.54546 114.318474 
L 328.824799 96.268067 
L 332.104137 116.402461 
L 335.383476 99.059614 
L 338.662815 89.740758 
L 341.942154 93.062774 
L 345.221493 102.552299 
L 348.500832 89.818787 
L 351.78017 90.508365 
L 355.059509 84.299755 
L 358.338848 94.791937 
L 361.618187 93.726824 
L 364.897526 72.907188 
L 368.176865 74.078106 
L 371.456204 74.559124 
L 374.735542 73.373436 
L 378.014881 65.493783 
L 381.29422 64.038364 
L 384.573559 68.58717 
L 387.852898 58.626581 
" clip-path="url(#pae21b97a0e)" style="fill: none; stroke: #1f77b4; stroke-width: 1.5; stroke-linecap: square"/>
    <defs>
     <path id="m195fa33b1c" d="M 0 1.5 
C 0.397805 1.5 0.77937 1.341951 1.06066 1.06066 
C 1.341951 0.77937 1.5 0.397805 1.5 0 
C 1.5 -0.397805 1.341951 -0.77937 1.06066 -1.06066 
C 0.77937 -1.341951 0.397805 -1.5 0 -1.5 
C -0.397805 -1.5 -0.77937 -1.341951 -1.06066 -1.06066 
C -1.341951 -0.77937 -1.5 -0.397805 -1.5 0 
C -1.5 0.397805 -1.341951 0.77937 -1.06066 1.06066 
C -0.77937 1.341951 -0.397805 1.5 0 1.5 
z
" style="stroke: #1f77b4"/>
    </defs>
    <g clip-path="url(#pae21b97a0e)">
     <use xlink:href="#m195fa33b1c" x="63.198352" y="276.334125" style="fill: #1f77b4; stroke: #1f77b4"/>
     <use xlink:href="#m195fa33b1c" x="66.477691" y="274.738764" style="fill: #1f77b4; stroke: #1f77b4"/>
     <use xlink:href="#m195fa33b1c" x="69.75703" y="273.980119" style="fill: #1f77b4; stroke: #1f77b4"/>
     <use xlink:href="#m195fa33b1c" x="73.036369" y="272.624095" style="fill: #1f77b4; stroke: #1f77b4"/>
     <use xlink:href="#m195fa33b1c" x="76.315708" y="271.342068" style="fill: #1f77b4; stroke: #1f77b4"/>
     <use xlink:href="#m195fa33b1c" x="79.595046" y="270.395313" style="fill: #1f77b4; stroke: #1f77b4"/>
     <use xlink:href="#m195fa33b1c" x="82.874385" y="269.598545" style="fill: #1f77b4; stroke: #1f77b4"/>
     <use xlink:href="#m195fa33b1c" x="86.153724" y="268.689392" style="fill: #1f77b4; stroke: #1f77b4"/>
     <use xlink:href="#m195fa33b1c" x="89.433063" y="266.852927" style="fill: #1f77b4; stroke: #1f77b4"/>
     <use xlink:href="#m195fa33b1c" x="92.712402" y="266.590382" style="fill: #1f77b4; stroke: #1f77b4"/>
     <use xlink:href="#m195fa33b1c" x="95.991741" y="263.422809" style="fill: #1f77b4; stroke: #1f77b4"/>
     <use xlink:href="#m195fa33b1c" x="99.27108" y="261.238365" style="fill: #1f77b4; stroke: #1f77b4"/>
     <use xlink:href="#m195fa33b1c" x="102.550418" y="255.481031" style="fill: #1f77b4; stroke: #1f77b4"/>
     <use xlink:href="#m195fa33b1c" x="105.829757" y="254.809309" style="fill: #1f77b4; stroke: #1f77b4"/>
     <use xlink:href="#m195fa33b1c" x="109.109096" y="249.758268" style="fill: #1f77b4; stroke: #1f77b4"/>
     <use xlink:href="#m195fa33b1c" x="112.388435" y="249.042588" style="fill: #1f77b4; stroke: #1f77b4"/>
     <use xlink:href="#m195fa33b1c" x="115.667774" y="246.716059" style="fill: #1f77b4; stroke: #1f77b4"/>
     <use xlink:href="#m195fa33b1c" x="118.947113" y="248.532156" style="fill: #1f77b4; stroke: #1f77b4"/>
     <use xlink:href="#m195fa33b1c" x="122.226451" y="242.896401" style="fill: #1f77b4; stroke: #1f77b4"/>
     <use xlink:href="#m195fa33b1c" x="125.50579" y="240.966482" style="fill: #1f77b4; stroke: #1f77b4"/>
     <use xlink:href="#m195fa33b1c" x="128.785129" y="242.352518" style="fill: #1f77b4; stroke: #1f77b4"/>
     <use xlink:href="#m195fa33b1c" x="132.064468" y="236.737836" style="fill: #1f77b4; stroke: #1f77b4"/>
     <use xlink:href="#m195fa33b1c" x="135.343807" y="234.771535" style="fill: #1f77b4; stroke: #1f77b4"/>
     <use xlink:href="#m195fa33b1c" x="138.623146" y="234.040775" style="fill: #1f77b4; stroke: #1f77b4"/>
     <use xlink:href="#m195fa33b1c" x="141.902485" y="232.512545" style="fill: #1f77b4; stroke: #1f77b4"/>
     <use xlink:href="#m195fa33b1c" x="145.181823" y="234.536457" style="fill: #1f77b4; stroke: #1f77b4"/>
     <use xlink:href="#m195fa33b1c" x="148.461162" y="227.486706" style="fill: #1f77b4; stroke: #1f77b4"/>
     <use xlink:href="#m195fa33b1c" x="151.740501" y="227.585179" style="fill: #1f77b4; stroke: #1f77b4"/>
     <use xlink:href="#m195fa33b1c" x="155.01984" y="223.463178" style="fill: #1f77b4; stroke: #1f77b4"/>
     <use xlink:href="#m195fa33b1c" x="158.299179" y="227.816858" style="fill: #1f77b4; stroke: #1f77b4"/>
     <use xlink:href="#m195fa33b1c" x="161.578518" y="218.815042" style="fill: #1f77b4; stroke: #1f77b4"/>
     <use xlink:href="#m195fa33b1c" x="164.857856" y="217.010259" style="fill: #1f77b4; stroke: #1f77b4"/>
     <use xlink:href="#m195fa33b1c" x="168.137195" y="215.381602" style="fill: #1f77b4; stroke: #1f77b4"/>
     <use xlink:href="#m195fa33b1c" x="171.416534" y="219.904988" style="fill: #1f77b4; stroke: #1f77b4"/>
     <use xlink:href="#m195fa33b1c" x="174.695873" y="217.295348" style="fill: #1f77b4; stroke: #1f77b4"/>
     <use xlink:href="#m195fa33b1c" x="177.975212" y="210.746685" style="fill: #1f77b4; stroke: #1f77b4"/>
     <use xlink:href="#m195fa33b1c" x="181.254551" y="212.536136" style="fill: #1f77b4; stroke: #1f77b4"/>
     <use xlink:href="#m195fa33b1c" x="184.533889" y="205.20052" style="fill: #1f77b4; stroke: #1f77b4"/>
     <use xlink:href="#m195fa33b1c" x="187.813228" y="211.882121" style="fill: #1f77b4; stroke: #1f77b4"/>
     <use xlink:href="#m195fa33b1c" x="191.092567" y="201.185313" style="fill: #1f77b4; stroke: #1f77b4"/>
     <use xlink:href="#m195fa33b1c" x="194.371906" y="197.447062" style="fill: #1f77b4; stroke: #1f77b4"/>
     <use xlink:href="#m195fa33b1c" x="197.651245" y="202.014974" style="fill: #1f77b4; stroke: #1f77b4"/>
     <use xlink:href="#m195fa33b1c" x="200.930584" y="201.942003" style="fill: #1f77b4; stroke: #1f77b4"/>
     <use xlink:href="#m195fa33b1c" x="204.209923" y="202.032475" style="fill: #1f77b4; stroke: #1f77b4"/>
     <use xlink:href="#m195fa33b1c" x="207.489261" y="196.675762" style="fill: #1f77b4; stroke: #1f77b4"/>
     <use xlink:href="#m195fa33b1c" x="210.7686" y="192.999886" style="fill: #1f77b4; stroke: #1f77b4"/>
     <use xlink:href="#m195fa33b1c" x="214.047939" y="187.21008" style="fill: #1f77b4; stroke: #1f77b4"/>
     <use xlink:href="#m195fa33b1c" x="217.327278" y="197.017902" style="fill: #1f77b4; stroke: #1f77b4"/>
     <use xlink:href="#m195fa33b1c" x="220.606617" y="185.403048" style="fill: #1f77b4; stroke: #1f77b4"/>
     <use xlink:href="#m195fa33b1c" x="223.885956" y="182.346106" style="fill: #1f77b4; stroke: #1f77b4"/>
     <use xlink:href="#m195fa33b1c" x="227.165294" y="191.158335" style="fill: #1f77b4; stroke: #1f77b4"/>
     <use xlink:href="#m195fa33b1c" x="230.444633" y="186.590583" style="fill: #1f77b4; stroke: #1f77b4"/>
     <use xlink:href="#m195fa33b1c" x="233.723972" y="182.865257" style="fill: #1f77b4; stroke: #1f77b4"/>
     <use xlink:href="#m195fa33b1c" x="237.003311" y="183.705434" style="fill: #1f77b4; stroke: #1f77b4"/>
     <use xlink:href="#m195fa33b1c" x="240.28265" y="175.314739" style="fill: #1f77b4; stroke: #1f77b4"/>
     <use xlink:href="#m195fa33b1c" x="243.561989" y="180.377156" style="fill: #1f77b4; stroke: #1f77b4"/>
     <use xlink:href="#m195fa33b1c" x="246.841327" y="162.936372" style="fill: #1f77b4; stroke: #1f77b4"/>
     <use xlink:href="#m195fa33b1c" x="250.120666" y="166.946361" style="fill: #1f77b4; stroke: #1f77b4"/>
     <use xlink:href="#m195fa33b1c" x="253.400005" y="158.027765" style="fill: #1f77b4; stroke: #1f77b4"/>
     <use xlink:href="#m195fa33b1c" x="256.679344" y="156.877237" style="fill: #1f77b4; stroke: #1f77b4"/>
     <use xlink:href="#m195fa33b1c" x="259.958683" y="166.127537" style="fill: #1f77b4; stroke: #1f77b4"/>
     <use xlink:href="#m195fa33b1c" x="263.238022" y="169.657149" style="fill: #1f77b4; stroke: #1f77b4"/>
     <use xlink:href="#m195fa33b1c" x="266.517361" y="157.660258" style="fill: #1f77b4; stroke: #1f77b4"/>
     <use xlink:href="#m195fa33b1c" x="269.796699" y="146.259823" style="fill: #1f77b4; stroke: #1f77b4"/>
     <use xlink:href="#m195fa33b1c" x="273.076038" y="156.81125" style="fill: #1f77b4; stroke: #1f77b4"/>
     <use xlink:href="#m195fa33b1c" x="276.355377" y="136.488045" style="fill: #1f77b4; stroke: #1f77b4"/>
     <use xlink:href="#m195fa33b1c" x="279.634716" y="142.684935" style="fill: #1f77b4; stroke: #1f77b4"/>
     <use xlink:href="#m195fa33b1c" x="282.914055" y="140.631293" style="fill: #1f77b4; stroke: #1f77b4"/>
     <use xlink:href="#m195fa33b1c" x="286.193394" y="135.26848" style="fill: #1f77b4; stroke: #1f77b4"/>
     <use xlink:href="#m195fa33b1c" x="289.472732" y="135.438827" style="fill: #1f77b4; stroke: #1f77b4"/>
     <use xlink:href="#m195fa33b1c" x="292.752071" y="149.185111" style="fill: #1f77b4; stroke: #1f77b4"/>
     <use xlink:href="#m195fa33b1c" x="296.03141" y="127.646676" style="fill: #1f77b4; stroke: #1f77b4"/>
     <use xlink:href="#m195fa33b1c" x="299.310749" y="133.976023" style="fill: #1f77b4; stroke: #1f77b4"/>
     <use xlink:href="#m195fa33b1c" x="302.590088" y="139.702651" style="fill: #1f77b4; stroke: #1f77b4"/>
     <use xlink:href="#m195fa33b1c" x="305.869427" y="121.451873" style="fill: #1f77b4; stroke: #1f77b4"/>
     <use xlink:href="#m195fa33b1c" x="309.148765" y="121.206869" style="fill: #1f77b4; stroke: #1f77b4"/>
     <use xlink:href="#m195fa33b1c" x="312.428104" y="122.300881" style="fill: #1f77b4; stroke: #1f77b4"/>
     <use xlink:href="#m195fa33b1c" x="315.707443" y="122.643984" style="fill: #1f77b4; stroke: #1f77b4"/>
     <use xlink:href="#m195fa33b1c" x="318.986782" y="108.641457" style="fill: #1f77b4; stroke: #1f77b4"/>
     <use xlink:href="#m195fa33b1c" x="322.266121" y="129.050076" style="fill: #1f77b4; stroke: #1f77b4"/>
     <use xlink:href="#m195fa33b1c" x="325.54546" y="114.318474" style="fill: #1f77b4; stroke: #1f77b4"/>
     <use xlink:href="#m195fa33b1c" x="328.824799" y="96.268067" style="fill: #1f77b4; stroke: #1f77b4"/>
     <use xlink:href="#m195fa33b1c" x="332.104137" y="116.402461" style="fill: #1f77b4; stroke: #1f77b4"/>
     <use xlink:href="#m195fa33b1c" x="335.383476" y="99.059614" style="fill: #1f77b4; stroke: #1f77b4"/>
     <use xlink:href="#m195fa33b1c" x="338.662815" y="89.740758" style="fill: #1f77b4; stroke: #1f77b4"/>
     <use xlink:href="#m195fa33b1c" x="341.942154" y="93.062774" style="fill: #1f77b4; stroke: #1f77b4"/>
     <use xlink:href="#m195fa33b1c" x="345.221493" y="102.552299" style="fill: #1f77b4; stroke: #1f77b4"/>
     <use xlink:href="#m195fa33b1c" x="348.500832" y="89.818787" style="fill: #1f77b4; stroke: #1f77b4"/>
     <use xlink:href="#m195fa33b1c" x="351.78017" y="90.508365" style="fill: #1f77b4; stroke: #1f77b4"/>
     <use xlink:href="#m195fa33b1c" x="355.059509" y="84.299755" style="fill: #1f77b4; stroke: #1f77b4"/>
     <use xlink:href="#m195fa33b1c" x="358.338848" y="94.791937" style="fill: #1f77b4; stroke: #1f77b4"/>
     <use xlink:href="#m195fa33b1c" x="361.618187" y="93.726824" style="fill: #1f77b4; stroke: #1f77b4"/>
     <use xlink:href="#m195fa33b1c" x="364.897526" y="72.907188" style="fill: #1f77b4; stroke: #1f77b4"/>
     <use xlink:href="#m195fa33b1c" x="368.176865" y="74.078106" style="fill: #1f77b4; stroke: #1f77b4"/>
     <use xlink:href="#m195fa33b1c" x="371.456204" y="74.559124" style="fill: #1f77b4; stroke: #1f77b4"/>
     <use xlink:href="#m195fa33b1c" x="374.735542" y="73.373436" style="fill: #1f77b4; stroke: #1f77b4"/>
     <use xlink:href="#m195fa33b1c" x="378.014881" y="65.493783" style="fill: #1f77b4; stroke: #1f77b4"/>
     <use xlink:href="#m195fa33b1c" x="381.29422" y="64.038364" style="fill: #1f77b4; stroke: #1f77b4"/>
     <use xlink:href="#m195fa33b1c" x="384.573559" y="68.58717" style="fill: #1f77b4; stroke: #1f77b4"/>
     <use xlink:href="#m195fa33b1c" x="387.852898" y="58.626581" style="fill: #1f77b4; stroke: #1f77b4"/>
    </g>
   </g>
   <g id="line2d_16">
    <path d="M 63.198352 276.333517 
L 66.477691 274.836033 
L 69.75703 274.024162 
L 73.036369 272.712813 
L 76.315708 273.907388 
L 79.595046 274.000369 
L 82.874385 274.218989 
L 86.153724 274.2857 
L 89.433063 273.683736 
L 92.712402 274.13223 
L 95.991741 274.102732 
L 99.27108 274.033208 
L 102.550418 274.077521 
L 105.829757 274.039189 
L 109.109096 273.866249 
L 112.388435 273.889472 
L 115.667774 273.846016 
L 118.947113 273.408662 
L 122.226451 273.492214 
L 125.50579 273.357349 
L 128.785129 273.694279 
L 132.064468 274.164099 
L 135.343807 274.345485 
L 138.623146 274.360015 
L 141.902485 273.156545 
L 145.181823 273.793702 
L 148.461162 273.947031 
L 151.740501 273.973683 
L 155.01984 273.966511 
L 158.299179 273.981818 
L 161.578518 274.149596 
L 164.857856 273.805904 
L 168.137195 274.094526 
L 171.416534 274.205362 
L 174.695873 273.866032 
L 177.975212 274.149409 
L 181.254551 274.223825 
L 184.533889 273.557367 
L 187.813228 274.050508 
L 191.092567 273.448833 
L 194.371906 273.147153 
L 197.651245 273.719928 
L 200.930584 273.504625 
L 204.209923 273.145146 
L 207.489261 273.56684 
L 210.7686 273.593331 
L 214.047939 273.683964 
L 217.327278 273.930173 
L 220.606617 273.951125 
L 223.885956 274.030439 
L 227.165294 274.148526 
L 230.444633 274.192357 
L 233.723972 274.095543 
L 237.003311 273.95554 
L 240.28265 274.214192 
L 243.561989 274.015106 
L 246.841327 274.083823 
L 250.120666 274.112722 
L 253.400005 273.713104 
L 256.679344 273.50021 
L 259.958683 273.891158 
L 263.238022 273.9032 
L 266.517361 273.888589 
L 269.796699 273.950884 
L 273.076038 273.960517 
L 276.355377 273.424589 
L 279.634716 273.745857 
L 282.914055 274.098112 
L 286.193394 274.134397 
L 289.472732 273.854391 
L 292.752071 274.0599 
L 296.03141 274.010289 
L 299.310749 274.383576 
L 302.590088 274.274079 
L 305.869427 274.385824 
L 309.148765 273.850056 
L 312.428104 274.31791 
L 315.707443 274.47172 
L 318.986782 274.409586 
L 322.266121 274.628902 
L 325.54546 273.790812 
L 328.824799 274.017514 
L 332.104137 274.113686 
L 335.383476 274.288368 
L 338.662815 274.383095 
L 341.942154 274.479106 
L 345.221493 274.617021 
L 348.500832 274.63404 
L 351.78017 273.915723 
L 355.059509 274.112241 
L 358.338848 274.469633 
L 361.618187 274.491308 
L 364.897526 274.440573 
L 368.176865 273.982513 
L 371.456204 274.194123 
L 374.735542 274.167953 
L 378.014881 274.157998 
L 381.29422 274.347291 
L 384.573559 274.613971 
L 387.852898 274.630187 
" clip-path="url(#pae21b97a0e)" style="fill: none; stroke: #ff7f0e; stroke-width: 1.5; stroke-linecap: square"/>
    <defs>
     <path id="mb207142cb4" d="M 0 1.5 
C 0.397805 1.5 0.77937 1.341951 1.06066 1.06066 
C 1.341951 0.77937 1.5 0.397805 1.5 0 
C 1.5 -0.397805 1.341951 -0.77937 1.06066 -1.06066 
C 0.77937 -1.341951 0.397805 -1.5 0 -1.5 
C -0.397805 -1.5 -0.77937 -1.341951 -1.06066 -1.06066 
C -1.341951 -0.77937 -1.5 -0.397805 -1.5 0 
C -1.5 0.397805 -1.341951 0.77937 -1.06066 1.06066 
C -0.77937 1.341951 -0.397805 1.5 0 1.5 
z
" style="stroke: #ff7f0e"/>
    </defs>
    <g clip-path="url(#pae21b97a0e)">
     <use xlink:href="#mb207142cb4" x="63.198352" y="276.333517" style="fill: #ff7f0e; stroke: #ff7f0e"/>
     <use xlink:href="#mb207142cb4" x="66.477691" y="274.836033" style="fill: #ff7f0e; stroke: #ff7f0e"/>
     <use xlink:href="#mb207142cb4" x="69.75703" y="274.024162" style="fill: #ff7f0e; stroke: #ff7f0e"/>
     <use xlink:href="#mb207142cb4" x="73.036369" y="272.712813" style="fill: #ff7f0e; stroke: #ff7f0e"/>
     <use xlink:href="#mb207142cb4" x="76.315708" y="273.907388" style="fill: #ff7f0e; stroke: #ff7f0e"/>
     <use xlink:href="#mb207142cb4" x="79.595046" y="274.000369" style="fill: #ff7f0e; stroke: #ff7f0e"/>
     <use xlink:href="#mb207142cb4" x="82.874385" y="274.218989" style="fill: #ff7f0e; stroke: #ff7f0e"/>
     <use xlink:href="#mb207142cb4" x="86.153724" y="274.2857" style="fill: #ff7f0e; stroke: #ff7f0e"/>
     <use xlink:href="#mb207142cb4" x="89.433063" y="273.683736" style="fill: #ff7f0e; stroke: #ff7f0e"/>
     <use xlink:href="#mb207142cb4" x="92.712402" y="274.13223" style="fill: #ff7f0e; stroke: #ff7f0e"/>
     <use xlink:href="#mb207142cb4" x="95.991741" y="274.102732" style="fill: #ff7f0e; stroke: #ff7f0e"/>
     <use xlink:href="#mb207142cb4" x="99.27108" y="274.033208" style="fill: #ff7f0e; stroke: #ff7f0e"/>
     <use xlink:href="#mb207142cb4" x="102.550418" y="274.077521" style="fill: #ff7f0e; stroke: #ff7f0e"/>
     <use xlink:href="#mb207142cb4" x="105.829757" y="274.039189" style="fill: #ff7f0e; stroke: #ff7f0e"/>
     <use xlink:href="#mb207142cb4" x="109.109096" y="273.866249" style="fill: #ff7f0e; stroke: #ff7f0e"/>
     <use xlink:href="#mb207142cb4" x="112.388435" y="273.889472" style="fill: #ff7f0e; stroke: #ff7f0e"/>
     <use xlink:href="#mb207142cb4" x="115.667774" y="273.846016" style="fill: #ff7f0e; stroke: #ff7f0e"/>
     <use xlink:href="#mb207142cb4" x="118.947113" y="273.408662" style="fill: #ff7f0e; stroke: #ff7f0e"/>
     <use xlink:href="#mb207142cb4" x="122.226451" y="273.492214" style="fill: #ff7f0e; stroke: #ff7f0e"/>
     <use xlink:href="#mb207142cb4" x="125.50579" y="273.357349" style="fill: #ff7f0e; stroke: #ff7f0e"/>
     <use xlink:href="#mb207142cb4" x="128.785129" y="273.694279" style="fill: #ff7f0e; stroke: #ff7f0e"/>
     <use xlink:href="#mb207142cb4" x="132.064468" y="274.164099" style="fill: #ff7f0e; stroke: #ff7f0e"/>
     <use xlink:href="#mb207142cb4" x="135.343807" y="274.345485" style="fill: #ff7f0e; stroke: #ff7f0e"/>
     <use xlink:href="#mb207142cb4" x="138.623146" y="274.360015" style="fill: #ff7f0e; stroke: #ff7f0e"/>
     <use xlink:href="#mb207142cb4" x="141.902485" y="273.156545" style="fill: #ff7f0e; stroke: #ff7f0e"/>
     <use xlink:href="#mb207142cb4" x="145.181823" y="273.793702" style="fill: #ff7f0e; stroke: #ff7f0e"/>
     <use xlink:href="#mb207142cb4" x="148.461162" y="273.947031" style="fill: #ff7f0e; stroke: #ff7f0e"/>
     <use xlink:href="#mb207142cb4" x="151.740501" y="273.973683" style="fill: #ff7f0e; stroke: #ff7f0e"/>
     <use xlink:href="#mb207142cb4" x="155.01984" y="273.966511" style="fill: #ff7f0e; stroke: #ff7f0e"/>
     <use xlink:href="#mb207142cb4" x="158.299179" y="273.981818" style="fill: #ff7f0e; stroke: #ff7f0e"/>
     <use xlink:href="#mb207142cb4" x="161.578518" y="274.149596" style="fill: #ff7f0e; stroke: #ff7f0e"/>
     <use xlink:href="#mb207142cb4" x="164.857856" y="273.805904" style="fill: #ff7f0e; stroke: #ff7f0e"/>
     <use xlink:href="#mb207142cb4" x="168.137195" y="274.094526" style="fill: #ff7f0e; stroke: #ff7f0e"/>
     <use xlink:href="#mb207142cb4" x="171.416534" y="274.205362" style="fill: #ff7f0e; stroke: #ff7f0e"/>
     <use xlink:href="#mb207142cb4" x="174.695873" y="273.866032" style="fill: #ff7f0e; stroke: #ff7f0e"/>
     <use xlink:href="#mb207142cb4" x="177.975212" y="274.149409" style="fill: #ff7f0e; stroke: #ff7f0e"/>
     <use xlink:href="#mb207142cb4" x="181.254551" y="274.223825" style="fill: #ff7f0e; stroke: #ff7f0e"/>
     <use xlink:href="#mb207142cb4" x="184.533889" y="273.557367" style="fill: #ff7f0e; stroke: #ff7f0e"/>
     <use xlink:href="#mb207142cb4" x="187.813228" y="274.050508" style="fill: #ff7f0e; stroke: #ff7f0e"/>
     <use xlink:href="#mb207142cb4" x="191.092567" y="273.448833" style="fill: #ff7f0e; stroke: #ff7f0e"/>
     <use xlink:href="#mb207142cb4" x="194.371906" y="273.147153" style="fill: #ff7f0e; stroke: #ff7f0e"/>
     <use xlink:href="#mb207142cb4" x="197.651245" y="273.719928" style="fill: #ff7f0e; stroke: #ff7f0e"/>
     <use xlink:href="#mb207142cb4" x="200.930584" y="273.504625" style="fill: #ff7f0e; stroke: #ff7f0e"/>
     <use xlink:href="#mb207142cb4" x="204.209923" y="273.145146" style="fill: #ff7f0e; stroke: #ff7f0e"/>
     <use xlink:href="#mb207142cb4" x="207.489261" y="273.56684" style="fill: #ff7f0e; stroke: #ff7f0e"/>
     <use xlink:href="#mb207142cb4" x="210.7686" y="273.593331" style="fill: #ff7f0e; stroke: #ff7f0e"/>
     <use xlink:href="#mb207142cb4" x="214.047939" y="273.683964" style="fill: #ff7f0e; stroke: #ff7f0e"/>
     <use xlink:href="#mb207142cb4" x="217.327278" y="273.930173" style="fill: #ff7f0e; stroke: #ff7f0e"/>
     <use xlink:href="#mb207142cb4" x="220.606617" y="273.951125" style="fill: #ff7f0e; stroke: #ff7f0e"/>
     <use xlink:href="#mb207142cb4" x="223.885956" y="274.030439" style="fill: #ff7f0e; stroke: #ff7f0e"/>
     <use xlink:href="#mb207142cb4" x="227.165294" y="274.148526" style="fill: #ff7f0e; stroke: #ff7f0e"/>
     <use xlink:href="#mb207142cb4" x="230.444633" y="274.192357" style="fill: #ff7f0e; stroke: #ff7f0e"/>
     <use xlink:href="#mb207142cb4" x="233.723972" y="274.095543" style="fill: #ff7f0e; stroke: #ff7f0e"/>
     <use xlink:href="#mb207142cb4" x="237.003311" y="273.95554" style="fill: #ff7f0e; stroke: #ff7f0e"/>
     <use xlink:href="#mb207142cb4" x="240.28265" y="274.214192" style="fill: #ff7f0e; stroke: #ff7f0e"/>
     <use xlink:href="#mb207142cb4" x="243.561989" y="274.015106" style="fill: #ff7f0e; stroke: #ff7f0e"/>
     <use xlink:href="#mb207142cb4" x="246.841327" y="274.083823" style="fill: #ff7f0e; stroke: #ff7f0e"/>
     <use xlink:href="#mb207142cb4" x="250.120666" y="274.112722" style="fill: #ff7f0e; stroke: #ff7f0e"/>
     <use xlink:href="#mb207142cb4" x="253.400005" y="273.713104" style="fill: #ff7f0e; stroke: #ff7f0e"/>
     <use xlink:href="#mb207142cb4" x="256.679344" y="273.50021" style="fill: #ff7f0e; stroke: #ff7f0e"/>
     <use xlink:href="#mb207142cb4" x="259.958683" y="273.891158" style="fill: #ff7f0e; stroke: #ff7f0e"/>
     <use xlink:href="#mb207142cb4" x="263.238022" y="273.9032" style="fill: #ff7f0e; stroke: #ff7f0e"/>
     <use xlink:href="#mb207142cb4" x="266.517361" y="273.888589" style="fill: #ff7f0e; stroke: #ff7f0e"/>
     <use xlink:href="#mb207142cb4" x="269.796699" y="273.950884" style="fill: #ff7f0e; stroke: #ff7f0e"/>
     <use xlink:href="#mb207142cb4" x="273.076038" y="273.960517" style="fill: #ff7f0e; stroke: #ff7f0e"/>
     <use xlink:href="#mb207142cb4" x="276.355377" y="273.424589" style="fill: #ff7f0e; stroke: #ff7f0e"/>
     <use xlink:href="#mb207142cb4" x="279.634716" y="273.745857" style="fill: #ff7f0e; stroke: #ff7f0e"/>
     <use xlink:href="#mb207142cb4" x="282.914055" y="274.098112" style="fill: #ff7f0e; stroke: #ff7f0e"/>
     <use xlink:href="#mb207142cb4" x="286.193394" y="274.134397" style="fill: #ff7f0e; stroke: #ff7f0e"/>
     <use xlink:href="#mb207142cb4" x="289.472732" y="273.854391" style="fill: #ff7f0e; stroke: #ff7f0e"/>
     <use xlink:href="#mb207142cb4" x="292.752071" y="274.0599" style="fill: #ff7f0e; stroke: #ff7f0e"/>
     <use xlink:href="#mb207142cb4" x="296.03141" y="274.010289" style="fill: #ff7f0e; stroke: #ff7f0e"/>
     <use xlink:href="#mb207142cb4" x="299.310749" y="274.383576" style="fill: #ff7f0e; stroke: #ff7f0e"/>
     <use xlink:href="#mb207142cb4" x="302.590088" y="274.274079" style="fill: #ff7f0e; stroke: #ff7f0e"/>
     <use xlink:href="#mb207142cb4" x="305.869427" y="274.385824" style="fill: #ff7f0e; stroke: #ff7f0e"/>
     <use xlink:href="#mb207142cb4" x="309.148765" y="273.850056" style="fill: #ff7f0e; stroke: #ff7f0e"/>
     <use xlink:href="#mb207142cb4" x="312.428104" y="274.31791" style="fill: #ff7f0e; stroke: #ff7f0e"/>
     <use xlink:href="#mb207142cb4" x="315.707443" y="274.47172" style="fill: #ff7f0e; stroke: #ff7f0e"/>
     <use xlink:href="#mb207142cb4" x="318.986782" y="274.409586" style="fill: #ff7f0e; stroke: #ff7f0e"/>
     <use xlink:href="#mb207142cb4" x="322.266121" y="274.628902" style="fill: #ff7f0e; stroke: #ff7f0e"/>
     <use xlink:href="#mb207142cb4" x="325.54546" y="273.790812" style="fill: #ff7f0e; stroke: #ff7f0e"/>
     <use xlink:href="#mb207142cb4" x="328.824799" y="274.017514" style="fill: #ff7f0e; stroke: #ff7f0e"/>
     <use xlink:href="#mb207142cb4" x="332.104137" y="274.113686" style="fill: #ff7f0e; stroke: #ff7f0e"/>
     <use xlink:href="#mb207142cb4" x="335.383476" y="274.288368" style="fill: #ff7f0e; stroke: #ff7f0e"/>
     <use xlink:href="#mb207142cb4" x="338.662815" y="274.383095" style="fill: #ff7f0e; stroke: #ff7f0e"/>
     <use xlink:href="#mb207142cb4" x="341.942154" y="274.479106" style="fill: #ff7f0e; stroke: #ff7f0e"/>
     <use xlink:href="#mb207142cb4" x="345.221493" y="274.617021" style="fill: #ff7f0e; stroke: #ff7f0e"/>
     <use xlink:href="#mb207142cb4" x="348.500832" y="274.63404" style="fill: #ff7f0e; stroke: #ff7f0e"/>
     <use xlink:href="#mb207142cb4" x="351.78017" y="273.915723" style="fill: #ff7f0e; stroke: #ff7f0e"/>
     <use xlink:href="#mb207142cb4" x="355.059509" y="274.112241" style="fill: #ff7f0e; stroke: #ff7f0e"/>
     <use xlink:href="#mb207142cb4" x="358.338848" y="274.469633" style="fill: #ff7f0e; stroke: #ff7f0e"/>
     <use xlink:href="#mb207142cb4" x="361.618187" y="274.491308" style="fill: #ff7f0e; stroke: #ff7f0e"/>
     <use xlink:href="#mb207142cb4" x="364.897526" y="274.440573" style="fill: #ff7f0e; stroke: #ff7f0e"/>
     <use xlink:href="#mb207142cb4" x="368.176865" y="273.982513" style="fill: #ff7f0e; stroke: #ff7f0e"/>
     <use xlink:href="#mb207142cb4" x="371.456204" y="274.194123" style="fill: #ff7f0e; stroke: #ff7f0e"/>
     <use xlink:href="#mb207142cb4" x="374.735542" y="274.167953" style="fill: #ff7f0e; stroke: #ff7f0e"/>
     <use xlink:href="#mb207142cb4" x="378.014881" y="274.157998" style="fill: #ff7f0e; stroke: #ff7f0e"/>
     <use xlink:href="#mb207142cb4" x="381.29422" y="274.347291" style="fill: #ff7f0e; stroke: #ff7f0e"/>
     <use xlink:href="#mb207142cb4" x="384.573559" y="274.613971" style="fill: #ff7f0e; stroke: #ff7f0e"/>
     <use xlink:href="#mb207142cb4" x="387.852898" y="274.630187" style="fill: #ff7f0e; stroke: #ff7f0e"/>
    </g>
   </g>
   <g id="line2d_17">
    <path d="M 63.198352 274.833807 
L 66.477691 274.778724 
L 69.75703 274.809112 
L 73.036369 274.684128 
L 76.315708 274.639352 
L 79.595046 274.652816 
L 82.874385 274.849714 
L 86.153724 274.841377 
L 89.433063 273.887573 
L 92.712402 274.379033 
L 95.991741 274.417417 
L 99.27108 274.299446 
L 102.550418 274.119345 
L 105.829757 274.6531 
L 109.109096 274.111231 
L 112.388435 274.151844 
L 115.667774 274.046976 
L 118.947113 273.91887 
L 122.226451 273.855933 
L 125.50579 274.486299 
L 128.785129 274.621517 
L 132.064468 274.965182 
L 135.343807 274.968393 
L 138.623146 274.873104 
L 141.902485 273.585986 
L 145.181823 274.376726 
L 148.461162 274.423287 
L 151.740501 274.481032 
L 155.01984 274.584429 
L 158.299179 274.295753 
L 161.578518 274.351626 
L 164.857856 274.229926 
L 168.137195 274.321067 
L 171.416534 274.320318 
L 174.695873 274.333162 
L 177.975212 274.516194 
L 181.254551 274.519084 
L 184.533889 274.08013 
L 187.813228 274.069694 
L 191.092567 273.861697 
L 194.371906 273.854953 
L 197.651245 274.00475 
L 200.930584 273.97858 
L 204.209923 274.029716 
L 207.489261 274.000897 
L 210.7686 274.151576 
L 214.047939 274.087596 
L 217.327278 274.273517 
L 220.606617 274.232335 
L 223.885956 274.302416 
L 227.165294 274.058937 
L 230.444633 274.328667 
L 233.723972 274.325777 
L 237.003311 274.310203 
L 240.28265 274.356603 
L 243.561989 274.373783 
L 246.841327 274.026184 
L 250.120666 274.113525 
L 253.400005 273.757417 
L 256.679344 273.307225 
L 259.958683 273.424429 
L 263.238022 273.542436 
L 266.517361 273.733495 
L 269.796699 272.839211 
L 273.076038 272.872445 
L 276.355377 272.339246 
L 279.634716 273.11729 
L 282.914055 274.008684 
L 286.193394 273.70042 
L 289.472732 273.82196 
L 292.752071 273.975288 
L 296.03141 274.054281 
L 299.310749 274.271992 
L 302.590088 274.29174 
L 305.869427 274.071621 
L 309.148765 273.735261 
L 312.428104 273.566679 
L 315.707443 274.074671 
L 318.986782 273.56684 
L 322.266121 274.46883 
L 325.54546 273.289885 
L 328.824799 273.860332 
L 332.104137 273.97866 
L 335.383476 273.94093 
L 338.662815 273.995197 
L 341.942154 274.302497 
L 345.221493 274.157356 
L 348.500832 274.097309 
L 351.78017 273.422663 
L 355.059509 273.984119 
L 358.338848 273.911709 
L 361.618187 274.299928 
L 364.897526 274.404448 
L 368.176865 272.579595 
L 371.456204 273.841708 
L 374.735542 274.328185 
L 378.014881 274.330273 
L 381.29422 274.200706 
L 384.573559 274.429816 
L 387.852898 274.414884 
" clip-path="url(#pae21b97a0e)" style="fill: none; stroke: #2ca02c; stroke-width: 1.5; stroke-linecap: square"/>
    <defs>
     <path id="m70aa6265f2" d="M 0 1.5 
C 0.397805 1.5 0.77937 1.341951 1.06066 1.06066 
C 1.341951 0.77937 1.5 0.397805 1.5 0 
C 1.5 -0.397805 1.341951 -0.77937 1.06066 -1.06066 
C 0.77937 -1.341951 0.397805 -1.5 0 -1.5 
C -0.397805 -1.5 -0.77937 -1.341951 -1.06066 -1.06066 
C -1.341951 -0.77937 -1.5 -0.397805 -1.5 0 
C -1.5 0.397805 -1.341951 0.77937 -1.06066 1.06066 
C -0.77937 1.341951 -0.397805 1.5 0 1.5 
z
" style="stroke: #2ca02c"/>
    </defs>
    <g clip-path="url(#pae21b97a0e)">
     <use xlink:href="#m70aa6265f2" x="63.198352" y="274.833807" style="fill: #2ca02c; stroke: #2ca02c"/>
     <use xlink:href="#m70aa6265f2" x="66.477691" y="274.778724" style="fill: #2ca02c; stroke: #2ca02c"/>
     <use xlink:href="#m70aa6265f2" x="69.75703" y="274.809112" style="fill: #2ca02c; stroke: #2ca02c"/>
     <use xlink:href="#m70aa6265f2" x="73.036369" y="274.684128" style="fill: #2ca02c; stroke: #2ca02c"/>
     <use xlink:href="#m70aa6265f2" x="76.315708" y="274.639352" style="fill: #2ca02c; stroke: #2ca02c"/>
     <use xlink:href="#m70aa6265f2" x="79.595046" y="274.652816" style="fill: #2ca02c; stroke: #2ca02c"/>
     <use xlink:href="#m70aa6265f2" x="82.874385" y="274.849714" style="fill: #2ca02c; stroke: #2ca02c"/>
     <use xlink:href="#m70aa6265f2" x="86.153724" y="274.841377" style="fill: #2ca02c; stroke: #2ca02c"/>
     <use xlink:href="#m70aa6265f2" x="89.433063" y="273.887573" style="fill: #2ca02c; stroke: #2ca02c"/>
     <use xlink:href="#m70aa6265f2" x="92.712402" y="274.379033" style="fill: #2ca02c; stroke: #2ca02c"/>
     <use xlink:href="#m70aa6265f2" x="95.991741" y="274.417417" style="fill: #2ca02c; stroke: #2ca02c"/>
     <use xlink:href="#m70aa6265f2" x="99.27108" y="274.299446" style="fill: #2ca02c; stroke: #2ca02c"/>
     <use xlink:href="#m70aa6265f2" x="102.550418" y="274.119345" style="fill: #2ca02c; stroke: #2ca02c"/>
     <use xlink:href="#m70aa6265f2" x="105.829757" y="274.6531" style="fill: #2ca02c; stroke: #2ca02c"/>
     <use xlink:href="#m70aa6265f2" x="109.109096" y="274.111231" style="fill: #2ca02c; stroke: #2ca02c"/>
     <use xlink:href="#m70aa6265f2" x="112.388435" y="274.151844" style="fill: #2ca02c; stroke: #2ca02c"/>
     <use xlink:href="#m70aa6265f2" x="115.667774" y="274.046976" style="fill: #2ca02c; stroke: #2ca02c"/>
     <use xlink:href="#m70aa6265f2" x="118.947113" y="273.91887" style="fill: #2ca02c; stroke: #2ca02c"/>
     <use xlink:href="#m70aa6265f2" x="122.226451" y="273.855933" style="fill: #2ca02c; stroke: #2ca02c"/>
     <use xlink:href="#m70aa6265f2" x="125.50579" y="274.486299" style="fill: #2ca02c; stroke: #2ca02c"/>
     <use xlink:href="#m70aa6265f2" x="128.785129" y="274.621517" style="fill: #2ca02c; stroke: #2ca02c"/>
     <use xlink:href="#m70aa6265f2" x="132.064468" y="274.965182" style="fill: #2ca02c; stroke: #2ca02c"/>
     <use xlink:href="#m70aa6265f2" x="135.343807" y="274.968393" style="fill: #2ca02c; stroke: #2ca02c"/>
     <use xlink:href="#m70aa6265f2" x="138.623146" y="274.873104" style="fill: #2ca02c; stroke: #2ca02c"/>
     <use xlink:href="#m70aa6265f2" x="141.902485" y="273.585986" style="fill: #2ca02c; stroke: #2ca02c"/>
     <use xlink:href="#m70aa6265f2" x="145.181823" y="274.376726" style="fill: #2ca02c; stroke: #2ca02c"/>
     <use xlink:href="#m70aa6265f2" x="148.461162" y="274.423287" style="fill: #2ca02c; stroke: #2ca02c"/>
     <use xlink:href="#m70aa6265f2" x="151.740501" y="274.481032" style="fill: #2ca02c; stroke: #2ca02c"/>
     <use xlink:href="#m70aa6265f2" x="155.01984" y="274.584429" style="fill: #2ca02c; stroke: #2ca02c"/>
     <use xlink:href="#m70aa6265f2" x="158.299179" y="274.295753" style="fill: #2ca02c; stroke: #2ca02c"/>
     <use xlink:href="#m70aa6265f2" x="161.578518" y="274.351626" style="fill: #2ca02c; stroke: #2ca02c"/>
     <use xlink:href="#m70aa6265f2" x="164.857856" y="274.229926" style="fill: #2ca02c; stroke: #2ca02c"/>
     <use xlink:href="#m70aa6265f2" x="168.137195" y="274.321067" style="fill: #2ca02c; stroke: #2ca02c"/>
     <use xlink:href="#m70aa6265f2" x="171.416534" y="274.320318" style="fill: #2ca02c; stroke: #2ca02c"/>
     <use xlink:href="#m70aa6265f2" x="174.695873" y="274.333162" style="fill: #2ca02c; stroke: #2ca02c"/>
     <use xlink:href="#m70aa6265f2" x="177.975212" y="274.516194" style="fill: #2ca02c; stroke: #2ca02c"/>
     <use xlink:href="#m70aa6265f2" x="181.254551" y="274.519084" style="fill: #2ca02c; stroke: #2ca02c"/>
     <use xlink:href="#m70aa6265f2" x="184.533889" y="274.08013" style="fill: #2ca02c; stroke: #2ca02c"/>
     <use xlink:href="#m70aa6265f2" x="187.813228" y="274.069694" style="fill: #2ca02c; stroke: #2ca02c"/>
     <use xlink:href="#m70aa6265f2" x="191.092567" y="273.861697" style="fill: #2ca02c; stroke: #2ca02c"/>
     <use xlink:href="#m70aa6265f2" x="194.371906" y="273.854953" style="fill: #2ca02c; stroke: #2ca02c"/>
     <use xlink:href="#m70aa6265f2" x="197.651245" y="274.00475" style="fill: #2ca02c; stroke: #2ca02c"/>
     <use xlink:href="#m70aa6265f2" x="200.930584" y="273.97858" style="fill: #2ca02c; stroke: #2ca02c"/>
     <use xlink:href="#m70aa6265f2" x="204.209923" y="274.029716" style="fill: #2ca02c; stroke: #2ca02c"/>
     <use xlink:href="#m70aa6265f2" x="207.489261" y="274.000897" style="fill: #2ca02c; stroke: #2ca02c"/>
     <use xlink:href="#m70aa6265f2" x="210.7686" y="274.151576" style="fill: #2ca02c; stroke: #2ca02c"/>
     <use xlink:href="#m70aa6265f2" x="214.047939" y="274.087596" style="fill: #2ca02c; stroke: #2ca02c"/>
     <use xlink:href="#m70aa6265f2" x="217.327278" y="274.273517" style="fill: #2ca02c; stroke: #2ca02c"/>
     <use xlink:href="#m70aa6265f2" x="220.606617" y="274.232335" style="fill: #2ca02c; stroke: #2ca02c"/>
     <use xlink:href="#m70aa6265f2" x="223.885956" y="274.302416" style="fill: #2ca02c; stroke: #2ca02c"/>
     <use xlink:href="#m70aa6265f2" x="227.165294" y="274.058937" style="fill: #2ca02c; stroke: #2ca02c"/>
     <use xlink:href="#m70aa6265f2" x="230.444633" y="274.328667" style="fill: #2ca02c; stroke: #2ca02c"/>
     <use xlink:href="#m70aa6265f2" x="233.723972" y="274.325777" style="fill: #2ca02c; stroke: #2ca02c"/>
     <use xlink:href="#m70aa6265f2" x="237.003311" y="274.310203" style="fill: #2ca02c; stroke: #2ca02c"/>
     <use xlink:href="#m70aa6265f2" x="240.28265" y="274.356603" style="fill: #2ca02c; stroke: #2ca02c"/>
     <use xlink:href="#m70aa6265f2" x="243.561989" y="274.373783" style="fill: #2ca02c; stroke: #2ca02c"/>
     <use xlink:href="#m70aa6265f2" x="246.841327" y="274.026184" style="fill: #2ca02c; stroke: #2ca02c"/>
     <use xlink:href="#m70aa6265f2" x="250.120666" y="274.113525" style="fill: #2ca02c; stroke: #2ca02c"/>
     <use xlink:href="#m70aa6265f2" x="253.400005" y="273.757417" style="fill: #2ca02c; stroke: #2ca02c"/>
     <use xlink:href="#m70aa6265f2" x="256.679344" y="273.307225" style="fill: #2ca02c; stroke: #2ca02c"/>
     <use xlink:href="#m70aa6265f2" x="259.958683" y="273.424429" style="fill: #2ca02c; stroke: #2ca02c"/>
     <use xlink:href="#m70aa6265f2" x="263.238022" y="273.542436" style="fill: #2ca02c; stroke: #2ca02c"/>
     <use xlink:href="#m70aa6265f2" x="266.517361" y="273.733495" style="fill: #2ca02c; stroke: #2ca02c"/>
     <use xlink:href="#m70aa6265f2" x="269.796699" y="272.839211" style="fill: #2ca02c; stroke: #2ca02c"/>
     <use xlink:href="#m70aa6265f2" x="273.076038" y="272.872445" style="fill: #2ca02c; stroke: #2ca02c"/>
     <use xlink:href="#m70aa6265f2" x="276.355377" y="272.339246" style="fill: #2ca02c; stroke: #2ca02c"/>
     <use xlink:href="#m70aa6265f2" x="279.634716" y="273.11729" style="fill: #2ca02c; stroke: #2ca02c"/>
     <use xlink:href="#m70aa6265f2" x="282.914055" y="274.008684" style="fill: #2ca02c; stroke: #2ca02c"/>
     <use xlink:href="#m70aa6265f2" x="286.193394" y="273.70042" style="fill: #2ca02c; stroke: #2ca02c"/>
     <use xlink:href="#m70aa6265f2" x="289.472732" y="273.82196" style="fill: #2ca02c; stroke: #2ca02c"/>
     <use xlink:href="#m70aa6265f2" x="292.752071" y="273.975288" style="fill: #2ca02c; stroke: #2ca02c"/>
     <use xlink:href="#m70aa6265f2" x="296.03141" y="274.054281" style="fill: #2ca02c; stroke: #2ca02c"/>
     <use xlink:href="#m70aa6265f2" x="299.310749" y="274.271992" style="fill: #2ca02c; stroke: #2ca02c"/>
     <use xlink:href="#m70aa6265f2" x="302.590088" y="274.29174" style="fill: #2ca02c; stroke: #2ca02c"/>
     <use xlink:href="#m70aa6265f2" x="305.869427" y="274.071621" style="fill: #2ca02c; stroke: #2ca02c"/>
     <use xlink:href="#m70aa6265f2" x="309.148765" y="273.735261" style="fill: #2ca02c; stroke: #2ca02c"/>
     <use xlink:href="#m70aa6265f2" x="312.428104" y="273.566679" style="fill: #2ca02c; stroke: #2ca02c"/>
     <use xlink:href="#m70aa6265f2" x="315.707443" y="274.074671" style="fill: #2ca02c; stroke: #2ca02c"/>
     <use xlink:href="#m70aa6265f2" x="318.986782" y="273.56684" style="fill: #2ca02c; stroke: #2ca02c"/>
     <use xlink:href="#m70aa6265f2" x="322.266121" y="274.46883" style="fill: #2ca02c; stroke: #2ca02c"/>
     <use xlink:href="#m70aa6265f2" x="325.54546" y="273.289885" style="fill: #2ca02c; stroke: #2ca02c"/>
     <use xlink:href="#m70aa6265f2" x="328.824799" y="273.860332" style="fill: #2ca02c; stroke: #2ca02c"/>
     <use xlink:href="#m70aa6265f2" x="332.104137" y="273.97866" style="fill: #2ca02c; stroke: #2ca02c"/>
     <use xlink:href="#m70aa6265f2" x="335.383476" y="273.94093" style="fill: #2ca02c; stroke: #2ca02c"/>
     <use xlink:href="#m70aa6265f2" x="338.662815" y="273.995197" style="fill: #2ca02c; stroke: #2ca02c"/>
     <use xlink:href="#m70aa6265f2" x="341.942154" y="274.302497" style="fill: #2ca02c; stroke: #2ca02c"/>
     <use xlink:href="#m70aa6265f2" x="345.221493" y="274.157356" style="fill: #2ca02c; stroke: #2ca02c"/>
     <use xlink:href="#m70aa6265f2" x="348.500832" y="274.097309" style="fill: #2ca02c; stroke: #2ca02c"/>
     <use xlink:href="#m70aa6265f2" x="351.78017" y="273.422663" style="fill: #2ca02c; stroke: #2ca02c"/>
     <use xlink:href="#m70aa6265f2" x="355.059509" y="273.984119" style="fill: #2ca02c; stroke: #2ca02c"/>
     <use xlink:href="#m70aa6265f2" x="358.338848" y="273.911709" style="fill: #2ca02c; stroke: #2ca02c"/>
     <use xlink:href="#m70aa6265f2" x="361.618187" y="274.299928" style="fill: #2ca02c; stroke: #2ca02c"/>
     <use xlink:href="#m70aa6265f2" x="364.897526" y="274.404448" style="fill: #2ca02c; stroke: #2ca02c"/>
     <use xlink:href="#m70aa6265f2" x="368.176865" y="272.579595" style="fill: #2ca02c; stroke: #2ca02c"/>
     <use xlink:href="#m70aa6265f2" x="371.456204" y="273.841708" style="fill: #2ca02c; stroke: #2ca02c"/>
     <use xlink:href="#m70aa6265f2" x="374.735542" y="274.328185" style="fill: #2ca02c; stroke: #2ca02c"/>
     <use xlink:href="#m70aa6265f2" x="378.014881" y="274.330273" style="fill: #2ca02c; stroke: #2ca02c"/>
     <use xlink:href="#m70aa6265f2" x="381.29422" y="274.200706" style="fill: #2ca02c; stroke: #2ca02c"/>
     <use xlink:href="#m70aa6265f2" x="384.573559" y="274.429816" style="fill: #2ca02c; stroke: #2ca02c"/>
     <use xlink:href="#m70aa6265f2" x="387.852898" y="274.414884" style="fill: #2ca02c; stroke: #2ca02c"/>
    </g>
   </g>
   <g id="line2d_18">
    <path d="M 63.198352 276.205469 
L 66.477691 274.792421 
L 69.75703 273.635096 
L 73.036369 272.865552 
L 76.315708 271.697694 
L 79.595046 270.62815 
L 82.874385 269.205068 
L 86.153724 267.79806 
L 89.433063 267.269831 
L 92.712402 264.751801 
L 95.991741 264.414407 
L 99.27108 258.946502 
L 102.550418 255.447676 
L 105.829757 251.483165 
L 109.109096 249.950061 
L 112.388435 249.293507 
L 115.667774 246.333031 
L 118.947113 244.395555 
L 122.226451 243.410301 
L 125.50579 243.183953 
L 128.785129 238.505411 
L 132.064468 235.475964 
L 135.343807 236.285195 
L 138.623146 234.693746 
L 141.902485 235.484875 
L 145.181823 230.464442 
L 148.461162 226.499783 
L 151.740501 228.540153 
L 155.01984 228.974664 
L 158.299179 224.143444 
L 161.578518 226.612652 
L 164.857856 219.74422 
L 168.137195 221.980197 
L 171.416534 218.564204 
L 174.695873 216.39408 
L 177.975212 210.674517 
L 181.254551 212.693479 
L 184.533889 206.742156 
L 187.813228 209.334214 
L 191.092567 211.156499 
L 194.371906 204.66411 
L 197.651245 207.815618 
L 200.930584 199.380449 
L 204.209923 202.720929 
L 207.489261 198.168028 
L 210.7686 194.793511 
L 214.047939 196.430757 
L 217.327278 195.18478 
L 220.606617 188.899907 
L 223.885956 179.413353 
L 227.165294 185.274686 
L 230.444633 177.045026 
L 233.723972 170.852631 
L 237.003311 169.670956 
L 240.28265 178.252871 
L 243.561989 166.895144 
L 246.841327 172.179607 
L 250.120666 166.496329 
L 253.400005 159.792892 
L 256.679344 166.827551 
L 259.958683 161.508408 
L 263.238022 159.531992 
L 266.517361 148.227087 
L 269.796699 163.373078 
L 273.076038 158.10178 
L 276.355377 144.107441 
L 279.634716 153.761212 
L 282.914055 151.139531 
L 286.193394 149.336674 
L 289.472732 147.299569 
L 292.752071 144.978926 
L 296.03141 130.414621 
L 299.310749 139.299501 
L 302.590088 132.605537 
L 305.869427 120.507015 
L 309.148765 122.930252 
L 312.428104 113.34873 
L 315.707443 124.298169 
L 318.986782 114.870939 
L 322.266121 108.307345 
L 325.54546 108.584942 
L 328.824799 113.706604 
L 332.104137 107.051976 
L 335.383476 97.699725 
L 338.662815 98.243038 
L 341.942154 77.893824 
L 345.221493 97.82608 
L 348.500832 93.191056 
L 351.78017 77.632282 
L 355.059509 55.556956 
L 358.338848 83.166085 
L 361.618187 70.040823 
L 364.897526 63.338189 
L 368.176865 73.296852 
L 371.456204 57.44892 
L 374.735542 70.916804 
L 378.014881 63.883751 
L 381.29422 34.414125 
L 384.573559 60.673319 
L 387.852898 46.627442 
" clip-path="url(#pae21b97a0e)" style="fill: none; stroke: #d62728; stroke-width: 1.5; stroke-linecap: square"/>
    <defs>
     <path id="mb5940cc6fa" d="M 0 1.5 
C 0.397805 1.5 0.77937 1.341951 1.06066 1.06066 
C 1.341951 0.77937 1.5 0.397805 1.5 0 
C 1.5 -0.397805 1.341951 -0.77937 1.06066 -1.06066 
C 0.77937 -1.341951 0.397805 -1.5 0 -1.5 
C -0.397805 -1.5 -0.77937 -1.341951 -1.06066 -1.06066 
C -1.341951 -0.77937 -1.5 -0.397805 -1.5 0 
C -1.5 0.397805 -1.341951 0.77937 -1.06066 1.06066 
C -0.77937 1.341951 -0.397805 1.5 0 1.5 
z
" style="stroke: #d62728"/>
    </defs>
    <g clip-path="url(#pae21b97a0e)">
     <use xlink:href="#mb5940cc6fa" x="63.198352" y="276.205469" style="fill: #d62728; stroke: #d62728"/>
     <use xlink:href="#mb5940cc6fa" x="66.477691" y="274.792421" style="fill: #d62728; stroke: #d62728"/>
     <use xlink:href="#mb5940cc6fa" x="69.75703" y="273.635096" style="fill: #d62728; stroke: #d62728"/>
     <use xlink:href="#mb5940cc6fa" x="73.036369" y="272.865552" style="fill: #d62728; stroke: #d62728"/>
     <use xlink:href="#mb5940cc6fa" x="76.315708" y="271.697694" style="fill: #d62728; stroke: #d62728"/>
     <use xlink:href="#mb5940cc6fa" x="79.595046" y="270.62815" style="fill: #d62728; stroke: #d62728"/>
     <use xlink:href="#mb5940cc6fa" x="82.874385" y="269.205068" style="fill: #d62728; stroke: #d62728"/>
     <use xlink:href="#mb5940cc6fa" x="86.153724" y="267.79806" style="fill: #d62728; stroke: #d62728"/>
     <use xlink:href="#mb5940cc6fa" x="89.433063" y="267.269831" style="fill: #d62728; stroke: #d62728"/>
     <use xlink:href="#mb5940cc6fa" x="92.712402" y="264.751801" style="fill: #d62728; stroke: #d62728"/>
     <use xlink:href="#mb5940cc6fa" x="95.991741" y="264.414407" style="fill: #d62728; stroke: #d62728"/>
     <use xlink:href="#mb5940cc6fa" x="99.27108" y="258.946502" style="fill: #d62728; stroke: #d62728"/>
     <use xlink:href="#mb5940cc6fa" x="102.550418" y="255.447676" style="fill: #d62728; stroke: #d62728"/>
     <use xlink:href="#mb5940cc6fa" x="105.829757" y="251.483165" style="fill: #d62728; stroke: #d62728"/>
     <use xlink:href="#mb5940cc6fa" x="109.109096" y="249.950061" style="fill: #d62728; stroke: #d62728"/>
     <use xlink:href="#mb5940cc6fa" x="112.388435" y="249.293507" style="fill: #d62728; stroke: #d62728"/>
     <use xlink:href="#mb5940cc6fa" x="115.667774" y="246.333031" style="fill: #d62728; stroke: #d62728"/>
     <use xlink:href="#mb5940cc6fa" x="118.947113" y="244.395555" style="fill: #d62728; stroke: #d62728"/>
     <use xlink:href="#mb5940cc6fa" x="122.226451" y="243.410301" style="fill: #d62728; stroke: #d62728"/>
     <use xlink:href="#mb5940cc6fa" x="125.50579" y="243.183953" style="fill: #d62728; stroke: #d62728"/>
     <use xlink:href="#mb5940cc6fa" x="128.785129" y="238.505411" style="fill: #d62728; stroke: #d62728"/>
     <use xlink:href="#mb5940cc6fa" x="132.064468" y="235.475964" style="fill: #d62728; stroke: #d62728"/>
     <use xlink:href="#mb5940cc6fa" x="135.343807" y="236.285195" style="fill: #d62728; stroke: #d62728"/>
     <use xlink:href="#mb5940cc6fa" x="138.623146" y="234.693746" style="fill: #d62728; stroke: #d62728"/>
     <use xlink:href="#mb5940cc6fa" x="141.902485" y="235.484875" style="fill: #d62728; stroke: #d62728"/>
     <use xlink:href="#mb5940cc6fa" x="145.181823" y="230.464442" style="fill: #d62728; stroke: #d62728"/>
     <use xlink:href="#mb5940cc6fa" x="148.461162" y="226.499783" style="fill: #d62728; stroke: #d62728"/>
     <use xlink:href="#mb5940cc6fa" x="151.740501" y="228.540153" style="fill: #d62728; stroke: #d62728"/>
     <use xlink:href="#mb5940cc6fa" x="155.01984" y="228.974664" style="fill: #d62728; stroke: #d62728"/>
     <use xlink:href="#mb5940cc6fa" x="158.299179" y="224.143444" style="fill: #d62728; stroke: #d62728"/>
     <use xlink:href="#mb5940cc6fa" x="161.578518" y="226.612652" style="fill: #d62728; stroke: #d62728"/>
     <use xlink:href="#mb5940cc6fa" x="164.857856" y="219.74422" style="fill: #d62728; stroke: #d62728"/>
     <use xlink:href="#mb5940cc6fa" x="168.137195" y="221.980197" style="fill: #d62728; stroke: #d62728"/>
     <use xlink:href="#mb5940cc6fa" x="171.416534" y="218.564204" style="fill: #d62728; stroke: #d62728"/>
     <use xlink:href="#mb5940cc6fa" x="174.695873" y="216.39408" style="fill: #d62728; stroke: #d62728"/>
     <use xlink:href="#mb5940cc6fa" x="177.975212" y="210.674517" style="fill: #d62728; stroke: #d62728"/>
     <use xlink:href="#mb5940cc6fa" x="181.254551" y="212.693479" style="fill: #d62728; stroke: #d62728"/>
     <use xlink:href="#mb5940cc6fa" x="184.533889" y="206.742156" style="fill: #d62728; stroke: #d62728"/>
     <use xlink:href="#mb5940cc6fa" x="187.813228" y="209.334214" style="fill: #d62728; stroke: #d62728"/>
     <use xlink:href="#mb5940cc6fa" x="191.092567" y="211.156499" style="fill: #d62728; stroke: #d62728"/>
     <use xlink:href="#mb5940cc6fa" x="194.371906" y="204.66411" style="fill: #d62728; stroke: #d62728"/>
     <use xlink:href="#mb5940cc6fa" x="197.651245" y="207.815618" style="fill: #d62728; stroke: #d62728"/>
     <use xlink:href="#mb5940cc6fa" x="200.930584" y="199.380449" style="fill: #d62728; stroke: #d62728"/>
     <use xlink:href="#mb5940cc6fa" x="204.209923" y="202.720929" style="fill: #d62728; stroke: #d62728"/>
     <use xlink:href="#mb5940cc6fa" x="207.489261" y="198.168028" style="fill: #d62728; stroke: #d62728"/>
     <use xlink:href="#mb5940cc6fa" x="210.7686" y="194.793511" style="fill: #d62728; stroke: #d62728"/>
     <use xlink:href="#mb5940cc6fa" x="214.047939" y="196.430757" style="fill: #d62728; stroke: #d62728"/>
     <use xlink:href="#mb5940cc6fa" x="217.327278" y="195.18478" style="fill: #d62728; stroke: #d62728"/>
     <use xlink:href="#mb5940cc6fa" x="220.606617" y="188.899907" style="fill: #d62728; stroke: #d62728"/>
     <use xlink:href="#mb5940cc6fa" x="223.885956" y="179.413353" style="fill: #d62728; stroke: #d62728"/>
     <use xlink:href="#mb5940cc6fa" x="227.165294" y="185.274686" style="fill: #d62728; stroke: #d62728"/>
     <use xlink:href="#mb5940cc6fa" x="230.444633" y="177.045026" style="fill: #d62728; stroke: #d62728"/>
     <use xlink:href="#mb5940cc6fa" x="233.723972" y="170.852631" style="fill: #d62728; stroke: #d62728"/>
     <use xlink:href="#mb5940cc6fa" x="237.003311" y="169.670956" style="fill: #d62728; stroke: #d62728"/>
     <use xlink:href="#mb5940cc6fa" x="240.28265" y="178.252871" style="fill: #d62728; stroke: #d62728"/>
     <use xlink:href="#mb5940cc6fa" x="243.561989" y="166.895144" style="fill: #d62728; stroke: #d62728"/>
     <use xlink:href="#mb5940cc6fa" x="246.841327" y="172.179607" style="fill: #d62728; stroke: #d62728"/>
     <use xlink:href="#mb5940cc6fa" x="250.120666" y="166.496329" style="fill: #d62728; stroke: #d62728"/>
     <use xlink:href="#mb5940cc6fa" x="253.400005" y="159.792892" style="fill: #d62728; stroke: #d62728"/>
     <use xlink:href="#mb5940cc6fa" x="256.679344" y="166.827551" style="fill: #d62728; stroke: #d62728"/>
     <use xlink:href="#mb5940cc6fa" x="259.958683" y="161.508408" style="fill: #d62728; stroke: #d62728"/>
     <use xlink:href="#mb5940cc6fa" x="263.238022" y="159.531992" style="fill: #d62728; stroke: #d62728"/>
     <use xlink:href="#mb5940cc6fa" x="266.517361" y="148.227087" style="fill: #d62728; stroke: #d62728"/>
     <use xlink:href="#mb5940cc6fa" x="269.796699" y="163.373078" style="fill: #d62728; stroke: #d62728"/>
     <use xlink:href="#mb5940cc6fa" x="273.076038" y="158.10178" style="fill: #d62728; stroke: #d62728"/>
     <use xlink:href="#mb5940cc6fa" x="276.355377" y="144.107441" style="fill: #d62728; stroke: #d62728"/>
     <use xlink:href="#mb5940cc6fa" x="279.634716" y="153.761212" style="fill: #d62728; stroke: #d62728"/>
     <use xlink:href="#mb5940cc6fa" x="282.914055" y="151.139531" style="fill: #d62728; stroke: #d62728"/>
     <use xlink:href="#mb5940cc6fa" x="286.193394" y="149.336674" style="fill: #d62728; stroke: #d62728"/>
     <use xlink:href="#mb5940cc6fa" x="289.472732" y="147.299569" style="fill: #d62728; stroke: #d62728"/>
     <use xlink:href="#mb5940cc6fa" x="292.752071" y="144.978926" style="fill: #d62728; stroke: #d62728"/>
     <use xlink:href="#mb5940cc6fa" x="296.03141" y="130.414621" style="fill: #d62728; stroke: #d62728"/>
     <use xlink:href="#mb5940cc6fa" x="299.310749" y="139.299501" style="fill: #d62728; stroke: #d62728"/>
     <use xlink:href="#mb5940cc6fa" x="302.590088" y="132.605537" style="fill: #d62728; stroke: #d62728"/>
     <use xlink:href="#mb5940cc6fa" x="305.869427" y="120.507015" style="fill: #d62728; stroke: #d62728"/>
     <use xlink:href="#mb5940cc6fa" x="309.148765" y="122.930252" style="fill: #d62728; stroke: #d62728"/>
     <use xlink:href="#mb5940cc6fa" x="312.428104" y="113.34873" style="fill: #d62728; stroke: #d62728"/>
     <use xlink:href="#mb5940cc6fa" x="315.707443" y="124.298169" style="fill: #d62728; stroke: #d62728"/>
     <use xlink:href="#mb5940cc6fa" x="318.986782" y="114.870939" style="fill: #d62728; stroke: #d62728"/>
     <use xlink:href="#mb5940cc6fa" x="322.266121" y="108.307345" style="fill: #d62728; stroke: #d62728"/>
     <use xlink:href="#mb5940cc6fa" x="325.54546" y="108.584942" style="fill: #d62728; stroke: #d62728"/>
     <use xlink:href="#mb5940cc6fa" x="328.824799" y="113.706604" style="fill: #d62728; stroke: #d62728"/>
     <use xlink:href="#mb5940cc6fa" x="332.104137" y="107.051976" style="fill: #d62728; stroke: #d62728"/>
     <use xlink:href="#mb5940cc6fa" x="335.383476" y="97.699725" style="fill: #d62728; stroke: #d62728"/>
     <use xlink:href="#mb5940cc6fa" x="338.662815" y="98.243038" style="fill: #d62728; stroke: #d62728"/>
     <use xlink:href="#mb5940cc6fa" x="341.942154" y="77.893824" style="fill: #d62728; stroke: #d62728"/>
     <use xlink:href="#mb5940cc6fa" x="345.221493" y="97.82608" style="fill: #d62728; stroke: #d62728"/>
     <use xlink:href="#mb5940cc6fa" x="348.500832" y="93.191056" style="fill: #d62728; stroke: #d62728"/>
     <use xlink:href="#mb5940cc6fa" x="351.78017" y="77.632282" style="fill: #d62728; stroke: #d62728"/>
     <use xlink:href="#mb5940cc6fa" x="355.059509" y="55.556956" style="fill: #d62728; stroke: #d62728"/>
     <use xlink:href="#mb5940cc6fa" x="358.338848" y="83.166085" style="fill: #d62728; stroke: #d62728"/>
     <use xlink:href="#mb5940cc6fa" x="361.618187" y="70.040823" style="fill: #d62728; stroke: #d62728"/>
     <use xlink:href="#mb5940cc6fa" x="364.897526" y="63.338189" style="fill: #d62728; stroke: #d62728"/>
     <use xlink:href="#mb5940cc6fa" x="368.176865" y="73.296852" style="fill: #d62728; stroke: #d62728"/>
     <use xlink:href="#mb5940cc6fa" x="371.456204" y="57.44892" style="fill: #d62728; stroke: #d62728"/>
     <use xlink:href="#mb5940cc6fa" x="374.735542" y="70.916804" style="fill: #d62728; stroke: #d62728"/>
     <use xlink:href="#mb5940cc6fa" x="378.014881" y="63.883751" style="fill: #d62728; stroke: #d62728"/>
     <use xlink:href="#mb5940cc6fa" x="381.29422" y="34.414125" style="fill: #d62728; stroke: #d62728"/>
     <use xlink:href="#mb5940cc6fa" x="384.573559" y="60.673319" style="fill: #d62728; stroke: #d62728"/>
     <use xlink:href="#mb5940cc6fa" x="387.852898" y="46.627442" style="fill: #d62728; stroke: #d62728"/>
    </g>
   </g>
   <g id="patch_3">
    <path d="M 46.965625 288.430125 
L 46.965625 22.318125 
" style="fill: none; stroke: #000000; stroke-width: 0.8; stroke-linejoin: miter; stroke-linecap: square"/>
   </g>
   <g id="patch_4">
    <path d="M 404.085625 288.430125 
L 404.085625 22.318125 
" style="fill: none; stroke: #000000; stroke-width: 0.8; stroke-linejoin: miter; stroke-linecap: square"/>
   </g>
   <g id="patch_5">
    <path d="M 46.965625 288.430125 
L 404.085625 288.430125 
" style="fill: none; stroke: #000000; stroke-width: 0.8; stroke-linejoin: miter; stroke-linecap: square"/>
   </g>
   <g id="patch_6">
    <path d="M 46.965625 22.318125 
L 404.085625 22.318125 
" style="fill: none; stroke: #000000; stroke-width: 0.8; stroke-linejoin: miter; stroke-linecap: square"/>
   </g>
   <g id="text_17">
    <!-- Input Signal Length: 100000 samples -->
    <g transform="translate(113.367813 16.318125) scale(0.12 -0.12)">
     <defs>
      <path id="DejaVuSans-49" d="M 628 4666 
L 1259 4666 
L 1259 0 
L 628 0 
L 628 4666 
z
" transform="scale(0.015625)"/>
      <path id="DejaVuSans-6e" d="M 3513 2113 
L 3513 0 
L 2938 0 
L 2938 2094 
Q 2938 2591 2744 2837 
Q 2550 3084 2163 3084 
Q 1697 3084 1428 2787 
Q 1159 2491 1159 1978 
L 1159 0 
L 581 0 
L 581 3500 
L 1159 3500 
L 1159 2956 
Q 1366 3272 1645 3428 
Q 1925 3584 2291 3584 
Q 2894 3584 3203 3211 
Q 3513 2838 3513 2113 
z
" transform="scale(0.015625)"/>
      <path id="DejaVuSans-53" d="M 3425 4513 
L 3425 3897 
Q 3066 4069 2747 4153 
Q 2428 4238 2131 4238 
Q 1616 4238 1336 4038 
Q 1056 3838 1056 3469 
Q 1056 3159 1242 3001 
Q 1428 2844 1947 2747 
L 2328 2669 
Q 3034 2534 3370 2195 
Q 3706 1856 3706 1288 
Q 3706 609 3251 259 
Q 2797 -91 1919 -91 
Q 1588 -91 1214 -16 
Q 841 59 441 206 
L 441 856 
Q 825 641 1194 531 
Q 1563 422 1919 422 
Q 2459 422 2753 634 
Q 3047 847 3047 1241 
Q 3047 1584 2836 1778 
Q 2625 1972 2144 2069 
L 1759 2144 
Q 1053 2284 737 2584 
Q 422 2884 422 3419 
Q 422 4038 858 4394 
Q 1294 4750 2059 4750 
Q 2388 4750 2728 4690 
Q 3069 4631 3425 4513 
z
" transform="scale(0.015625)"/>
      <path id="DejaVuSans-67" d="M 2906 1791 
Q 2906 2416 2648 2759 
Q 2391 3103 1925 3103 
Q 1463 3103 1205 2759 
Q 947 2416 947 1791 
Q 947 1169 1205 825 
Q 1463 481 1925 481 
Q 2391 481 2648 825 
Q 2906 1169 2906 1791 
z
M 3481 434 
Q 3481 -459 3084 -895 
Q 2688 -1331 1869 -1331 
Q 1566 -1331 1297 -1286 
Q 1028 -1241 775 -1147 
L 775 -588 
Q 1028 -725 1275 -790 
Q 1522 -856 1778 -856 
Q 2344 -856 2625 -561 
Q 2906 -266 2906 331 
L 2906 616 
Q 2728 306 2450 153 
Q 2172 0 1784 0 
Q 1141 0 747 490 
Q 353 981 353 1791 
Q 353 2603 747 3093 
Q 1141 3584 1784 3584 
Q 2172 3584 2450 3431 
Q 2728 3278 2906 2969 
L 2906 3500 
L 3481 3500 
L 3481 434 
z
" transform="scale(0.015625)"/>
      <path id="DejaVuSans-4c" d="M 628 4666 
L 1259 4666 
L 1259 531 
L 3531 531 
L 3531 0 
L 628 0 
L 628 4666 
z
" transform="scale(0.015625)"/>
      <path id="DejaVuSans-68" d="M 3513 2113 
L 3513 0 
L 2938 0 
L 2938 2094 
Q 2938 2591 2744 2837 
Q 2550 3084 2163 3084 
Q 1697 3084 1428 2787 
Q 1159 2491 1159 1978 
L 1159 0 
L 581 0 
L 581 4863 
L 1159 4863 
L 1159 2956 
Q 1366 3272 1645 3428 
Q 1925 3584 2291 3584 
Q 2894 3584 3203 3211 
Q 3513 2838 3513 2113 
z
" transform="scale(0.015625)"/>
      <path id="DejaVuSans-3a" d="M 750 794 
L 1409 794 
L 1409 0 
L 750 0 
L 750 794 
z
M 750 3309 
L 1409 3309 
L 1409 2516 
L 750 2516 
L 750 3309 
z
" transform="scale(0.015625)"/>
     </defs>
     <use xlink:href="#DejaVuSans-49"/>
     <use xlink:href="#DejaVuSans-6e" x="29.492188"/>
     <use xlink:href="#DejaVuSans-70" x="92.871094"/>
     <use xlink:href="#DejaVuSans-75" x="156.347656"/>
     <use xlink:href="#DejaVuSans-74" x="219.726562"/>
     <use xlink:href="#DejaVuSans-20" x="258.935547"/>
     <use xlink:href="#DejaVuSans-53" x="290.722656"/>
     <use xlink:href="#DejaVuSans-69" x="354.199219"/>
     <use xlink:href="#DejaVuSans-67" x="381.982422"/>
     <use xlink:href="#DejaVuSans-6e" x="445.458984"/>
     <use xlink:href="#DejaVuSans-61" x="508.837891"/>
     <use xlink:href="#DejaVuSans-6c" x="570.117188"/>
     <use xlink:href="#DejaVuSans-20" x="597.900391"/>
     <use xlink:href="#DejaVuSans-4c" x="629.6875"/>
     <use xlink:href="#DejaVuSans-65" x="683.650391"/>
     <use xlink:href="#DejaVuSans-6e" x="745.173828"/>
     <use xlink:href="#DejaVuSans-67" x="808.552734"/>
     <use xlink:href="#DejaVuSans-74" x="872.029297"/>
     <use xlink:href="#DejaVuSans-68" x="911.238281"/>
     <use xlink:href="#DejaVuSans-3a" x="974.617188"/>
     <use xlink:href="#DejaVuSans-20" x="1008.308594"/>
     <use xlink:href="#DejaVuSans-31" x="1040.095703"/>
     <use xlink:href="#DejaVuSans-30" x="1103.71875"/>
     <use xlink:href="#DejaVuSans-30" x="1167.341797"/>
     <use xlink:href="#DejaVuSans-30" x="1230.964844"/>
     <use xlink:href="#DejaVuSans-30" x="1294.587891"/>
     <use xlink:href="#DejaVuSans-30" x="1358.210938"/>
     <use xlink:href="#DejaVuSans-20" x="1421.833984"/>
     <use xlink:href="#DejaVuSans-73" x="1453.621094"/>
     <use xlink:href="#DejaVuSans-61" x="1505.720703"/>
     <use xlink:href="#DejaVuSans-6d" x="1567"/>
     <use xlink:href="#DejaVuSans-70" x="1664.412109"/>
     <use xlink:href="#DejaVuSans-6c" x="1727.888672"/>
     <use xlink:href="#DejaVuSans-65" x="1755.671875"/>
     <use xlink:href="#DejaVuSans-73" x="1817.195312"/>
    </g>
   </g>
   <g id="legend_1">
    <g id="patch_7">
     <path d="M 53.965625 89.030625 
L 201.857813 89.030625 
Q 203.857813 89.030625 203.857813 87.030625 
L 203.857813 29.318125 
Q 203.857813 27.318125 201.857813 27.318125 
L 53.965625 27.318125 
Q 51.965625 27.318125 51.965625 29.318125 
L 51.965625 87.030625 
Q 51.965625 89.030625 53.965625 89.030625 
z
" style="fill: #ffffff; opacity: 0.8; stroke: #cccccc; stroke-linejoin: miter"/>
    </g>
    <g id="line2d_19">
     <path d="M 55.965625 35.416562 
L 65.965625 35.416562 
L 75.965625 35.416562 
" style="fill: none; stroke: #1f77b4; stroke-width: 1.5; stroke-linecap: square"/>
     <g>
      <use xlink:href="#m195fa33b1c" x="65.965625" y="35.416562" style="fill: #1f77b4; stroke: #1f77b4"/>
     </g>
    </g>
    <g id="text_18">
     <!-- np.convolve -->
     <g transform="translate(83.965625 38.916562) scale(0.1 -0.1)">
      <defs>
       <path id="DejaVuSans-2e" d="M 684 794 
L 1344 794 
L 1344 0 
L 684 0 
L 684 794 
z
" transform="scale(0.015625)"/>
       <path id="DejaVuSans-76" d="M 191 3500 
L 800 3500 
L 1894 563 
L 2988 3500 
L 3597 3500 
L 2284 0 
L 1503 0 
L 191 3500 
z
" transform="scale(0.015625)"/>
      </defs>
      <use xlink:href="#DejaVuSans-6e"/>
      <use xlink:href="#DejaVuSans-70" x="63.378906"/>
      <use xlink:href="#DejaVuSans-2e" x="126.855469"/>
      <use xlink:href="#DejaVuSans-63" x="158.642578"/>
      <use xlink:href="#DejaVuSans-6f" x="213.623047"/>
      <use xlink:href="#DejaVuSans-6e" x="274.804688"/>
      <use xlink:href="#DejaVuSans-76" x="338.183594"/>
      <use xlink:href="#DejaVuSans-6f" x="397.363281"/>
      <use xlink:href="#DejaVuSans-6c" x="458.544922"/>
      <use xlink:href="#DejaVuSans-76" x="486.328125"/>
      <use xlink:href="#DejaVuSans-65" x="545.507812"/>
     </g>
    </g>
    <g id="line2d_20">
     <path d="M 55.965625 50.094688 
L 65.965625 50.094688 
L 75.965625 50.094688 
" style="fill: none; stroke: #ff7f0e; stroke-width: 1.5; stroke-linecap: square"/>
     <g>
      <use xlink:href="#mb207142cb4" x="65.965625" y="50.094688" style="fill: #ff7f0e; stroke: #ff7f0e"/>
     </g>
    </g>
    <g id="text_19">
     <!-- scipy.signal.convolve -->
     <g transform="translate(83.965625 53.594688) scale(0.1 -0.1)">
      <defs>
       <path id="DejaVuSans-79" d="M 2059 -325 
Q 1816 -950 1584 -1140 
Q 1353 -1331 966 -1331 
L 506 -1331 
L 506 -850 
L 844 -850 
Q 1081 -850 1212 -737 
Q 1344 -625 1503 -206 
L 1606 56 
L 191 3500 
L 800 3500 
L 1894 763 
L 2988 3500 
L 3597 3500 
L 2059 -325 
z
" transform="scale(0.015625)"/>
      </defs>
      <use xlink:href="#DejaVuSans-73"/>
      <use xlink:href="#DejaVuSans-63" x="52.099609"/>
      <use xlink:href="#DejaVuSans-69" x="107.080078"/>
      <use xlink:href="#DejaVuSans-70" x="134.863281"/>
      <use xlink:href="#DejaVuSans-79" x="198.339844"/>
      <use xlink:href="#DejaVuSans-2e" x="243.269531"/>
      <use xlink:href="#DejaVuSans-73" x="275.056641"/>
      <use xlink:href="#DejaVuSans-69" x="327.15625"/>
      <use xlink:href="#DejaVuSans-67" x="354.939453"/>
      <use xlink:href="#DejaVuSans-6e" x="418.416016"/>
      <use xlink:href="#DejaVuSans-61" x="481.794922"/>
      <use xlink:href="#DejaVuSans-6c" x="543.074219"/>
      <use xlink:href="#DejaVuSans-2e" x="570.857422"/>
      <use xlink:href="#DejaVuSans-63" x="602.644531"/>
      <use xlink:href="#DejaVuSans-6f" x="657.625"/>
      <use xlink:href="#DejaVuSans-6e" x="718.806641"/>
      <use xlink:href="#DejaVuSans-76" x="782.185547"/>
      <use xlink:href="#DejaVuSans-6f" x="841.365234"/>
      <use xlink:href="#DejaVuSans-6c" x="902.546875"/>
      <use xlink:href="#DejaVuSans-76" x="930.330078"/>
      <use xlink:href="#DejaVuSans-65" x="989.509766"/>
     </g>
    </g>
    <g id="line2d_21">
     <path d="M 55.965625 64.772812 
L 65.965625 64.772812 
L 75.965625 64.772812 
" style="fill: none; stroke: #2ca02c; stroke-width: 1.5; stroke-linecap: square"/>
     <g>
      <use xlink:href="#m70aa6265f2" x="65.965625" y="64.772812" style="fill: #2ca02c; stroke: #2ca02c"/>
     </g>
    </g>
    <g id="text_20">
     <!-- scipy.signal.fftconvolve -->
     <g transform="translate(83.965625 68.272812) scale(0.1 -0.1)">
      <use xlink:href="#DejaVuSans-73"/>
      <use xlink:href="#DejaVuSans-63" x="52.099609"/>
      <use xlink:href="#DejaVuSans-69" x="107.080078"/>
      <use xlink:href="#DejaVuSans-70" x="134.863281"/>
      <use xlink:href="#DejaVuSans-79" x="198.339844"/>
      <use xlink:href="#DejaVuSans-2e" x="243.269531"/>
      <use xlink:href="#DejaVuSans-73" x="275.056641"/>
      <use xlink:href="#DejaVuSans-69" x="327.15625"/>
      <use xlink:href="#DejaVuSans-67" x="354.939453"/>
      <use xlink:href="#DejaVuSans-6e" x="418.416016"/>
      <use xlink:href="#DejaVuSans-61" x="481.794922"/>
      <use xlink:href="#DejaVuSans-6c" x="543.074219"/>
      <use xlink:href="#DejaVuSans-2e" x="570.857422"/>
      <use xlink:href="#DejaVuSans-66" x="602.644531"/>
      <use xlink:href="#DejaVuSans-66" x="637.849609"/>
      <use xlink:href="#DejaVuSans-74" x="671.304688"/>
      <use xlink:href="#DejaVuSans-63" x="710.513672"/>
      <use xlink:href="#DejaVuSans-6f" x="765.494141"/>
      <use xlink:href="#DejaVuSans-6e" x="826.675781"/>
      <use xlink:href="#DejaVuSans-76" x="890.054688"/>
      <use xlink:href="#DejaVuSans-6f" x="949.234375"/>
      <use xlink:href="#DejaVuSans-6c" x="1010.416016"/>
      <use xlink:href="#DejaVuSans-76" x="1038.199219"/>
      <use xlink:href="#DejaVuSans-65" x="1097.378906"/>
     </g>
    </g>
    <g id="line2d_22">
     <path d="M 55.965625 79.450938 
L 65.965625 79.450938 
L 75.965625 79.450938 
" style="fill: none; stroke: #d62728; stroke-width: 1.5; stroke-linecap: square"/>
     <g>
      <use xlink:href="#mb5940cc6fa" x="65.965625" y="79.450938" style="fill: #d62728; stroke: #d62728"/>
     </g>
    </g>
    <g id="text_21">
     <!-- scipy.signal.lfilter -->
     <g transform="translate(83.965625 82.950938) scale(0.1 -0.1)">
      <use xlink:href="#DejaVuSans-73"/>
      <use xlink:href="#DejaVuSans-63" x="52.099609"/>
      <use xlink:href="#DejaVuSans-69" x="107.080078"/>
      <use xlink:href="#DejaVuSans-70" x="134.863281"/>
      <use xlink:href="#DejaVuSans-79" x="198.339844"/>
      <use xlink:href="#DejaVuSans-2e" x="243.269531"/>
      <use xlink:href="#DejaVuSans-73" x="275.056641"/>
      <use xlink:href="#DejaVuSans-69" x="327.15625"/>
      <use xlink:href="#DejaVuSans-67" x="354.939453"/>
      <use xlink:href="#DejaVuSans-6e" x="418.416016"/>
      <use xlink:href="#DejaVuSans-61" x="481.794922"/>
      <use xlink:href="#DejaVuSans-6c" x="543.074219"/>
      <use xlink:href="#DejaVuSans-2e" x="570.857422"/>
      <use xlink:href="#DejaVuSans-6c" x="602.644531"/>
      <use xlink:href="#DejaVuSans-66" x="630.427734"/>
      <use xlink:href="#DejaVuSans-69" x="665.632812"/>
      <use xlink:href="#DejaVuSans-6c" x="693.416016"/>
      <use xlink:href="#DejaVuSans-74" x="721.199219"/>
      <use xlink:href="#DejaVuSans-65" x="760.408203"/>
      <use xlink:href="#DejaVuSans-72" x="821.931641"/>
     </g>
    </g>
   </g>
  </g>
 </g>
 <defs>
  <clipPath id="pae21b97a0e">
   <rect x="46.965625" y="22.318125" width="357.12" height="266.112"/>
  </clipPath>
 </defs>
</svg>
