<?xml version="1.0" encoding="utf-8" standalone="no"?>
<!DOCTYPE svg PUBLIC "-//W3C//DTD SVG 1.1//EN"
  "http://www.w3.org/Graphics/SVG/1.1/DTD/svg11.dtd">
<svg xmlns:xlink="http://www.w3.org/1999/xlink" width="414.46375pt" height="325.986375pt" viewBox="0 0 414.46375 325.986375" xmlns="http://www.w3.org/2000/svg" version="1.1">
 <metadata>
  <rdf:RDF xmlns:dc="http://purl.org/dc/elements/1.1/" xmlns:cc="http://creativecommons.org/ns#" xmlns:rdf="http://www.w3.org/1999/02/22-rdf-syntax-ns#">
   <cc:Work>
    <dc:type rdf:resource="http://purl.org/dc/dcmitype/StillImage"/>
    <dc:date>2024-04-19T18:11:37.382213</dc:date>
    <dc:format>image/svg+xml</dc:format>
    <dc:creator>
     <cc:Agent>
      <dc:title>Matplotlib v3.8.0, https://matplotlib.org/</dc:title>
     </cc:Agent>
    </dc:creator>
   </cc:Work>
  </rdf:RDF>
 </metadata>
 <defs>
  <style type="text/css">*{stroke-linejoin: round; stroke-linecap: butt}</style>
 </defs>
 <g id="figure_1">
  <g id="patch_1">
   <path d="M 0 325.986375 
L 414.46375 325.986375 
L 414.46375 0 
L 0 0 
z
" style="fill: #ffffff"/>
  </g>
  <g id="axes_1">
   <g id="patch_2">
    <path d="M 50.14375 288.430125 
L 407.26375 288.430125 
L 407.26375 22.318125 
L 50.14375 22.318125 
z
" style="fill: #ffffff"/>
   </g>
   <g id="matplotlib.axis_1">
    <g id="xtick_1">
     <g id="line2d_1">
      <defs>
       <path id="mf95af94c6f" d="M 0 0 
L 0 3.5 
" style="stroke: #000000; stroke-width: 0.8"/>
      </defs>
      <g>
       <use xlink:href="#mf95af94c6f" x="66.051498" y="288.430125" style="stroke: #000000; stroke-width: 0.8"/>
      </g>
     </g>
     <g id="text_1">
      <!-- 0 -->
      <g transform="translate(62.870248 303.028562) scale(0.1 -0.1)">
       <defs>
        <path id="DejaVuSans-30" d="M 2034 4250 
Q 1547 4250 1301 3770 
Q 1056 3291 1056 2328 
Q 1056 1369 1301 889 
Q 1547 409 2034 409 
Q 2525 409 2770 889 
Q 3016 1369 3016 2328 
Q 3016 3291 2770 3770 
Q 2525 4250 2034 4250 
z
M 2034 4750 
Q 2819 4750 3233 4129 
Q 3647 3509 3647 2328 
Q 3647 1150 3233 529 
Q 2819 -91 2034 -91 
Q 1250 -91 836 529 
Q 422 1150 422 2328 
Q 422 3509 836 4129 
Q 1250 4750 2034 4750 
z
" transform="scale(0.015625)"/>
       </defs>
       <use xlink:href="#DejaVuSans-30"/>
      </g>
     </g>
    </g>
    <g id="xtick_2">
     <g id="line2d_2">
      <g>
       <use xlink:href="#mf95af94c6f" x="131.047403" y="288.430125" style="stroke: #000000; stroke-width: 0.8"/>
      </g>
     </g>
     <g id="text_2">
      <!-- 2000 -->
      <g transform="translate(118.322403 303.028562) scale(0.1 -0.1)">
       <defs>
        <path id="DejaVuSans-32" d="M 1228 531 
L 3431 531 
L 3431 0 
L 469 0 
L 469 531 
Q 828 903 1448 1529 
Q 2069 2156 2228 2338 
Q 2531 2678 2651 2914 
Q 2772 3150 2772 3378 
Q 2772 3750 2511 3984 
Q 2250 4219 1831 4219 
Q 1534 4219 1204 4116 
Q 875 4013 500 3803 
L 500 4441 
Q 881 4594 1212 4672 
Q 1544 4750 1819 4750 
Q 2544 4750 2975 4387 
Q 3406 4025 3406 3419 
Q 3406 3131 3298 2873 
Q 3191 2616 2906 2266 
Q 2828 2175 2409 1742 
Q 1991 1309 1228 531 
z
" transform="scale(0.015625)"/>
       </defs>
       <use xlink:href="#DejaVuSans-32"/>
       <use xlink:href="#DejaVuSans-30" x="63.623047"/>
       <use xlink:href="#DejaVuSans-30" x="127.246094"/>
       <use xlink:href="#DejaVuSans-30" x="190.869141"/>
      </g>
     </g>
    </g>
    <g id="xtick_3">
     <g id="line2d_3">
      <g>
       <use xlink:href="#mf95af94c6f" x="196.043308" y="288.430125" style="stroke: #000000; stroke-width: 0.8"/>
      </g>
     </g>
     <g id="text_3">
      <!-- 4000 -->
      <g transform="translate(183.318308 303.028562) scale(0.1 -0.1)">
       <defs>
        <path id="DejaVuSans-34" d="M 2419 4116 
L 825 1625 
L 2419 1625 
L 2419 4116 
z
M 2253 4666 
L 3047 4666 
L 3047 1625 
L 3713 1625 
L 3713 1100 
L 3047 1100 
L 3047 0 
L 2419 0 
L 2419 1100 
L 313 1100 
L 313 1709 
L 2253 4666 
z
" transform="scale(0.015625)"/>
       </defs>
       <use xlink:href="#DejaVuSans-34"/>
       <use xlink:href="#DejaVuSans-30" x="63.623047"/>
       <use xlink:href="#DejaVuSans-30" x="127.246094"/>
       <use xlink:href="#DejaVuSans-30" x="190.869141"/>
      </g>
     </g>
    </g>
    <g id="xtick_4">
     <g id="line2d_4">
      <g>
       <use xlink:href="#mf95af94c6f" x="261.039213" y="288.430125" style="stroke: #000000; stroke-width: 0.8"/>
      </g>
     </g>
     <g id="text_4">
      <!-- 6000 -->
      <g transform="translate(248.314213 303.028562) scale(0.1 -0.1)">
       <defs>
        <path id="DejaVuSans-36" d="M 2113 2584 
Q 1688 2584 1439 2293 
Q 1191 2003 1191 1497 
Q 1191 994 1439 701 
Q 1688 409 2113 409 
Q 2538 409 2786 701 
Q 3034 994 3034 1497 
Q 3034 2003 2786 2293 
Q 2538 2584 2113 2584 
z
M 3366 4563 
L 3366 3988 
Q 3128 4100 2886 4159 
Q 2644 4219 2406 4219 
Q 1781 4219 1451 3797 
Q 1122 3375 1075 2522 
Q 1259 2794 1537 2939 
Q 1816 3084 2150 3084 
Q 2853 3084 3261 2657 
Q 3669 2231 3669 1497 
Q 3669 778 3244 343 
Q 2819 -91 2113 -91 
Q 1303 -91 875 529 
Q 447 1150 447 2328 
Q 447 3434 972 4092 
Q 1497 4750 2381 4750 
Q 2619 4750 2861 4703 
Q 3103 4656 3366 4563 
z
" transform="scale(0.015625)"/>
       </defs>
       <use xlink:href="#DejaVuSans-36"/>
       <use xlink:href="#DejaVuSans-30" x="63.623047"/>
       <use xlink:href="#DejaVuSans-30" x="127.246094"/>
       <use xlink:href="#DejaVuSans-30" x="190.869141"/>
      </g>
     </g>
    </g>
    <g id="xtick_5">
     <g id="line2d_5">
      <g>
       <use xlink:href="#mf95af94c6f" x="326.035118" y="288.430125" style="stroke: #000000; stroke-width: 0.8"/>
      </g>
     </g>
     <g id="text_5">
      <!-- 8000 -->
      <g transform="translate(313.310118 303.028562) scale(0.1 -0.1)">
       <defs>
        <path id="DejaVuSans-38" d="M 2034 2216 
Q 1584 2216 1326 1975 
Q 1069 1734 1069 1313 
Q 1069 891 1326 650 
Q 1584 409 2034 409 
Q 2484 409 2743 651 
Q 3003 894 3003 1313 
Q 3003 1734 2745 1975 
Q 2488 2216 2034 2216 
z
M 1403 2484 
Q 997 2584 770 2862 
Q 544 3141 544 3541 
Q 544 4100 942 4425 
Q 1341 4750 2034 4750 
Q 2731 4750 3128 4425 
Q 3525 4100 3525 3541 
Q 3525 3141 3298 2862 
Q 3072 2584 2669 2484 
Q 3125 2378 3379 2068 
Q 3634 1759 3634 1313 
Q 3634 634 3220 271 
Q 2806 -91 2034 -91 
Q 1263 -91 848 271 
Q 434 634 434 1313 
Q 434 1759 690 2068 
Q 947 2378 1403 2484 
z
M 1172 3481 
Q 1172 3119 1398 2916 
Q 1625 2713 2034 2713 
Q 2441 2713 2670 2916 
Q 2900 3119 2900 3481 
Q 2900 3844 2670 4047 
Q 2441 4250 2034 4250 
Q 1625 4250 1398 4047 
Q 1172 3844 1172 3481 
z
" transform="scale(0.015625)"/>
       </defs>
       <use xlink:href="#DejaVuSans-38"/>
       <use xlink:href="#DejaVuSans-30" x="63.623047"/>
       <use xlink:href="#DejaVuSans-30" x="127.246094"/>
       <use xlink:href="#DejaVuSans-30" x="190.869141"/>
      </g>
     </g>
    </g>
    <g id="xtick_6">
     <g id="line2d_6">
      <g>
       <use xlink:href="#mf95af94c6f" x="391.031023" y="288.430125" style="stroke: #000000; stroke-width: 0.8"/>
      </g>
     </g>
     <g id="text_6">
      <!-- 10000 -->
      <g transform="translate(375.124773 303.028562) scale(0.1 -0.1)">
       <defs>
        <path id="DejaVuSans-31" d="M 794 531 
L 1825 531 
L 1825 4091 
L 703 3866 
L 703 4441 
L 1819 4666 
L 2450 4666 
L 2450 531 
L 3481 531 
L 3481 0 
L 794 0 
L 794 531 
z
" transform="scale(0.015625)"/>
       </defs>
       <use xlink:href="#DejaVuSans-31"/>
       <use xlink:href="#DejaVuSans-30" x="63.623047"/>
       <use xlink:href="#DejaVuSans-30" x="127.246094"/>
       <use xlink:href="#DejaVuSans-30" x="190.869141"/>
       <use xlink:href="#DejaVuSans-30" x="254.492188"/>
      </g>
     </g>
    </g>
    <g id="text_7">
     <!-- Number of taps -->
     <g transform="translate(189.817031 316.706687) scale(0.1 -0.1)">
      <defs>
       <path id="DejaVuSans-4e" d="M 628 4666 
L 1478 4666 
L 3547 763 
L 3547 4666 
L 4159 4666 
L 4159 0 
L 3309 0 
L 1241 3903 
L 1241 0 
L 628 0 
L 628 4666 
z
" transform="scale(0.015625)"/>
       <path id="DejaVuSans-75" d="M 544 1381 
L 544 3500 
L 1119 3500 
L 1119 1403 
Q 1119 906 1312 657 
Q 1506 409 1894 409 
Q 2359 409 2629 706 
Q 2900 1003 2900 1516 
L 2900 3500 
L 3475 3500 
L 3475 0 
L 2900 0 
L 2900 538 
Q 2691 219 2414 64 
Q 2138 -91 1772 -91 
Q 1169 -91 856 284 
Q 544 659 544 1381 
z
M 1991 3584 
L 1991 3584 
z
" transform="scale(0.015625)"/>
       <path id="DejaVuSans-6d" d="M 3328 2828 
Q 3544 3216 3844 3400 
Q 4144 3584 4550 3584 
Q 5097 3584 5394 3201 
Q 5691 2819 5691 2113 
L 5691 0 
L 5113 0 
L 5113 2094 
Q 5113 2597 4934 2840 
Q 4756 3084 4391 3084 
Q 3944 3084 3684 2787 
Q 3425 2491 3425 1978 
L 3425 0 
L 2847 0 
L 2847 2094 
Q 2847 2600 2669 2842 
Q 2491 3084 2119 3084 
Q 1678 3084 1418 2786 
Q 1159 2488 1159 1978 
L 1159 0 
L 581 0 
L 581 3500 
L 1159 3500 
L 1159 2956 
Q 1356 3278 1631 3431 
Q 1906 3584 2284 3584 
Q 2666 3584 2933 3390 
Q 3200 3197 3328 2828 
z
" transform="scale(0.015625)"/>
       <path id="DejaVuSans-62" d="M 3116 1747 
Q 3116 2381 2855 2742 
Q 2594 3103 2138 3103 
Q 1681 3103 1420 2742 
Q 1159 2381 1159 1747 
Q 1159 1113 1420 752 
Q 1681 391 2138 391 
Q 2594 391 2855 752 
Q 3116 1113 3116 1747 
z
M 1159 2969 
Q 1341 3281 1617 3432 
Q 1894 3584 2278 3584 
Q 2916 3584 3314 3078 
Q 3713 2572 3713 1747 
Q 3713 922 3314 415 
Q 2916 -91 2278 -91 
Q 1894 -91 1617 61 
Q 1341 213 1159 525 
L 1159 0 
L 581 0 
L 581 4863 
L 1159 4863 
L 1159 2969 
z
" transform="scale(0.015625)"/>
       <path id="DejaVuSans-65" d="M 3597 1894 
L 3597 1613 
L 953 1613 
Q 991 1019 1311 708 
Q 1631 397 2203 397 
Q 2534 397 2845 478 
Q 3156 559 3463 722 
L 3463 178 
Q 3153 47 2828 -22 
Q 2503 -91 2169 -91 
Q 1331 -91 842 396 
Q 353 884 353 1716 
Q 353 2575 817 3079 
Q 1281 3584 2069 3584 
Q 2775 3584 3186 3129 
Q 3597 2675 3597 1894 
z
M 3022 2063 
Q 3016 2534 2758 2815 
Q 2500 3097 2075 3097 
Q 1594 3097 1305 2825 
Q 1016 2553 972 2059 
L 3022 2063 
z
" transform="scale(0.015625)"/>
       <path id="DejaVuSans-72" d="M 2631 2963 
Q 2534 3019 2420 3045 
Q 2306 3072 2169 3072 
Q 1681 3072 1420 2755 
Q 1159 2438 1159 1844 
L 1159 0 
L 581 0 
L 581 3500 
L 1159 3500 
L 1159 2956 
Q 1341 3275 1631 3429 
Q 1922 3584 2338 3584 
Q 2397 3584 2469 3576 
Q 2541 3569 2628 3553 
L 2631 2963 
z
" transform="scale(0.015625)"/>
       <path id="DejaVuSans-20" transform="scale(0.015625)"/>
       <path id="DejaVuSans-6f" d="M 1959 3097 
Q 1497 3097 1228 2736 
Q 959 2375 959 1747 
Q 959 1119 1226 758 
Q 1494 397 1959 397 
Q 2419 397 2687 759 
Q 2956 1122 2956 1747 
Q 2956 2369 2687 2733 
Q 2419 3097 1959 3097 
z
M 1959 3584 
Q 2709 3584 3137 3096 
Q 3566 2609 3566 1747 
Q 3566 888 3137 398 
Q 2709 -91 1959 -91 
Q 1206 -91 779 398 
Q 353 888 353 1747 
Q 353 2609 779 3096 
Q 1206 3584 1959 3584 
z
" transform="scale(0.015625)"/>
       <path id="DejaVuSans-66" d="M 2375 4863 
L 2375 4384 
L 1825 4384 
Q 1516 4384 1395 4259 
Q 1275 4134 1275 3809 
L 1275 3500 
L 2222 3500 
L 2222 3053 
L 1275 3053 
L 1275 0 
L 697 0 
L 697 3053 
L 147 3053 
L 147 3500 
L 697 3500 
L 697 3744 
Q 697 4328 969 4595 
Q 1241 4863 1831 4863 
L 2375 4863 
z
" transform="scale(0.015625)"/>
       <path id="DejaVuSans-74" d="M 1172 4494 
L 1172 3500 
L 2356 3500 
L 2356 3053 
L 1172 3053 
L 1172 1153 
Q 1172 725 1289 603 
Q 1406 481 1766 481 
L 2356 481 
L 2356 0 
L 1766 0 
Q 1100 0 847 248 
Q 594 497 594 1153 
L 594 3053 
L 172 3053 
L 172 3500 
L 594 3500 
L 594 4494 
L 1172 4494 
z
" transform="scale(0.015625)"/>
       <path id="DejaVuSans-61" d="M 2194 1759 
Q 1497 1759 1228 1600 
Q 959 1441 959 1056 
Q 959 750 1161 570 
Q 1363 391 1709 391 
Q 2188 391 2477 730 
Q 2766 1069 2766 1631 
L 2766 1759 
L 2194 1759 
z
M 3341 1997 
L 3341 0 
L 2766 0 
L 2766 531 
Q 2569 213 2275 61 
Q 1981 -91 1556 -91 
Q 1019 -91 701 211 
Q 384 513 384 1019 
Q 384 1609 779 1909 
Q 1175 2209 1959 2209 
L 2766 2209 
L 2766 2266 
Q 2766 2663 2505 2880 
Q 2244 3097 1772 3097 
Q 1472 3097 1187 3025 
Q 903 2953 641 2809 
L 641 3341 
Q 956 3463 1253 3523 
Q 1550 3584 1831 3584 
Q 2591 3584 2966 3190 
Q 3341 2797 3341 1997 
z
" transform="scale(0.015625)"/>
       <path id="DejaVuSans-70" d="M 1159 525 
L 1159 -1331 
L 581 -1331 
L 581 3500 
L 1159 3500 
L 1159 2969 
Q 1341 3281 1617 3432 
Q 1894 3584 2278 3584 
Q 2916 3584 3314 3078 
Q 3713 2572 3713 1747 
Q 3713 922 3314 415 
Q 2916 -91 2278 -91 
Q 1894 -91 1617 61 
Q 1341 213 1159 525 
z
M 3116 1747 
Q 3116 2381 2855 2742 
Q 2594 3103 2138 3103 
Q 1681 3103 1420 2742 
Q 1159 2381 1159 1747 
Q 1159 1113 1420 752 
Q 1681 391 2138 391 
Q 2594 391 2855 752 
Q 3116 1113 3116 1747 
z
" transform="scale(0.015625)"/>
       <path id="DejaVuSans-73" d="M 2834 3397 
L 2834 2853 
Q 2591 2978 2328 3040 
Q 2066 3103 1784 3103 
Q 1356 3103 1142 2972 
Q 928 2841 928 2578 
Q 928 2378 1081 2264 
Q 1234 2150 1697 2047 
L 1894 2003 
Q 2506 1872 2764 1633 
Q 3022 1394 3022 966 
Q 3022 478 2636 193 
Q 2250 -91 1575 -91 
Q 1294 -91 989 -36 
Q 684 19 347 128 
L 347 722 
Q 666 556 975 473 
Q 1284 391 1588 391 
Q 1994 391 2212 530 
Q 2431 669 2431 922 
Q 2431 1156 2273 1281 
Q 2116 1406 1581 1522 
L 1381 1569 
Q 847 1681 609 1914 
Q 372 2147 372 2553 
Q 372 3047 722 3315 
Q 1072 3584 1716 3584 
Q 2034 3584 2315 3537 
Q 2597 3491 2834 3397 
z
" transform="scale(0.015625)"/>
      </defs>
      <use xlink:href="#DejaVuSans-4e"/>
      <use xlink:href="#DejaVuSans-75" x="74.804688"/>
      <use xlink:href="#DejaVuSans-6d" x="138.183594"/>
      <use xlink:href="#DejaVuSans-62" x="235.595703"/>
      <use xlink:href="#DejaVuSans-65" x="299.072266"/>
      <use xlink:href="#DejaVuSans-72" x="360.595703"/>
      <use xlink:href="#DejaVuSans-20" x="401.708984"/>
      <use xlink:href="#DejaVuSans-6f" x="433.496094"/>
      <use xlink:href="#DejaVuSans-66" x="494.677734"/>
      <use xlink:href="#DejaVuSans-20" x="529.882812"/>
      <use xlink:href="#DejaVuSans-74" x="561.669922"/>
      <use xlink:href="#DejaVuSans-61" x="600.878906"/>
      <use xlink:href="#DejaVuSans-70" x="662.158203"/>
      <use xlink:href="#DejaVuSans-73" x="725.634766"/>
     </g>
    </g>
   </g>
   <g id="matplotlib.axis_2">
    <g id="ytick_1">
     <g id="line2d_7">
      <defs>
       <path id="mfa3cacaa82" d="M 0 0 
L -3.5 0 
" style="stroke: #000000; stroke-width: 0.8"/>
      </defs>
      <g>
       <use xlink:href="#mfa3cacaa82" x="50.14375" y="278.250313" style="stroke: #000000; stroke-width: 0.8"/>
      </g>
     </g>
     <g id="text_8">
      <!-- 0.00 -->
      <g transform="translate(20.878125 282.049532) scale(0.1 -0.1)">
       <defs>
        <path id="DejaVuSans-2e" d="M 684 794 
L 1344 794 
L 1344 0 
L 684 0 
L 684 794 
z
" transform="scale(0.015625)"/>
       </defs>
       <use xlink:href="#DejaVuSans-30"/>
       <use xlink:href="#DejaVuSans-2e" x="63.623047"/>
       <use xlink:href="#DejaVuSans-30" x="95.410156"/>
       <use xlink:href="#DejaVuSans-30" x="159.033203"/>
      </g>
     </g>
    </g>
    <g id="ytick_2">
     <g id="line2d_8">
      <g>
       <use xlink:href="#mfa3cacaa82" x="50.14375" y="245.731544" style="stroke: #000000; stroke-width: 0.8"/>
      </g>
     </g>
     <g id="text_9">
      <!-- 0.25 -->
      <g transform="translate(20.878125 249.530762) scale(0.1 -0.1)">
       <defs>
        <path id="DejaVuSans-35" d="M 691 4666 
L 3169 4666 
L 3169 4134 
L 1269 4134 
L 1269 2991 
Q 1406 3038 1543 3061 
Q 1681 3084 1819 3084 
Q 2600 3084 3056 2656 
Q 3513 2228 3513 1497 
Q 3513 744 3044 326 
Q 2575 -91 1722 -91 
Q 1428 -91 1123 -41 
Q 819 9 494 109 
L 494 744 
Q 775 591 1075 516 
Q 1375 441 1709 441 
Q 2250 441 2565 725 
Q 2881 1009 2881 1497 
Q 2881 1984 2565 2268 
Q 2250 2553 1709 2553 
Q 1456 2553 1204 2497 
Q 953 2441 691 2322 
L 691 4666 
z
" transform="scale(0.015625)"/>
       </defs>
       <use xlink:href="#DejaVuSans-30"/>
       <use xlink:href="#DejaVuSans-2e" x="63.623047"/>
       <use xlink:href="#DejaVuSans-32" x="95.410156"/>
       <use xlink:href="#DejaVuSans-35" x="159.033203"/>
      </g>
     </g>
    </g>
    <g id="ytick_3">
     <g id="line2d_9">
      <g>
       <use xlink:href="#mfa3cacaa82" x="50.14375" y="213.212774" style="stroke: #000000; stroke-width: 0.8"/>
      </g>
     </g>
     <g id="text_10">
      <!-- 0.50 -->
      <g transform="translate(20.878125 217.011993) scale(0.1 -0.1)">
       <use xlink:href="#DejaVuSans-30"/>
       <use xlink:href="#DejaVuSans-2e" x="63.623047"/>
       <use xlink:href="#DejaVuSans-35" x="95.410156"/>
       <use xlink:href="#DejaVuSans-30" x="159.033203"/>
      </g>
     </g>
    </g>
    <g id="ytick_4">
     <g id="line2d_10">
      <g>
       <use xlink:href="#mfa3cacaa82" x="50.14375" y="180.694005" style="stroke: #000000; stroke-width: 0.8"/>
      </g>
     </g>
     <g id="text_11">
      <!-- 0.75 -->
      <g transform="translate(20.878125 184.493224) scale(0.1 -0.1)">
       <defs>
        <path id="DejaVuSans-37" d="M 525 4666 
L 3525 4666 
L 3525 4397 
L 1831 0 
L 1172 0 
L 2766 4134 
L 525 4134 
L 525 4666 
z
" transform="scale(0.015625)"/>
       </defs>
       <use xlink:href="#DejaVuSans-30"/>
       <use xlink:href="#DejaVuSans-2e" x="63.623047"/>
       <use xlink:href="#DejaVuSans-37" x="95.410156"/>
       <use xlink:href="#DejaVuSans-35" x="159.033203"/>
      </g>
     </g>
    </g>
    <g id="ytick_5">
     <g id="line2d_11">
      <g>
       <use xlink:href="#mfa3cacaa82" x="50.14375" y="148.175236" style="stroke: #000000; stroke-width: 0.8"/>
      </g>
     </g>
     <g id="text_12">
      <!-- 1.00 -->
      <g transform="translate(20.878125 151.974455) scale(0.1 -0.1)">
       <use xlink:href="#DejaVuSans-31"/>
       <use xlink:href="#DejaVuSans-2e" x="63.623047"/>
       <use xlink:href="#DejaVuSans-30" x="95.410156"/>
       <use xlink:href="#DejaVuSans-30" x="159.033203"/>
      </g>
     </g>
    </g>
    <g id="ytick_6">
     <g id="line2d_12">
      <g>
       <use xlink:href="#mfa3cacaa82" x="50.14375" y="115.656467" style="stroke: #000000; stroke-width: 0.8"/>
      </g>
     </g>
     <g id="text_13">
      <!-- 1.25 -->
      <g transform="translate(20.878125 119.455685) scale(0.1 -0.1)">
       <use xlink:href="#DejaVuSans-31"/>
       <use xlink:href="#DejaVuSans-2e" x="63.623047"/>
       <use xlink:href="#DejaVuSans-32" x="95.410156"/>
       <use xlink:href="#DejaVuSans-35" x="159.033203"/>
      </g>
     </g>
    </g>
    <g id="ytick_7">
     <g id="line2d_13">
      <g>
       <use xlink:href="#mfa3cacaa82" x="50.14375" y="83.137697" style="stroke: #000000; stroke-width: 0.8"/>
      </g>
     </g>
     <g id="text_14">
      <!-- 1.50 -->
      <g transform="translate(20.878125 86.936916) scale(0.1 -0.1)">
       <use xlink:href="#DejaVuSans-31"/>
       <use xlink:href="#DejaVuSans-2e" x="63.623047"/>
       <use xlink:href="#DejaVuSans-35" x="95.410156"/>
       <use xlink:href="#DejaVuSans-30" x="159.033203"/>
      </g>
     </g>
    </g>
    <g id="ytick_8">
     <g id="line2d_14">
      <g>
       <use xlink:href="#mfa3cacaa82" x="50.14375" y="50.618928" style="stroke: #000000; stroke-width: 0.8"/>
      </g>
     </g>
     <g id="text_15">
      <!-- 1.75 -->
      <g transform="translate(20.878125 54.418147) scale(0.1 -0.1)">
       <use xlink:href="#DejaVuSans-31"/>
       <use xlink:href="#DejaVuSans-2e" x="63.623047"/>
       <use xlink:href="#DejaVuSans-37" x="95.410156"/>
       <use xlink:href="#DejaVuSans-35" x="159.033203"/>
      </g>
     </g>
    </g>
    <g id="text_16">
     <!-- Time per call (ms) -->
     <g transform="translate(14.798438 200.649125) rotate(-90) scale(0.1 -0.1)">
      <defs>
       <path id="DejaVuSans-54" d="M -19 4666 
L 3928 4666 
L 3928 4134 
L 2272 4134 
L 2272 0 
L 1638 0 
L 1638 4134 
L -19 4134 
L -19 4666 
z
" transform="scale(0.015625)"/>
       <path id="DejaVuSans-69" d="M 603 3500 
L 1178 3500 
L 1178 0 
L 603 0 
L 603 3500 
z
M 603 4863 
L 1178 4863 
L 1178 4134 
L 603 4134 
L 603 4863 
z
" transform="scale(0.015625)"/>
       <path id="DejaVuSans-63" d="M 3122 3366 
L 3122 2828 
Q 2878 2963 2633 3030 
Q 2388 3097 2138 3097 
Q 1578 3097 1268 2742 
Q 959 2388 959 1747 
Q 959 1106 1268 751 
Q 1578 397 2138 397 
Q 2388 397 2633 464 
Q 2878 531 3122 666 
L 3122 134 
Q 2881 22 2623 -34 
Q 2366 -91 2075 -91 
Q 1284 -91 818 406 
Q 353 903 353 1747 
Q 353 2603 823 3093 
Q 1294 3584 2113 3584 
Q 2378 3584 2631 3529 
Q 2884 3475 3122 3366 
z
" transform="scale(0.015625)"/>
       <path id="DejaVuSans-6c" d="M 603 4863 
L 1178 4863 
L 1178 0 
L 603 0 
L 603 4863 
z
" transform="scale(0.015625)"/>
       <path id="DejaVuSans-28" d="M 1984 4856 
Q 1566 4138 1362 3434 
Q 1159 2731 1159 2009 
Q 1159 1288 1364 580 
Q 1569 -128 1984 -844 
L 1484 -844 
Q 1016 -109 783 600 
Q 550 1309 550 2009 
Q 550 2706 781 3412 
Q 1013 4119 1484 4856 
L 1984 4856 
z
" transform="scale(0.015625)"/>
       <path id="DejaVuSans-29" d="M 513 4856 
L 1013 4856 
Q 1481 4119 1714 3412 
Q 1947 2706 1947 2009 
Q 1947 1309 1714 600 
Q 1481 -109 1013 -844 
L 513 -844 
Q 928 -128 1133 580 
Q 1338 1288 1338 2009 
Q 1338 2731 1133 3434 
Q 928 4138 513 4856 
z
" transform="scale(0.015625)"/>
      </defs>
      <use xlink:href="#DejaVuSans-54"/>
      <use xlink:href="#DejaVuSans-69" x="57.958984"/>
      <use xlink:href="#DejaVuSans-6d" x="85.742188"/>
      <use xlink:href="#DejaVuSans-65" x="183.154297"/>
      <use xlink:href="#DejaVuSans-20" x="244.677734"/>
      <use xlink:href="#DejaVuSans-70" x="276.464844"/>
      <use xlink:href="#DejaVuSans-65" x="339.941406"/>
      <use xlink:href="#DejaVuSans-72" x="401.464844"/>
      <use xlink:href="#DejaVuSans-20" x="442.578125"/>
      <use xlink:href="#DejaVuSans-63" x="474.365234"/>
      <use xlink:href="#DejaVuSans-61" x="529.345703"/>
      <use xlink:href="#DejaVuSans-6c" x="590.625"/>
      <use xlink:href="#DejaVuSans-6c" x="618.408203"/>
      <use xlink:href="#DejaVuSans-20" x="646.191406"/>
      <use xlink:href="#DejaVuSans-28" x="677.978516"/>
      <use xlink:href="#DejaVuSans-6d" x="716.992188"/>
      <use xlink:href="#DejaVuSans-73" x="814.404297"/>
      <use xlink:href="#DejaVuSans-29" x="866.503906"/>
     </g>
    </g>
   </g>
   <g id="line2d_15">
    <path d="M 66.376477 276.334125 
L 69.655816 273.287287 
L 72.935155 271.265618 
L 76.214494 268.598547 
L 79.493833 265.922603 
L 82.773171 263.529567 
L 86.05251 260.949089 
L 89.331849 259.753145 
L 92.611188 256.528633 
L 95.890527 253.717407 
L 99.169866 251.540554 
L 102.449205 248.10457 
L 105.728543 248.007891 
L 109.007882 242.869938 
L 112.287221 241.153046 
L 115.56656 238.376607 
L 118.845899 238.818331 
L 122.125238 231.421342 
L 125.404576 233.589631 
L 128.683915 227.969651 
L 131.963254 227.311359 
L 135.242593 226.095931 
L 138.521932 224.070968 
L 141.801271 218.388159 
L 145.08061 212.308775 
L 148.359948 217.065928 
L 151.639287 208.213868 
L 154.918626 210.996242 
L 158.197965 203.562174 
L 161.477304 209.342956 
L 164.756643 197.026138 
L 168.035981 202.123174 
L 171.31532 191.037642 
L 174.594659 199.254375 
L 177.873998 196.272039 
L 181.153337 194.864356 
L 184.432676 187.673074 
L 187.712014 188.460601 
L 190.991353 188.159896 
L 194.270692 184.979366 
L 197.550031 171.787923 
L 200.82937 182.314295 
L 204.108709 176.955646 
L 207.388048 174.431781 
L 210.667386 172.924184 
L 213.946725 171.100924 
L 217.226064 169.222607 
L 220.505403 167.705734 
L 223.784742 160.180558 
L 227.064081 162.983555 
L 230.343419 160.28293 
L 233.622758 160.74433 
L 236.902097 152.241401 
L 240.181436 151.996511 
L 243.460775 140.697647 
L 246.740114 143.69706 
L 250.019452 142.638922 
L 253.298791 143.993161 
L 256.57813 142.045137 
L 259.857469 142.127234 
L 263.136808 134.804362 
L 266.416147 129.069974 
L 269.695486 127.950201 
L 272.974824 126.184883 
L 276.254163 126.508868 
L 279.533502 120.96442 
L 282.812841 114.811042 
L 286.09218 118.115798 
L 289.371519 101.090431 
L 292.650857 114.133792 
L 295.930196 112.783556 
L 299.209535 109.290758 
L 302.488874 108.50203 
L 305.768213 101.644827 
L 309.047552 103.882056 
L 312.32689 97.345773 
L 315.606229 95.208711 
L 318.885568 95.840964 
L 322.164907 93.294835 
L 325.444246 85.732063 
L 328.723585 87.871762 
L 332.002924 85.074094 
L 335.282262 86.590846 
L 338.561601 80.869697 
L 341.84094 78.623246 
L 345.120279 76.888688 
L 348.399618 75.496651 
L 351.678957 75.715744 
L 354.958295 74.640897 
L 358.237634 73.785002 
L 361.516973 64.431497 
L 364.796312 66.244384 
L 368.075651 63.557273 
L 371.35499 56.547369 
L 374.634329 49.148755 
L 377.913667 53.485279 
L 381.193006 52.510768 
L 384.472345 41.966876 
L 387.751684 47.128425 
L 391.031023 34.414125 
" clip-path="url(#p6c40fa97bb)" style="fill: none; stroke: #1f77b4; stroke-width: 1.5; stroke-linecap: square"/>
    <defs>
     <path id="m97ca4f289f" d="M 0 1.5 
C 0.397805 1.5 0.77937 1.341951 1.06066 1.06066 
C 1.341951 0.77937 1.5 0.397805 1.5 0 
C 1.5 -0.397805 1.341951 -0.77937 1.06066 -1.06066 
C 0.77937 -1.341951 0.397805 -1.5 0 -1.5 
C -0.397805 -1.5 -0.77937 -1.341951 -1.06066 -1.06066 
C -1.341951 -0.77937 -1.5 -0.397805 -1.5 0 
C -1.5 0.397805 -1.341951 0.77937 -1.06066 1.06066 
C -0.77937 1.341951 -0.397805 1.5 0 1.5 
z
" style="stroke: #1f77b4"/>
    </defs>
    <g clip-path="url(#p6c40fa97bb)">
     <use xlink:href="#m97ca4f289f" x="66.376477" y="276.334125" style="fill: #1f77b4; stroke: #1f77b4"/>
     <use xlink:href="#m97ca4f289f" x="69.655816" y="273.287287" style="fill: #1f77b4; stroke: #1f77b4"/>
     <use xlink:href="#m97ca4f289f" x="72.935155" y="271.265618" style="fill: #1f77b4; stroke: #1f77b4"/>
     <use xlink:href="#m97ca4f289f" x="76.214494" y="268.598547" style="fill: #1f77b4; stroke: #1f77b4"/>
     <use xlink:href="#m97ca4f289f" x="79.493833" y="265.922603" style="fill: #1f77b4; stroke: #1f77b4"/>
     <use xlink:href="#m97ca4f289f" x="82.773171" y="263.529567" style="fill: #1f77b4; stroke: #1f77b4"/>
     <use xlink:href="#m97ca4f289f" x="86.05251" y="260.949089" style="fill: #1f77b4; stroke: #1f77b4"/>
     <use xlink:href="#m97ca4f289f" x="89.331849" y="259.753145" style="fill: #1f77b4; stroke: #1f77b4"/>
     <use xlink:href="#m97ca4f289f" x="92.611188" y="256.528633" style="fill: #1f77b4; stroke: #1f77b4"/>
     <use xlink:href="#m97ca4f289f" x="95.890527" y="253.717407" style="fill: #1f77b4; stroke: #1f77b4"/>
     <use xlink:href="#m97ca4f289f" x="99.169866" y="251.540554" style="fill: #1f77b4; stroke: #1f77b4"/>
     <use xlink:href="#m97ca4f289f" x="102.449205" y="248.10457" style="fill: #1f77b4; stroke: #1f77b4"/>
     <use xlink:href="#m97ca4f289f" x="105.728543" y="248.007891" style="fill: #1f77b4; stroke: #1f77b4"/>
     <use xlink:href="#m97ca4f289f" x="109.007882" y="242.869938" style="fill: #1f77b4; stroke: #1f77b4"/>
     <use xlink:href="#m97ca4f289f" x="112.287221" y="241.153046" style="fill: #1f77b4; stroke: #1f77b4"/>
     <use xlink:href="#m97ca4f289f" x="115.56656" y="238.376607" style="fill: #1f77b4; stroke: #1f77b4"/>
     <use xlink:href="#m97ca4f289f" x="118.845899" y="238.818331" style="fill: #1f77b4; stroke: #1f77b4"/>
     <use xlink:href="#m97ca4f289f" x="122.125238" y="231.421342" style="fill: #1f77b4; stroke: #1f77b4"/>
     <use xlink:href="#m97ca4f289f" x="125.404576" y="233.589631" style="fill: #1f77b4; stroke: #1f77b4"/>
     <use xlink:href="#m97ca4f289f" x="128.683915" y="227.969651" style="fill: #1f77b4; stroke: #1f77b4"/>
     <use xlink:href="#m97ca4f289f" x="131.963254" y="227.311359" style="fill: #1f77b4; stroke: #1f77b4"/>
     <use xlink:href="#m97ca4f289f" x="135.242593" y="226.095931" style="fill: #1f77b4; stroke: #1f77b4"/>
     <use xlink:href="#m97ca4f289f" x="138.521932" y="224.070968" style="fill: #1f77b4; stroke: #1f77b4"/>
     <use xlink:href="#m97ca4f289f" x="141.801271" y="218.388159" style="fill: #1f77b4; stroke: #1f77b4"/>
     <use xlink:href="#m97ca4f289f" x="145.08061" y="212.308775" style="fill: #1f77b4; stroke: #1f77b4"/>
     <use xlink:href="#m97ca4f289f" x="148.359948" y="217.065928" style="fill: #1f77b4; stroke: #1f77b4"/>
     <use xlink:href="#m97ca4f289f" x="151.639287" y="208.213868" style="fill: #1f77b4; stroke: #1f77b4"/>
     <use xlink:href="#m97ca4f289f" x="154.918626" y="210.996242" style="fill: #1f77b4; stroke: #1f77b4"/>
     <use xlink:href="#m97ca4f289f" x="158.197965" y="203.562174" style="fill: #1f77b4; stroke: #1f77b4"/>
     <use xlink:href="#m97ca4f289f" x="161.477304" y="209.342956" style="fill: #1f77b4; stroke: #1f77b4"/>
     <use xlink:href="#m97ca4f289f" x="164.756643" y="197.026138" style="fill: #1f77b4; stroke: #1f77b4"/>
     <use xlink:href="#m97ca4f289f" x="168.035981" y="202.123174" style="fill: #1f77b4; stroke: #1f77b4"/>
     <use xlink:href="#m97ca4f289f" x="171.31532" y="191.037642" style="fill: #1f77b4; stroke: #1f77b4"/>
     <use xlink:href="#m97ca4f289f" x="174.594659" y="199.254375" style="fill: #1f77b4; stroke: #1f77b4"/>
     <use xlink:href="#m97ca4f289f" x="177.873998" y="196.272039" style="fill: #1f77b4; stroke: #1f77b4"/>
     <use xlink:href="#m97ca4f289f" x="181.153337" y="194.864356" style="fill: #1f77b4; stroke: #1f77b4"/>
     <use xlink:href="#m97ca4f289f" x="184.432676" y="187.673074" style="fill: #1f77b4; stroke: #1f77b4"/>
     <use xlink:href="#m97ca4f289f" x="187.712014" y="188.460601" style="fill: #1f77b4; stroke: #1f77b4"/>
     <use xlink:href="#m97ca4f289f" x="190.991353" y="188.159896" style="fill: #1f77b4; stroke: #1f77b4"/>
     <use xlink:href="#m97ca4f289f" x="194.270692" y="184.979366" style="fill: #1f77b4; stroke: #1f77b4"/>
     <use xlink:href="#m97ca4f289f" x="197.550031" y="171.787923" style="fill: #1f77b4; stroke: #1f77b4"/>
     <use xlink:href="#m97ca4f289f" x="200.82937" y="182.314295" style="fill: #1f77b4; stroke: #1f77b4"/>
     <use xlink:href="#m97ca4f289f" x="204.108709" y="176.955646" style="fill: #1f77b4; stroke: #1f77b4"/>
     <use xlink:href="#m97ca4f289f" x="207.388048" y="174.431781" style="fill: #1f77b4; stroke: #1f77b4"/>
     <use xlink:href="#m97ca4f289f" x="210.667386" y="172.924184" style="fill: #1f77b4; stroke: #1f77b4"/>
     <use xlink:href="#m97ca4f289f" x="213.946725" y="171.100924" style="fill: #1f77b4; stroke: #1f77b4"/>
     <use xlink:href="#m97ca4f289f" x="217.226064" y="169.222607" style="fill: #1f77b4; stroke: #1f77b4"/>
     <use xlink:href="#m97ca4f289f" x="220.505403" y="167.705734" style="fill: #1f77b4; stroke: #1f77b4"/>
     <use xlink:href="#m97ca4f289f" x="223.784742" y="160.180558" style="fill: #1f77b4; stroke: #1f77b4"/>
     <use xlink:href="#m97ca4f289f" x="227.064081" y="162.983555" style="fill: #1f77b4; stroke: #1f77b4"/>
     <use xlink:href="#m97ca4f289f" x="230.343419" y="160.28293" style="fill: #1f77b4; stroke: #1f77b4"/>
     <use xlink:href="#m97ca4f289f" x="233.622758" y="160.74433" style="fill: #1f77b4; stroke: #1f77b4"/>
     <use xlink:href="#m97ca4f289f" x="236.902097" y="152.241401" style="fill: #1f77b4; stroke: #1f77b4"/>
     <use xlink:href="#m97ca4f289f" x="240.181436" y="151.996511" style="fill: #1f77b4; stroke: #1f77b4"/>
     <use xlink:href="#m97ca4f289f" x="243.460775" y="140.697647" style="fill: #1f77b4; stroke: #1f77b4"/>
     <use xlink:href="#m97ca4f289f" x="246.740114" y="143.69706" style="fill: #1f77b4; stroke: #1f77b4"/>
     <use xlink:href="#m97ca4f289f" x="250.019452" y="142.638922" style="fill: #1f77b4; stroke: #1f77b4"/>
     <use xlink:href="#m97ca4f289f" x="253.298791" y="143.993161" style="fill: #1f77b4; stroke: #1f77b4"/>
     <use xlink:href="#m97ca4f289f" x="256.57813" y="142.045137" style="fill: #1f77b4; stroke: #1f77b4"/>
     <use xlink:href="#m97ca4f289f" x="259.857469" y="142.127234" style="fill: #1f77b4; stroke: #1f77b4"/>
     <use xlink:href="#m97ca4f289f" x="263.136808" y="134.804362" style="fill: #1f77b4; stroke: #1f77b4"/>
     <use xlink:href="#m97ca4f289f" x="266.416147" y="129.069974" style="fill: #1f77b4; stroke: #1f77b4"/>
     <use xlink:href="#m97ca4f289f" x="269.695486" y="127.950201" style="fill: #1f77b4; stroke: #1f77b4"/>
     <use xlink:href="#m97ca4f289f" x="272.974824" y="126.184883" style="fill: #1f77b4; stroke: #1f77b4"/>
     <use xlink:href="#m97ca4f289f" x="276.254163" y="126.508868" style="fill: #1f77b4; stroke: #1f77b4"/>
     <use xlink:href="#m97ca4f289f" x="279.533502" y="120.96442" style="fill: #1f77b4; stroke: #1f77b4"/>
     <use xlink:href="#m97ca4f289f" x="282.812841" y="114.811042" style="fill: #1f77b4; stroke: #1f77b4"/>
     <use xlink:href="#m97ca4f289f" x="286.09218" y="118.115798" style="fill: #1f77b4; stroke: #1f77b4"/>
     <use xlink:href="#m97ca4f289f" x="289.371519" y="101.090431" style="fill: #1f77b4; stroke: #1f77b4"/>
     <use xlink:href="#m97ca4f289f" x="292.650857" y="114.133792" style="fill: #1f77b4; stroke: #1f77b4"/>
     <use xlink:href="#m97ca4f289f" x="295.930196" y="112.783556" style="fill: #1f77b4; stroke: #1f77b4"/>
     <use xlink:href="#m97ca4f289f" x="299.209535" y="109.290758" style="fill: #1f77b4; stroke: #1f77b4"/>
     <use xlink:href="#m97ca4f289f" x="302.488874" y="108.50203" style="fill: #1f77b4; stroke: #1f77b4"/>
     <use xlink:href="#m97ca4f289f" x="305.768213" y="101.644827" style="fill: #1f77b4; stroke: #1f77b4"/>
     <use xlink:href="#m97ca4f289f" x="309.047552" y="103.882056" style="fill: #1f77b4; stroke: #1f77b4"/>
     <use xlink:href="#m97ca4f289f" x="312.32689" y="97.345773" style="fill: #1f77b4; stroke: #1f77b4"/>
     <use xlink:href="#m97ca4f289f" x="315.606229" y="95.208711" style="fill: #1f77b4; stroke: #1f77b4"/>
     <use xlink:href="#m97ca4f289f" x="318.885568" y="95.840964" style="fill: #1f77b4; stroke: #1f77b4"/>
     <use xlink:href="#m97ca4f289f" x="322.164907" y="93.294835" style="fill: #1f77b4; stroke: #1f77b4"/>
     <use xlink:href="#m97ca4f289f" x="325.444246" y="85.732063" style="fill: #1f77b4; stroke: #1f77b4"/>
     <use xlink:href="#m97ca4f289f" x="328.723585" y="87.871762" style="fill: #1f77b4; stroke: #1f77b4"/>
     <use xlink:href="#m97ca4f289f" x="332.002924" y="85.074094" style="fill: #1f77b4; stroke: #1f77b4"/>
     <use xlink:href="#m97ca4f289f" x="335.282262" y="86.590846" style="fill: #1f77b4; stroke: #1f77b4"/>
     <use xlink:href="#m97ca4f289f" x="338.561601" y="80.869697" style="fill: #1f77b4; stroke: #1f77b4"/>
     <use xlink:href="#m97ca4f289f" x="341.84094" y="78.623246" style="fill: #1f77b4; stroke: #1f77b4"/>
     <use xlink:href="#m97ca4f289f" x="345.120279" y="76.888688" style="fill: #1f77b4; stroke: #1f77b4"/>
     <use xlink:href="#m97ca4f289f" x="348.399618" y="75.496651" style="fill: #1f77b4; stroke: #1f77b4"/>
     <use xlink:href="#m97ca4f289f" x="351.678957" y="75.715744" style="fill: #1f77b4; stroke: #1f77b4"/>
     <use xlink:href="#m97ca4f289f" x="354.958295" y="74.640897" style="fill: #1f77b4; stroke: #1f77b4"/>
     <use xlink:href="#m97ca4f289f" x="358.237634" y="73.785002" style="fill: #1f77b4; stroke: #1f77b4"/>
     <use xlink:href="#m97ca4f289f" x="361.516973" y="64.431497" style="fill: #1f77b4; stroke: #1f77b4"/>
     <use xlink:href="#m97ca4f289f" x="364.796312" y="66.244384" style="fill: #1f77b4; stroke: #1f77b4"/>
     <use xlink:href="#m97ca4f289f" x="368.075651" y="63.557273" style="fill: #1f77b4; stroke: #1f77b4"/>
     <use xlink:href="#m97ca4f289f" x="371.35499" y="56.547369" style="fill: #1f77b4; stroke: #1f77b4"/>
     <use xlink:href="#m97ca4f289f" x="374.634329" y="49.148755" style="fill: #1f77b4; stroke: #1f77b4"/>
     <use xlink:href="#m97ca4f289f" x="377.913667" y="53.485279" style="fill: #1f77b4; stroke: #1f77b4"/>
     <use xlink:href="#m97ca4f289f" x="381.193006" y="52.510768" style="fill: #1f77b4; stroke: #1f77b4"/>
     <use xlink:href="#m97ca4f289f" x="384.472345" y="41.966876" style="fill: #1f77b4; stroke: #1f77b4"/>
     <use xlink:href="#m97ca4f289f" x="387.751684" y="47.128425" style="fill: #1f77b4; stroke: #1f77b4"/>
     <use xlink:href="#m97ca4f289f" x="391.031023" y="34.414125" style="fill: #1f77b4; stroke: #1f77b4"/>
    </g>
   </g>
   <g id="line2d_16">
    <path d="M 66.376477 275.469325 
L 69.655816 272.514521 
L 72.935155 270.474348 
L 76.214494 267.796359 
L 79.493833 264.822199 
L 82.773171 262.790953 
L 86.05251 260.321395 
L 89.331849 257.969326 
L 92.611188 255.165283 
L 95.890527 252.80347 
L 99.169866 249.766434 
L 102.449205 246.20138 
L 105.728543 246.782961 
L 109.007882 241.688968 
L 112.287221 241.223553 
L 115.56656 236.999963 
L 118.845899 237.749742 
L 122.125238 228.528788 
L 125.404576 231.199472 
L 128.683915 226.02773 
L 131.963254 227.559709 
L 135.242593 226.273078 
L 138.521932 222.738061 
L 141.801271 221.202473 
L 145.08061 213.349234 
L 148.359948 217.405568 
L 151.639287 208.220414 
L 154.918626 212.170462 
L 158.197965 201.397832 
L 161.477304 206.136829 
L 164.756643 197.857249 
L 168.035981 203.876052 
L 171.31532 193.081937 
L 174.594659 199.483493 
L 177.873998 195.470103 
L 181.153337 193.616056 
L 184.432676 191.974618 
L 187.712014 189.99391 
L 190.991353 187.689701 
L 194.270692 186.716913 
L 197.550031 169.6541 
L 200.82937 180.149739 
L 204.108709 180.1771 
L 207.388048 174.293241 
L 210.667386 173.619746 
L 213.946725 168.568251 
L 217.226064 168.56816 
L 220.505403 168.979012 
L 223.784742 166.976169 
L 227.064081 164.314153 
L 230.343419 160.314572 
L 233.622758 158.972129 
L 236.902097 154.452252 
L 240.181436 148.485283 
L 243.460775 151.787007 
L 246.740114 150.645032 
L 250.019452 145.521129 
L 253.298791 145.79062 
L 256.57813 143.256624 
L 259.857469 142.042368 
L 263.136808 137.66487 
L 266.416147 135.838125 
L 269.695486 134.256233 
L 272.974824 242.588323 
L 276.254163 245.459824 
L 279.533502 239.134602 
L 282.812841 246.45936 
L 286.09218 244.600896 
L 289.371519 244.38572 
L 292.650857 236.299976 
L 295.930196 237.700501 
L 299.209535 242.977709 
L 302.488874 238.976498 
L 305.768213 242.226178 
L 309.047552 239.371829 
L 312.32689 237.919626 
L 315.606229 235.840495 
L 318.885568 241.26522 
L 322.164907 238.826277 
L 325.444246 241.047196 
L 328.723585 240.748356 
L 332.002924 241.668745 
L 335.282262 230.083019 
L 338.561601 237.086286 
L 341.84094 239.682126 
L 345.120279 238.059422 
L 348.399618 233.105821 
L 351.678957 237.278654 
L 354.958295 237.307965 
L 358.237634 238.983693 
L 361.516973 235.315043 
L 364.796312 231.843255 
L 368.075651 231.670106 
L 371.35499 229.649334 
L 374.634329 235.930022 
L 377.913667 226.67564 
L 381.193006 235.378347 
L 384.472345 233.783518 
L 387.751684 231.008117 
L 391.031023 233.503264 
" clip-path="url(#p6c40fa97bb)" style="fill: none; stroke: #ff7f0e; stroke-width: 1.5; stroke-linecap: square"/>
    <defs>
     <path id="m1e1f044fac" d="M 0 1.5 
C 0.397805 1.5 0.77937 1.341951 1.06066 1.06066 
C 1.341951 0.77937 1.5 0.397805 1.5 0 
C 1.5 -0.397805 1.341951 -0.77937 1.06066 -1.06066 
C 0.77937 -1.341951 0.397805 -1.5 0 -1.5 
C -0.397805 -1.5 -0.77937 -1.341951 -1.06066 -1.06066 
C -1.341951 -0.77937 -1.5 -0.397805 -1.5 0 
C -1.5 0.397805 -1.341951 0.77937 -1.06066 1.06066 
C -0.77937 1.341951 -0.397805 1.5 0 1.5 
z
" style="stroke: #ff7f0e"/>
    </defs>
    <g clip-path="url(#p6c40fa97bb)">
     <use xlink:href="#m1e1f044fac" x="66.376477" y="275.469325" style="fill: #ff7f0e; stroke: #ff7f0e"/>
     <use xlink:href="#m1e1f044fac" x="69.655816" y="272.514521" style="fill: #ff7f0e; stroke: #ff7f0e"/>
     <use xlink:href="#m1e1f044fac" x="72.935155" y="270.474348" style="fill: #ff7f0e; stroke: #ff7f0e"/>
     <use xlink:href="#m1e1f044fac" x="76.214494" y="267.796359" style="fill: #ff7f0e; stroke: #ff7f0e"/>
     <use xlink:href="#m1e1f044fac" x="79.493833" y="264.822199" style="fill: #ff7f0e; stroke: #ff7f0e"/>
     <use xlink:href="#m1e1f044fac" x="82.773171" y="262.790953" style="fill: #ff7f0e; stroke: #ff7f0e"/>
     <use xlink:href="#m1e1f044fac" x="86.05251" y="260.321395" style="fill: #ff7f0e; stroke: #ff7f0e"/>
     <use xlink:href="#m1e1f044fac" x="89.331849" y="257.969326" style="fill: #ff7f0e; stroke: #ff7f0e"/>
     <use xlink:href="#m1e1f044fac" x="92.611188" y="255.165283" style="fill: #ff7f0e; stroke: #ff7f0e"/>
     <use xlink:href="#m1e1f044fac" x="95.890527" y="252.80347" style="fill: #ff7f0e; stroke: #ff7f0e"/>
     <use xlink:href="#m1e1f044fac" x="99.169866" y="249.766434" style="fill: #ff7f0e; stroke: #ff7f0e"/>
     <use xlink:href="#m1e1f044fac" x="102.449205" y="246.20138" style="fill: #ff7f0e; stroke: #ff7f0e"/>
     <use xlink:href="#m1e1f044fac" x="105.728543" y="246.782961" style="fill: #ff7f0e; stroke: #ff7f0e"/>
     <use xlink:href="#m1e1f044fac" x="109.007882" y="241.688968" style="fill: #ff7f0e; stroke: #ff7f0e"/>
     <use xlink:href="#m1e1f044fac" x="112.287221" y="241.223553" style="fill: #ff7f0e; stroke: #ff7f0e"/>
     <use xlink:href="#m1e1f044fac" x="115.56656" y="236.999963" style="fill: #ff7f0e; stroke: #ff7f0e"/>
     <use xlink:href="#m1e1f044fac" x="118.845899" y="237.749742" style="fill: #ff7f0e; stroke: #ff7f0e"/>
     <use xlink:href="#m1e1f044fac" x="122.125238" y="228.528788" style="fill: #ff7f0e; stroke: #ff7f0e"/>
     <use xlink:href="#m1e1f044fac" x="125.404576" y="231.199472" style="fill: #ff7f0e; stroke: #ff7f0e"/>
     <use xlink:href="#m1e1f044fac" x="128.683915" y="226.02773" style="fill: #ff7f0e; stroke: #ff7f0e"/>
     <use xlink:href="#m1e1f044fac" x="131.963254" y="227.559709" style="fill: #ff7f0e; stroke: #ff7f0e"/>
     <use xlink:href="#m1e1f044fac" x="135.242593" y="226.273078" style="fill: #ff7f0e; stroke: #ff7f0e"/>
     <use xlink:href="#m1e1f044fac" x="138.521932" y="222.738061" style="fill: #ff7f0e; stroke: #ff7f0e"/>
     <use xlink:href="#m1e1f044fac" x="141.801271" y="221.202473" style="fill: #ff7f0e; stroke: #ff7f0e"/>
     <use xlink:href="#m1e1f044fac" x="145.08061" y="213.349234" style="fill: #ff7f0e; stroke: #ff7f0e"/>
     <use xlink:href="#m1e1f044fac" x="148.359948" y="217.405568" style="fill: #ff7f0e; stroke: #ff7f0e"/>
     <use xlink:href="#m1e1f044fac" x="151.639287" y="208.220414" style="fill: #ff7f0e; stroke: #ff7f0e"/>
     <use xlink:href="#m1e1f044fac" x="154.918626" y="212.170462" style="fill: #ff7f0e; stroke: #ff7f0e"/>
     <use xlink:href="#m1e1f044fac" x="158.197965" y="201.397832" style="fill: #ff7f0e; stroke: #ff7f0e"/>
     <use xlink:href="#m1e1f044fac" x="161.477304" y="206.136829" style="fill: #ff7f0e; stroke: #ff7f0e"/>
     <use xlink:href="#m1e1f044fac" x="164.756643" y="197.857249" style="fill: #ff7f0e; stroke: #ff7f0e"/>
     <use xlink:href="#m1e1f044fac" x="168.035981" y="203.876052" style="fill: #ff7f0e; stroke: #ff7f0e"/>
     <use xlink:href="#m1e1f044fac" x="171.31532" y="193.081937" style="fill: #ff7f0e; stroke: #ff7f0e"/>
     <use xlink:href="#m1e1f044fac" x="174.594659" y="199.483493" style="fill: #ff7f0e; stroke: #ff7f0e"/>
     <use xlink:href="#m1e1f044fac" x="177.873998" y="195.470103" style="fill: #ff7f0e; stroke: #ff7f0e"/>
     <use xlink:href="#m1e1f044fac" x="181.153337" y="193.616056" style="fill: #ff7f0e; stroke: #ff7f0e"/>
     <use xlink:href="#m1e1f044fac" x="184.432676" y="191.974618" style="fill: #ff7f0e; stroke: #ff7f0e"/>
     <use xlink:href="#m1e1f044fac" x="187.712014" y="189.99391" style="fill: #ff7f0e; stroke: #ff7f0e"/>
     <use xlink:href="#m1e1f044fac" x="190.991353" y="187.689701" style="fill: #ff7f0e; stroke: #ff7f0e"/>
     <use xlink:href="#m1e1f044fac" x="194.270692" y="186.716913" style="fill: #ff7f0e; stroke: #ff7f0e"/>
     <use xlink:href="#m1e1f044fac" x="197.550031" y="169.6541" style="fill: #ff7f0e; stroke: #ff7f0e"/>
     <use xlink:href="#m1e1f044fac" x="200.82937" y="180.149739" style="fill: #ff7f0e; stroke: #ff7f0e"/>
     <use xlink:href="#m1e1f044fac" x="204.108709" y="180.1771" style="fill: #ff7f0e; stroke: #ff7f0e"/>
     <use xlink:href="#m1e1f044fac" x="207.388048" y="174.293241" style="fill: #ff7f0e; stroke: #ff7f0e"/>
     <use xlink:href="#m1e1f044fac" x="210.667386" y="173.619746" style="fill: #ff7f0e; stroke: #ff7f0e"/>
     <use xlink:href="#m1e1f044fac" x="213.946725" y="168.568251" style="fill: #ff7f0e; stroke: #ff7f0e"/>
     <use xlink:href="#m1e1f044fac" x="217.226064" y="168.56816" style="fill: #ff7f0e; stroke: #ff7f0e"/>
     <use xlink:href="#m1e1f044fac" x="220.505403" y="168.979012" style="fill: #ff7f0e; stroke: #ff7f0e"/>
     <use xlink:href="#m1e1f044fac" x="223.784742" y="166.976169" style="fill: #ff7f0e; stroke: #ff7f0e"/>
     <use xlink:href="#m1e1f044fac" x="227.064081" y="164.314153" style="fill: #ff7f0e; stroke: #ff7f0e"/>
     <use xlink:href="#m1e1f044fac" x="230.343419" y="160.314572" style="fill: #ff7f0e; stroke: #ff7f0e"/>
     <use xlink:href="#m1e1f044fac" x="233.622758" y="158.972129" style="fill: #ff7f0e; stroke: #ff7f0e"/>
     <use xlink:href="#m1e1f044fac" x="236.902097" y="154.452252" style="fill: #ff7f0e; stroke: #ff7f0e"/>
     <use xlink:href="#m1e1f044fac" x="240.181436" y="148.485283" style="fill: #ff7f0e; stroke: #ff7f0e"/>
     <use xlink:href="#m1e1f044fac" x="243.460775" y="151.787007" style="fill: #ff7f0e; stroke: #ff7f0e"/>
     <use xlink:href="#m1e1f044fac" x="246.740114" y="150.645032" style="fill: #ff7f0e; stroke: #ff7f0e"/>
     <use xlink:href="#m1e1f044fac" x="250.019452" y="145.521129" style="fill: #ff7f0e; stroke: #ff7f0e"/>
     <use xlink:href="#m1e1f044fac" x="253.298791" y="145.79062" style="fill: #ff7f0e; stroke: #ff7f0e"/>
     <use xlink:href="#m1e1f044fac" x="256.57813" y="143.256624" style="fill: #ff7f0e; stroke: #ff7f0e"/>
     <use xlink:href="#m1e1f044fac" x="259.857469" y="142.042368" style="fill: #ff7f0e; stroke: #ff7f0e"/>
     <use xlink:href="#m1e1f044fac" x="263.136808" y="137.66487" style="fill: #ff7f0e; stroke: #ff7f0e"/>
     <use xlink:href="#m1e1f044fac" x="266.416147" y="135.838125" style="fill: #ff7f0e; stroke: #ff7f0e"/>
     <use xlink:href="#m1e1f044fac" x="269.695486" y="134.256233" style="fill: #ff7f0e; stroke: #ff7f0e"/>
     <use xlink:href="#m1e1f044fac" x="272.974824" y="242.588323" style="fill: #ff7f0e; stroke: #ff7f0e"/>
     <use xlink:href="#m1e1f044fac" x="276.254163" y="245.459824" style="fill: #ff7f0e; stroke: #ff7f0e"/>
     <use xlink:href="#m1e1f044fac" x="279.533502" y="239.134602" style="fill: #ff7f0e; stroke: #ff7f0e"/>
     <use xlink:href="#m1e1f044fac" x="282.812841" y="246.45936" style="fill: #ff7f0e; stroke: #ff7f0e"/>
     <use xlink:href="#m1e1f044fac" x="286.09218" y="244.600896" style="fill: #ff7f0e; stroke: #ff7f0e"/>
     <use xlink:href="#m1e1f044fac" x="289.371519" y="244.38572" style="fill: #ff7f0e; stroke: #ff7f0e"/>
     <use xlink:href="#m1e1f044fac" x="292.650857" y="236.299976" style="fill: #ff7f0e; stroke: #ff7f0e"/>
     <use xlink:href="#m1e1f044fac" x="295.930196" y="237.700501" style="fill: #ff7f0e; stroke: #ff7f0e"/>
     <use xlink:href="#m1e1f044fac" x="299.209535" y="242.977709" style="fill: #ff7f0e; stroke: #ff7f0e"/>
     <use xlink:href="#m1e1f044fac" x="302.488874" y="238.976498" style="fill: #ff7f0e; stroke: #ff7f0e"/>
     <use xlink:href="#m1e1f044fac" x="305.768213" y="242.226178" style="fill: #ff7f0e; stroke: #ff7f0e"/>
     <use xlink:href="#m1e1f044fac" x="309.047552" y="239.371829" style="fill: #ff7f0e; stroke: #ff7f0e"/>
     <use xlink:href="#m1e1f044fac" x="312.32689" y="237.919626" style="fill: #ff7f0e; stroke: #ff7f0e"/>
     <use xlink:href="#m1e1f044fac" x="315.606229" y="235.840495" style="fill: #ff7f0e; stroke: #ff7f0e"/>
     <use xlink:href="#m1e1f044fac" x="318.885568" y="241.26522" style="fill: #ff7f0e; stroke: #ff7f0e"/>
     <use xlink:href="#m1e1f044fac" x="322.164907" y="238.826277" style="fill: #ff7f0e; stroke: #ff7f0e"/>
     <use xlink:href="#m1e1f044fac" x="325.444246" y="241.047196" style="fill: #ff7f0e; stroke: #ff7f0e"/>
     <use xlink:href="#m1e1f044fac" x="328.723585" y="240.748356" style="fill: #ff7f0e; stroke: #ff7f0e"/>
     <use xlink:href="#m1e1f044fac" x="332.002924" y="241.668745" style="fill: #ff7f0e; stroke: #ff7f0e"/>
     <use xlink:href="#m1e1f044fac" x="335.282262" y="230.083019" style="fill: #ff7f0e; stroke: #ff7f0e"/>
     <use xlink:href="#m1e1f044fac" x="338.561601" y="237.086286" style="fill: #ff7f0e; stroke: #ff7f0e"/>
     <use xlink:href="#m1e1f044fac" x="341.84094" y="239.682126" style="fill: #ff7f0e; stroke: #ff7f0e"/>
     <use xlink:href="#m1e1f044fac" x="345.120279" y="238.059422" style="fill: #ff7f0e; stroke: #ff7f0e"/>
     <use xlink:href="#m1e1f044fac" x="348.399618" y="233.105821" style="fill: #ff7f0e; stroke: #ff7f0e"/>
     <use xlink:href="#m1e1f044fac" x="351.678957" y="237.278654" style="fill: #ff7f0e; stroke: #ff7f0e"/>
     <use xlink:href="#m1e1f044fac" x="354.958295" y="237.307965" style="fill: #ff7f0e; stroke: #ff7f0e"/>
     <use xlink:href="#m1e1f044fac" x="358.237634" y="238.983693" style="fill: #ff7f0e; stroke: #ff7f0e"/>
     <use xlink:href="#m1e1f044fac" x="361.516973" y="235.315043" style="fill: #ff7f0e; stroke: #ff7f0e"/>
     <use xlink:href="#m1e1f044fac" x="364.796312" y="231.843255" style="fill: #ff7f0e; stroke: #ff7f0e"/>
     <use xlink:href="#m1e1f044fac" x="368.075651" y="231.670106" style="fill: #ff7f0e; stroke: #ff7f0e"/>
     <use xlink:href="#m1e1f044fac" x="371.35499" y="229.649334" style="fill: #ff7f0e; stroke: #ff7f0e"/>
     <use xlink:href="#m1e1f044fac" x="374.634329" y="235.930022" style="fill: #ff7f0e; stroke: #ff7f0e"/>
     <use xlink:href="#m1e1f044fac" x="377.913667" y="226.67564" style="fill: #ff7f0e; stroke: #ff7f0e"/>
     <use xlink:href="#m1e1f044fac" x="381.193006" y="235.378347" style="fill: #ff7f0e; stroke: #ff7f0e"/>
     <use xlink:href="#m1e1f044fac" x="384.472345" y="233.783518" style="fill: #ff7f0e; stroke: #ff7f0e"/>
     <use xlink:href="#m1e1f044fac" x="387.751684" y="231.008117" style="fill: #ff7f0e; stroke: #ff7f0e"/>
     <use xlink:href="#m1e1f044fac" x="391.031023" y="233.503264" style="fill: #ff7f0e; stroke: #ff7f0e"/>
    </g>
   </g>
   <g id="line2d_17">
    <path d="M 66.376477 270.142496 
L 69.655816 269.663606 
L 72.935155 268.523791 
L 76.214494 268.893926 
L 79.493833 269.122505 
L 82.773171 268.982196 
L 86.05251 267.343316 
L 89.331849 266.906897 
L 92.611188 267.095186 
L 95.890527 267.703022 
L 99.169866 266.881186 
L 102.449205 265.688761 
L 105.728543 266.749402 
L 109.007882 265.51303 
L 112.287221 265.267639 
L 115.56656 263.548963 
L 118.845899 265.051169 
L 122.125238 263.740995 
L 125.404576 263.986065 
L 128.683915 263.226463 
L 131.963254 264.29106 
L 135.242593 263.551798 
L 138.521932 260.707726 
L 141.801271 262.97823 
L 145.08061 261.104955 
L 148.359948 261.835668 
L 151.639287 261.544985 
L 154.918626 261.498565 
L 158.197965 261.191425 
L 161.477304 260.331489 
L 164.756643 258.662878 
L 168.035981 256.917936 
L 171.31532 256.779219 
L 174.594659 256.927116 
L 177.873998 258.03948 
L 181.153337 259.096579 
L 184.432676 257.72514 
L 187.712014 257.399235 
L 190.991353 254.551417 
L 194.270692 256.403424 
L 197.550031 252.532315 
L 200.82937 256.42678 
L 204.108709 255.162766 
L 207.388048 256.477772 
L 210.667386 252.925573 
L 213.946725 254.193536 
L 217.226064 253.24888 
L 220.505403 255.414026 
L 223.784742 253.096315 
L 227.064081 254.268227 
L 230.343419 252.565504 
L 233.622758 251.218662 
L 236.902097 250.595326 
L 240.181436 253.014792 
L 243.460775 248.803357 
L 246.740114 249.194373 
L 250.019452 250.905733 
L 253.298791 245.637189 
L 256.57813 250.035674 
L 259.857469 248.57227 
L 263.136808 247.752538 
L 266.416147 250.049398 
L 269.695486 247.048413 
L 272.974824 247.452714 
L 276.254163 248.582603 
L 279.533502 242.613286 
L 282.812841 249.740213 
L 286.09218 247.970057 
L 289.371519 246.62096 
L 292.650857 238.770118 
L 295.930196 239.909414 
L 299.209535 243.771312 
L 302.488874 243.692634 
L 305.768213 245.817404 
L 309.047552 243.373817 
L 312.32689 241.33974 
L 315.606229 240.902421 
L 318.885568 245.035154 
L 322.164907 241.610001 
L 325.444246 244.494028 
L 328.723585 244.214171 
L 332.002924 242.629873 
L 335.282262 230.845147 
L 338.561601 240.079365 
L 341.84094 241.918988 
L 345.120279 241.986223 
L 348.399618 233.496576 
L 351.678957 237.780065 
L 354.958295 239.699236 
L 358.237634 240.823478 
L 361.516973 237.94796 
L 364.796312 236.612547 
L 368.075651 237.915464 
L 371.35499 232.934884 
L 374.634329 237.970337 
L 377.913667 229.427089 
L 381.193006 238.615069 
L 384.472345 235.896004 
L 387.751684 235.319136 
L 391.031023 235.944553 
" clip-path="url(#p6c40fa97bb)" style="fill: none; stroke: #2ca02c; stroke-width: 1.5; stroke-linecap: square"/>
    <defs>
     <path id="me93c293fc2" d="M 0 1.5 
C 0.397805 1.5 0.77937 1.341951 1.06066 1.06066 
C 1.341951 0.77937 1.5 0.397805 1.5 0 
C 1.5 -0.397805 1.341951 -0.77937 1.06066 -1.06066 
C 0.77937 -1.341951 0.397805 -1.5 0 -1.5 
C -0.397805 -1.5 -0.77937 -1.341951 -1.06066 -1.06066 
C -1.341951 -0.77937 -1.5 -0.397805 -1.5 0 
C -1.5 0.397805 -1.341951 0.77937 -1.06066 1.06066 
C -0.77937 1.341951 -0.397805 1.5 0 1.5 
z
" style="stroke: #2ca02c"/>
    </defs>
    <g clip-path="url(#p6c40fa97bb)">
     <use xlink:href="#me93c293fc2" x="66.376477" y="270.142496" style="fill: #2ca02c; stroke: #2ca02c"/>
     <use xlink:href="#me93c293fc2" x="69.655816" y="269.663606" style="fill: #2ca02c; stroke: #2ca02c"/>
     <use xlink:href="#me93c293fc2" x="72.935155" y="268.523791" style="fill: #2ca02c; stroke: #2ca02c"/>
     <use xlink:href="#me93c293fc2" x="76.214494" y="268.893926" style="fill: #2ca02c; stroke: #2ca02c"/>
     <use xlink:href="#me93c293fc2" x="79.493833" y="269.122505" style="fill: #2ca02c; stroke: #2ca02c"/>
     <use xlink:href="#me93c293fc2" x="82.773171" y="268.982196" style="fill: #2ca02c; stroke: #2ca02c"/>
     <use xlink:href="#me93c293fc2" x="86.05251" y="267.343316" style="fill: #2ca02c; stroke: #2ca02c"/>
     <use xlink:href="#me93c293fc2" x="89.331849" y="266.906897" style="fill: #2ca02c; stroke: #2ca02c"/>
     <use xlink:href="#me93c293fc2" x="92.611188" y="267.095186" style="fill: #2ca02c; stroke: #2ca02c"/>
     <use xlink:href="#me93c293fc2" x="95.890527" y="267.703022" style="fill: #2ca02c; stroke: #2ca02c"/>
     <use xlink:href="#me93c293fc2" x="99.169866" y="266.881186" style="fill: #2ca02c; stroke: #2ca02c"/>
     <use xlink:href="#me93c293fc2" x="102.449205" y="265.688761" style="fill: #2ca02c; stroke: #2ca02c"/>
     <use xlink:href="#me93c293fc2" x="105.728543" y="266.749402" style="fill: #2ca02c; stroke: #2ca02c"/>
     <use xlink:href="#me93c293fc2" x="109.007882" y="265.51303" style="fill: #2ca02c; stroke: #2ca02c"/>
     <use xlink:href="#me93c293fc2" x="112.287221" y="265.267639" style="fill: #2ca02c; stroke: #2ca02c"/>
     <use xlink:href="#me93c293fc2" x="115.56656" y="263.548963" style="fill: #2ca02c; stroke: #2ca02c"/>
     <use xlink:href="#me93c293fc2" x="118.845899" y="265.051169" style="fill: #2ca02c; stroke: #2ca02c"/>
     <use xlink:href="#me93c293fc2" x="122.125238" y="263.740995" style="fill: #2ca02c; stroke: #2ca02c"/>
     <use xlink:href="#me93c293fc2" x="125.404576" y="263.986065" style="fill: #2ca02c; stroke: #2ca02c"/>
     <use xlink:href="#me93c293fc2" x="128.683915" y="263.226463" style="fill: #2ca02c; stroke: #2ca02c"/>
     <use xlink:href="#me93c293fc2" x="131.963254" y="264.29106" style="fill: #2ca02c; stroke: #2ca02c"/>
     <use xlink:href="#me93c293fc2" x="135.242593" y="263.551798" style="fill: #2ca02c; stroke: #2ca02c"/>
     <use xlink:href="#me93c293fc2" x="138.521932" y="260.707726" style="fill: #2ca02c; stroke: #2ca02c"/>
     <use xlink:href="#me93c293fc2" x="141.801271" y="262.97823" style="fill: #2ca02c; stroke: #2ca02c"/>
     <use xlink:href="#me93c293fc2" x="145.08061" y="261.104955" style="fill: #2ca02c; stroke: #2ca02c"/>
     <use xlink:href="#me93c293fc2" x="148.359948" y="261.835668" style="fill: #2ca02c; stroke: #2ca02c"/>
     <use xlink:href="#me93c293fc2" x="151.639287" y="261.544985" style="fill: #2ca02c; stroke: #2ca02c"/>
     <use xlink:href="#me93c293fc2" x="154.918626" y="261.498565" style="fill: #2ca02c; stroke: #2ca02c"/>
     <use xlink:href="#me93c293fc2" x="158.197965" y="261.191425" style="fill: #2ca02c; stroke: #2ca02c"/>
     <use xlink:href="#me93c293fc2" x="161.477304" y="260.331489" style="fill: #2ca02c; stroke: #2ca02c"/>
     <use xlink:href="#me93c293fc2" x="164.756643" y="258.662878" style="fill: #2ca02c; stroke: #2ca02c"/>
     <use xlink:href="#me93c293fc2" x="168.035981" y="256.917936" style="fill: #2ca02c; stroke: #2ca02c"/>
     <use xlink:href="#me93c293fc2" x="171.31532" y="256.779219" style="fill: #2ca02c; stroke: #2ca02c"/>
     <use xlink:href="#me93c293fc2" x="174.594659" y="256.927116" style="fill: #2ca02c; stroke: #2ca02c"/>
     <use xlink:href="#me93c293fc2" x="177.873998" y="258.03948" style="fill: #2ca02c; stroke: #2ca02c"/>
     <use xlink:href="#me93c293fc2" x="181.153337" y="259.096579" style="fill: #2ca02c; stroke: #2ca02c"/>
     <use xlink:href="#me93c293fc2" x="184.432676" y="257.72514" style="fill: #2ca02c; stroke: #2ca02c"/>
     <use xlink:href="#me93c293fc2" x="187.712014" y="257.399235" style="fill: #2ca02c; stroke: #2ca02c"/>
     <use xlink:href="#me93c293fc2" x="190.991353" y="254.551417" style="fill: #2ca02c; stroke: #2ca02c"/>
     <use xlink:href="#me93c293fc2" x="194.270692" y="256.403424" style="fill: #2ca02c; stroke: #2ca02c"/>
     <use xlink:href="#me93c293fc2" x="197.550031" y="252.532315" style="fill: #2ca02c; stroke: #2ca02c"/>
     <use xlink:href="#me93c293fc2" x="200.82937" y="256.42678" style="fill: #2ca02c; stroke: #2ca02c"/>
     <use xlink:href="#me93c293fc2" x="204.108709" y="255.162766" style="fill: #2ca02c; stroke: #2ca02c"/>
     <use xlink:href="#me93c293fc2" x="207.388048" y="256.477772" style="fill: #2ca02c; stroke: #2ca02c"/>
     <use xlink:href="#me93c293fc2" x="210.667386" y="252.925573" style="fill: #2ca02c; stroke: #2ca02c"/>
     <use xlink:href="#me93c293fc2" x="213.946725" y="254.193536" style="fill: #2ca02c; stroke: #2ca02c"/>
     <use xlink:href="#me93c293fc2" x="217.226064" y="253.24888" style="fill: #2ca02c; stroke: #2ca02c"/>
     <use xlink:href="#me93c293fc2" x="220.505403" y="255.414026" style="fill: #2ca02c; stroke: #2ca02c"/>
     <use xlink:href="#me93c293fc2" x="223.784742" y="253.096315" style="fill: #2ca02c; stroke: #2ca02c"/>
     <use xlink:href="#me93c293fc2" x="227.064081" y="254.268227" style="fill: #2ca02c; stroke: #2ca02c"/>
     <use xlink:href="#me93c293fc2" x="230.343419" y="252.565504" style="fill: #2ca02c; stroke: #2ca02c"/>
     <use xlink:href="#me93c293fc2" x="233.622758" y="251.218662" style="fill: #2ca02c; stroke: #2ca02c"/>
     <use xlink:href="#me93c293fc2" x="236.902097" y="250.595326" style="fill: #2ca02c; stroke: #2ca02c"/>
     <use xlink:href="#me93c293fc2" x="240.181436" y="253.014792" style="fill: #2ca02c; stroke: #2ca02c"/>
     <use xlink:href="#me93c293fc2" x="243.460775" y="248.803357" style="fill: #2ca02c; stroke: #2ca02c"/>
     <use xlink:href="#me93c293fc2" x="246.740114" y="249.194373" style="fill: #2ca02c; stroke: #2ca02c"/>
     <use xlink:href="#me93c293fc2" x="250.019452" y="250.905733" style="fill: #2ca02c; stroke: #2ca02c"/>
     <use xlink:href="#me93c293fc2" x="253.298791" y="245.637189" style="fill: #2ca02c; stroke: #2ca02c"/>
     <use xlink:href="#me93c293fc2" x="256.57813" y="250.035674" style="fill: #2ca02c; stroke: #2ca02c"/>
     <use xlink:href="#me93c293fc2" x="259.857469" y="248.57227" style="fill: #2ca02c; stroke: #2ca02c"/>
     <use xlink:href="#me93c293fc2" x="263.136808" y="247.752538" style="fill: #2ca02c; stroke: #2ca02c"/>
     <use xlink:href="#me93c293fc2" x="266.416147" y="250.049398" style="fill: #2ca02c; stroke: #2ca02c"/>
     <use xlink:href="#me93c293fc2" x="269.695486" y="247.048413" style="fill: #2ca02c; stroke: #2ca02c"/>
     <use xlink:href="#me93c293fc2" x="272.974824" y="247.452714" style="fill: #2ca02c; stroke: #2ca02c"/>
     <use xlink:href="#me93c293fc2" x="276.254163" y="248.582603" style="fill: #2ca02c; stroke: #2ca02c"/>
     <use xlink:href="#me93c293fc2" x="279.533502" y="242.613286" style="fill: #2ca02c; stroke: #2ca02c"/>
     <use xlink:href="#me93c293fc2" x="282.812841" y="249.740213" style="fill: #2ca02c; stroke: #2ca02c"/>
     <use xlink:href="#me93c293fc2" x="286.09218" y="247.970057" style="fill: #2ca02c; stroke: #2ca02c"/>
     <use xlink:href="#me93c293fc2" x="289.371519" y="246.62096" style="fill: #2ca02c; stroke: #2ca02c"/>
     <use xlink:href="#me93c293fc2" x="292.650857" y="238.770118" style="fill: #2ca02c; stroke: #2ca02c"/>
     <use xlink:href="#me93c293fc2" x="295.930196" y="239.909414" style="fill: #2ca02c; stroke: #2ca02c"/>
     <use xlink:href="#me93c293fc2" x="299.209535" y="243.771312" style="fill: #2ca02c; stroke: #2ca02c"/>
     <use xlink:href="#me93c293fc2" x="302.488874" y="243.692634" style="fill: #2ca02c; stroke: #2ca02c"/>
     <use xlink:href="#me93c293fc2" x="305.768213" y="245.817404" style="fill: #2ca02c; stroke: #2ca02c"/>
     <use xlink:href="#me93c293fc2" x="309.047552" y="243.373817" style="fill: #2ca02c; stroke: #2ca02c"/>
     <use xlink:href="#me93c293fc2" x="312.32689" y="241.33974" style="fill: #2ca02c; stroke: #2ca02c"/>
     <use xlink:href="#me93c293fc2" x="315.606229" y="240.902421" style="fill: #2ca02c; stroke: #2ca02c"/>
     <use xlink:href="#me93c293fc2" x="318.885568" y="245.035154" style="fill: #2ca02c; stroke: #2ca02c"/>
     <use xlink:href="#me93c293fc2" x="322.164907" y="241.610001" style="fill: #2ca02c; stroke: #2ca02c"/>
     <use xlink:href="#me93c293fc2" x="325.444246" y="244.494028" style="fill: #2ca02c; stroke: #2ca02c"/>
     <use xlink:href="#me93c293fc2" x="328.723585" y="244.214171" style="fill: #2ca02c; stroke: #2ca02c"/>
     <use xlink:href="#me93c293fc2" x="332.002924" y="242.629873" style="fill: #2ca02c; stroke: #2ca02c"/>
     <use xlink:href="#me93c293fc2" x="335.282262" y="230.845147" style="fill: #2ca02c; stroke: #2ca02c"/>
     <use xlink:href="#me93c293fc2" x="338.561601" y="240.079365" style="fill: #2ca02c; stroke: #2ca02c"/>
     <use xlink:href="#me93c293fc2" x="341.84094" y="241.918988" style="fill: #2ca02c; stroke: #2ca02c"/>
     <use xlink:href="#me93c293fc2" x="345.120279" y="241.986223" style="fill: #2ca02c; stroke: #2ca02c"/>
     <use xlink:href="#me93c293fc2" x="348.399618" y="233.496576" style="fill: #2ca02c; stroke: #2ca02c"/>
     <use xlink:href="#me93c293fc2" x="351.678957" y="237.780065" style="fill: #2ca02c; stroke: #2ca02c"/>
     <use xlink:href="#me93c293fc2" x="354.958295" y="239.699236" style="fill: #2ca02c; stroke: #2ca02c"/>
     <use xlink:href="#me93c293fc2" x="358.237634" y="240.823478" style="fill: #2ca02c; stroke: #2ca02c"/>
     <use xlink:href="#me93c293fc2" x="361.516973" y="237.94796" style="fill: #2ca02c; stroke: #2ca02c"/>
     <use xlink:href="#me93c293fc2" x="364.796312" y="236.612547" style="fill: #2ca02c; stroke: #2ca02c"/>
     <use xlink:href="#me93c293fc2" x="368.075651" y="237.915464" style="fill: #2ca02c; stroke: #2ca02c"/>
     <use xlink:href="#me93c293fc2" x="371.35499" y="232.934884" style="fill: #2ca02c; stroke: #2ca02c"/>
     <use xlink:href="#me93c293fc2" x="374.634329" y="237.970337" style="fill: #2ca02c; stroke: #2ca02c"/>
     <use xlink:href="#me93c293fc2" x="377.913667" y="229.427089" style="fill: #2ca02c; stroke: #2ca02c"/>
     <use xlink:href="#me93c293fc2" x="381.193006" y="238.615069" style="fill: #2ca02c; stroke: #2ca02c"/>
     <use xlink:href="#me93c293fc2" x="384.472345" y="235.896004" style="fill: #2ca02c; stroke: #2ca02c"/>
     <use xlink:href="#me93c293fc2" x="387.751684" y="235.319136" style="fill: #2ca02c; stroke: #2ca02c"/>
     <use xlink:href="#me93c293fc2" x="391.031023" y="235.944553" style="fill: #2ca02c; stroke: #2ca02c"/>
    </g>
   </g>
   <g id="line2d_18">
    <path d="M 66.376477 272.185099 
L 69.655816 268.991648 
L 72.935155 266.576315 
L 76.214494 263.949154 
L 79.493833 261.783954 
L 82.773171 259.656251 
L 86.05251 255.708676 
L 89.331849 254.650497 
L 92.611188 251.925549 
L 95.890527 249.823468 
L 99.169866 247.306946 
L 102.449205 245.467132 
L 105.728543 241.956703 
L 109.007882 240.013687 
L 112.287221 238.554373 
L 115.56656 235.365103 
L 118.845899 230.733899 
L 122.125238 231.13184 
L 125.404576 228.662245 
L 128.683915 226.781066 
L 131.963254 224.531448 
L 135.242593 219.082916 
L 138.521932 219.635584 
L 141.801271 218.138181 
L 145.08061 216.321738 
L 148.359948 212.906106 
L 151.639287 206.275803 
L 154.918626 207.791523 
L 158.197965 205.396394 
L 161.477304 203.081569 
L 164.756643 199.221602 
L 168.035981 197.387359 
L 171.31532 195.144357 
L 174.594659 182.991475 
L 177.873998 191.523091 
L 181.153337 187.404685 
L 184.432676 186.016632 
L 187.712014 178.908227 
L 190.991353 181.031357 
L 194.270692 180.12318 
L 197.550031 175.882177 
L 200.82937 167.923037 
L 204.108709 169.113885 
L 207.388048 168.319511 
L 210.667386 165.786506 
L 213.946725 161.803177 
L 217.226064 162.291644 
L 220.505403 158.945937 
L 223.784742 155.363713 
L 227.064081 144.774698 
L 230.343419 152.111106 
L 233.622758 152.02762 
L 236.902097 146.265817 
L 240.181436 143.359914 
L 243.460775 141.95695 
L 246.740114 141.786251 
L 250.019452 138.761677 
L 253.298791 132.452815 
L 256.57813 136.253131 
L 259.857469 127.459709 
L 263.136808 122.923809 
L 266.416147 114.72563 
L 269.695486 128.391395 
L 272.974824 121.599406 
L 276.254163 117.779707 
L 279.533502 119.356676 
L 282.812841 115.619235 
L 286.09218 113.106993 
L 289.371519 107.337167 
L 292.650857 109.300642 
L 295.930196 104.825928 
L 299.209535 95.125047 
L 302.488874 96.609599 
L 305.768213 101.154832 
L 309.047552 94.479262 
L 312.32689 88.405467 
L 315.606229 89.822349 
L 318.885568 85.305257 
L 322.164907 77.125605 
L 325.444246 73.391891 
L 328.723585 82.792046 
L 332.002924 78.160127 
L 335.282262 73.968834 
L 338.561601 68.228661 
L 341.84094 67.792261 
L 345.120279 69.053801 
L 348.399618 70.308426 
L 351.678957 52.853356 
L 354.958295 61.139741 
L 358.237634 45.03044 
L 361.516973 56.735606 
L 364.796312 51.383742 
L 368.075651 42.015017 
L 371.35499 46.577202 
L 374.634329 39.976198 
L 377.913667 39.274482 
L 381.193006 48.549623 
L 384.472345 43.055348 
L 387.751684 38.336587 
L 391.031023 38.876797 
" clip-path="url(#p6c40fa97bb)" style="fill: none; stroke: #d62728; stroke-width: 1.5; stroke-linecap: square"/>
    <defs>
     <path id="m0fabc49300" d="M 0 1.5 
C 0.397805 1.5 0.77937 1.341951 1.06066 1.06066 
C 1.341951 0.77937 1.5 0.397805 1.5 0 
C 1.5 -0.397805 1.341951 -0.77937 1.06066 -1.06066 
C 0.77937 -1.341951 0.397805 -1.5 0 -1.5 
C -0.397805 -1.5 -0.77937 -1.341951 -1.06066 -1.06066 
C -1.341951 -0.77937 -1.5 -0.397805 -1.5 0 
C -1.5 0.397805 -1.341951 0.77937 -1.06066 1.06066 
C -0.77937 1.341951 -0.397805 1.5 0 1.5 
z
" style="stroke: #d62728"/>
    </defs>
    <g clip-path="url(#p6c40fa97bb)">
     <use xlink:href="#m0fabc49300" x="66.376477" y="272.185099" style="fill: #d62728; stroke: #d62728"/>
     <use xlink:href="#m0fabc49300" x="69.655816" y="268.991648" style="fill: #d62728; stroke: #d62728"/>
     <use xlink:href="#m0fabc49300" x="72.935155" y="266.576315" style="fill: #d62728; stroke: #d62728"/>
     <use xlink:href="#m0fabc49300" x="76.214494" y="263.949154" style="fill: #d62728; stroke: #d62728"/>
     <use xlink:href="#m0fabc49300" x="79.493833" y="261.783954" style="fill: #d62728; stroke: #d62728"/>
     <use xlink:href="#m0fabc49300" x="82.773171" y="259.656251" style="fill: #d62728; stroke: #d62728"/>
     <use xlink:href="#m0fabc49300" x="86.05251" y="255.708676" style="fill: #d62728; stroke: #d62728"/>
     <use xlink:href="#m0fabc49300" x="89.331849" y="254.650497" style="fill: #d62728; stroke: #d62728"/>
     <use xlink:href="#m0fabc49300" x="92.611188" y="251.925549" style="fill: #d62728; stroke: #d62728"/>
     <use xlink:href="#m0fabc49300" x="95.890527" y="249.823468" style="fill: #d62728; stroke: #d62728"/>
     <use xlink:href="#m0fabc49300" x="99.169866" y="247.306946" style="fill: #d62728; stroke: #d62728"/>
     <use xlink:href="#m0fabc49300" x="102.449205" y="245.467132" style="fill: #d62728; stroke: #d62728"/>
     <use xlink:href="#m0fabc49300" x="105.728543" y="241.956703" style="fill: #d62728; stroke: #d62728"/>
     <use xlink:href="#m0fabc49300" x="109.007882" y="240.013687" style="fill: #d62728; stroke: #d62728"/>
     <use xlink:href="#m0fabc49300" x="112.287221" y="238.554373" style="fill: #d62728; stroke: #d62728"/>
     <use xlink:href="#m0fabc49300" x="115.56656" y="235.365103" style="fill: #d62728; stroke: #d62728"/>
     <use xlink:href="#m0fabc49300" x="118.845899" y="230.733899" style="fill: #d62728; stroke: #d62728"/>
     <use xlink:href="#m0fabc49300" x="122.125238" y="231.13184" style="fill: #d62728; stroke: #d62728"/>
     <use xlink:href="#m0fabc49300" x="125.404576" y="228.662245" style="fill: #d62728; stroke: #d62728"/>
     <use xlink:href="#m0fabc49300" x="128.683915" y="226.781066" style="fill: #d62728; stroke: #d62728"/>
     <use xlink:href="#m0fabc49300" x="131.963254" y="224.531448" style="fill: #d62728; stroke: #d62728"/>
     <use xlink:href="#m0fabc49300" x="135.242593" y="219.082916" style="fill: #d62728; stroke: #d62728"/>
     <use xlink:href="#m0fabc49300" x="138.521932" y="219.635584" style="fill: #d62728; stroke: #d62728"/>
     <use xlink:href="#m0fabc49300" x="141.801271" y="218.138181" style="fill: #d62728; stroke: #d62728"/>
     <use xlink:href="#m0fabc49300" x="145.08061" y="216.321738" style="fill: #d62728; stroke: #d62728"/>
     <use xlink:href="#m0fabc49300" x="148.359948" y="212.906106" style="fill: #d62728; stroke: #d62728"/>
     <use xlink:href="#m0fabc49300" x="151.639287" y="206.275803" style="fill: #d62728; stroke: #d62728"/>
     <use xlink:href="#m0fabc49300" x="154.918626" y="207.791523" style="fill: #d62728; stroke: #d62728"/>
     <use xlink:href="#m0fabc49300" x="158.197965" y="205.396394" style="fill: #d62728; stroke: #d62728"/>
     <use xlink:href="#m0fabc49300" x="161.477304" y="203.081569" style="fill: #d62728; stroke: #d62728"/>
     <use xlink:href="#m0fabc49300" x="164.756643" y="199.221602" style="fill: #d62728; stroke: #d62728"/>
     <use xlink:href="#m0fabc49300" x="168.035981" y="197.387359" style="fill: #d62728; stroke: #d62728"/>
     <use xlink:href="#m0fabc49300" x="171.31532" y="195.144357" style="fill: #d62728; stroke: #d62728"/>
     <use xlink:href="#m0fabc49300" x="174.594659" y="182.991475" style="fill: #d62728; stroke: #d62728"/>
     <use xlink:href="#m0fabc49300" x="177.873998" y="191.523091" style="fill: #d62728; stroke: #d62728"/>
     <use xlink:href="#m0fabc49300" x="181.153337" y="187.404685" style="fill: #d62728; stroke: #d62728"/>
     <use xlink:href="#m0fabc49300" x="184.432676" y="186.016632" style="fill: #d62728; stroke: #d62728"/>
     <use xlink:href="#m0fabc49300" x="187.712014" y="178.908227" style="fill: #d62728; stroke: #d62728"/>
     <use xlink:href="#m0fabc49300" x="190.991353" y="181.031357" style="fill: #d62728; stroke: #d62728"/>
     <use xlink:href="#m0fabc49300" x="194.270692" y="180.12318" style="fill: #d62728; stroke: #d62728"/>
     <use xlink:href="#m0fabc49300" x="197.550031" y="175.882177" style="fill: #d62728; stroke: #d62728"/>
     <use xlink:href="#m0fabc49300" x="200.82937" y="167.923037" style="fill: #d62728; stroke: #d62728"/>
     <use xlink:href="#m0fabc49300" x="204.108709" y="169.113885" style="fill: #d62728; stroke: #d62728"/>
     <use xlink:href="#m0fabc49300" x="207.388048" y="168.319511" style="fill: #d62728; stroke: #d62728"/>
     <use xlink:href="#m0fabc49300" x="210.667386" y="165.786506" style="fill: #d62728; stroke: #d62728"/>
     <use xlink:href="#m0fabc49300" x="213.946725" y="161.803177" style="fill: #d62728; stroke: #d62728"/>
     <use xlink:href="#m0fabc49300" x="217.226064" y="162.291644" style="fill: #d62728; stroke: #d62728"/>
     <use xlink:href="#m0fabc49300" x="220.505403" y="158.945937" style="fill: #d62728; stroke: #d62728"/>
     <use xlink:href="#m0fabc49300" x="223.784742" y="155.363713" style="fill: #d62728; stroke: #d62728"/>
     <use xlink:href="#m0fabc49300" x="227.064081" y="144.774698" style="fill: #d62728; stroke: #d62728"/>
     <use xlink:href="#m0fabc49300" x="230.343419" y="152.111106" style="fill: #d62728; stroke: #d62728"/>
     <use xlink:href="#m0fabc49300" x="233.622758" y="152.02762" style="fill: #d62728; stroke: #d62728"/>
     <use xlink:href="#m0fabc49300" x="236.902097" y="146.265817" style="fill: #d62728; stroke: #d62728"/>
     <use xlink:href="#m0fabc49300" x="240.181436" y="143.359914" style="fill: #d62728; stroke: #d62728"/>
     <use xlink:href="#m0fabc49300" x="243.460775" y="141.95695" style="fill: #d62728; stroke: #d62728"/>
     <use xlink:href="#m0fabc49300" x="246.740114" y="141.786251" style="fill: #d62728; stroke: #d62728"/>
     <use xlink:href="#m0fabc49300" x="250.019452" y="138.761677" style="fill: #d62728; stroke: #d62728"/>
     <use xlink:href="#m0fabc49300" x="253.298791" y="132.452815" style="fill: #d62728; stroke: #d62728"/>
     <use xlink:href="#m0fabc49300" x="256.57813" y="136.253131" style="fill: #d62728; stroke: #d62728"/>
     <use xlink:href="#m0fabc49300" x="259.857469" y="127.459709" style="fill: #d62728; stroke: #d62728"/>
     <use xlink:href="#m0fabc49300" x="263.136808" y="122.923809" style="fill: #d62728; stroke: #d62728"/>
     <use xlink:href="#m0fabc49300" x="266.416147" y="114.72563" style="fill: #d62728; stroke: #d62728"/>
     <use xlink:href="#m0fabc49300" x="269.695486" y="128.391395" style="fill: #d62728; stroke: #d62728"/>
     <use xlink:href="#m0fabc49300" x="272.974824" y="121.599406" style="fill: #d62728; stroke: #d62728"/>
     <use xlink:href="#m0fabc49300" x="276.254163" y="117.779707" style="fill: #d62728; stroke: #d62728"/>
     <use xlink:href="#m0fabc49300" x="279.533502" y="119.356676" style="fill: #d62728; stroke: #d62728"/>
     <use xlink:href="#m0fabc49300" x="282.812841" y="115.619235" style="fill: #d62728; stroke: #d62728"/>
     <use xlink:href="#m0fabc49300" x="286.09218" y="113.106993" style="fill: #d62728; stroke: #d62728"/>
     <use xlink:href="#m0fabc49300" x="289.371519" y="107.337167" style="fill: #d62728; stroke: #d62728"/>
     <use xlink:href="#m0fabc49300" x="292.650857" y="109.300642" style="fill: #d62728; stroke: #d62728"/>
     <use xlink:href="#m0fabc49300" x="295.930196" y="104.825928" style="fill: #d62728; stroke: #d62728"/>
     <use xlink:href="#m0fabc49300" x="299.209535" y="95.125047" style="fill: #d62728; stroke: #d62728"/>
     <use xlink:href="#m0fabc49300" x="302.488874" y="96.609599" style="fill: #d62728; stroke: #d62728"/>
     <use xlink:href="#m0fabc49300" x="305.768213" y="101.154832" style="fill: #d62728; stroke: #d62728"/>
     <use xlink:href="#m0fabc49300" x="309.047552" y="94.479262" style="fill: #d62728; stroke: #d62728"/>
     <use xlink:href="#m0fabc49300" x="312.32689" y="88.405467" style="fill: #d62728; stroke: #d62728"/>
     <use xlink:href="#m0fabc49300" x="315.606229" y="89.822349" style="fill: #d62728; stroke: #d62728"/>
     <use xlink:href="#m0fabc49300" x="318.885568" y="85.305257" style="fill: #d62728; stroke: #d62728"/>
     <use xlink:href="#m0fabc49300" x="322.164907" y="77.125605" style="fill: #d62728; stroke: #d62728"/>
     <use xlink:href="#m0fabc49300" x="325.444246" y="73.391891" style="fill: #d62728; stroke: #d62728"/>
     <use xlink:href="#m0fabc49300" x="328.723585" y="82.792046" style="fill: #d62728; stroke: #d62728"/>
     <use xlink:href="#m0fabc49300" x="332.002924" y="78.160127" style="fill: #d62728; stroke: #d62728"/>
     <use xlink:href="#m0fabc49300" x="335.282262" y="73.968834" style="fill: #d62728; stroke: #d62728"/>
     <use xlink:href="#m0fabc49300" x="338.561601" y="68.228661" style="fill: #d62728; stroke: #d62728"/>
     <use xlink:href="#m0fabc49300" x="341.84094" y="67.792261" style="fill: #d62728; stroke: #d62728"/>
     <use xlink:href="#m0fabc49300" x="345.120279" y="69.053801" style="fill: #d62728; stroke: #d62728"/>
     <use xlink:href="#m0fabc49300" x="348.399618" y="70.308426" style="fill: #d62728; stroke: #d62728"/>
     <use xlink:href="#m0fabc49300" x="351.678957" y="52.853356" style="fill: #d62728; stroke: #d62728"/>
     <use xlink:href="#m0fabc49300" x="354.958295" y="61.139741" style="fill: #d62728; stroke: #d62728"/>
     <use xlink:href="#m0fabc49300" x="358.237634" y="45.03044" style="fill: #d62728; stroke: #d62728"/>
     <use xlink:href="#m0fabc49300" x="361.516973" y="56.735606" style="fill: #d62728; stroke: #d62728"/>
     <use xlink:href="#m0fabc49300" x="364.796312" y="51.383742" style="fill: #d62728; stroke: #d62728"/>
     <use xlink:href="#m0fabc49300" x="368.075651" y="42.015017" style="fill: #d62728; stroke: #d62728"/>
     <use xlink:href="#m0fabc49300" x="371.35499" y="46.577202" style="fill: #d62728; stroke: #d62728"/>
     <use xlink:href="#m0fabc49300" x="374.634329" y="39.976198" style="fill: #d62728; stroke: #d62728"/>
     <use xlink:href="#m0fabc49300" x="377.913667" y="39.274482" style="fill: #d62728; stroke: #d62728"/>
     <use xlink:href="#m0fabc49300" x="381.193006" y="48.549623" style="fill: #d62728; stroke: #d62728"/>
     <use xlink:href="#m0fabc49300" x="384.472345" y="43.055348" style="fill: #d62728; stroke: #d62728"/>
     <use xlink:href="#m0fabc49300" x="387.751684" y="38.336587" style="fill: #d62728; stroke: #d62728"/>
     <use xlink:href="#m0fabc49300" x="391.031023" y="38.876797" style="fill: #d62728; stroke: #d62728"/>
    </g>
   </g>
   <g id="patch_3">
    <path d="M 50.14375 288.430125 
L 50.14375 22.318125 
" style="fill: none; stroke: #000000; stroke-width: 0.8; stroke-linejoin: miter; stroke-linecap: square"/>
   </g>
   <g id="patch_4">
    <path d="M 407.26375 288.430125 
L 407.26375 22.318125 
" style="fill: none; stroke: #000000; stroke-width: 0.8; stroke-linejoin: miter; stroke-linecap: square"/>
   </g>
   <g id="patch_5">
    <path d="M 50.14375 288.430125 
L 407.26375 288.430125 
" style="fill: none; stroke: #000000; stroke-width: 0.8; stroke-linejoin: miter; stroke-linecap: square"/>
   </g>
   <g id="patch_6">
    <path d="M 50.14375 22.318125 
L 407.26375 22.318125 
" style="fill: none; stroke: #000000; stroke-width: 0.8; stroke-linejoin: miter; stroke-linecap: square"/>
   </g>
   <g id="text_17">
    <!-- Input Signal Length: 1000 samples -->
    <g transform="translate(124.180938 16.318125) scale(0.12 -0.12)">
     <defs>
      <path id="DejaVuSans-49" d="M 628 4666 
L 1259 4666 
L 1259 0 
L 628 0 
L 628 4666 
z
" transform="scale(0.015625)"/>
      <path id="DejaVuSans-6e" d="M 3513 2113 
L 3513 0 
L 2938 0 
L 2938 2094 
Q 2938 2591 2744 2837 
Q 2550 3084 2163 3084 
Q 1697 3084 1428 2787 
Q 1159 2491 1159 1978 
L 1159 0 
L 581 0 
L 581 3500 
L 1159 3500 
L 1159 2956 
Q 1366 3272 1645 3428 
Q 1925 3584 2291 3584 
Q 2894 3584 3203 3211 
Q 3513 2838 3513 2113 
z
" transform="scale(0.015625)"/>
      <path id="DejaVuSans-53" d="M 3425 4513 
L 3425 3897 
Q 3066 4069 2747 4153 
Q 2428 4238 2131 4238 
Q 1616 4238 1336 4038 
Q 1056 3838 1056 3469 
Q 1056 3159 1242 3001 
Q 1428 2844 1947 2747 
L 2328 2669 
Q 3034 2534 3370 2195 
Q 3706 1856 3706 1288 
Q 3706 609 3251 259 
Q 2797 -91 1919 -91 
Q 1588 -91 1214 -16 
Q 841 59 441 206 
L 441 856 
Q 825 641 1194 531 
Q 1563 422 1919 422 
Q 2459 422 2753 634 
Q 3047 847 3047 1241 
Q 3047 1584 2836 1778 
Q 2625 1972 2144 2069 
L 1759 2144 
Q 1053 2284 737 2584 
Q 422 2884 422 3419 
Q 422 4038 858 4394 
Q 1294 4750 2059 4750 
Q 2388 4750 2728 4690 
Q 3069 4631 3425 4513 
z
" transform="scale(0.015625)"/>
      <path id="DejaVuSans-67" d="M 2906 1791 
Q 2906 2416 2648 2759 
Q 2391 3103 1925 3103 
Q 1463 3103 1205 2759 
Q 947 2416 947 1791 
Q 947 1169 1205 825 
Q 1463 481 1925 481 
Q 2391 481 2648 825 
Q 2906 1169 2906 1791 
z
M 3481 434 
Q 3481 -459 3084 -895 
Q 2688 -1331 1869 -1331 
Q 1566 -1331 1297 -1286 
Q 1028 -1241 775 -1147 
L 775 -588 
Q 1028 -725 1275 -790 
Q 1522 -856 1778 -856 
Q 2344 -856 2625 -561 
Q 2906 -266 2906 331 
L 2906 616 
Q 2728 306 2450 153 
Q 2172 0 1784 0 
Q 1141 0 747 490 
Q 353 981 353 1791 
Q 353 2603 747 3093 
Q 1141 3584 1784 3584 
Q 2172 3584 2450 3431 
Q 2728 3278 2906 2969 
L 2906 3500 
L 3481 3500 
L 3481 434 
z
" transform="scale(0.015625)"/>
      <path id="DejaVuSans-4c" d="M 628 4666 
L 1259 4666 
L 1259 531 
L 3531 531 
L 3531 0 
L 628 0 
L 628 4666 
z
" transform="scale(0.015625)"/>
      <path id="DejaVuSans-68" d="M 3513 2113 
L 3513 0 
L 2938 0 
L 2938 2094 
Q 2938 2591 2744 2837 
Q 2550 3084 2163 3084 
Q 1697 3084 1428 2787 
Q 1159 2491 1159 1978 
L 1159 0 
L 581 0 
L 581 4863 
L 1159 4863 
L 1159 2956 
Q 1366 3272 1645 3428 
Q 1925 3584 2291 3584 
Q 2894 3584 3203 3211 
Q 3513 2838 3513 2113 
z
" transform="scale(0.015625)"/>
      <path id="DejaVuSans-3a" d="M 750 794 
L 1409 794 
L 1409 0 
L 750 0 
L 750 794 
z
M 750 3309 
L 1409 3309 
L 1409 2516 
L 750 2516 
L 750 3309 
z
" transform="scale(0.015625)"/>
     </defs>
     <use xlink:href="#DejaVuSans-49"/>
     <use xlink:href="#DejaVuSans-6e" x="29.492188"/>
     <use xlink:href="#DejaVuSans-70" x="92.871094"/>
     <use xlink:href="#DejaVuSans-75" x="156.347656"/>
     <use xlink:href="#DejaVuSans-74" x="219.726562"/>
     <use xlink:href="#DejaVuSans-20" x="258.935547"/>
     <use xlink:href="#DejaVuSans-53" x="290.722656"/>
     <use xlink:href="#DejaVuSans-69" x="354.199219"/>
     <use xlink:href="#DejaVuSans-67" x="381.982422"/>
     <use xlink:href="#DejaVuSans-6e" x="445.458984"/>
     <use xlink:href="#DejaVuSans-61" x="508.837891"/>
     <use xlink:href="#DejaVuSans-6c" x="570.117188"/>
     <use xlink:href="#DejaVuSans-20" x="597.900391"/>
     <use xlink:href="#DejaVuSans-4c" x="629.6875"/>
     <use xlink:href="#DejaVuSans-65" x="683.650391"/>
     <use xlink:href="#DejaVuSans-6e" x="745.173828"/>
     <use xlink:href="#DejaVuSans-67" x="808.552734"/>
     <use xlink:href="#DejaVuSans-74" x="872.029297"/>
     <use xlink:href="#DejaVuSans-68" x="911.238281"/>
     <use xlink:href="#DejaVuSans-3a" x="974.617188"/>
     <use xlink:href="#DejaVuSans-20" x="1008.308594"/>
     <use xlink:href="#DejaVuSans-31" x="1040.095703"/>
     <use xlink:href="#DejaVuSans-30" x="1103.71875"/>
     <use xlink:href="#DejaVuSans-30" x="1167.341797"/>
     <use xlink:href="#DejaVuSans-30" x="1230.964844"/>
     <use xlink:href="#DejaVuSans-20" x="1294.587891"/>
     <use xlink:href="#DejaVuSans-73" x="1326.375"/>
     <use xlink:href="#DejaVuSans-61" x="1378.474609"/>
     <use xlink:href="#DejaVuSans-6d" x="1439.753906"/>
     <use xlink:href="#DejaVuSans-70" x="1537.166016"/>
     <use xlink:href="#DejaVuSans-6c" x="1600.642578"/>
     <use xlink:href="#DejaVuSans-65" x="1628.425781"/>
     <use xlink:href="#DejaVuSans-73" x="1689.949219"/>
    </g>
   </g>
   <g id="legend_1">
    <g id="patch_7">
     <path d="M 57.14375 89.030625 
L 205.035938 89.030625 
Q 207.035938 89.030625 207.035938 87.030625 
L 207.035938 29.318125 
Q 207.035938 27.318125 205.035938 27.318125 
L 57.14375 27.318125 
Q 55.14375 27.318125 55.14375 29.318125 
L 55.14375 87.030625 
Q 55.14375 89.030625 57.14375 89.030625 
z
" style="fill: #ffffff; opacity: 0.8; stroke: #cccccc; stroke-linejoin: miter"/>
    </g>
    <g id="line2d_19">
     <path d="M 59.14375 35.416562 
L 69.14375 35.416562 
L 79.14375 35.416562 
" style="fill: none; stroke: #1f77b4; stroke-width: 1.5; stroke-linecap: square"/>
     <g>
      <use xlink:href="#m97ca4f289f" x="69.14375" y="35.416562" style="fill: #1f77b4; stroke: #1f77b4"/>
     </g>
    </g>
    <g id="text_18">
     <!-- np.convolve -->
     <g transform="translate(87.14375 38.916562) scale(0.1 -0.1)">
      <defs>
       <path id="DejaVuSans-76" d="M 191 3500 
L 800 3500 
L 1894 563 
L 2988 3500 
L 3597 3500 
L 2284 0 
L 1503 0 
L 191 3500 
z
" transform="scale(0.015625)"/>
      </defs>
      <use xlink:href="#DejaVuSans-6e"/>
      <use xlink:href="#DejaVuSans-70" x="63.378906"/>
      <use xlink:href="#DejaVuSans-2e" x="126.855469"/>
      <use xlink:href="#DejaVuSans-63" x="158.642578"/>
      <use xlink:href="#DejaVuSans-6f" x="213.623047"/>
      <use xlink:href="#DejaVuSans-6e" x="274.804688"/>
      <use xlink:href="#DejaVuSans-76" x="338.183594"/>
      <use xlink:href="#DejaVuSans-6f" x="397.363281"/>
      <use xlink:href="#DejaVuSans-6c" x="458.544922"/>
      <use xlink:href="#DejaVuSans-76" x="486.328125"/>
      <use xlink:href="#DejaVuSans-65" x="545.507812"/>
     </g>
    </g>
    <g id="line2d_20">
     <path d="M 59.14375 50.094688 
L 69.14375 50.094688 
L 79.14375 50.094688 
" style="fill: none; stroke: #ff7f0e; stroke-width: 1.5; stroke-linecap: square"/>
     <g>
      <use xlink:href="#m1e1f044fac" x="69.14375" y="50.094688" style="fill: #ff7f0e; stroke: #ff7f0e"/>
     </g>
    </g>
    <g id="text_19">
     <!-- scipy.signal.convolve -->
     <g transform="translate(87.14375 53.594688) scale(0.1 -0.1)">
      <defs>
       <path id="DejaVuSans-79" d="M 2059 -325 
Q 1816 -950 1584 -1140 
Q 1353 -1331 966 -1331 
L 506 -1331 
L 506 -850 
L 844 -850 
Q 1081 -850 1212 -737 
Q 1344 -625 1503 -206 
L 1606 56 
L 191 3500 
L 800 3500 
L 1894 763 
L 2988 3500 
L 3597 3500 
L 2059 -325 
z
" transform="scale(0.015625)"/>
      </defs>
      <use xlink:href="#DejaVuSans-73"/>
      <use xlink:href="#DejaVuSans-63" x="52.099609"/>
      <use xlink:href="#DejaVuSans-69" x="107.080078"/>
      <use xlink:href="#DejaVuSans-70" x="134.863281"/>
      <use xlink:href="#DejaVuSans-79" x="198.339844"/>
      <use xlink:href="#DejaVuSans-2e" x="243.269531"/>
      <use xlink:href="#DejaVuSans-73" x="275.056641"/>
      <use xlink:href="#DejaVuSans-69" x="327.15625"/>
      <use xlink:href="#DejaVuSans-67" x="354.939453"/>
      <use xlink:href="#DejaVuSans-6e" x="418.416016"/>
      <use xlink:href="#DejaVuSans-61" x="481.794922"/>
      <use xlink:href="#DejaVuSans-6c" x="543.074219"/>
      <use xlink:href="#DejaVuSans-2e" x="570.857422"/>
      <use xlink:href="#DejaVuSans-63" x="602.644531"/>
      <use xlink:href="#DejaVuSans-6f" x="657.625"/>
      <use xlink:href="#DejaVuSans-6e" x="718.806641"/>
      <use xlink:href="#DejaVuSans-76" x="782.185547"/>
      <use xlink:href="#DejaVuSans-6f" x="841.365234"/>
      <use xlink:href="#DejaVuSans-6c" x="902.546875"/>
      <use xlink:href="#DejaVuSans-76" x="930.330078"/>
      <use xlink:href="#DejaVuSans-65" x="989.509766"/>
     </g>
    </g>
    <g id="line2d_21">
     <path d="M 59.14375 64.772812 
L 69.14375 64.772812 
L 79.14375 64.772812 
" style="fill: none; stroke: #2ca02c; stroke-width: 1.5; stroke-linecap: square"/>
     <g>
      <use xlink:href="#me93c293fc2" x="69.14375" y="64.772812" style="fill: #2ca02c; stroke: #2ca02c"/>
     </g>
    </g>
    <g id="text_20">
     <!-- scipy.signal.fftconvolve -->
     <g transform="translate(87.14375 68.272812) scale(0.1 -0.1)">
      <use xlink:href="#DejaVuSans-73"/>
      <use xlink:href="#DejaVuSans-63" x="52.099609"/>
      <use xlink:href="#DejaVuSans-69" x="107.080078"/>
      <use xlink:href="#DejaVuSans-70" x="134.863281"/>
      <use xlink:href="#DejaVuSans-79" x="198.339844"/>
      <use xlink:href="#DejaVuSans-2e" x="243.269531"/>
      <use xlink:href="#DejaVuSans-73" x="275.056641"/>
      <use xlink:href="#DejaVuSans-69" x="327.15625"/>
      <use xlink:href="#DejaVuSans-67" x="354.939453"/>
      <use xlink:href="#DejaVuSans-6e" x="418.416016"/>
      <use xlink:href="#DejaVuSans-61" x="481.794922"/>
      <use xlink:href="#DejaVuSans-6c" x="543.074219"/>
      <use xlink:href="#DejaVuSans-2e" x="570.857422"/>
      <use xlink:href="#DejaVuSans-66" x="602.644531"/>
      <use xlink:href="#DejaVuSans-66" x="637.849609"/>
      <use xlink:href="#DejaVuSans-74" x="671.304688"/>
      <use xlink:href="#DejaVuSans-63" x="710.513672"/>
      <use xlink:href="#DejaVuSans-6f" x="765.494141"/>
      <use xlink:href="#DejaVuSans-6e" x="826.675781"/>
      <use xlink:href="#DejaVuSans-76" x="890.054688"/>
      <use xlink:href="#DejaVuSans-6f" x="949.234375"/>
      <use xlink:href="#DejaVuSans-6c" x="1010.416016"/>
      <use xlink:href="#DejaVuSans-76" x="1038.199219"/>
      <use xlink:href="#DejaVuSans-65" x="1097.378906"/>
     </g>
    </g>
    <g id="line2d_22">
     <path d="M 59.14375 79.450938 
L 69.14375 79.450938 
L 79.14375 79.450938 
" style="fill: none; stroke: #d62728; stroke-width: 1.5; stroke-linecap: square"/>
     <g>
      <use xlink:href="#m0fabc49300" x="69.14375" y="79.450938" style="fill: #d62728; stroke: #d62728"/>
     </g>
    </g>
    <g id="text_21">
     <!-- scipy.signal.lfilter -->
     <g transform="translate(87.14375 82.950938) scale(0.1 -0.1)">
      <use xlink:href="#DejaVuSans-73"/>
      <use xlink:href="#DejaVuSans-63" x="52.099609"/>
      <use xlink:href="#DejaVuSans-69" x="107.080078"/>
      <use xlink:href="#DejaVuSans-70" x="134.863281"/>
      <use xlink:href="#DejaVuSans-79" x="198.339844"/>
      <use xlink:href="#DejaVuSans-2e" x="243.269531"/>
      <use xlink:href="#DejaVuSans-73" x="275.056641"/>
      <use xlink:href="#DejaVuSans-69" x="327.15625"/>
      <use xlink:href="#DejaVuSans-67" x="354.939453"/>
      <use xlink:href="#DejaVuSans-6e" x="418.416016"/>
      <use xlink:href="#DejaVuSans-61" x="481.794922"/>
      <use xlink:href="#DejaVuSans-6c" x="543.074219"/>
      <use xlink:href="#DejaVuSans-2e" x="570.857422"/>
      <use xlink:href="#DejaVuSans-6c" x="602.644531"/>
      <use xlink:href="#DejaVuSans-66" x="630.427734"/>
      <use xlink:href="#DejaVuSans-69" x="665.632812"/>
      <use xlink:href="#DejaVuSans-6c" x="693.416016"/>
      <use xlink:href="#DejaVuSans-74" x="721.199219"/>
      <use xlink:href="#DejaVuSans-65" x="760.408203"/>
      <use xlink:href="#DejaVuSans-72" x="821.931641"/>
     </g>
    </g>
   </g>
  </g>
 </g>
 <defs>
  <clipPath id="p6c40fa97bb">
   <rect x="50.14375" y="22.318125" width="357.12" height="266.112"/>
  </clipPath>
 </defs>
</svg>
