<?xml version="1.0" encoding="utf-8" standalone="no"?>
<!DOCTYPE svg PUBLIC "-//W3C//DTD SVG 1.1//EN"
  "http://www.w3.org/Graphics/SVG/1.1/DTD/svg11.dtd">
<svg xmlns:xlink="http://www.w3.org/1999/xlink" width="855.795384pt" height="352.474375pt" viewBox="0 0 855.795384 352.474375" xmlns="http://www.w3.org/2000/svg" version="1.1">
 <metadata>
  <rdf:RDF xmlns:dc="http://purl.org/dc/elements/1.1/" xmlns:cc="http://creativecommons.org/ns#" xmlns:rdf="http://www.w3.org/1999/02/22-rdf-syntax-ns#">
   <cc:Work>
    <dc:type rdf:resource="http://purl.org/dc/dcmitype/StillImage"/>
    <dc:date>2026-01-25T20:52:35.854923</dc:date>
    <dc:format>image/svg+xml</dc:format>
    <dc:creator>
     <cc:Agent>
      <dc:title>Matplotlib v3.6.3, https://matplotlib.org/</dc:title>
     </cc:Agent>
    </dc:creator>
   </cc:Work>
  </rdf:RDF>
 </metadata>
 <defs>
  <style type="text/css">*{stroke-linejoin: round; stroke-linecap: butt}</style>
 </defs>
 <g id="figure_1">
  <g id="patch_1">
   <path d="M 0 352.474375 
L 855.795384 352.474375 
L 855.795384 0 
L 0 0 
z
" style="fill: #ffffff"/>
  </g>
  <g id="axes_1">
   <g id="patch_2">
    <path d="M 43.78125 314.918125 
L 420.529143 314.918125 
L 420.529143 22.318125 
L 43.78125 22.318125 
z
" style="fill: #ffffff"/>
   </g>
   <g id="matplotlib.axis_1">
    <g id="xtick_1">
     <g id="line2d_1">
      <path d="M 60.906154 314.918125 
L 60.906154 22.318125 
" clip-path="url(#p5097a315fd)" style="fill: none; stroke: #b0b0b0; stroke-width: 0.8; stroke-linecap: square"/>
     </g>
     <g id="line2d_2">
      <defs>
       <path id="mf06b88d067" d="M 0 0 
L 0 3.5 
" style="stroke: #000000; stroke-width: 0.8"/>
      </defs>
      <g>
       <use xlink:href="#mf06b88d067" x="60.906154" y="314.918125" style="stroke: #000000; stroke-width: 0.8"/>
      </g>
     </g>
     <g id="text_1">
      <!-- 0.0 -->
      <g transform="translate(52.954592 329.516563) scale(0.1 -0.1)">
       <defs>
        <path id="DejaVuSans-30" d="M 2034 4250 
Q 1547 4250 1301 3770 
Q 1056 3291 1056 2328 
Q 1056 1369 1301 889 
Q 1547 409 2034 409 
Q 2525 409 2770 889 
Q 3016 1369 3016 2328 
Q 3016 3291 2770 3770 
Q 2525 4250 2034 4250 
z
M 2034 4750 
Q 2819 4750 3233 4129 
Q 3647 3509 3647 2328 
Q 3647 1150 3233 529 
Q 2819 -91 2034 -91 
Q 1250 -91 836 529 
Q 422 1150 422 2328 
Q 422 3509 836 4129 
Q 1250 4750 2034 4750 
z
" transform="scale(0.015625)"/>
        <path id="DejaVuSans-2e" d="M 684 794 
L 1344 794 
L 1344 0 
L 684 0 
L 684 794 
z
" transform="scale(0.015625)"/>
       </defs>
       <use xlink:href="#DejaVuSans-30"/>
       <use xlink:href="#DejaVuSans-2e" x="63.623047"/>
       <use xlink:href="#DejaVuSans-30" x="95.410156"/>
      </g>
     </g>
    </g>
    <g id="xtick_2">
     <g id="line2d_3">
      <path d="M 129.405771 314.918125 
L 129.405771 22.318125 
" clip-path="url(#p5097a315fd)" style="fill: none; stroke: #b0b0b0; stroke-width: 0.8; stroke-linecap: square"/>
     </g>
     <g id="line2d_4">
      <g>
       <use xlink:href="#mf06b88d067" x="129.405771" y="314.918125" style="stroke: #000000; stroke-width: 0.8"/>
      </g>
     </g>
     <g id="text_2">
      <!-- 0.2 -->
      <g transform="translate(121.454209 329.516563) scale(0.1 -0.1)">
       <defs>
        <path id="DejaVuSans-32" d="M 1228 531 
L 3431 531 
L 3431 0 
L 469 0 
L 469 531 
Q 828 903 1448 1529 
Q 2069 2156 2228 2338 
Q 2531 2678 2651 2914 
Q 2772 3150 2772 3378 
Q 2772 3750 2511 3984 
Q 2250 4219 1831 4219 
Q 1534 4219 1204 4116 
Q 875 4013 500 3803 
L 500 4441 
Q 881 4594 1212 4672 
Q 1544 4750 1819 4750 
Q 2544 4750 2975 4387 
Q 3406 4025 3406 3419 
Q 3406 3131 3298 2873 
Q 3191 2616 2906 2266 
Q 2828 2175 2409 1742 
Q 1991 1309 1228 531 
z
" transform="scale(0.015625)"/>
       </defs>
       <use xlink:href="#DejaVuSans-30"/>
       <use xlink:href="#DejaVuSans-2e" x="63.623047"/>
       <use xlink:href="#DejaVuSans-32" x="95.410156"/>
      </g>
     </g>
    </g>
    <g id="xtick_3">
     <g id="line2d_5">
      <path d="M 197.905388 314.918125 
L 197.905388 22.318125 
" clip-path="url(#p5097a315fd)" style="fill: none; stroke: #b0b0b0; stroke-width: 0.8; stroke-linecap: square"/>
     </g>
     <g id="line2d_6">
      <g>
       <use xlink:href="#mf06b88d067" x="197.905388" y="314.918125" style="stroke: #000000; stroke-width: 0.8"/>
      </g>
     </g>
     <g id="text_3">
      <!-- 0.4 -->
      <g transform="translate(189.953825 329.516563) scale(0.1 -0.1)">
       <defs>
        <path id="DejaVuSans-34" d="M 2419 4116 
L 825 1625 
L 2419 1625 
L 2419 4116 
z
M 2253 4666 
L 3047 4666 
L 3047 1625 
L 3713 1625 
L 3713 1100 
L 3047 1100 
L 3047 0 
L 2419 0 
L 2419 1100 
L 313 1100 
L 313 1709 
L 2253 4666 
z
" transform="scale(0.015625)"/>
       </defs>
       <use xlink:href="#DejaVuSans-30"/>
       <use xlink:href="#DejaVuSans-2e" x="63.623047"/>
       <use xlink:href="#DejaVuSans-34" x="95.410156"/>
      </g>
     </g>
    </g>
    <g id="xtick_4">
     <g id="line2d_7">
      <path d="M 266.405005 314.918125 
L 266.405005 22.318125 
" clip-path="url(#p5097a315fd)" style="fill: none; stroke: #b0b0b0; stroke-width: 0.8; stroke-linecap: square"/>
     </g>
     <g id="line2d_8">
      <g>
       <use xlink:href="#mf06b88d067" x="266.405005" y="314.918125" style="stroke: #000000; stroke-width: 0.8"/>
      </g>
     </g>
     <g id="text_4">
      <!-- 0.6 -->
      <g transform="translate(258.453442 329.516563) scale(0.1 -0.1)">
       <defs>
        <path id="DejaVuSans-36" d="M 2113 2584 
Q 1688 2584 1439 2293 
Q 1191 2003 1191 1497 
Q 1191 994 1439 701 
Q 1688 409 2113 409 
Q 2538 409 2786 701 
Q 3034 994 3034 1497 
Q 3034 2003 2786 2293 
Q 2538 2584 2113 2584 
z
M 3366 4563 
L 3366 3988 
Q 3128 4100 2886 4159 
Q 2644 4219 2406 4219 
Q 1781 4219 1451 3797 
Q 1122 3375 1075 2522 
Q 1259 2794 1537 2939 
Q 1816 3084 2150 3084 
Q 2853 3084 3261 2657 
Q 3669 2231 3669 1497 
Q 3669 778 3244 343 
Q 2819 -91 2113 -91 
Q 1303 -91 875 529 
Q 447 1150 447 2328 
Q 447 3434 972 4092 
Q 1497 4750 2381 4750 
Q 2619 4750 2861 4703 
Q 3103 4656 3366 4563 
z
" transform="scale(0.015625)"/>
       </defs>
       <use xlink:href="#DejaVuSans-30"/>
       <use xlink:href="#DejaVuSans-2e" x="63.623047"/>
       <use xlink:href="#DejaVuSans-36" x="95.410156"/>
      </g>
     </g>
    </g>
    <g id="xtick_5">
     <g id="line2d_9">
      <path d="M 334.904622 314.918125 
L 334.904622 22.318125 
" clip-path="url(#p5097a315fd)" style="fill: none; stroke: #b0b0b0; stroke-width: 0.8; stroke-linecap: square"/>
     </g>
     <g id="line2d_10">
      <g>
       <use xlink:href="#mf06b88d067" x="334.904622" y="314.918125" style="stroke: #000000; stroke-width: 0.8"/>
      </g>
     </g>
     <g id="text_5">
      <!-- 0.8 -->
      <g transform="translate(326.953059 329.516563) scale(0.1 -0.1)">
       <defs>
        <path id="DejaVuSans-38" d="M 2034 2216 
Q 1584 2216 1326 1975 
Q 1069 1734 1069 1313 
Q 1069 891 1326 650 
Q 1584 409 2034 409 
Q 2484 409 2743 651 
Q 3003 894 3003 1313 
Q 3003 1734 2745 1975 
Q 2488 2216 2034 2216 
z
M 1403 2484 
Q 997 2584 770 2862 
Q 544 3141 544 3541 
Q 544 4100 942 4425 
Q 1341 4750 2034 4750 
Q 2731 4750 3128 4425 
Q 3525 4100 3525 3541 
Q 3525 3141 3298 2862 
Q 3072 2584 2669 2484 
Q 3125 2378 3379 2068 
Q 3634 1759 3634 1313 
Q 3634 634 3220 271 
Q 2806 -91 2034 -91 
Q 1263 -91 848 271 
Q 434 634 434 1313 
Q 434 1759 690 2068 
Q 947 2378 1403 2484 
z
M 1172 3481 
Q 1172 3119 1398 2916 
Q 1625 2713 2034 2713 
Q 2441 2713 2670 2916 
Q 2900 3119 2900 3481 
Q 2900 3844 2670 4047 
Q 2441 4250 2034 4250 
Q 1625 4250 1398 4047 
Q 1172 3844 1172 3481 
z
" transform="scale(0.015625)"/>
       </defs>
       <use xlink:href="#DejaVuSans-30"/>
       <use xlink:href="#DejaVuSans-2e" x="63.623047"/>
       <use xlink:href="#DejaVuSans-38" x="95.410156"/>
      </g>
     </g>
    </g>
    <g id="xtick_6">
     <g id="line2d_11">
      <path d="M 403.404238 314.918125 
L 403.404238 22.318125 
" clip-path="url(#p5097a315fd)" style="fill: none; stroke: #b0b0b0; stroke-width: 0.8; stroke-linecap: square"/>
     </g>
     <g id="line2d_12">
      <g>
       <use xlink:href="#mf06b88d067" x="403.404238" y="314.918125" style="stroke: #000000; stroke-width: 0.8"/>
      </g>
     </g>
     <g id="text_6">
      <!-- 1.0 -->
      <g transform="translate(395.452676 329.516563) scale(0.1 -0.1)">
       <defs>
        <path id="DejaVuSans-31" d="M 794 531 
L 1825 531 
L 1825 4091 
L 703 3866 
L 703 4441 
L 1819 4666 
L 2450 4666 
L 2450 531 
L 3481 531 
L 3481 0 
L 794 0 
L 794 531 
z
" transform="scale(0.015625)"/>
       </defs>
       <use xlink:href="#DejaVuSans-31"/>
       <use xlink:href="#DejaVuSans-2e" x="63.623047"/>
       <use xlink:href="#DejaVuSans-30" x="95.410156"/>
      </g>
     </g>
    </g>
    <g id="text_7">
     <!-- Pfa -->
     <g transform="translate(224.316134 343.194687) scale(0.1 -0.1)">
      <defs>
       <path id="DejaVuSans-50" d="M 1259 4147 
L 1259 2394 
L 2053 2394 
Q 2494 2394 2734 2622 
Q 2975 2850 2975 3272 
Q 2975 3691 2734 3919 
Q 2494 4147 2053 4147 
L 1259 4147 
z
M 628 4666 
L 2053 4666 
Q 2838 4666 3239 4311 
Q 3641 3956 3641 3272 
Q 3641 2581 3239 2228 
Q 2838 1875 2053 1875 
L 1259 1875 
L 1259 0 
L 628 0 
L 628 4666 
z
" transform="scale(0.015625)"/>
       <path id="DejaVuSans-66" d="M 2375 4863 
L 2375 4384 
L 1825 4384 
Q 1516 4384 1395 4259 
Q 1275 4134 1275 3809 
L 1275 3500 
L 2222 3500 
L 2222 3053 
L 1275 3053 
L 1275 0 
L 697 0 
L 697 3053 
L 147 3053 
L 147 3500 
L 697 3500 
L 697 3744 
Q 697 4328 969 4595 
Q 1241 4863 1831 4863 
L 2375 4863 
z
" transform="scale(0.015625)"/>
       <path id="DejaVuSans-61" d="M 2194 1759 
Q 1497 1759 1228 1600 
Q 959 1441 959 1056 
Q 959 750 1161 570 
Q 1363 391 1709 391 
Q 2188 391 2477 730 
Q 2766 1069 2766 1631 
L 2766 1759 
L 2194 1759 
z
M 3341 1997 
L 3341 0 
L 2766 0 
L 2766 531 
Q 2569 213 2275 61 
Q 1981 -91 1556 -91 
Q 1019 -91 701 211 
Q 384 513 384 1019 
Q 384 1609 779 1909 
Q 1175 2209 1959 2209 
L 2766 2209 
L 2766 2266 
Q 2766 2663 2505 2880 
Q 2244 3097 1772 3097 
Q 1472 3097 1187 3025 
Q 903 2953 641 2809 
L 641 3341 
Q 956 3463 1253 3523 
Q 1550 3584 1831 3584 
Q 2591 3584 2966 3190 
Q 3341 2797 3341 1997 
z
" transform="scale(0.015625)"/>
      </defs>
      <use xlink:href="#DejaVuSans-50"/>
      <use xlink:href="#DejaVuSans-66" x="60.302734"/>
      <use xlink:href="#DejaVuSans-61" x="95.507812"/>
     </g>
    </g>
   </g>
   <g id="matplotlib.axis_2">
    <g id="ytick_1">
     <g id="line2d_13">
      <path d="M 43.78125 301.618125 
L 420.529143 301.618125 
" clip-path="url(#p5097a315fd)" style="fill: none; stroke: #b0b0b0; stroke-width: 0.8; stroke-linecap: square"/>
     </g>
     <g id="line2d_14">
      <defs>
       <path id="mcc236cc903" d="M 0 0 
L -3.5 0 
" style="stroke: #000000; stroke-width: 0.8"/>
      </defs>
      <g>
       <use xlink:href="#mcc236cc903" x="43.78125" y="301.618125" style="stroke: #000000; stroke-width: 0.8"/>
      </g>
     </g>
     <g id="text_8">
      <!-- 0.0 -->
      <g transform="translate(20.878125 305.417344) scale(0.1 -0.1)">
       <use xlink:href="#DejaVuSans-30"/>
       <use xlink:href="#DejaVuSans-2e" x="63.623047"/>
       <use xlink:href="#DejaVuSans-30" x="95.410156"/>
      </g>
     </g>
    </g>
    <g id="ytick_2">
     <g id="line2d_15">
      <path d="M 43.78125 248.418125 
L 420.529143 248.418125 
" clip-path="url(#p5097a315fd)" style="fill: none; stroke: #b0b0b0; stroke-width: 0.8; stroke-linecap: square"/>
     </g>
     <g id="line2d_16">
      <g>
       <use xlink:href="#mcc236cc903" x="43.78125" y="248.418125" style="stroke: #000000; stroke-width: 0.8"/>
      </g>
     </g>
     <g id="text_9">
      <!-- 0.2 -->
      <g transform="translate(20.878125 252.217344) scale(0.1 -0.1)">
       <use xlink:href="#DejaVuSans-30"/>
       <use xlink:href="#DejaVuSans-2e" x="63.623047"/>
       <use xlink:href="#DejaVuSans-32" x="95.410156"/>
      </g>
     </g>
    </g>
    <g id="ytick_3">
     <g id="line2d_17">
      <path d="M 43.78125 195.218125 
L 420.529143 195.218125 
" clip-path="url(#p5097a315fd)" style="fill: none; stroke: #b0b0b0; stroke-width: 0.8; stroke-linecap: square"/>
     </g>
     <g id="line2d_18">
      <g>
       <use xlink:href="#mcc236cc903" x="43.78125" y="195.218125" style="stroke: #000000; stroke-width: 0.8"/>
      </g>
     </g>
     <g id="text_10">
      <!-- 0.4 -->
      <g transform="translate(20.878125 199.017344) scale(0.1 -0.1)">
       <use xlink:href="#DejaVuSans-30"/>
       <use xlink:href="#DejaVuSans-2e" x="63.623047"/>
       <use xlink:href="#DejaVuSans-34" x="95.410156"/>
      </g>
     </g>
    </g>
    <g id="ytick_4">
     <g id="line2d_19">
      <path d="M 43.78125 142.018125 
L 420.529143 142.018125 
" clip-path="url(#p5097a315fd)" style="fill: none; stroke: #b0b0b0; stroke-width: 0.8; stroke-linecap: square"/>
     </g>
     <g id="line2d_20">
      <g>
       <use xlink:href="#mcc236cc903" x="43.78125" y="142.018125" style="stroke: #000000; stroke-width: 0.8"/>
      </g>
     </g>
     <g id="text_11">
      <!-- 0.6 -->
      <g transform="translate(20.878125 145.817344) scale(0.1 -0.1)">
       <use xlink:href="#DejaVuSans-30"/>
       <use xlink:href="#DejaVuSans-2e" x="63.623047"/>
       <use xlink:href="#DejaVuSans-36" x="95.410156"/>
      </g>
     </g>
    </g>
    <g id="ytick_5">
     <g id="line2d_21">
      <path d="M 43.78125 88.818125 
L 420.529143 88.818125 
" clip-path="url(#p5097a315fd)" style="fill: none; stroke: #b0b0b0; stroke-width: 0.8; stroke-linecap: square"/>
     </g>
     <g id="line2d_22">
      <g>
       <use xlink:href="#mcc236cc903" x="43.78125" y="88.818125" style="stroke: #000000; stroke-width: 0.8"/>
      </g>
     </g>
     <g id="text_12">
      <!-- 0.8 -->
      <g transform="translate(20.878125 92.617344) scale(0.1 -0.1)">
       <use xlink:href="#DejaVuSans-30"/>
       <use xlink:href="#DejaVuSans-2e" x="63.623047"/>
       <use xlink:href="#DejaVuSans-38" x="95.410156"/>
      </g>
     </g>
    </g>
    <g id="ytick_6">
     <g id="line2d_23">
      <path d="M 43.78125 35.618125 
L 420.529143 35.618125 
" clip-path="url(#p5097a315fd)" style="fill: none; stroke: #b0b0b0; stroke-width: 0.8; stroke-linecap: square"/>
     </g>
     <g id="line2d_24">
      <g>
       <use xlink:href="#mcc236cc903" x="43.78125" y="35.618125" style="stroke: #000000; stroke-width: 0.8"/>
      </g>
     </g>
     <g id="text_13">
      <!-- 1.0 -->
      <g transform="translate(20.878125 39.417344) scale(0.1 -0.1)">
       <use xlink:href="#DejaVuSans-31"/>
       <use xlink:href="#DejaVuSans-2e" x="63.623047"/>
       <use xlink:href="#DejaVuSans-30" x="95.410156"/>
      </g>
     </g>
    </g>
    <g id="text_14">
     <!-- Pd -->
     <g transform="translate(14.798438 174.807187) rotate(-90) scale(0.1 -0.1)">
      <defs>
       <path id="DejaVuSans-64" d="M 2906 2969 
L 2906 4863 
L 3481 4863 
L 3481 0 
L 2906 0 
L 2906 525 
Q 2725 213 2448 61 
Q 2172 -91 1784 -91 
Q 1150 -91 751 415 
Q 353 922 353 1747 
Q 353 2572 751 3078 
Q 1150 3584 1784 3584 
Q 2172 3584 2448 3432 
Q 2725 3281 2906 2969 
z
M 947 1747 
Q 947 1113 1208 752 
Q 1469 391 1925 391 
Q 2381 391 2643 752 
Q 2906 1113 2906 1747 
Q 2906 2381 2643 2742 
Q 2381 3103 1925 3103 
Q 1469 3103 1208 2742 
Q 947 2381 947 1747 
z
" transform="scale(0.015625)"/>
      </defs>
      <use xlink:href="#DejaVuSans-50"/>
      <use xlink:href="#DejaVuSans-64" x="60.302734"/>
     </g>
    </g>
   </g>
   <g id="line2d_25">
    <path d="M 403.404238 35.618125 
L 401.34925 36.150125 
L 396.554277 38.278125 
L 389.019319 41.470125 
L 380.456867 50.514125 
L 368.469434 57.696125 
L 359.221985 72.326125 
L 344.15207 78.444125 
L 316.409725 91.744125 
L 306.134782 108.236125 
L 275.994951 115.152125 
L 260.582537 127.122125 
L 239.347656 142.018125 
L 229.415212 163.830125 
L 222.907748 165.692125 
L 198.932882 187.238125 
L 175.643012 194.952125 
L 165.36807 208.518125 
L 143.790691 222.084125 
L 145.845679 230.596125 
L 115.36335 239.906125 
L 114.335855 250.280125 
L 103.718415 251.344125 
L 97.210951 260.920125 
L 89.333495 267.038125 
L 82.483534 279.540125 
L 81.113541 282.466125 
L 71.523595 281.402125 
L 69.811104 287.786125 
L 72.551089 287.786125 
L 66.043625 292.042125 
L 65.016131 294.170125 
L 66.386124 294.702125 
L 63.988637 297.096125 
L 63.646139 297.362125 
L 63.303641 297.628125 
L 62.276147 299.756125 
L 62.961143 300.022125 
L 61.248652 300.820125 
L 61.59115 300.554125 
L 61.59115 301.352125 
L 61.248652 301.086125 
L 61.248652 300.820125 
L 60.906154 301.618125 
L 60.906154 301.086125 
L 60.906154 301.352125 
L 60.906154 301.618125 
L 60.906154 301.352125 
L 60.906154 301.618125 
L 60.906154 301.618125 
" clip-path="url(#p5097a315fd)" style="fill: none; stroke: #1f77b4; stroke-width: 1.5; stroke-linecap: square"/>
   </g>
   <g id="line2d_26">
    <path d="M 403.404238 35.618125 
L 399.294261 38.012125 
L 383.881848 42.002125 
L 365.729449 51.844125 
L 328.739656 63.016125 
L 310.929756 85.626125 
L 277.707441 100.522125 
L 242.772637 134.304125 
L 204.75535 142.018125 
L 172.903028 165.160125 
L 154.065633 181.120125 
L 129.748269 211.710125 
L 113.650859 222.616125 
L 94.470966 235.650125 
L 80.086047 253.472125 
L 74.263579 267.836125 
L 69.811104 271.560125 
L 66.386124 281.934125 
L 62.618645 289.914125 
L 62.961143 292.840125 
L 61.248652 296.032125 
L 60.906154 296.564125 
L 61.933648 298.958125 
L 61.59115 300.022125 
L 60.906154 300.554125 
L 60.906154 301.086125 
L 60.906154 301.352125 
L 61.248652 301.618125 
L 60.906154 301.618125 
L 60.906154 301.618125 
L 60.906154 301.618125 
L 60.906154 301.618125 
L 60.906154 301.618125 
L 60.906154 301.618125 
L 60.906154 301.618125 
L 60.906154 301.618125 
L 60.906154 301.618125 
L 60.906154 301.618125 
L 60.906154 301.618125 
L 60.906154 301.618125 
L 60.906154 301.618125 
L 60.906154 301.618125 
L 60.906154 301.618125 
L 60.906154 301.618125 
L 60.906154 301.618125 
L 60.906154 301.618125 
L 60.906154 301.618125 
L 60.906154 301.618125 
L 60.906154 301.618125 
L 60.906154 301.618125 
" clip-path="url(#p5097a315fd)" style="fill: none; stroke: #ff7f0e; stroke-width: 1.5; stroke-linecap: square"/>
   </g>
   <g id="line2d_27">
    <path d="M 403.404238 35.618125 
L 387.306828 37.480125 
L 349.289541 45.460125 
L 295.174844 62.484125 
L 231.127702 78.710125 
L 182.492974 107.970125 
L 137.968223 130.846125 
L 105.773403 168.352125 
L 86.936009 193.622125 
L 72.893587 229.798125 
L 65.701127 249.482125 
L 64.331135 276.082125 
L 61.248652 280.604125 
L 61.248652 289.116125 
L 60.906154 296.830125 
L 60.906154 300.288125 
L 60.906154 300.554125 
L 60.906154 301.352125 
L 60.906154 301.352125 
L 60.906154 301.618125 
L 60.906154 301.618125 
L 60.906154 301.618125 
L 60.906154 301.618125 
L 60.906154 301.618125 
L 60.906154 301.618125 
L 60.906154 301.618125 
L 60.906154 301.618125 
L 60.906154 301.618125 
L 60.906154 301.618125 
L 60.906154 301.618125 
L 60.906154 301.618125 
L 60.906154 301.618125 
L 60.906154 301.618125 
L 60.906154 301.618125 
L 60.906154 301.618125 
L 60.906154 301.618125 
L 60.906154 301.618125 
L 60.906154 301.618125 
L 60.906154 301.618125 
L 60.906154 301.618125 
L 60.906154 301.618125 
L 60.906154 301.618125 
L 60.906154 301.618125 
L 60.906154 301.618125 
L 60.906154 301.618125 
L 60.906154 301.618125 
L 60.906154 301.618125 
L 60.906154 301.618125 
L 60.906154 301.618125 
L 60.906154 301.618125 
" clip-path="url(#p5097a315fd)" style="fill: none; stroke: #2ca02c; stroke-width: 1.5; stroke-linecap: square"/>
   </g>
   <g id="line2d_28">
    <path d="M 403.404238 35.618125 
L 361.619472 35.618125 
L 251.677587 36.948125 
L 167.423058 43.598125 
L 102.348422 62.218125 
L 69.468606 95.202125 
L 64.673633 144.146125 
L 61.248652 199.740125 
L 60.906154 247.354125 
L 60.906154 278.742125 
L 60.906154 291.776125 
L 60.906154 297.894125 
L 60.906154 301.086125 
L 60.906154 301.618125 
L 60.906154 301.618125 
L 60.906154 301.618125 
L 60.906154 301.618125 
L 60.906154 301.618125 
L 60.906154 301.618125 
L 60.906154 301.618125 
L 60.906154 301.618125 
L 60.906154 301.618125 
L 60.906154 301.618125 
L 60.906154 301.618125 
L 60.906154 301.618125 
L 60.906154 301.618125 
L 60.906154 301.618125 
L 60.906154 301.618125 
L 60.906154 301.618125 
L 60.906154 301.618125 
L 60.906154 301.618125 
L 60.906154 301.618125 
L 60.906154 301.618125 
L 60.906154 301.618125 
L 60.906154 301.618125 
L 60.906154 301.618125 
L 60.906154 301.618125 
L 60.906154 301.618125 
L 60.906154 301.618125 
L 60.906154 301.618125 
L 60.906154 301.618125 
L 60.906154 301.618125 
L 60.906154 301.618125 
L 60.906154 301.618125 
L 60.906154 301.618125 
L 60.906154 301.618125 
L 60.906154 301.618125 
L 60.906154 301.618125 
L 60.906154 301.618125 
L 60.906154 301.618125 
" clip-path="url(#p5097a315fd)" style="fill: none; stroke: #d62728; stroke-width: 1.5; stroke-linecap: square"/>
   </g>
   <g id="line2d_29">
    <path d="M 403.404238 35.618125 
L 287.639886 35.618125 
L 121.185817 35.618125 
L 70.838599 35.884125 
L 61.933648 40.938125 
L 60.906154 67.272125 
L 60.906154 147.338125 
L 60.906154 235.650125 
L 60.906154 287.254125 
L 60.906154 301.086125 
L 60.906154 301.352125 
L 60.906154 301.618125 
L 60.906154 301.618125 
L 60.906154 301.618125 
L 60.906154 301.618125 
L 60.906154 301.618125 
L 60.906154 301.618125 
L 60.906154 301.618125 
L 60.906154 301.618125 
L 60.906154 301.618125 
L 60.906154 301.618125 
L 60.906154 301.618125 
L 60.906154 301.618125 
L 60.906154 301.618125 
L 60.906154 301.618125 
L 60.906154 301.618125 
L 60.906154 301.618125 
L 60.906154 301.618125 
L 60.906154 301.618125 
L 60.906154 301.618125 
L 60.906154 301.618125 
L 60.906154 301.618125 
L 60.906154 301.618125 
L 60.906154 301.618125 
L 60.906154 301.618125 
L 60.906154 301.618125 
L 60.906154 301.618125 
L 60.906154 301.618125 
L 60.906154 301.618125 
L 60.906154 301.618125 
L 60.906154 301.618125 
L 60.906154 301.618125 
L 60.906154 301.618125 
L 60.906154 301.618125 
L 60.906154 301.618125 
L 60.906154 301.618125 
L 60.906154 301.618125 
L 60.906154 301.618125 
L 60.906154 301.618125 
L 60.906154 301.618125 
" clip-path="url(#p5097a315fd)" style="fill: none; stroke: #9467bd; stroke-width: 1.5; stroke-linecap: square"/>
   </g>
   <g id="patch_3">
    <path d="M 43.78125 314.918125 
L 43.78125 22.318125 
" style="fill: none; stroke: #000000; stroke-width: 0.8; stroke-linejoin: miter; stroke-linecap: square"/>
   </g>
   <g id="patch_4">
    <path d="M 420.529143 314.918125 
L 420.529143 22.318125 
" style="fill: none; stroke: #000000; stroke-width: 0.8; stroke-linejoin: miter; stroke-linecap: square"/>
   </g>
   <g id="patch_5">
    <path d="M 43.78125 314.918125 
L 420.529143 314.918125 
" style="fill: none; stroke: #000000; stroke-width: 0.8; stroke-linejoin: miter; stroke-linecap: square"/>
   </g>
   <g id="patch_6">
    <path d="M 43.78125 22.318125 
L 420.529143 22.318125 
" style="fill: none; stroke: #000000; stroke-width: 0.8; stroke-linejoin: miter; stroke-linecap: square"/>
   </g>
   <g id="text_15">
    <!-- ROC Curves -->
    <g transform="translate(196.338946 16.318125) scale(0.12 -0.12)">
     <defs>
      <path id="DejaVuSans-52" d="M 2841 2188 
Q 3044 2119 3236 1894 
Q 3428 1669 3622 1275 
L 4263 0 
L 3584 0 
L 2988 1197 
Q 2756 1666 2539 1819 
Q 2322 1972 1947 1972 
L 1259 1972 
L 1259 0 
L 628 0 
L 628 4666 
L 2053 4666 
Q 2853 4666 3247 4331 
Q 3641 3997 3641 3322 
Q 3641 2881 3436 2590 
Q 3231 2300 2841 2188 
z
M 1259 4147 
L 1259 2491 
L 2053 2491 
Q 2509 2491 2742 2702 
Q 2975 2913 2975 3322 
Q 2975 3731 2742 3939 
Q 2509 4147 2053 4147 
L 1259 4147 
z
" transform="scale(0.015625)"/>
      <path id="DejaVuSans-4f" d="M 2522 4238 
Q 1834 4238 1429 3725 
Q 1025 3213 1025 2328 
Q 1025 1447 1429 934 
Q 1834 422 2522 422 
Q 3209 422 3611 934 
Q 4013 1447 4013 2328 
Q 4013 3213 3611 3725 
Q 3209 4238 2522 4238 
z
M 2522 4750 
Q 3503 4750 4090 4092 
Q 4678 3434 4678 2328 
Q 4678 1225 4090 567 
Q 3503 -91 2522 -91 
Q 1538 -91 948 565 
Q 359 1222 359 2328 
Q 359 3434 948 4092 
Q 1538 4750 2522 4750 
z
" transform="scale(0.015625)"/>
      <path id="DejaVuSans-43" d="M 4122 4306 
L 4122 3641 
Q 3803 3938 3442 4084 
Q 3081 4231 2675 4231 
Q 1875 4231 1450 3742 
Q 1025 3253 1025 2328 
Q 1025 1406 1450 917 
Q 1875 428 2675 428 
Q 3081 428 3442 575 
Q 3803 722 4122 1019 
L 4122 359 
Q 3791 134 3420 21 
Q 3050 -91 2638 -91 
Q 1578 -91 968 557 
Q 359 1206 359 2328 
Q 359 3453 968 4101 
Q 1578 4750 2638 4750 
Q 3056 4750 3426 4639 
Q 3797 4528 4122 4306 
z
" transform="scale(0.015625)"/>
      <path id="DejaVuSans-20" transform="scale(0.015625)"/>
      <path id="DejaVuSans-75" d="M 544 1381 
L 544 3500 
L 1119 3500 
L 1119 1403 
Q 1119 906 1312 657 
Q 1506 409 1894 409 
Q 2359 409 2629 706 
Q 2900 1003 2900 1516 
L 2900 3500 
L 3475 3500 
L 3475 0 
L 2900 0 
L 2900 538 
Q 2691 219 2414 64 
Q 2138 -91 1772 -91 
Q 1169 -91 856 284 
Q 544 659 544 1381 
z
M 1991 3584 
L 1991 3584 
z
" transform="scale(0.015625)"/>
      <path id="DejaVuSans-72" d="M 2631 2963 
Q 2534 3019 2420 3045 
Q 2306 3072 2169 3072 
Q 1681 3072 1420 2755 
Q 1159 2438 1159 1844 
L 1159 0 
L 581 0 
L 581 3500 
L 1159 3500 
L 1159 2956 
Q 1341 3275 1631 3429 
Q 1922 3584 2338 3584 
Q 2397 3584 2469 3576 
Q 2541 3569 2628 3553 
L 2631 2963 
z
" transform="scale(0.015625)"/>
      <path id="DejaVuSans-76" d="M 191 3500 
L 800 3500 
L 1894 563 
L 2988 3500 
L 3597 3500 
L 2284 0 
L 1503 0 
L 191 3500 
z
" transform="scale(0.015625)"/>
      <path id="DejaVuSans-65" d="M 3597 1894 
L 3597 1613 
L 953 1613 
Q 991 1019 1311 708 
Q 1631 397 2203 397 
Q 2534 397 2845 478 
Q 3156 559 3463 722 
L 3463 178 
Q 3153 47 2828 -22 
Q 2503 -91 2169 -91 
Q 1331 -91 842 396 
Q 353 884 353 1716 
Q 353 2575 817 3079 
Q 1281 3584 2069 3584 
Q 2775 3584 3186 3129 
Q 3597 2675 3597 1894 
z
M 3022 2063 
Q 3016 2534 2758 2815 
Q 2500 3097 2075 3097 
Q 1594 3097 1305 2825 
Q 1016 2553 972 2059 
L 3022 2063 
z
" transform="scale(0.015625)"/>
      <path id="DejaVuSans-73" d="M 2834 3397 
L 2834 2853 
Q 2591 2978 2328 3040 
Q 2066 3103 1784 3103 
Q 1356 3103 1142 2972 
Q 928 2841 928 2578 
Q 928 2378 1081 2264 
Q 1234 2150 1697 2047 
L 1894 2003 
Q 2506 1872 2764 1633 
Q 3022 1394 3022 966 
Q 3022 478 2636 193 
Q 2250 -91 1575 -91 
Q 1294 -91 989 -36 
Q 684 19 347 128 
L 347 722 
Q 666 556 975 473 
Q 1284 391 1588 391 
Q 1994 391 2212 530 
Q 2431 669 2431 922 
Q 2431 1156 2273 1281 
Q 2116 1406 1581 1522 
L 1381 1569 
Q 847 1681 609 1914 
Q 372 2147 372 2553 
Q 372 3047 722 3315 
Q 1072 3584 1716 3584 
Q 2034 3584 2315 3537 
Q 2597 3491 2834 3397 
z
" transform="scale(0.015625)"/>
     </defs>
     <use xlink:href="#DejaVuSans-52"/>
     <use xlink:href="#DejaVuSans-4f" x="69.482422"/>
     <use xlink:href="#DejaVuSans-43" x="148.193359"/>
     <use xlink:href="#DejaVuSans-20" x="218.017578"/>
     <use xlink:href="#DejaVuSans-43" x="249.804688"/>
     <use xlink:href="#DejaVuSans-75" x="319.628906"/>
     <use xlink:href="#DejaVuSans-72" x="383.007812"/>
     <use xlink:href="#DejaVuSans-76" x="424.121094"/>
     <use xlink:href="#DejaVuSans-65" x="483.300781"/>
     <use xlink:href="#DejaVuSans-73" x="544.824219"/>
    </g>
   </g>
   <g id="legend_1">
    <g id="patch_7">
     <path d="M 322.829143 309.918125 
L 413.529143 309.918125 
Q 415.529143 309.918125 415.529143 307.918125 
L 415.529143 235.5275 
Q 415.529143 233.5275 413.529143 233.5275 
L 322.829143 233.5275 
Q 320.829143 233.5275 320.829143 235.5275 
L 320.829143 307.918125 
Q 320.829143 309.918125 322.829143 309.918125 
z
" style="fill: #ffffff; opacity: 0.8; stroke: #cccccc; stroke-linejoin: miter"/>
    </g>
    <g id="line2d_30">
     <path d="M 324.829143 241.625938 
L 334.829143 241.625938 
L 344.829143 241.625938 
" style="fill: none; stroke: #1f77b4; stroke-width: 1.5; stroke-linecap: square"/>
    </g>
    <g id="text_16">
     <!-- SNR=-20dB -->
     <g transform="translate(352.829143 245.125938) scale(0.1 -0.1)">
      <defs>
       <path id="DejaVuSans-53" d="M 3425 4513 
L 3425 3897 
Q 3066 4069 2747 4153 
Q 2428 4238 2131 4238 
Q 1616 4238 1336 4038 
Q 1056 3838 1056 3469 
Q 1056 3159 1242 3001 
Q 1428 2844 1947 2747 
L 2328 2669 
Q 3034 2534 3370 2195 
Q 3706 1856 3706 1288 
Q 3706 609 3251 259 
Q 2797 -91 1919 -91 
Q 1588 -91 1214 -16 
Q 841 59 441 206 
L 441 856 
Q 825 641 1194 531 
Q 1563 422 1919 422 
Q 2459 422 2753 634 
Q 3047 847 3047 1241 
Q 3047 1584 2836 1778 
Q 2625 1972 2144 2069 
L 1759 2144 
Q 1053 2284 737 2584 
Q 422 2884 422 3419 
Q 422 4038 858 4394 
Q 1294 4750 2059 4750 
Q 2388 4750 2728 4690 
Q 3069 4631 3425 4513 
z
" transform="scale(0.015625)"/>
       <path id="DejaVuSans-4e" d="M 628 4666 
L 1478 4666 
L 3547 763 
L 3547 4666 
L 4159 4666 
L 4159 0 
L 3309 0 
L 1241 3903 
L 1241 0 
L 628 0 
L 628 4666 
z
" transform="scale(0.015625)"/>
       <path id="DejaVuSans-3d" d="M 678 2906 
L 4684 2906 
L 4684 2381 
L 678 2381 
L 678 2906 
z
M 678 1631 
L 4684 1631 
L 4684 1100 
L 678 1100 
L 678 1631 
z
" transform="scale(0.015625)"/>
       <path id="DejaVuSans-2d" d="M 313 2009 
L 1997 2009 
L 1997 1497 
L 313 1497 
L 313 2009 
z
" transform="scale(0.015625)"/>
       <path id="DejaVuSans-42" d="M 1259 2228 
L 1259 519 
L 2272 519 
Q 2781 519 3026 730 
Q 3272 941 3272 1375 
Q 3272 1813 3026 2020 
Q 2781 2228 2272 2228 
L 1259 2228 
z
M 1259 4147 
L 1259 2741 
L 2194 2741 
Q 2656 2741 2882 2914 
Q 3109 3088 3109 3444 
Q 3109 3797 2882 3972 
Q 2656 4147 2194 4147 
L 1259 4147 
z
M 628 4666 
L 2241 4666 
Q 2963 4666 3353 4366 
Q 3744 4066 3744 3513 
Q 3744 3084 3544 2831 
Q 3344 2578 2956 2516 
Q 3422 2416 3680 2098 
Q 3938 1781 3938 1306 
Q 3938 681 3513 340 
Q 3088 0 2303 0 
L 628 0 
L 628 4666 
z
" transform="scale(0.015625)"/>
      </defs>
      <use xlink:href="#DejaVuSans-53"/>
      <use xlink:href="#DejaVuSans-4e" x="63.476562"/>
      <use xlink:href="#DejaVuSans-52" x="138.28125"/>
      <use xlink:href="#DejaVuSans-3d" x="207.763672"/>
      <use xlink:href="#DejaVuSans-2d" x="291.552734"/>
      <use xlink:href="#DejaVuSans-32" x="327.636719"/>
      <use xlink:href="#DejaVuSans-30" x="391.259766"/>
      <use xlink:href="#DejaVuSans-64" x="454.882812"/>
      <use xlink:href="#DejaVuSans-42" x="518.359375"/>
     </g>
    </g>
    <g id="line2d_31">
     <path d="M 324.829143 256.304062 
L 334.829143 256.304062 
L 344.829143 256.304062 
" style="fill: none; stroke: #ff7f0e; stroke-width: 1.5; stroke-linecap: square"/>
    </g>
    <g id="text_17">
     <!-- SNR=-15dB -->
     <g transform="translate(352.829143 259.804062) scale(0.1 -0.1)">
      <defs>
       <path id="DejaVuSans-35" d="M 691 4666 
L 3169 4666 
L 3169 4134 
L 1269 4134 
L 1269 2991 
Q 1406 3038 1543 3061 
Q 1681 3084 1819 3084 
Q 2600 3084 3056 2656 
Q 3513 2228 3513 1497 
Q 3513 744 3044 326 
Q 2575 -91 1722 -91 
Q 1428 -91 1123 -41 
Q 819 9 494 109 
L 494 744 
Q 775 591 1075 516 
Q 1375 441 1709 441 
Q 2250 441 2565 725 
Q 2881 1009 2881 1497 
Q 2881 1984 2565 2268 
Q 2250 2553 1709 2553 
Q 1456 2553 1204 2497 
Q 953 2441 691 2322 
L 691 4666 
z
" transform="scale(0.015625)"/>
      </defs>
      <use xlink:href="#DejaVuSans-53"/>
      <use xlink:href="#DejaVuSans-4e" x="63.476562"/>
      <use xlink:href="#DejaVuSans-52" x="138.28125"/>
      <use xlink:href="#DejaVuSans-3d" x="207.763672"/>
      <use xlink:href="#DejaVuSans-2d" x="291.552734"/>
      <use xlink:href="#DejaVuSans-31" x="327.636719"/>
      <use xlink:href="#DejaVuSans-35" x="391.259766"/>
      <use xlink:href="#DejaVuSans-64" x="454.882812"/>
      <use xlink:href="#DejaVuSans-42" x="518.359375"/>
     </g>
    </g>
    <g id="line2d_32">
     <path d="M 324.829143 270.982188 
L 334.829143 270.982188 
L 344.829143 270.982188 
" style="fill: none; stroke: #2ca02c; stroke-width: 1.5; stroke-linecap: square"/>
    </g>
    <g id="text_18">
     <!-- SNR=-10dB -->
     <g transform="translate(352.829143 274.482188) scale(0.1 -0.1)">
      <use xlink:href="#DejaVuSans-53"/>
      <use xlink:href="#DejaVuSans-4e" x="63.476562"/>
      <use xlink:href="#DejaVuSans-52" x="138.28125"/>
      <use xlink:href="#DejaVuSans-3d" x="207.763672"/>
      <use xlink:href="#DejaVuSans-2d" x="291.552734"/>
      <use xlink:href="#DejaVuSans-31" x="327.636719"/>
      <use xlink:href="#DejaVuSans-30" x="391.259766"/>
      <use xlink:href="#DejaVuSans-64" x="454.882812"/>
      <use xlink:href="#DejaVuSans-42" x="518.359375"/>
     </g>
    </g>
    <g id="line2d_33">
     <path d="M 324.829143 285.660313 
L 334.829143 285.660313 
L 344.829143 285.660313 
" style="fill: none; stroke: #d62728; stroke-width: 1.5; stroke-linecap: square"/>
    </g>
    <g id="text_19">
     <!-- SNR=-5dB -->
     <g transform="translate(352.829143 289.160313) scale(0.1 -0.1)">
      <use xlink:href="#DejaVuSans-53"/>
      <use xlink:href="#DejaVuSans-4e" x="63.476562"/>
      <use xlink:href="#DejaVuSans-52" x="138.28125"/>
      <use xlink:href="#DejaVuSans-3d" x="207.763672"/>
      <use xlink:href="#DejaVuSans-2d" x="291.552734"/>
      <use xlink:href="#DejaVuSans-35" x="327.636719"/>
      <use xlink:href="#DejaVuSans-64" x="391.259766"/>
      <use xlink:href="#DejaVuSans-42" x="454.736328"/>
     </g>
    </g>
    <g id="line2d_34">
     <path d="M 324.829143 300.338437 
L 334.829143 300.338437 
L 344.829143 300.338437 
" style="fill: none; stroke: #9467bd; stroke-width: 1.5; stroke-linecap: square"/>
    </g>
    <g id="text_20">
     <!-- SNR=0dB -->
     <g transform="translate(352.829143 303.838437) scale(0.1 -0.1)">
      <use xlink:href="#DejaVuSans-53"/>
      <use xlink:href="#DejaVuSans-4e" x="63.476562"/>
      <use xlink:href="#DejaVuSans-52" x="138.28125"/>
      <use xlink:href="#DejaVuSans-3d" x="207.763672"/>
      <use xlink:href="#DejaVuSans-30" x="291.552734"/>
      <use xlink:href="#DejaVuSans-64" x="355.175781"/>
      <use xlink:href="#DejaVuSans-42" x="418.652344"/>
     </g>
    </g>
   </g>
  </g>
  <g id="axes_2">
   <g id="patch_8">
    <path d="M 468.339143 314.918125 
L 845.087035 314.918125 
L 845.087035 22.318125 
L 468.339143 22.318125 
z
" style="fill: #ffffff"/>
   </g>
   <g id="matplotlib.axis_3">
    <g id="xtick_7">
     <g id="line2d_35">
      <path d="M 485.464047 314.918125 
L 485.464047 22.318125 
" clip-path="url(#p5edaa3831e)" style="fill: none; stroke: #b0b0b0; stroke-width: 0.8; stroke-linecap: square"/>
     </g>
     <g id="line2d_36">
      <g>
       <use xlink:href="#mf06b88d067" x="485.464047" y="314.918125" style="stroke: #000000; stroke-width: 0.8"/>
      </g>
     </g>
     <g id="text_21">
      <!-- −10 -->
      <g transform="translate(474.911703 329.516563) scale(0.1 -0.1)">
       <defs>
        <path id="DejaVuSans-2212" d="M 678 2272 
L 4684 2272 
L 4684 1741 
L 678 1741 
L 678 2272 
z
" transform="scale(0.015625)"/>
       </defs>
       <use xlink:href="#DejaVuSans-2212"/>
       <use xlink:href="#DejaVuSans-31" x="83.789062"/>
       <use xlink:href="#DejaVuSans-30" x="147.412109"/>
      </g>
     </g>
    </g>
    <g id="xtick_8">
     <g id="line2d_37">
      <path d="M 556.817814 314.918125 
L 556.817814 22.318125 
" clip-path="url(#p5edaa3831e)" style="fill: none; stroke: #b0b0b0; stroke-width: 0.8; stroke-linecap: square"/>
     </g>
     <g id="line2d_38">
      <g>
       <use xlink:href="#mf06b88d067" x="556.817814" y="314.918125" style="stroke: #000000; stroke-width: 0.8"/>
      </g>
     </g>
     <g id="text_22">
      <!-- −5 -->
      <g transform="translate(549.446721 329.516563) scale(0.1 -0.1)">
       <use xlink:href="#DejaVuSans-2212"/>
       <use xlink:href="#DejaVuSans-35" x="83.789062"/>
      </g>
     </g>
    </g>
    <g id="xtick_9">
     <g id="line2d_39">
      <path d="M 628.171582 314.918125 
L 628.171582 22.318125 
" clip-path="url(#p5edaa3831e)" style="fill: none; stroke: #b0b0b0; stroke-width: 0.8; stroke-linecap: square"/>
     </g>
     <g id="line2d_40">
      <g>
       <use xlink:href="#mf06b88d067" x="628.171582" y="314.918125" style="stroke: #000000; stroke-width: 0.8"/>
      </g>
     </g>
     <g id="text_23">
      <!-- 0 -->
      <g transform="translate(624.990332 329.516563) scale(0.1 -0.1)">
       <use xlink:href="#DejaVuSans-30"/>
      </g>
     </g>
    </g>
    <g id="xtick_10">
     <g id="line2d_41">
      <path d="M 699.525349 314.918125 
L 699.525349 22.318125 
" clip-path="url(#p5edaa3831e)" style="fill: none; stroke: #b0b0b0; stroke-width: 0.8; stroke-linecap: square"/>
     </g>
     <g id="line2d_42">
      <g>
       <use xlink:href="#mf06b88d067" x="699.525349" y="314.918125" style="stroke: #000000; stroke-width: 0.8"/>
      </g>
     </g>
     <g id="text_24">
      <!-- 5 -->
      <g transform="translate(696.344099 329.516563) scale(0.1 -0.1)">
       <use xlink:href="#DejaVuSans-35"/>
      </g>
     </g>
    </g>
    <g id="xtick_11">
     <g id="line2d_43">
      <path d="M 770.879117 314.918125 
L 770.879117 22.318125 
" clip-path="url(#p5edaa3831e)" style="fill: none; stroke: #b0b0b0; stroke-width: 0.8; stroke-linecap: square"/>
     </g>
     <g id="line2d_44">
      <g>
       <use xlink:href="#mf06b88d067" x="770.879117" y="314.918125" style="stroke: #000000; stroke-width: 0.8"/>
      </g>
     </g>
     <g id="text_25">
      <!-- 10 -->
      <g transform="translate(764.516617 329.516563) scale(0.1 -0.1)">
       <use xlink:href="#DejaVuSans-31"/>
       <use xlink:href="#DejaVuSans-30" x="63.623047"/>
      </g>
     </g>
    </g>
    <g id="xtick_12">
     <g id="line2d_45">
      <path d="M 842.232884 314.918125 
L 842.232884 22.318125 
" clip-path="url(#p5edaa3831e)" style="fill: none; stroke: #b0b0b0; stroke-width: 0.8; stroke-linecap: square"/>
     </g>
     <g id="line2d_46">
      <g>
       <use xlink:href="#mf06b88d067" x="842.232884" y="314.918125" style="stroke: #000000; stroke-width: 0.8"/>
      </g>
     </g>
     <g id="text_26">
      <!-- 15 -->
      <g transform="translate(835.870384 329.516563) scale(0.1 -0.1)">
       <use xlink:href="#DejaVuSans-31"/>
       <use xlink:href="#DejaVuSans-35" x="63.623047"/>
      </g>
     </g>
    </g>
    <g id="text_27">
     <!-- SNR (dB) -->
     <g transform="translate(634.228714 343.194687) scale(0.1 -0.1)">
      <defs>
       <path id="DejaVuSans-28" d="M 1984 4856 
Q 1566 4138 1362 3434 
Q 1159 2731 1159 2009 
Q 1159 1288 1364 580 
Q 1569 -128 1984 -844 
L 1484 -844 
Q 1016 -109 783 600 
Q 550 1309 550 2009 
Q 550 2706 781 3412 
Q 1013 4119 1484 4856 
L 1984 4856 
z
" transform="scale(0.015625)"/>
       <path id="DejaVuSans-29" d="M 513 4856 
L 1013 4856 
Q 1481 4119 1714 3412 
Q 1947 2706 1947 2009 
Q 1947 1309 1714 600 
Q 1481 -109 1013 -844 
L 513 -844 
Q 928 -128 1133 580 
Q 1338 1288 1338 2009 
Q 1338 2731 1133 3434 
Q 928 4138 513 4856 
z
" transform="scale(0.015625)"/>
      </defs>
      <use xlink:href="#DejaVuSans-53"/>
      <use xlink:href="#DejaVuSans-4e" x="63.476562"/>
      <use xlink:href="#DejaVuSans-52" x="138.28125"/>
      <use xlink:href="#DejaVuSans-20" x="207.763672"/>
      <use xlink:href="#DejaVuSans-28" x="239.550781"/>
      <use xlink:href="#DejaVuSans-64" x="278.564453"/>
      <use xlink:href="#DejaVuSans-42" x="342.041016"/>
      <use xlink:href="#DejaVuSans-29" x="410.644531"/>
     </g>
    </g>
   </g>
   <g id="matplotlib.axis_4">
    <g id="ytick_7">
     <g id="line2d_47">
      <path d="M 468.339143 276.342107 
L 845.087035 276.342107 
" clip-path="url(#p5edaa3831e)" style="fill: none; stroke: #b0b0b0; stroke-width: 0.8; stroke-linecap: square"/>
     </g>
     <g id="line2d_48">
      <g>
       <use xlink:href="#mcc236cc903" x="468.339143" y="276.342107" style="stroke: #000000; stroke-width: 0.8"/>
      </g>
     </g>
     <g id="text_28">
      <!-- 0.2 -->
      <g transform="translate(445.436018 280.141326) scale(0.1 -0.1)">
       <use xlink:href="#DejaVuSans-30"/>
       <use xlink:href="#DejaVuSans-2e" x="63.623047"/>
       <use xlink:href="#DejaVuSans-32" x="95.410156"/>
      </g>
     </g>
    </g>
    <g id="ytick_8">
     <g id="line2d_49">
      <path d="M 468.339143 216.161111 
L 845.087035 216.161111 
" clip-path="url(#p5edaa3831e)" style="fill: none; stroke: #b0b0b0; stroke-width: 0.8; stroke-linecap: square"/>
     </g>
     <g id="line2d_50">
      <g>
       <use xlink:href="#mcc236cc903" x="468.339143" y="216.161111" style="stroke: #000000; stroke-width: 0.8"/>
      </g>
     </g>
     <g id="text_29">
      <!-- 0.4 -->
      <g transform="translate(445.436018 219.96033) scale(0.1 -0.1)">
       <use xlink:href="#DejaVuSans-30"/>
       <use xlink:href="#DejaVuSans-2e" x="63.623047"/>
       <use xlink:href="#DejaVuSans-34" x="95.410156"/>
      </g>
     </g>
    </g>
    <g id="ytick_9">
     <g id="line2d_51">
      <path d="M 468.339143 155.980116 
L 845.087035 155.980116 
" clip-path="url(#p5edaa3831e)" style="fill: none; stroke: #b0b0b0; stroke-width: 0.8; stroke-linecap: square"/>
     </g>
     <g id="line2d_52">
      <g>
       <use xlink:href="#mcc236cc903" x="468.339143" y="155.980116" style="stroke: #000000; stroke-width: 0.8"/>
      </g>
     </g>
     <g id="text_30">
      <!-- 0.6 -->
      <g transform="translate(445.436018 159.779335) scale(0.1 -0.1)">
       <use xlink:href="#DejaVuSans-30"/>
       <use xlink:href="#DejaVuSans-2e" x="63.623047"/>
       <use xlink:href="#DejaVuSans-36" x="95.410156"/>
      </g>
     </g>
    </g>
    <g id="ytick_10">
     <g id="line2d_53">
      <path d="M 468.339143 95.79912 
L 845.087035 95.79912 
" clip-path="url(#p5edaa3831e)" style="fill: none; stroke: #b0b0b0; stroke-width: 0.8; stroke-linecap: square"/>
     </g>
     <g id="line2d_54">
      <g>
       <use xlink:href="#mcc236cc903" x="468.339143" y="95.79912" style="stroke: #000000; stroke-width: 0.8"/>
      </g>
     </g>
     <g id="text_31">
      <!-- 0.8 -->
      <g transform="translate(445.436018 99.598339) scale(0.1 -0.1)">
       <use xlink:href="#DejaVuSans-30"/>
       <use xlink:href="#DejaVuSans-2e" x="63.623047"/>
       <use xlink:href="#DejaVuSans-38" x="95.410156"/>
      </g>
     </g>
    </g>
    <g id="ytick_11">
     <g id="line2d_55">
      <path d="M 468.339143 35.618125 
L 845.087035 35.618125 
" clip-path="url(#p5edaa3831e)" style="fill: none; stroke: #b0b0b0; stroke-width: 0.8; stroke-linecap: square"/>
     </g>
     <g id="line2d_56">
      <g>
       <use xlink:href="#mcc236cc903" x="468.339143" y="35.618125" style="stroke: #000000; stroke-width: 0.8"/>
      </g>
     </g>
     <g id="text_32">
      <!-- 1.0 -->
      <g transform="translate(445.436018 39.417344) scale(0.1 -0.1)">
       <use xlink:href="#DejaVuSans-31"/>
       <use xlink:href="#DejaVuSans-2e" x="63.623047"/>
       <use xlink:href="#DejaVuSans-30" x="95.410156"/>
      </g>
     </g>
    </g>
    <g id="text_33">
     <!-- Pd -->
     <g transform="translate(439.35633 174.807187) rotate(-90) scale(0.1 -0.1)">
      <use xlink:href="#DejaVuSans-50"/>
      <use xlink:href="#DejaVuSans-64" x="60.302734"/>
     </g>
    </g>
   </g>
   <g id="line2d_57">
    <path d="M 485.464047 301.618125 
L 514.005554 233.914505 
L 542.547061 188.477854 
L 571.088568 121.075139 
L 599.630075 44.946179 
L 628.171582 36.219935 
L 656.713089 35.618125 
L 685.254596 35.618125 
L 713.796103 35.618125 
L 742.33761 35.618125 
L 770.879117 35.618125 
L 799.420624 35.618125 
L 827.962131 35.618125 
" clip-path="url(#p5edaa3831e)" style="fill: none; stroke: #1f77b4; stroke-width: 1.5; stroke-linecap: square"/>
    <defs>
     <path id="md05fd16c63" d="M 0 3 
C 0.795609 3 1.55874 2.683901 2.12132 2.12132 
C 2.683901 1.55874 3 0.795609 3 0 
C 3 -0.795609 2.683901 -1.55874 2.12132 -2.12132 
C 1.55874 -2.683901 0.795609 -3 0 -3 
C -0.795609 -3 -1.55874 -2.683901 -2.12132 -2.12132 
C -2.683901 -1.55874 -3 -0.795609 -3 0 
C -3 0.795609 -2.683901 1.55874 -2.12132 2.12132 
C -1.55874 2.683901 -0.795609 3 0 3 
z
" style="stroke: #1f77b4"/>
    </defs>
    <g clip-path="url(#p5edaa3831e)">
     <use xlink:href="#md05fd16c63" x="485.464047" y="301.618125" style="fill: #1f77b4; stroke: #1f77b4"/>
     <use xlink:href="#md05fd16c63" x="514.005554" y="233.914505" style="fill: #1f77b4; stroke: #1f77b4"/>
     <use xlink:href="#md05fd16c63" x="542.547061" y="188.477854" style="fill: #1f77b4; stroke: #1f77b4"/>
     <use xlink:href="#md05fd16c63" x="571.088568" y="121.075139" style="fill: #1f77b4; stroke: #1f77b4"/>
     <use xlink:href="#md05fd16c63" x="599.630075" y="44.946179" style="fill: #1f77b4; stroke: #1f77b4"/>
     <use xlink:href="#md05fd16c63" x="628.171582" y="36.219935" style="fill: #1f77b4; stroke: #1f77b4"/>
     <use xlink:href="#md05fd16c63" x="656.713089" y="35.618125" style="fill: #1f77b4; stroke: #1f77b4"/>
     <use xlink:href="#md05fd16c63" x="685.254596" y="35.618125" style="fill: #1f77b4; stroke: #1f77b4"/>
     <use xlink:href="#md05fd16c63" x="713.796103" y="35.618125" style="fill: #1f77b4; stroke: #1f77b4"/>
     <use xlink:href="#md05fd16c63" x="742.33761" y="35.618125" style="fill: #1f77b4; stroke: #1f77b4"/>
     <use xlink:href="#md05fd16c63" x="770.879117" y="35.618125" style="fill: #1f77b4; stroke: #1f77b4"/>
     <use xlink:href="#md05fd16c63" x="799.420624" y="35.618125" style="fill: #1f77b4; stroke: #1f77b4"/>
     <use xlink:href="#md05fd16c63" x="827.962131" y="35.618125" style="fill: #1f77b4; stroke: #1f77b4"/>
    </g>
   </g>
   <g id="patch_9">
    <path d="M 468.339143 314.918125 
L 468.339143 22.318125 
" style="fill: none; stroke: #000000; stroke-width: 0.8; stroke-linejoin: miter; stroke-linecap: square"/>
   </g>
   <g id="patch_10">
    <path d="M 845.087035 314.918125 
L 845.087035 22.318125 
" style="fill: none; stroke: #000000; stroke-width: 0.8; stroke-linejoin: miter; stroke-linecap: square"/>
   </g>
   <g id="patch_11">
    <path d="M 468.339143 314.918125 
L 845.087035 314.918125 
" style="fill: none; stroke: #000000; stroke-width: 0.8; stroke-linejoin: miter; stroke-linecap: square"/>
   </g>
   <g id="patch_12">
    <path d="M 468.339143 22.318125 
L 845.087035 22.318125 
" style="fill: none; stroke: #000000; stroke-width: 0.8; stroke-linejoin: miter; stroke-linecap: square"/>
   </g>
   <g id="text_34">
    <!-- Pd vs SNR (Pfa=0.01) -->
    <g transform="translate(591.945901 16.318125) scale(0.12 -0.12)">
     <use xlink:href="#DejaVuSans-50"/>
     <use xlink:href="#DejaVuSans-64" x="60.302734"/>
     <use xlink:href="#DejaVuSans-20" x="123.779297"/>
     <use xlink:href="#DejaVuSans-76" x="155.566406"/>
     <use xlink:href="#DejaVuSans-73" x="214.746094"/>
     <use xlink:href="#DejaVuSans-20" x="266.845703"/>
     <use xlink:href="#DejaVuSans-53" x="298.632812"/>
     <use xlink:href="#DejaVuSans-4e" x="362.109375"/>
     <use xlink:href="#DejaVuSans-52" x="436.914062"/>
     <use xlink:href="#DejaVuSans-20" x="506.396484"/>
     <use xlink:href="#DejaVuSans-28" x="538.183594"/>
     <use xlink:href="#DejaVuSans-50" x="577.197266"/>
     <use xlink:href="#DejaVuSans-66" x="637.5"/>
     <use xlink:href="#DejaVuSans-61" x="672.705078"/>
     <use xlink:href="#DejaVuSans-3d" x="733.984375"/>
     <use xlink:href="#DejaVuSans-30" x="817.773438"/>
     <use xlink:href="#DejaVuSans-2e" x="881.396484"/>
     <use xlink:href="#DejaVuSans-30" x="913.183594"/>
     <use xlink:href="#DejaVuSans-31" x="976.806641"/>
     <use xlink:href="#DejaVuSans-29" x="1040.429688"/>
    </g>
   </g>
  </g>
 </g>
 <defs>
  <clipPath id="p5097a315fd">
   <rect x="43.78125" y="22.318125" width="376.747893" height="292.6"/>
  </clipPath>
  <clipPath id="p5edaa3831e">
   <rect x="468.339143" y="22.318125" width="376.747893" height="292.6"/>
  </clipPath>
 </defs>
</svg>
