<?xml version="1.0" encoding="utf-8" standalone="no"?>
<!DOCTYPE svg PUBLIC "-//W3C//DTD SVG 1.1//EN"
  "http://www.w3.org/Graphics/SVG/1.1/DTD/svg11.dtd">
<svg xmlns:xlink="http://www.w3.org/1999/xlink" width="608.98125pt" height="337.074375pt" viewBox="0 0 608.98125 337.074375" xmlns="http://www.w3.org/2000/svg" version="1.1">
 <metadata>
  <rdf:RDF xmlns:dc="http://purl.org/dc/elements/1.1/" xmlns:cc="http://creativecommons.org/ns#" xmlns:rdf="http://www.w3.org/1999/02/22-rdf-syntax-ns#">
   <cc:Work>
    <dc:type rdf:resource="http://purl.org/dc/dcmitype/StillImage"/>
    <dc:date>2026-01-25T21:18:47.096850</dc:date>
    <dc:format>image/svg+xml</dc:format>
    <dc:creator>
     <cc:Agent>
      <dc:title>Matplotlib v3.6.3, https://matplotlib.org/</dc:title>
     </cc:Agent>
    </dc:creator>
   </cc:Work>
  </rdf:RDF>
 </metadata>
 <defs>
  <style type="text/css">*{stroke-linejoin: round; stroke-linecap: butt}</style>
 </defs>
 <g id="figure_1">
  <g id="patch_1">
   <path d="M 0 337.074375 
L 608.98125 337.074375 
L 608.98125 0 
L 0 0 
z
" style="fill: #ffffff"/>
  </g>
  <g id="axes_1">
   <g id="patch_2">
    <path d="M 43.78125 299.518125 
L 601.78125 299.518125 
L 601.78125 22.318125 
L 43.78125 22.318125 
z
" style="fill: #ffffff"/>
   </g>
   <g id="matplotlib.axis_1">
    <g id="xtick_1">
     <g id="line2d_1">
      <path d="M 69.144886 299.518125 
L 69.144886 22.318125 
" clip-path="url(#p4f64824b3e)" style="fill: none; stroke-dasharray: 2.96,1.28; stroke-dashoffset: 0; stroke: #b0b0b0; stroke-opacity: 0.6; stroke-width: 0.8"/>
     </g>
     <g id="line2d_2">
      <defs>
       <path id="mbf38627e44" d="M 0 0 
L 0 3.5 
" style="stroke: #000000; stroke-width: 0.8"/>
      </defs>
      <g>
       <use xlink:href="#mbf38627e44" x="69.144886" y="299.518125" style="stroke: #000000; stroke-width: 0.8"/>
      </g>
     </g>
     <g id="text_1">
      <!-- −1.5 -->
      <g transform="translate(57.00348 314.116563) scale(0.1 -0.1)">
       <defs>
        <path id="DejaVuSans-2212" d="M 678 2272 
L 4684 2272 
L 4684 1741 
L 678 1741 
L 678 2272 
z
" transform="scale(0.015625)"/>
        <path id="DejaVuSans-31" d="M 794 531 
L 1825 531 
L 1825 4091 
L 703 3866 
L 703 4441 
L 1819 4666 
L 2450 4666 
L 2450 531 
L 3481 531 
L 3481 0 
L 794 0 
L 794 531 
z
" transform="scale(0.015625)"/>
        <path id="DejaVuSans-2e" d="M 684 794 
L 1344 794 
L 1344 0 
L 684 0 
L 684 794 
z
" transform="scale(0.015625)"/>
        <path id="DejaVuSans-35" d="M 691 4666 
L 3169 4666 
L 3169 4134 
L 1269 4134 
L 1269 2991 
Q 1406 3038 1543 3061 
Q 1681 3084 1819 3084 
Q 2600 3084 3056 2656 
Q 3513 2228 3513 1497 
Q 3513 744 3044 326 
Q 2575 -91 1722 -91 
Q 1428 -91 1123 -41 
Q 819 9 494 109 
L 494 744 
Q 775 591 1075 516 
Q 1375 441 1709 441 
Q 2250 441 2565 725 
Q 2881 1009 2881 1497 
Q 2881 1984 2565 2268 
Q 2250 2553 1709 2553 
Q 1456 2553 1204 2497 
Q 953 2441 691 2322 
L 691 4666 
z
" transform="scale(0.015625)"/>
       </defs>
       <use xlink:href="#DejaVuSans-2212"/>
       <use xlink:href="#DejaVuSans-31" x="83.789062"/>
       <use xlink:href="#DejaVuSans-2e" x="147.412109"/>
       <use xlink:href="#DejaVuSans-35" x="179.199219"/>
      </g>
     </g>
    </g>
    <g id="xtick_2">
     <g id="line2d_3">
      <path d="M 153.690341 299.518125 
L 153.690341 22.318125 
" clip-path="url(#p4f64824b3e)" style="fill: none; stroke-dasharray: 2.96,1.28; stroke-dashoffset: 0; stroke: #b0b0b0; stroke-opacity: 0.6; stroke-width: 0.8"/>
     </g>
     <g id="line2d_4">
      <g>
       <use xlink:href="#mbf38627e44" x="153.690341" y="299.518125" style="stroke: #000000; stroke-width: 0.8"/>
      </g>
     </g>
     <g id="text_2">
      <!-- −1.0 -->
      <g transform="translate(141.548935 314.116563) scale(0.1 -0.1)">
       <defs>
        <path id="DejaVuSans-30" d="M 2034 4250 
Q 1547 4250 1301 3770 
Q 1056 3291 1056 2328 
Q 1056 1369 1301 889 
Q 1547 409 2034 409 
Q 2525 409 2770 889 
Q 3016 1369 3016 2328 
Q 3016 3291 2770 3770 
Q 2525 4250 2034 4250 
z
M 2034 4750 
Q 2819 4750 3233 4129 
Q 3647 3509 3647 2328 
Q 3647 1150 3233 529 
Q 2819 -91 2034 -91 
Q 1250 -91 836 529 
Q 422 1150 422 2328 
Q 422 3509 836 4129 
Q 1250 4750 2034 4750 
z
" transform="scale(0.015625)"/>
       </defs>
       <use xlink:href="#DejaVuSans-2212"/>
       <use xlink:href="#DejaVuSans-31" x="83.789062"/>
       <use xlink:href="#DejaVuSans-2e" x="147.412109"/>
       <use xlink:href="#DejaVuSans-30" x="179.199219"/>
      </g>
     </g>
    </g>
    <g id="xtick_3">
     <g id="line2d_5">
      <path d="M 238.235795 299.518125 
L 238.235795 22.318125 
" clip-path="url(#p4f64824b3e)" style="fill: none; stroke-dasharray: 2.96,1.28; stroke-dashoffset: 0; stroke: #b0b0b0; stroke-opacity: 0.6; stroke-width: 0.8"/>
     </g>
     <g id="line2d_6">
      <g>
       <use xlink:href="#mbf38627e44" x="238.235795" y="299.518125" style="stroke: #000000; stroke-width: 0.8"/>
      </g>
     </g>
     <g id="text_3">
      <!-- −0.5 -->
      <g transform="translate(226.094389 314.116563) scale(0.1 -0.1)">
       <use xlink:href="#DejaVuSans-2212"/>
       <use xlink:href="#DejaVuSans-30" x="83.789062"/>
       <use xlink:href="#DejaVuSans-2e" x="147.412109"/>
       <use xlink:href="#DejaVuSans-35" x="179.199219"/>
      </g>
     </g>
    </g>
    <g id="xtick_4">
     <g id="line2d_7">
      <path d="M 322.78125 299.518125 
L 322.78125 22.318125 
" clip-path="url(#p4f64824b3e)" style="fill: none; stroke-dasharray: 2.96,1.28; stroke-dashoffset: 0; stroke: #b0b0b0; stroke-opacity: 0.6; stroke-width: 0.8"/>
     </g>
     <g id="line2d_8">
      <g>
       <use xlink:href="#mbf38627e44" x="322.78125" y="299.518125" style="stroke: #000000; stroke-width: 0.8"/>
      </g>
     </g>
     <g id="text_4">
      <!-- 0.0 -->
      <g transform="translate(314.829687 314.116563) scale(0.1 -0.1)">
       <use xlink:href="#DejaVuSans-30"/>
       <use xlink:href="#DejaVuSans-2e" x="63.623047"/>
       <use xlink:href="#DejaVuSans-30" x="95.410156"/>
      </g>
     </g>
    </g>
    <g id="xtick_5">
     <g id="line2d_9">
      <path d="M 407.326705 299.518125 
L 407.326705 22.318125 
" clip-path="url(#p4f64824b3e)" style="fill: none; stroke-dasharray: 2.96,1.28; stroke-dashoffset: 0; stroke: #b0b0b0; stroke-opacity: 0.6; stroke-width: 0.8"/>
     </g>
     <g id="line2d_10">
      <g>
       <use xlink:href="#mbf38627e44" x="407.326705" y="299.518125" style="stroke: #000000; stroke-width: 0.8"/>
      </g>
     </g>
     <g id="text_5">
      <!-- 0.5 -->
      <g transform="translate(399.375142 314.116563) scale(0.1 -0.1)">
       <use xlink:href="#DejaVuSans-30"/>
       <use xlink:href="#DejaVuSans-2e" x="63.623047"/>
       <use xlink:href="#DejaVuSans-35" x="95.410156"/>
      </g>
     </g>
    </g>
    <g id="xtick_6">
     <g id="line2d_11">
      <path d="M 491.872159 299.518125 
L 491.872159 22.318125 
" clip-path="url(#p4f64824b3e)" style="fill: none; stroke-dasharray: 2.96,1.28; stroke-dashoffset: 0; stroke: #b0b0b0; stroke-opacity: 0.6; stroke-width: 0.8"/>
     </g>
     <g id="line2d_12">
      <g>
       <use xlink:href="#mbf38627e44" x="491.872159" y="299.518125" style="stroke: #000000; stroke-width: 0.8"/>
      </g>
     </g>
     <g id="text_6">
      <!-- 1.0 -->
      <g transform="translate(483.920597 314.116563) scale(0.1 -0.1)">
       <use xlink:href="#DejaVuSans-31"/>
       <use xlink:href="#DejaVuSans-2e" x="63.623047"/>
       <use xlink:href="#DejaVuSans-30" x="95.410156"/>
      </g>
     </g>
    </g>
    <g id="xtick_7">
     <g id="line2d_13">
      <path d="M 576.417614 299.518125 
L 576.417614 22.318125 
" clip-path="url(#p4f64824b3e)" style="fill: none; stroke-dasharray: 2.96,1.28; stroke-dashoffset: 0; stroke: #b0b0b0; stroke-opacity: 0.6; stroke-width: 0.8"/>
     </g>
     <g id="line2d_14">
      <g>
       <use xlink:href="#mbf38627e44" x="576.417614" y="299.518125" style="stroke: #000000; stroke-width: 0.8"/>
      </g>
     </g>
     <g id="text_7">
      <!-- 1.5 -->
      <g transform="translate(568.466051 314.116563) scale(0.1 -0.1)">
       <use xlink:href="#DejaVuSans-31"/>
       <use xlink:href="#DejaVuSans-2e" x="63.623047"/>
       <use xlink:href="#DejaVuSans-35" x="95.410156"/>
      </g>
     </g>
    </g>
    <g id="text_8">
     <!-- Offset (Fraction of a Chip) -->
     <g transform="translate(258.359375 327.794688) scale(0.1 -0.1)">
      <defs>
       <path id="DejaVuSans-4f" d="M 2522 4238 
Q 1834 4238 1429 3725 
Q 1025 3213 1025 2328 
Q 1025 1447 1429 934 
Q 1834 422 2522 422 
Q 3209 422 3611 934 
Q 4013 1447 4013 2328 
Q 4013 3213 3611 3725 
Q 3209 4238 2522 4238 
z
M 2522 4750 
Q 3503 4750 4090 4092 
Q 4678 3434 4678 2328 
Q 4678 1225 4090 567 
Q 3503 -91 2522 -91 
Q 1538 -91 948 565 
Q 359 1222 359 2328 
Q 359 3434 948 4092 
Q 1538 4750 2522 4750 
z
" transform="scale(0.015625)"/>
       <path id="DejaVuSans-66" d="M 2375 4863 
L 2375 4384 
L 1825 4384 
Q 1516 4384 1395 4259 
Q 1275 4134 1275 3809 
L 1275 3500 
L 2222 3500 
L 2222 3053 
L 1275 3053 
L 1275 0 
L 697 0 
L 697 3053 
L 147 3053 
L 147 3500 
L 697 3500 
L 697 3744 
Q 697 4328 969 4595 
Q 1241 4863 1831 4863 
L 2375 4863 
z
" transform="scale(0.015625)"/>
       <path id="DejaVuSans-73" d="M 2834 3397 
L 2834 2853 
Q 2591 2978 2328 3040 
Q 2066 3103 1784 3103 
Q 1356 3103 1142 2972 
Q 928 2841 928 2578 
Q 928 2378 1081 2264 
Q 1234 2150 1697 2047 
L 1894 2003 
Q 2506 1872 2764 1633 
Q 3022 1394 3022 966 
Q 3022 478 2636 193 
Q 2250 -91 1575 -91 
Q 1294 -91 989 -36 
Q 684 19 347 128 
L 347 722 
Q 666 556 975 473 
Q 1284 391 1588 391 
Q 1994 391 2212 530 
Q 2431 669 2431 922 
Q 2431 1156 2273 1281 
Q 2116 1406 1581 1522 
L 1381 1569 
Q 847 1681 609 1914 
Q 372 2147 372 2553 
Q 372 3047 722 3315 
Q 1072 3584 1716 3584 
Q 2034 3584 2315 3537 
Q 2597 3491 2834 3397 
z
" transform="scale(0.015625)"/>
       <path id="DejaVuSans-65" d="M 3597 1894 
L 3597 1613 
L 953 1613 
Q 991 1019 1311 708 
Q 1631 397 2203 397 
Q 2534 397 2845 478 
Q 3156 559 3463 722 
L 3463 178 
Q 3153 47 2828 -22 
Q 2503 -91 2169 -91 
Q 1331 -91 842 396 
Q 353 884 353 1716 
Q 353 2575 817 3079 
Q 1281 3584 2069 3584 
Q 2775 3584 3186 3129 
Q 3597 2675 3597 1894 
z
M 3022 2063 
Q 3016 2534 2758 2815 
Q 2500 3097 2075 3097 
Q 1594 3097 1305 2825 
Q 1016 2553 972 2059 
L 3022 2063 
z
" transform="scale(0.015625)"/>
       <path id="DejaVuSans-74" d="M 1172 4494 
L 1172 3500 
L 2356 3500 
L 2356 3053 
L 1172 3053 
L 1172 1153 
Q 1172 725 1289 603 
Q 1406 481 1766 481 
L 2356 481 
L 2356 0 
L 1766 0 
Q 1100 0 847 248 
Q 594 497 594 1153 
L 594 3053 
L 172 3053 
L 172 3500 
L 594 3500 
L 594 4494 
L 1172 4494 
z
" transform="scale(0.015625)"/>
       <path id="DejaVuSans-20" transform="scale(0.015625)"/>
       <path id="DejaVuSans-28" d="M 1984 4856 
Q 1566 4138 1362 3434 
Q 1159 2731 1159 2009 
Q 1159 1288 1364 580 
Q 1569 -128 1984 -844 
L 1484 -844 
Q 1016 -109 783 600 
Q 550 1309 550 2009 
Q 550 2706 781 3412 
Q 1013 4119 1484 4856 
L 1984 4856 
z
" transform="scale(0.015625)"/>
       <path id="DejaVuSans-46" d="M 628 4666 
L 3309 4666 
L 3309 4134 
L 1259 4134 
L 1259 2759 
L 3109 2759 
L 3109 2228 
L 1259 2228 
L 1259 0 
L 628 0 
L 628 4666 
z
" transform="scale(0.015625)"/>
       <path id="DejaVuSans-72" d="M 2631 2963 
Q 2534 3019 2420 3045 
Q 2306 3072 2169 3072 
Q 1681 3072 1420 2755 
Q 1159 2438 1159 1844 
L 1159 0 
L 581 0 
L 581 3500 
L 1159 3500 
L 1159 2956 
Q 1341 3275 1631 3429 
Q 1922 3584 2338 3584 
Q 2397 3584 2469 3576 
Q 2541 3569 2628 3553 
L 2631 2963 
z
" transform="scale(0.015625)"/>
       <path id="DejaVuSans-61" d="M 2194 1759 
Q 1497 1759 1228 1600 
Q 959 1441 959 1056 
Q 959 750 1161 570 
Q 1363 391 1709 391 
Q 2188 391 2477 730 
Q 2766 1069 2766 1631 
L 2766 1759 
L 2194 1759 
z
M 3341 1997 
L 3341 0 
L 2766 0 
L 2766 531 
Q 2569 213 2275 61 
Q 1981 -91 1556 -91 
Q 1019 -91 701 211 
Q 384 513 384 1019 
Q 384 1609 779 1909 
Q 1175 2209 1959 2209 
L 2766 2209 
L 2766 2266 
Q 2766 2663 2505 2880 
Q 2244 3097 1772 3097 
Q 1472 3097 1187 3025 
Q 903 2953 641 2809 
L 641 3341 
Q 956 3463 1253 3523 
Q 1550 3584 1831 3584 
Q 2591 3584 2966 3190 
Q 3341 2797 3341 1997 
z
" transform="scale(0.015625)"/>
       <path id="DejaVuSans-63" d="M 3122 3366 
L 3122 2828 
Q 2878 2963 2633 3030 
Q 2388 3097 2138 3097 
Q 1578 3097 1268 2742 
Q 959 2388 959 1747 
Q 959 1106 1268 751 
Q 1578 397 2138 397 
Q 2388 397 2633 464 
Q 2878 531 3122 666 
L 3122 134 
Q 2881 22 2623 -34 
Q 2366 -91 2075 -91 
Q 1284 -91 818 406 
Q 353 903 353 1747 
Q 353 2603 823 3093 
Q 1294 3584 2113 3584 
Q 2378 3584 2631 3529 
Q 2884 3475 3122 3366 
z
" transform="scale(0.015625)"/>
       <path id="DejaVuSans-69" d="M 603 3500 
L 1178 3500 
L 1178 0 
L 603 0 
L 603 3500 
z
M 603 4863 
L 1178 4863 
L 1178 4134 
L 603 4134 
L 603 4863 
z
" transform="scale(0.015625)"/>
       <path id="DejaVuSans-6f" d="M 1959 3097 
Q 1497 3097 1228 2736 
Q 959 2375 959 1747 
Q 959 1119 1226 758 
Q 1494 397 1959 397 
Q 2419 397 2687 759 
Q 2956 1122 2956 1747 
Q 2956 2369 2687 2733 
Q 2419 3097 1959 3097 
z
M 1959 3584 
Q 2709 3584 3137 3096 
Q 3566 2609 3566 1747 
Q 3566 888 3137 398 
Q 2709 -91 1959 -91 
Q 1206 -91 779 398 
Q 353 888 353 1747 
Q 353 2609 779 3096 
Q 1206 3584 1959 3584 
z
" transform="scale(0.015625)"/>
       <path id="DejaVuSans-6e" d="M 3513 2113 
L 3513 0 
L 2938 0 
L 2938 2094 
Q 2938 2591 2744 2837 
Q 2550 3084 2163 3084 
Q 1697 3084 1428 2787 
Q 1159 2491 1159 1978 
L 1159 0 
L 581 0 
L 581 3500 
L 1159 3500 
L 1159 2956 
Q 1366 3272 1645 3428 
Q 1925 3584 2291 3584 
Q 2894 3584 3203 3211 
Q 3513 2838 3513 2113 
z
" transform="scale(0.015625)"/>
       <path id="DejaVuSans-43" d="M 4122 4306 
L 4122 3641 
Q 3803 3938 3442 4084 
Q 3081 4231 2675 4231 
Q 1875 4231 1450 3742 
Q 1025 3253 1025 2328 
Q 1025 1406 1450 917 
Q 1875 428 2675 428 
Q 3081 428 3442 575 
Q 3803 722 4122 1019 
L 4122 359 
Q 3791 134 3420 21 
Q 3050 -91 2638 -91 
Q 1578 -91 968 557 
Q 359 1206 359 2328 
Q 359 3453 968 4101 
Q 1578 4750 2638 4750 
Q 3056 4750 3426 4639 
Q 3797 4528 4122 4306 
z
" transform="scale(0.015625)"/>
       <path id="DejaVuSans-68" d="M 3513 2113 
L 3513 0 
L 2938 0 
L 2938 2094 
Q 2938 2591 2744 2837 
Q 2550 3084 2163 3084 
Q 1697 3084 1428 2787 
Q 1159 2491 1159 1978 
L 1159 0 
L 581 0 
L 581 4863 
L 1159 4863 
L 1159 2956 
Q 1366 3272 1645 3428 
Q 1925 3584 2291 3584 
Q 2894 3584 3203 3211 
Q 3513 2838 3513 2113 
z
" transform="scale(0.015625)"/>
       <path id="DejaVuSans-70" d="M 1159 525 
L 1159 -1331 
L 581 -1331 
L 581 3500 
L 1159 3500 
L 1159 2969 
Q 1341 3281 1617 3432 
Q 1894 3584 2278 3584 
Q 2916 3584 3314 3078 
Q 3713 2572 3713 1747 
Q 3713 922 3314 415 
Q 2916 -91 2278 -91 
Q 1894 -91 1617 61 
Q 1341 213 1159 525 
z
M 3116 1747 
Q 3116 2381 2855 2742 
Q 2594 3103 2138 3103 
Q 1681 3103 1420 2742 
Q 1159 2381 1159 1747 
Q 1159 1113 1420 752 
Q 1681 391 2138 391 
Q 2594 391 2855 752 
Q 3116 1113 3116 1747 
z
" transform="scale(0.015625)"/>
       <path id="DejaVuSans-29" d="M 513 4856 
L 1013 4856 
Q 1481 4119 1714 3412 
Q 1947 2706 1947 2009 
Q 1947 1309 1714 600 
Q 1481 -109 1013 -844 
L 513 -844 
Q 928 -128 1133 580 
Q 1338 1288 1338 2009 
Q 1338 2731 1133 3434 
Q 928 4138 513 4856 
z
" transform="scale(0.015625)"/>
      </defs>
      <use xlink:href="#DejaVuSans-4f"/>
      <use xlink:href="#DejaVuSans-66" x="78.710938"/>
      <use xlink:href="#DejaVuSans-66" x="113.916016"/>
      <use xlink:href="#DejaVuSans-73" x="149.121094"/>
      <use xlink:href="#DejaVuSans-65" x="201.220703"/>
      <use xlink:href="#DejaVuSans-74" x="262.744141"/>
      <use xlink:href="#DejaVuSans-20" x="301.953125"/>
      <use xlink:href="#DejaVuSans-28" x="333.740234"/>
      <use xlink:href="#DejaVuSans-46" x="372.753906"/>
      <use xlink:href="#DejaVuSans-72" x="423.023438"/>
      <use xlink:href="#DejaVuSans-61" x="464.136719"/>
      <use xlink:href="#DejaVuSans-63" x="525.416016"/>
      <use xlink:href="#DejaVuSans-74" x="580.396484"/>
      <use xlink:href="#DejaVuSans-69" x="619.605469"/>
      <use xlink:href="#DejaVuSans-6f" x="647.388672"/>
      <use xlink:href="#DejaVuSans-6e" x="708.570312"/>
      <use xlink:href="#DejaVuSans-20" x="771.949219"/>
      <use xlink:href="#DejaVuSans-6f" x="803.736328"/>
      <use xlink:href="#DejaVuSans-66" x="864.917969"/>
      <use xlink:href="#DejaVuSans-20" x="900.123047"/>
      <use xlink:href="#DejaVuSans-61" x="931.910156"/>
      <use xlink:href="#DejaVuSans-20" x="993.189453"/>
      <use xlink:href="#DejaVuSans-43" x="1024.976562"/>
      <use xlink:href="#DejaVuSans-68" x="1094.800781"/>
      <use xlink:href="#DejaVuSans-69" x="1158.179688"/>
      <use xlink:href="#DejaVuSans-70" x="1185.962891"/>
      <use xlink:href="#DejaVuSans-29" x="1249.439453"/>
     </g>
    </g>
   </g>
   <g id="matplotlib.axis_2">
    <g id="ytick_1">
     <g id="line2d_15">
      <path d="M 43.78125 286.918125 
L 601.78125 286.918125 
" clip-path="url(#p4f64824b3e)" style="fill: none; stroke-dasharray: 2.96,1.28; stroke-dashoffset: 0; stroke: #b0b0b0; stroke-opacity: 0.6; stroke-width: 0.8"/>
     </g>
     <g id="line2d_16">
      <defs>
       <path id="m648e58de1b" d="M 0 0 
L -3.5 0 
" style="stroke: #000000; stroke-width: 0.8"/>
      </defs>
      <g>
       <use xlink:href="#m648e58de1b" x="43.78125" y="286.918125" style="stroke: #000000; stroke-width: 0.8"/>
      </g>
     </g>
     <g id="text_9">
      <!-- 0.0 -->
      <g transform="translate(20.878125 290.717344) scale(0.1 -0.1)">
       <use xlink:href="#DejaVuSans-30"/>
       <use xlink:href="#DejaVuSans-2e" x="63.623047"/>
       <use xlink:href="#DejaVuSans-30" x="95.410156"/>
      </g>
     </g>
    </g>
    <g id="ytick_2">
     <g id="line2d_17">
      <path d="M 43.78125 236.518125 
L 601.78125 236.518125 
" clip-path="url(#p4f64824b3e)" style="fill: none; stroke-dasharray: 2.96,1.28; stroke-dashoffset: 0; stroke: #b0b0b0; stroke-opacity: 0.6; stroke-width: 0.8"/>
     </g>
     <g id="line2d_18">
      <g>
       <use xlink:href="#m648e58de1b" x="43.78125" y="236.518125" style="stroke: #000000; stroke-width: 0.8"/>
      </g>
     </g>
     <g id="text_10">
      <!-- 0.2 -->
      <g transform="translate(20.878125 240.317344) scale(0.1 -0.1)">
       <defs>
        <path id="DejaVuSans-32" d="M 1228 531 
L 3431 531 
L 3431 0 
L 469 0 
L 469 531 
Q 828 903 1448 1529 
Q 2069 2156 2228 2338 
Q 2531 2678 2651 2914 
Q 2772 3150 2772 3378 
Q 2772 3750 2511 3984 
Q 2250 4219 1831 4219 
Q 1534 4219 1204 4116 
Q 875 4013 500 3803 
L 500 4441 
Q 881 4594 1212 4672 
Q 1544 4750 1819 4750 
Q 2544 4750 2975 4387 
Q 3406 4025 3406 3419 
Q 3406 3131 3298 2873 
Q 3191 2616 2906 2266 
Q 2828 2175 2409 1742 
Q 1991 1309 1228 531 
z
" transform="scale(0.015625)"/>
       </defs>
       <use xlink:href="#DejaVuSans-30"/>
       <use xlink:href="#DejaVuSans-2e" x="63.623047"/>
       <use xlink:href="#DejaVuSans-32" x="95.410156"/>
      </g>
     </g>
    </g>
    <g id="ytick_3">
     <g id="line2d_19">
      <path d="M 43.78125 186.118125 
L 601.78125 186.118125 
" clip-path="url(#p4f64824b3e)" style="fill: none; stroke-dasharray: 2.96,1.28; stroke-dashoffset: 0; stroke: #b0b0b0; stroke-opacity: 0.6; stroke-width: 0.8"/>
     </g>
     <g id="line2d_20">
      <g>
       <use xlink:href="#m648e58de1b" x="43.78125" y="186.118125" style="stroke: #000000; stroke-width: 0.8"/>
      </g>
     </g>
     <g id="text_11">
      <!-- 0.4 -->
      <g transform="translate(20.878125 189.917344) scale(0.1 -0.1)">
       <defs>
        <path id="DejaVuSans-34" d="M 2419 4116 
L 825 1625 
L 2419 1625 
L 2419 4116 
z
M 2253 4666 
L 3047 4666 
L 3047 1625 
L 3713 1625 
L 3713 1100 
L 3047 1100 
L 3047 0 
L 2419 0 
L 2419 1100 
L 313 1100 
L 313 1709 
L 2253 4666 
z
" transform="scale(0.015625)"/>
       </defs>
       <use xlink:href="#DejaVuSans-30"/>
       <use xlink:href="#DejaVuSans-2e" x="63.623047"/>
       <use xlink:href="#DejaVuSans-34" x="95.410156"/>
      </g>
     </g>
    </g>
    <g id="ytick_4">
     <g id="line2d_21">
      <path d="M 43.78125 135.718125 
L 601.78125 135.718125 
" clip-path="url(#p4f64824b3e)" style="fill: none; stroke-dasharray: 2.96,1.28; stroke-dashoffset: 0; stroke: #b0b0b0; stroke-opacity: 0.6; stroke-width: 0.8"/>
     </g>
     <g id="line2d_22">
      <g>
       <use xlink:href="#m648e58de1b" x="43.78125" y="135.718125" style="stroke: #000000; stroke-width: 0.8"/>
      </g>
     </g>
     <g id="text_12">
      <!-- 0.6 -->
      <g transform="translate(20.878125 139.517344) scale(0.1 -0.1)">
       <defs>
        <path id="DejaVuSans-36" d="M 2113 2584 
Q 1688 2584 1439 2293 
Q 1191 2003 1191 1497 
Q 1191 994 1439 701 
Q 1688 409 2113 409 
Q 2538 409 2786 701 
Q 3034 994 3034 1497 
Q 3034 2003 2786 2293 
Q 2538 2584 2113 2584 
z
M 3366 4563 
L 3366 3988 
Q 3128 4100 2886 4159 
Q 2644 4219 2406 4219 
Q 1781 4219 1451 3797 
Q 1122 3375 1075 2522 
Q 1259 2794 1537 2939 
Q 1816 3084 2150 3084 
Q 2853 3084 3261 2657 
Q 3669 2231 3669 1497 
Q 3669 778 3244 343 
Q 2819 -91 2113 -91 
Q 1303 -91 875 529 
Q 447 1150 447 2328 
Q 447 3434 972 4092 
Q 1497 4750 2381 4750 
Q 2619 4750 2861 4703 
Q 3103 4656 3366 4563 
z
" transform="scale(0.015625)"/>
       </defs>
       <use xlink:href="#DejaVuSans-30"/>
       <use xlink:href="#DejaVuSans-2e" x="63.623047"/>
       <use xlink:href="#DejaVuSans-36" x="95.410156"/>
      </g>
     </g>
    </g>
    <g id="ytick_5">
     <g id="line2d_23">
      <path d="M 43.78125 85.318125 
L 601.78125 85.318125 
" clip-path="url(#p4f64824b3e)" style="fill: none; stroke-dasharray: 2.96,1.28; stroke-dashoffset: 0; stroke: #b0b0b0; stroke-opacity: 0.6; stroke-width: 0.8"/>
     </g>
     <g id="line2d_24">
      <g>
       <use xlink:href="#m648e58de1b" x="43.78125" y="85.318125" style="stroke: #000000; stroke-width: 0.8"/>
      </g>
     </g>
     <g id="text_13">
      <!-- 0.8 -->
      <g transform="translate(20.878125 89.117344) scale(0.1 -0.1)">
       <defs>
        <path id="DejaVuSans-38" d="M 2034 2216 
Q 1584 2216 1326 1975 
Q 1069 1734 1069 1313 
Q 1069 891 1326 650 
Q 1584 409 2034 409 
Q 2484 409 2743 651 
Q 3003 894 3003 1313 
Q 3003 1734 2745 1975 
Q 2488 2216 2034 2216 
z
M 1403 2484 
Q 997 2584 770 2862 
Q 544 3141 544 3541 
Q 544 4100 942 4425 
Q 1341 4750 2034 4750 
Q 2731 4750 3128 4425 
Q 3525 4100 3525 3541 
Q 3525 3141 3298 2862 
Q 3072 2584 2669 2484 
Q 3125 2378 3379 2068 
Q 3634 1759 3634 1313 
Q 3634 634 3220 271 
Q 2806 -91 2034 -91 
Q 1263 -91 848 271 
Q 434 634 434 1313 
Q 434 1759 690 2068 
Q 947 2378 1403 2484 
z
M 1172 3481 
Q 1172 3119 1398 2916 
Q 1625 2713 2034 2713 
Q 2441 2713 2670 2916 
Q 2900 3119 2900 3481 
Q 2900 3844 2670 4047 
Q 2441 4250 2034 4250 
Q 1625 4250 1398 4047 
Q 1172 3844 1172 3481 
z
" transform="scale(0.015625)"/>
       </defs>
       <use xlink:href="#DejaVuSans-30"/>
       <use xlink:href="#DejaVuSans-2e" x="63.623047"/>
       <use xlink:href="#DejaVuSans-38" x="95.410156"/>
      </g>
     </g>
    </g>
    <g id="ytick_6">
     <g id="line2d_25">
      <path d="M 43.78125 34.918125 
L 601.78125 34.918125 
" clip-path="url(#p4f64824b3e)" style="fill: none; stroke-dasharray: 2.96,1.28; stroke-dashoffset: 0; stroke: #b0b0b0; stroke-opacity: 0.6; stroke-width: 0.8"/>
     </g>
     <g id="line2d_26">
      <g>
       <use xlink:href="#m648e58de1b" x="43.78125" y="34.918125" style="stroke: #000000; stroke-width: 0.8"/>
      </g>
     </g>
     <g id="text_14">
      <!-- 1.0 -->
      <g transform="translate(20.878125 38.717344) scale(0.1 -0.1)">
       <use xlink:href="#DejaVuSans-31"/>
       <use xlink:href="#DejaVuSans-2e" x="63.623047"/>
       <use xlink:href="#DejaVuSans-30" x="95.410156"/>
      </g>
     </g>
    </g>
    <g id="text_15">
     <!-- Normalized Correlation Peak Magnitude -->
     <g transform="translate(14.798438 259.968906) rotate(-90) scale(0.1 -0.1)">
      <defs>
       <path id="DejaVuSans-4e" d="M 628 4666 
L 1478 4666 
L 3547 763 
L 3547 4666 
L 4159 4666 
L 4159 0 
L 3309 0 
L 1241 3903 
L 1241 0 
L 628 0 
L 628 4666 
z
" transform="scale(0.015625)"/>
       <path id="DejaVuSans-6d" d="M 3328 2828 
Q 3544 3216 3844 3400 
Q 4144 3584 4550 3584 
Q 5097 3584 5394 3201 
Q 5691 2819 5691 2113 
L 5691 0 
L 5113 0 
L 5113 2094 
Q 5113 2597 4934 2840 
Q 4756 3084 4391 3084 
Q 3944 3084 3684 2787 
Q 3425 2491 3425 1978 
L 3425 0 
L 2847 0 
L 2847 2094 
Q 2847 2600 2669 2842 
Q 2491 3084 2119 3084 
Q 1678 3084 1418 2786 
Q 1159 2488 1159 1978 
L 1159 0 
L 581 0 
L 581 3500 
L 1159 3500 
L 1159 2956 
Q 1356 3278 1631 3431 
Q 1906 3584 2284 3584 
Q 2666 3584 2933 3390 
Q 3200 3197 3328 2828 
z
" transform="scale(0.015625)"/>
       <path id="DejaVuSans-6c" d="M 603 4863 
L 1178 4863 
L 1178 0 
L 603 0 
L 603 4863 
z
" transform="scale(0.015625)"/>
       <path id="DejaVuSans-7a" d="M 353 3500 
L 3084 3500 
L 3084 2975 
L 922 459 
L 3084 459 
L 3084 0 
L 275 0 
L 275 525 
L 2438 3041 
L 353 3041 
L 353 3500 
z
" transform="scale(0.015625)"/>
       <path id="DejaVuSans-64" d="M 2906 2969 
L 2906 4863 
L 3481 4863 
L 3481 0 
L 2906 0 
L 2906 525 
Q 2725 213 2448 61 
Q 2172 -91 1784 -91 
Q 1150 -91 751 415 
Q 353 922 353 1747 
Q 353 2572 751 3078 
Q 1150 3584 1784 3584 
Q 2172 3584 2448 3432 
Q 2725 3281 2906 2969 
z
M 947 1747 
Q 947 1113 1208 752 
Q 1469 391 1925 391 
Q 2381 391 2643 752 
Q 2906 1113 2906 1747 
Q 2906 2381 2643 2742 
Q 2381 3103 1925 3103 
Q 1469 3103 1208 2742 
Q 947 2381 947 1747 
z
" transform="scale(0.015625)"/>
       <path id="DejaVuSans-50" d="M 1259 4147 
L 1259 2394 
L 2053 2394 
Q 2494 2394 2734 2622 
Q 2975 2850 2975 3272 
Q 2975 3691 2734 3919 
Q 2494 4147 2053 4147 
L 1259 4147 
z
M 628 4666 
L 2053 4666 
Q 2838 4666 3239 4311 
Q 3641 3956 3641 3272 
Q 3641 2581 3239 2228 
Q 2838 1875 2053 1875 
L 1259 1875 
L 1259 0 
L 628 0 
L 628 4666 
z
" transform="scale(0.015625)"/>
       <path id="DejaVuSans-6b" d="M 581 4863 
L 1159 4863 
L 1159 1991 
L 2875 3500 
L 3609 3500 
L 1753 1863 
L 3688 0 
L 2938 0 
L 1159 1709 
L 1159 0 
L 581 0 
L 581 4863 
z
" transform="scale(0.015625)"/>
       <path id="DejaVuSans-4d" d="M 628 4666 
L 1569 4666 
L 2759 1491 
L 3956 4666 
L 4897 4666 
L 4897 0 
L 4281 0 
L 4281 4097 
L 3078 897 
L 2444 897 
L 1241 4097 
L 1241 0 
L 628 0 
L 628 4666 
z
" transform="scale(0.015625)"/>
       <path id="DejaVuSans-67" d="M 2906 1791 
Q 2906 2416 2648 2759 
Q 2391 3103 1925 3103 
Q 1463 3103 1205 2759 
Q 947 2416 947 1791 
Q 947 1169 1205 825 
Q 1463 481 1925 481 
Q 2391 481 2648 825 
Q 2906 1169 2906 1791 
z
M 3481 434 
Q 3481 -459 3084 -895 
Q 2688 -1331 1869 -1331 
Q 1566 -1331 1297 -1286 
Q 1028 -1241 775 -1147 
L 775 -588 
Q 1028 -725 1275 -790 
Q 1522 -856 1778 -856 
Q 2344 -856 2625 -561 
Q 2906 -266 2906 331 
L 2906 616 
Q 2728 306 2450 153 
Q 2172 0 1784 0 
Q 1141 0 747 490 
Q 353 981 353 1791 
Q 353 2603 747 3093 
Q 1141 3584 1784 3584 
Q 2172 3584 2450 3431 
Q 2728 3278 2906 2969 
L 2906 3500 
L 3481 3500 
L 3481 434 
z
" transform="scale(0.015625)"/>
       <path id="DejaVuSans-75" d="M 544 1381 
L 544 3500 
L 1119 3500 
L 1119 1403 
Q 1119 906 1312 657 
Q 1506 409 1894 409 
Q 2359 409 2629 706 
Q 2900 1003 2900 1516 
L 2900 3500 
L 3475 3500 
L 3475 0 
L 2900 0 
L 2900 538 
Q 2691 219 2414 64 
Q 2138 -91 1772 -91 
Q 1169 -91 856 284 
Q 544 659 544 1381 
z
M 1991 3584 
L 1991 3584 
z
" transform="scale(0.015625)"/>
      </defs>
      <use xlink:href="#DejaVuSans-4e"/>
      <use xlink:href="#DejaVuSans-6f" x="74.804688"/>
      <use xlink:href="#DejaVuSans-72" x="135.986328"/>
      <use xlink:href="#DejaVuSans-6d" x="175.349609"/>
      <use xlink:href="#DejaVuSans-61" x="272.761719"/>
      <use xlink:href="#DejaVuSans-6c" x="334.041016"/>
      <use xlink:href="#DejaVuSans-69" x="361.824219"/>
      <use xlink:href="#DejaVuSans-7a" x="389.607422"/>
      <use xlink:href="#DejaVuSans-65" x="442.097656"/>
      <use xlink:href="#DejaVuSans-64" x="503.621094"/>
      <use xlink:href="#DejaVuSans-20" x="567.097656"/>
      <use xlink:href="#DejaVuSans-43" x="598.884766"/>
      <use xlink:href="#DejaVuSans-6f" x="668.708984"/>
      <use xlink:href="#DejaVuSans-72" x="729.890625"/>
      <use xlink:href="#DejaVuSans-72" x="769.253906"/>
      <use xlink:href="#DejaVuSans-65" x="808.117188"/>
      <use xlink:href="#DejaVuSans-6c" x="869.640625"/>
      <use xlink:href="#DejaVuSans-61" x="897.423828"/>
      <use xlink:href="#DejaVuSans-74" x="958.703125"/>
      <use xlink:href="#DejaVuSans-69" x="997.912109"/>
      <use xlink:href="#DejaVuSans-6f" x="1025.695312"/>
      <use xlink:href="#DejaVuSans-6e" x="1086.876953"/>
      <use xlink:href="#DejaVuSans-20" x="1150.255859"/>
      <use xlink:href="#DejaVuSans-50" x="1182.042969"/>
      <use xlink:href="#DejaVuSans-65" x="1238.720703"/>
      <use xlink:href="#DejaVuSans-61" x="1300.244141"/>
      <use xlink:href="#DejaVuSans-6b" x="1361.523438"/>
      <use xlink:href="#DejaVuSans-20" x="1419.433594"/>
      <use xlink:href="#DejaVuSans-4d" x="1451.220703"/>
      <use xlink:href="#DejaVuSans-61" x="1537.5"/>
      <use xlink:href="#DejaVuSans-67" x="1598.779297"/>
      <use xlink:href="#DejaVuSans-6e" x="1662.255859"/>
      <use xlink:href="#DejaVuSans-69" x="1725.634766"/>
      <use xlink:href="#DejaVuSans-74" x="1753.417969"/>
      <use xlink:href="#DejaVuSans-75" x="1792.626953"/>
      <use xlink:href="#DejaVuSans-64" x="1856.005859"/>
      <use xlink:href="#DejaVuSans-65" x="1919.482422"/>
     </g>
    </g>
   </g>
   <g id="line2d_27">
    <path d="M 69.144886 275.46358 
L 71.178044 275.921761 
L 72.194622 275.921761 
L 74.227779 276.379943 
L 75.244358 276.379943 
L 76.260937 276.609034 
L 77.277515 276.609034 
L 79.310672 277.067216 
L 80.327251 277.067216 
L 81.34383 277.296307 
L 82.360408 277.296307 
L 84.393566 277.754489 
L 85.410144 277.754489 
L 86.426723 277.98358 
L 87.443301 277.98358 
L 89.476459 278.441761 
L 90.493037 278.441761 
L 91.509616 278.670852 
L 92.526194 278.670852 
L 94.559352 279.129034 
L 95.57593 279.129034 
L 96.592509 279.358125 
L 97.609087 279.358125 
L 99.642245 279.816307 
L 100.658823 279.816307 
L 101.675402 280.045398 
L 102.691981 280.045398 
L 104.725138 280.50358 
L 105.741716 280.50358 
L 106.758295 280.73267 
L 107.774874 280.73267 
L 109.808031 281.190852 
L 110.824609 281.190852 
L 111.841188 281.419943 
L 112.857767 281.419943 
L 114.890924 281.878125 
L 115.907503 281.878125 
L 116.924081 282.107216 
L 117.94066 282.107216 
L 119.973817 282.565398 
L 120.990396 282.565398 
L 122.006974 282.794489 
L 123.023553 282.794489 
L 125.05671 283.25267 
L 126.073289 283.25267 
L 127.089867 283.481761 
L 128.106446 283.481761 
L 130.139603 283.939943 
L 131.156182 283.939943 
L 132.17276 284.169034 
L 133.189339 284.169034 
L 135.222496 284.627216 
L 136.239075 284.627216 
L 137.255653 284.856307 
L 138.272232 284.856307 
L 140.305389 285.314489 
L 141.321968 285.314489 
L 142.338546 285.54358 
L 143.355125 285.54358 
L 145.388282 286.001761 
L 146.404861 286.001761 
L 147.421439 286.230852 
L 148.438018 286.230852 
L 150.471175 286.689034 
L 151.487754 286.689034 
L 152.504333 286.918125 
L 153.520911 286.918125 
L 155.554068 281.878125 
L 156.570647 281.878125 
L 157.587226 279.358125 
L 158.603804 279.358125 
L 160.636961 274.318125 
L 161.65354 274.318125 
L 162.670119 271.798125 
L 163.686697 271.798125 
L 165.719854 266.758125 
L 166.736433 266.758125 
L 167.753012 264.238125 
L 168.76959 264.238125 
L 170.802748 259.198125 
L 171.819326 259.198125 
L 172.835905 256.678125 
L 173.852483 256.678125 
L 175.885641 251.638125 
L 176.902219 251.638125 
L 177.918798 249.118125 
L 178.935376 249.118125 
L 180.968534 244.078125 
L 181.985112 244.078125 
L 183.001691 241.558125 
L 184.018269 241.558125 
L 186.051427 236.518125 
L 187.068005 236.518125 
L 188.084584 233.998125 
L 189.101163 233.998125 
L 191.13432 228.958125 
L 192.150898 228.958125 
L 193.167477 226.438125 
L 194.184056 226.438125 
L 196.217213 221.398125 
L 197.233791 221.398125 
L 198.25037 218.878125 
L 199.266949 218.878125 
L 201.300106 213.838125 
L 202.316685 213.838125 
L 203.333263 211.318125 
L 204.349842 211.318125 
L 206.382999 206.278125 
L 207.399578 206.278125 
L 208.416156 203.758125 
L 209.432735 203.758125 
L 211.465892 198.718125 
L 212.482471 198.718125 
L 213.499049 196.198125 
L 214.515628 196.198125 
L 216.548785 191.158125 
L 217.565364 191.158125 
L 218.581942 188.638125 
L 219.598521 188.638125 
L 221.631678 183.598125 
L 222.648257 183.598125 
L 223.664835 181.078125 
L 224.681414 181.078125 
L 226.714571 176.038125 
L 227.73115 176.038125 
L 228.747728 173.518125 
L 229.764307 173.518125 
L 231.797464 168.478125 
L 232.814043 168.478125 
L 233.830621 165.958125 
L 234.8472 165.958125 
L 236.880357 160.918125 
L 237.896936 160.918125 
L 239.930093 155.878125 
L 240.946672 155.878125 
L 241.96325 153.358125 
L 242.979829 153.358125 
L 245.012986 148.318125 
L 246.029565 148.318125 
L 247.046143 145.798125 
L 248.062722 145.798125 
L 250.095879 140.758125 
L 251.112458 140.758125 
L 252.129036 138.238125 
L 253.145615 138.238125 
L 255.178772 133.198125 
L 256.195351 133.198125 
L 257.21193 130.678125 
L 258.228508 130.678125 
L 260.261665 125.638125 
L 261.278244 125.638125 
L 262.294823 123.118125 
L 263.311401 123.118125 
L 265.344558 118.078125 
L 266.361137 118.078125 
L 267.377716 115.558125 
L 268.394294 115.558125 
L 270.427451 110.518125 
L 271.44403 110.518125 
L 272.460609 107.998125 
L 273.477187 107.998125 
L 275.510345 102.958125 
L 276.526923 102.958125 
L 277.543502 100.438125 
L 278.56008 100.438125 
L 280.593238 95.398125 
L 281.609816 95.398125 
L 282.626395 92.878125 
L 283.642973 92.878125 
L 285.676131 87.838125 
L 286.692709 87.838125 
L 287.709288 85.318125 
L 288.725867 85.318125 
L 290.759024 80.278125 
L 291.775602 80.278125 
L 292.792181 77.758125 
L 293.80876 77.758125 
L 295.841917 72.718125 
L 296.858495 72.718125 
L 297.875074 70.198125 
L 298.891653 70.198125 
L 300.92481 65.158125 
L 301.941388 65.158125 
L 302.957967 62.638125 
L 303.974546 62.638125 
L 306.007703 57.598125 
L 307.024282 57.598125 
L 308.04086 55.078125 
L 309.057439 55.078125 
L 311.090596 50.038125 
L 312.107175 50.038125 
L 313.123753 47.518125 
L 314.140332 47.518125 
L 316.173489 42.478125 
L 317.190068 42.478125 
L 318.206646 39.958125 
L 319.223225 39.958125 
L 321.256382 34.918125 
L 324.306118 34.918125 
L 326.339275 39.958125 
L 327.355854 39.958125 
L 328.372432 42.478125 
L 329.389011 42.478125 
L 331.422168 47.518125 
L 332.438747 47.518125 
L 333.455325 50.038125 
L 334.471904 50.038125 
L 336.505061 55.078125 
L 337.52164 55.078125 
L 338.538218 57.598125 
L 339.554797 57.598125 
L 341.587954 62.638125 
L 342.604533 62.638125 
L 343.621112 65.158125 
L 344.63769 65.158125 
L 346.670847 70.198125 
L 347.687426 70.198125 
L 348.704005 72.718125 
L 349.720583 72.718125 
L 351.75374 77.758125 
L 352.770319 77.758125 
L 353.786898 80.278125 
L 354.803476 80.278125 
L 356.836633 85.318125 
L 357.853212 85.318125 
L 358.869791 87.838125 
L 359.886369 87.838125 
L 361.919527 92.878125 
L 362.936105 92.878125 
L 363.952684 95.398125 
L 364.969262 95.398125 
L 367.00242 100.438125 
L 368.018998 100.438125 
L 369.035577 102.958125 
L 370.052155 102.958125 
L 372.085313 107.998125 
L 373.101891 107.998125 
L 374.11847 110.518125 
L 375.135049 110.518125 
L 377.168206 115.558125 
L 378.184784 115.558125 
L 379.201363 118.078125 
L 380.217942 118.078125 
L 382.251099 123.118125 
L 383.267677 123.118125 
L 384.284256 125.638125 
L 385.300835 125.638125 
L 387.333992 130.678125 
L 388.35057 130.678125 
L 389.367149 133.198125 
L 390.383728 133.198125 
L 392.416885 138.238125 
L 393.433464 138.238125 
L 394.450042 140.758125 
L 395.466621 140.758125 
L 397.499778 145.798125 
L 398.516357 145.798125 
L 399.532935 148.318125 
L 400.549514 148.318125 
L 402.582671 153.358125 
L 403.59925 153.358125 
L 404.615828 155.878125 
L 405.632407 155.878125 
L 407.665564 160.918125 
L 408.682143 160.918125 
L 410.7153 165.958125 
L 411.731879 165.958125 
L 412.748457 168.478125 
L 413.765036 168.478125 
L 415.798193 173.518125 
L 416.814772 173.518125 
L 417.83135 176.038125 
L 418.847929 176.038125 
L 420.881086 181.078125 
L 421.897665 181.078125 
L 422.914243 183.598125 
L 423.930822 183.598125 
L 425.963979 188.638125 
L 426.980558 188.638125 
L 427.997136 191.158125 
L 429.013715 191.158125 
L 431.046872 196.198125 
L 432.063451 196.198125 
L 433.080029 198.718125 
L 434.096608 198.718125 
L 436.129765 203.758125 
L 437.146344 203.758125 
L 438.162922 206.278125 
L 439.179501 206.278125 
L 441.212658 211.318125 
L 442.229237 211.318125 
L 443.245815 213.838125 
L 444.262394 213.838125 
L 446.295551 218.878125 
L 447.31213 218.878125 
L 448.328709 221.398125 
L 449.345287 221.398125 
L 451.378444 226.438125 
L 452.395023 226.438125 
L 453.411602 228.958125 
L 454.42818 228.958125 
L 456.461337 233.998125 
L 457.477916 233.998125 
L 458.494495 236.518125 
L 459.511073 236.518125 
L 461.544231 241.558125 
L 462.560809 241.558125 
L 463.577388 244.078125 
L 464.593966 244.078125 
L 466.627124 249.118125 
L 467.643702 249.118125 
L 468.660281 251.638125 
L 469.676859 251.638125 
L 471.710017 256.678125 
L 472.726595 256.678125 
L 473.743174 259.198125 
L 474.759752 259.198125 
L 476.79291 264.238125 
L 477.809488 264.238125 
L 478.826067 266.758125 
L 479.842646 266.758125 
L 481.875803 271.798125 
L 482.892381 271.798125 
L 483.90896 274.318125 
L 484.925539 274.318125 
L 486.958696 279.358125 
L 487.975274 279.358125 
L 488.991853 281.878125 
L 490.008432 281.878125 
L 492.041589 286.918125 
L 493.058167 286.918125 
L 494.074746 286.689034 
L 495.091325 286.689034 
L 497.124482 286.230852 
L 498.141061 286.230852 
L 499.157639 286.001761 
L 500.174218 286.001761 
L 502.207375 285.54358 
L 503.223954 285.54358 
L 504.240532 285.314489 
L 505.257111 285.314489 
L 507.290268 284.856307 
L 508.306847 284.856307 
L 509.323425 284.627216 
L 510.340004 284.627216 
L 512.373161 284.169034 
L 513.38974 284.169034 
L 514.406318 283.939943 
L 515.422897 283.939943 
L 517.456054 283.481761 
L 518.472633 283.481761 
L 519.489211 283.25267 
L 520.50579 283.25267 
L 522.538947 282.794489 
L 523.555526 282.794489 
L 524.572104 282.565398 
L 525.588683 282.565398 
L 527.62184 282.107216 
L 528.638419 282.107216 
L 529.654997 281.878125 
L 530.671576 281.878125 
L 532.704733 281.419943 
L 533.721312 281.419943 
L 534.737891 281.190852 
L 535.754469 281.190852 
L 537.787626 280.73267 
L 538.804205 280.73267 
L 539.820784 280.50358 
L 540.837362 280.50358 
L 542.870519 280.045398 
L 543.887098 280.045398 
L 544.903677 279.816307 
L 545.920255 279.816307 
L 547.953413 279.358125 
L 548.969991 279.358125 
L 549.98657 279.129034 
L 551.003148 279.129034 
L 553.036306 278.670852 
L 554.052884 278.670852 
L 555.069463 278.441761 
L 556.086041 278.441761 
L 558.119199 277.98358 
L 559.135777 277.98358 
L 560.152356 277.754489 
L 561.168934 277.754489 
L 563.202092 277.296307 
L 564.21867 277.296307 
L 565.235249 277.067216 
L 566.251828 277.067216 
L 568.284985 276.609034 
L 569.301563 276.609034 
L 570.318142 276.379943 
L 571.334721 276.379943 
L 573.367878 275.921761 
L 574.384456 275.921761 
L 576.417614 275.46358 
L 576.417614 275.46358 
" clip-path="url(#p4f64824b3e)" style="fill: none; stroke: #0000ff; stroke-width: 2; stroke-linecap: square"/>
   </g>
   <g id="line2d_28">
    <path d="M 322.78125 299.518125 
L 322.78125 22.318125 
" clip-path="url(#p4f64824b3e)" style="fill: none; stroke-dasharray: 5.55,2.4; stroke-dashoffset: 0; stroke: #ff0000; stroke-opacity: 0.5; stroke-width: 1.5"/>
   </g>
   <g id="patch_3">
    <path d="M 43.78125 299.518125 
L 43.78125 22.318125 
" style="fill: none; stroke: #000000; stroke-width: 0.8; stroke-linejoin: miter; stroke-linecap: square"/>
   </g>
   <g id="patch_4">
    <path d="M 601.78125 299.518125 
L 601.78125 22.318125 
" style="fill: none; stroke: #000000; stroke-width: 0.8; stroke-linejoin: miter; stroke-linecap: square"/>
   </g>
   <g id="patch_5">
    <path d="M 43.78125 299.518125 
L 601.78125 299.518125 
" style="fill: none; stroke: #000000; stroke-width: 0.8; stroke-linejoin: miter; stroke-linecap: square"/>
   </g>
   <g id="patch_6">
    <path d="M 43.78125 22.318125 
L 601.78125 22.318125 
" style="fill: none; stroke: #000000; stroke-width: 0.8; stroke-linejoin: miter; stroke-linecap: square"/>
   </g>
   <g id="text_16">
    <!-- DSSS Correlation Peak vs. Fractional Chip Timing Offset -->
    <g transform="translate(156.329062 16.318125) scale(0.12 -0.12)">
     <defs>
      <path id="DejaVuSans-44" d="M 1259 4147 
L 1259 519 
L 2022 519 
Q 2988 519 3436 956 
Q 3884 1394 3884 2338 
Q 3884 3275 3436 3711 
Q 2988 4147 2022 4147 
L 1259 4147 
z
M 628 4666 
L 1925 4666 
Q 3281 4666 3915 4102 
Q 4550 3538 4550 2338 
Q 4550 1131 3912 565 
Q 3275 0 1925 0 
L 628 0 
L 628 4666 
z
" transform="scale(0.015625)"/>
      <path id="DejaVuSans-53" d="M 3425 4513 
L 3425 3897 
Q 3066 4069 2747 4153 
Q 2428 4238 2131 4238 
Q 1616 4238 1336 4038 
Q 1056 3838 1056 3469 
Q 1056 3159 1242 3001 
Q 1428 2844 1947 2747 
L 2328 2669 
Q 3034 2534 3370 2195 
Q 3706 1856 3706 1288 
Q 3706 609 3251 259 
Q 2797 -91 1919 -91 
Q 1588 -91 1214 -16 
Q 841 59 441 206 
L 441 856 
Q 825 641 1194 531 
Q 1563 422 1919 422 
Q 2459 422 2753 634 
Q 3047 847 3047 1241 
Q 3047 1584 2836 1778 
Q 2625 1972 2144 2069 
L 1759 2144 
Q 1053 2284 737 2584 
Q 422 2884 422 3419 
Q 422 4038 858 4394 
Q 1294 4750 2059 4750 
Q 2388 4750 2728 4690 
Q 3069 4631 3425 4513 
z
" transform="scale(0.015625)"/>
      <path id="DejaVuSans-76" d="M 191 3500 
L 800 3500 
L 1894 563 
L 2988 3500 
L 3597 3500 
L 2284 0 
L 1503 0 
L 191 3500 
z
" transform="scale(0.015625)"/>
      <path id="DejaVuSans-54" d="M -19 4666 
L 3928 4666 
L 3928 4134 
L 2272 4134 
L 2272 0 
L 1638 0 
L 1638 4134 
L -19 4134 
L -19 4666 
z
" transform="scale(0.015625)"/>
     </defs>
     <use xlink:href="#DejaVuSans-44"/>
     <use xlink:href="#DejaVuSans-53" x="77.001953"/>
     <use xlink:href="#DejaVuSans-53" x="140.478516"/>
     <use xlink:href="#DejaVuSans-53" x="203.955078"/>
     <use xlink:href="#DejaVuSans-20" x="267.431641"/>
     <use xlink:href="#DejaVuSans-43" x="299.21875"/>
     <use xlink:href="#DejaVuSans-6f" x="369.042969"/>
     <use xlink:href="#DejaVuSans-72" x="430.224609"/>
     <use xlink:href="#DejaVuSans-72" x="469.587891"/>
     <use xlink:href="#DejaVuSans-65" x="508.451172"/>
     <use xlink:href="#DejaVuSans-6c" x="569.974609"/>
     <use xlink:href="#DejaVuSans-61" x="597.757812"/>
     <use xlink:href="#DejaVuSans-74" x="659.037109"/>
     <use xlink:href="#DejaVuSans-69" x="698.246094"/>
     <use xlink:href="#DejaVuSans-6f" x="726.029297"/>
     <use xlink:href="#DejaVuSans-6e" x="787.210938"/>
     <use xlink:href="#DejaVuSans-20" x="850.589844"/>
     <use xlink:href="#DejaVuSans-50" x="882.376953"/>
     <use xlink:href="#DejaVuSans-65" x="939.054688"/>
     <use xlink:href="#DejaVuSans-61" x="1000.578125"/>
     <use xlink:href="#DejaVuSans-6b" x="1061.857422"/>
     <use xlink:href="#DejaVuSans-20" x="1119.767578"/>
     <use xlink:href="#DejaVuSans-76" x="1151.554688"/>
     <use xlink:href="#DejaVuSans-73" x="1210.734375"/>
     <use xlink:href="#DejaVuSans-2e" x="1262.833984"/>
     <use xlink:href="#DejaVuSans-20" x="1294.621094"/>
     <use xlink:href="#DejaVuSans-46" x="1326.408203"/>
     <use xlink:href="#DejaVuSans-72" x="1376.677734"/>
     <use xlink:href="#DejaVuSans-61" x="1417.791016"/>
     <use xlink:href="#DejaVuSans-63" x="1479.070312"/>
     <use xlink:href="#DejaVuSans-74" x="1534.050781"/>
     <use xlink:href="#DejaVuSans-69" x="1573.259766"/>
     <use xlink:href="#DejaVuSans-6f" x="1601.042969"/>
     <use xlink:href="#DejaVuSans-6e" x="1662.224609"/>
     <use xlink:href="#DejaVuSans-61" x="1725.603516"/>
     <use xlink:href="#DejaVuSans-6c" x="1786.882812"/>
     <use xlink:href="#DejaVuSans-20" x="1814.666016"/>
     <use xlink:href="#DejaVuSans-43" x="1846.453125"/>
     <use xlink:href="#DejaVuSans-68" x="1916.277344"/>
     <use xlink:href="#DejaVuSans-69" x="1979.65625"/>
     <use xlink:href="#DejaVuSans-70" x="2007.439453"/>
     <use xlink:href="#DejaVuSans-20" x="2070.916016"/>
     <use xlink:href="#DejaVuSans-54" x="2102.703125"/>
     <use xlink:href="#DejaVuSans-69" x="2160.662109"/>
     <use xlink:href="#DejaVuSans-6d" x="2188.445312"/>
     <use xlink:href="#DejaVuSans-69" x="2285.857422"/>
     <use xlink:href="#DejaVuSans-6e" x="2313.640625"/>
     <use xlink:href="#DejaVuSans-67" x="2377.019531"/>
     <use xlink:href="#DejaVuSans-20" x="2440.496094"/>
     <use xlink:href="#DejaVuSans-4f" x="2472.283203"/>
     <use xlink:href="#DejaVuSans-66" x="2550.994141"/>
     <use xlink:href="#DejaVuSans-66" x="2586.199219"/>
     <use xlink:href="#DejaVuSans-73" x="2621.404297"/>
     <use xlink:href="#DejaVuSans-65" x="2673.503906"/>
     <use xlink:href="#DejaVuSans-74" x="2735.027344"/>
    </g>
   </g>
   <g id="legend_1">
    <g id="patch_7">
     <path d="M 447.754687 59.674375 
L 594.78125 59.674375 
Q 596.78125 59.674375 596.78125 57.674375 
L 596.78125 29.318125 
Q 596.78125 27.318125 594.78125 27.318125 
L 447.754687 27.318125 
Q 445.754687 27.318125 445.754687 29.318125 
L 445.754687 57.674375 
Q 445.754687 59.674375 447.754687 59.674375 
z
" style="fill: #ffffff; opacity: 0.8; stroke: #cccccc; stroke-linejoin: miter"/>
    </g>
    <g id="line2d_29">
     <path d="M 449.754687 35.416562 
L 459.754687 35.416562 
L 469.754687 35.416562 
" style="fill: none; stroke: #0000ff; stroke-width: 2; stroke-linecap: square"/>
    </g>
    <g id="text_17">
     <!-- Normalized Correlation -->
     <g transform="translate(477.754687 38.916562) scale(0.1 -0.1)">
      <use xlink:href="#DejaVuSans-4e"/>
      <use xlink:href="#DejaVuSans-6f" x="74.804688"/>
      <use xlink:href="#DejaVuSans-72" x="135.986328"/>
      <use xlink:href="#DejaVuSans-6d" x="175.349609"/>
      <use xlink:href="#DejaVuSans-61" x="272.761719"/>
      <use xlink:href="#DejaVuSans-6c" x="334.041016"/>
      <use xlink:href="#DejaVuSans-69" x="361.824219"/>
      <use xlink:href="#DejaVuSans-7a" x="389.607422"/>
      <use xlink:href="#DejaVuSans-65" x="442.097656"/>
      <use xlink:href="#DejaVuSans-64" x="503.621094"/>
      <use xlink:href="#DejaVuSans-20" x="567.097656"/>
      <use xlink:href="#DejaVuSans-43" x="598.884766"/>
      <use xlink:href="#DejaVuSans-6f" x="668.708984"/>
      <use xlink:href="#DejaVuSans-72" x="729.890625"/>
      <use xlink:href="#DejaVuSans-72" x="769.253906"/>
      <use xlink:href="#DejaVuSans-65" x="808.117188"/>
      <use xlink:href="#DejaVuSans-6c" x="869.640625"/>
      <use xlink:href="#DejaVuSans-61" x="897.423828"/>
      <use xlink:href="#DejaVuSans-74" x="958.703125"/>
      <use xlink:href="#DejaVuSans-69" x="997.912109"/>
      <use xlink:href="#DejaVuSans-6f" x="1025.695312"/>
      <use xlink:href="#DejaVuSans-6e" x="1086.876953"/>
     </g>
    </g>
    <g id="line2d_30">
     <path d="M 449.754687 50.094688 
L 459.754687 50.094688 
L 469.754687 50.094688 
" style="fill: none; stroke-dasharray: 5.55,2.4; stroke-dashoffset: 0; stroke: #ff0000; stroke-opacity: 0.5; stroke-width: 1.5"/>
    </g>
    <g id="text_18">
     <!-- Perfect Alignment -->
     <g transform="translate(477.754687 53.594688) scale(0.1 -0.1)">
      <defs>
       <path id="DejaVuSans-41" d="M 2188 4044 
L 1331 1722 
L 3047 1722 
L 2188 4044 
z
M 1831 4666 
L 2547 4666 
L 4325 0 
L 3669 0 
L 3244 1197 
L 1141 1197 
L 716 0 
L 50 0 
L 1831 4666 
z
" transform="scale(0.015625)"/>
      </defs>
      <use xlink:href="#DejaVuSans-50"/>
      <use xlink:href="#DejaVuSans-65" x="56.677734"/>
      <use xlink:href="#DejaVuSans-72" x="118.201172"/>
      <use xlink:href="#DejaVuSans-66" x="159.314453"/>
      <use xlink:href="#DejaVuSans-65" x="194.519531"/>
      <use xlink:href="#DejaVuSans-63" x="256.042969"/>
      <use xlink:href="#DejaVuSans-74" x="311.023438"/>
      <use xlink:href="#DejaVuSans-20" x="350.232422"/>
      <use xlink:href="#DejaVuSans-41" x="382.019531"/>
      <use xlink:href="#DejaVuSans-6c" x="450.427734"/>
      <use xlink:href="#DejaVuSans-69" x="478.210938"/>
      <use xlink:href="#DejaVuSans-67" x="505.994141"/>
      <use xlink:href="#DejaVuSans-6e" x="569.470703"/>
      <use xlink:href="#DejaVuSans-6d" x="632.849609"/>
      <use xlink:href="#DejaVuSans-65" x="730.261719"/>
      <use xlink:href="#DejaVuSans-6e" x="791.785156"/>
      <use xlink:href="#DejaVuSans-74" x="855.164062"/>
     </g>
    </g>
   </g>
  </g>
 </g>
 <defs>
  <clipPath id="p4f64824b3e">
   <rect x="43.78125" y="22.318125" width="558" height="277.2"/>
  </clipPath>
 </defs>
</svg>
