<?xml version="1.0" encoding="utf-8" standalone="no"?>
<!DOCTYPE svg PUBLIC "-//W3C//DTD SVG 1.1//EN"
  "http://www.w3.org/Graphics/SVG/1.1/DTD/svg11.dtd">
<svg xmlns:xlink="http://www.w3.org/1999/xlink" width="855.795384pt" height="352.474375pt" viewBox="0 0 855.795384 352.474375" xmlns="http://www.w3.org/2000/svg" version="1.1">
 <metadata>
  <rdf:RDF xmlns:dc="http://purl.org/dc/elements/1.1/" xmlns:cc="http://creativecommons.org/ns#" xmlns:rdf="http://www.w3.org/1999/02/22-rdf-syntax-ns#">
   <cc:Work>
    <dc:type rdf:resource="http://purl.org/dc/dcmitype/StillImage"/>
    <dc:date>2026-02-03T21:08:16.073111</dc:date>
    <dc:format>image/svg+xml</dc:format>
    <dc:creator>
     <cc:Agent>
      <dc:title>Matplotlib v3.6.3, https://matplotlib.org/</dc:title>
     </cc:Agent>
    </dc:creator>
   </cc:Work>
  </rdf:RDF>
 </metadata>
 <defs>
  <style type="text/css">*{stroke-linejoin: round; stroke-linecap: butt}</style>
 </defs>
 <g id="figure_1">
  <g id="patch_1">
   <path d="M 0 352.474375 
L 855.795384 352.474375 
L 855.795384 0 
L 0 0 
z
" style="fill: #ffffff"/>
  </g>
  <g id="axes_1">
   <g id="patch_2">
    <path d="M 43.78125 314.918125 
L 420.529143 314.918125 
L 420.529143 22.318125 
L 43.78125 22.318125 
z
" style="fill: #ffffff"/>
   </g>
   <g id="matplotlib.axis_1">
    <g id="xtick_1">
     <g id="line2d_1">
      <path d="M 60.906154 314.918125 
L 60.906154 22.318125 
" clip-path="url(#p655cc63a5c)" style="fill: none; stroke: #b0b0b0; stroke-width: 0.8; stroke-linecap: square"/>
     </g>
     <g id="line2d_2">
      <defs>
       <path id="m830e62377f" d="M 0 0 
L 0 3.5 
" style="stroke: #000000; stroke-width: 0.8"/>
      </defs>
      <g>
       <use xlink:href="#m830e62377f" x="60.906154" y="314.918125" style="stroke: #000000; stroke-width: 0.8"/>
      </g>
     </g>
     <g id="text_1">
      <!-- 0.0 -->
      <g transform="translate(52.954592 329.516563) scale(0.1 -0.1)">
       <defs>
        <path id="DejaVuSans-30" d="M 2034 4250 
Q 1547 4250 1301 3770 
Q 1056 3291 1056 2328 
Q 1056 1369 1301 889 
Q 1547 409 2034 409 
Q 2525 409 2770 889 
Q 3016 1369 3016 2328 
Q 3016 3291 2770 3770 
Q 2525 4250 2034 4250 
z
M 2034 4750 
Q 2819 4750 3233 4129 
Q 3647 3509 3647 2328 
Q 3647 1150 3233 529 
Q 2819 -91 2034 -91 
Q 1250 -91 836 529 
Q 422 1150 422 2328 
Q 422 3509 836 4129 
Q 1250 4750 2034 4750 
z
" transform="scale(0.015625)"/>
        <path id="DejaVuSans-2e" d="M 684 794 
L 1344 794 
L 1344 0 
L 684 0 
L 684 794 
z
" transform="scale(0.015625)"/>
       </defs>
       <use xlink:href="#DejaVuSans-30"/>
       <use xlink:href="#DejaVuSans-2e" x="63.623047"/>
       <use xlink:href="#DejaVuSans-30" x="95.410156"/>
      </g>
     </g>
    </g>
    <g id="xtick_2">
     <g id="line2d_3">
      <path d="M 129.405771 314.918125 
L 129.405771 22.318125 
" clip-path="url(#p655cc63a5c)" style="fill: none; stroke: #b0b0b0; stroke-width: 0.8; stroke-linecap: square"/>
     </g>
     <g id="line2d_4">
      <g>
       <use xlink:href="#m830e62377f" x="129.405771" y="314.918125" style="stroke: #000000; stroke-width: 0.8"/>
      </g>
     </g>
     <g id="text_2">
      <!-- 0.2 -->
      <g transform="translate(121.454209 329.516563) scale(0.1 -0.1)">
       <defs>
        <path id="DejaVuSans-32" d="M 1228 531 
L 3431 531 
L 3431 0 
L 469 0 
L 469 531 
Q 828 903 1448 1529 
Q 2069 2156 2228 2338 
Q 2531 2678 2651 2914 
Q 2772 3150 2772 3378 
Q 2772 3750 2511 3984 
Q 2250 4219 1831 4219 
Q 1534 4219 1204 4116 
Q 875 4013 500 3803 
L 500 4441 
Q 881 4594 1212 4672 
Q 1544 4750 1819 4750 
Q 2544 4750 2975 4387 
Q 3406 4025 3406 3419 
Q 3406 3131 3298 2873 
Q 3191 2616 2906 2266 
Q 2828 2175 2409 1742 
Q 1991 1309 1228 531 
z
" transform="scale(0.015625)"/>
       </defs>
       <use xlink:href="#DejaVuSans-30"/>
       <use xlink:href="#DejaVuSans-2e" x="63.623047"/>
       <use xlink:href="#DejaVuSans-32" x="95.410156"/>
      </g>
     </g>
    </g>
    <g id="xtick_3">
     <g id="line2d_5">
      <path d="M 197.905388 314.918125 
L 197.905388 22.318125 
" clip-path="url(#p655cc63a5c)" style="fill: none; stroke: #b0b0b0; stroke-width: 0.8; stroke-linecap: square"/>
     </g>
     <g id="line2d_6">
      <g>
       <use xlink:href="#m830e62377f" x="197.905388" y="314.918125" style="stroke: #000000; stroke-width: 0.8"/>
      </g>
     </g>
     <g id="text_3">
      <!-- 0.4 -->
      <g transform="translate(189.953825 329.516563) scale(0.1 -0.1)">
       <defs>
        <path id="DejaVuSans-34" d="M 2419 4116 
L 825 1625 
L 2419 1625 
L 2419 4116 
z
M 2253 4666 
L 3047 4666 
L 3047 1625 
L 3713 1625 
L 3713 1100 
L 3047 1100 
L 3047 0 
L 2419 0 
L 2419 1100 
L 313 1100 
L 313 1709 
L 2253 4666 
z
" transform="scale(0.015625)"/>
       </defs>
       <use xlink:href="#DejaVuSans-30"/>
       <use xlink:href="#DejaVuSans-2e" x="63.623047"/>
       <use xlink:href="#DejaVuSans-34" x="95.410156"/>
      </g>
     </g>
    </g>
    <g id="xtick_4">
     <g id="line2d_7">
      <path d="M 266.405005 314.918125 
L 266.405005 22.318125 
" clip-path="url(#p655cc63a5c)" style="fill: none; stroke: #b0b0b0; stroke-width: 0.8; stroke-linecap: square"/>
     </g>
     <g id="line2d_8">
      <g>
       <use xlink:href="#m830e62377f" x="266.405005" y="314.918125" style="stroke: #000000; stroke-width: 0.8"/>
      </g>
     </g>
     <g id="text_4">
      <!-- 0.6 -->
      <g transform="translate(258.453442 329.516563) scale(0.1 -0.1)">
       <defs>
        <path id="DejaVuSans-36" d="M 2113 2584 
Q 1688 2584 1439 2293 
Q 1191 2003 1191 1497 
Q 1191 994 1439 701 
Q 1688 409 2113 409 
Q 2538 409 2786 701 
Q 3034 994 3034 1497 
Q 3034 2003 2786 2293 
Q 2538 2584 2113 2584 
z
M 3366 4563 
L 3366 3988 
Q 3128 4100 2886 4159 
Q 2644 4219 2406 4219 
Q 1781 4219 1451 3797 
Q 1122 3375 1075 2522 
Q 1259 2794 1537 2939 
Q 1816 3084 2150 3084 
Q 2853 3084 3261 2657 
Q 3669 2231 3669 1497 
Q 3669 778 3244 343 
Q 2819 -91 2113 -91 
Q 1303 -91 875 529 
Q 447 1150 447 2328 
Q 447 3434 972 4092 
Q 1497 4750 2381 4750 
Q 2619 4750 2861 4703 
Q 3103 4656 3366 4563 
z
" transform="scale(0.015625)"/>
       </defs>
       <use xlink:href="#DejaVuSans-30"/>
       <use xlink:href="#DejaVuSans-2e" x="63.623047"/>
       <use xlink:href="#DejaVuSans-36" x="95.410156"/>
      </g>
     </g>
    </g>
    <g id="xtick_5">
     <g id="line2d_9">
      <path d="M 334.904622 314.918125 
L 334.904622 22.318125 
" clip-path="url(#p655cc63a5c)" style="fill: none; stroke: #b0b0b0; stroke-width: 0.8; stroke-linecap: square"/>
     </g>
     <g id="line2d_10">
      <g>
       <use xlink:href="#m830e62377f" x="334.904622" y="314.918125" style="stroke: #000000; stroke-width: 0.8"/>
      </g>
     </g>
     <g id="text_5">
      <!-- 0.8 -->
      <g transform="translate(326.953059 329.516563) scale(0.1 -0.1)">
       <defs>
        <path id="DejaVuSans-38" d="M 2034 2216 
Q 1584 2216 1326 1975 
Q 1069 1734 1069 1313 
Q 1069 891 1326 650 
Q 1584 409 2034 409 
Q 2484 409 2743 651 
Q 3003 894 3003 1313 
Q 3003 1734 2745 1975 
Q 2488 2216 2034 2216 
z
M 1403 2484 
Q 997 2584 770 2862 
Q 544 3141 544 3541 
Q 544 4100 942 4425 
Q 1341 4750 2034 4750 
Q 2731 4750 3128 4425 
Q 3525 4100 3525 3541 
Q 3525 3141 3298 2862 
Q 3072 2584 2669 2484 
Q 3125 2378 3379 2068 
Q 3634 1759 3634 1313 
Q 3634 634 3220 271 
Q 2806 -91 2034 -91 
Q 1263 -91 848 271 
Q 434 634 434 1313 
Q 434 1759 690 2068 
Q 947 2378 1403 2484 
z
M 1172 3481 
Q 1172 3119 1398 2916 
Q 1625 2713 2034 2713 
Q 2441 2713 2670 2916 
Q 2900 3119 2900 3481 
Q 2900 3844 2670 4047 
Q 2441 4250 2034 4250 
Q 1625 4250 1398 4047 
Q 1172 3844 1172 3481 
z
" transform="scale(0.015625)"/>
       </defs>
       <use xlink:href="#DejaVuSans-30"/>
       <use xlink:href="#DejaVuSans-2e" x="63.623047"/>
       <use xlink:href="#DejaVuSans-38" x="95.410156"/>
      </g>
     </g>
    </g>
    <g id="xtick_6">
     <g id="line2d_11">
      <path d="M 403.404238 314.918125 
L 403.404238 22.318125 
" clip-path="url(#p655cc63a5c)" style="fill: none; stroke: #b0b0b0; stroke-width: 0.8; stroke-linecap: square"/>
     </g>
     <g id="line2d_12">
      <g>
       <use xlink:href="#m830e62377f" x="403.404238" y="314.918125" style="stroke: #000000; stroke-width: 0.8"/>
      </g>
     </g>
     <g id="text_6">
      <!-- 1.0 -->
      <g transform="translate(395.452676 329.516563) scale(0.1 -0.1)">
       <defs>
        <path id="DejaVuSans-31" d="M 794 531 
L 1825 531 
L 1825 4091 
L 703 3866 
L 703 4441 
L 1819 4666 
L 2450 4666 
L 2450 531 
L 3481 531 
L 3481 0 
L 794 0 
L 794 531 
z
" transform="scale(0.015625)"/>
       </defs>
       <use xlink:href="#DejaVuSans-31"/>
       <use xlink:href="#DejaVuSans-2e" x="63.623047"/>
       <use xlink:href="#DejaVuSans-30" x="95.410156"/>
      </g>
     </g>
    </g>
    <g id="text_7">
     <!-- Pfa -->
     <g transform="translate(224.316134 343.194687) scale(0.1 -0.1)">
      <defs>
       <path id="DejaVuSans-50" d="M 1259 4147 
L 1259 2394 
L 2053 2394 
Q 2494 2394 2734 2622 
Q 2975 2850 2975 3272 
Q 2975 3691 2734 3919 
Q 2494 4147 2053 4147 
L 1259 4147 
z
M 628 4666 
L 2053 4666 
Q 2838 4666 3239 4311 
Q 3641 3956 3641 3272 
Q 3641 2581 3239 2228 
Q 2838 1875 2053 1875 
L 1259 1875 
L 1259 0 
L 628 0 
L 628 4666 
z
" transform="scale(0.015625)"/>
       <path id="DejaVuSans-66" d="M 2375 4863 
L 2375 4384 
L 1825 4384 
Q 1516 4384 1395 4259 
Q 1275 4134 1275 3809 
L 1275 3500 
L 2222 3500 
L 2222 3053 
L 1275 3053 
L 1275 0 
L 697 0 
L 697 3053 
L 147 3053 
L 147 3500 
L 697 3500 
L 697 3744 
Q 697 4328 969 4595 
Q 1241 4863 1831 4863 
L 2375 4863 
z
" transform="scale(0.015625)"/>
       <path id="DejaVuSans-61" d="M 2194 1759 
Q 1497 1759 1228 1600 
Q 959 1441 959 1056 
Q 959 750 1161 570 
Q 1363 391 1709 391 
Q 2188 391 2477 730 
Q 2766 1069 2766 1631 
L 2766 1759 
L 2194 1759 
z
M 3341 1997 
L 3341 0 
L 2766 0 
L 2766 531 
Q 2569 213 2275 61 
Q 1981 -91 1556 -91 
Q 1019 -91 701 211 
Q 384 513 384 1019 
Q 384 1609 779 1909 
Q 1175 2209 1959 2209 
L 2766 2209 
L 2766 2266 
Q 2766 2663 2505 2880 
Q 2244 3097 1772 3097 
Q 1472 3097 1187 3025 
Q 903 2953 641 2809 
L 641 3341 
Q 956 3463 1253 3523 
Q 1550 3584 1831 3584 
Q 2591 3584 2966 3190 
Q 3341 2797 3341 1997 
z
" transform="scale(0.015625)"/>
      </defs>
      <use xlink:href="#DejaVuSans-50"/>
      <use xlink:href="#DejaVuSans-66" x="60.302734"/>
      <use xlink:href="#DejaVuSans-61" x="95.507812"/>
     </g>
    </g>
   </g>
   <g id="matplotlib.axis_2">
    <g id="ytick_1">
     <g id="line2d_13">
      <path d="M 43.78125 301.618125 
L 420.529143 301.618125 
" clip-path="url(#p655cc63a5c)" style="fill: none; stroke: #b0b0b0; stroke-width: 0.8; stroke-linecap: square"/>
     </g>
     <g id="line2d_14">
      <defs>
       <path id="m0b1671a309" d="M 0 0 
L -3.5 0 
" style="stroke: #000000; stroke-width: 0.8"/>
      </defs>
      <g>
       <use xlink:href="#m0b1671a309" x="43.78125" y="301.618125" style="stroke: #000000; stroke-width: 0.8"/>
      </g>
     </g>
     <g id="text_8">
      <!-- 0.0 -->
      <g transform="translate(20.878125 305.417344) scale(0.1 -0.1)">
       <use xlink:href="#DejaVuSans-30"/>
       <use xlink:href="#DejaVuSans-2e" x="63.623047"/>
       <use xlink:href="#DejaVuSans-30" x="95.410156"/>
      </g>
     </g>
    </g>
    <g id="ytick_2">
     <g id="line2d_15">
      <path d="M 43.78125 248.418125 
L 420.529143 248.418125 
" clip-path="url(#p655cc63a5c)" style="fill: none; stroke: #b0b0b0; stroke-width: 0.8; stroke-linecap: square"/>
     </g>
     <g id="line2d_16">
      <g>
       <use xlink:href="#m0b1671a309" x="43.78125" y="248.418125" style="stroke: #000000; stroke-width: 0.8"/>
      </g>
     </g>
     <g id="text_9">
      <!-- 0.2 -->
      <g transform="translate(20.878125 252.217344) scale(0.1 -0.1)">
       <use xlink:href="#DejaVuSans-30"/>
       <use xlink:href="#DejaVuSans-2e" x="63.623047"/>
       <use xlink:href="#DejaVuSans-32" x="95.410156"/>
      </g>
     </g>
    </g>
    <g id="ytick_3">
     <g id="line2d_17">
      <path d="M 43.78125 195.218125 
L 420.529143 195.218125 
" clip-path="url(#p655cc63a5c)" style="fill: none; stroke: #b0b0b0; stroke-width: 0.8; stroke-linecap: square"/>
     </g>
     <g id="line2d_18">
      <g>
       <use xlink:href="#m0b1671a309" x="43.78125" y="195.218125" style="stroke: #000000; stroke-width: 0.8"/>
      </g>
     </g>
     <g id="text_10">
      <!-- 0.4 -->
      <g transform="translate(20.878125 199.017344) scale(0.1 -0.1)">
       <use xlink:href="#DejaVuSans-30"/>
       <use xlink:href="#DejaVuSans-2e" x="63.623047"/>
       <use xlink:href="#DejaVuSans-34" x="95.410156"/>
      </g>
     </g>
    </g>
    <g id="ytick_4">
     <g id="line2d_19">
      <path d="M 43.78125 142.018125 
L 420.529143 142.018125 
" clip-path="url(#p655cc63a5c)" style="fill: none; stroke: #b0b0b0; stroke-width: 0.8; stroke-linecap: square"/>
     </g>
     <g id="line2d_20">
      <g>
       <use xlink:href="#m0b1671a309" x="43.78125" y="142.018125" style="stroke: #000000; stroke-width: 0.8"/>
      </g>
     </g>
     <g id="text_11">
      <!-- 0.6 -->
      <g transform="translate(20.878125 145.817344) scale(0.1 -0.1)">
       <use xlink:href="#DejaVuSans-30"/>
       <use xlink:href="#DejaVuSans-2e" x="63.623047"/>
       <use xlink:href="#DejaVuSans-36" x="95.410156"/>
      </g>
     </g>
    </g>
    <g id="ytick_5">
     <g id="line2d_21">
      <path d="M 43.78125 88.818125 
L 420.529143 88.818125 
" clip-path="url(#p655cc63a5c)" style="fill: none; stroke: #b0b0b0; stroke-width: 0.8; stroke-linecap: square"/>
     </g>
     <g id="line2d_22">
      <g>
       <use xlink:href="#m0b1671a309" x="43.78125" y="88.818125" style="stroke: #000000; stroke-width: 0.8"/>
      </g>
     </g>
     <g id="text_12">
      <!-- 0.8 -->
      <g transform="translate(20.878125 92.617344) scale(0.1 -0.1)">
       <use xlink:href="#DejaVuSans-30"/>
       <use xlink:href="#DejaVuSans-2e" x="63.623047"/>
       <use xlink:href="#DejaVuSans-38" x="95.410156"/>
      </g>
     </g>
    </g>
    <g id="ytick_6">
     <g id="line2d_23">
      <path d="M 43.78125 35.618125 
L 420.529143 35.618125 
" clip-path="url(#p655cc63a5c)" style="fill: none; stroke: #b0b0b0; stroke-width: 0.8; stroke-linecap: square"/>
     </g>
     <g id="line2d_24">
      <g>
       <use xlink:href="#m0b1671a309" x="43.78125" y="35.618125" style="stroke: #000000; stroke-width: 0.8"/>
      </g>
     </g>
     <g id="text_13">
      <!-- 1.0 -->
      <g transform="translate(20.878125 39.417344) scale(0.1 -0.1)">
       <use xlink:href="#DejaVuSans-31"/>
       <use xlink:href="#DejaVuSans-2e" x="63.623047"/>
       <use xlink:href="#DejaVuSans-30" x="95.410156"/>
      </g>
     </g>
    </g>
    <g id="text_14">
     <!-- Pd -->
     <g transform="translate(14.798438 174.807187) rotate(-90) scale(0.1 -0.1)">
      <defs>
       <path id="DejaVuSans-64" d="M 2906 2969 
L 2906 4863 
L 3481 4863 
L 3481 0 
L 2906 0 
L 2906 525 
Q 2725 213 2448 61 
Q 2172 -91 1784 -91 
Q 1150 -91 751 415 
Q 353 922 353 1747 
Q 353 2572 751 3078 
Q 1150 3584 1784 3584 
Q 2172 3584 2448 3432 
Q 2725 3281 2906 2969 
z
M 947 1747 
Q 947 1113 1208 752 
Q 1469 391 1925 391 
Q 2381 391 2643 752 
Q 2906 1113 2906 1747 
Q 2906 2381 2643 2742 
Q 2381 3103 1925 3103 
Q 1469 3103 1208 2742 
Q 947 2381 947 1747 
z
" transform="scale(0.015625)"/>
      </defs>
      <use xlink:href="#DejaVuSans-50"/>
      <use xlink:href="#DejaVuSans-64" x="60.302734"/>
     </g>
    </g>
   </g>
   <g id="line2d_25">
    <path d="M 403.404238 35.618125 
L 401.931497 36.682125 
L 401.28075 37.453525 
L 399.773759 37.958925 
L 397.890019 39.129325 
L 396.862525 40.379525 
L 395.355533 42.002125 
L 393.814292 42.188325 
L 388.574071 45.832525 
L 385.491589 46.816725 
L 384.190096 48.838325 
L 381.826859 50.115125 
L 378.675877 52.030325 
L 374.874148 53.546525 
L 370.010675 57.110925 
L 366.962442 60.356125 
L 363.160713 63.548125 
L 360.420729 64.186525 
L 355.728505 68.043525 
L 348.296297 71.634525 
L 342.062831 76.449125 
L 340.042093 76.183125 
L 336.343113 82.700125 
L 330.246648 83.923725 
L 329.561651 85.386725 
L 323.841933 89.536325 
L 314.731484 96.798125 
L 309.731012 97.915325 
L 303.120799 100.921125 
L 301.579558 104.964325 
L 297.777829 106.879525 
L 292.400609 111.481325 
L 289.626375 116.960925 
L 283.906657 118.876125 
L 275.070206 122.573525 
L 270.172484 125.127125 
L 268.870991 130.500325 
L 265.240511 132.415525 
L 260.274289 134.330725 
L 254.212073 139.225125 
L 247.978608 139.198525 
L 244.759126 146.274125 
L 239.964153 149.120325 
L 237.258418 151.594125 
L 228.627466 155.530925 
L 228.079469 160.850925 
L 224.003742 162.420325 
L 217.564778 168.245725 
L 211.77656 168.697925 
L 207.700833 171.943125 
L 202.631861 174.204125 
L 200.028876 180.561525 
L 195.370902 180.694525 
L 194.925655 184.258925 
L 187.801694 187.690325 
L 185.506957 189.632125 
L 177.698001 193.542325 
L 172.971527 198.915525 
L 168.793051 205.139925 
L 163.724079 207.374325 
L 161.326592 207.507325 
L 159.100355 210.220525 
L 153.346387 214.396725 
L 148.448665 217.695125 
L 146.941673 220.275325 
L 142.317949 223.148125 
L 137.522976 223.201325 
L 136.66673 229.212925 
L 132.043006 232.910325 
L 127.282283 236.022525 
L 126.152039 238.921925 
L 125.501293 238.921925 
L 122.281811 241.555325 
L 118.480082 245.518725 
L 117.521088 244.029125 
L 115.2606 247.008325 
L 111.73287 251.211125 
L 109.301133 252.088925 
L 106.458399 254.216925 
L 104.334911 257.355725 
L 102.348422 258.765525 
L 100.567432 260.441325 
L 98.478194 261.957525 
L 97.48495 263.260925 
L 94.881964 266.905125 
L 95.087463 267.782925 
L 91.080235 266.266725 
L 90.086991 270.043925 
L 88.990997 269.245925 
L 88.579999 272.943325 
L 88.134752 274.326525 
L 85.908514 274.805325 
L 83.271279 275.975725 
L 82.552033 276.454525 
L 82.106786 278.156925 
L 80.325796 278.316525 
L 78.818804 279.859325 
L 79.024303 280.710525 
L 78.442056 282.040525 
L 75.291074 283.317325 
L 75.599322 284.035525 
L 75.462323 283.742925 
L 74.332079 285.099525 
L 73.749832 285.977325 
L 72.688088 286.934925 
L 72.242841 288.743725 
L 71.592094 288.397925 
L 71.386596 288.584125 
L 70.701599 289.009725 
L 70.085103 290.073725 
L 68.74936 291.190925 
L 68.85211 291.696325 
L 68.612361 292.201725 
L 67.893115 292.600725 
L 68.132864 293.505125 
L 66.351874 293.850925 
L 66.557373 293.425325 
L 65.803877 294.888325 
L 66.694372 294.382925 
L 65.392879 296.058725 
L 65.016131 295.819325 
L 65.22163 295.659725 
L 64.194136 295.978925 
L 65.118881 296.590725 
L 63.748888 296.909925 
L 64.296885 297.415325 
L 63.50914 297.654725 
L 63.269391 298.186725 
L 63.098142 298.027125 
L 62.824143 298.851725 
L 62.824143 298.612325 
L 62.584395 298.612325 
L 62.652894 298.798525 
L 62.173397 299.436925 
L 62.036398 299.277325 
L 62.139147 299.303925 
L 61.865149 299.436925 
L 61.72815 300.341325 
L 61.72815 299.702925 
L 61.6939 300.155125 
L 61.522651 300.101925 
L 61.6254 300.500925 
L 61.933648 300.261525 
L 61.385652 300.740325 
L 61.351402 300.660525 
L 61.522651 300.527525 
L 61.077403 301.112725 
L 61.282902 301.325525 
L 61.077403 301.139325 
L 60.906154 301.618125 
L 60.906154 301.591525 
" clip-path="url(#p655cc63a5c)" style="fill: none; stroke: #1f77b4; stroke-width: 1.5; stroke-linecap: square"/>
   </g>
   <g id="line2d_26">
    <path d="M 403.404238 35.618125 
L 403.06174 35.671325 
L 402.479494 36.070325 
L 401.075251 36.788525 
L 398.917513 38.118525 
L 395.835031 38.810125 
L 393.403294 40.592325 
L 390.320812 41.363725 
L 387.375328 43.465125 
L 382.100858 46.178325 
L 375.387895 47.987125 
L 371.997164 49.662925 
L 363.297713 52.934725 
L 361.790721 56.898125 
L 352.132275 59.770925 
L 343.878071 63.627925 
L 341.754583 67.777525 
L 331.65089 71.129125 
L 324.49268 73.124125 
L 315.724729 80.492325 
L 309.662513 84.455725 
L 301.785057 89.350125 
L 291.886862 93.579525 
L 284.249155 97.995125 
L 275.070206 102.862925 
L 260.240039 112.438925 
L 248.800603 120.312525 
L 240.306651 122.600125 
L 233.114191 127.893525 
L 221.674755 132.016525 
L 217.359279 139.863525 
L 207.221336 141.273325 
L 200.542623 149.599125 
L 194.788655 154.706325 
L 184.376714 158.403725 
L 179.307742 165.027125 
L 175.026516 171.145125 
L 166.635313 174.895725 
L 160.230599 179.258125 
L 153.517636 186.759325 
L 146.119678 192.611325 
L 142.557697 197.638725 
L 135.091239 200.883925 
L 132.693753 204.847325 
L 125.706792 211.710125 
L 121.939313 216.604525 
L 119.439077 220.940325 
L 113.924858 223.360925 
L 109.677881 225.488925 
L 106.35565 231.367525 
L 101.320928 235.862925 
L 98.101446 239.134725 
L 94.196968 243.390725 
L 90.634988 246.981725 
L 90.22399 249.854525 
L 86.970258 253.206125 
L 85.189268 256.850325 
L 80.325796 258.419725 
L 81.216291 262.569325 
L 78.579055 263.207725 
L 76.421317 266.665725 
L 75.291074 270.309925 
L 73.338835 271.001525 
L 72.071592 273.847725 
L 72.722338 276.082125 
L 70.770099 276.693925 
L 69.811104 280.205125 
L 69.502856 282.386325 
L 67.619117 283.982325 
L 66.728622 283.450325 
L 65.872376 287.387125 
L 65.29013 288.956525 
L 64.810632 289.435325 
L 63.783138 290.765325 
L 63.988637 291.297325 
L 64.022887 293.318925 
L 63.132392 293.239125 
L 63.200891 294.063725 
L 62.378896 295.393725 
L 61.830899 295.952325 
L 62.070648 297.122725 
L 61.59115 298.106925 
L 61.65965 297.654725 
L 61.248652 299.809325 
L 61.043153 300.128525 
L 61.180153 300.208325 
L 60.974654 300.793525 
L 61.043153 300.554125 
L 60.940404 301.298925 
L 60.906154 301.272325 
L 60.940404 301.431925 
L 60.906154 301.618125 
L 60.906154 301.618125 
" clip-path="url(#p655cc63a5c)" style="fill: none; stroke: #ff7f0e; stroke-width: 1.5; stroke-linecap: square"/>
   </g>
   <g id="line2d_27">
    <path d="M 403.404238 35.618125 
L 400.287506 36.256525 
L 395.252784 36.628925 
L 391.279806 37.825925 
L 372.68216 41.124325 
L 361.413973 43.199125 
L 351.070531 44.874925 
L 339.973593 47.162525 
L 323.636435 50.833325 
L 309.457014 54.344525 
L 297.64083 57.775925 
L 282.399665 62.510725 
L 266.131006 67.218925 
L 253.218828 71.607925 
L 237.600916 76.316125 
L 222.4625 83.418325 
L 210.612067 88.818125 
L 195.268153 94.776525 
L 184.136965 100.229525 
L 171.293287 108.129725 
L 159.031855 116.854525 
L 149.852907 122.679925 
L 138.48197 130.181125 
L 128.652275 137.123725 
L 120.877569 146.673125 
L 113.719359 157.020525 
L 107.074896 163.377925 
L 100.361934 171.411125 
L 89.915742 186.440125 
L 84.538522 197.266325 
L 80.325796 202.932125 
L 78.133808 209.528925 
L 76.489817 217.030125 
L 73.133336 227.031725 
L 68.509612 236.634325 
L 67.721866 244.241925 
L 65.838127 250.040725 
L 65.22163 256.185325 
L 64.570884 260.999925 
L 63.748888 264.617525 
L 63.748888 269.804525 
L 62.755644 272.304925 
L 61.6254 282.253325 
L 61.556901 284.753725 
L 61.145903 289.355525 
L 61.214402 292.946525 
L 61.043153 294.675525 
L 61.111653 296.165125 
L 60.906154 301.538325 
L 60.906154 301.618125 
L 60.906154 301.618125 
" clip-path="url(#p655cc63a5c)" style="fill: none; stroke: #2ca02c; stroke-width: 1.5; stroke-linecap: square"/>
   </g>
   <g id="line2d_28">
    <path d="M 403.404238 35.618125 
L 379.771871 35.724525 
L 363.194963 35.963925 
L 342.782077 36.043725 
L 314.423236 36.495925 
L 287.948134 36.708725 
L 264.487015 37.905725 
L 236.367923 38.916525 
L 213.078053 39.927325 
L 185.917955 42.081925 
L 169.923294 43.465125 
L 147.558169 46.763525 
L 131.563509 51.019525 
L 114.061857 55.036125 
L 103.204668 60.196525 
L 93.340723 68.655325 
L 85.840015 72.193125 
L 77.894059 83.710925 
L 73.167586 91.079125 
L 69.434357 104.192925 
L 66.865621 117.333325 
L 65.975126 125.286725 
L 64.091386 140.156125 
L 62.858393 154.546725 
L 61.865149 180.694525 
L 61.077403 220.594525 
L 61.111653 232.644325 
L 60.906154 263.393925 
L 60.906154 301.618125 
L 60.906154 301.618125 
" clip-path="url(#p655cc63a5c)" style="fill: none; stroke: #d62728; stroke-width: 1.5; stroke-linecap: square"/>
   </g>
   <g id="line2d_29">
    <path d="M 403.404238 35.618125 
L 76.284318 35.671325 
L 69.194608 35.910725 
L 65.25588 36.389525 
L 63.37214 36.735325 
L 61.65965 38.065325 
L 61.488401 40.086925 
L 61.008904 43.810925 
L 60.906154 65.303725 
L 60.906154 301.618125 
L 60.906154 301.618125 
" clip-path="url(#p655cc63a5c)" style="fill: none; stroke: #9467bd; stroke-width: 1.5; stroke-linecap: square"/>
   </g>
   <g id="patch_3">
    <path d="M 43.78125 314.918125 
L 43.78125 22.318125 
" style="fill: none; stroke: #000000; stroke-width: 0.8; stroke-linejoin: miter; stroke-linecap: square"/>
   </g>
   <g id="patch_4">
    <path d="M 420.529143 314.918125 
L 420.529143 22.318125 
" style="fill: none; stroke: #000000; stroke-width: 0.8; stroke-linejoin: miter; stroke-linecap: square"/>
   </g>
   <g id="patch_5">
    <path d="M 43.78125 314.918125 
L 420.529143 314.918125 
" style="fill: none; stroke: #000000; stroke-width: 0.8; stroke-linejoin: miter; stroke-linecap: square"/>
   </g>
   <g id="patch_6">
    <path d="M 43.78125 22.318125 
L 420.529143 22.318125 
" style="fill: none; stroke: #000000; stroke-width: 0.8; stroke-linejoin: miter; stroke-linecap: square"/>
   </g>
   <g id="text_15">
    <!-- ROC Curves -->
    <g transform="translate(196.338946 16.318125) scale(0.12 -0.12)">
     <defs>
      <path id="DejaVuSans-52" d="M 2841 2188 
Q 3044 2119 3236 1894 
Q 3428 1669 3622 1275 
L 4263 0 
L 3584 0 
L 2988 1197 
Q 2756 1666 2539 1819 
Q 2322 1972 1947 1972 
L 1259 1972 
L 1259 0 
L 628 0 
L 628 4666 
L 2053 4666 
Q 2853 4666 3247 4331 
Q 3641 3997 3641 3322 
Q 3641 2881 3436 2590 
Q 3231 2300 2841 2188 
z
M 1259 4147 
L 1259 2491 
L 2053 2491 
Q 2509 2491 2742 2702 
Q 2975 2913 2975 3322 
Q 2975 3731 2742 3939 
Q 2509 4147 2053 4147 
L 1259 4147 
z
" transform="scale(0.015625)"/>
      <path id="DejaVuSans-4f" d="M 2522 4238 
Q 1834 4238 1429 3725 
Q 1025 3213 1025 2328 
Q 1025 1447 1429 934 
Q 1834 422 2522 422 
Q 3209 422 3611 934 
Q 4013 1447 4013 2328 
Q 4013 3213 3611 3725 
Q 3209 4238 2522 4238 
z
M 2522 4750 
Q 3503 4750 4090 4092 
Q 4678 3434 4678 2328 
Q 4678 1225 4090 567 
Q 3503 -91 2522 -91 
Q 1538 -91 948 565 
Q 359 1222 359 2328 
Q 359 3434 948 4092 
Q 1538 4750 2522 4750 
z
" transform="scale(0.015625)"/>
      <path id="DejaVuSans-43" d="M 4122 4306 
L 4122 3641 
Q 3803 3938 3442 4084 
Q 3081 4231 2675 4231 
Q 1875 4231 1450 3742 
Q 1025 3253 1025 2328 
Q 1025 1406 1450 917 
Q 1875 428 2675 428 
Q 3081 428 3442 575 
Q 3803 722 4122 1019 
L 4122 359 
Q 3791 134 3420 21 
Q 3050 -91 2638 -91 
Q 1578 -91 968 557 
Q 359 1206 359 2328 
Q 359 3453 968 4101 
Q 1578 4750 2638 4750 
Q 3056 4750 3426 4639 
Q 3797 4528 4122 4306 
z
" transform="scale(0.015625)"/>
      <path id="DejaVuSans-20" transform="scale(0.015625)"/>
      <path id="DejaVuSans-75" d="M 544 1381 
L 544 3500 
L 1119 3500 
L 1119 1403 
Q 1119 906 1312 657 
Q 1506 409 1894 409 
Q 2359 409 2629 706 
Q 2900 1003 2900 1516 
L 2900 3500 
L 3475 3500 
L 3475 0 
L 2900 0 
L 2900 538 
Q 2691 219 2414 64 
Q 2138 -91 1772 -91 
Q 1169 -91 856 284 
Q 544 659 544 1381 
z
M 1991 3584 
L 1991 3584 
z
" transform="scale(0.015625)"/>
      <path id="DejaVuSans-72" d="M 2631 2963 
Q 2534 3019 2420 3045 
Q 2306 3072 2169 3072 
Q 1681 3072 1420 2755 
Q 1159 2438 1159 1844 
L 1159 0 
L 581 0 
L 581 3500 
L 1159 3500 
L 1159 2956 
Q 1341 3275 1631 3429 
Q 1922 3584 2338 3584 
Q 2397 3584 2469 3576 
Q 2541 3569 2628 3553 
L 2631 2963 
z
" transform="scale(0.015625)"/>
      <path id="DejaVuSans-76" d="M 191 3500 
L 800 3500 
L 1894 563 
L 2988 3500 
L 3597 3500 
L 2284 0 
L 1503 0 
L 191 3500 
z
" transform="scale(0.015625)"/>
      <path id="DejaVuSans-65" d="M 3597 1894 
L 3597 1613 
L 953 1613 
Q 991 1019 1311 708 
Q 1631 397 2203 397 
Q 2534 397 2845 478 
Q 3156 559 3463 722 
L 3463 178 
Q 3153 47 2828 -22 
Q 2503 -91 2169 -91 
Q 1331 -91 842 396 
Q 353 884 353 1716 
Q 353 2575 817 3079 
Q 1281 3584 2069 3584 
Q 2775 3584 3186 3129 
Q 3597 2675 3597 1894 
z
M 3022 2063 
Q 3016 2534 2758 2815 
Q 2500 3097 2075 3097 
Q 1594 3097 1305 2825 
Q 1016 2553 972 2059 
L 3022 2063 
z
" transform="scale(0.015625)"/>
      <path id="DejaVuSans-73" d="M 2834 3397 
L 2834 2853 
Q 2591 2978 2328 3040 
Q 2066 3103 1784 3103 
Q 1356 3103 1142 2972 
Q 928 2841 928 2578 
Q 928 2378 1081 2264 
Q 1234 2150 1697 2047 
L 1894 2003 
Q 2506 1872 2764 1633 
Q 3022 1394 3022 966 
Q 3022 478 2636 193 
Q 2250 -91 1575 -91 
Q 1294 -91 989 -36 
Q 684 19 347 128 
L 347 722 
Q 666 556 975 473 
Q 1284 391 1588 391 
Q 1994 391 2212 530 
Q 2431 669 2431 922 
Q 2431 1156 2273 1281 
Q 2116 1406 1581 1522 
L 1381 1569 
Q 847 1681 609 1914 
Q 372 2147 372 2553 
Q 372 3047 722 3315 
Q 1072 3584 1716 3584 
Q 2034 3584 2315 3537 
Q 2597 3491 2834 3397 
z
" transform="scale(0.015625)"/>
     </defs>
     <use xlink:href="#DejaVuSans-52"/>
     <use xlink:href="#DejaVuSans-4f" x="69.482422"/>
     <use xlink:href="#DejaVuSans-43" x="148.193359"/>
     <use xlink:href="#DejaVuSans-20" x="218.017578"/>
     <use xlink:href="#DejaVuSans-43" x="249.804688"/>
     <use xlink:href="#DejaVuSans-75" x="319.628906"/>
     <use xlink:href="#DejaVuSans-72" x="383.007812"/>
     <use xlink:href="#DejaVuSans-76" x="424.121094"/>
     <use xlink:href="#DejaVuSans-65" x="483.300781"/>
     <use xlink:href="#DejaVuSans-73" x="544.824219"/>
    </g>
   </g>
   <g id="legend_1">
    <g id="patch_7">
     <path d="M 322.829143 309.918125 
L 413.529143 309.918125 
Q 415.529143 309.918125 415.529143 307.918125 
L 415.529143 235.5275 
Q 415.529143 233.5275 413.529143 233.5275 
L 322.829143 233.5275 
Q 320.829143 233.5275 320.829143 235.5275 
L 320.829143 307.918125 
Q 320.829143 309.918125 322.829143 309.918125 
z
" style="fill: #ffffff; opacity: 0.8; stroke: #cccccc; stroke-linejoin: miter"/>
    </g>
    <g id="line2d_30">
     <path d="M 324.829143 241.625938 
L 334.829143 241.625938 
L 344.829143 241.625938 
" style="fill: none; stroke: #1f77b4; stroke-width: 1.5; stroke-linecap: square"/>
    </g>
    <g id="text_16">
     <!-- SNR=-20dB -->
     <g transform="translate(352.829143 245.125938) scale(0.1 -0.1)">
      <defs>
       <path id="DejaVuSans-53" d="M 3425 4513 
L 3425 3897 
Q 3066 4069 2747 4153 
Q 2428 4238 2131 4238 
Q 1616 4238 1336 4038 
Q 1056 3838 1056 3469 
Q 1056 3159 1242 3001 
Q 1428 2844 1947 2747 
L 2328 2669 
Q 3034 2534 3370 2195 
Q 3706 1856 3706 1288 
Q 3706 609 3251 259 
Q 2797 -91 1919 -91 
Q 1588 -91 1214 -16 
Q 841 59 441 206 
L 441 856 
Q 825 641 1194 531 
Q 1563 422 1919 422 
Q 2459 422 2753 634 
Q 3047 847 3047 1241 
Q 3047 1584 2836 1778 
Q 2625 1972 2144 2069 
L 1759 2144 
Q 1053 2284 737 2584 
Q 422 2884 422 3419 
Q 422 4038 858 4394 
Q 1294 4750 2059 4750 
Q 2388 4750 2728 4690 
Q 3069 4631 3425 4513 
z
" transform="scale(0.015625)"/>
       <path id="DejaVuSans-4e" d="M 628 4666 
L 1478 4666 
L 3547 763 
L 3547 4666 
L 4159 4666 
L 4159 0 
L 3309 0 
L 1241 3903 
L 1241 0 
L 628 0 
L 628 4666 
z
" transform="scale(0.015625)"/>
       <path id="DejaVuSans-3d" d="M 678 2906 
L 4684 2906 
L 4684 2381 
L 678 2381 
L 678 2906 
z
M 678 1631 
L 4684 1631 
L 4684 1100 
L 678 1100 
L 678 1631 
z
" transform="scale(0.015625)"/>
       <path id="DejaVuSans-2d" d="M 313 2009 
L 1997 2009 
L 1997 1497 
L 313 1497 
L 313 2009 
z
" transform="scale(0.015625)"/>
       <path id="DejaVuSans-42" d="M 1259 2228 
L 1259 519 
L 2272 519 
Q 2781 519 3026 730 
Q 3272 941 3272 1375 
Q 3272 1813 3026 2020 
Q 2781 2228 2272 2228 
L 1259 2228 
z
M 1259 4147 
L 1259 2741 
L 2194 2741 
Q 2656 2741 2882 2914 
Q 3109 3088 3109 3444 
Q 3109 3797 2882 3972 
Q 2656 4147 2194 4147 
L 1259 4147 
z
M 628 4666 
L 2241 4666 
Q 2963 4666 3353 4366 
Q 3744 4066 3744 3513 
Q 3744 3084 3544 2831 
Q 3344 2578 2956 2516 
Q 3422 2416 3680 2098 
Q 3938 1781 3938 1306 
Q 3938 681 3513 340 
Q 3088 0 2303 0 
L 628 0 
L 628 4666 
z
" transform="scale(0.015625)"/>
      </defs>
      <use xlink:href="#DejaVuSans-53"/>
      <use xlink:href="#DejaVuSans-4e" x="63.476562"/>
      <use xlink:href="#DejaVuSans-52" x="138.28125"/>
      <use xlink:href="#DejaVuSans-3d" x="207.763672"/>
      <use xlink:href="#DejaVuSans-2d" x="291.552734"/>
      <use xlink:href="#DejaVuSans-32" x="327.636719"/>
      <use xlink:href="#DejaVuSans-30" x="391.259766"/>
      <use xlink:href="#DejaVuSans-64" x="454.882812"/>
      <use xlink:href="#DejaVuSans-42" x="518.359375"/>
     </g>
    </g>
    <g id="line2d_31">
     <path d="M 324.829143 256.304062 
L 334.829143 256.304062 
L 344.829143 256.304062 
" style="fill: none; stroke: #ff7f0e; stroke-width: 1.5; stroke-linecap: square"/>
    </g>
    <g id="text_17">
     <!-- SNR=-15dB -->
     <g transform="translate(352.829143 259.804062) scale(0.1 -0.1)">
      <defs>
       <path id="DejaVuSans-35" d="M 691 4666 
L 3169 4666 
L 3169 4134 
L 1269 4134 
L 1269 2991 
Q 1406 3038 1543 3061 
Q 1681 3084 1819 3084 
Q 2600 3084 3056 2656 
Q 3513 2228 3513 1497 
Q 3513 744 3044 326 
Q 2575 -91 1722 -91 
Q 1428 -91 1123 -41 
Q 819 9 494 109 
L 494 744 
Q 775 591 1075 516 
Q 1375 441 1709 441 
Q 2250 441 2565 725 
Q 2881 1009 2881 1497 
Q 2881 1984 2565 2268 
Q 2250 2553 1709 2553 
Q 1456 2553 1204 2497 
Q 953 2441 691 2322 
L 691 4666 
z
" transform="scale(0.015625)"/>
      </defs>
      <use xlink:href="#DejaVuSans-53"/>
      <use xlink:href="#DejaVuSans-4e" x="63.476562"/>
      <use xlink:href="#DejaVuSans-52" x="138.28125"/>
      <use xlink:href="#DejaVuSans-3d" x="207.763672"/>
      <use xlink:href="#DejaVuSans-2d" x="291.552734"/>
      <use xlink:href="#DejaVuSans-31" x="327.636719"/>
      <use xlink:href="#DejaVuSans-35" x="391.259766"/>
      <use xlink:href="#DejaVuSans-64" x="454.882812"/>
      <use xlink:href="#DejaVuSans-42" x="518.359375"/>
     </g>
    </g>
    <g id="line2d_32">
     <path d="M 324.829143 270.982188 
L 334.829143 270.982188 
L 344.829143 270.982188 
" style="fill: none; stroke: #2ca02c; stroke-width: 1.5; stroke-linecap: square"/>
    </g>
    <g id="text_18">
     <!-- SNR=-10dB -->
     <g transform="translate(352.829143 274.482188) scale(0.1 -0.1)">
      <use xlink:href="#DejaVuSans-53"/>
      <use xlink:href="#DejaVuSans-4e" x="63.476562"/>
      <use xlink:href="#DejaVuSans-52" x="138.28125"/>
      <use xlink:href="#DejaVuSans-3d" x="207.763672"/>
      <use xlink:href="#DejaVuSans-2d" x="291.552734"/>
      <use xlink:href="#DejaVuSans-31" x="327.636719"/>
      <use xlink:href="#DejaVuSans-30" x="391.259766"/>
      <use xlink:href="#DejaVuSans-64" x="454.882812"/>
      <use xlink:href="#DejaVuSans-42" x="518.359375"/>
     </g>
    </g>
    <g id="line2d_33">
     <path d="M 324.829143 285.660313 
L 334.829143 285.660313 
L 344.829143 285.660313 
" style="fill: none; stroke: #d62728; stroke-width: 1.5; stroke-linecap: square"/>
    </g>
    <g id="text_19">
     <!-- SNR=-5dB -->
     <g transform="translate(352.829143 289.160313) scale(0.1 -0.1)">
      <use xlink:href="#DejaVuSans-53"/>
      <use xlink:href="#DejaVuSans-4e" x="63.476562"/>
      <use xlink:href="#DejaVuSans-52" x="138.28125"/>
      <use xlink:href="#DejaVuSans-3d" x="207.763672"/>
      <use xlink:href="#DejaVuSans-2d" x="291.552734"/>
      <use xlink:href="#DejaVuSans-35" x="327.636719"/>
      <use xlink:href="#DejaVuSans-64" x="391.259766"/>
      <use xlink:href="#DejaVuSans-42" x="454.736328"/>
     </g>
    </g>
    <g id="line2d_34">
     <path d="M 324.829143 300.338437 
L 334.829143 300.338437 
L 344.829143 300.338437 
" style="fill: none; stroke: #9467bd; stroke-width: 1.5; stroke-linecap: square"/>
    </g>
    <g id="text_20">
     <!-- SNR=0dB -->
     <g transform="translate(352.829143 303.838437) scale(0.1 -0.1)">
      <use xlink:href="#DejaVuSans-53"/>
      <use xlink:href="#DejaVuSans-4e" x="63.476562"/>
      <use xlink:href="#DejaVuSans-52" x="138.28125"/>
      <use xlink:href="#DejaVuSans-3d" x="207.763672"/>
      <use xlink:href="#DejaVuSans-30" x="291.552734"/>
      <use xlink:href="#DejaVuSans-64" x="355.175781"/>
      <use xlink:href="#DejaVuSans-42" x="418.652344"/>
     </g>
    </g>
   </g>
  </g>
  <g id="axes_2">
   <g id="patch_8">
    <path d="M 468.339143 314.918125 
L 845.087035 314.918125 
L 845.087035 22.318125 
L 468.339143 22.318125 
z
" style="fill: #ffffff"/>
   </g>
   <g id="matplotlib.axis_3">
    <g id="xtick_7">
     <g id="line2d_35">
      <path d="M 485.464047 314.918125 
L 485.464047 22.318125 
" clip-path="url(#p2ded197dc6)" style="fill: none; stroke: #b0b0b0; stroke-width: 0.8; stroke-linecap: square"/>
     </g>
     <g id="line2d_36">
      <g>
       <use xlink:href="#m830e62377f" x="485.464047" y="314.918125" style="stroke: #000000; stroke-width: 0.8"/>
      </g>
     </g>
     <g id="text_21">
      <!-- −10 -->
      <g transform="translate(474.911703 329.516563) scale(0.1 -0.1)">
       <defs>
        <path id="DejaVuSans-2212" d="M 678 2272 
L 4684 2272 
L 4684 1741 
L 678 1741 
L 678 2272 
z
" transform="scale(0.015625)"/>
       </defs>
       <use xlink:href="#DejaVuSans-2212"/>
       <use xlink:href="#DejaVuSans-31" x="83.789062"/>
       <use xlink:href="#DejaVuSans-30" x="147.412109"/>
      </g>
     </g>
    </g>
    <g id="xtick_8">
     <g id="line2d_37">
      <path d="M 556.817814 314.918125 
L 556.817814 22.318125 
" clip-path="url(#p2ded197dc6)" style="fill: none; stroke: #b0b0b0; stroke-width: 0.8; stroke-linecap: square"/>
     </g>
     <g id="line2d_38">
      <g>
       <use xlink:href="#m830e62377f" x="556.817814" y="314.918125" style="stroke: #000000; stroke-width: 0.8"/>
      </g>
     </g>
     <g id="text_22">
      <!-- −5 -->
      <g transform="translate(549.446721 329.516563) scale(0.1 -0.1)">
       <use xlink:href="#DejaVuSans-2212"/>
       <use xlink:href="#DejaVuSans-35" x="83.789062"/>
      </g>
     </g>
    </g>
    <g id="xtick_9">
     <g id="line2d_39">
      <path d="M 628.171582 314.918125 
L 628.171582 22.318125 
" clip-path="url(#p2ded197dc6)" style="fill: none; stroke: #b0b0b0; stroke-width: 0.8; stroke-linecap: square"/>
     </g>
     <g id="line2d_40">
      <g>
       <use xlink:href="#m830e62377f" x="628.171582" y="314.918125" style="stroke: #000000; stroke-width: 0.8"/>
      </g>
     </g>
     <g id="text_23">
      <!-- 0 -->
      <g transform="translate(624.990332 329.516563) scale(0.1 -0.1)">
       <use xlink:href="#DejaVuSans-30"/>
      </g>
     </g>
    </g>
    <g id="xtick_10">
     <g id="line2d_41">
      <path d="M 699.525349 314.918125 
L 699.525349 22.318125 
" clip-path="url(#p2ded197dc6)" style="fill: none; stroke: #b0b0b0; stroke-width: 0.8; stroke-linecap: square"/>
     </g>
     <g id="line2d_42">
      <g>
       <use xlink:href="#m830e62377f" x="699.525349" y="314.918125" style="stroke: #000000; stroke-width: 0.8"/>
      </g>
     </g>
     <g id="text_24">
      <!-- 5 -->
      <g transform="translate(696.344099 329.516563) scale(0.1 -0.1)">
       <use xlink:href="#DejaVuSans-35"/>
      </g>
     </g>
    </g>
    <g id="xtick_11">
     <g id="line2d_43">
      <path d="M 770.879117 314.918125 
L 770.879117 22.318125 
" clip-path="url(#p2ded197dc6)" style="fill: none; stroke: #b0b0b0; stroke-width: 0.8; stroke-linecap: square"/>
     </g>
     <g id="line2d_44">
      <g>
       <use xlink:href="#m830e62377f" x="770.879117" y="314.918125" style="stroke: #000000; stroke-width: 0.8"/>
      </g>
     </g>
     <g id="text_25">
      <!-- 10 -->
      <g transform="translate(764.516617 329.516563) scale(0.1 -0.1)">
       <use xlink:href="#DejaVuSans-31"/>
       <use xlink:href="#DejaVuSans-30" x="63.623047"/>
      </g>
     </g>
    </g>
    <g id="xtick_12">
     <g id="line2d_45">
      <path d="M 842.232884 314.918125 
L 842.232884 22.318125 
" clip-path="url(#p2ded197dc6)" style="fill: none; stroke: #b0b0b0; stroke-width: 0.8; stroke-linecap: square"/>
     </g>
     <g id="line2d_46">
      <g>
       <use xlink:href="#m830e62377f" x="842.232884" y="314.918125" style="stroke: #000000; stroke-width: 0.8"/>
      </g>
     </g>
     <g id="text_26">
      <!-- 15 -->
      <g transform="translate(835.870384 329.516563) scale(0.1 -0.1)">
       <use xlink:href="#DejaVuSans-31"/>
       <use xlink:href="#DejaVuSans-35" x="63.623047"/>
      </g>
     </g>
    </g>
    <g id="text_27">
     <!-- SNR (dB) -->
     <g transform="translate(634.228714 343.194687) scale(0.1 -0.1)">
      <defs>
       <path id="DejaVuSans-28" d="M 1984 4856 
Q 1566 4138 1362 3434 
Q 1159 2731 1159 2009 
Q 1159 1288 1364 580 
Q 1569 -128 1984 -844 
L 1484 -844 
Q 1016 -109 783 600 
Q 550 1309 550 2009 
Q 550 2706 781 3412 
Q 1013 4119 1484 4856 
L 1984 4856 
z
" transform="scale(0.015625)"/>
       <path id="DejaVuSans-29" d="M 513 4856 
L 1013 4856 
Q 1481 4119 1714 3412 
Q 1947 2706 1947 2009 
Q 1947 1309 1714 600 
Q 1481 -109 1013 -844 
L 513 -844 
Q 928 -128 1133 580 
Q 1338 1288 1338 2009 
Q 1338 2731 1133 3434 
Q 928 4138 513 4856 
z
" transform="scale(0.015625)"/>
      </defs>
      <use xlink:href="#DejaVuSans-53"/>
      <use xlink:href="#DejaVuSans-4e" x="63.476562"/>
      <use xlink:href="#DejaVuSans-52" x="138.28125"/>
      <use xlink:href="#DejaVuSans-20" x="207.763672"/>
      <use xlink:href="#DejaVuSans-28" x="239.550781"/>
      <use xlink:href="#DejaVuSans-64" x="278.564453"/>
      <use xlink:href="#DejaVuSans-42" x="342.041016"/>
      <use xlink:href="#DejaVuSans-29" x="410.644531"/>
     </g>
    </g>
   </g>
   <g id="matplotlib.axis_4">
    <g id="ytick_7">
     <g id="line2d_47">
      <path d="M 468.339143 299.900291 
L 845.087035 299.900291 
" clip-path="url(#p2ded197dc6)" style="fill: none; stroke: #b0b0b0; stroke-width: 0.8; stroke-linecap: square"/>
     </g>
     <g id="line2d_48">
      <g>
       <use xlink:href="#m0b1671a309" x="468.339143" y="299.900291" style="stroke: #000000; stroke-width: 0.8"/>
      </g>
     </g>
     <g id="text_28">
      <!-- 0.2 -->
      <g transform="translate(445.436018 303.69951) scale(0.1 -0.1)">
       <use xlink:href="#DejaVuSans-30"/>
       <use xlink:href="#DejaVuSans-2e" x="63.623047"/>
       <use xlink:href="#DejaVuSans-32" x="95.410156"/>
      </g>
     </g>
    </g>
    <g id="ytick_8">
     <g id="line2d_49">
      <path d="M 468.339143 266.86502 
L 845.087035 266.86502 
" clip-path="url(#p2ded197dc6)" style="fill: none; stroke: #b0b0b0; stroke-width: 0.8; stroke-linecap: square"/>
     </g>
     <g id="line2d_50">
      <g>
       <use xlink:href="#m0b1671a309" x="468.339143" y="266.86502" style="stroke: #000000; stroke-width: 0.8"/>
      </g>
     </g>
     <g id="text_29">
      <!-- 0.3 -->
      <g transform="translate(445.436018 270.664239) scale(0.1 -0.1)">
       <defs>
        <path id="DejaVuSans-33" d="M 2597 2516 
Q 3050 2419 3304 2112 
Q 3559 1806 3559 1356 
Q 3559 666 3084 287 
Q 2609 -91 1734 -91 
Q 1441 -91 1130 -33 
Q 819 25 488 141 
L 488 750 
Q 750 597 1062 519 
Q 1375 441 1716 441 
Q 2309 441 2620 675 
Q 2931 909 2931 1356 
Q 2931 1769 2642 2001 
Q 2353 2234 1838 2234 
L 1294 2234 
L 1294 2753 
L 1863 2753 
Q 2328 2753 2575 2939 
Q 2822 3125 2822 3475 
Q 2822 3834 2567 4026 
Q 2313 4219 1838 4219 
Q 1578 4219 1281 4162 
Q 984 4106 628 3988 
L 628 4550 
Q 988 4650 1302 4700 
Q 1616 4750 1894 4750 
Q 2613 4750 3031 4423 
Q 3450 4097 3450 3541 
Q 3450 3153 3228 2886 
Q 3006 2619 2597 2516 
z
" transform="scale(0.015625)"/>
       </defs>
       <use xlink:href="#DejaVuSans-30"/>
       <use xlink:href="#DejaVuSans-2e" x="63.623047"/>
       <use xlink:href="#DejaVuSans-33" x="95.410156"/>
      </g>
     </g>
    </g>
    <g id="ytick_9">
     <g id="line2d_51">
      <path d="M 468.339143 233.829749 
L 845.087035 233.829749 
" clip-path="url(#p2ded197dc6)" style="fill: none; stroke: #b0b0b0; stroke-width: 0.8; stroke-linecap: square"/>
     </g>
     <g id="line2d_52">
      <g>
       <use xlink:href="#m0b1671a309" x="468.339143" y="233.829749" style="stroke: #000000; stroke-width: 0.8"/>
      </g>
     </g>
     <g id="text_30">
      <!-- 0.4 -->
      <g transform="translate(445.436018 237.628968) scale(0.1 -0.1)">
       <use xlink:href="#DejaVuSans-30"/>
       <use xlink:href="#DejaVuSans-2e" x="63.623047"/>
       <use xlink:href="#DejaVuSans-34" x="95.410156"/>
      </g>
     </g>
    </g>
    <g id="ytick_10">
     <g id="line2d_53">
      <path d="M 468.339143 200.794479 
L 845.087035 200.794479 
" clip-path="url(#p2ded197dc6)" style="fill: none; stroke: #b0b0b0; stroke-width: 0.8; stroke-linecap: square"/>
     </g>
     <g id="line2d_54">
      <g>
       <use xlink:href="#m0b1671a309" x="468.339143" y="200.794479" style="stroke: #000000; stroke-width: 0.8"/>
      </g>
     </g>
     <g id="text_31">
      <!-- 0.5 -->
      <g transform="translate(445.436018 204.593697) scale(0.1 -0.1)">
       <use xlink:href="#DejaVuSans-30"/>
       <use xlink:href="#DejaVuSans-2e" x="63.623047"/>
       <use xlink:href="#DejaVuSans-35" x="95.410156"/>
      </g>
     </g>
    </g>
    <g id="ytick_11">
     <g id="line2d_55">
      <path d="M 468.339143 167.759208 
L 845.087035 167.759208 
" clip-path="url(#p2ded197dc6)" style="fill: none; stroke: #b0b0b0; stroke-width: 0.8; stroke-linecap: square"/>
     </g>
     <g id="line2d_56">
      <g>
       <use xlink:href="#m0b1671a309" x="468.339143" y="167.759208" style="stroke: #000000; stroke-width: 0.8"/>
      </g>
     </g>
     <g id="text_32">
      <!-- 0.6 -->
      <g transform="translate(445.436018 171.558427) scale(0.1 -0.1)">
       <use xlink:href="#DejaVuSans-30"/>
       <use xlink:href="#DejaVuSans-2e" x="63.623047"/>
       <use xlink:href="#DejaVuSans-36" x="95.410156"/>
      </g>
     </g>
    </g>
    <g id="ytick_12">
     <g id="line2d_57">
      <path d="M 468.339143 134.723937 
L 845.087035 134.723937 
" clip-path="url(#p2ded197dc6)" style="fill: none; stroke: #b0b0b0; stroke-width: 0.8; stroke-linecap: square"/>
     </g>
     <g id="line2d_58">
      <g>
       <use xlink:href="#m0b1671a309" x="468.339143" y="134.723937" style="stroke: #000000; stroke-width: 0.8"/>
      </g>
     </g>
     <g id="text_33">
      <!-- 0.7 -->
      <g transform="translate(445.436018 138.523156) scale(0.1 -0.1)">
       <defs>
        <path id="DejaVuSans-37" d="M 525 4666 
L 3525 4666 
L 3525 4397 
L 1831 0 
L 1172 0 
L 2766 4134 
L 525 4134 
L 525 4666 
z
" transform="scale(0.015625)"/>
       </defs>
       <use xlink:href="#DejaVuSans-30"/>
       <use xlink:href="#DejaVuSans-2e" x="63.623047"/>
       <use xlink:href="#DejaVuSans-37" x="95.410156"/>
      </g>
     </g>
    </g>
    <g id="ytick_13">
     <g id="line2d_59">
      <path d="M 468.339143 101.688666 
L 845.087035 101.688666 
" clip-path="url(#p2ded197dc6)" style="fill: none; stroke: #b0b0b0; stroke-width: 0.8; stroke-linecap: square"/>
     </g>
     <g id="line2d_60">
      <g>
       <use xlink:href="#m0b1671a309" x="468.339143" y="101.688666" style="stroke: #000000; stroke-width: 0.8"/>
      </g>
     </g>
     <g id="text_34">
      <!-- 0.8 -->
      <g transform="translate(445.436018 105.487885) scale(0.1 -0.1)">
       <use xlink:href="#DejaVuSans-30"/>
       <use xlink:href="#DejaVuSans-2e" x="63.623047"/>
       <use xlink:href="#DejaVuSans-38" x="95.410156"/>
      </g>
     </g>
    </g>
    <g id="ytick_14">
     <g id="line2d_61">
      <path d="M 468.339143 68.653396 
L 845.087035 68.653396 
" clip-path="url(#p2ded197dc6)" style="fill: none; stroke: #b0b0b0; stroke-width: 0.8; stroke-linecap: square"/>
     </g>
     <g id="line2d_62">
      <g>
       <use xlink:href="#m0b1671a309" x="468.339143" y="68.653396" style="stroke: #000000; stroke-width: 0.8"/>
      </g>
     </g>
     <g id="text_35">
      <!-- 0.9 -->
      <g transform="translate(445.436018 72.452614) scale(0.1 -0.1)">
       <defs>
        <path id="DejaVuSans-39" d="M 703 97 
L 703 672 
Q 941 559 1184 500 
Q 1428 441 1663 441 
Q 2288 441 2617 861 
Q 2947 1281 2994 2138 
Q 2813 1869 2534 1725 
Q 2256 1581 1919 1581 
Q 1219 1581 811 2004 
Q 403 2428 403 3163 
Q 403 3881 828 4315 
Q 1253 4750 1959 4750 
Q 2769 4750 3195 4129 
Q 3622 3509 3622 2328 
Q 3622 1225 3098 567 
Q 2575 -91 1691 -91 
Q 1453 -91 1209 -44 
Q 966 3 703 97 
z
M 1959 2075 
Q 2384 2075 2632 2365 
Q 2881 2656 2881 3163 
Q 2881 3666 2632 3958 
Q 2384 4250 1959 4250 
Q 1534 4250 1286 3958 
Q 1038 3666 1038 3163 
Q 1038 2656 1286 2365 
Q 1534 2075 1959 2075 
z
" transform="scale(0.015625)"/>
       </defs>
       <use xlink:href="#DejaVuSans-30"/>
       <use xlink:href="#DejaVuSans-2e" x="63.623047"/>
       <use xlink:href="#DejaVuSans-39" x="95.410156"/>
      </g>
     </g>
    </g>
    <g id="ytick_15">
     <g id="line2d_63">
      <path d="M 468.339143 35.618125 
L 845.087035 35.618125 
" clip-path="url(#p2ded197dc6)" style="fill: none; stroke: #b0b0b0; stroke-width: 0.8; stroke-linecap: square"/>
     </g>
     <g id="line2d_64">
      <g>
       <use xlink:href="#m0b1671a309" x="468.339143" y="35.618125" style="stroke: #000000; stroke-width: 0.8"/>
      </g>
     </g>
     <g id="text_36">
      <!-- 1.0 -->
      <g transform="translate(445.436018 39.417344) scale(0.1 -0.1)">
       <use xlink:href="#DejaVuSans-31"/>
       <use xlink:href="#DejaVuSans-2e" x="63.623047"/>
       <use xlink:href="#DejaVuSans-30" x="95.410156"/>
      </g>
     </g>
    </g>
    <g id="text_37">
     <!-- Pd -->
     <g transform="translate(439.35633 174.807187) rotate(-90) scale(0.1 -0.1)">
      <use xlink:href="#DejaVuSans-50"/>
      <use xlink:href="#DejaVuSans-64" x="60.302734"/>
     </g>
    </g>
   </g>
   <g id="line2d_65">
    <path d="M 485.464047 301.618125 
L 514.005554 261.942765 
L 542.547061 195.112412 
L 571.088568 112.755482 
L 599.630075 59.96512 
L 628.171582 36.245795 
L 656.713089 35.618125 
L 685.254596 35.618125 
L 713.796103 35.618125 
L 742.33761 35.618125 
L 770.879117 35.618125 
L 799.420624 35.618125 
L 827.962131 35.618125 
" clip-path="url(#p2ded197dc6)" style="fill: none; stroke: #1f77b4; stroke-width: 1.5; stroke-linecap: square"/>
    <defs>
     <path id="m2ab5ee852d" d="M 0 3 
C 0.795609 3 1.55874 2.683901 2.12132 2.12132 
C 2.683901 1.55874 3 0.795609 3 0 
C 3 -0.795609 2.683901 -1.55874 2.12132 -2.12132 
C 1.55874 -2.683901 0.795609 -3 0 -3 
C -0.795609 -3 -1.55874 -2.683901 -2.12132 -2.12132 
C -2.683901 -1.55874 -3 -0.795609 -3 0 
C -3 0.795609 -2.683901 1.55874 -2.12132 2.12132 
C -1.55874 2.683901 -0.795609 3 0 3 
z
" style="stroke: #1f77b4"/>
    </defs>
    <g clip-path="url(#p2ded197dc6)">
     <use xlink:href="#m2ab5ee852d" x="485.464047" y="301.618125" style="fill: #1f77b4; stroke: #1f77b4"/>
     <use xlink:href="#m2ab5ee852d" x="514.005554" y="261.942765" style="fill: #1f77b4; stroke: #1f77b4"/>
     <use xlink:href="#m2ab5ee852d" x="542.547061" y="195.112412" style="fill: #1f77b4; stroke: #1f77b4"/>
     <use xlink:href="#m2ab5ee852d" x="571.088568" y="112.755482" style="fill: #1f77b4; stroke: #1f77b4"/>
     <use xlink:href="#m2ab5ee852d" x="599.630075" y="59.96512" style="fill: #1f77b4; stroke: #1f77b4"/>
     <use xlink:href="#m2ab5ee852d" x="628.171582" y="36.245795" style="fill: #1f77b4; stroke: #1f77b4"/>
     <use xlink:href="#m2ab5ee852d" x="656.713089" y="35.618125" style="fill: #1f77b4; stroke: #1f77b4"/>
     <use xlink:href="#m2ab5ee852d" x="685.254596" y="35.618125" style="fill: #1f77b4; stroke: #1f77b4"/>
     <use xlink:href="#m2ab5ee852d" x="713.796103" y="35.618125" style="fill: #1f77b4; stroke: #1f77b4"/>
     <use xlink:href="#m2ab5ee852d" x="742.33761" y="35.618125" style="fill: #1f77b4; stroke: #1f77b4"/>
     <use xlink:href="#m2ab5ee852d" x="770.879117" y="35.618125" style="fill: #1f77b4; stroke: #1f77b4"/>
     <use xlink:href="#m2ab5ee852d" x="799.420624" y="35.618125" style="fill: #1f77b4; stroke: #1f77b4"/>
     <use xlink:href="#m2ab5ee852d" x="827.962131" y="35.618125" style="fill: #1f77b4; stroke: #1f77b4"/>
    </g>
   </g>
   <g id="patch_9">
    <path d="M 468.339143 314.918125 
L 468.339143 22.318125 
" style="fill: none; stroke: #000000; stroke-width: 0.8; stroke-linejoin: miter; stroke-linecap: square"/>
   </g>
   <g id="patch_10">
    <path d="M 845.087035 314.918125 
L 845.087035 22.318125 
" style="fill: none; stroke: #000000; stroke-width: 0.8; stroke-linejoin: miter; stroke-linecap: square"/>
   </g>
   <g id="patch_11">
    <path d="M 468.339143 314.918125 
L 845.087035 314.918125 
" style="fill: none; stroke: #000000; stroke-width: 0.8; stroke-linejoin: miter; stroke-linecap: square"/>
   </g>
   <g id="patch_12">
    <path d="M 468.339143 22.318125 
L 845.087035 22.318125 
" style="fill: none; stroke: #000000; stroke-width: 0.8; stroke-linejoin: miter; stroke-linecap: square"/>
   </g>
   <g id="text_38">
    <!-- Pd vs SNR (Pfa=0.01) -->
    <g transform="translate(591.945901 16.318125) scale(0.12 -0.12)">
     <use xlink:href="#DejaVuSans-50"/>
     <use xlink:href="#DejaVuSans-64" x="60.302734"/>
     <use xlink:href="#DejaVuSans-20" x="123.779297"/>
     <use xlink:href="#DejaVuSans-76" x="155.566406"/>
     <use xlink:href="#DejaVuSans-73" x="214.746094"/>
     <use xlink:href="#DejaVuSans-20" x="266.845703"/>
     <use xlink:href="#DejaVuSans-53" x="298.632812"/>
     <use xlink:href="#DejaVuSans-4e" x="362.109375"/>
     <use xlink:href="#DejaVuSans-52" x="436.914062"/>
     <use xlink:href="#DejaVuSans-20" x="506.396484"/>
     <use xlink:href="#DejaVuSans-28" x="538.183594"/>
     <use xlink:href="#DejaVuSans-50" x="577.197266"/>
     <use xlink:href="#DejaVuSans-66" x="637.5"/>
     <use xlink:href="#DejaVuSans-61" x="672.705078"/>
     <use xlink:href="#DejaVuSans-3d" x="733.984375"/>
     <use xlink:href="#DejaVuSans-30" x="817.773438"/>
     <use xlink:href="#DejaVuSans-2e" x="881.396484"/>
     <use xlink:href="#DejaVuSans-30" x="913.183594"/>
     <use xlink:href="#DejaVuSans-31" x="976.806641"/>
     <use xlink:href="#DejaVuSans-29" x="1040.429688"/>
    </g>
   </g>
  </g>
 </g>
 <defs>
  <clipPath id="p655cc63a5c">
   <rect x="43.78125" y="22.318125" width="376.747893" height="292.6"/>
  </clipPath>
  <clipPath id="p2ded197dc6">
   <rect x="468.339143" y="22.318125" width="376.747893" height="292.6"/>
  </clipPath>
 </defs>
</svg>
