<?xml version="1.0" encoding="utf-8" standalone="no"?>
<!DOCTYPE svg PUBLIC "-//W3C//DTD SVG 1.1//EN"
  "http://www.w3.org/Graphics/SVG/1.1/DTD/svg11.dtd">
<svg xmlns:xlink="http://www.w3.org/1999/xlink" width="497.38125pt" height="281.634375pt" viewBox="0 0 497.38125 281.634375" xmlns="http://www.w3.org/2000/svg" version="1.1">
 <metadata>
  <rdf:RDF xmlns:dc="http://purl.org/dc/elements/1.1/" xmlns:cc="http://creativecommons.org/ns#" xmlns:rdf="http://www.w3.org/1999/02/22-rdf-syntax-ns#">
   <cc:Work>
    <dc:type rdf:resource="http://purl.org/dc/dcmitype/StillImage"/>
    <dc:date>2026-03-21T02:47:59.745089</dc:date>
    <dc:format>image/svg+xml</dc:format>
    <dc:creator>
     <cc:Agent>
      <dc:title>Matplotlib v3.10.3, https://matplotlib.org/</dc:title>
     </cc:Agent>
    </dc:creator>
   </cc:Work>
  </rdf:RDF>
 </metadata>
 <defs>
  <style type="text/css">*{stroke-linejoin: round; stroke-linecap: butt}</style>
 </defs>
 <g id="figure_1">
  <g id="patch_1">
   <path d="M 0 281.634375 
L 497.38125 281.634375 
L 497.38125 0 
L 0 0 
z
" style="fill: #ffffff"/>
  </g>
  <g id="axes_1">
   <g id="patch_2">
    <path d="M 43.78125 244.078125 
L 490.18125 244.078125 
L 490.18125 22.318125 
L 43.78125 22.318125 
z
" style="fill: #ffffff"/>
   </g>
   <g id="matplotlib.axis_1">
    <g id="xtick_1">
     <g id="line2d_1">
      <path d="M 64.072159 244.078125 
L 64.072159 22.318125 
" clip-path="url(#pa65cbd7b16)" style="fill: none; stroke: #b0b0b0; stroke-opacity: 0.3; stroke-width: 0.8; stroke-linecap: square"/>
     </g>
     <g id="line2d_2">
      <defs>
       <path id="m16b3e6d683" d="M 0 0 
L 0 3.5 
" style="stroke: #000000; stroke-width: 0.8"/>
      </defs>
      <g>
       <use xlink:href="#m16b3e6d683" x="64.072159" y="244.078125" style="stroke: #000000; stroke-width: 0.8"/>
      </g>
     </g>
     <g id="text_1">
      <!-- 0 -->
      <g transform="translate(60.890909 258.676562) scale(0.1 -0.1)">
       <defs>
        <path id="DejaVuSans-30" d="M 2034 4250 
Q 1547 4250 1301 3770 
Q 1056 3291 1056 2328 
Q 1056 1369 1301 889 
Q 1547 409 2034 409 
Q 2525 409 2770 889 
Q 3016 1369 3016 2328 
Q 3016 3291 2770 3770 
Q 2525 4250 2034 4250 
z
M 2034 4750 
Q 2819 4750 3233 4129 
Q 3647 3509 3647 2328 
Q 3647 1150 3233 529 
Q 2819 -91 2034 -91 
Q 1250 -91 836 529 
Q 422 1150 422 2328 
Q 422 3509 836 4129 
Q 1250 4750 2034 4750 
z
" transform="scale(0.015625)"/>
       </defs>
       <use xlink:href="#DejaVuSans-30"/>
      </g>
     </g>
    </g>
    <g id="xtick_2">
     <g id="line2d_3">
      <path d="M 143.430842 244.078125 
L 143.430842 22.318125 
" clip-path="url(#pa65cbd7b16)" style="fill: none; stroke: #b0b0b0; stroke-opacity: 0.3; stroke-width: 0.8; stroke-linecap: square"/>
     </g>
     <g id="line2d_4">
      <g>
       <use xlink:href="#m16b3e6d683" x="143.430842" y="244.078125" style="stroke: #000000; stroke-width: 0.8"/>
      </g>
     </g>
     <g id="text_2">
      <!-- 200 -->
      <g transform="translate(133.887092 258.676562) scale(0.1 -0.1)">
       <defs>
        <path id="DejaVuSans-32" d="M 1228 531 
L 3431 531 
L 3431 0 
L 469 0 
L 469 531 
Q 828 903 1448 1529 
Q 2069 2156 2228 2338 
Q 2531 2678 2651 2914 
Q 2772 3150 2772 3378 
Q 2772 3750 2511 3984 
Q 2250 4219 1831 4219 
Q 1534 4219 1204 4116 
Q 875 4013 500 3803 
L 500 4441 
Q 881 4594 1212 4672 
Q 1544 4750 1819 4750 
Q 2544 4750 2975 4387 
Q 3406 4025 3406 3419 
Q 3406 3131 3298 2873 
Q 3191 2616 2906 2266 
Q 2828 2175 2409 1742 
Q 1991 1309 1228 531 
z
" transform="scale(0.015625)"/>
       </defs>
       <use xlink:href="#DejaVuSans-32"/>
       <use xlink:href="#DejaVuSans-30" transform="translate(63.623047 0)"/>
       <use xlink:href="#DejaVuSans-30" transform="translate(127.246094 0)"/>
      </g>
     </g>
    </g>
    <g id="xtick_3">
     <g id="line2d_5">
      <path d="M 222.789524 244.078125 
L 222.789524 22.318125 
" clip-path="url(#pa65cbd7b16)" style="fill: none; stroke: #b0b0b0; stroke-opacity: 0.3; stroke-width: 0.8; stroke-linecap: square"/>
     </g>
     <g id="line2d_6">
      <g>
       <use xlink:href="#m16b3e6d683" x="222.789524" y="244.078125" style="stroke: #000000; stroke-width: 0.8"/>
      </g>
     </g>
     <g id="text_3">
      <!-- 400 -->
      <g transform="translate(213.245774 258.676562) scale(0.1 -0.1)">
       <defs>
        <path id="DejaVuSans-34" d="M 2419 4116 
L 825 1625 
L 2419 1625 
L 2419 4116 
z
M 2253 4666 
L 3047 4666 
L 3047 1625 
L 3713 1625 
L 3713 1100 
L 3047 1100 
L 3047 0 
L 2419 0 
L 2419 1100 
L 313 1100 
L 313 1709 
L 2253 4666 
z
" transform="scale(0.015625)"/>
       </defs>
       <use xlink:href="#DejaVuSans-34"/>
       <use xlink:href="#DejaVuSans-30" transform="translate(63.623047 0)"/>
       <use xlink:href="#DejaVuSans-30" transform="translate(127.246094 0)"/>
      </g>
     </g>
    </g>
    <g id="xtick_4">
     <g id="line2d_7">
      <path d="M 302.148207 244.078125 
L 302.148207 22.318125 
" clip-path="url(#pa65cbd7b16)" style="fill: none; stroke: #b0b0b0; stroke-opacity: 0.3; stroke-width: 0.8; stroke-linecap: square"/>
     </g>
     <g id="line2d_8">
      <g>
       <use xlink:href="#m16b3e6d683" x="302.148207" y="244.078125" style="stroke: #000000; stroke-width: 0.8"/>
      </g>
     </g>
     <g id="text_4">
      <!-- 600 -->
      <g transform="translate(292.604457 258.676562) scale(0.1 -0.1)">
       <defs>
        <path id="DejaVuSans-36" d="M 2113 2584 
Q 1688 2584 1439 2293 
Q 1191 2003 1191 1497 
Q 1191 994 1439 701 
Q 1688 409 2113 409 
Q 2538 409 2786 701 
Q 3034 994 3034 1497 
Q 3034 2003 2786 2293 
Q 2538 2584 2113 2584 
z
M 3366 4563 
L 3366 3988 
Q 3128 4100 2886 4159 
Q 2644 4219 2406 4219 
Q 1781 4219 1451 3797 
Q 1122 3375 1075 2522 
Q 1259 2794 1537 2939 
Q 1816 3084 2150 3084 
Q 2853 3084 3261 2657 
Q 3669 2231 3669 1497 
Q 3669 778 3244 343 
Q 2819 -91 2113 -91 
Q 1303 -91 875 529 
Q 447 1150 447 2328 
Q 447 3434 972 4092 
Q 1497 4750 2381 4750 
Q 2619 4750 2861 4703 
Q 3103 4656 3366 4563 
z
" transform="scale(0.015625)"/>
       </defs>
       <use xlink:href="#DejaVuSans-36"/>
       <use xlink:href="#DejaVuSans-30" transform="translate(63.623047 0)"/>
       <use xlink:href="#DejaVuSans-30" transform="translate(127.246094 0)"/>
      </g>
     </g>
    </g>
    <g id="xtick_5">
     <g id="line2d_9">
      <path d="M 381.50689 244.078125 
L 381.50689 22.318125 
" clip-path="url(#pa65cbd7b16)" style="fill: none; stroke: #b0b0b0; stroke-opacity: 0.3; stroke-width: 0.8; stroke-linecap: square"/>
     </g>
     <g id="line2d_10">
      <g>
       <use xlink:href="#m16b3e6d683" x="381.50689" y="244.078125" style="stroke: #000000; stroke-width: 0.8"/>
      </g>
     </g>
     <g id="text_5">
      <!-- 800 -->
      <g transform="translate(371.96314 258.676562) scale(0.1 -0.1)">
       <defs>
        <path id="DejaVuSans-38" d="M 2034 2216 
Q 1584 2216 1326 1975 
Q 1069 1734 1069 1313 
Q 1069 891 1326 650 
Q 1584 409 2034 409 
Q 2484 409 2743 651 
Q 3003 894 3003 1313 
Q 3003 1734 2745 1975 
Q 2488 2216 2034 2216 
z
M 1403 2484 
Q 997 2584 770 2862 
Q 544 3141 544 3541 
Q 544 4100 942 4425 
Q 1341 4750 2034 4750 
Q 2731 4750 3128 4425 
Q 3525 4100 3525 3541 
Q 3525 3141 3298 2862 
Q 3072 2584 2669 2484 
Q 3125 2378 3379 2068 
Q 3634 1759 3634 1313 
Q 3634 634 3220 271 
Q 2806 -91 2034 -91 
Q 1263 -91 848 271 
Q 434 634 434 1313 
Q 434 1759 690 2068 
Q 947 2378 1403 2484 
z
M 1172 3481 
Q 1172 3119 1398 2916 
Q 1625 2713 2034 2713 
Q 2441 2713 2670 2916 
Q 2900 3119 2900 3481 
Q 2900 3844 2670 4047 
Q 2441 4250 2034 4250 
Q 1625 4250 1398 4047 
Q 1172 3844 1172 3481 
z
" transform="scale(0.015625)"/>
       </defs>
       <use xlink:href="#DejaVuSans-38"/>
       <use xlink:href="#DejaVuSans-30" transform="translate(63.623047 0)"/>
       <use xlink:href="#DejaVuSans-30" transform="translate(127.246094 0)"/>
      </g>
     </g>
    </g>
    <g id="xtick_6">
     <g id="line2d_11">
      <path d="M 460.865572 244.078125 
L 460.865572 22.318125 
" clip-path="url(#pa65cbd7b16)" style="fill: none; stroke: #b0b0b0; stroke-opacity: 0.3; stroke-width: 0.8; stroke-linecap: square"/>
     </g>
     <g id="line2d_12">
      <g>
       <use xlink:href="#m16b3e6d683" x="460.865572" y="244.078125" style="stroke: #000000; stroke-width: 0.8"/>
      </g>
     </g>
     <g id="text_6">
      <!-- 1000 -->
      <g transform="translate(448.140572 258.676562) scale(0.1 -0.1)">
       <defs>
        <path id="DejaVuSans-31" d="M 794 531 
L 1825 531 
L 1825 4091 
L 703 3866 
L 703 4441 
L 1819 4666 
L 2450 4666 
L 2450 531 
L 3481 531 
L 3481 0 
L 794 0 
L 794 531 
z
" transform="scale(0.015625)"/>
       </defs>
       <use xlink:href="#DejaVuSans-31"/>
       <use xlink:href="#DejaVuSans-30" transform="translate(63.623047 0)"/>
       <use xlink:href="#DejaVuSans-30" transform="translate(127.246094 0)"/>
       <use xlink:href="#DejaVuSans-30" transform="translate(190.869141 0)"/>
      </g>
     </g>
    </g>
    <g id="text_7">
     <!-- Code Phase (chips) -->
     <g transform="translate(219.085156 272.354687) scale(0.1 -0.1)">
      <defs>
       <path id="DejaVuSans-43" d="M 4122 4306 
L 4122 3641 
Q 3803 3938 3442 4084 
Q 3081 4231 2675 4231 
Q 1875 4231 1450 3742 
Q 1025 3253 1025 2328 
Q 1025 1406 1450 917 
Q 1875 428 2675 428 
Q 3081 428 3442 575 
Q 3803 722 4122 1019 
L 4122 359 
Q 3791 134 3420 21 
Q 3050 -91 2638 -91 
Q 1578 -91 968 557 
Q 359 1206 359 2328 
Q 359 3453 968 4101 
Q 1578 4750 2638 4750 
Q 3056 4750 3426 4639 
Q 3797 4528 4122 4306 
z
" transform="scale(0.015625)"/>
       <path id="DejaVuSans-6f" d="M 1959 3097 
Q 1497 3097 1228 2736 
Q 959 2375 959 1747 
Q 959 1119 1226 758 
Q 1494 397 1959 397 
Q 2419 397 2687 759 
Q 2956 1122 2956 1747 
Q 2956 2369 2687 2733 
Q 2419 3097 1959 3097 
z
M 1959 3584 
Q 2709 3584 3137 3096 
Q 3566 2609 3566 1747 
Q 3566 888 3137 398 
Q 2709 -91 1959 -91 
Q 1206 -91 779 398 
Q 353 888 353 1747 
Q 353 2609 779 3096 
Q 1206 3584 1959 3584 
z
" transform="scale(0.015625)"/>
       <path id="DejaVuSans-64" d="M 2906 2969 
L 2906 4863 
L 3481 4863 
L 3481 0 
L 2906 0 
L 2906 525 
Q 2725 213 2448 61 
Q 2172 -91 1784 -91 
Q 1150 -91 751 415 
Q 353 922 353 1747 
Q 353 2572 751 3078 
Q 1150 3584 1784 3584 
Q 2172 3584 2448 3432 
Q 2725 3281 2906 2969 
z
M 947 1747 
Q 947 1113 1208 752 
Q 1469 391 1925 391 
Q 2381 391 2643 752 
Q 2906 1113 2906 1747 
Q 2906 2381 2643 2742 
Q 2381 3103 1925 3103 
Q 1469 3103 1208 2742 
Q 947 2381 947 1747 
z
" transform="scale(0.015625)"/>
       <path id="DejaVuSans-65" d="M 3597 1894 
L 3597 1613 
L 953 1613 
Q 991 1019 1311 708 
Q 1631 397 2203 397 
Q 2534 397 2845 478 
Q 3156 559 3463 722 
L 3463 178 
Q 3153 47 2828 -22 
Q 2503 -91 2169 -91 
Q 1331 -91 842 396 
Q 353 884 353 1716 
Q 353 2575 817 3079 
Q 1281 3584 2069 3584 
Q 2775 3584 3186 3129 
Q 3597 2675 3597 1894 
z
M 3022 2063 
Q 3016 2534 2758 2815 
Q 2500 3097 2075 3097 
Q 1594 3097 1305 2825 
Q 1016 2553 972 2059 
L 3022 2063 
z
" transform="scale(0.015625)"/>
       <path id="DejaVuSans-20" transform="scale(0.015625)"/>
       <path id="DejaVuSans-50" d="M 1259 4147 
L 1259 2394 
L 2053 2394 
Q 2494 2394 2734 2622 
Q 2975 2850 2975 3272 
Q 2975 3691 2734 3919 
Q 2494 4147 2053 4147 
L 1259 4147 
z
M 628 4666 
L 2053 4666 
Q 2838 4666 3239 4311 
Q 3641 3956 3641 3272 
Q 3641 2581 3239 2228 
Q 2838 1875 2053 1875 
L 1259 1875 
L 1259 0 
L 628 0 
L 628 4666 
z
" transform="scale(0.015625)"/>
       <path id="DejaVuSans-68" d="M 3513 2113 
L 3513 0 
L 2938 0 
L 2938 2094 
Q 2938 2591 2744 2837 
Q 2550 3084 2163 3084 
Q 1697 3084 1428 2787 
Q 1159 2491 1159 1978 
L 1159 0 
L 581 0 
L 581 4863 
L 1159 4863 
L 1159 2956 
Q 1366 3272 1645 3428 
Q 1925 3584 2291 3584 
Q 2894 3584 3203 3211 
Q 3513 2838 3513 2113 
z
" transform="scale(0.015625)"/>
       <path id="DejaVuSans-61" d="M 2194 1759 
Q 1497 1759 1228 1600 
Q 959 1441 959 1056 
Q 959 750 1161 570 
Q 1363 391 1709 391 
Q 2188 391 2477 730 
Q 2766 1069 2766 1631 
L 2766 1759 
L 2194 1759 
z
M 3341 1997 
L 3341 0 
L 2766 0 
L 2766 531 
Q 2569 213 2275 61 
Q 1981 -91 1556 -91 
Q 1019 -91 701 211 
Q 384 513 384 1019 
Q 384 1609 779 1909 
Q 1175 2209 1959 2209 
L 2766 2209 
L 2766 2266 
Q 2766 2663 2505 2880 
Q 2244 3097 1772 3097 
Q 1472 3097 1187 3025 
Q 903 2953 641 2809 
L 641 3341 
Q 956 3463 1253 3523 
Q 1550 3584 1831 3584 
Q 2591 3584 2966 3190 
Q 3341 2797 3341 1997 
z
" transform="scale(0.015625)"/>
       <path id="DejaVuSans-73" d="M 2834 3397 
L 2834 2853 
Q 2591 2978 2328 3040 
Q 2066 3103 1784 3103 
Q 1356 3103 1142 2972 
Q 928 2841 928 2578 
Q 928 2378 1081 2264 
Q 1234 2150 1697 2047 
L 1894 2003 
Q 2506 1872 2764 1633 
Q 3022 1394 3022 966 
Q 3022 478 2636 193 
Q 2250 -91 1575 -91 
Q 1294 -91 989 -36 
Q 684 19 347 128 
L 347 722 
Q 666 556 975 473 
Q 1284 391 1588 391 
Q 1994 391 2212 530 
Q 2431 669 2431 922 
Q 2431 1156 2273 1281 
Q 2116 1406 1581 1522 
L 1381 1569 
Q 847 1681 609 1914 
Q 372 2147 372 2553 
Q 372 3047 722 3315 
Q 1072 3584 1716 3584 
Q 2034 3584 2315 3537 
Q 2597 3491 2834 3397 
z
" transform="scale(0.015625)"/>
       <path id="DejaVuSans-28" d="M 1984 4856 
Q 1566 4138 1362 3434 
Q 1159 2731 1159 2009 
Q 1159 1288 1364 580 
Q 1569 -128 1984 -844 
L 1484 -844 
Q 1016 -109 783 600 
Q 550 1309 550 2009 
Q 550 2706 781 3412 
Q 1013 4119 1484 4856 
L 1984 4856 
z
" transform="scale(0.015625)"/>
       <path id="DejaVuSans-63" d="M 3122 3366 
L 3122 2828 
Q 2878 2963 2633 3030 
Q 2388 3097 2138 3097 
Q 1578 3097 1268 2742 
Q 959 2388 959 1747 
Q 959 1106 1268 751 
Q 1578 397 2138 397 
Q 2388 397 2633 464 
Q 2878 531 3122 666 
L 3122 134 
Q 2881 22 2623 -34 
Q 2366 -91 2075 -91 
Q 1284 -91 818 406 
Q 353 903 353 1747 
Q 353 2603 823 3093 
Q 1294 3584 2113 3584 
Q 2378 3584 2631 3529 
Q 2884 3475 3122 3366 
z
" transform="scale(0.015625)"/>
       <path id="DejaVuSans-69" d="M 603 3500 
L 1178 3500 
L 1178 0 
L 603 0 
L 603 3500 
z
M 603 4863 
L 1178 4863 
L 1178 4134 
L 603 4134 
L 603 4863 
z
" transform="scale(0.015625)"/>
       <path id="DejaVuSans-70" d="M 1159 525 
L 1159 -1331 
L 581 -1331 
L 581 3500 
L 1159 3500 
L 1159 2969 
Q 1341 3281 1617 3432 
Q 1894 3584 2278 3584 
Q 2916 3584 3314 3078 
Q 3713 2572 3713 1747 
Q 3713 922 3314 415 
Q 2916 -91 2278 -91 
Q 1894 -91 1617 61 
Q 1341 213 1159 525 
z
M 3116 1747 
Q 3116 2381 2855 2742 
Q 2594 3103 2138 3103 
Q 1681 3103 1420 2742 
Q 1159 2381 1159 1747 
Q 1159 1113 1420 752 
Q 1681 391 2138 391 
Q 2594 391 2855 752 
Q 3116 1113 3116 1747 
z
" transform="scale(0.015625)"/>
       <path id="DejaVuSans-29" d="M 513 4856 
L 1013 4856 
Q 1481 4119 1714 3412 
Q 1947 2706 1947 2009 
Q 1947 1309 1714 600 
Q 1481 -109 1013 -844 
L 513 -844 
Q 928 -128 1133 580 
Q 1338 1288 1338 2009 
Q 1338 2731 1133 3434 
Q 928 4138 513 4856 
z
" transform="scale(0.015625)"/>
      </defs>
      <use xlink:href="#DejaVuSans-43"/>
      <use xlink:href="#DejaVuSans-6f" transform="translate(69.824219 0)"/>
      <use xlink:href="#DejaVuSans-64" transform="translate(131.005859 0)"/>
      <use xlink:href="#DejaVuSans-65" transform="translate(194.482422 0)"/>
      <use xlink:href="#DejaVuSans-20" transform="translate(256.005859 0)"/>
      <use xlink:href="#DejaVuSans-50" transform="translate(287.792969 0)"/>
      <use xlink:href="#DejaVuSans-68" transform="translate(348.095703 0)"/>
      <use xlink:href="#DejaVuSans-61" transform="translate(411.474609 0)"/>
      <use xlink:href="#DejaVuSans-73" transform="translate(472.753906 0)"/>
      <use xlink:href="#DejaVuSans-65" transform="translate(524.853516 0)"/>
      <use xlink:href="#DejaVuSans-20" transform="translate(586.376953 0)"/>
      <use xlink:href="#DejaVuSans-28" transform="translate(618.164062 0)"/>
      <use xlink:href="#DejaVuSans-63" transform="translate(657.177734 0)"/>
      <use xlink:href="#DejaVuSans-68" transform="translate(712.158203 0)"/>
      <use xlink:href="#DejaVuSans-69" transform="translate(775.537109 0)"/>
      <use xlink:href="#DejaVuSans-70" transform="translate(803.320312 0)"/>
      <use xlink:href="#DejaVuSans-73" transform="translate(866.796875 0)"/>
      <use xlink:href="#DejaVuSans-29" transform="translate(918.896484 0)"/>
     </g>
    </g>
   </g>
   <g id="matplotlib.axis_2">
    <g id="ytick_1">
     <g id="line2d_13">
      <path d="M 43.78125 235.397451 
L 490.18125 235.397451 
" clip-path="url(#pa65cbd7b16)" style="fill: none; stroke: #b0b0b0; stroke-opacity: 0.3; stroke-width: 0.8; stroke-linecap: square"/>
     </g>
     <g id="line2d_14">
      <defs>
       <path id="m86255cb4f8" d="M 0 0 
L -3.5 0 
" style="stroke: #000000; stroke-width: 0.8"/>
      </defs>
      <g>
       <use xlink:href="#m86255cb4f8" x="43.78125" y="235.397451" style="stroke: #000000; stroke-width: 0.8"/>
      </g>
     </g>
     <g id="text_8">
      <!-- 0.0 -->
      <g transform="translate(20.878125 239.19667) scale(0.1 -0.1)">
       <defs>
        <path id="DejaVuSans-2e" d="M 684 794 
L 1344 794 
L 1344 0 
L 684 0 
L 684 794 
z
" transform="scale(0.015625)"/>
       </defs>
       <use xlink:href="#DejaVuSans-30"/>
       <use xlink:href="#DejaVuSans-2e" transform="translate(63.623047 0)"/>
       <use xlink:href="#DejaVuSans-30" transform="translate(95.410156 0)"/>
      </g>
     </g>
    </g>
    <g id="ytick_2">
     <g id="line2d_15">
      <path d="M 43.78125 201.46072 
L 490.18125 201.46072 
" clip-path="url(#pa65cbd7b16)" style="fill: none; stroke: #b0b0b0; stroke-opacity: 0.3; stroke-width: 0.8; stroke-linecap: square"/>
     </g>
     <g id="line2d_16">
      <g>
       <use xlink:href="#m86255cb4f8" x="43.78125" y="201.46072" style="stroke: #000000; stroke-width: 0.8"/>
      </g>
     </g>
     <g id="text_9">
      <!-- 0.5 -->
      <g transform="translate(20.878125 205.259938) scale(0.1 -0.1)">
       <defs>
        <path id="DejaVuSans-35" d="M 691 4666 
L 3169 4666 
L 3169 4134 
L 1269 4134 
L 1269 2991 
Q 1406 3038 1543 3061 
Q 1681 3084 1819 3084 
Q 2600 3084 3056 2656 
Q 3513 2228 3513 1497 
Q 3513 744 3044 326 
Q 2575 -91 1722 -91 
Q 1428 -91 1123 -41 
Q 819 9 494 109 
L 494 744 
Q 775 591 1075 516 
Q 1375 441 1709 441 
Q 2250 441 2565 725 
Q 2881 1009 2881 1497 
Q 2881 1984 2565 2268 
Q 2250 2553 1709 2553 
Q 1456 2553 1204 2497 
Q 953 2441 691 2322 
L 691 4666 
z
" transform="scale(0.015625)"/>
       </defs>
       <use xlink:href="#DejaVuSans-30"/>
       <use xlink:href="#DejaVuSans-2e" transform="translate(63.623047 0)"/>
       <use xlink:href="#DejaVuSans-35" transform="translate(95.410156 0)"/>
      </g>
     </g>
    </g>
    <g id="ytick_3">
     <g id="line2d_17">
      <path d="M 43.78125 167.523988 
L 490.18125 167.523988 
" clip-path="url(#pa65cbd7b16)" style="fill: none; stroke: #b0b0b0; stroke-opacity: 0.3; stroke-width: 0.8; stroke-linecap: square"/>
     </g>
     <g id="line2d_18">
      <g>
       <use xlink:href="#m86255cb4f8" x="43.78125" y="167.523988" style="stroke: #000000; stroke-width: 0.8"/>
      </g>
     </g>
     <g id="text_10">
      <!-- 1.0 -->
      <g transform="translate(20.878125 171.323207) scale(0.1 -0.1)">
       <use xlink:href="#DejaVuSans-31"/>
       <use xlink:href="#DejaVuSans-2e" transform="translate(63.623047 0)"/>
       <use xlink:href="#DejaVuSans-30" transform="translate(95.410156 0)"/>
      </g>
     </g>
    </g>
    <g id="ytick_4">
     <g id="line2d_19">
      <path d="M 43.78125 133.587256 
L 490.18125 133.587256 
" clip-path="url(#pa65cbd7b16)" style="fill: none; stroke: #b0b0b0; stroke-opacity: 0.3; stroke-width: 0.8; stroke-linecap: square"/>
     </g>
     <g id="line2d_20">
      <g>
       <use xlink:href="#m86255cb4f8" x="43.78125" y="133.587256" style="stroke: #000000; stroke-width: 0.8"/>
      </g>
     </g>
     <g id="text_11">
      <!-- 1.5 -->
      <g transform="translate(20.878125 137.386475) scale(0.1 -0.1)">
       <use xlink:href="#DejaVuSans-31"/>
       <use xlink:href="#DejaVuSans-2e" transform="translate(63.623047 0)"/>
       <use xlink:href="#DejaVuSans-35" transform="translate(95.410156 0)"/>
      </g>
     </g>
    </g>
    <g id="ytick_5">
     <g id="line2d_21">
      <path d="M 43.78125 99.650525 
L 490.18125 99.650525 
" clip-path="url(#pa65cbd7b16)" style="fill: none; stroke: #b0b0b0; stroke-opacity: 0.3; stroke-width: 0.8; stroke-linecap: square"/>
     </g>
     <g id="line2d_22">
      <g>
       <use xlink:href="#m86255cb4f8" x="43.78125" y="99.650525" style="stroke: #000000; stroke-width: 0.8"/>
      </g>
     </g>
     <g id="text_12">
      <!-- 2.0 -->
      <g transform="translate(20.878125 103.449744) scale(0.1 -0.1)">
       <use xlink:href="#DejaVuSans-32"/>
       <use xlink:href="#DejaVuSans-2e" transform="translate(63.623047 0)"/>
       <use xlink:href="#DejaVuSans-30" transform="translate(95.410156 0)"/>
      </g>
     </g>
    </g>
    <g id="ytick_6">
     <g id="line2d_23">
      <path d="M 43.78125 65.713793 
L 490.18125 65.713793 
" clip-path="url(#pa65cbd7b16)" style="fill: none; stroke: #b0b0b0; stroke-opacity: 0.3; stroke-width: 0.8; stroke-linecap: square"/>
     </g>
     <g id="line2d_24">
      <g>
       <use xlink:href="#m86255cb4f8" x="43.78125" y="65.713793" style="stroke: #000000; stroke-width: 0.8"/>
      </g>
     </g>
     <g id="text_13">
      <!-- 2.5 -->
      <g transform="translate(20.878125 69.513012) scale(0.1 -0.1)">
       <use xlink:href="#DejaVuSans-32"/>
       <use xlink:href="#DejaVuSans-2e" transform="translate(63.623047 0)"/>
       <use xlink:href="#DejaVuSans-35" transform="translate(95.410156 0)"/>
      </g>
     </g>
    </g>
    <g id="ytick_7">
     <g id="line2d_25">
      <path d="M 43.78125 31.777062 
L 490.18125 31.777062 
" clip-path="url(#pa65cbd7b16)" style="fill: none; stroke: #b0b0b0; stroke-opacity: 0.3; stroke-width: 0.8; stroke-linecap: square"/>
     </g>
     <g id="line2d_26">
      <g>
       <use xlink:href="#m86255cb4f8" x="43.78125" y="31.777062" style="stroke: #000000; stroke-width: 0.8"/>
      </g>
     </g>
     <g id="text_14">
      <!-- 3.0 -->
      <g transform="translate(20.878125 35.576281) scale(0.1 -0.1)">
       <defs>
        <path id="DejaVuSans-33" d="M 2597 2516 
Q 3050 2419 3304 2112 
Q 3559 1806 3559 1356 
Q 3559 666 3084 287 
Q 2609 -91 1734 -91 
Q 1441 -91 1130 -33 
Q 819 25 488 141 
L 488 750 
Q 750 597 1062 519 
Q 1375 441 1716 441 
Q 2309 441 2620 675 
Q 2931 909 2931 1356 
Q 2931 1769 2642 2001 
Q 2353 2234 1838 2234 
L 1294 2234 
L 1294 2753 
L 1863 2753 
Q 2328 2753 2575 2939 
Q 2822 3125 2822 3475 
Q 2822 3834 2567 4026 
Q 2313 4219 1838 4219 
Q 1578 4219 1281 4162 
Q 984 4106 628 3988 
L 628 4550 
Q 988 4650 1302 4700 
Q 1616 4750 1894 4750 
Q 2613 4750 3031 4423 
Q 3450 4097 3450 3541 
Q 3450 3153 3228 2886 
Q 3006 2619 2597 2516 
z
" transform="scale(0.015625)"/>
       </defs>
       <use xlink:href="#DejaVuSans-33"/>
       <use xlink:href="#DejaVuSans-2e" transform="translate(63.623047 0)"/>
       <use xlink:href="#DejaVuSans-30" transform="translate(95.410156 0)"/>
      </g>
     </g>
    </g>
    <g id="text_15">
     <!-- Correlation Power -->
     <g transform="translate(14.798438 177.47) rotate(-90) scale(0.1 -0.1)">
      <defs>
       <path id="DejaVuSans-72" d="M 2631 2963 
Q 2534 3019 2420 3045 
Q 2306 3072 2169 3072 
Q 1681 3072 1420 2755 
Q 1159 2438 1159 1844 
L 1159 0 
L 581 0 
L 581 3500 
L 1159 3500 
L 1159 2956 
Q 1341 3275 1631 3429 
Q 1922 3584 2338 3584 
Q 2397 3584 2469 3576 
Q 2541 3569 2628 3553 
L 2631 2963 
z
" transform="scale(0.015625)"/>
       <path id="DejaVuSans-6c" d="M 603 4863 
L 1178 4863 
L 1178 0 
L 603 0 
L 603 4863 
z
" transform="scale(0.015625)"/>
       <path id="DejaVuSans-74" d="M 1172 4494 
L 1172 3500 
L 2356 3500 
L 2356 3053 
L 1172 3053 
L 1172 1153 
Q 1172 725 1289 603 
Q 1406 481 1766 481 
L 2356 481 
L 2356 0 
L 1766 0 
Q 1100 0 847 248 
Q 594 497 594 1153 
L 594 3053 
L 172 3053 
L 172 3500 
L 594 3500 
L 594 4494 
L 1172 4494 
z
" transform="scale(0.015625)"/>
       <path id="DejaVuSans-6e" d="M 3513 2113 
L 3513 0 
L 2938 0 
L 2938 2094 
Q 2938 2591 2744 2837 
Q 2550 3084 2163 3084 
Q 1697 3084 1428 2787 
Q 1159 2491 1159 1978 
L 1159 0 
L 581 0 
L 581 3500 
L 1159 3500 
L 1159 2956 
Q 1366 3272 1645 3428 
Q 1925 3584 2291 3584 
Q 2894 3584 3203 3211 
Q 3513 2838 3513 2113 
z
" transform="scale(0.015625)"/>
       <path id="DejaVuSans-77" d="M 269 3500 
L 844 3500 
L 1563 769 
L 2278 3500 
L 2956 3500 
L 3675 769 
L 4391 3500 
L 4966 3500 
L 4050 0 
L 3372 0 
L 2619 2869 
L 1863 0 
L 1184 0 
L 269 3500 
z
" transform="scale(0.015625)"/>
      </defs>
      <use xlink:href="#DejaVuSans-43"/>
      <use xlink:href="#DejaVuSans-6f" transform="translate(69.824219 0)"/>
      <use xlink:href="#DejaVuSans-72" transform="translate(131.005859 0)"/>
      <use xlink:href="#DejaVuSans-72" transform="translate(170.369141 0)"/>
      <use xlink:href="#DejaVuSans-65" transform="translate(209.232422 0)"/>
      <use xlink:href="#DejaVuSans-6c" transform="translate(270.755859 0)"/>
      <use xlink:href="#DejaVuSans-61" transform="translate(298.539062 0)"/>
      <use xlink:href="#DejaVuSans-74" transform="translate(359.818359 0)"/>
      <use xlink:href="#DejaVuSans-69" transform="translate(399.027344 0)"/>
      <use xlink:href="#DejaVuSans-6f" transform="translate(426.810547 0)"/>
      <use xlink:href="#DejaVuSans-6e" transform="translate(487.992188 0)"/>
      <use xlink:href="#DejaVuSans-20" transform="translate(551.371094 0)"/>
      <use xlink:href="#DejaVuSans-50" transform="translate(583.158203 0)"/>
      <use xlink:href="#DejaVuSans-6f" transform="translate(639.835938 0)"/>
      <use xlink:href="#DejaVuSans-77" transform="translate(701.017578 0)"/>
      <use xlink:href="#DejaVuSans-65" transform="translate(782.804688 0)"/>
      <use xlink:href="#DejaVuSans-72" transform="translate(844.328125 0)"/>
     </g>
    </g>
    <g id="text_16">
     <!-- 1e12 -->
     <g transform="translate(43.78125 19.318125) scale(0.1 -0.1)">
      <use xlink:href="#DejaVuSans-31"/>
      <use xlink:href="#DejaVuSans-65" transform="translate(63.623047 0)"/>
      <use xlink:href="#DejaVuSans-31" transform="translate(125.146484 0)"/>
      <use xlink:href="#DejaVuSans-32" transform="translate(188.769531 0)"/>
     </g>
    </g>
   </g>
   <g id="line2d_27">
    <path d="M 64.072159 230.017091 
L 64.173639 230.629337 
L 64.376599 226.305797 
L 64.579559 229.300804 
L 64.782518 227.010384 
L 64.883998 227.612956 
L 65.086958 225.921845 
L 65.188438 226.505361 
L 65.391398 231.922175 
L 65.594358 225.997599 
L 65.695838 225.076496 
L 65.898798 228.251199 
L 66.101757 225.474535 
L 66.203237 225.369699 
L 66.406197 229.422539 
L 66.710637 232.1704 
L 66.812117 228.720861 
L 66.913597 229.765549 
L 67.116557 232.428048 
L 67.218036 232.29939 
L 67.319516 231.694783 
L 67.623956 227.489367 
L 67.928396 231.724709 
L 68.029876 231.430577 
L 68.232836 225.138557 
L 68.334316 225.423497 
L 68.537275 230.178631 
L 68.740235 228.429765 
L 68.841715 228.462374 
L 68.943195 226.363065 
L 69.247635 232.160681 
L 69.349115 231.858663 
L 69.450595 228.878732 
L 69.653554 231.059197 
L 69.755034 229.991018 
L 69.856514 227.547852 
L 70.160954 230.255027 
L 70.363914 229.624638 
L 70.566874 232.165286 
L 70.871313 225.639166 
L 70.972793 226.195569 
L 71.175753 231.369137 
L 71.277233 231.531514 
L 71.378713 231.320176 
L 71.480193 232.086261 
L 71.683153 228.865376 
L 71.784633 229.230171 
L 71.886113 229.097455 
L 71.987592 228.184451 
L 72.190552 224.736998 
L 72.292032 226.692795 
L 72.393512 226.501013 
L 72.596472 231.402979 
L 72.697952 231.211873 
L 72.900912 233.023767 
L 73.103872 229.530543 
L 73.306831 232.819554 
L 73.408311 229.378672 
L 73.509791 229.885122 
L 73.611271 232.91349 
L 73.814231 231.649687 
L 73.915711 229.102123 
L 74.118671 230.552255 
L 74.220151 231.581869 
L 74.321631 231.287219 
L 74.72755 227.746402 
L 74.82903 229.228603 
L 75.03199 225.286523 
L 75.13347 225.356987 
L 75.43791 228.70212 
L 75.53939 227.967277 
L 75.742349 229.96112 
L 75.843829 228.189512 
L 75.945309 228.738377 
L 76.046789 231.41478 
L 76.148269 231.009277 
L 76.249749 229.494557 
L 76.452709 231.513522 
L 76.655669 226.899727 
L 76.757149 226.932362 
L 76.858628 227.612721 
L 76.960108 227.138943 
L 77.366028 232.686472 
L 77.467508 232.219784 
L 77.568988 228.178985 
L 77.670468 229.307703 
L 77.771948 225.816602 
L 77.873428 226.379796 
L 77.974908 230.934669 
L 78.177867 229.028729 
L 78.279347 229.942981 
L 78.482307 232.480546 
L 78.583787 229.080313 
L 78.685267 229.729226 
L 78.888227 231.96696 
L 78.989707 231.401457 
L 79.091187 231.742915 
L 79.294146 229.555813 
L 79.395626 223.44173 
L 79.497106 224.188215 
L 79.903026 231.498089 
L 80.004506 231.485544 
L 80.207466 231.725548 
L 80.308946 231.245712 
L 80.511905 233.110655 
L 80.613385 232.397759 
L 80.816345 230.030983 
L 80.917825 229.405098 
L 81.019305 229.756223 
L 81.120785 228.959248 
L 81.323745 230.417197 
L 81.425225 230.419673 
L 81.526705 228.250344 
L 81.628184 228.711786 
L 81.831144 226.992841 
L 82.034104 230.900156 
L 82.135584 231.395929 
L 82.237064 232.849769 
L 82.541504 228.339174 
L 82.744464 232.035657 
L 82.845943 230.861156 
L 82.947423 228.340523 
L 83.048903 229.946991 
L 83.150383 233.45311 
L 83.251863 230.626954 
L 83.353343 221.091166 
L 83.454823 223.849163 
L 83.657783 232.22873 
L 83.860743 225.641356 
L 84.063702 230.941846 
L 84.165182 230.384232 
L 84.266662 229.607996 
L 84.469622 227.636757 
L 84.571102 226.881844 
L 84.672582 227.514538 
L 84.875542 231.148449 
L 84.977022 229.244877 
L 85.179982 230.659288 
L 85.281461 230.356105 
L 85.382941 229.611222 
L 85.585901 225.487118 
L 85.687381 226.27195 
L 85.788861 225.76926 
L 85.890341 229.438517 
L 85.991821 229.202433 
L 86.093301 230.883085 
L 86.194781 229.477577 
L 86.296261 229.539019 
L 86.6007 227.777867 
L 86.70218 228.213602 
L 87.00662 232.108321 
L 87.1081 232.033262 
L 87.20958 232.344019 
L 87.615499 227.389893 
L 87.716979 229.780469 
L 87.818459 229.77023 
L 87.919939 231.386945 
L 88.122899 229.75169 
L 88.224379 230.288722 
L 88.427339 231.917192 
L 88.528819 232.24205 
L 88.630299 233.863662 
L 88.934738 230.259556 
L 89.137698 229.608332 
L 89.239178 230.563793 
L 89.340658 230.104155 
L 89.442138 227.710491 
L 89.543618 228.930912 
L 89.645098 228.615606 
L 89.746578 231.678357 
L 89.848058 231.636478 
L 90.152497 225.947156 
L 90.253977 229.852433 
L 90.456937 225.226631 
L 90.558417 225.977556 
L 90.761377 230.65236 
L 91.167297 233.806572 
L 91.370256 230.463109 
L 91.573216 231.438666 
L 91.674696 229.985878 
L 91.877656 226.461893 
L 91.979136 227.674929 
L 92.080616 227.254929 
L 92.182096 227.422713 
L 92.283576 228.144626 
L 92.385055 225.656251 
L 92.486535 225.868204 
L 92.689495 230.641704 
L 92.892455 226.209396 
L 93.095415 230.761386 
L 93.196895 230.450884 
L 93.298375 230.274673 
L 93.399855 229.408142 
L 93.501335 230.276166 
L 93.602814 230.255713 
L 93.907254 225.83441 
L 94.110214 229.042384 
L 94.313174 227.36433 
L 94.414654 222.503235 
L 94.516134 223.743748 
L 94.719094 229.107333 
L 94.922053 222.543601 
L 95.023533 223.933677 
L 95.125013 227.852511 
L 95.226493 226.351967 
L 95.429453 229.811907 
L 95.733893 225.253893 
L 95.936853 228.745545 
L 96.038332 227.124293 
L 96.241292 230.526902 
L 96.342772 230.631475 
L 96.647212 229.203321 
L 96.850172 224.755878 
L 97.154612 231.917891 
L 97.256091 230.845989 
L 97.459051 229.452289 
L 97.560531 229.798206 
L 97.966451 227.922716 
L 98.169411 226.985848 
L 98.270891 227.298126 
L 98.372371 228.064624 
L 98.47385 227.497793 
L 98.57533 227.896014 
L 98.67681 226.931961 
L 98.98125 233.486912 
L 99.28569 227.313073 
L 99.590129 231.442046 
L 99.894569 227.850955 
L 99.996049 228.044593 
L 100.097529 230.806445 
L 100.199009 230.539954 
L 100.401969 228.983124 
L 100.604929 229.472127 
L 100.706409 230.303976 
L 100.807888 226.903604 
L 101.010848 228.667904 
L 101.112328 232.178388 
L 101.315288 229.131006 
L 101.518248 232.929951 
L 101.721208 230.300674 
L 101.822688 230.132821 
L 102.025647 227.245926 
L 102.127127 228.672136 
L 102.228607 232.621806 
L 102.330087 231.703071 
L 102.533047 227.691624 
L 102.837487 233.086031 
L 103.040447 229.250087 
L 103.243406 226.711885 
L 103.446366 230.71452 
L 103.649326 227.323306 
L 103.852286 230.989736 
L 104.156726 227.029389 
L 104.258206 227.841048 
L 104.461165 226.077503 
L 104.664125 228.568746 
L 104.867085 224.460803 
L 105.070045 228.901857 
L 105.171525 228.49008 
L 105.273005 230.733357 
L 105.374485 230.531628 
L 105.475965 230.383123 
L 105.577445 230.858794 
L 105.678924 230.171506 
L 105.780404 227.872054 
L 105.983364 230.770251 
L 106.084844 230.413425 
L 106.287804 228.338994 
L 106.592244 230.726673 
L 106.693724 233.155191 
L 106.795203 232.773514 
L 106.998163 228.208706 
L 107.099643 229.490607 
L 107.201123 228.935199 
L 107.302603 226.388839 
L 107.505563 232.283626 
L 107.607043 232.559339 
L 107.810003 230.840674 
L 107.911483 229.24041 
L 108.012962 229.728638 
L 108.215922 232.330576 
L 108.520362 229.936604 
L 108.621842 230.624855 
L 108.723322 230.175842 
L 108.926282 227.851569 
L 109.027762 227.971022 
L 109.129242 228.628378 
L 109.230721 228.141618 
L 109.535161 233.951666 
L 109.839601 228.331513 
L 109.941081 225.128385 
L 110.245521 231.606937 
L 110.65144 228.20135 
L 110.95588 231.597685 
L 111.15884 227.10757 
L 111.3618 231.217303 
L 111.46328 230.461513 
L 111.666239 227.828493 
L 111.767719 227.47271 
L 112.072159 230.555128 
L 112.376599 225.016712 
L 112.579559 228.785274 
L 112.681039 226.376441 
L 112.883998 231.694268 
L 113.086958 226.126922 
L 113.289918 231.115442 
L 113.594358 226.554198 
L 113.797318 231.064401 
L 113.898798 230.048892 
L 114.101757 232.896171 
L 114.304717 229.129193 
L 114.507677 230.880167 
L 114.710637 229.478461 
L 114.913597 226.006055 
L 115.015077 226.539317 
L 115.218036 225.183585 
L 115.319516 223.712774 
L 115.522476 228.592646 
L 115.725436 229.181583 
L 115.826916 228.786648 
L 116.029876 230.582881 
L 116.232836 225.629012 
L 116.537275 231.096492 
L 116.638755 230.83914 
L 116.740235 229.886443 
L 116.841715 230.092457 
L 116.943195 229.353938 
L 117.044675 229.990088 
L 117.146155 227.676775 
L 117.247635 229.360006 
L 117.552075 228.825332 
L 117.856514 229.876694 
L 117.957994 230.345745 
L 118.059474 231.50689 
L 118.262434 228.361053 
L 118.363914 227.761167 
L 118.566874 225.749756 
L 118.668354 226.48996 
L 118.769834 228.807286 
L 118.871313 226.893376 
L 118.972793 228.027833 
L 119.074273 227.05735 
L 119.175753 227.21451 
L 119.581673 230.289424 
L 119.784633 227.5244 
L 119.886113 227.459124 
L 119.987592 227.102048 
L 120.190552 228.554037 
L 120.292032 229.04078 
L 120.393512 230.431504 
L 120.596472 229.85149 
L 120.900912 228.934266 
L 121.002392 228.382699 
L 121.205351 231.298135 
L 121.408311 228.059269 
L 121.509791 227.999416 
L 121.611271 228.914073 
L 121.712751 227.104354 
L 121.814231 227.250978 
L 121.915711 228.075378 
L 122.118671 232.63158 
L 122.321631 230.915338 
L 122.42311 229.92323 
L 122.62607 227.538913 
L 122.93051 229.201111 
L 123.03199 226.379998 
L 123.23495 231.131439 
L 123.33643 231.503569 
L 123.53939 230.640542 
L 123.640869 230.711729 
L 123.945309 228.915613 
L 124.148269 229.31989 
L 124.351229 230.947829 
L 124.452709 229.927627 
L 124.554189 223.981528 
L 124.655669 224.344589 
L 124.960108 230.280393 
L 125.163068 226.64828 
L 125.264548 230.639607 
L 125.366028 230.41798 
L 125.467508 227.075871 
L 125.670468 231.992997 
L 125.873428 229.06325 
L 125.974908 229.630158 
L 126.177867 226.975606 
L 126.279347 229.005987 
L 126.380827 227.003379 
L 126.482307 229.737787 
L 126.583787 229.719984 
L 126.685267 231.419815 
L 126.989707 225.398047 
L 127.091187 225.769705 
L 127.294146 230.399849 
L 127.395626 229.647647 
L 127.497106 229.955338 
L 127.598586 229.178498 
L 127.700066 229.41452 
L 127.903026 228.354464 
L 128.004506 230.214318 
L 128.207466 227.895398 
L 128.410425 231.175415 
L 128.613385 227.674128 
L 128.816345 229.384467 
L 128.917825 228.061297 
L 129.019305 228.659085 
L 129.120785 228.581715 
L 129.222265 230.463525 
L 129.526705 228.318456 
L 129.628184 227.678657 
L 129.729664 224.401681 
L 129.932624 228.26368 
L 130.034104 227.997363 
L 130.135584 221.252549 
L 130.237064 223.044126 
L 130.440024 229.028637 
L 130.541504 229.158684 
L 130.642984 230.133614 
L 130.744464 228.611933 
L 130.845943 231.245255 
L 130.947423 231.113449 
L 131.048903 230.211509 
L 131.150383 228.276477 
L 131.251863 228.588196 
L 131.556303 232.845126 
L 131.657783 232.850234 
L 132.063702 225.233975 
L 132.165182 228.217152 
L 132.368142 225.564315 
L 132.469622 228.603384 
L 132.672582 225.861239 
L 132.774062 226.144755 
L 132.875542 228.270309 
L 132.977022 228.155128 
L 133.078502 228.934365 
L 133.179982 228.7657 
L 133.382941 229.65006 
L 133.484421 230.159754 
L 133.687381 228.695704 
L 133.788861 227.641691 
L 133.991821 229.534823 
L 134.093301 229.75405 
L 134.194781 227.889145 
L 134.296261 229.772863 
L 134.39774 228.629079 
L 134.49922 225.145847 
L 134.70218 228.943917 
L 134.80366 230.480608 
L 135.00662 228.535124 
L 135.20958 231.286077 
L 135.31106 231.201467 
L 135.41254 229.374878 
L 135.51402 230.040892 
L 135.716979 228.574307 
L 135.818459 228.804264 
L 135.919939 228.224841 
L 136.021419 228.816646 
L 136.122899 227.830679 
L 136.224379 229.132573 
L 136.325859 228.714416 
L 136.427339 225.989836 
L 136.833258 230.62687 
L 137.036218 223.809415 
L 137.239178 226.727653 
L 137.340658 225.887032 
L 137.645098 230.023627 
L 137.746578 230.360636 
L 138.051017 227.69091 
L 138.355457 228.536336 
L 138.456937 226.562877 
L 138.761377 231.311089 
L 138.964337 228.831173 
L 139.167297 229.426758 
L 139.268776 227.475283 
L 139.471736 228.197622 
L 139.573216 230.398314 
L 139.776176 224.609935 
L 140.182096 231.944939 
L 140.283576 231.251969 
L 140.486535 225.636584 
L 140.588015 225.672774 
L 140.790975 230.916406 
L 140.993935 224.417547 
L 141.196895 229.422345 
L 141.298375 229.098755 
L 141.399855 229.303783 
L 141.501335 229.250561 
L 141.602814 229.785417 
L 141.805774 228.783717 
L 142.008734 229.852805 
L 142.110214 229.496991 
L 142.211694 229.900729 
L 142.313174 231.485063 
L 142.516134 230.817424 
L 142.820573 225.327288 
L 143.023533 228.91167 
L 143.226493 233.117679 
L 143.632413 228.453547 
L 143.733893 230.178507 
L 143.835373 229.655135 
L 144.038332 225.767725 
L 144.241292 229.051945 
L 144.342772 227.838481 
L 144.444252 227.87693 
L 144.647212 230.629886 
L 144.850172 226.766954 
L 144.951652 227.443994 
L 145.256091 230.815429 
L 145.459051 231.094963 
L 145.662011 228.35809 
L 145.763491 229.47846 
L 145.864971 228.164235 
L 146.067931 230.049021 
L 146.169411 231.158903 
L 146.47385 230.480346 
L 146.57533 231.464433 
L 146.77829 227.881976 
L 146.98125 222.468965 
L 147.18421 228.421493 
L 147.590129 232.050701 
L 147.894569 226.339413 
L 147.996049 226.522485 
L 148.300489 232.772165 
L 148.503449 227.368966 
L 148.807888 230.372741 
L 148.909368 230.591898 
L 149.010848 232.275921 
L 149.213808 228.45368 
L 149.416768 231.8863 
L 149.619728 226.590979 
L 149.822688 229.663615 
L 150.025647 227.540351 
L 150.228607 230.361663 
L 150.330087 228.32389 
L 150.431567 231.868705 
L 150.533047 231.478931 
L 150.634527 231.733701 
L 150.837487 228.398169 
L 150.938967 228.0009 
L 151.040447 230.937916 
L 151.243406 227.551391 
L 151.344886 228.382836 
L 151.446366 230.348307 
L 151.649326 226.028671 
L 151.852286 232.044526 
L 151.953766 229.922846 
L 152.055246 231.196775 
L 152.258206 228.759516 
L 152.359686 229.632375 
L 152.562645 228.993058 
L 152.765605 227.059667 
L 153.070045 229.697923 
L 153.273005 225.713258 
L 153.475965 229.134328 
L 153.577445 228.264964 
L 153.678924 228.660549 
L 153.780404 231.089921 
L 153.881884 229.418684 
L 154.084844 223.655259 
L 154.186324 227.063939 
L 154.287804 226.866991 
L 154.490764 224.656274 
L 154.693724 229.735948 
L 154.795203 228.408226 
L 154.998163 228.775036 
L 155.201123 226.997404 
L 155.302603 226.89545 
L 155.404083 229.665634 
L 155.607043 224.630585 
L 155.708523 225.170079 
L 156.114442 231.265282 
L 156.215922 230.130996 
L 156.317402 227.708724 
L 156.520362 229.44228 
L 156.621842 230.398494 
L 156.723322 226.814513 
L 156.824802 227.337886 
L 156.926282 230.669315 
L 157.027762 230.443901 
L 157.230721 227.05783 
L 157.332201 227.00973 
L 157.433681 227.106834 
L 157.535161 225.847918 
L 157.636641 226.703253 
L 157.738121 225.570651 
L 157.839601 227.904054 
L 157.941081 227.260287 
L 158.245521 229.282808 
L 158.347001 231.508143 
L 158.44848 231.040313 
L 158.54996 229.907731 
L 158.65144 229.923201 
L 158.95588 227.114188 
L 159.05736 225.296202 
L 159.3618 228.636431 
L 159.56476 224.200032 
L 159.767719 228.79621 
L 159.869199 227.664905 
L 159.970679 228.508008 
L 160.275119 223.214988 
L 160.579559 232.828567 
L 160.681039 230.218867 
L 160.782518 231.012216 
L 160.883998 230.39596 
L 160.985478 231.678673 
L 161.086958 231.563344 
L 161.188438 231.968185 
L 161.289918 231.241373 
L 161.594358 227.746857 
L 161.695838 231.290447 
L 161.797318 231.078196 
L 161.898798 228.838038 
L 162.000277 231.515691 
L 162.304717 220.040247 
L 162.507677 229.365835 
L 162.609157 229.694648 
L 162.710637 229.231696 
L 162.812117 231.555975 
L 163.015077 227.747549 
L 163.116557 224.602991 
L 163.319516 229.194364 
L 163.420996 229.121397 
L 163.522476 229.312833 
L 163.623956 227.321421 
L 163.725436 230.084982 
L 163.928396 229.17341 
L 164.029876 229.605063 
L 164.232836 230.908125 
L 164.334316 227.229035 
L 164.435795 228.006362 
L 164.537275 227.466819 
L 164.638755 229.362029 
L 164.740235 229.291631 
L 164.841715 230.615786 
L 164.943195 228.149609 
L 165.044675 228.383141 
L 165.247635 230.47006 
L 165.450595 226.646234 
L 165.653554 230.426835 
L 165.755034 229.6721 
L 165.856514 225.26952 
L 165.957994 226.054859 
L 166.160954 232.098959 
L 166.363914 228.255264 
L 166.465394 230.794616 
L 166.668354 228.575827 
L 166.871313 232.184297 
L 167.074273 229.388427 
L 167.175753 230.152186 
L 167.277233 232.015497 
L 167.480193 228.695859 
L 167.581673 225.091907 
L 167.683153 225.244073 
L 167.784633 224.461793 
L 167.987592 229.056984 
L 168.190552 230.174498 
L 168.292032 229.622348 
L 168.697952 224.214896 
L 168.799432 225.97058 
L 168.900912 225.60611 
L 169.002392 222.04934 
L 169.103872 222.41745 
L 169.205351 227.009018 
L 169.306831 226.956719 
L 169.509791 225.508984 
L 169.712751 232.593538 
L 169.915711 223.075379 
L 170.220151 229.109891 
L 170.321631 228.914259 
L 170.52459 229.76052 
L 170.72755 226.42107 
L 170.82903 227.239458 
L 170.93051 230.203989 
L 171.13347 225.104791 
L 171.33643 228.503584 
L 171.43791 230.237489 
L 171.53939 227.883988 
L 171.640869 228.139317 
L 171.742349 227.503474 
L 171.843829 227.615708 
L 171.945309 226.729881 
L 172.148269 232.403294 
L 172.351229 228.058278 
L 172.452709 228.546753 
L 172.554189 229.74697 
L 172.757149 225.949526 
L 172.858628 228.720492 
L 172.960108 227.024903 
L 173.163068 229.234293 
L 173.264548 227.34787 
L 173.568988 230.745122 
L 173.873428 229.512635 
L 173.974908 228.27518 
L 174.177867 232.46156 
L 174.279347 230.852032 
L 174.380827 231.017182 
L 174.482307 232.090017 
L 174.583787 230.46315 
L 174.786747 223.470023 
L 175.192666 232.146122 
L 175.294146 231.541041 
L 175.395626 228.996291 
L 175.598586 233.206774 
L 175.903026 224.447694 
L 176.004506 224.97319 
L 176.105986 226.915497 
L 176.207466 226.465356 
L 176.410425 230.040421 
L 176.511905 227.756966 
L 176.613385 228.139512 
L 176.816345 232.848155 
L 177.019305 229.89216 
L 177.120785 230.023844 
L 177.222265 231.20162 
L 177.323745 230.603764 
L 177.425225 225.727135 
L 177.526705 225.892287 
L 177.729664 228.176522 
L 177.831144 226.936987 
L 177.932624 227.603063 
L 178.034104 229.937541 
L 178.135584 229.52629 
L 178.237064 229.695087 
L 178.440024 228.701195 
L 178.541504 229.61833 
L 178.642984 228.807196 
L 178.744464 230.910114 
L 178.845943 230.749706 
L 178.947423 227.928766 
L 179.048903 227.976374 
L 179.150383 228.264343 
L 179.251863 230.186862 
L 179.353343 229.557875 
L 179.454823 229.937535 
L 179.556303 229.781564 
L 179.657783 231.170787 
L 179.860743 229.603778 
L 180.063702 233.053828 
L 180.165182 231.788104 
L 180.266662 226.708219 
L 180.368142 227.891739 
L 180.469622 226.878133 
L 180.571102 227.741043 
L 180.672582 230.566249 
L 180.774062 230.547133 
L 180.875542 230.489392 
L 180.977022 229.400231 
L 181.078502 230.977338 
L 181.179982 230.943284 
L 181.382941 228.015407 
L 181.484421 228.22427 
L 181.585901 231.321804 
L 181.788861 227.635672 
L 181.890341 228.082705 
L 181.991821 229.1311 
L 182.093301 228.559979 
L 182.296261 233.030153 
L 182.39774 232.820467 
L 182.49922 231.020678 
L 182.70218 232.136755 
L 183.00662 229.011528 
L 183.20958 233.708835 
L 183.41254 229.354137 
L 183.51402 230.512669 
L 183.615499 230.195614 
L 183.818459 227.970219 
L 183.919939 228.607934 
L 184.021419 230.428691 
L 184.224379 229.903797 
L 184.325859 231.847562 
L 184.427339 231.350259 
L 184.528819 232.599251 
L 184.630299 232.183429 
L 184.833258 229.187886 
L 184.934738 227.285486 
L 185.239178 230.678656 
L 185.442138 227.740374 
L 185.543618 227.521288 
L 185.746578 228.2547 
L 185.848058 230.933759 
L 185.949538 230.759419 
L 186.152497 228.059243 
L 186.253977 229.5125 
L 186.355457 228.574316 
L 186.456937 228.702027 
L 186.659897 232.129173 
L 186.761377 232.250588 
L 187.065817 230.794413 
L 187.471736 233.596864 
L 187.573216 231.906644 
L 187.776176 227.237445 
L 187.877656 226.725582 
L 188.182096 229.88693 
L 188.283576 229.772981 
L 188.486535 225.993091 
L 188.588015 229.789008 
L 188.790975 226.502396 
L 188.892455 226.702319 
L 188.993935 229.163833 
L 189.095415 227.360449 
L 189.196895 227.589481 
L 189.501335 230.997838 
L 189.602814 231.524244 
L 189.805774 229.204411 
L 189.907254 229.331297 
L 190.110214 224.303079 
L 190.211694 223.427492 
L 190.313174 225.012022 
L 190.516134 230.468937 
L 190.617614 232.024805 
L 190.820573 228.69654 
L 191.023533 227.699567 
L 191.226493 232.347101 
L 191.429453 229.45942 
L 191.530933 229.694418 
L 191.733893 230.15547 
L 191.835373 229.093527 
L 192.038332 224.877784 
L 192.342772 228.749957 
L 192.444252 227.978672 
L 192.545732 225.706364 
L 192.647212 226.924551 
L 192.748692 230.438882 
L 192.951652 228.432749 
L 193.053132 230.998849 
L 193.154612 229.974842 
L 193.256091 225.886246 
L 193.560531 230.111878 
L 193.662011 229.109132 
L 193.763491 229.817023 
L 193.966451 231.951089 
L 194.169411 229.012337 
L 194.270891 230.246926 
L 194.372371 230.224185 
L 194.47385 228.748696 
L 194.67681 232.84781 
L 194.87977 228.616222 
L 194.98125 228.826309 
L 195.18421 231.763853 
L 195.28569 232.106765 
L 195.38717 231.991693 
L 195.48865 230.261945 
L 195.691609 226.032758 
L 195.894569 230.428898 
L 195.996049 230.255701 
L 196.097529 228.81132 
L 196.199009 229.442991 
L 196.300489 227.410509 
L 196.604929 231.506101 
L 196.706409 231.244027 
L 196.909368 228.943148 
L 197.010848 228.752318 
L 197.112328 226.002897 
L 197.315288 229.149263 
L 197.416768 229.357283 
L 197.619728 224.474829 
L 197.721208 225.880758 
L 197.822688 229.709501 
L 198.025647 225.561472 
L 198.127127 226.141328 
L 198.330087 225.258559 
L 198.634527 230.315705 
L 198.736007 229.994322 
L 198.938967 228.612291 
L 199.040447 230.054641 
L 199.141927 228.556492 
L 199.344886 229.554946 
L 199.446366 228.558509 
L 199.547846 229.437763 
L 199.750806 232.428259 
L 199.953766 228.533083 
L 200.156726 232.45807 
L 200.258206 231.623815 
L 200.461165 227.734409 
L 200.664125 231.957425 
L 200.765605 231.663046 
L 200.867085 228.521666 
L 201.070045 230.98919 
L 201.171525 230.299817 
L 201.374485 232.702377 
L 201.678924 228.804707 
L 201.780404 228.767481 
L 201.881884 230.140356 
L 201.983364 229.961315 
L 202.186324 231.396745 
L 202.389284 227.145928 
L 202.592244 225.414678 
L 202.795203 227.100193 
L 202.896683 230.670067 
L 203.099643 225.026891 
L 203.201123 225.654258 
L 203.404083 229.313194 
L 203.505563 228.416747 
L 203.607043 228.83877 
L 203.911483 233.198154 
L 204.215922 229.439883 
L 204.317402 232.56253 
L 204.418882 232.107371 
L 204.520362 230.297033 
L 204.621842 230.505813 
L 204.723322 231.525824 
L 205.027762 226.572498 
L 205.332201 231.532533 
L 205.433681 229.775093 
L 205.535161 224.063653 
L 205.839601 230.260733 
L 205.941081 227.941445 
L 206.144041 232.555565 
L 206.347001 226.929185 
L 206.44848 226.955951 
L 206.65144 229.498199 
L 206.75292 228.198195 
L 206.8544 228.285054 
L 206.95588 228.658964 
L 207.05736 226.961421 
L 207.26032 230.108619 
L 207.3618 228.677658 
L 207.46328 228.712429 
L 207.666239 232.103201 
L 207.767719 231.273731 
L 207.970679 227.854642 
L 208.072159 228.265864 
L 208.173639 229.752115 
L 208.275119 229.549506 
L 208.478079 227.248324 
L 208.681039 229.843587 
L 208.782518 229.664456 
L 208.883998 228.701311 
L 209.086958 223.80348 
L 209.391398 231.148577 
L 209.594358 227.402688 
L 209.797318 230.39072 
L 209.898798 228.522483 
L 210.000277 228.958248 
L 210.101757 230.471653 
L 210.203237 227.670786 
L 210.304717 229.624423 
L 210.710637 227.610212 
L 211.015077 231.143418 
L 211.116557 230.801777 
L 211.218036 230.939423 
L 211.319516 232.018655 
L 211.623956 225.727885 
L 211.725436 229.296842 
L 211.826916 228.794322 
L 211.928396 225.016548 
L 212.232836 228.910963 
L 212.334316 228.825916 
L 212.435795 230.731147 
L 212.537275 230.616328 
L 212.638755 231.235704 
L 212.841715 229.423569 
L 212.943195 230.678868 
L 213.146155 228.021635 
L 213.349115 231.859552 
L 213.552075 225.64865 
L 213.653554 227.381897 
L 213.755034 228.187562 
L 213.957994 226.733768 
L 214.059474 227.357813 
L 214.262434 229.69666 
L 214.363914 229.507824 
L 214.566874 230.006958 
L 214.668354 229.436333 
L 214.871313 230.822436 
L 214.972793 229.905508 
L 215.175753 223.079929 
L 215.480193 230.636332 
L 215.683153 226.105838 
L 215.987592 230.566933 
L 216.393512 225.408056 
L 216.494992 225.873289 
L 216.900912 232.187249 
L 217.002392 231.35504 
L 217.103872 230.547845 
L 217.306831 230.923657 
L 217.611271 227.067009 
L 217.814231 229.639929 
L 218.017191 229.883363 
L 218.118671 231.792871 
L 218.321631 228.257568 
L 218.52459 229.584502 
L 218.62607 231.432744 
L 218.72755 230.403815 
L 218.93051 230.820668 
L 219.03199 230.436693 
L 219.13347 231.140198 
L 219.23495 230.894524 
L 219.43791 229.191766 
L 219.53939 230.791936 
L 219.742349 229.876546 
L 219.843829 230.747741 
L 219.945309 230.112995 
L 220.046789 230.612464 
L 220.148269 229.636708 
L 220.452709 230.898019 
L 220.554189 230.776444 
L 220.655669 230.049655 
L 220.757149 227.74107 
L 220.858628 229.605603 
L 220.960108 229.523289 
L 221.061588 228.396351 
L 221.163068 226.001477 
L 221.670468 232.732331 
L 221.873428 227.923472 
L 222.076387 231.138959 
L 222.279347 229.590959 
L 222.380827 229.575413 
L 222.583787 231.211065 
L 222.786747 225.379555 
L 223.192666 230.635595 
L 223.294146 229.907796 
L 223.395626 225.56177 
L 223.497106 225.76319 
L 223.700066 228.294253 
L 223.801546 227.344234 
L 223.903026 227.846077 
L 224.207466 230.887482 
L 224.308946 229.249345 
L 224.410425 229.396691 
L 224.613385 226.740202 
L 225.019305 232.252855 
L 225.222265 230.118734 
L 225.425225 228.144849 
L 225.526705 229.792117 
L 225.628184 229.1575 
L 225.729664 227.034902 
L 226.034104 230.720358 
L 226.135584 229.504554 
L 226.237064 231.056531 
L 226.338544 228.24446 
L 226.541504 230.599943 
L 226.642984 228.925644 
L 226.744464 229.455134 
L 226.845943 231.907264 
L 226.947423 231.713682 
L 227.048903 229.991703 
L 227.251863 231.275005 
L 227.353343 229.68569 
L 227.454823 230.555819 
L 227.556303 228.934589 
L 227.860743 231.293196 
L 228.165182 226.607942 
L 228.266662 227.720877 
L 228.368142 227.060953 
L 228.571102 222.617135 
L 228.672582 222.483861 
L 229.078502 229.43734 
L 229.179982 228.519456 
L 229.382941 226.100285 
L 229.484421 228.898363 
L 229.585901 228.030974 
L 229.687381 228.940163 
L 229.788861 226.186823 
L 229.991821 229.613176 
L 230.093301 230.280453 
L 230.194781 230.117532 
L 230.296261 231.149767 
L 230.39774 229.832927 
L 230.49922 230.157351 
L 230.6007 228.917805 
L 230.80366 231.558743 
L 230.90514 229.735892 
L 231.00662 225.484812 
L 231.20958 230.153286 
L 231.31106 229.264862 
L 231.51402 225.018222 
L 231.716979 230.429139 
L 231.818459 229.043405 
L 232.021419 230.741517 
L 232.122899 230.322786 
L 232.325859 224.513664 
L 232.427339 225.670461 
L 232.528819 224.288913 
L 232.731779 230.444011 
L 232.833258 230.511132 
L 233.239178 229.534188 
L 233.340658 228.483675 
L 233.543618 231.203103 
L 233.645098 229.134343 
L 233.848058 230.687077 
L 233.949538 229.127144 
L 234.152497 224.483373 
L 234.355457 229.39455 
L 234.456937 229.191201 
L 234.558417 227.649958 
L 234.659897 229.516251 
L 234.761377 229.482415 
L 234.862857 229.911643 
L 234.964337 228.729342 
L 235.065817 230.443143 
L 235.167297 230.34091 
L 235.268776 228.840237 
L 235.471736 230.174907 
L 235.573216 229.571887 
L 235.776176 227.281372 
L 235.979136 230.875612 
L 236.080616 229.388103 
L 236.283576 232.415305 
L 236.588015 226.625989 
L 236.689495 230.493326 
L 236.790975 230.327266 
L 236.892455 225.750889 
L 236.993935 226.063648 
L 237.399855 231.691178 
L 237.501335 231.476369 
L 237.704294 228.618071 
L 237.805774 230.441895 
L 238.008734 228.787615 
L 238.110214 229.617119 
L 238.313174 226.582186 
L 238.414654 227.209904 
L 238.516134 229.221703 
L 238.617614 228.807805 
L 238.820573 226.120001 
L 239.023533 230.67379 
L 239.125013 232.160047 
L 239.226493 231.140254 
L 239.429453 227.727864 
L 239.530933 228.809906 
L 239.632413 227.24429 
L 239.835373 230.113459 
L 239.936853 231.012132 
L 240.139812 230.020009 
L 240.241292 229.901016 
L 240.545732 230.255581 
L 240.850172 228.198401 
L 241.053132 231.666621 
L 241.154612 230.837553 
L 241.459051 226.259363 
L 241.560531 226.954328 
L 241.763491 230.490776 
L 241.864971 230.670509 
L 241.966451 231.172599 
L 242.169411 227.755419 
L 242.270891 230.541048 
L 242.372371 230.476555 
L 242.57533 233.056921 
L 242.67681 233.599934 
L 242.98125 230.740142 
L 243.08273 231.168541 
L 243.18421 232.111761 
L 243.38717 229.016963 
L 243.590129 225.350787 
L 243.691609 225.638145 
L 243.793089 224.725909 
L 244.097529 231.487321 
L 244.199009 230.906651 
L 244.401969 231.461649 
L 244.807888 225.627963 
L 244.909368 227.765256 
L 245.010848 227.682475 
L 245.315288 231.315751 
L 245.416768 230.838154 
L 245.518248 232.50745 
L 245.822688 226.783221 
L 246.025647 228.278775 
L 246.228607 231.158843 
L 246.330087 230.878745 
L 246.533047 227.020579 
L 246.634527 227.290423 
L 246.837487 232.412154 
L 246.938967 231.755689 
L 247.040447 228.824952 
L 247.141927 230.113619 
L 247.243406 229.749785 
L 247.446366 226.249862 
L 247.547846 225.13022 
L 247.649326 226.437789 
L 247.750806 229.869758 
L 247.852286 229.08404 
L 247.953766 227.064916 
L 248.258206 231.954452 
L 248.461165 229.806949 
L 248.562645 231.542308 
L 248.765605 230.585512 
L 248.867085 231.56045 
L 248.968565 230.925817 
L 249.273005 225.784421 
L 249.577445 232.269725 
L 249.881884 227.150119 
L 249.983364 224.925236 
L 250.084844 226.256512 
L 250.186324 225.471002 
L 250.389284 227.666419 
L 250.490764 227.12549 
L 250.693724 231.902439 
L 250.795203 230.127907 
L 250.998163 231.605093 
L 251.201123 229.191567 
L 251.302603 228.861598 
L 251.404083 229.968974 
L 251.505563 228.975442 
L 251.708523 233.062799 
L 252.012962 227.619997 
L 252.317402 231.23923 
L 252.520362 230.226792 
L 252.621842 228.703312 
L 252.926282 232.042638 
L 253.027762 231.99391 
L 253.129242 231.664022 
L 253.230721 231.959612 
L 253.433681 229.921988 
L 253.636641 224.712055 
L 253.738121 226.060013 
L 253.839601 230.147812 
L 254.144041 227.663033 
L 254.245521 226.986819 
L 254.44848 225.022388 
L 254.65144 232.03696 
L 254.75292 232.452177 
L 254.8544 231.806132 
L 254.95588 232.318749 
L 255.15884 230.060379 
L 255.26032 229.895346 
L 255.3618 229.121086 
L 255.46328 229.372011 
L 255.56476 229.297685 
L 255.666239 230.919855 
L 255.767719 230.860811 
L 255.869199 228.784125 
L 255.970679 229.692067 
L 256.173639 232.0288 
L 256.275119 229.745626 
L 256.376599 229.847287 
L 256.478079 230.133841 
L 256.579559 231.351661 
L 256.883998 228.493486 
L 257.086958 229.170033 
L 257.188438 229.309232 
L 257.289918 228.899027 
L 257.391398 229.27509 
L 257.594358 226.233845 
L 257.797318 228.869056 
L 257.898798 228.519271 
L 258.000277 227.357323 
L 258.203237 229.712629 
L 258.304717 228.100745 
L 258.406197 228.489928 
L 258.609157 229.848101 
L 258.710637 228.457272 
L 259.015077 230.922354 
L 259.319516 228.338311 
L 259.623956 231.642136 
L 259.725436 230.733208 
L 259.928396 229.397987 
L 260.029876 229.165965 
L 260.232836 231.807843 
L 260.334316 230.658621 
L 260.435795 230.98205 
L 260.638755 230.319794 
L 260.841715 230.827302 
L 260.943195 232.359343 
L 261.146155 229.268645 
L 261.247635 229.633186 
L 261.349115 232.68353 
L 261.450595 232.455648 
L 261.653554 227.359865 
L 261.755034 227.824828 
L 261.856514 229.707068 
L 261.957994 228.620816 
L 262.059474 228.911388 
L 262.262434 231.107979 
L 262.465394 226.936031 
L 262.566874 229.192762 
L 262.668354 227.236459 
L 262.871313 232.361914 
L 262.972793 231.694447 
L 263.175753 227.209718 
L 263.277233 227.516925 
L 263.378713 225.997119 
L 263.480193 226.31892 
L 263.581673 227.031178 
L 263.683153 226.337549 
L 263.987592 229.610839 
L 264.292032 226.072767 
L 264.494992 231.476339 
L 264.697952 228.831005 
L 264.900912 231.12097 
L 265.103872 227.260524 
L 265.205351 227.706404 
L 265.306831 227.306388 
L 265.509791 228.607382 
L 265.712751 232.026591 
L 265.814231 231.150794 
L 265.915711 227.908513 
L 266.017191 228.416971 
L 266.220151 230.682222 
L 266.42311 229.47146 
L 266.52459 229.946428 
L 266.62607 225.90608 
L 266.82903 229.019434 
L 267.03199 226.540434 
L 267.33643 228.015516 
L 267.43791 229.688659 
L 267.53939 229.200861 
L 267.640869 230.383228 
L 267.843829 227.17854 
L 267.945309 227.770124 
L 268.148269 229.697889 
L 268.249749 229.853006 
L 268.351229 229.326142 
L 268.554189 231.3147 
L 268.858628 227.207158 
L 269.163068 230.565319 
L 269.264548 227.490508 
L 269.467508 230.766286 
L 269.568988 229.420143 
L 269.670468 230.038553 
L 269.873428 226.88794 
L 270.076387 224.655045 
L 270.380827 227.306461 
L 270.482307 226.84908 
L 270.583787 228.814216 
L 270.786747 225.579956 
L 270.888227 225.20135 
L 270.989707 222.36855 
L 271.497106 231.123363 
L 271.801546 226.290439 
L 272.105986 224.817534 
L 272.207466 223.483789 
L 272.511905 228.217607 
L 272.613385 229.82877 
L 272.816345 228.519416 
L 272.917825 228.750283 
L 273.120785 223.398564 
L 273.323745 229.095096 
L 273.425225 228.587276 
L 273.628184 229.63903 
L 273.729664 228.987409 
L 273.831144 229.352003 
L 274.034104 231.550053 
L 274.237064 229.727858 
L 274.338544 230.306245 
L 274.541504 225.501118 
L 274.845943 232.00528 
L 275.150383 228.081578 
L 275.251863 230.819449 
L 275.353343 230.132673 
L 275.454823 227.36524 
L 275.657783 229.108072 
L 275.759263 224.124968 
L 275.860743 226.148066 
L 275.962223 231.087013 
L 276.165182 229.268028 
L 276.266662 229.48291 
L 276.368142 229.49058 
L 276.571102 227.233477 
L 276.672582 227.423154 
L 276.875542 226.388068 
L 276.977022 227.59184 
L 277.078502 227.416867 
L 277.281461 231.607188 
L 277.484421 227.499446 
L 277.687381 230.343801 
L 277.788861 229.607264 
L 277.890341 230.665458 
L 277.991821 228.921931 
L 278.093301 230.108147 
L 278.194781 229.345645 
L 278.39774 230.822208 
L 278.49922 229.893476 
L 278.6007 227.655303 
L 278.70218 229.9098 
L 278.80366 229.67615 
L 279.00662 228.513757 
L 279.1081 230.311741 
L 279.31106 229.624474 
L 279.41254 229.951365 
L 279.51402 232.083621 
L 279.716979 230.321856 
L 279.919939 225.25671 
L 280.122899 227.826076 
L 280.224379 227.589069 
L 280.325859 229.56538 
L 280.427339 229.441861 
L 280.528819 229.445016 
L 280.630299 231.183667 
L 280.731779 230.178435 
L 280.833258 227.638553 
L 280.934738 227.734451 
L 281.036218 228.800939 
L 281.239178 226.293276 
L 281.442138 228.969948 
L 281.645098 231.624259 
L 281.848058 229.603116 
L 282.051017 227.10863 
L 282.152497 227.515728 
L 282.355457 231.081341 
L 282.456937 229.305099 
L 282.659897 230.827212 
L 282.862857 226.475256 
L 282.964337 227.512491 
L 283.167297 230.88205 
L 283.268776 230.281319 
L 283.370256 227.849662 
L 283.471736 228.109733 
L 283.674696 232.911675 
L 284.080616 223.91722 
L 284.182096 224.34912 
L 284.385055 230.505 
L 284.588015 226.90774 
L 284.689495 226.72154 
L 285.095415 233.998125 
L 285.196895 233.266346 
L 285.399855 228.27764 
L 285.907254 231.871696 
L 286.008734 229.186358 
L 286.110214 229.48993 
L 286.414654 228.042256 
L 286.516134 225.813428 
L 286.820573 230.04101 
L 286.922053 228.40335 
L 287.023533 229.561972 
L 287.226493 227.185176 
L 287.429453 230.14247 
L 287.530933 229.402528 
L 287.733893 228.259873 
L 287.835373 229.98938 
L 287.936853 229.740623 
L 288.038332 228.440397 
L 288.139812 228.633794 
L 288.241292 230.396795 
L 288.444252 225.048798 
L 288.748692 231.002779 
L 288.850172 230.887322 
L 289.154612 227.523804 
L 289.256091 222.627334 
L 289.357571 222.995667 
L 289.560531 231.346999 
L 289.763491 228.794049 
L 289.864971 228.945269 
L 289.966451 227.833831 
L 290.067931 225.355324 
L 290.169411 227.184766 
L 290.372371 226.201109 
L 290.57533 221.948055 
L 290.77829 229.259966 
L 290.87977 230.07495 
L 290.98125 227.006979 
L 291.08273 227.500199 
L 291.18421 225.902538 
L 291.590129 231.250412 
L 291.691609 229.841677 
L 291.894569 231.572919 
L 292.097529 230.036855 
L 292.199009 230.824583 
L 292.503449 228.389325 
L 292.604929 228.179896 
L 292.706409 230.569213 
L 292.909368 225.902878 
L 293.213808 232.072806 
L 293.315288 230.795144 
L 293.416768 231.009878 
L 293.518248 231.584248 
L 293.822688 226.50214 
L 293.924168 224.667182 
L 294.025647 225.371129 
L 294.330087 231.92605 
L 294.634527 221.037336 
L 294.938967 227.978688 
L 295.141927 227.044416 
L 295.243406 222.574639 
L 295.446366 230.80247 
L 295.547846 230.376761 
L 295.750806 226.903771 
L 295.852286 229.312262 
L 295.953766 225.859654 
L 296.156726 229.997645 
L 296.258206 229.575999 
L 296.359686 227.899009 
L 296.461165 228.825679 
L 296.664125 225.792988 
L 296.867085 227.378254 
L 296.968565 230.261881 
L 297.273005 227.868504 
L 297.374485 228.497055 
L 297.577445 225.891524 
L 297.678924 226.452881 
L 297.881884 231.550222 
L 298.084844 228.212751 
L 298.287804 224.636682 
L 298.592244 231.290578 
L 298.795203 227.408332 
L 298.998163 229.171527 
L 299.099643 223.877691 
L 299.302603 229.053319 
L 299.404083 229.157448 
L 299.505563 226.188372 
L 299.607043 226.515291 
L 299.810003 229.5466 
L 299.911483 229.166146 
L 300.012962 227.227233 
L 300.215922 229.679116 
L 300.317402 230.183353 
L 300.723322 220.594153 
L 300.926282 223.30915 
L 301.027762 222.420789 
L 301.230721 225.703382 
L 301.433681 230.104708 
L 301.535161 227.802461 
L 301.738121 229.58134 
L 301.839601 225.981778 
L 302.042561 231.488878 
L 302.245521 227.861241 
L 302.44848 230.288778 
L 302.54996 228.209204 
L 302.8544 231.227481 
L 303.15884 224.543726 
L 303.26032 223.864606 
L 303.3618 224.85994 
L 303.46328 229.764962 
L 303.666239 226.084118 
L 303.767719 231.344912 
L 303.869199 231.179057 
L 304.072159 226.101765 
L 304.173639 228.318837 
L 304.275119 225.393732 
L 304.478079 231.055637 
L 304.681039 223.862733 
L 304.985478 230.290298 
L 305.188438 227.212854 
L 305.289918 227.30361 
L 305.391398 230.006302 
L 305.594358 224.964271 
L 305.695838 225.338747 
L 305.797318 228.924284 
L 305.898798 228.316057 
L 306.000277 228.675703 
L 306.304717 224.307626 
L 306.507677 226.951109 
L 306.710637 228.668675 
L 306.812117 228.173401 
L 306.913597 229.989749 
L 307.015077 228.642017 
L 307.218036 222.030583 
L 307.522476 231.481557 
L 307.725436 227.475611 
L 307.928396 228.695555 
L 308.029876 228.585914 
L 308.131356 225.528419 
L 308.232836 226.134955 
L 308.537275 221.490764 
L 308.740235 227.408691 
L 308.841715 227.184852 
L 309.146155 228.874231 
L 309.247635 228.574175 
L 309.450595 223.322229 
L 309.653554 226.82629 
L 309.755034 228.941511 
L 309.856514 228.501232 
L 309.957994 227.123837 
L 310.059474 227.700271 
L 310.262434 229.809169 
L 310.363914 228.642818 
L 310.566874 230.318348 
L 310.668354 229.727821 
L 310.769834 230.488458 
L 310.871313 230.418802 
L 310.972793 230.273088 
L 311.074273 230.527728 
L 311.277233 225.426133 
L 311.581673 230.189742 
L 311.683153 228.306902 
L 311.886113 229.149009 
L 311.987592 227.350217 
L 312.089072 227.574024 
L 312.292032 231.559614 
L 312.494992 231.42746 
L 313.002392 223.25859 
L 313.306831 229.073669 
L 313.408311 229.767533 
L 313.509791 232.052947 
L 313.915711 227.612866 
L 314.017191 224.553932 
L 314.220151 227.510463 
L 314.321631 229.059925 
L 314.42311 228.732234 
L 314.52459 229.793156 
L 314.72755 224.521378 
L 314.93051 227.590102 
L 315.03199 230.832906 
L 315.13347 228.042786 
L 315.23495 229.095444 
L 315.43791 226.274466 
L 315.53939 226.232668 
L 315.640869 226.618638 
L 315.742349 230.408516 
L 315.843829 229.691919 
L 315.945309 227.107711 
L 316.046789 227.15695 
L 316.148269 230.434366 
L 316.249749 229.968548 
L 316.452709 232.20522 
L 316.757149 224.943586 
L 316.858628 228.366212 
L 316.960108 227.620151 
L 317.163068 227.92602 
L 317.264548 230.376089 
L 317.467508 229.122908 
L 317.568988 230.694239 
L 317.670468 230.564753 
L 317.771948 229.965927 
L 317.873428 226.002381 
L 317.974908 227.180783 
L 318.177867 232.041727 
L 318.380827 227.7485 
L 318.583787 228.646476 
L 318.685267 228.340283 
L 318.786747 228.407737 
L 318.888227 228.809504 
L 319.091187 230.639513 
L 319.192666 229.416327 
L 319.294146 229.852781 
L 319.497106 225.503092 
L 319.700066 229.400865 
L 319.801546 229.236397 
L 319.903026 228.398961 
L 320.105986 230.898016 
L 320.308946 231.630998 
L 320.613385 224.804343 
L 320.917825 228.708426 
L 321.019305 228.730114 
L 321.222265 224.103357 
L 321.323745 225.21887 
L 321.425225 225.081862 
L 321.628184 230.773778 
L 321.729664 229.79807 
L 321.831144 230.618076 
L 322.034104 227.450096 
L 322.237064 228.787082 
L 322.440024 230.99511 
L 322.541504 230.384814 
L 322.744464 229.059544 
L 322.845943 230.975921 
L 322.947423 229.51732 
L 323.150383 231.428361 
L 323.251863 231.139709 
L 323.454823 226.776954 
L 323.556303 227.177161 
L 323.657783 229.507913 
L 323.860743 227.536409 
L 323.962223 227.790657 
L 324.063702 230.319303 
L 324.165182 228.100803 
L 324.469622 231.623691 
L 324.571102 230.384726 
L 324.672582 227.188741 
L 324.774062 228.088044 
L 324.875542 227.605106 
L 324.977022 227.786121 
L 325.078502 227.061023 
L 325.179982 228.74502 
L 325.281461 228.011097 
L 325.382941 223.360548 
L 325.484421 224.347365 
L 325.687381 229.367687 
L 325.788861 226.478962 
L 326.093301 232.234571 
L 326.296261 227.645704 
L 326.49922 233.119701 
L 326.6007 232.227848 
L 326.80366 227.543422 
L 326.90514 226.874854 
L 327.20958 231.467008 
L 327.51402 225.004048 
L 327.615499 226.451244 
L 327.818459 230.52074 
L 327.919939 230.922449 
L 328.122899 232.496403 
L 328.325859 229.023162 
L 328.731779 232.550124 
L 328.833258 232.178834 
L 328.934738 230.375912 
L 329.340658 218.650613 
L 329.543618 229.425943 
L 329.645098 230.942521 
L 329.746578 229.434229 
L 329.848058 230.044408 
L 329.949538 229.376405 
L 330.152497 224.938884 
L 330.253977 225.545088 
L 330.355457 227.66015 
L 330.456937 225.045629 
L 330.659897 226.549855 
L 330.862857 229.023229 
L 330.964337 226.181133 
L 331.167297 231.168696 
L 331.471736 227.421594 
L 331.573216 226.059877 
L 331.674696 226.322172 
L 331.776176 224.272171 
L 331.979136 231.776865 
L 332.080616 230.364501 
L 332.182096 229.872363 
L 332.283576 228.632974 
L 332.385055 229.261875 
L 332.486535 228.311082 
L 332.588015 228.840336 
L 332.790975 224.28406 
L 332.892455 224.729198 
L 333.095415 228.322796 
L 333.196895 229.731988 
L 333.298375 228.005941 
L 333.399855 229.474541 
L 333.805774 226.332345 
L 334.008734 228.634343 
L 334.110214 229.328931 
L 334.211694 229.258804 
L 334.313174 229.638004 
L 334.516134 231.787659 
L 334.719094 227.527487 
L 334.922053 230.815383 
L 335.023533 230.733747 
L 335.125013 230.171803 
L 335.226493 230.306703 
L 335.327973 229.234351 
L 335.429453 231.001032 
L 335.733893 228.918527 
L 336.038332 231.74315 
L 336.241292 229.409631 
L 336.342772 229.979113 
L 336.444252 228.270541 
L 336.545732 228.548737 
L 336.647212 230.195463 
L 336.748692 230.145127 
L 336.951652 223.057932 
L 337.053132 225.933986 
L 337.154612 225.890642 
L 337.357571 228.981739 
L 337.459051 228.602994 
L 337.662011 229.86511 
L 337.763491 229.314031 
L 337.864971 230.135683 
L 337.966451 227.572057 
L 338.169411 228.621666 
L 338.270891 229.603245 
L 338.47385 228.431256 
L 338.57533 230.466816 
L 338.98125 225.520392 
L 339.18421 232.671732 
L 339.48865 223.599717 
L 339.590129 227.173254 
L 339.691609 223.582679 
L 339.793089 226.691479 
L 339.996049 222.396434 
L 340.097529 225.551186 
L 340.199009 224.545593 
L 340.300489 225.934955 
L 340.503449 229.846363 
L 340.604929 228.011811 
L 340.807888 230.328649 
L 340.909368 228.964611 
L 341.010848 229.789522 
L 341.112328 229.406573 
L 341.315288 226.763392 
L 341.518248 228.650631 
L 341.619728 227.574584 
L 341.721208 227.7238 
L 341.924168 224.580327 
L 342.025647 227.3742 
L 342.127127 225.438745 
L 342.228607 229.206548 
L 342.431567 227.312957 
L 342.634527 231.423668 
L 342.837487 228.975731 
L 342.938967 229.179793 
L 343.141927 231.26495 
L 343.547846 227.004441 
L 343.649326 223.022738 
L 343.852286 231.54538 
L 343.953766 231.062344 
L 344.055246 229.80542 
L 344.156726 230.975435 
L 344.461165 227.906849 
L 344.562645 229.960218 
L 344.765605 227.293785 
L 344.968565 230.894082 
L 345.070045 230.953948 
L 345.171525 230.636833 
L 345.273005 229.915704 
L 345.374485 226.80411 
L 345.475965 228.101129 
L 345.577445 225.217063 
L 345.678924 225.941606 
L 345.780404 231.004086 
L 345.881884 229.648155 
L 346.084844 229.790536 
L 346.186324 229.736097 
L 346.287804 229.050676 
L 346.490764 225.575957 
L 346.693724 230.283274 
L 346.896683 226.905667 
L 347.099643 231.700423 
L 347.201123 231.808191 
L 347.404083 232.699028 
L 347.708523 226.352929 
L 347.911483 229.108748 
L 348.114442 229.696925 
L 348.215922 230.739936 
L 348.418882 226.502053 
L 348.621842 231.966576 
L 348.824802 230.713106 
L 348.926282 231.846017 
L 349.027762 231.566418 
L 349.129242 232.428623 
L 349.230721 229.433888 
L 349.332201 229.634093 
L 349.433681 229.309918 
L 349.636641 231.15506 
L 349.738121 230.454585 
L 349.839601 230.498175 
L 349.941081 231.984957 
L 350.042561 231.269586 
L 350.347001 223.826549 
L 350.75292 231.581273 
L 350.8544 231.439364 
L 351.05736 230.34176 
L 351.26032 231.374965 
L 351.3618 232.588571 
L 351.46328 231.881124 
L 351.666239 225.534041 
L 351.869199 226.837212 
L 351.970679 224.092986 
L 352.072159 224.473758 
L 352.275119 229.181097 
L 352.478079 223.673716 
L 352.782518 230.808104 
L 352.883998 231.526606 
L 353.188438 226.484975 
L 353.289918 226.173247 
L 353.391398 229.414589 
L 353.492878 226.50889 
L 353.797318 229.749131 
L 354.000277 226.598245 
L 354.101757 227.019814 
L 354.203237 226.694146 
L 354.304717 225.50799 
L 354.507677 227.095156 
L 354.609157 223.59562 
L 354.710637 225.052837 
L 354.913597 230.493951 
L 355.015077 230.802789 
L 355.218036 226.229377 
L 355.319516 227.39485 
L 355.420996 227.228304 
L 355.522476 229.908329 
L 355.623956 229.090698 
L 355.725436 226.295859 
L 355.826916 227.729243 
L 355.928396 227.282339 
L 356.131356 230.203229 
L 356.232836 230.105042 
L 356.435795 229.830291 
L 356.537275 228.999009 
L 356.740235 225.976305 
L 356.841715 228.057973 
L 356.943195 226.499739 
L 357.146155 228.150858 
L 357.349115 232.248369 
L 357.552075 227.043368 
L 357.856514 224.950252 
L 357.957994 226.603857 
L 358.059474 230.878603 
L 358.160954 230.357179 
L 358.363914 227.600345 
L 358.566874 231.64275 
L 358.668354 229.871167 
L 358.769834 230.066854 
L 358.871313 230.949416 
L 359.074273 230.328933 
L 359.175753 230.89726 
L 359.277233 228.530987 
L 359.378713 229.537078 
L 359.480193 228.104963 
L 359.683153 231.617453 
L 359.784633 232.458121 
L 359.886113 229.918839 
L 359.987592 230.038408 
L 360.292032 230.451488 
L 360.494992 227.641149 
L 360.697952 232.078645 
L 360.799432 231.725955 
L 361.002392 232.064137 
L 361.103872 232.154633 
L 361.205351 231.898546 
L 361.509791 227.628871 
L 361.611271 227.587697 
L 361.712751 229.586058 
L 361.915711 226.728719 
L 362.118671 230.162402 
L 362.220151 229.474726 
L 362.321631 230.140818 
L 362.42311 231.546926 
L 362.62607 229.950063 
L 362.72755 228.192337 
L 362.93051 229.416735 
L 363.23495 224.81943 
L 363.33643 224.971655 
L 363.43791 230.036357 
L 363.53939 228.987199 
L 363.640869 231.025068 
L 363.742349 229.328582 
L 363.843829 229.584595 
L 363.945309 230.651579 
L 364.046789 229.018877 
L 364.148269 229.800899 
L 364.249749 229.092974 
L 364.452709 230.253363 
L 364.554189 228.332843 
L 364.655669 224.010937 
L 364.960108 226.96577 
L 365.061588 226.990568 
L 365.163068 228.132228 
L 365.366028 232.485659 
L 365.670468 226.331681 
L 365.974908 231.992284 
L 366.076387 231.590603 
L 366.279347 233.824589 
L 366.583787 226.154103 
L 366.685267 226.081754 
L 366.888227 228.68034 
L 367.091187 225.763054 
L 367.294146 231.750604 
L 367.395626 230.761648 
L 367.497106 227.892613 
L 367.598586 228.235362 
L 367.700066 230.135376 
L 367.801546 229.105559 
L 368.004506 229.50003 
L 368.207466 230.953993 
L 368.308946 230.515257 
L 368.410425 232.194259 
L 368.613385 228.941004 
L 368.714865 229.67519 
L 368.816345 230.1745 
L 369.019305 228.641051 
L 369.120785 228.832584 
L 369.222265 232.561979 
L 369.323745 231.008288 
L 369.526705 226.841703 
L 369.628184 227.378619 
L 369.831144 225.369893 
L 370.135584 232.378226 
L 370.237064 231.625264 
L 370.440024 226.680844 
L 370.642984 230.145579 
L 370.744464 229.126207 
L 370.947423 224.743619 
L 371.150383 231.057328 
L 371.251863 232.966355 
L 371.556303 229.235257 
L 371.759263 227.379749 
L 372.063702 230.946729 
L 372.266662 230.415544 
L 372.368142 231.983965 
L 372.469622 231.119262 
L 372.571102 228.683937 
L 372.672582 229.826842 
L 372.774062 229.563849 
L 372.875542 229.644763 
L 373.078502 226.99419 
L 373.281461 228.405351 
L 373.382941 225.843844 
L 373.585901 231.344001 
L 373.687381 232.124955 
L 373.788861 229.556734 
L 373.890341 229.576236 
L 373.991821 229.893708 
L 374.093301 231.186797 
L 374.296261 227.640698 
L 374.39774 230.21875 
L 374.49922 230.128408 
L 374.70218 224.908981 
L 374.80366 223.390063 
L 375.20958 231.258283 
L 375.41254 226.034847 
L 375.615499 229.68701 
L 375.716979 229.70951 
L 375.919939 228.348769 
L 376.021419 230.990763 
L 376.224379 230.521637 
L 376.325859 228.867329 
L 376.528819 223.017832 
L 376.833258 231.096763 
L 376.934738 230.047214 
L 377.036218 229.882804 
L 377.137698 231.064001 
L 377.239178 230.815429 
L 377.442138 228.979079 
L 377.543618 230.303024 
L 377.746578 222.34584 
L 377.848058 222.545089 
L 378.152497 231.484396 
L 378.253977 230.978524 
L 378.355457 231.505562 
L 378.558417 227.592422 
L 378.862857 230.392526 
L 378.964337 229.333257 
L 379.167297 230.771228 
L 379.370256 228.697249 
L 379.471736 228.422405 
L 379.573216 228.870667 
L 379.877656 231.988791 
L 380.080616 228.880171 
L 380.182096 230.090755 
L 380.385055 229.068853 
L 380.486535 230.865331 
L 380.790975 227.761651 
L 380.892455 229.749001 
L 380.993935 227.996479 
L 381.196895 230.612218 
L 381.399855 227.549915 
L 381.501335 227.702889 
L 381.602814 226.330558 
L 381.704294 227.038404 
L 381.907254 230.262866 
L 382.110214 231.600321 
L 382.211694 231.299896 
L 382.414654 229.598353 
L 382.516134 227.091643 
L 382.617614 227.920983 
L 382.820573 231.767563 
L 383.023533 227.945662 
L 383.226493 232.141464 
L 383.327973 232.047452 
L 383.429453 227.918723 
L 383.530933 228.167915 
L 383.632413 227.732617 
L 383.733893 226.152354 
L 384.038332 231.352144 
L 384.139812 230.56396 
L 384.241292 231.156793 
L 384.342772 232.932101 
L 384.647212 229.739173 
L 384.748692 229.570898 
L 384.850172 229.906918 
L 385.053132 232.050244 
L 385.154612 230.857361 
L 385.256091 227.75648 
L 385.357571 227.898555 
L 385.560531 232.036578 
L 385.662011 230.766978 
L 385.763491 230.877483 
L 385.966451 229.040678 
L 386.270891 224.813595 
L 386.372371 225.21435 
L 386.47385 227.323615 
L 386.57533 226.838711 
L 386.77829 231.073924 
L 386.87977 231.490613 
L 386.98125 231.094474 
L 387.08273 232.486632 
L 387.38717 228.792327 
L 387.590129 230.566962 
L 387.691609 230.703769 
L 387.793089 230.614036 
L 387.996049 231.951873 
L 388.097529 230.592199 
L 388.199009 226.863497 
L 388.300489 227.004966 
L 388.401969 226.439392 
L 388.503449 226.609144 
L 388.706409 229.713272 
L 388.807888 233.119186 
L 389.010848 229.034178 
L 389.112328 229.193476 
L 389.213808 228.72942 
L 389.315288 226.541227 
L 389.518248 230.708358 
L 389.619728 230.938278 
L 389.721208 230.025831 
L 389.924168 231.509554 
L 390.025647 231.143811 
L 390.330087 227.757657 
L 390.431567 227.77042 
L 390.634527 227.61996 
L 390.736007 228.26636 
L 390.837487 230.269954 
L 391.040447 226.939233 
L 391.141927 227.555174 
L 391.243406 226.225568 
L 391.446366 231.198396 
L 391.547846 231.096349 
L 391.649326 230.027726 
L 391.750806 230.395644 
L 391.852286 228.528589 
L 391.953766 229.856684 
L 392.055246 229.787662 
L 392.156726 229.964809 
L 392.258206 228.708604 
L 392.765605 232.309153 
L 392.867085 231.016218 
L 392.968565 231.026053 
L 393.070045 230.047685 
L 393.171525 230.959744 
L 393.273005 230.88228 
L 393.678924 226.441369 
L 393.881884 231.594405 
L 393.983364 231.021685 
L 394.084844 229.910271 
L 394.287804 230.944026 
L 394.389284 230.890279 
L 394.490764 229.013267 
L 394.592244 223.735636 
L 394.693724 224.876321 
L 394.795203 229.754144 
L 394.896683 226.559581 
L 395.099643 227.59914 
L 395.201123 228.006468 
L 395.302603 226.437777 
L 395.505563 231.649139 
L 395.607043 231.343029 
L 395.708523 228.9005 
L 395.810003 232.748448 
L 395.911483 225.71526 
L 396.114442 129.011449 
L 396.317402 32.398125 
L 396.621842 220.369584 
L 396.824802 228.875673 
L 396.926282 228.005625 
L 397.027762 228.916342 
L 397.230721 223.613933 
L 397.332201 223.699423 
L 397.535161 227.865959 
L 397.636641 227.812633 
L 397.839601 222.321247 
L 397.941081 223.038956 
L 398.144041 230.748347 
L 398.245521 230.655534 
L 398.347001 228.508847 
L 398.44848 228.652572 
L 398.65144 231.983727 
L 398.95588 226.599705 
L 399.05736 227.857698 
L 399.15884 227.301806 
L 399.26032 230.552639 
L 399.3618 227.368839 
L 399.46328 229.451627 
L 399.666239 227.957253 
L 399.970679 229.239698 
L 400.072159 228.628141 
L 400.173639 229.87552 
L 400.275119 228.176647 
L 400.478079 223.106102 
L 400.681039 230.095118 
L 400.782518 229.821223 
L 400.883998 226.419789 
L 401.086958 231.270244 
L 401.188438 231.138934 
L 401.391398 229.54089 
L 401.594358 230.822147 
L 401.797318 227.484034 
L 401.898798 228.098586 
L 402.101757 232.407087 
L 402.710637 226.991853 
L 402.812117 227.645867 
L 403.015077 232.137888 
L 403.116557 229.336065 
L 403.218036 230.881756 
L 403.623956 224.600476 
L 403.826916 230.555768 
L 403.928396 231.443984 
L 404.131356 228.391201 
L 404.232836 228.182968 
L 404.334316 228.442715 
L 404.537275 230.118179 
L 404.740235 227.55721 
L 405.044675 229.716372 
L 405.146155 226.717751 
L 405.349115 227.963722 
L 405.552075 230.165224 
L 405.653554 229.929402 
L 405.755034 230.240058 
L 405.856514 228.114564 
L 405.957994 228.166077 
L 406.059474 228.893627 
L 406.262434 225.036245 
L 406.363914 225.746082 
L 406.668354 231.886936 
L 406.769834 232.84354 
L 406.871313 231.953999 
L 406.972793 229.614635 
L 407.074273 231.403164 
L 407.378713 228.898865 
L 407.581673 231.801778 
L 407.784633 232.739468 
L 407.987592 225.30849 
L 408.190552 230.348949 
L 408.292032 231.386448 
L 408.494992 230.691462 
L 408.596472 230.118084 
L 408.799432 226.641813 
L 409.002392 229.474044 
L 409.103872 228.542554 
L 409.306831 232.206667 
L 409.509791 231.609727 
L 409.611271 231.576538 
L 409.712751 231.331679 
L 409.915711 227.413036 
L 410.017191 229.598402 
L 410.118671 229.252786 
L 410.321631 225.576788 
L 410.52459 230.274452 
L 410.62607 231.992213 
L 410.82903 230.774283 
L 410.93051 230.661656 
L 411.13347 232.064764 
L 411.23495 231.816796 
L 411.43791 228.70286 
L 411.742349 232.07715 
L 411.945309 229.698464 
L 412.046789 229.46814 
L 412.148269 228.378228 
L 412.249749 228.478594 
L 412.351229 227.867275 
L 412.452709 228.132768 
L 412.554189 227.364507 
L 412.858628 232.302713 
L 412.960108 232.929084 
L 413.163068 230.262128 
L 413.264548 232.047372 
L 413.366028 230.800918 
L 413.467508 227.188627 
L 413.568988 227.700768 
L 413.771948 225.788926 
L 413.873428 225.772166 
L 414.076387 230.92058 
L 414.380827 226.615988 
L 414.583787 228.258582 
L 414.685267 226.74322 
L 414.786747 228.491089 
L 414.888227 228.117363 
L 414.989707 227.145906 
L 415.192666 232.466483 
L 415.395626 229.488503 
L 415.497106 229.884679 
L 415.598586 232.470823 
L 415.700066 232.296208 
L 415.801546 231.674866 
L 416.004506 229.058174 
L 416.105986 227.969957 
L 416.207466 228.489459 
L 416.308946 230.816843 
L 416.511905 227.786538 
L 416.613385 224.946851 
L 416.917825 227.152974 
L 417.019305 226.03038 
L 417.323745 231.809488 
L 417.425225 228.197484 
L 417.729664 232.212917 
L 417.932624 228.910231 
L 418.034104 229.917752 
L 418.237064 229.490287 
L 418.338544 229.756551 
L 418.440024 229.67663 
L 418.642984 225.540296 
L 418.744464 227.073188 
L 418.845943 226.118858 
L 418.947423 229.776358 
L 419.048903 229.525366 
L 419.251863 226.955763 
L 419.353343 226.979716 
L 419.454823 227.575828 
L 419.556303 229.418467 
L 419.759263 227.025179 
L 419.962223 231.665468 
L 420.266662 227.55415 
L 420.469622 230.858313 
L 420.571102 230.243757 
L 420.672582 230.638492 
L 421.078502 222.856478 
L 421.281461 229.070568 
L 421.484421 226.335775 
L 421.687381 229.051362 
L 421.788861 226.119839 
L 422.194781 232.482657 
L 422.39774 230.862361 
L 422.49922 231.31818 
L 422.90514 227.977264 
L 423.31106 230.999287 
L 423.41254 230.258606 
L 423.51402 231.266176 
L 423.716979 226.999116 
L 424.021419 231.792002 
L 424.122899 230.940657 
L 424.325859 227.958561 
L 424.528819 231.702416 
L 424.630299 231.458761 
L 424.731779 231.751573 
L 424.833258 230.597903 
L 425.036218 231.428986 
L 425.239178 233.115942 
L 425.442138 230.180964 
L 425.543618 230.99314 
L 425.746578 230.670025 
L 425.848058 230.362121 
L 425.949538 230.610256 
L 426.152497 232.750402 
L 426.253977 232.598178 
L 426.456937 229.531527 
L 426.558417 227.655943 
L 426.761377 232.25198 
L 426.862857 231.449749 
L 426.964337 229.14513 
L 427.167297 230.49066 
L 427.268776 231.478063 
L 427.471736 229.322536 
L 427.674696 230.495509 
L 427.776176 230.157731 
L 427.877656 232.502047 
L 427.979136 232.392974 
L 428.283576 228.338077 
L 428.385055 227.322928 
L 428.588015 229.819799 
L 428.689495 232.919799 
L 428.790975 232.098275 
L 428.892455 229.165532 
L 428.993935 230.670148 
L 429.095415 229.826658 
L 429.196895 227.158629 
L 429.501335 231.607851 
L 429.805774 227.634601 
L 430.008734 230.442885 
L 430.211694 226.177449 
L 430.516134 232.129318 
L 430.617614 229.752769 
L 430.820573 230.791331 
L 430.922053 230.960516 
L 431.023533 229.772677 
L 431.226493 231.979156 
L 431.327973 230.241992 
L 431.429453 230.444851 
L 431.530933 232.84293 
L 431.733893 230.554054 
L 431.835373 228.536816 
L 432.038332 232.520481 
L 432.342772 230.591154 
L 432.444252 227.305321 
L 432.647212 230.328244 
L 432.850172 229.143369 
L 432.951652 229.45457 
L 433.053132 231.681036 
L 433.256091 227.536458 
L 433.560531 232.197666 
L 433.763491 230.019455 
L 433.864971 230.359219 
L 433.966451 231.666875 
L 434.067931 231.212994 
L 434.169411 228.605066 
L 434.372371 229.256959 
L 434.47385 231.45549 
L 434.67681 230.419357 
L 434.77829 232.582423 
L 434.87977 231.754924 
L 435.08273 228.176842 
L 435.18421 228.034006 
L 435.28569 228.290165 
L 435.48865 230.22135 
L 435.691609 227.443565 
L 435.996049 230.852261 
L 436.097529 227.48088 
L 436.199009 227.624562 
L 436.300489 228.741242 
L 436.401969 225.850012 
L 436.706409 230.214867 
L 436.807888 229.027972 
L 436.909368 229.328536 
L 437.010848 229.076217 
L 437.112328 229.809606 
L 437.213808 228.712581 
L 437.416768 232.438943 
L 437.518248 231.438888 
L 437.721208 232.052971 
L 438.025647 225.368125 
L 438.127127 225.494145 
L 438.228607 225.400096 
L 438.330087 226.463484 
L 438.431567 224.771244 
L 438.533047 224.901692 
L 438.837487 228.65216 
L 438.938967 228.163862 
L 439.040447 230.544508 
L 439.344886 222.985835 
L 439.547846 227.907741 
L 439.649326 228.015571 
L 439.852286 231.856185 
L 440.055246 230.810962 
L 440.156726 232.389242 
L 440.258206 231.659388 
L 440.359686 231.825799 
L 440.562645 233.308498 
L 440.867085 221.508231 
L 441.070045 227.29796 
L 441.171525 224.720533 
L 441.374485 227.192356 
L 441.577445 229.072555 
L 441.780404 228.617092 
L 441.983364 231.255471 
L 442.186324 227.638783 
L 442.389284 229.547943 
L 442.592244 227.162683 
L 442.795203 231.619523 
L 442.896683 231.602963 
L 443.404083 225.561573 
L 443.505563 225.663092 
L 443.607043 222.397921 
L 443.911483 230.755093 
L 444.012962 231.359809 
L 444.114442 229.735317 
L 444.215922 230.972533 
L 444.418882 227.941509 
L 444.621842 230.79688 
L 444.824802 228.210584 
L 445.129242 232.279108 
L 445.332201 230.760438 
L 445.433681 230.660053 
L 445.636641 228.902967 
L 445.738121 230.221215 
L 445.839601 233.126002 
L 446.144041 226.612023 
L 446.245521 227.678108 
L 446.347001 230.076246 
L 446.65144 229.088155 
L 446.75292 228.014988 
L 446.95588 230.074265 
L 447.05736 228.078759 
L 447.15884 229.859408 
L 447.26032 227.77416 
L 447.46328 231.434525 
L 447.56476 230.441868 
L 447.666239 231.062744 
L 447.767719 229.67068 
L 447.970679 230.423626 
L 448.072159 229.309491 
L 448.173639 230.496989 
L 448.275119 230.346498 
L 448.376599 227.217871 
L 448.478079 227.732854 
L 448.579559 230.174467 
L 448.681039 230.024007 
L 448.883998 225.920942 
L 449.086958 231.626752 
L 449.188438 230.378224 
L 449.289918 230.766204 
L 449.594358 226.593585 
L 449.695838 224.794984 
L 449.898798 230.216783 
L 450.101757 231.173488 
L 450.203237 230.926341 
L 450.406197 229.271268 
L 450.507677 230.574366 
L 450.609157 230.046181 
L 450.710637 228.015572 
L 450.812117 229.534728 
L 450.913597 228.739941 
L 451.116557 226.324533 
L 451.319516 231.449958 
L 451.522476 229.462421 
L 451.623956 230.053588 
L 451.725436 232.683318 
L 451.826916 232.189712 
L 452.029876 228.682469 
L 452.131356 231.162976 
L 452.232836 230.258936 
L 452.334316 226.655865 
L 452.537275 229.973733 
L 452.740235 227.586627 
L 452.943195 226.628748 
L 453.044675 226.388068 
L 453.146155 224.685843 
L 453.450595 231.633099 
L 453.552075 231.403073 
L 453.653554 231.835467 
L 453.755034 230.301956 
L 453.957994 226.366064 
L 454.160954 230.42387 
L 454.262434 228.09241 
L 454.363914 228.560789 
L 454.465394 230.287869 
L 454.566874 229.798403 
L 454.769834 222.276555 
L 454.972793 230.662198 
L 455.074273 229.581437 
L 455.175753 230.18349 
L 455.277233 233.009073 
L 455.581673 224.906427 
L 455.784633 230.187455 
L 455.886113 229.623678 
L 456.089072 227.145931 
L 456.292032 226.61301 
L 456.494992 231.035253 
L 456.596472 229.783013 
L 456.799432 224.702842 
L 457.205351 230.224394 
L 457.306831 230.726373 
L 457.509791 230.288132 
L 457.611271 232.618892 
L 457.712751 231.45232 
L 457.915711 228.048214 
L 458.017191 228.108325 
L 458.118671 228.473179 
L 458.220151 224.862807 
L 458.321631 226.139226 
L 458.42311 223.514749 
L 458.93051 231.292486 
L 459.03199 226.561703 
L 459.13347 226.602022 
L 459.33643 230.206566 
L 459.43791 230.182732 
L 459.53939 231.047295 
L 459.742349 226.037735 
L 459.843829 227.274822 
L 459.945309 224.947335 
L 460.046789 226.556388 
L 460.249749 231.904942 
L 460.351229 231.174968 
L 460.452709 227.593455 
L 460.858628 231.62072 
L 461.061588 229.202833 
L 461.264548 230.818512 
L 461.366028 228.81645 
L 461.568988 221.793127 
L 461.771948 227.97602 
L 461.974908 224.2253 
L 462.076387 223.561165 
L 462.482307 230.088335 
L 462.583787 231.900958 
L 462.685267 228.234982 
L 462.786747 228.575263 
L 462.989707 232.141597 
L 463.192666 227.509148 
L 463.700066 231.681962 
L 463.801546 230.350871 
L 463.903026 227.491932 
L 464.207466 231.729599 
L 464.511905 229.210125 
L 464.613385 229.453697 
L 464.917825 226.700444 
L 465.222265 228.947337 
L 465.323745 228.461192 
L 465.425225 229.750832 
L 465.628184 228.208334 
L 466.034104 231.067722 
L 466.237064 231.785896 
L 466.338544 228.844096 
L 466.541504 230.334878 
L 466.642984 228.749656 
L 466.744464 228.861361 
L 466.947423 231.526251 
L 467.150383 230.172447 
L 467.251863 229.980863 
L 467.454823 228.846245 
L 467.556303 230.914496 
L 467.657783 230.549776 
L 467.962223 226.401526 
L 468.063702 227.277806 
L 468.368142 231.178341 
L 468.571102 229.189925 
L 468.672582 228.930298 
L 468.875542 230.838813 
L 469.078502 229.631106 
L 469.179982 229.781127 
L 469.281461 229.002435 
L 469.382941 225.867925 
L 469.585901 230.021644 
L 469.788861 228.529678 
L 469.890341 228.707602 
L 469.890341 228.707602 
" clip-path="url(#pa65cbd7b16)" style="fill: none; stroke: #4682b4; stroke-linecap: square"/>
   </g>
   <g id="patch_3">
    <path d="M 43.78125 244.078125 
L 43.78125 22.318125 
" style="fill: none; stroke: #000000; stroke-width: 0.8; stroke-linejoin: miter; stroke-linecap: square"/>
   </g>
   <g id="patch_4">
    <path d="M 490.18125 244.078125 
L 490.18125 22.318125 
" style="fill: none; stroke: #000000; stroke-width: 0.8; stroke-linejoin: miter; stroke-linecap: square"/>
   </g>
   <g id="patch_5">
    <path d="M 43.78125 244.078125 
L 490.18125 244.078125 
" style="fill: none; stroke: #000000; stroke-width: 0.8; stroke-linejoin: miter; stroke-linecap: square"/>
   </g>
   <g id="patch_6">
    <path d="M 43.78125 22.318125 
L 490.18125 22.318125 
" style="fill: none; stroke: #000000; stroke-width: 0.8; stroke-linejoin: miter; stroke-linecap: square"/>
   </g>
   <g id="text_17">
    <!-- SV 11  —  Code-Phase Slice  (Doppler = +2500 Hz) -->
    <g transform="translate(113.47875 16.318125) scale(0.12 -0.12)">
     <defs>
      <path id="DejaVuSans-53" d="M 3425 4513 
L 3425 3897 
Q 3066 4069 2747 4153 
Q 2428 4238 2131 4238 
Q 1616 4238 1336 4038 
Q 1056 3838 1056 3469 
Q 1056 3159 1242 3001 
Q 1428 2844 1947 2747 
L 2328 2669 
Q 3034 2534 3370 2195 
Q 3706 1856 3706 1288 
Q 3706 609 3251 259 
Q 2797 -91 1919 -91 
Q 1588 -91 1214 -16 
Q 841 59 441 206 
L 441 856 
Q 825 641 1194 531 
Q 1563 422 1919 422 
Q 2459 422 2753 634 
Q 3047 847 3047 1241 
Q 3047 1584 2836 1778 
Q 2625 1972 2144 2069 
L 1759 2144 
Q 1053 2284 737 2584 
Q 422 2884 422 3419 
Q 422 4038 858 4394 
Q 1294 4750 2059 4750 
Q 2388 4750 2728 4690 
Q 3069 4631 3425 4513 
z
" transform="scale(0.015625)"/>
      <path id="DejaVuSans-56" d="M 1831 0 
L 50 4666 
L 709 4666 
L 2188 738 
L 3669 4666 
L 4325 4666 
L 2547 0 
L 1831 0 
z
" transform="scale(0.015625)"/>
      <path id="DejaVuSans-2014" d="M 313 1978 
L 6088 1978 
L 6088 1528 
L 313 1528 
L 313 1978 
z
" transform="scale(0.015625)"/>
      <path id="DejaVuSans-2d" d="M 313 2009 
L 1997 2009 
L 1997 1497 
L 313 1497 
L 313 2009 
z
" transform="scale(0.015625)"/>
      <path id="DejaVuSans-44" d="M 1259 4147 
L 1259 519 
L 2022 519 
Q 2988 519 3436 956 
Q 3884 1394 3884 2338 
Q 3884 3275 3436 3711 
Q 2988 4147 2022 4147 
L 1259 4147 
z
M 628 4666 
L 1925 4666 
Q 3281 4666 3915 4102 
Q 4550 3538 4550 2338 
Q 4550 1131 3912 565 
Q 3275 0 1925 0 
L 628 0 
L 628 4666 
z
" transform="scale(0.015625)"/>
      <path id="DejaVuSans-3d" d="M 678 2906 
L 4684 2906 
L 4684 2381 
L 678 2381 
L 678 2906 
z
M 678 1631 
L 4684 1631 
L 4684 1100 
L 678 1100 
L 678 1631 
z
" transform="scale(0.015625)"/>
      <path id="DejaVuSans-2b" d="M 2944 4013 
L 2944 2272 
L 4684 2272 
L 4684 1741 
L 2944 1741 
L 2944 0 
L 2419 0 
L 2419 1741 
L 678 1741 
L 678 2272 
L 2419 2272 
L 2419 4013 
L 2944 4013 
z
" transform="scale(0.015625)"/>
      <path id="DejaVuSans-48" d="M 628 4666 
L 1259 4666 
L 1259 2753 
L 3553 2753 
L 3553 4666 
L 4184 4666 
L 4184 0 
L 3553 0 
L 3553 2222 
L 1259 2222 
L 1259 0 
L 628 0 
L 628 4666 
z
" transform="scale(0.015625)"/>
      <path id="DejaVuSans-7a" d="M 353 3500 
L 3084 3500 
L 3084 2975 
L 922 459 
L 3084 459 
L 3084 0 
L 275 0 
L 275 525 
L 2438 3041 
L 353 3041 
L 353 3500 
z
" transform="scale(0.015625)"/>
     </defs>
     <use xlink:href="#DejaVuSans-53"/>
     <use xlink:href="#DejaVuSans-56" transform="translate(63.476562 0)"/>
     <use xlink:href="#DejaVuSans-20" transform="translate(131.884766 0)"/>
     <use xlink:href="#DejaVuSans-31" transform="translate(163.671875 0)"/>
     <use xlink:href="#DejaVuSans-31" transform="translate(227.294922 0)"/>
     <use xlink:href="#DejaVuSans-20" transform="translate(290.917969 0)"/>
     <use xlink:href="#DejaVuSans-20" transform="translate(322.705078 0)"/>
     <use xlink:href="#DejaVuSans-2014" transform="translate(354.492188 0)"/>
     <use xlink:href="#DejaVuSans-20" transform="translate(454.492188 0)"/>
     <use xlink:href="#DejaVuSans-20" transform="translate(486.279297 0)"/>
     <use xlink:href="#DejaVuSans-43" transform="translate(518.066406 0)"/>
     <use xlink:href="#DejaVuSans-6f" transform="translate(587.890625 0)"/>
     <use xlink:href="#DejaVuSans-64" transform="translate(649.072266 0)"/>
     <use xlink:href="#DejaVuSans-65" transform="translate(712.548828 0)"/>
     <use xlink:href="#DejaVuSans-2d" transform="translate(774.072266 0)"/>
     <use xlink:href="#DejaVuSans-50" transform="translate(810.15625 0)"/>
     <use xlink:href="#DejaVuSans-68" transform="translate(870.458984 0)"/>
     <use xlink:href="#DejaVuSans-61" transform="translate(933.837891 0)"/>
     <use xlink:href="#DejaVuSans-73" transform="translate(995.117188 0)"/>
     <use xlink:href="#DejaVuSans-65" transform="translate(1047.216797 0)"/>
     <use xlink:href="#DejaVuSans-20" transform="translate(1108.740234 0)"/>
     <use xlink:href="#DejaVuSans-53" transform="translate(1140.527344 0)"/>
     <use xlink:href="#DejaVuSans-6c" transform="translate(1204.003906 0)"/>
     <use xlink:href="#DejaVuSans-69" transform="translate(1231.787109 0)"/>
     <use xlink:href="#DejaVuSans-63" transform="translate(1259.570312 0)"/>
     <use xlink:href="#DejaVuSans-65" transform="translate(1314.550781 0)"/>
     <use xlink:href="#DejaVuSans-20" transform="translate(1376.074219 0)"/>
     <use xlink:href="#DejaVuSans-20" transform="translate(1407.861328 0)"/>
     <use xlink:href="#DejaVuSans-28" transform="translate(1439.648438 0)"/>
     <use xlink:href="#DejaVuSans-44" transform="translate(1478.662109 0)"/>
     <use xlink:href="#DejaVuSans-6f" transform="translate(1555.664062 0)"/>
     <use xlink:href="#DejaVuSans-70" transform="translate(1616.845703 0)"/>
     <use xlink:href="#DejaVuSans-70" transform="translate(1680.322266 0)"/>
     <use xlink:href="#DejaVuSans-6c" transform="translate(1743.798828 0)"/>
     <use xlink:href="#DejaVuSans-65" transform="translate(1771.582031 0)"/>
     <use xlink:href="#DejaVuSans-72" transform="translate(1833.105469 0)"/>
     <use xlink:href="#DejaVuSans-20" transform="translate(1874.21875 0)"/>
     <use xlink:href="#DejaVuSans-3d" transform="translate(1906.005859 0)"/>
     <use xlink:href="#DejaVuSans-20" transform="translate(1989.794922 0)"/>
     <use xlink:href="#DejaVuSans-2b" transform="translate(2021.582031 0)"/>
     <use xlink:href="#DejaVuSans-32" transform="translate(2105.371094 0)"/>
     <use xlink:href="#DejaVuSans-35" transform="translate(2168.994141 0)"/>
     <use xlink:href="#DejaVuSans-30" transform="translate(2232.617188 0)"/>
     <use xlink:href="#DejaVuSans-30" transform="translate(2296.240234 0)"/>
     <use xlink:href="#DejaVuSans-20" transform="translate(2359.863281 0)"/>
     <use xlink:href="#DejaVuSans-48" transform="translate(2391.650391 0)"/>
     <use xlink:href="#DejaVuSans-7a" transform="translate(2466.845703 0)"/>
     <use xlink:href="#DejaVuSans-29" transform="translate(2519.335938 0)"/>
    </g>
   </g>
   <g id="legend_1">
    <g id="patch_7">
     <path d="M 481.38125 32.718125 
L 484.58125 32.718125 
Q 486.18125 32.718125 486.18125 31.118125 
L 486.18125 27.918125 
Q 486.18125 26.318125 484.58125 26.318125 
L 481.38125 26.318125 
Q 479.78125 26.318125 479.78125 27.918125 
L 479.78125 31.118125 
Q 479.78125 32.718125 481.38125 32.718125 
z
" style="fill: #ffffff; opacity: 0.8; stroke: #cccccc; stroke-linejoin: miter"/>
    </g>
   </g>
  </g>
 </g>
 <defs>
  <clipPath id="pa65cbd7b16">
   <rect x="43.78125" y="22.318125" width="446.4" height="221.76"/>
  </clipPath>
 </defs>
</svg>
