<?xml version="1.0" encoding="utf-8" standalone="no"?>
<!DOCTYPE svg PUBLIC "-//W3C//DTD SVG 1.1//EN"
  "http://www.w3.org/Graphics/SVG/1.1/DTD/svg11.dtd">
<svg xmlns:xlink="http://www.w3.org/1999/xlink" width="329.41825pt" height="318.190125pt" viewBox="0 0 329.41825 318.190125" xmlns="http://www.w3.org/2000/svg" version="1.1">
 <metadata>
  <rdf:RDF xmlns:dc="http://purl.org/dc/elements/1.1/" xmlns:cc="http://creativecommons.org/ns#" xmlns:rdf="http://www.w3.org/1999/02/22-rdf-syntax-ns#">
   <cc:Work>
    <dc:type rdf:resource="http://purl.org/dc/dcmitype/StillImage"/>
    <dc:date>2024-01-22T23:19:34.469208</dc:date>
    <dc:format>image/svg+xml</dc:format>
    <dc:creator>
     <cc:Agent>
      <dc:title>Matplotlib v3.8.0, https://matplotlib.org/</dc:title>
     </cc:Agent>
    </dc:creator>
   </cc:Work>
  </rdf:RDF>
 </metadata>
 <defs>
  <style type="text/css">*{stroke-linejoin: round; stroke-linecap: butt}</style>
 </defs>
 <g id="figure_1">
  <g id="patch_1">
   <path d="M 0 318.190125 
L 329.41825 318.190125 
L 329.41825 0 
L 0 0 
z
" style="fill: #ffffff"/>
  </g>
  <g id="axes_1">
   <g id="patch_2">
    <path d="M 299.35575 159.095062 
C 299.35575 141.622309 295.913998 124.319455 289.227465 108.176736 
C 282.540932 92.034016 272.739653 77.365365 260.38455 65.010263 
C 248.029447 52.65516 233.360796 42.853881 217.218077 36.167347 
C 201.075357 29.480814 183.772504 26.039062 166.29975 26.039062 
C 148.826996 26.039062 131.524143 29.480814 115.381423 36.167347 
C 99.238704 42.853881 84.570053 52.65516 72.21495 65.010263 
C 59.859847 77.365365 50.058568 92.034016 43.372035 108.176736 
C 36.685502 124.319455 33.24375 141.622309 33.24375 159.095062 
C 33.24375 176.567816 36.685502 193.87067 43.372035 210.013389 
C 50.058568 226.156109 59.859847 240.82476 72.21495 253.179862 
C 84.570053 265.534965 99.238704 275.336244 115.381423 282.022778 
C 131.524143 288.709311 148.826996 292.151062 166.29975 292.151062 
C 183.772504 292.151062 201.075357 288.709311 217.218077 282.022778 
C 233.360796 275.336244 248.029447 265.534965 260.38455 253.179862 
C 272.739653 240.82476 282.540932 226.156109 289.227465 210.013389 
C 295.913998 193.87067 299.35575 176.567816 299.35575 159.095062 
M 166.29975 159.095062 
C 166.29975 159.095062 166.29975 159.095062 166.29975 159.095062 
C 166.29975 159.095062 166.29975 159.095062 166.29975 159.095062 
C 166.29975 159.095062 166.29975 159.095062 166.29975 159.095062 
C 166.29975 159.095062 166.29975 159.095062 166.29975 159.095062 
C 166.29975 159.095062 166.29975 159.095062 166.29975 159.095062 
C 166.29975 159.095062 166.29975 159.095062 166.29975 159.095062 
C 166.29975 159.095062 166.29975 159.095062 166.29975 159.095062 
C 166.29975 159.095062 166.29975 159.095062 166.29975 159.095062 
C 166.29975 159.095062 166.29975 159.095062 166.29975 159.095062 
C 166.29975 159.095062 166.29975 159.095062 166.29975 159.095062 
C 166.29975 159.095062 166.29975 159.095062 166.29975 159.095062 
C 166.29975 159.095062 166.29975 159.095062 166.29975 159.095062 
C 166.29975 159.095062 166.29975 159.095062 166.29975 159.095062 
C 166.29975 159.095062 166.29975 159.095062 166.29975 159.095062 
C 166.29975 159.095062 166.29975 159.095062 166.29975 159.095062 
C 166.29975 159.095062 166.29975 159.095062 166.29975 159.095062 
z
" style="fill: #ffffff"/>
   </g>
   <g id="matplotlib.axis_1">
    <g id="xtick_1">
     <g id="line2d_1">
      <path d="M 166.29975 159.095062 
L 166.29975 26.039062 
" clip-path="url(#p632501c347)" style="fill: none; stroke: #b0b0b0; stroke-width: 0.8; stroke-linecap: square"/>
     </g>
     <g id="text_1">
      <!-- 0° -->
      <g transform="translate(160.6185 14.798437) scale(0.1 -0.1)">
       <defs>
        <path id="DejaVuSans-30" d="M 2034 4250 
Q 1547 4250 1301 3770 
Q 1056 3291 1056 2328 
Q 1056 1369 1301 889 
Q 1547 409 2034 409 
Q 2525 409 2770 889 
Q 3016 1369 3016 2328 
Q 3016 3291 2770 3770 
Q 2525 4250 2034 4250 
z
M 2034 4750 
Q 2819 4750 3233 4129 
Q 3647 3509 3647 2328 
Q 3647 1150 3233 529 
Q 2819 -91 2034 -91 
Q 1250 -91 836 529 
Q 422 1150 422 2328 
Q 422 3509 836 4129 
Q 1250 4750 2034 4750 
z
" transform="scale(0.015625)"/>
        <path id="DejaVuSans-b0" d="M 1600 4347 
Q 1350 4347 1178 4173 
Q 1006 4000 1006 3750 
Q 1006 3503 1178 3333 
Q 1350 3163 1600 3163 
Q 1850 3163 2022 3333 
Q 2194 3503 2194 3750 
Q 2194 3997 2020 4172 
Q 1847 4347 1600 4347 
z
M 1600 4750 
Q 1800 4750 1984 4673 
Q 2169 4597 2303 4453 
Q 2447 4313 2519 4134 
Q 2591 3956 2591 3750 
Q 2591 3338 2302 3052 
Q 2013 2766 1594 2766 
Q 1172 2766 890 3047 
Q 609 3328 609 3750 
Q 609 4169 896 4459 
Q 1184 4750 1600 4750 
z
" transform="scale(0.015625)"/>
       </defs>
       <use xlink:href="#DejaVuSans-30"/>
       <use xlink:href="#DejaVuSans-b0" x="63.623047"/>
      </g>
     </g>
    </g>
    <g id="xtick_2">
     <g id="line2d_2">
      <path d="M 166.29975 159.095062 
L 260.38455 65.010263 
" clip-path="url(#p632501c347)" style="fill: none; stroke: #b0b0b0; stroke-width: 0.8; stroke-linecap: square"/>
     </g>
     <g id="text_2">
      <!-- 45° -->
      <g transform="translate(261.421545 57.870143) scale(0.1 -0.1)">
       <defs>
        <path id="DejaVuSans-34" d="M 2419 4116 
L 825 1625 
L 2419 1625 
L 2419 4116 
z
M 2253 4666 
L 3047 4666 
L 3047 1625 
L 3713 1625 
L 3713 1100 
L 3047 1100 
L 3047 0 
L 2419 0 
L 2419 1100 
L 313 1100 
L 313 1709 
L 2253 4666 
z
" transform="scale(0.015625)"/>
        <path id="DejaVuSans-35" d="M 691 4666 
L 3169 4666 
L 3169 4134 
L 1269 4134 
L 1269 2991 
Q 1406 3038 1543 3061 
Q 1681 3084 1819 3084 
Q 2600 3084 3056 2656 
Q 3513 2228 3513 1497 
Q 3513 744 3044 326 
Q 2575 -91 1722 -91 
Q 1428 -91 1123 -41 
Q 819 9 494 109 
L 494 744 
Q 775 591 1075 516 
Q 1375 441 1709 441 
Q 2250 441 2565 725 
Q 2881 1009 2881 1497 
Q 2881 1984 2565 2268 
Q 2250 2553 1709 2553 
Q 1456 2553 1204 2497 
Q 953 2441 691 2322 
L 691 4666 
z
" transform="scale(0.015625)"/>
       </defs>
       <use xlink:href="#DejaVuSans-34"/>
       <use xlink:href="#DejaVuSans-35" x="63.623047"/>
       <use xlink:href="#DejaVuSans-b0" x="127.246094"/>
      </g>
     </g>
    </g>
    <g id="xtick_3">
     <g id="line2d_3">
      <path d="M 166.29975 159.095062 
L 299.35575 159.095062 
" clip-path="url(#p632501c347)" style="fill: none; stroke: #b0b0b0; stroke-width: 0.8; stroke-linecap: square"/>
     </g>
     <g id="text_3">
      <!-- 90° -->
      <g transform="translate(304.49325 161.854437) scale(0.1 -0.1)">
       <defs>
        <path id="DejaVuSans-39" d="M 703 97 
L 703 672 
Q 941 559 1184 500 
Q 1428 441 1663 441 
Q 2288 441 2617 861 
Q 2947 1281 2994 2138 
Q 2813 1869 2534 1725 
Q 2256 1581 1919 1581 
Q 1219 1581 811 2004 
Q 403 2428 403 3163 
Q 403 3881 828 4315 
Q 1253 4750 1959 4750 
Q 2769 4750 3195 4129 
Q 3622 3509 3622 2328 
Q 3622 1225 3098 567 
Q 2575 -91 1691 -91 
Q 1453 -91 1209 -44 
Q 966 3 703 97 
z
M 1959 2075 
Q 2384 2075 2632 2365 
Q 2881 2656 2881 3163 
Q 2881 3666 2632 3958 
Q 2384 4250 1959 4250 
Q 1534 4250 1286 3958 
Q 1038 3666 1038 3163 
Q 1038 2656 1286 2365 
Q 1534 2075 1959 2075 
z
" transform="scale(0.015625)"/>
       </defs>
       <use xlink:href="#DejaVuSans-39"/>
       <use xlink:href="#DejaVuSans-30" x="63.623047"/>
       <use xlink:href="#DejaVuSans-b0" x="127.246094"/>
      </g>
     </g>
    </g>
    <g id="xtick_4">
     <g id="line2d_4">
      <path d="M 166.29975 159.095062 
L 260.38455 253.179862 
" clip-path="url(#p632501c347)" style="fill: none; stroke: #b0b0b0; stroke-width: 0.8; stroke-linecap: square"/>
     </g>
     <g id="text_4">
      <!-- 135° -->
      <g transform="translate(258.240295 265.838732) scale(0.1 -0.1)">
       <defs>
        <path id="DejaVuSans-31" d="M 794 531 
L 1825 531 
L 1825 4091 
L 703 3866 
L 703 4441 
L 1819 4666 
L 2450 4666 
L 2450 531 
L 3481 531 
L 3481 0 
L 794 0 
L 794 531 
z
" transform="scale(0.015625)"/>
        <path id="DejaVuSans-33" d="M 2597 2516 
Q 3050 2419 3304 2112 
Q 3559 1806 3559 1356 
Q 3559 666 3084 287 
Q 2609 -91 1734 -91 
Q 1441 -91 1130 -33 
Q 819 25 488 141 
L 488 750 
Q 750 597 1062 519 
Q 1375 441 1716 441 
Q 2309 441 2620 675 
Q 2931 909 2931 1356 
Q 2931 1769 2642 2001 
Q 2353 2234 1838 2234 
L 1294 2234 
L 1294 2753 
L 1863 2753 
Q 2328 2753 2575 2939 
Q 2822 3125 2822 3475 
Q 2822 3834 2567 4026 
Q 2313 4219 1838 4219 
Q 1578 4219 1281 4162 
Q 984 4106 628 3988 
L 628 4550 
Q 988 4650 1302 4700 
Q 1616 4750 1894 4750 
Q 2613 4750 3031 4423 
Q 3450 4097 3450 3541 
Q 3450 3153 3228 2886 
Q 3006 2619 2597 2516 
z
" transform="scale(0.015625)"/>
       </defs>
       <use xlink:href="#DejaVuSans-31"/>
       <use xlink:href="#DejaVuSans-33" x="63.623047"/>
       <use xlink:href="#DejaVuSans-35" x="127.246094"/>
       <use xlink:href="#DejaVuSans-b0" x="190.869141"/>
      </g>
     </g>
    </g>
    <g id="xtick_5">
     <g id="line2d_5">
      <path d="M 166.29975 159.095062 
L 166.29975 292.151062 
" clip-path="url(#p632501c347)" style="fill: none; stroke: #b0b0b0; stroke-width: 0.8; stroke-linecap: square"/>
     </g>
     <g id="text_5">
      <!-- 180° -->
      <g transform="translate(154.256 308.910437) scale(0.1 -0.1)">
       <defs>
        <path id="DejaVuSans-38" d="M 2034 2216 
Q 1584 2216 1326 1975 
Q 1069 1734 1069 1313 
Q 1069 891 1326 650 
Q 1584 409 2034 409 
Q 2484 409 2743 651 
Q 3003 894 3003 1313 
Q 3003 1734 2745 1975 
Q 2488 2216 2034 2216 
z
M 1403 2484 
Q 997 2584 770 2862 
Q 544 3141 544 3541 
Q 544 4100 942 4425 
Q 1341 4750 2034 4750 
Q 2731 4750 3128 4425 
Q 3525 4100 3525 3541 
Q 3525 3141 3298 2862 
Q 3072 2584 2669 2484 
Q 3125 2378 3379 2068 
Q 3634 1759 3634 1313 
Q 3634 634 3220 271 
Q 2806 -91 2034 -91 
Q 1263 -91 848 271 
Q 434 634 434 1313 
Q 434 1759 690 2068 
Q 947 2378 1403 2484 
z
M 1172 3481 
Q 1172 3119 1398 2916 
Q 1625 2713 2034 2713 
Q 2441 2713 2670 2916 
Q 2900 3119 2900 3481 
Q 2900 3844 2670 4047 
Q 2441 4250 2034 4250 
Q 1625 4250 1398 4047 
Q 1172 3844 1172 3481 
z
" transform="scale(0.015625)"/>
       </defs>
       <use xlink:href="#DejaVuSans-31"/>
       <use xlink:href="#DejaVuSans-38" x="63.623047"/>
       <use xlink:href="#DejaVuSans-30" x="127.246094"/>
       <use xlink:href="#DejaVuSans-b0" x="190.869141"/>
      </g>
     </g>
    </g>
    <g id="xtick_6">
     <g id="line2d_6">
      <path d="M 166.29975 159.095062 
L 72.21495 253.179862 
" clip-path="url(#p632501c347)" style="fill: none; stroke: #b0b0b0; stroke-width: 0.8; stroke-linecap: square"/>
     </g>
     <g id="text_6">
      <!-- 225° -->
      <g transform="translate(50.271705 265.838732) scale(0.1 -0.1)">
       <defs>
        <path id="DejaVuSans-32" d="M 1228 531 
L 3431 531 
L 3431 0 
L 469 0 
L 469 531 
Q 828 903 1448 1529 
Q 2069 2156 2228 2338 
Q 2531 2678 2651 2914 
Q 2772 3150 2772 3378 
Q 2772 3750 2511 3984 
Q 2250 4219 1831 4219 
Q 1534 4219 1204 4116 
Q 875 4013 500 3803 
L 500 4441 
Q 881 4594 1212 4672 
Q 1544 4750 1819 4750 
Q 2544 4750 2975 4387 
Q 3406 4025 3406 3419 
Q 3406 3131 3298 2873 
Q 3191 2616 2906 2266 
Q 2828 2175 2409 1742 
Q 1991 1309 1228 531 
z
" transform="scale(0.015625)"/>
       </defs>
       <use xlink:href="#DejaVuSans-32"/>
       <use xlink:href="#DejaVuSans-32" x="63.623047"/>
       <use xlink:href="#DejaVuSans-35" x="127.246094"/>
       <use xlink:href="#DejaVuSans-b0" x="190.869141"/>
      </g>
     </g>
    </g>
    <g id="xtick_7">
     <g id="line2d_7">
      <path d="M 166.29975 159.095062 
L 33.24375 159.095062 
" clip-path="url(#p632501c347)" style="fill: none; stroke: #b0b0b0; stroke-width: 0.8; stroke-linecap: square"/>
     </g>
     <g id="text_7">
      <!-- 270° -->
      <g transform="translate(7.2 161.854437) scale(0.1 -0.1)">
       <defs>
        <path id="DejaVuSans-37" d="M 525 4666 
L 3525 4666 
L 3525 4397 
L 1831 0 
L 1172 0 
L 2766 4134 
L 525 4134 
L 525 4666 
z
" transform="scale(0.015625)"/>
       </defs>
       <use xlink:href="#DejaVuSans-32"/>
       <use xlink:href="#DejaVuSans-37" x="63.623047"/>
       <use xlink:href="#DejaVuSans-30" x="127.246094"/>
       <use xlink:href="#DejaVuSans-b0" x="190.869141"/>
      </g>
     </g>
    </g>
    <g id="xtick_8">
     <g id="line2d_8">
      <path d="M 166.29975 159.095062 
L 72.21495 65.010263 
" clip-path="url(#p632501c347)" style="fill: none; stroke: #b0b0b0; stroke-width: 0.8; stroke-linecap: square"/>
     </g>
     <g id="text_8">
      <!-- 315° -->
      <g transform="translate(50.271705 57.870143) scale(0.1 -0.1)">
       <use xlink:href="#DejaVuSans-33"/>
       <use xlink:href="#DejaVuSans-31" x="63.623047"/>
       <use xlink:href="#DejaVuSans-35" x="127.246094"/>
       <use xlink:href="#DejaVuSans-b0" x="190.869141"/>
      </g>
     </g>
    </g>
   </g>
   <g id="matplotlib.axis_2">
    <g id="ytick_1">
     <g id="line2d_9">
      <path d="M 166.29975 145.795049 
C 168.046292 145.795049 169.775851 146.13908 171.389445 146.807453 
C 173.003039 147.475825 174.469288 148.455542 175.704279 149.690533 
C 176.939271 150.925525 177.918987 152.391774 178.58736 154.005368 
C 179.255732 155.618962 179.599763 157.348521 179.599763 159.095062 
C 179.599763 160.841604 179.255732 162.571163 178.58736 164.184757 
C 177.918987 165.798351 176.939271 167.2646 175.704279 168.499592 
C 174.469288 169.734583 173.003039 170.7143 171.389445 171.382672 
C 169.775851 172.051045 168.046292 172.395076 166.29975 172.395076 
C 164.553208 172.395076 162.823649 172.051045 161.210055 171.382672 
C 159.596461 170.7143 158.130212 169.734583 156.895221 168.499592 
C 155.660229 167.2646 154.680513 165.798351 154.01214 164.184757 
C 153.343768 162.571163 152.999737 160.841604 152.999737 159.095062 
C 152.999737 157.348521 153.343768 155.618962 154.01214 154.005368 
C 154.680513 152.391774 155.660229 150.925525 156.895221 149.690533 
C 158.130212 148.455542 159.596461 147.475825 161.210055 146.807453 
C 162.823649 146.13908 164.553208 145.795049 166.29975 145.795049 
" clip-path="url(#p632501c347)" style="fill: none; stroke: #b0b0b0; stroke-width: 0.8; stroke-linecap: square"/>
     </g>
     <g id="text_9">
      <!-- −8 -->
      <g transform="translate(172.949757 145.497226) scale(0.1 -0.1)">
       <defs>
        <path id="DejaVuSans-2212" d="M 678 2272 
L 4684 2272 
L 4684 1741 
L 678 1741 
L 678 2272 
z
" transform="scale(0.015625)"/>
       </defs>
       <use xlink:href="#DejaVuSans-2212"/>
       <use xlink:href="#DejaVuSans-38" x="83.789062"/>
      </g>
     </g>
    </g>
    <g id="ytick_2">
     <g id="line2d_10">
      <path d="M 166.29975 130.825551 
C 170.012068 130.825551 173.688289 131.556797 177.118024 132.977439 
C 180.547759 134.398082 183.664308 136.480494 186.289313 139.105499 
C 188.914319 141.730505 190.99673 144.847054 192.417373 148.276789 
C 193.838016 151.706524 194.569261 155.382744 194.569261 159.095062 
C 194.569261 162.807381 193.838016 166.483601 192.417373 169.913336 
C 190.99673 173.343071 188.914319 176.45962 186.289313 179.084626 
C 183.664308 181.709631 180.547759 183.792043 177.118024 185.212686 
C 173.688289 186.633328 170.012068 187.364574 166.29975 187.364574 
C 162.587432 187.364574 158.911211 186.633328 155.481476 185.212686 
C 152.051741 183.792043 148.935192 181.709631 146.310187 179.084626 
C 143.685181 176.45962 141.60277 173.343071 140.182127 169.913336 
C 138.761484 166.483601 138.030239 162.807381 138.030239 159.095062 
C 138.030239 155.382744 138.761484 151.706524 140.182127 148.276789 
C 141.60277 144.847054 143.685181 141.730505 146.310187 139.105499 
C 148.935192 136.480494 152.051741 134.398082 155.481476 132.977439 
C 158.911211 131.556797 162.587432 130.825551 166.29975 130.825551 
" clip-path="url(#p632501c347)" style="fill: none; stroke: #b0b0b0; stroke-width: 0.8; stroke-linecap: square"/>
     </g>
     <g id="text_10">
      <!-- −7 -->
      <g transform="translate(180.434506 132.53326) scale(0.1 -0.1)">
       <use xlink:href="#DejaVuSans-2212"/>
       <use xlink:href="#DejaVuSans-37" x="83.789062"/>
      </g>
     </g>
    </g>
    <g id="ytick_3">
     <g id="line2d_11">
      <path d="M 166.29975 115.856053 
C 171.977845 115.856053 177.600727 116.974514 182.846603 119.147426 
C 188.092478 121.320339 192.859328 124.505446 196.874347 128.520465 
C 200.889366 132.535485 204.074473 137.302334 206.247386 142.54821 
C 208.420299 147.794085 209.53876 153.416968 209.53876 159.095062 
C 209.53876 164.773157 208.420299 170.39604 206.247386 175.641915 
C 204.074473 180.887791 200.889366 185.65464 196.874347 189.66966 
C 192.859328 193.684679 188.092478 196.869786 182.846603 199.042699 
C 177.600727 201.215611 171.977845 202.334072 166.29975 202.334072 
C 160.621655 202.334072 154.998773 201.215611 149.752897 199.042699 
C 144.507022 196.869786 139.740172 193.684679 135.725153 189.66966 
C 131.710134 185.65464 128.525027 180.887791 126.352114 175.641915 
C 124.179201 170.39604 123.06074 164.773157 123.06074 159.095062 
C 123.06074 153.416968 124.179201 147.794085 126.352114 142.54821 
C 128.525027 137.302334 131.710134 132.535485 135.725153 128.520465 
C 139.740172 124.505446 144.507022 121.320339 149.752897 119.147426 
C 154.998773 116.974514 160.621655 115.856053 166.29975 115.856053 
" clip-path="url(#p632501c347)" style="fill: none; stroke: #b0b0b0; stroke-width: 0.8; stroke-linecap: square"/>
     </g>
     <g id="text_11">
      <!-- −6 -->
      <g transform="translate(187.919255 119.569294) scale(0.1 -0.1)">
       <defs>
        <path id="DejaVuSans-36" d="M 2113 2584 
Q 1688 2584 1439 2293 
Q 1191 2003 1191 1497 
Q 1191 994 1439 701 
Q 1688 409 2113 409 
Q 2538 409 2786 701 
Q 3034 994 3034 1497 
Q 3034 2003 2786 2293 
Q 2538 2584 2113 2584 
z
M 3366 4563 
L 3366 3988 
Q 3128 4100 2886 4159 
Q 2644 4219 2406 4219 
Q 1781 4219 1451 3797 
Q 1122 3375 1075 2522 
Q 1259 2794 1537 2939 
Q 1816 3084 2150 3084 
Q 2853 3084 3261 2657 
Q 3669 2231 3669 1497 
Q 3669 778 3244 343 
Q 2819 -91 2113 -91 
Q 1303 -91 875 529 
Q 447 1150 447 2328 
Q 447 3434 972 4092 
Q 1497 4750 2381 4750 
Q 2619 4750 2861 4703 
Q 3103 4656 3366 4563 
z
" transform="scale(0.015625)"/>
       </defs>
       <use xlink:href="#DejaVuSans-2212"/>
       <use xlink:href="#DejaVuSans-36" x="83.789062"/>
      </g>
     </g>
    </g>
    <g id="ytick_4">
     <g id="line2d_12">
      <path d="M 166.29975 100.886554 
C 173.943621 100.886554 181.513166 102.39223 188.575182 105.317413 
C 195.637198 108.242596 202.054348 112.530398 207.459381 117.935432 
C 212.864414 123.340465 217.152216 129.757615 220.077399 136.819631 
C 223.002582 143.881647 224.508258 151.451191 224.508258 159.095062 
C 224.508258 166.738934 223.002582 174.308478 220.077399 181.370494 
C 217.152216 188.43251 212.864414 194.84966 207.459381 200.254693 
C 202.054348 205.659727 195.637198 209.947529 188.575182 212.872712 
C 181.513166 215.797895 173.943621 217.303571 166.29975 217.303571 
C 158.655879 217.303571 151.086334 215.797895 144.024318 212.872712 
C 136.962302 209.947529 130.545152 205.659727 125.140119 200.254693 
C 119.735086 194.84966 115.447284 188.43251 112.522101 181.370494 
C 109.596918 174.308478 108.091242 166.738934 108.091242 159.095062 
C 108.091242 151.451191 109.596918 143.881647 112.522101 136.819631 
C 115.447284 129.757615 119.735086 123.340465 125.140119 117.935432 
C 130.545152 112.530398 136.962302 108.242596 144.024318 105.317413 
C 151.086334 102.39223 158.655879 100.886554 166.29975 100.886554 
" clip-path="url(#p632501c347)" style="fill: none; stroke: #b0b0b0; stroke-width: 0.8; stroke-linecap: square"/>
     </g>
     <g id="text_12">
      <!-- −5 -->
      <g transform="translate(195.404004 106.605328) scale(0.1 -0.1)">
       <use xlink:href="#DejaVuSans-2212"/>
       <use xlink:href="#DejaVuSans-35" x="83.789062"/>
      </g>
     </g>
    </g>
    <g id="ytick_5">
     <g id="line2d_13">
      <path d="M 166.29975 85.917056 
C 175.909398 85.917056 185.425604 87.809947 194.303761 91.4874 
C 203.181918 95.164853 211.249368 100.555351 218.044415 107.350398 
C 224.839462 114.145445 230.229959 122.212895 233.907412 131.091052 
C 237.584865 139.969209 239.477757 149.485415 239.477757 159.095062 
C 239.477757 168.70471 237.584865 178.220916 233.907412 187.099073 
C 230.229959 195.97723 224.839462 204.04468 218.044415 210.839727 
C 211.249368 217.634774 203.181918 223.025272 194.303761 226.702725 
C 185.425604 230.380178 175.909398 232.273069 166.29975 232.273069 
C 156.690102 232.273069 147.173896 230.380178 138.295739 226.702725 
C 129.417582 223.025272 121.350132 217.634774 114.555085 210.839727 
C 107.760038 204.04468 102.369541 195.97723 98.692088 187.099073 
C 95.014635 178.220916 93.121743 168.70471 93.121743 159.095062 
C 93.121743 149.485415 95.014635 139.969209 98.692088 131.091052 
C 102.369541 122.212895 107.760038 114.145445 114.555085 107.350398 
C 121.350132 100.555351 129.417582 95.164853 138.295739 91.4874 
C 147.173896 87.809947 156.690102 85.917056 166.29975 85.917056 
" clip-path="url(#p632501c347)" style="fill: none; stroke: #b0b0b0; stroke-width: 0.8; stroke-linecap: square"/>
     </g>
     <g id="text_13">
      <!-- −4 -->
      <g transform="translate(202.888753 93.641362) scale(0.1 -0.1)">
       <use xlink:href="#DejaVuSans-2212"/>
       <use xlink:href="#DejaVuSans-34" x="83.789062"/>
      </g>
     </g>
    </g>
    <g id="ytick_6">
     <g id="line2d_14">
      <path d="M 166.29975 70.947558 
C 177.875174 70.947558 189.338042 73.227664 200.03234 77.657387 
C 210.726637 82.08711 220.444387 88.580303 228.629448 96.765364 
C 236.814509 104.950425 243.307703 114.668175 247.737426 125.362473 
C 252.167149 136.05677 254.447255 147.519638 254.447255 159.095062 
C 254.447255 170.670487 252.167149 182.133355 247.737426 192.827652 
C 243.307703 203.52195 236.814509 213.2397 228.629448 221.424761 
C 220.444387 229.609822 210.726637 236.103015 200.03234 240.532738 
C 189.338042 244.962461 177.875174 247.242567 166.29975 247.242567 
C 154.724326 247.242567 143.261458 244.962461 132.56716 240.532738 
C 121.872863 236.103015 112.155113 229.609822 103.970052 221.424761 
C 95.784991 213.2397 89.291797 203.52195 84.862074 192.827652 
C 80.432351 182.133355 78.152245 170.670487 78.152245 159.095062 
C 78.152245 147.519638 80.432351 136.05677 84.862074 125.362473 
C 89.291797 114.668175 95.784991 104.950425 103.970052 96.765364 
C 112.155113 88.580303 121.872863 82.08711 132.56716 77.657387 
C 143.261458 73.227664 154.724326 70.947558 166.29975 70.947558 
" clip-path="url(#p632501c347)" style="fill: none; stroke: #b0b0b0; stroke-width: 0.8; stroke-linecap: square"/>
     </g>
     <g id="text_14">
      <!-- −3 -->
      <g transform="translate(210.373502 80.677396) scale(0.1 -0.1)">
       <use xlink:href="#DejaVuSans-2212"/>
       <use xlink:href="#DejaVuSans-33" x="83.789062"/>
      </g>
     </g>
    </g>
    <g id="ytick_7">
     <g id="line2d_15">
      <path d="M 166.29975 55.978059 
C 179.840951 55.978059 193.25048 58.645381 205.760919 63.827374 
C 218.271357 69.009367 229.639407 76.605255 239.214482 86.18033 
C 248.789557 95.755405 256.385446 107.123455 261.567439 119.633894 
C 266.749432 132.144332 269.416753 145.553862 269.416753 159.095062 
C 269.416753 172.636263 266.749432 186.045793 261.567439 198.556231 
C 256.385446 211.06667 248.789557 222.43472 239.214482 232.009795 
C 229.639407 241.58487 218.271357 249.180758 205.760919 254.362751 
C 193.25048 259.544744 179.840951 262.212066 166.29975 262.212066 
C 152.758549 262.212066 139.34902 259.544744 126.838581 254.362751 
C 114.328143 249.180758 102.960093 241.58487 93.385018 232.009795 
C 83.809943 222.43472 76.214054 211.06667 71.032061 198.556231 
C 65.850068 186.045793 63.182747 172.636263 63.182747 159.095062 
C 63.182747 145.553862 65.850068 132.144332 71.032061 119.633894 
C 76.214054 107.123455 83.809943 95.755405 93.385018 86.18033 
C 102.960093 76.605255 114.328143 69.009367 126.838581 63.827374 
C 139.34902 58.645381 152.758549 55.978059 166.29975 55.978059 
" clip-path="url(#p632501c347)" style="fill: none; stroke: #b0b0b0; stroke-width: 0.8; stroke-linecap: square"/>
     </g>
     <g id="text_15">
      <!-- −2 -->
      <g transform="translate(217.858252 67.713431) scale(0.1 -0.1)">
       <use xlink:href="#DejaVuSans-2212"/>
       <use xlink:href="#DejaVuSans-32" x="83.789062"/>
      </g>
     </g>
    </g>
    <g id="ytick_8">
     <g id="line2d_16">
      <path d="M 166.29975 41.008561 
C 181.806727 41.008561 197.162919 44.063097 211.489498 49.997361 
C 225.816077 55.931624 238.834427 64.630208 249.799516 75.595296 
C 260.764605 86.560385 269.463189 99.578736 275.397452 113.905315 
C 281.331715 128.231894 284.386252 143.588085 284.386252 159.095062 
C 284.386252 174.60204 281.331715 189.958231 275.397452 204.28481 
C 269.463189 218.611389 260.764605 231.62974 249.799516 242.594829 
C 238.834427 253.559917 225.816077 262.258501 211.489498 268.192764 
C 197.162919 274.127028 181.806727 277.181564 166.29975 277.181564 
C 150.792773 277.181564 135.436581 274.127028 121.110002 268.192764 
C 106.783423 262.258501 93.765073 253.559917 82.799984 242.594829 
C 71.834895 231.62974 63.136311 218.611389 57.202048 204.28481 
C 51.267785 189.958231 48.213248 174.60204 48.213248 159.095062 
C 48.213248 143.588085 51.267785 128.231894 57.202048 113.905315 
C 63.136311 99.578736 71.834895 86.560385 82.799984 75.595296 
C 93.765073 64.630208 106.783423 55.931624 121.110002 49.997361 
C 135.436581 44.063097 150.792773 41.008561 166.29975 41.008561 
" clip-path="url(#p632501c347)" style="fill: none; stroke: #b0b0b0; stroke-width: 0.8; stroke-linecap: square"/>
     </g>
     <g id="text_16">
      <!-- −1 -->
      <g transform="translate(225.343001 54.749465) scale(0.1 -0.1)">
       <use xlink:href="#DejaVuSans-2212"/>
       <use xlink:href="#DejaVuSans-31" x="83.789062"/>
      </g>
     </g>
    </g>
    <g id="ytick_9">
     <g id="line2d_17">
      <path d="M 166.29975 26.039062 
C 183.772504 26.039062 201.075357 29.480814 217.218077 36.167347 
C 233.360796 42.853881 248.029447 52.65516 260.38455 65.010263 
C 272.739653 77.365365 282.540932 92.034016 289.227465 108.176736 
C 295.913998 124.319455 299.35575 141.622309 299.35575 159.095062 
C 299.35575 176.567816 295.913998 193.87067 289.227465 210.013389 
C 282.540932 226.156109 272.739653 240.82476 260.38455 253.179862 
C 248.029447 265.534965 233.360796 275.336244 217.218077 282.022778 
C 201.075357 288.709311 183.772504 292.151062 166.29975 292.151062 
C 148.826996 292.151062 131.524143 288.709311 115.381423 282.022778 
C 99.238704 275.336244 84.570053 265.534965 72.21495 253.179862 
C 59.859847 240.82476 50.058568 226.156109 43.372035 210.013389 
C 36.685502 193.87067 33.24375 176.567816 33.24375 159.095062 
C 33.24375 141.622309 36.685502 124.319455 43.372035 108.176736 
C 50.058568 92.034016 59.859847 77.365365 72.21495 65.010263 
C 84.570053 52.65516 99.238704 42.853881 115.381423 36.167347 
C 131.524143 29.480814 148.826996 26.039062 166.29975 26.039062 
" clip-path="url(#p632501c347)" style="fill: none; stroke: #b0b0b0; stroke-width: 0.8; stroke-linecap: square"/>
     </g>
     <g id="text_17">
      <!-- 0 -->
      <g transform="translate(232.82775 41.785499) scale(0.1 -0.1)">
       <use xlink:href="#DejaVuSans-30"/>
      </g>
     </g>
    </g>
   </g>
   <g id="line2d_18">
    <path d="M 166.29975 195.621342 
L 165.342637 189.5204 
L 164.622527 183.299221 
L 164.247744 178.213657 
L 164.085891 173.058607 
L 163.959174 166.611037 
L 163.760381 166.428694 
L 163.459935 166.531452 
L 162.765843 167.113648 
L 160.775509 168.839454 
L 159.670433 169.528136 
L 158.76743 169.870351 
L 158.098602 169.932193 
L 157.563761 169.776234 
L 157.184367 169.419371 
L 156.967796 168.893346 
L 156.912444 168.120428 
L 157.073976 167.112359 
L 157.520461 165.804274 
L 158.356744 164.124642 
L 160.00636 161.000765 
L 160.051569 160.278009 
L 160.014485 158.290203 
L 160.028199 157.303126 
L 159.783399 156.547713 
L 159.075138 155.279857 
L 157.717457 152.83075 
L 157.164605 151.405256 
L 156.925957 150.251345 
L 156.957 149.347012 
L 157.209774 148.73404 
L 157.602597 148.392874 
L 158.149616 148.254664 
L 158.828215 148.334826 
L 159.738289 148.696682 
L 160.844604 149.401625 
L 162.271129 150.612871 
L 163.623193 151.741284 
L 163.87202 151.710297 
L 164.00036 151.458291 
L 164.092545 150.618192 
L 164.083582 147.287985 
L 164.165326 141.779101 
L 164.501242 136.265798 
L 165.123356 130.335446 
L 165.973257 124.48875 
L 167.20926 117.785084 
L 168.532731 111.792225 
L 170.201898 105.239165 
L 172.260977 98.139866 
L 174.751434 90.529024 
L 176.923635 84.523407 
L 179.36832 78.310699 
L 182.089083 71.954975 
L 185.079913 65.545956 
L 188.321158 59.20559 
L 191.774763 53.094139 
L 194.165931 49.245024 
L 196.60001 45.656294 
L 199.046684 42.403988 
L 201.470395 39.567706 
L 203.831266 37.226522 
L 206.086752 35.453654 
L 207.161514 34.800127 
L 208.193979 34.31039 
L 209.1792 33.989253 
L 210.112573 33.840084 
L 210.989924 33.864704 
L 211.807582 34.063321 
L 212.562445 34.434512 
L 213.252022 34.97525 
L 213.874469 35.680979 
L 214.428589 36.545731 
L 214.91383 37.562276 
L 215.678507 40.016615 
L 216.175598 42.968124 
L 216.419566 46.333298 
L 216.430133 50.027007 
L 216.230204 53.967368 
L 215.844058 58.079163 
L 214.968435 64.425336 
L 213.804891 70.825222 
L 212.421116 77.140412 
L 210.8744 83.272457 
L 208.639051 91.052669 
L 206.28529 98.300003 
L 203.879276 104.974383 
L 201.470423 111.068958 
L 198.510698 117.893643 
L 195.6559 123.88549 
L 192.942315 129.109618 
L 189.90661 134.464105 
L 187.136246 138.935468 
L 184.257282 143.189953 
L 181.43755 146.989657 
L 178.35071 150.755347 
L 175.039325 154.409298 
L 173.172334 156.55687 
L 172.735807 157.386786 
L 172.625755 158.081903 
L 172.680145 160.596652 
L 172.92569 161.23875 
L 173.535328 162.108812 
L 175.106086 163.852337 
L 178.720187 167.864909 
L 181.599251 171.408857 
L 184.450142 175.273128 
L 187.356567 179.596416 
L 190.149724 184.136849 
L 193.206539 189.57036 
L 195.935521 194.868136 
L 198.802668 200.940481 
L 201.770322 207.8516 
L 204.181061 214.018234 
L 206.583543 220.765144 
L 208.926519 228.082138 
L 211.141378 235.9238 
L 212.664478 242.091745 
L 214.015809 248.428872 
L 215.136342 254.830603 
L 215.956715 261.151184 
L 216.298601 265.22672 
L 216.448156 269.112775 
L 216.381296 272.732223 
L 216.075727 276.001992 
L 215.512842 278.836848 
L 214.679829 281.154599 
L 214.160119 282.096224 
L 213.571727 282.882293 
L 212.915525 283.506187 
L 212.193033 283.962628 
L 211.406423 284.247811 
L 210.558493 284.359506 
L 209.652639 284.297104 
L 208.692792 284.061624 
L 207.68335 283.655673 
L 206.6291 283.083355 
L 204.406707 281.462746 
L 202.068137 279.257136 
L 199.656259 276.537345 
L 197.211801 273.381522 
L 194.771518 269.869573 
L 192.367084 266.078736 
L 190.024651 262.080511 
L 186.671122 255.831993 
L 183.551595 249.439786 
L 180.694299 243.044341 
L 178.111508 236.750664 
L 175.803983 230.634851 
L 173.142282 222.847108 
L 170.92604 215.550503 
L 169.115756 208.790042 
L 167.667891 202.586458 
L 166.29975 195.621342 
L 166.29975 195.621342 
" clip-path="url(#p632501c347)" style="fill: none; stroke: #1f77b4; stroke-width: 1.5; stroke-linecap: square"/>
   </g>
   <g id="patch_3">
    <path d="M 166.29975 26.039062 
C 148.826996 26.039062 131.524143 29.480814 115.381423 36.167347 
C 99.238704 42.853881 84.570053 52.65516 72.21495 65.010263 
C 59.859847 77.365365 50.058568 92.034016 43.372035 108.176736 
C 36.685502 124.319455 33.24375 141.622309 33.24375 159.095062 
C 33.24375 176.567816 36.685502 193.87067 43.372035 210.013389 
C 50.058568 226.156109 59.859847 240.82476 72.21495 253.179862 
C 84.570053 265.534965 99.238704 275.336244 115.381423 282.022778 
C 131.524143 288.709311 148.826996 292.151062 166.29975 292.151062 
C 183.772504 292.151062 201.075357 288.709311 217.218077 282.022778 
C 233.360796 275.336244 248.029447 265.534965 260.38455 253.179862 
C 272.739653 240.82476 282.540932 226.156109 289.227465 210.013389 
C 295.913998 193.87067 299.35575 176.567816 299.35575 159.095062 
C 299.35575 141.622309 295.913998 124.319455 289.227465 108.176736 
C 282.540932 92.034016 272.739653 77.365365 260.38455 65.010263 
C 248.029447 52.65516 233.360796 42.853881 217.218077 36.167347 
C 201.075357 29.480814 183.772504 26.039062 166.29975 26.039062 
" style="fill: none; stroke: #000000; stroke-width: 0.8; stroke-linejoin: miter; stroke-linecap: square"/>
   </g>
  </g>
 </g>
 <defs>
  <clipPath id="p632501c347">
   <path d="M 299.35575 159.095062 
C 299.35575 141.622309 295.913998 124.319455 289.227465 108.176736 
C 282.540932 92.034016 272.739653 77.365365 260.38455 65.010263 
C 248.029447 52.65516 233.360796 42.853881 217.218077 36.167347 
C 201.075357 29.480814 183.772504 26.039062 166.29975 26.039062 
C 148.826996 26.039062 131.524143 29.480814 115.381423 36.167347 
C 99.238704 42.853881 84.570053 52.65516 72.21495 65.010263 
C 59.859847 77.365365 50.058568 92.034016 43.372035 108.176736 
C 36.685502 124.319455 33.24375 141.622309 33.24375 159.095062 
C 33.24375 176.567816 36.685502 193.87067 43.372035 210.013389 
C 50.058568 226.156109 59.859847 240.82476 72.21495 253.179862 
C 84.570053 265.534965 99.238704 275.336244 115.381423 282.022778 
C 131.524143 288.709311 148.826996 292.151062 166.29975 292.151062 
C 183.772504 292.151062 201.075357 288.709311 217.218077 282.022778 
C 233.360796 275.336244 248.029447 265.534965 260.38455 253.179862 
C 272.739653 240.82476 282.540932 226.156109 289.227465 210.013389 
C 295.913998 193.87067 299.35575 176.567816 299.35575 159.095062 
M 166.29975 159.095062 
C 166.29975 159.095062 166.29975 159.095062 166.29975 159.095062 
C 166.29975 159.095062 166.29975 159.095062 166.29975 159.095062 
C 166.29975 159.095062 166.29975 159.095062 166.29975 159.095062 
C 166.29975 159.095062 166.29975 159.095062 166.29975 159.095062 
C 166.29975 159.095062 166.29975 159.095062 166.29975 159.095062 
C 166.29975 159.095062 166.29975 159.095062 166.29975 159.095062 
C 166.29975 159.095062 166.29975 159.095062 166.29975 159.095062 
C 166.29975 159.095062 166.29975 159.095062 166.29975 159.095062 
C 166.29975 159.095062 166.29975 159.095062 166.29975 159.095062 
C 166.29975 159.095062 166.29975 159.095062 166.29975 159.095062 
C 166.29975 159.095062 166.29975 159.095062 166.29975 159.095062 
C 166.29975 159.095062 166.29975 159.095062 166.29975 159.095062 
C 166.29975 159.095062 166.29975 159.095062 166.29975 159.095062 
C 166.29975 159.095062 166.29975 159.095062 166.29975 159.095062 
C 166.29975 159.095062 166.29975 159.095062 166.29975 159.095062 
C 166.29975 159.095062 166.29975 159.095062 166.29975 159.095062 
z
"/>
  </clipPath>
 </defs>
</svg>
