<?xml version="1.0" encoding="utf-8" standalone="no"?>
<!DOCTYPE svg PUBLIC "-//W3C//DTD SVG 1.1//EN"
  "http://www.w3.org/Graphics/SVG/1.1/DTD/svg11.dtd">
<svg xmlns:xlink="http://www.w3.org/1999/xlink" width="329.41825pt" height="318.190125pt" viewBox="0 0 329.41825 318.190125" xmlns="http://www.w3.org/2000/svg" version="1.1">
 <metadata>
  <rdf:RDF xmlns:dc="http://purl.org/dc/elements/1.1/" xmlns:cc="http://creativecommons.org/ns#" xmlns:rdf="http://www.w3.org/1999/02/22-rdf-syntax-ns#">
   <cc:Work>
    <dc:type rdf:resource="http://purl.org/dc/dcmitype/StillImage"/>
    <dc:date>2024-01-22T23:21:49.003835</dc:date>
    <dc:format>image/svg+xml</dc:format>
    <dc:creator>
     <cc:Agent>
      <dc:title>Matplotlib v3.8.0, https://matplotlib.org/</dc:title>
     </cc:Agent>
    </dc:creator>
   </cc:Work>
  </rdf:RDF>
 </metadata>
 <defs>
  <style type="text/css">*{stroke-linejoin: round; stroke-linecap: butt}</style>
 </defs>
 <g id="figure_1">
  <g id="patch_1">
   <path d="M 0 318.190125 
L 329.41825 318.190125 
L 329.41825 0 
L 0 0 
z
" style="fill: #ffffff"/>
  </g>
  <g id="axes_1">
   <g id="patch_2">
    <path d="M 299.35575 159.095062 
C 299.35575 141.622309 295.913998 124.319455 289.227465 108.176736 
C 282.540932 92.034016 272.739653 77.365365 260.38455 65.010263 
C 248.029447 52.65516 233.360796 42.853881 217.218077 36.167347 
C 201.075357 29.480814 183.772504 26.039062 166.29975 26.039062 
C 148.826996 26.039062 131.524143 29.480814 115.381423 36.167347 
C 99.238704 42.853881 84.570053 52.65516 72.21495 65.010263 
C 59.859847 77.365365 50.058568 92.034016 43.372035 108.176736 
C 36.685502 124.319455 33.24375 141.622309 33.24375 159.095062 
C 33.24375 176.567816 36.685502 193.87067 43.372035 210.013389 
C 50.058568 226.156109 59.859847 240.82476 72.21495 253.179862 
C 84.570053 265.534965 99.238704 275.336244 115.381423 282.022778 
C 131.524143 288.709311 148.826996 292.151062 166.29975 292.151062 
C 183.772504 292.151062 201.075357 288.709311 217.218077 282.022778 
C 233.360796 275.336244 248.029447 265.534965 260.38455 253.179862 
C 272.739653 240.82476 282.540932 226.156109 289.227465 210.013389 
C 295.913998 193.87067 299.35575 176.567816 299.35575 159.095062 
M 166.29975 159.095062 
C 166.29975 159.095062 166.29975 159.095062 166.29975 159.095062 
C 166.29975 159.095062 166.29975 159.095062 166.29975 159.095062 
C 166.29975 159.095062 166.29975 159.095062 166.29975 159.095062 
C 166.29975 159.095062 166.29975 159.095062 166.29975 159.095062 
C 166.29975 159.095062 166.29975 159.095062 166.29975 159.095062 
C 166.29975 159.095062 166.29975 159.095062 166.29975 159.095062 
C 166.29975 159.095062 166.29975 159.095062 166.29975 159.095062 
C 166.29975 159.095062 166.29975 159.095062 166.29975 159.095062 
C 166.29975 159.095062 166.29975 159.095062 166.29975 159.095062 
C 166.29975 159.095062 166.29975 159.095062 166.29975 159.095062 
C 166.29975 159.095062 166.29975 159.095062 166.29975 159.095062 
C 166.29975 159.095062 166.29975 159.095062 166.29975 159.095062 
C 166.29975 159.095062 166.29975 159.095062 166.29975 159.095062 
C 166.29975 159.095062 166.29975 159.095062 166.29975 159.095062 
C 166.29975 159.095062 166.29975 159.095062 166.29975 159.095062 
C 166.29975 159.095062 166.29975 159.095062 166.29975 159.095062 
z
" style="fill: #ffffff"/>
   </g>
   <g id="matplotlib.axis_1">
    <g id="xtick_1">
     <g id="line2d_1">
      <path d="M 166.29975 159.095062 
L 166.29975 26.039062 
" clip-path="url(#p23f77ffb63)" style="fill: none; stroke: #b0b0b0; stroke-width: 0.8; stroke-linecap: square"/>
     </g>
     <g id="text_1">
      <!-- 0° -->
      <g transform="translate(160.6185 14.798437) scale(0.1 -0.1)">
       <defs>
        <path id="DejaVuSans-30" d="M 2034 4250 
Q 1547 4250 1301 3770 
Q 1056 3291 1056 2328 
Q 1056 1369 1301 889 
Q 1547 409 2034 409 
Q 2525 409 2770 889 
Q 3016 1369 3016 2328 
Q 3016 3291 2770 3770 
Q 2525 4250 2034 4250 
z
M 2034 4750 
Q 2819 4750 3233 4129 
Q 3647 3509 3647 2328 
Q 3647 1150 3233 529 
Q 2819 -91 2034 -91 
Q 1250 -91 836 529 
Q 422 1150 422 2328 
Q 422 3509 836 4129 
Q 1250 4750 2034 4750 
z
" transform="scale(0.015625)"/>
        <path id="DejaVuSans-b0" d="M 1600 4347 
Q 1350 4347 1178 4173 
Q 1006 4000 1006 3750 
Q 1006 3503 1178 3333 
Q 1350 3163 1600 3163 
Q 1850 3163 2022 3333 
Q 2194 3503 2194 3750 
Q 2194 3997 2020 4172 
Q 1847 4347 1600 4347 
z
M 1600 4750 
Q 1800 4750 1984 4673 
Q 2169 4597 2303 4453 
Q 2447 4313 2519 4134 
Q 2591 3956 2591 3750 
Q 2591 3338 2302 3052 
Q 2013 2766 1594 2766 
Q 1172 2766 890 3047 
Q 609 3328 609 3750 
Q 609 4169 896 4459 
Q 1184 4750 1600 4750 
z
" transform="scale(0.015625)"/>
       </defs>
       <use xlink:href="#DejaVuSans-30"/>
       <use xlink:href="#DejaVuSans-b0" x="63.623047"/>
      </g>
     </g>
    </g>
    <g id="xtick_2">
     <g id="line2d_2">
      <path d="M 166.29975 159.095062 
L 260.38455 65.010263 
" clip-path="url(#p23f77ffb63)" style="fill: none; stroke: #b0b0b0; stroke-width: 0.8; stroke-linecap: square"/>
     </g>
     <g id="text_2">
      <!-- 45° -->
      <g transform="translate(261.421545 57.870143) scale(0.1 -0.1)">
       <defs>
        <path id="DejaVuSans-34" d="M 2419 4116 
L 825 1625 
L 2419 1625 
L 2419 4116 
z
M 2253 4666 
L 3047 4666 
L 3047 1625 
L 3713 1625 
L 3713 1100 
L 3047 1100 
L 3047 0 
L 2419 0 
L 2419 1100 
L 313 1100 
L 313 1709 
L 2253 4666 
z
" transform="scale(0.015625)"/>
        <path id="DejaVuSans-35" d="M 691 4666 
L 3169 4666 
L 3169 4134 
L 1269 4134 
L 1269 2991 
Q 1406 3038 1543 3061 
Q 1681 3084 1819 3084 
Q 2600 3084 3056 2656 
Q 3513 2228 3513 1497 
Q 3513 744 3044 326 
Q 2575 -91 1722 -91 
Q 1428 -91 1123 -41 
Q 819 9 494 109 
L 494 744 
Q 775 591 1075 516 
Q 1375 441 1709 441 
Q 2250 441 2565 725 
Q 2881 1009 2881 1497 
Q 2881 1984 2565 2268 
Q 2250 2553 1709 2553 
Q 1456 2553 1204 2497 
Q 953 2441 691 2322 
L 691 4666 
z
" transform="scale(0.015625)"/>
       </defs>
       <use xlink:href="#DejaVuSans-34"/>
       <use xlink:href="#DejaVuSans-35" x="63.623047"/>
       <use xlink:href="#DejaVuSans-b0" x="127.246094"/>
      </g>
     </g>
    </g>
    <g id="xtick_3">
     <g id="line2d_3">
      <path d="M 166.29975 159.095062 
L 299.35575 159.095062 
" clip-path="url(#p23f77ffb63)" style="fill: none; stroke: #b0b0b0; stroke-width: 0.8; stroke-linecap: square"/>
     </g>
     <g id="text_3">
      <!-- 90° -->
      <g transform="translate(304.49325 161.854437) scale(0.1 -0.1)">
       <defs>
        <path id="DejaVuSans-39" d="M 703 97 
L 703 672 
Q 941 559 1184 500 
Q 1428 441 1663 441 
Q 2288 441 2617 861 
Q 2947 1281 2994 2138 
Q 2813 1869 2534 1725 
Q 2256 1581 1919 1581 
Q 1219 1581 811 2004 
Q 403 2428 403 3163 
Q 403 3881 828 4315 
Q 1253 4750 1959 4750 
Q 2769 4750 3195 4129 
Q 3622 3509 3622 2328 
Q 3622 1225 3098 567 
Q 2575 -91 1691 -91 
Q 1453 -91 1209 -44 
Q 966 3 703 97 
z
M 1959 2075 
Q 2384 2075 2632 2365 
Q 2881 2656 2881 3163 
Q 2881 3666 2632 3958 
Q 2384 4250 1959 4250 
Q 1534 4250 1286 3958 
Q 1038 3666 1038 3163 
Q 1038 2656 1286 2365 
Q 1534 2075 1959 2075 
z
" transform="scale(0.015625)"/>
       </defs>
       <use xlink:href="#DejaVuSans-39"/>
       <use xlink:href="#DejaVuSans-30" x="63.623047"/>
       <use xlink:href="#DejaVuSans-b0" x="127.246094"/>
      </g>
     </g>
    </g>
    <g id="xtick_4">
     <g id="line2d_4">
      <path d="M 166.29975 159.095062 
L 260.38455 253.179862 
" clip-path="url(#p23f77ffb63)" style="fill: none; stroke: #b0b0b0; stroke-width: 0.8; stroke-linecap: square"/>
     </g>
     <g id="text_4">
      <!-- 135° -->
      <g transform="translate(258.240295 265.838732) scale(0.1 -0.1)">
       <defs>
        <path id="DejaVuSans-31" d="M 794 531 
L 1825 531 
L 1825 4091 
L 703 3866 
L 703 4441 
L 1819 4666 
L 2450 4666 
L 2450 531 
L 3481 531 
L 3481 0 
L 794 0 
L 794 531 
z
" transform="scale(0.015625)"/>
        <path id="DejaVuSans-33" d="M 2597 2516 
Q 3050 2419 3304 2112 
Q 3559 1806 3559 1356 
Q 3559 666 3084 287 
Q 2609 -91 1734 -91 
Q 1441 -91 1130 -33 
Q 819 25 488 141 
L 488 750 
Q 750 597 1062 519 
Q 1375 441 1716 441 
Q 2309 441 2620 675 
Q 2931 909 2931 1356 
Q 2931 1769 2642 2001 
Q 2353 2234 1838 2234 
L 1294 2234 
L 1294 2753 
L 1863 2753 
Q 2328 2753 2575 2939 
Q 2822 3125 2822 3475 
Q 2822 3834 2567 4026 
Q 2313 4219 1838 4219 
Q 1578 4219 1281 4162 
Q 984 4106 628 3988 
L 628 4550 
Q 988 4650 1302 4700 
Q 1616 4750 1894 4750 
Q 2613 4750 3031 4423 
Q 3450 4097 3450 3541 
Q 3450 3153 3228 2886 
Q 3006 2619 2597 2516 
z
" transform="scale(0.015625)"/>
       </defs>
       <use xlink:href="#DejaVuSans-31"/>
       <use xlink:href="#DejaVuSans-33" x="63.623047"/>
       <use xlink:href="#DejaVuSans-35" x="127.246094"/>
       <use xlink:href="#DejaVuSans-b0" x="190.869141"/>
      </g>
     </g>
    </g>
    <g id="xtick_5">
     <g id="line2d_5">
      <path d="M 166.29975 159.095062 
L 166.29975 292.151062 
" clip-path="url(#p23f77ffb63)" style="fill: none; stroke: #b0b0b0; stroke-width: 0.8; stroke-linecap: square"/>
     </g>
     <g id="text_5">
      <!-- 180° -->
      <g transform="translate(154.256 308.910437) scale(0.1 -0.1)">
       <defs>
        <path id="DejaVuSans-38" d="M 2034 2216 
Q 1584 2216 1326 1975 
Q 1069 1734 1069 1313 
Q 1069 891 1326 650 
Q 1584 409 2034 409 
Q 2484 409 2743 651 
Q 3003 894 3003 1313 
Q 3003 1734 2745 1975 
Q 2488 2216 2034 2216 
z
M 1403 2484 
Q 997 2584 770 2862 
Q 544 3141 544 3541 
Q 544 4100 942 4425 
Q 1341 4750 2034 4750 
Q 2731 4750 3128 4425 
Q 3525 4100 3525 3541 
Q 3525 3141 3298 2862 
Q 3072 2584 2669 2484 
Q 3125 2378 3379 2068 
Q 3634 1759 3634 1313 
Q 3634 634 3220 271 
Q 2806 -91 2034 -91 
Q 1263 -91 848 271 
Q 434 634 434 1313 
Q 434 1759 690 2068 
Q 947 2378 1403 2484 
z
M 1172 3481 
Q 1172 3119 1398 2916 
Q 1625 2713 2034 2713 
Q 2441 2713 2670 2916 
Q 2900 3119 2900 3481 
Q 2900 3844 2670 4047 
Q 2441 4250 2034 4250 
Q 1625 4250 1398 4047 
Q 1172 3844 1172 3481 
z
" transform="scale(0.015625)"/>
       </defs>
       <use xlink:href="#DejaVuSans-31"/>
       <use xlink:href="#DejaVuSans-38" x="63.623047"/>
       <use xlink:href="#DejaVuSans-30" x="127.246094"/>
       <use xlink:href="#DejaVuSans-b0" x="190.869141"/>
      </g>
     </g>
    </g>
    <g id="xtick_6">
     <g id="line2d_6">
      <path d="M 166.29975 159.095062 
L 72.21495 253.179862 
" clip-path="url(#p23f77ffb63)" style="fill: none; stroke: #b0b0b0; stroke-width: 0.8; stroke-linecap: square"/>
     </g>
     <g id="text_6">
      <!-- 225° -->
      <g transform="translate(50.271705 265.838732) scale(0.1 -0.1)">
       <defs>
        <path id="DejaVuSans-32" d="M 1228 531 
L 3431 531 
L 3431 0 
L 469 0 
L 469 531 
Q 828 903 1448 1529 
Q 2069 2156 2228 2338 
Q 2531 2678 2651 2914 
Q 2772 3150 2772 3378 
Q 2772 3750 2511 3984 
Q 2250 4219 1831 4219 
Q 1534 4219 1204 4116 
Q 875 4013 500 3803 
L 500 4441 
Q 881 4594 1212 4672 
Q 1544 4750 1819 4750 
Q 2544 4750 2975 4387 
Q 3406 4025 3406 3419 
Q 3406 3131 3298 2873 
Q 3191 2616 2906 2266 
Q 2828 2175 2409 1742 
Q 1991 1309 1228 531 
z
" transform="scale(0.015625)"/>
       </defs>
       <use xlink:href="#DejaVuSans-32"/>
       <use xlink:href="#DejaVuSans-32" x="63.623047"/>
       <use xlink:href="#DejaVuSans-35" x="127.246094"/>
       <use xlink:href="#DejaVuSans-b0" x="190.869141"/>
      </g>
     </g>
    </g>
    <g id="xtick_7">
     <g id="line2d_7">
      <path d="M 166.29975 159.095062 
L 33.24375 159.095062 
" clip-path="url(#p23f77ffb63)" style="fill: none; stroke: #b0b0b0; stroke-width: 0.8; stroke-linecap: square"/>
     </g>
     <g id="text_7">
      <!-- 270° -->
      <g transform="translate(7.2 161.854437) scale(0.1 -0.1)">
       <defs>
        <path id="DejaVuSans-37" d="M 525 4666 
L 3525 4666 
L 3525 4397 
L 1831 0 
L 1172 0 
L 2766 4134 
L 525 4134 
L 525 4666 
z
" transform="scale(0.015625)"/>
       </defs>
       <use xlink:href="#DejaVuSans-32"/>
       <use xlink:href="#DejaVuSans-37" x="63.623047"/>
       <use xlink:href="#DejaVuSans-30" x="127.246094"/>
       <use xlink:href="#DejaVuSans-b0" x="190.869141"/>
      </g>
     </g>
    </g>
    <g id="xtick_8">
     <g id="line2d_8">
      <path d="M 166.29975 159.095062 
L 72.21495 65.010263 
" clip-path="url(#p23f77ffb63)" style="fill: none; stroke: #b0b0b0; stroke-width: 0.8; stroke-linecap: square"/>
     </g>
     <g id="text_8">
      <!-- 315° -->
      <g transform="translate(50.271705 57.870143) scale(0.1 -0.1)">
       <use xlink:href="#DejaVuSans-33"/>
       <use xlink:href="#DejaVuSans-31" x="63.623047"/>
       <use xlink:href="#DejaVuSans-35" x="127.246094"/>
       <use xlink:href="#DejaVuSans-b0" x="190.869141"/>
      </g>
     </g>
    </g>
   </g>
   <g id="matplotlib.axis_2">
    <g id="ytick_1">
     <g id="line2d_9">
      <path d="M 166.29975 136.29517 
C 169.293805 136.29517 172.258746 136.884933 175.024891 138.030708 
C 177.791037 139.176483 180.304593 140.855987 182.421709 142.973104 
C 184.538825 145.09022 186.218329 147.603776 187.364104 150.369921 
C 188.50988 153.136067 189.099643 156.101008 189.099643 159.095062 
C 189.099643 162.089117 188.50988 165.054058 187.364104 167.820204 
C 186.218329 170.586349 184.538825 173.099905 182.421709 175.217021 
C 180.304593 177.334138 177.791037 179.013642 175.024891 180.159417 
C 172.258746 181.305192 169.293805 181.894955 166.29975 181.894955 
C 163.305695 181.894955 160.340754 181.305192 157.574609 180.159417 
C 154.808463 179.013642 152.294907 177.334138 150.177791 175.217021 
C 148.060675 173.099905 146.381171 170.586349 145.235396 167.820204 
C 144.08962 165.054058 143.499857 162.089117 143.499857 159.095062 
C 143.499857 156.101008 144.08962 153.136067 145.235396 150.369921 
C 146.381171 147.603776 148.060675 145.09022 150.177791 142.973104 
C 152.294907 140.855987 154.808463 139.176483 157.574609 138.030708 
C 160.340754 136.884933 163.305695 136.29517 166.29975 136.29517 
" clip-path="url(#p23f77ffb63)" style="fill: none; stroke: #b0b0b0; stroke-width: 0.8; stroke-linecap: square"/>
     </g>
     <g id="text_9">
      <!-- −20 -->
      <g transform="translate(177.699696 137.270088) scale(0.1 -0.1)">
       <defs>
        <path id="DejaVuSans-2212" d="M 678 2272 
L 4684 2272 
L 4684 1741 
L 678 1741 
L 678 2272 
z
" transform="scale(0.015625)"/>
       </defs>
       <use xlink:href="#DejaVuSans-2212"/>
       <use xlink:href="#DejaVuSans-32" x="83.789062"/>
       <use xlink:href="#DejaVuSans-30" x="147.412109"/>
      </g>
     </g>
    </g>
    <g id="ytick_2">
     <g id="line2d_10">
      <path d="M 166.29975 108.731143 
C 172.913479 108.731143 179.462898 110.033903 185.573188 112.564868 
C 191.683477 115.095833 197.235806 118.80578 201.912419 123.482393 
C 206.589032 128.159006 210.29898 133.711336 212.829945 139.821625 
C 215.360909 145.931914 216.66367 152.481333 216.66367 159.095062 
C 216.66367 165.708792 215.360909 172.258211 212.829945 178.3685 
C 210.29898 184.478789 206.589032 190.031119 201.912419 194.707732 
C 197.235806 199.384345 191.683477 203.094292 185.573188 205.625257 
C 179.462898 208.156222 172.913479 209.458982 166.29975 209.458982 
C 159.686021 209.458982 153.136602 208.156222 147.026312 205.625257 
C 140.916023 203.094292 135.363694 199.384345 130.687081 194.707732 
C 126.010468 190.031119 122.30052 184.478789 119.769555 178.3685 
C 117.238591 172.258211 115.93583 165.708792 115.93583 159.095062 
C 115.93583 152.481333 117.238591 145.931914 119.769555 139.821625 
C 122.30052 133.711336 126.010468 128.159006 130.687081 123.482393 
C 135.363694 118.80578 140.916023 115.095833 147.026312 112.564868 
C 153.136602 110.033903 159.686021 108.731143 166.29975 108.731143 
" clip-path="url(#p23f77ffb63)" style="fill: none; stroke: #b0b0b0; stroke-width: 0.8; stroke-linecap: square"/>
     </g>
     <g id="text_10">
      <!-- −15 -->
      <g transform="translate(191.48171 113.398941) scale(0.1 -0.1)">
       <use xlink:href="#DejaVuSans-2212"/>
       <use xlink:href="#DejaVuSans-31" x="83.789062"/>
       <use xlink:href="#DejaVuSans-35" x="147.412109"/>
      </g>
     </g>
    </g>
    <g id="ytick_3">
     <g id="line2d_11">
      <path d="M 166.29975 81.167116 
C 176.533154 81.167116 186.667051 83.182874 196.121484 87.099028 
C 205.575917 91.015182 214.16702 96.755574 221.403129 103.991683 
C 228.639239 111.227793 234.379631 119.818896 238.295785 129.273328 
C 242.211939 138.727761 244.227696 148.861658 244.227696 159.095062 
C 244.227696 169.328467 242.211939 179.462364 238.295785 188.916797 
C 234.379631 198.371229 228.639239 206.962332 221.403129 214.198442 
C 214.16702 221.434551 205.575917 227.174943 196.121484 231.091097 
C 186.667051 235.007251 176.533154 237.023009 166.29975 237.023009 
C 156.066346 237.023009 145.932449 235.007251 136.478016 231.091097 
C 127.023583 227.174943 118.43248 221.434551 111.196371 214.198442 
C 103.960261 206.962332 98.219869 198.371229 94.303715 188.916797 
C 90.387561 179.462364 88.371804 169.328467 88.371804 159.095062 
C 88.371804 148.861658 90.387561 138.727761 94.303715 129.273328 
C 98.219869 119.818896 103.960261 111.227793 111.196371 103.991683 
C 118.43248 96.755574 127.023583 91.015182 136.478016 87.099028 
C 145.932449 83.182874 156.066346 81.167116 166.29975 81.167116 
" clip-path="url(#p23f77ffb63)" style="fill: none; stroke: #b0b0b0; stroke-width: 0.8; stroke-linecap: square"/>
     </g>
     <g id="text_11">
      <!-- −10 -->
      <g transform="translate(205.263723 89.527794) scale(0.1 -0.1)">
       <use xlink:href="#DejaVuSans-2212"/>
       <use xlink:href="#DejaVuSans-31" x="83.789062"/>
       <use xlink:href="#DejaVuSans-30" x="147.412109"/>
      </g>
     </g>
    </g>
    <g id="ytick_4">
     <g id="line2d_12">
      <path d="M 166.29975 53.603089 
C 180.152829 53.603089 193.871204 56.331844 206.66978 61.633188 
C 219.468357 66.934531 231.098234 74.705367 240.89384 84.500973 
C 250.689446 94.296579 258.460281 105.926456 263.761625 118.725032 
C 269.062969 131.523608 271.791723 145.241984 271.791723 159.095062 
C 271.791723 172.948141 269.062969 186.666517 263.761625 199.465093 
C 258.460281 212.263669 250.689446 223.893546 240.89384 233.689152 
C 231.098234 243.484758 219.468357 251.255594 206.66978 256.556937 
C 193.871204 261.858281 180.152829 264.587036 166.29975 264.587036 
C 152.446671 264.587036 138.728296 261.858281 125.92972 256.556937 
C 113.131143 251.255594 101.501266 243.484758 91.70566 233.689152 
C 81.910054 223.893546 74.139219 212.263669 68.837875 199.465093 
C 63.536531 186.666517 60.807777 172.948141 60.807777 159.095062 
C 60.807777 145.241984 63.536531 131.523608 68.837875 118.725032 
C 74.139219 105.926456 81.910054 94.296579 91.70566 84.500973 
C 101.501266 74.705367 113.131143 66.934531 125.92972 61.633188 
C 138.728296 56.331844 152.446671 53.603089 166.29975 53.603089 
" clip-path="url(#p23f77ffb63)" style="fill: none; stroke: #b0b0b0; stroke-width: 0.8; stroke-linecap: square"/>
     </g>
     <g id="text_12">
      <!-- −5 -->
      <g transform="translate(219.045737 65.656646) scale(0.1 -0.1)">
       <use xlink:href="#DejaVuSans-2212"/>
       <use xlink:href="#DejaVuSans-35" x="83.789062"/>
      </g>
     </g>
    </g>
    <g id="ytick_5">
     <g id="line2d_13">
      <path d="M 166.29975 26.039062 
C 183.772504 26.039062 201.075357 29.480814 217.218077 36.167347 
C 233.360796 42.853881 248.029447 52.65516 260.38455 65.010263 
C 272.739653 77.365365 282.540932 92.034016 289.227465 108.176736 
C 295.913998 124.319455 299.35575 141.622309 299.35575 159.095062 
C 299.35575 176.567816 295.913998 193.87067 289.227465 210.013389 
C 282.540932 226.156109 272.739653 240.82476 260.38455 253.179862 
C 248.029447 265.534965 233.360796 275.336244 217.218077 282.022778 
C 201.075357 288.709311 183.772504 292.151062 166.29975 292.151062 
C 148.826996 292.151062 131.524143 288.709311 115.381423 282.022778 
C 99.238704 275.336244 84.570053 265.534965 72.21495 253.179862 
C 59.859847 240.82476 50.058568 226.156109 43.372035 210.013389 
C 36.685502 193.87067 33.24375 176.567816 33.24375 159.095062 
C 33.24375 141.622309 36.685502 124.319455 43.372035 108.176736 
C 50.058568 92.034016 59.859847 77.365365 72.21495 65.010263 
C 84.570053 52.65516 99.238704 42.853881 115.381423 36.167347 
C 131.524143 29.480814 148.826996 26.039062 166.29975 26.039062 
" clip-path="url(#p23f77ffb63)" style="fill: none; stroke: #b0b0b0; stroke-width: 0.8; stroke-linecap: square"/>
     </g>
     <g id="text_13">
      <!-- 0 -->
      <g transform="translate(232.82775 41.785499) scale(0.1 -0.1)">
       <use xlink:href="#DejaVuSans-30"/>
      </g>
     </g>
    </g>
   </g>
   <g id="line2d_14">
    <path d="M 166.29975 216.783162 
L 165.594039 215.194641 
L 164.949296 212.762853 
L 164.396975 209.49334 
L 163.967912 205.399993 
L 163.690388 200.528107 
L 163.584584 195.001725 
L 163.649848 189.111759 
L 163.970583 176.627049 
L 163.504226 178.285143 
L 161.793716 185.374338 
L 160.276803 190.63612 
L 159.308202 193.363077 
L 158.430866 195.330075 
L 157.679612 196.513504 
L 157.360443 196.812963 
L 157.083411 196.920095 
L 156.85177 196.837119 
L 156.668729 196.566273 
L 156.461224 195.469557 
L 156.486262 193.646593 
L 156.768136 191.116035 
L 157.327276 187.907146 
L 158.173746 184.077596 
L 159.940087 177.461609 
L 162.022712 170.732133 
L 163.92809 164.970446 
L 163.755879 165.284627 
L 159.512342 173.985567 
L 156.741762 179.057009 
L 154.247118 183.093827 
L 152.212233 185.873583 
L 151.148408 187.037022 
L 150.329681 187.682802 
L 149.759091 187.84864 
L 149.566612 187.764536 
L 149.36427 187.290475 
L 149.397057 186.450346 
L 149.647829 185.30149 
L 150.366966 183.154542 
L 151.69002 179.994872 
L 152.975663 176.93379 
L 153.057494 176.36676 
L 152.968129 176.258668 
L 152.515199 176.38831 
L 151.204147 177.31683 
L 145.823291 181.423568 
L 143.855781 182.660584 
L 142.194246 183.467356 
L 140.934187 183.7915 
L 140.347936 183.73405 
L 139.97946 183.461769 
L 139.83792 182.981742 
L 139.930241 182.303149 
L 140.261499 181.4367 
L 141.212956 179.811483 
L 142.710173 177.837873 
L 144.736873 175.573607 
L 147.246277 173.094459 
L 150.139289 170.505673 
L 154.261244 167.149207 
L 159.342546 163.378783 
L 160.516461 162.458339 
L 160.436552 162.455642 
L 159.338224 162.912507 
L 154.410919 165.042468 
L 150.312188 166.596142 
L 146.285483 167.878084 
L 142.619957 168.783808 
L 139.426085 169.309213 
L 136.722422 169.493114 
L 134.484397 169.38827 
L 132.668774 169.048384 
L 131.225427 168.52276 
L 130.102926 167.854406 
L 129.251258 167.079623 
L 128.623222 166.228229 
L 128.086691 165.091996 
L 127.708922 163.667203 
L 127.501025 161.967571 
L 127.416148 159.278482 
L 127.510265 156.100558 
L 127.78186 154.162654 
L 128.222792 152.750858 
L 128.83538 151.635281 
L 129.541964 150.809516 
L 130.48949 150.07081 
L 131.726332 149.451366 
L 133.303246 148.989997 
L 134.740065 148.774824 
L 136.417977 148.69545 
L 138.355476 148.774642 
L 140.566033 149.035326 
L 143.942483 149.700242 
L 147.763654 150.751295 
L 151.864497 152.155391 
L 155.859233 153.748444 
L 160.495417 155.743929 
L 160.350853 155.559955 
L 157.563766 153.524798 
L 153.749297 150.641155 
L 149.63695 147.251061 
L 146.797881 144.671555 
L 144.3638 142.221879 
L 142.423139 140.001399 
L 141.016346 138.082205 
L 140.156073 136.519836 
L 139.884929 135.699275 
L 139.851618 135.069373 
L 140.050619 134.640491 
L 140.474498 134.421354 
L 141.113435 134.418385 
L 141.954382 134.634583 
L 143.554472 135.363064 
L 145.479659 136.534682 
L 148.302008 138.580706 
L 152.662399 141.875663 
L 153.024166 141.892205 
L 153.068561 141.724945 
L 152.906049 141.045017 
L 151.858032 138.573338 
L 150.223456 134.652246 
L 149.56602 132.576015 
L 149.350937 131.07744 
L 149.493367 130.50698 
L 149.655159 130.370187 
L 149.878473 130.340178 
L 150.511143 130.62222 
L 151.391607 131.394073 
L 152.515657 132.692133 
L 153.873244 134.54466 
L 155.444577 136.962449 
L 158.111772 141.571867 
L 160.879336 146.899977 
L 163.933982 153.180759 
L 163.78871 152.701261 
L 160.977119 144.180038 
L 158.990447 137.323831 
L 157.511943 131.185448 
L 156.881285 127.814297 
L 156.531755 125.110701 
L 156.444703 123.108875 
L 156.596434 121.829044 
L 156.753974 121.465083 
L 156.961715 121.287896 
L 157.216456 121.299691 
L 157.514966 121.502717 
L 158.230034 122.490695 
L 159.078808 124.26231 
L 160.028367 126.804485 
L 161.035848 130.044005 
L 162.51453 135.696438 
L 163.886848 141.36018 
L 164.031786 141.602562 
L 164.089478 141.163769 
L 163.999629 138.281826 
L 163.618917 127.597555 
L 163.594435 121.757378 
L 163.744234 116.375843 
L 164.061998 111.691172 
L 164.524683 107.801332 
L 165.103042 104.74054 
L 165.765984 102.519083 
L 166.481997 101.142356 
L 166.849987 100.773245 
L 167.219286 100.618929 
L 167.585832 100.681186 
L 167.945514 100.9618 
L 168.294189 101.462172 
L 168.942031 103.121748 
L 169.498147 105.629137 
L 169.940149 108.851727 
L 170.741519 116.447451 
L 170.982408 116.72284 
L 171.317386 116.16644 
L 171.771854 114.701486 
L 173.074531 109.300266 
L 175.843147 97.652971 
L 178.019353 89.431624 
L 180.33108 81.657256 
L 182.715903 74.570321 
L 185.137269 68.225666 
L 187.572448 62.601754 
L 190.005834 57.65064 
L 192.425516 53.31893 
L 194.821527 49.555911 
L 197.184955 46.31622 
L 199.507463 43.560304 
L 201.781032 41.254027 
L 203.997807 39.368016 
L 206.150002 37.876984 
L 208.229843 36.759112 
L 210.229511 35.995525 
L 212.141108 35.569857 
L 213.95661 35.467895 
L 215.667836 35.677298 
L 217.266395 36.187373 
L 218.743643 36.988896 
L 220.090626 38.073987 
L 221.298017 39.436011 
L 222.356046 41.069516 
L 223.254408 42.970199 
L 223.982173 45.134896 
L 224.527669 47.561602 
L 224.878352 50.249498 
L 225.020661 53.199007 
L 224.939858 56.411847 
L 224.619864 59.891074 
L 224.043107 63.64109 
L 223.190425 67.667534 
L 222.041116 71.976974 
L 220.573288 76.576158 
L 218.764841 81.470435 
L 216.595731 86.660603 
L 214.052687 92.13678 
L 211.138632 97.866868 
L 207.890468 103.775737 
L 204.409979 109.710804 
L 199.257261 118.014317 
L 195.40579 124.185471 
L 194.300846 126.356927 
L 194.261239 126.816463 
L 194.538371 126.907851 
L 195.087293 126.695507 
L 196.776119 125.651654 
L 202.185556 122.120828 
L 204.196991 121.018633 
L 205.96063 120.236708 
L 207.44087 119.788416 
L 208.624589 119.663821 
L 209.509907 119.842619 
L 210.100155 120.300745 
L 210.400764 121.013565 
L 210.417745 121.957301 
L 210.157051 123.109518 
L 209.62444 124.449147 
L 208.825676 125.956229 
L 207.142385 128.488753 
L 204.90149 131.289657 
L 202.144772 134.288965 
L 198.942356 137.404407 
L 195.41255 140.532071 
L 190.540892 144.482786 
L 182.177414 150.964065 
L 182.207666 151.199551 
L 182.710326 151.205765 
L 184.770448 150.780733 
L 189.102341 149.848835 
L 192.046736 149.401694 
L 194.725585 149.202153 
L 197.043445 149.25526 
L 198.982313 149.534107 
L 200.562276 150.001004 
L 201.820473 150.617485 
L 202.800295 151.348628 
L 203.545869 152.164639 
L 204.212091 153.267423 
L 204.651406 154.428914 
L 204.965798 155.865326 
L 205.153548 157.811654 
L 205.159118 160.256332 
L 204.946478 162.445599 
L 204.615813 163.879205 
L 204.156812 165.036128 
L 203.464016 166.131245 
L 202.69152 166.938089 
L 201.679335 167.65664 
L 200.383229 168.256429 
L 198.760218 168.701964 
L 196.774552 168.954562 
L 194.409469 168.977169 
L 191.69002 168.745404 
L 188.725378 168.270658 
L 183.868304 167.20349 
L 182.292059 166.969877 
L 182.136941 167.14257 
L 182.499675 167.584947 
L 184.044455 168.825604 
L 192.356245 175.138683 
L 196.016549 178.174888 
L 199.502787 181.308952 
L 202.637544 184.411545 
L 205.312185 187.383061 
L 207.462511 190.143881 
L 209.049992 192.625305 
L 209.782774 194.092348 
L 210.247939 195.387032 
L 210.439761 196.489155 
L 210.352438 197.377321 
L 209.979976 198.028744 
L 209.316423 198.419358 
L 208.356684 198.524491 
L 207.098352 198.320618 
L 205.545398 197.789226 
L 203.71524 196.924653 
L 201.651784 195.749272 
L 198.344318 193.599791 
L 195.44647 191.691831 
L 194.782193 191.354985 
L 194.362662 191.285633 
L 194.239313 191.554049 
L 194.448311 192.215908 
L 195.888006 194.810781 
L 207.036124 212.92477 
L 210.355349 218.858493 
L 213.358278 224.642638 
L 215.995288 230.186537 
L 218.257061 235.449749 
L 220.153952 240.418206 
L 221.704892 245.090768 
L 222.931746 249.472031 
L 223.856588 253.568584 
L 224.500467 257.387134 
L 224.882944 260.933594 
L 225.021981 264.212691 
L 224.934018 267.22782 
L 224.634115 269.981031 
L 224.136109 272.473063 
L 223.452785 274.703405 
L 222.596021 276.670343 
L 221.57692 278.371001 
L 220.405934 279.801362 
L 219.092958 280.956261 
L 217.647424 281.829365 
L 216.078371 282.413112 
L 214.394517 282.698625 
L 212.604309 282.675594 
L 210.715978 282.332107 
L 208.737583 281.654445 
L 206.67705 280.626809 
L 204.542213 279.230989 
L 202.340855 277.445948 
L 200.080752 275.247321 
L 197.769735 272.606817 
L 195.415771 269.491556 
L 193.027099 265.863392 
L 190.612453 261.678423 
L 188.181473 256.887141 
L 185.745465 251.436357 
L 183.318876 245.275489 
L 180.922188 238.373241 
L 178.587611 230.758095 
L 176.369634 222.60917 
L 173.477385 210.636935 
L 171.528553 202.642247 
L 171.136304 201.634153 
L 170.852139 201.509785 
L 170.646408 202.142932 
L 170.344262 204.909171 
L 169.840831 210.196733 
L 169.369207 213.262764 
L 168.787522 215.565007 
L 168.121487 217.005666 
L 167.766789 217.396029 
L 167.403159 217.567254 
L 167.034726 217.520996 
L 166.665576 217.25907 
L 166.29975 216.783162 
L 166.29975 216.783162 
" clip-path="url(#p23f77ffb63)" style="fill: none; stroke: #1f77b4; stroke-width: 1.5; stroke-linecap: square"/>
   </g>
   <g id="patch_3">
    <path d="M 166.29975 26.039062 
C 148.826996 26.039062 131.524143 29.480814 115.381423 36.167347 
C 99.238704 42.853881 84.570053 52.65516 72.21495 65.010263 
C 59.859847 77.365365 50.058568 92.034016 43.372035 108.176736 
C 36.685502 124.319455 33.24375 141.622309 33.24375 159.095062 
C 33.24375 176.567816 36.685502 193.87067 43.372035 210.013389 
C 50.058568 226.156109 59.859847 240.82476 72.21495 253.179862 
C 84.570053 265.534965 99.238704 275.336244 115.381423 282.022778 
C 131.524143 288.709311 148.826996 292.151062 166.29975 292.151062 
C 183.772504 292.151062 201.075357 288.709311 217.218077 282.022778 
C 233.360796 275.336244 248.029447 265.534965 260.38455 253.179862 
C 272.739653 240.82476 282.540932 226.156109 289.227465 210.013389 
C 295.913998 193.87067 299.35575 176.567816 299.35575 159.095062 
C 299.35575 141.622309 295.913998 124.319455 289.227465 108.176736 
C 282.540932 92.034016 272.739653 77.365365 260.38455 65.010263 
C 248.029447 52.65516 233.360796 42.853881 217.218077 36.167347 
C 201.075357 29.480814 183.772504 26.039062 166.29975 26.039062 
" style="fill: none; stroke: #000000; stroke-width: 0.8; stroke-linejoin: miter; stroke-linecap: square"/>
   </g>
  </g>
 </g>
 <defs>
  <clipPath id="p23f77ffb63">
   <path d="M 299.35575 159.095062 
C 299.35575 141.622309 295.913998 124.319455 289.227465 108.176736 
C 282.540932 92.034016 272.739653 77.365365 260.38455 65.010263 
C 248.029447 52.65516 233.360796 42.853881 217.218077 36.167347 
C 201.075357 29.480814 183.772504 26.039062 166.29975 26.039062 
C 148.826996 26.039062 131.524143 29.480814 115.381423 36.167347 
C 99.238704 42.853881 84.570053 52.65516 72.21495 65.010263 
C 59.859847 77.365365 50.058568 92.034016 43.372035 108.176736 
C 36.685502 124.319455 33.24375 141.622309 33.24375 159.095062 
C 33.24375 176.567816 36.685502 193.87067 43.372035 210.013389 
C 50.058568 226.156109 59.859847 240.82476 72.21495 253.179862 
C 84.570053 265.534965 99.238704 275.336244 115.381423 282.022778 
C 131.524143 288.709311 148.826996 292.151062 166.29975 292.151062 
C 183.772504 292.151062 201.075357 288.709311 217.218077 282.022778 
C 233.360796 275.336244 248.029447 265.534965 260.38455 253.179862 
C 272.739653 240.82476 282.540932 226.156109 289.227465 210.013389 
C 295.913998 193.87067 299.35575 176.567816 299.35575 159.095062 
M 166.29975 159.095062 
C 166.29975 159.095062 166.29975 159.095062 166.29975 159.095062 
C 166.29975 159.095062 166.29975 159.095062 166.29975 159.095062 
C 166.29975 159.095062 166.29975 159.095062 166.29975 159.095062 
C 166.29975 159.095062 166.29975 159.095062 166.29975 159.095062 
C 166.29975 159.095062 166.29975 159.095062 166.29975 159.095062 
C 166.29975 159.095062 166.29975 159.095062 166.29975 159.095062 
C 166.29975 159.095062 166.29975 159.095062 166.29975 159.095062 
C 166.29975 159.095062 166.29975 159.095062 166.29975 159.095062 
C 166.29975 159.095062 166.29975 159.095062 166.29975 159.095062 
C 166.29975 159.095062 166.29975 159.095062 166.29975 159.095062 
C 166.29975 159.095062 166.29975 159.095062 166.29975 159.095062 
C 166.29975 159.095062 166.29975 159.095062 166.29975 159.095062 
C 166.29975 159.095062 166.29975 159.095062 166.29975 159.095062 
C 166.29975 159.095062 166.29975 159.095062 166.29975 159.095062 
C 166.29975 159.095062 166.29975 159.095062 166.29975 159.095062 
C 166.29975 159.095062 166.29975 159.095062 166.29975 159.095062 
z
"/>
  </clipPath>
 </defs>
</svg>
