<?xml version="1.0" encoding="utf-8" standalone="no"?>
<!DOCTYPE svg PUBLIC "-//W3C//DTD SVG 1.1//EN"
  "http://www.w3.org/Graphics/SVG/1.1/DTD/svg11.dtd">
<svg xmlns:xlink="http://www.w3.org/1999/xlink" width="329.41825pt" height="318.190125pt" viewBox="0 0 329.41825 318.190125" xmlns="http://www.w3.org/2000/svg" version="1.1">
 <metadata>
  <rdf:RDF xmlns:dc="http://purl.org/dc/elements/1.1/" xmlns:cc="http://creativecommons.org/ns#" xmlns:rdf="http://www.w3.org/1999/02/22-rdf-syntax-ns#">
   <cc:Work>
    <dc:type rdf:resource="http://purl.org/dc/dcmitype/StillImage"/>
    <dc:date>2024-01-22T23:20:04.154182</dc:date>
    <dc:format>image/svg+xml</dc:format>
    <dc:creator>
     <cc:Agent>
      <dc:title>Matplotlib v3.8.0, https://matplotlib.org/</dc:title>
     </cc:Agent>
    </dc:creator>
   </cc:Work>
  </rdf:RDF>
 </metadata>
 <defs>
  <style type="text/css">*{stroke-linejoin: round; stroke-linecap: butt}</style>
 </defs>
 <g id="figure_1">
  <g id="patch_1">
   <path d="M 0 318.190125 
L 329.41825 318.190125 
L 329.41825 0 
L 0 0 
z
" style="fill: #ffffff"/>
  </g>
  <g id="axes_1">
   <g id="patch_2">
    <path d="M 299.35575 159.095062 
C 299.35575 141.622309 295.913998 124.319455 289.227465 108.176736 
C 282.540932 92.034016 272.739653 77.365365 260.38455 65.010263 
C 248.029447 52.65516 233.360796 42.853881 217.218077 36.167347 
C 201.075357 29.480814 183.772504 26.039062 166.29975 26.039062 
C 148.826996 26.039062 131.524143 29.480814 115.381423 36.167347 
C 99.238704 42.853881 84.570053 52.65516 72.21495 65.010263 
C 59.859847 77.365365 50.058568 92.034016 43.372035 108.176736 
C 36.685502 124.319455 33.24375 141.622309 33.24375 159.095062 
C 33.24375 176.567816 36.685502 193.87067 43.372035 210.013389 
C 50.058568 226.156109 59.859847 240.82476 72.21495 253.179862 
C 84.570053 265.534965 99.238704 275.336244 115.381423 282.022778 
C 131.524143 288.709311 148.826996 292.151062 166.29975 292.151062 
C 183.772504 292.151062 201.075357 288.709311 217.218077 282.022778 
C 233.360796 275.336244 248.029447 265.534965 260.38455 253.179862 
C 272.739653 240.82476 282.540932 226.156109 289.227465 210.013389 
C 295.913998 193.87067 299.35575 176.567816 299.35575 159.095062 
M 166.29975 159.095062 
C 166.29975 159.095062 166.29975 159.095062 166.29975 159.095062 
C 166.29975 159.095062 166.29975 159.095062 166.29975 159.095062 
C 166.29975 159.095062 166.29975 159.095062 166.29975 159.095062 
C 166.29975 159.095062 166.29975 159.095062 166.29975 159.095062 
C 166.29975 159.095062 166.29975 159.095062 166.29975 159.095062 
C 166.29975 159.095062 166.29975 159.095062 166.29975 159.095062 
C 166.29975 159.095062 166.29975 159.095062 166.29975 159.095062 
C 166.29975 159.095062 166.29975 159.095062 166.29975 159.095062 
C 166.29975 159.095062 166.29975 159.095062 166.29975 159.095062 
C 166.29975 159.095062 166.29975 159.095062 166.29975 159.095062 
C 166.29975 159.095062 166.29975 159.095062 166.29975 159.095062 
C 166.29975 159.095062 166.29975 159.095062 166.29975 159.095062 
C 166.29975 159.095062 166.29975 159.095062 166.29975 159.095062 
C 166.29975 159.095062 166.29975 159.095062 166.29975 159.095062 
C 166.29975 159.095062 166.29975 159.095062 166.29975 159.095062 
C 166.29975 159.095062 166.29975 159.095062 166.29975 159.095062 
z
" style="fill: #ffffff"/>
   </g>
   <g id="matplotlib.axis_1">
    <g id="xtick_1">
     <g id="line2d_1">
      <path d="M 166.29975 159.095062 
L 166.29975 26.039062 
" clip-path="url(#pabdcb798ef)" style="fill: none; stroke: #b0b0b0; stroke-width: 0.8; stroke-linecap: square"/>
     </g>
     <g id="text_1">
      <!-- 0° -->
      <g transform="translate(160.6185 14.798437) scale(0.1 -0.1)">
       <defs>
        <path id="DejaVuSans-30" d="M 2034 4250 
Q 1547 4250 1301 3770 
Q 1056 3291 1056 2328 
Q 1056 1369 1301 889 
Q 1547 409 2034 409 
Q 2525 409 2770 889 
Q 3016 1369 3016 2328 
Q 3016 3291 2770 3770 
Q 2525 4250 2034 4250 
z
M 2034 4750 
Q 2819 4750 3233 4129 
Q 3647 3509 3647 2328 
Q 3647 1150 3233 529 
Q 2819 -91 2034 -91 
Q 1250 -91 836 529 
Q 422 1150 422 2328 
Q 422 3509 836 4129 
Q 1250 4750 2034 4750 
z
" transform="scale(0.015625)"/>
        <path id="DejaVuSans-b0" d="M 1600 4347 
Q 1350 4347 1178 4173 
Q 1006 4000 1006 3750 
Q 1006 3503 1178 3333 
Q 1350 3163 1600 3163 
Q 1850 3163 2022 3333 
Q 2194 3503 2194 3750 
Q 2194 3997 2020 4172 
Q 1847 4347 1600 4347 
z
M 1600 4750 
Q 1800 4750 1984 4673 
Q 2169 4597 2303 4453 
Q 2447 4313 2519 4134 
Q 2591 3956 2591 3750 
Q 2591 3338 2302 3052 
Q 2013 2766 1594 2766 
Q 1172 2766 890 3047 
Q 609 3328 609 3750 
Q 609 4169 896 4459 
Q 1184 4750 1600 4750 
z
" transform="scale(0.015625)"/>
       </defs>
       <use xlink:href="#DejaVuSans-30"/>
       <use xlink:href="#DejaVuSans-b0" x="63.623047"/>
      </g>
     </g>
    </g>
    <g id="xtick_2">
     <g id="line2d_2">
      <path d="M 166.29975 159.095062 
L 260.38455 65.010263 
" clip-path="url(#pabdcb798ef)" style="fill: none; stroke: #b0b0b0; stroke-width: 0.8; stroke-linecap: square"/>
     </g>
     <g id="text_2">
      <!-- 45° -->
      <g transform="translate(261.421545 57.870143) scale(0.1 -0.1)">
       <defs>
        <path id="DejaVuSans-34" d="M 2419 4116 
L 825 1625 
L 2419 1625 
L 2419 4116 
z
M 2253 4666 
L 3047 4666 
L 3047 1625 
L 3713 1625 
L 3713 1100 
L 3047 1100 
L 3047 0 
L 2419 0 
L 2419 1100 
L 313 1100 
L 313 1709 
L 2253 4666 
z
" transform="scale(0.015625)"/>
        <path id="DejaVuSans-35" d="M 691 4666 
L 3169 4666 
L 3169 4134 
L 1269 4134 
L 1269 2991 
Q 1406 3038 1543 3061 
Q 1681 3084 1819 3084 
Q 2600 3084 3056 2656 
Q 3513 2228 3513 1497 
Q 3513 744 3044 326 
Q 2575 -91 1722 -91 
Q 1428 -91 1123 -41 
Q 819 9 494 109 
L 494 744 
Q 775 591 1075 516 
Q 1375 441 1709 441 
Q 2250 441 2565 725 
Q 2881 1009 2881 1497 
Q 2881 1984 2565 2268 
Q 2250 2553 1709 2553 
Q 1456 2553 1204 2497 
Q 953 2441 691 2322 
L 691 4666 
z
" transform="scale(0.015625)"/>
       </defs>
       <use xlink:href="#DejaVuSans-34"/>
       <use xlink:href="#DejaVuSans-35" x="63.623047"/>
       <use xlink:href="#DejaVuSans-b0" x="127.246094"/>
      </g>
     </g>
    </g>
    <g id="xtick_3">
     <g id="line2d_3">
      <path d="M 166.29975 159.095062 
L 299.35575 159.095062 
" clip-path="url(#pabdcb798ef)" style="fill: none; stroke: #b0b0b0; stroke-width: 0.8; stroke-linecap: square"/>
     </g>
     <g id="text_3">
      <!-- 90° -->
      <g transform="translate(304.49325 161.854437) scale(0.1 -0.1)">
       <defs>
        <path id="DejaVuSans-39" d="M 703 97 
L 703 672 
Q 941 559 1184 500 
Q 1428 441 1663 441 
Q 2288 441 2617 861 
Q 2947 1281 2994 2138 
Q 2813 1869 2534 1725 
Q 2256 1581 1919 1581 
Q 1219 1581 811 2004 
Q 403 2428 403 3163 
Q 403 3881 828 4315 
Q 1253 4750 1959 4750 
Q 2769 4750 3195 4129 
Q 3622 3509 3622 2328 
Q 3622 1225 3098 567 
Q 2575 -91 1691 -91 
Q 1453 -91 1209 -44 
Q 966 3 703 97 
z
M 1959 2075 
Q 2384 2075 2632 2365 
Q 2881 2656 2881 3163 
Q 2881 3666 2632 3958 
Q 2384 4250 1959 4250 
Q 1534 4250 1286 3958 
Q 1038 3666 1038 3163 
Q 1038 2656 1286 2365 
Q 1534 2075 1959 2075 
z
" transform="scale(0.015625)"/>
       </defs>
       <use xlink:href="#DejaVuSans-39"/>
       <use xlink:href="#DejaVuSans-30" x="63.623047"/>
       <use xlink:href="#DejaVuSans-b0" x="127.246094"/>
      </g>
     </g>
    </g>
    <g id="xtick_4">
     <g id="line2d_4">
      <path d="M 166.29975 159.095062 
L 260.38455 253.179862 
" clip-path="url(#pabdcb798ef)" style="fill: none; stroke: #b0b0b0; stroke-width: 0.8; stroke-linecap: square"/>
     </g>
     <g id="text_4">
      <!-- 135° -->
      <g transform="translate(258.240295 265.838732) scale(0.1 -0.1)">
       <defs>
        <path id="DejaVuSans-31" d="M 794 531 
L 1825 531 
L 1825 4091 
L 703 3866 
L 703 4441 
L 1819 4666 
L 2450 4666 
L 2450 531 
L 3481 531 
L 3481 0 
L 794 0 
L 794 531 
z
" transform="scale(0.015625)"/>
        <path id="DejaVuSans-33" d="M 2597 2516 
Q 3050 2419 3304 2112 
Q 3559 1806 3559 1356 
Q 3559 666 3084 287 
Q 2609 -91 1734 -91 
Q 1441 -91 1130 -33 
Q 819 25 488 141 
L 488 750 
Q 750 597 1062 519 
Q 1375 441 1716 441 
Q 2309 441 2620 675 
Q 2931 909 2931 1356 
Q 2931 1769 2642 2001 
Q 2353 2234 1838 2234 
L 1294 2234 
L 1294 2753 
L 1863 2753 
Q 2328 2753 2575 2939 
Q 2822 3125 2822 3475 
Q 2822 3834 2567 4026 
Q 2313 4219 1838 4219 
Q 1578 4219 1281 4162 
Q 984 4106 628 3988 
L 628 4550 
Q 988 4650 1302 4700 
Q 1616 4750 1894 4750 
Q 2613 4750 3031 4423 
Q 3450 4097 3450 3541 
Q 3450 3153 3228 2886 
Q 3006 2619 2597 2516 
z
" transform="scale(0.015625)"/>
       </defs>
       <use xlink:href="#DejaVuSans-31"/>
       <use xlink:href="#DejaVuSans-33" x="63.623047"/>
       <use xlink:href="#DejaVuSans-35" x="127.246094"/>
       <use xlink:href="#DejaVuSans-b0" x="190.869141"/>
      </g>
     </g>
    </g>
    <g id="xtick_5">
     <g id="line2d_5">
      <path d="M 166.29975 159.095062 
L 166.29975 292.151062 
" clip-path="url(#pabdcb798ef)" style="fill: none; stroke: #b0b0b0; stroke-width: 0.8; stroke-linecap: square"/>
     </g>
     <g id="text_5">
      <!-- 180° -->
      <g transform="translate(154.256 308.910437) scale(0.1 -0.1)">
       <defs>
        <path id="DejaVuSans-38" d="M 2034 2216 
Q 1584 2216 1326 1975 
Q 1069 1734 1069 1313 
Q 1069 891 1326 650 
Q 1584 409 2034 409 
Q 2484 409 2743 651 
Q 3003 894 3003 1313 
Q 3003 1734 2745 1975 
Q 2488 2216 2034 2216 
z
M 1403 2484 
Q 997 2584 770 2862 
Q 544 3141 544 3541 
Q 544 4100 942 4425 
Q 1341 4750 2034 4750 
Q 2731 4750 3128 4425 
Q 3525 4100 3525 3541 
Q 3525 3141 3298 2862 
Q 3072 2584 2669 2484 
Q 3125 2378 3379 2068 
Q 3634 1759 3634 1313 
Q 3634 634 3220 271 
Q 2806 -91 2034 -91 
Q 1263 -91 848 271 
Q 434 634 434 1313 
Q 434 1759 690 2068 
Q 947 2378 1403 2484 
z
M 1172 3481 
Q 1172 3119 1398 2916 
Q 1625 2713 2034 2713 
Q 2441 2713 2670 2916 
Q 2900 3119 2900 3481 
Q 2900 3844 2670 4047 
Q 2441 4250 2034 4250 
Q 1625 4250 1398 4047 
Q 1172 3844 1172 3481 
z
" transform="scale(0.015625)"/>
       </defs>
       <use xlink:href="#DejaVuSans-31"/>
       <use xlink:href="#DejaVuSans-38" x="63.623047"/>
       <use xlink:href="#DejaVuSans-30" x="127.246094"/>
       <use xlink:href="#DejaVuSans-b0" x="190.869141"/>
      </g>
     </g>
    </g>
    <g id="xtick_6">
     <g id="line2d_6">
      <path d="M 166.29975 159.095062 
L 72.21495 253.179862 
" clip-path="url(#pabdcb798ef)" style="fill: none; stroke: #b0b0b0; stroke-width: 0.8; stroke-linecap: square"/>
     </g>
     <g id="text_6">
      <!-- 225° -->
      <g transform="translate(50.271705 265.838732) scale(0.1 -0.1)">
       <defs>
        <path id="DejaVuSans-32" d="M 1228 531 
L 3431 531 
L 3431 0 
L 469 0 
L 469 531 
Q 828 903 1448 1529 
Q 2069 2156 2228 2338 
Q 2531 2678 2651 2914 
Q 2772 3150 2772 3378 
Q 2772 3750 2511 3984 
Q 2250 4219 1831 4219 
Q 1534 4219 1204 4116 
Q 875 4013 500 3803 
L 500 4441 
Q 881 4594 1212 4672 
Q 1544 4750 1819 4750 
Q 2544 4750 2975 4387 
Q 3406 4025 3406 3419 
Q 3406 3131 3298 2873 
Q 3191 2616 2906 2266 
Q 2828 2175 2409 1742 
Q 1991 1309 1228 531 
z
" transform="scale(0.015625)"/>
       </defs>
       <use xlink:href="#DejaVuSans-32"/>
       <use xlink:href="#DejaVuSans-32" x="63.623047"/>
       <use xlink:href="#DejaVuSans-35" x="127.246094"/>
       <use xlink:href="#DejaVuSans-b0" x="190.869141"/>
      </g>
     </g>
    </g>
    <g id="xtick_7">
     <g id="line2d_7">
      <path d="M 166.29975 159.095062 
L 33.24375 159.095062 
" clip-path="url(#pabdcb798ef)" style="fill: none; stroke: #b0b0b0; stroke-width: 0.8; stroke-linecap: square"/>
     </g>
     <g id="text_7">
      <!-- 270° -->
      <g transform="translate(7.2 161.854437) scale(0.1 -0.1)">
       <defs>
        <path id="DejaVuSans-37" d="M 525 4666 
L 3525 4666 
L 3525 4397 
L 1831 0 
L 1172 0 
L 2766 4134 
L 525 4134 
L 525 4666 
z
" transform="scale(0.015625)"/>
       </defs>
       <use xlink:href="#DejaVuSans-32"/>
       <use xlink:href="#DejaVuSans-37" x="63.623047"/>
       <use xlink:href="#DejaVuSans-30" x="127.246094"/>
       <use xlink:href="#DejaVuSans-b0" x="190.869141"/>
      </g>
     </g>
    </g>
    <g id="xtick_8">
     <g id="line2d_8">
      <path d="M 166.29975 159.095062 
L 72.21495 65.010263 
" clip-path="url(#pabdcb798ef)" style="fill: none; stroke: #b0b0b0; stroke-width: 0.8; stroke-linecap: square"/>
     </g>
     <g id="text_8">
      <!-- 315° -->
      <g transform="translate(50.271705 57.870143) scale(0.1 -0.1)">
       <use xlink:href="#DejaVuSans-33"/>
       <use xlink:href="#DejaVuSans-31" x="63.623047"/>
       <use xlink:href="#DejaVuSans-35" x="127.246094"/>
       <use xlink:href="#DejaVuSans-b0" x="190.869141"/>
      </g>
     </g>
    </g>
   </g>
   <g id="matplotlib.axis_2">
    <g id="ytick_1">
     <g id="line2d_9">
      <path d="M 166.29975 145.58477 
C 168.073905 145.58477 169.830809 145.93424 171.469915 146.61318 
C 173.109021 147.29212 174.598452 148.287326 175.85297 149.541843 
C 177.107487 150.79636 178.102693 152.285792 178.781633 153.924897 
C 179.460573 155.564003 179.810043 157.320907 179.810043 159.095062 
C 179.810043 160.869218 179.460573 162.626122 178.781633 164.265228 
C 178.102693 165.904333 177.107487 167.393765 175.85297 168.648282 
C 174.598452 169.902799 173.109021 170.898005 171.469915 171.576945 
C 169.830809 172.255885 168.073905 172.605355 166.29975 172.605355 
C 164.525595 172.605355 162.768691 172.255885 161.129585 171.576945 
C 159.490479 170.898005 158.001048 169.902799 156.74653 168.648282 
C 155.492013 167.393765 154.496807 165.904333 153.817867 164.265228 
C 153.138927 162.626122 152.789457 160.869218 152.789457 159.095062 
C 152.789457 157.320907 153.138927 155.564003 153.817867 153.924897 
C 154.496807 152.285792 155.492013 150.79636 156.74653 149.541843 
C 158.001048 148.287326 159.490479 147.29212 161.129585 146.61318 
C 162.768691 145.93424 164.525595 145.58477 166.29975 145.58477 
" clip-path="url(#pabdcb798ef)" style="fill: none; stroke: #b0b0b0; stroke-width: 0.8; stroke-linecap: square"/>
     </g>
     <g id="text_9">
      <!-- −8 -->
      <g transform="translate(177.366734 149.26619) scale(0.1 -0.1)">
       <defs>
        <path id="DejaVuSans-2212" d="M 678 2272 
L 4684 2272 
L 4684 1741 
L 678 1741 
L 678 2272 
z
" transform="scale(0.015625)"/>
       </defs>
       <use xlink:href="#DejaVuSans-2212"/>
       <use xlink:href="#DejaVuSans-38" x="83.789062"/>
      </g>
     </g>
    </g>
    <g id="ytick_2">
     <g id="line2d_10">
      <path d="M 166.29975 130.641556 
C 170.03623 130.641556 173.736378 131.377562 177.188435 132.807451 
C 180.640493 134.23734 183.777327 136.333305 186.419417 138.975395 
C 189.061508 141.617486 191.157473 144.75432 192.587362 148.206377 
C 194.017251 151.658435 194.753256 155.358582 194.753256 159.095062 
C 194.753256 162.831543 194.017251 166.53169 192.587362 169.983748 
C 191.157473 173.435805 189.061508 176.572639 186.419417 179.21473 
C 183.777327 181.85682 180.640493 183.952785 177.188435 185.382674 
C 173.736378 186.812563 170.03623 187.548569 166.29975 187.548569 
C 162.56327 187.548569 158.863122 186.812563 155.411065 185.382674 
C 151.959007 183.952785 148.822173 181.85682 146.180083 179.21473 
C 143.537992 176.572639 141.442027 173.435805 140.012138 169.983748 
C 138.582249 166.53169 137.846244 162.831543 137.846244 159.095062 
C 137.846244 155.358582 138.582249 151.658435 140.012138 148.206377 
C 141.442027 144.75432 143.537992 141.617486 146.180083 138.975395 
C 148.822173 136.333305 151.959007 134.23734 155.411065 132.807451 
C 158.863122 131.377562 162.56327 130.641556 166.29975 130.641556 
" clip-path="url(#pabdcb798ef)" style="fill: none; stroke: #b0b0b0; stroke-width: 0.8; stroke-linecap: square"/>
     </g>
     <g id="text_10">
      <!-- −7 -->
      <g transform="translate(189.607498 140.695114) scale(0.1 -0.1)">
       <use xlink:href="#DejaVuSans-2212"/>
       <use xlink:href="#DejaVuSans-37" x="83.789062"/>
      </g>
     </g>
    </g>
    <g id="ytick_3">
     <g id="line2d_11">
      <path d="M 166.29975 115.698343 
C 171.998555 115.698343 177.641946 116.820883 182.906956 119.001722 
C 188.171965 121.18256 192.956201 124.379284 196.985865 128.408948 
C 201.015528 132.438612 204.212253 137.222848 206.393091 142.487857 
C 208.573929 147.752866 209.696469 153.396258 209.696469 159.095062 
C 209.696469 164.793867 208.573929 170.437259 206.393091 175.702268 
C 204.212253 180.967277 201.015528 185.751513 196.985865 189.781177 
C 192.956201 193.810841 188.171965 197.007565 182.906956 199.188403 
C 177.641946 201.369242 171.998555 202.491782 166.29975 202.491782 
C 160.600945 202.491782 154.957554 201.369242 149.692544 199.188403 
C 144.427535 197.007565 139.643299 193.810841 135.613635 189.781177 
C 131.583972 185.751513 128.387247 180.967277 126.206409 175.702268 
C 124.025571 170.437259 122.903031 164.793867 122.903031 159.095062 
C 122.903031 153.396258 124.025571 147.752866 126.206409 142.487857 
C 128.387247 137.222848 131.583972 132.438612 135.613635 128.408948 
C 139.643299 124.379284 144.427535 121.18256 149.692544 119.001722 
C 154.957554 116.820883 160.600945 115.698343 166.29975 115.698343 
" clip-path="url(#pabdcb798ef)" style="fill: none; stroke: #b0b0b0; stroke-width: 0.8; stroke-linecap: square"/>
     </g>
     <g id="text_11">
      <!-- −6 -->
      <g transform="translate(201.848261 132.124039) scale(0.1 -0.1)">
       <defs>
        <path id="DejaVuSans-36" d="M 2113 2584 
Q 1688 2584 1439 2293 
Q 1191 2003 1191 1497 
Q 1191 994 1439 701 
Q 1688 409 2113 409 
Q 2538 409 2786 701 
Q 3034 994 3034 1497 
Q 3034 2003 2786 2293 
Q 2538 2584 2113 2584 
z
M 3366 4563 
L 3366 3988 
Q 3128 4100 2886 4159 
Q 2644 4219 2406 4219 
Q 1781 4219 1451 3797 
Q 1122 3375 1075 2522 
Q 1259 2794 1537 2939 
Q 1816 3084 2150 3084 
Q 2853 3084 3261 2657 
Q 3669 2231 3669 1497 
Q 3669 778 3244 343 
Q 2819 -91 2113 -91 
Q 1303 -91 875 529 
Q 447 1150 447 2328 
Q 447 3434 972 4092 
Q 1497 4750 2381 4750 
Q 2619 4750 2861 4703 
Q 3103 4656 3366 4563 
z
" transform="scale(0.015625)"/>
       </defs>
       <use xlink:href="#DejaVuSans-2212"/>
       <use xlink:href="#DejaVuSans-36" x="83.789062"/>
      </g>
     </g>
    </g>
    <g id="ytick_4">
     <g id="line2d_12">
      <path d="M 166.29975 100.75513 
C 173.96088 100.75513 181.547515 102.264205 188.625476 105.195993 
C 195.703437 108.12778 202.135075 112.425264 207.552312 117.8425 
C 212.969549 123.259737 217.267032 129.691376 220.19882 136.769337 
C 223.130607 143.847298 224.639683 151.433933 224.639683 159.095062 
C 224.639683 166.756192 223.130607 174.342827 220.19882 181.420788 
C 217.267032 188.498749 212.969549 194.930388 207.552312 200.347625 
C 202.135075 205.764861 195.703437 210.062345 188.625476 212.994132 
C 181.547515 215.92592 173.96088 217.434995 166.29975 217.434995 
C 158.63862 217.434995 151.051985 215.92592 143.974024 212.994132 
C 136.896063 210.062345 130.464425 205.764861 125.047188 200.347625 
C 119.629951 194.930388 115.332468 188.498749 112.40068 181.420788 
C 109.468893 174.342827 107.959817 166.756192 107.959817 159.095062 
C 107.959817 151.433933 109.468893 143.847298 112.40068 136.769337 
C 115.332468 129.691376 119.629951 123.259737 125.047188 117.8425 
C 130.464425 112.425264 136.896063 108.12778 143.974024 105.195993 
C 151.051985 102.264205 158.63862 100.75513 166.29975 100.75513 
" clip-path="url(#pabdcb798ef)" style="fill: none; stroke: #b0b0b0; stroke-width: 0.8; stroke-linecap: square"/>
     </g>
     <g id="text_12">
      <!-- −5 -->
      <g transform="translate(214.089025 123.552964) scale(0.1 -0.1)">
       <use xlink:href="#DejaVuSans-2212"/>
       <use xlink:href="#DejaVuSans-35" x="83.789062"/>
      </g>
     </g>
    </g>
    <g id="ytick_5">
     <g id="line2d_13">
      <path d="M 166.29975 85.811916 
C 175.923205 85.811916 185.453083 87.707527 194.343996 91.390264 
C 203.234909 95.073 211.31395 100.471243 218.11876 107.276053 
C 224.92357 114.080863 230.321812 122.159904 234.004549 131.050817 
C 237.687286 139.941729 239.582896 149.471608 239.582896 159.095062 
C 239.582896 168.718517 237.687286 178.248396 234.004549 187.139308 
C 230.321812 196.030221 224.92357 204.109262 218.11876 210.914072 
C 211.31395 217.718882 203.234909 223.117125 194.343996 226.799861 
C 185.453083 230.482598 175.923205 232.378209 166.29975 232.378209 
C 156.676295 232.378209 147.146417 230.482598 138.255504 226.799861 
C 129.364591 223.117125 121.28555 217.718882 114.48074 210.914072 
C 107.67593 204.109262 102.277688 196.030221 98.594951 187.139308 
C 94.912214 178.248396 93.016604 168.718517 93.016604 159.095062 
C 93.016604 149.471608 94.912214 139.941729 98.594951 131.050817 
C 102.277688 122.159904 107.67593 114.080863 114.48074 107.276053 
C 121.28555 100.471243 129.364591 95.073 138.255504 91.390264 
C 147.146417 87.707527 156.676295 85.811916 166.29975 85.811916 
" clip-path="url(#pabdcb798ef)" style="fill: none; stroke: #b0b0b0; stroke-width: 0.8; stroke-linecap: square"/>
     </g>
     <g id="text_13">
      <!-- −4 -->
      <g transform="translate(226.329789 114.981889) scale(0.1 -0.1)">
       <use xlink:href="#DejaVuSans-2212"/>
       <use xlink:href="#DejaVuSans-34" x="83.789062"/>
      </g>
     </g>
    </g>
    <g id="ytick_6">
     <g id="line2d_14">
      <path d="M 166.29975 70.868703 
C 177.885529 70.868703 189.358652 73.150849 200.062516 77.584535 
C 210.766381 82.01822 220.492824 88.517222 228.685207 96.709605 
C 236.87759 104.901988 243.376592 114.628432 247.810278 125.332296 
C 252.243964 136.036161 254.52611 147.509283 254.52611 159.095062 
C 254.52611 170.680842 252.243964 182.153964 247.810278 192.857829 
C 243.376592 203.561693 236.87759 213.288137 228.685207 221.48052 
C 220.492824 229.672903 210.766381 236.171905 200.062516 240.60559 
C 189.358652 245.039276 177.885529 247.321422 166.29975 247.321422 
C 154.713971 247.321422 143.240848 245.039276 132.536984 240.60559 
C 121.833119 236.171905 112.106676 229.672903 103.914293 221.48052 
C 95.72191 213.288137 89.222908 203.561693 84.789222 192.857829 
C 80.355536 182.153964 78.07339 170.680842 78.07339 159.095062 
C 78.07339 147.509283 80.355536 136.036161 84.789222 125.332296 
C 89.222908 114.628432 95.72191 104.901988 103.914293 96.709605 
C 112.106676 88.517222 121.833119 82.01822 132.536984 77.584535 
C 143.240848 73.150849 154.713971 70.868703 166.29975 70.868703 
" clip-path="url(#pabdcb798ef)" style="fill: none; stroke: #b0b0b0; stroke-width: 0.8; stroke-linecap: square"/>
     </g>
     <g id="text_14">
      <!-- −3 -->
      <g transform="translate(238.570553 106.410814) scale(0.1 -0.1)">
       <use xlink:href="#DejaVuSans-2212"/>
       <use xlink:href="#DejaVuSans-33" x="83.789062"/>
      </g>
     </g>
    </g>
    <g id="ytick_7">
     <g id="line2d_15">
      <path d="M 166.29975 55.925489 
C 179.847854 55.925489 193.26422 58.59417 205.781036 63.778805 
C 218.297853 68.963441 229.671698 76.563201 239.251655 86.143158 
C 248.831611 95.723114 256.431372 107.09696 261.616007 119.613776 
C 266.800642 132.130592 269.469323 145.546958 269.469323 159.095062 
C 269.469323 172.643167 266.800642 186.059533 261.616007 198.576349 
C 256.431372 211.093165 248.831611 222.467011 239.251655 232.046967 
C 229.671698 241.626924 218.297853 249.226684 205.781036 254.41132 
C 193.26422 259.595955 179.847854 262.264636 166.29975 262.264636 
C 152.751646 262.264636 139.33528 259.595955 126.818464 254.41132 
C 114.301647 249.226684 102.927802 241.626924 93.347845 232.046967 
C 83.767889 222.467011 76.168128 211.093165 70.983493 198.576349 
C 65.798858 186.059533 63.130177 172.643167 63.130177 159.095062 
C 63.130177 145.546958 65.798858 132.130592 70.983493 119.613776 
C 76.168128 107.09696 83.767889 95.723114 93.347845 86.143158 
C 102.927802 76.563201 114.301647 68.963441 126.818464 63.778805 
C 139.33528 58.59417 152.751646 55.925489 166.29975 55.925489 
" clip-path="url(#pabdcb798ef)" style="fill: none; stroke: #b0b0b0; stroke-width: 0.8; stroke-linecap: square"/>
     </g>
     <g id="text_15">
      <!-- −2 -->
      <g transform="translate(250.811317 97.839739) scale(0.1 -0.1)">
       <use xlink:href="#DejaVuSans-2212"/>
       <use xlink:href="#DejaVuSans-32" x="83.789062"/>
      </g>
     </g>
    </g>
    <g id="ytick_8">
     <g id="line2d_16">
      <path d="M 166.29975 40.982276 
C 181.810179 40.982276 197.169789 44.037492 211.499557 49.973076 
C 225.829324 55.908661 238.850573 64.609181 249.818102 75.57671 
C 260.785632 86.54424 269.486152 99.565488 275.421736 113.895256 
C 281.35732 128.225024 284.412537 143.584633 284.412537 159.095062 
C 284.412537 174.605492 281.35732 189.965101 275.421736 204.294869 
C 269.486152 218.624637 260.785632 231.645885 249.818102 242.613415 
C 238.850573 253.580944 225.829324 262.281464 211.499557 268.217049 
C 197.169789 274.152633 181.810179 277.207849 166.29975 277.207849 
C 150.789321 277.207849 135.429711 274.152633 121.099943 268.217049 
C 106.770176 262.281464 93.748927 253.580944 82.781398 242.613415 
C 71.813868 231.645885 63.113348 218.624637 57.177764 204.294869 
C 51.24218 189.965101 48.186963 174.605492 48.186963 159.095062 
C 48.186963 143.584633 51.24218 128.225024 57.177764 113.895256 
C 63.113348 99.565488 71.813868 86.54424 82.781398 75.57671 
C 93.748927 64.609181 106.770176 55.908661 121.099943 49.973076 
C 135.429711 44.037492 150.789321 40.982276 166.29975 40.982276 
" clip-path="url(#pabdcb798ef)" style="fill: none; stroke: #b0b0b0; stroke-width: 0.8; stroke-linecap: square"/>
     </g>
     <g id="text_16">
      <!-- −1 -->
      <g transform="translate(263.052081 89.268664) scale(0.1 -0.1)">
       <use xlink:href="#DejaVuSans-2212"/>
       <use xlink:href="#DejaVuSans-31" x="83.789062"/>
      </g>
     </g>
    </g>
    <g id="ytick_9">
     <g id="line2d_17">
      <path d="M 166.29975 26.039062 
C 183.772504 26.039062 201.075357 29.480814 217.218077 36.167347 
C 233.360796 42.853881 248.029447 52.65516 260.38455 65.010263 
C 272.739653 77.365365 282.540932 92.034016 289.227465 108.176736 
C 295.913998 124.319455 299.35575 141.622309 299.35575 159.095062 
C 299.35575 176.567816 295.913998 193.87067 289.227465 210.013389 
C 282.540932 226.156109 272.739653 240.82476 260.38455 253.179862 
C 248.029447 265.534965 233.360796 275.336244 217.218077 282.022778 
C 201.075357 288.709311 183.772504 292.151062 166.29975 292.151062 
C 148.826996 292.151062 131.524143 288.709311 115.381423 282.022778 
C 99.238704 275.336244 84.570053 265.534965 72.21495 253.179862 
C 59.859847 240.82476 50.058568 226.156109 43.372035 210.013389 
C 36.685502 193.87067 33.24375 176.567816 33.24375 159.095062 
C 33.24375 141.622309 36.685502 124.319455 43.372035 108.176736 
C 50.058568 92.034016 59.859847 77.365365 72.21495 65.010263 
C 84.570053 52.65516 99.238704 42.853881 115.381423 36.167347 
C 131.524143 29.480814 148.826996 26.039062 166.29975 26.039062 
" clip-path="url(#pabdcb798ef)" style="fill: none; stroke: #b0b0b0; stroke-width: 0.8; stroke-linecap: square"/>
     </g>
     <g id="text_17">
      <!-- 0 -->
      <g transform="translate(275.292844 80.697589) scale(0.1 -0.1)">
       <use xlink:href="#DejaVuSans-30"/>
      </g>
     </g>
    </g>
   </g>
   <g id="line2d_18">
    <path d="M 166.29975 248.257284 
L 164.713303 243.164546 
L 163.328794 237.785932 
L 162.160203 232.147 
L 161.219291 226.281505 
L 160.514674 220.233211 
L 160.050661 214.057863 
L 159.82584 207.825154 
L 159.831467 201.620352 
L 160.049767 195.545082 
L 160.452407 189.716515 
L 161.205433 182.553618 
L 162.088533 176.378435 
L 163.321072 169.582453 
L 163.974259 165.811022 
L 163.824979 165.96155 
L 162.942845 167.564298 
L 160.617419 171.771861 
L 158.37782 175.376392 
L 155.851346 178.956107 
L 153.733164 181.590287 
L 151.607842 183.907439 
L 149.537178 185.845849 
L 147.572825 187.373866 
L 145.757237 188.481957 
L 144.124729 189.176491 
L 143.037062 189.436276 
L 142.076828 189.483646 
L 141.251216 189.330923 
L 140.565665 188.99182 
L 140.023954 188.481081 
L 139.628274 187.81419 
L 139.379274 187.007142 
L 139.273755 185.741285 
L 139.421224 184.294354 
L 139.811029 182.705366 
L 140.428071 181.012773 
L 141.488995 178.808145 
L 142.82772 176.569341 
L 144.388906 174.360313 
L 146.467964 171.828164 
L 148.661916 169.501358 
L 151.210978 167.123993 
L 153.902578 164.911595 
L 157.100504 162.591514 
L 159.763698 160.633285 
L 160.013709 160.203461 
L 159.99264 159.802117 
L 159.872027 158.882744 
L 159.958654 157.832444 
L 159.620497 157.411878 
L 158.610528 156.634056 
L 153.425383 152.905779 
L 150.673941 150.590251 
L 148.109113 148.129959 
L 145.932823 145.745354 
L 143.900785 143.173766 
L 142.400074 140.949482 
L 141.139245 138.713936 
L 140.17119 136.53289 
L 139.539717 134.477077 
L 139.299882 132.972322 
L 139.30957 131.633974 
L 139.576592 130.501147 
L 139.94783 129.809775 
L 140.465312 129.271919 
L 141.127109 128.903163 
L 141.929709 128.718392 
L 142.867957 128.731516 
L 143.934962 128.955115 
L 145.121987 129.399996 
L 146.418305 130.074609 
L 148.294116 131.340164 
L 150.303781 133.02423 
L 152.401522 135.109801 
L 154.531976 137.554975 
L 156.629382 140.284382 
L 159.087659 143.910132 
L 161.207355 147.441029 
L 163.993338 152.365835 
L 164.009974 152.274817 
L 163.894913 151.457426 
L 161.976066 141.104316 
L 161.101305 134.788682 
L 160.534809 129.412092 
L 160.105003 123.636973 
L 159.853708 117.594295 
L 159.811134 111.403584 
L 159.996717 105.169167 
L 160.420589 98.979015 
L 161.085268 92.905321 
L 161.987296 87.006022 
L 163.118685 81.326738 
L 164.468129 75.902762 
L 166.021961 70.760902 
L 167.764909 65.921096 
L 169.680654 61.397764 
L 171.75226 57.200928 
L 173.962481 53.337096 
L 176.293986 49.809982 
L 178.729526 46.62106 
L 181.252046 43.770005 
L 183.844766 41.255035 
L 186.491244 39.073172 
L 189.175407 37.220451 
L 191.881588 35.692075 
L 194.594537 34.482539 
L 197.299442 33.585724 
L 199.981935 32.994968 
L 202.628101 32.703124 
L 205.224486 32.702599 
L 207.758107 32.985387 
L 210.216457 33.543095 
L 212.587514 34.36696 
L 214.859754 35.447866 
L 217.022162 36.776347 
L 219.064248 38.342601 
L 220.976059 40.136493 
L 222.748202 42.147557 
L 224.371867 44.364999 
L 225.838846 46.7777 
L 227.141565 49.374212 
L 228.273118 52.142762 
L 229.227294 55.07125 
L 229.998626 58.147248 
L 230.582427 61.358001 
L 230.974842 64.690429 
L 231.172903 68.13113 
L 231.174581 71.66638 
L 230.978854 75.282143 
L 230.585771 78.964082 
L 229.996525 82.697571 
L 229.213526 86.46772 
L 228.240475 90.259398 
L 227.08244 94.057273 
L 225.745931 97.84586 
L 223.700364 102.855932 
L 221.375255 107.784873 
L 218.79899 112.596127 
L 216.005023 117.254027 
L 213.031691 121.724434 
L 209.921775 125.975494 
L 206.721772 129.97848 
L 203.480832 133.708711 
L 199.448888 137.958409 
L 195.52879 141.725828 
L 191.810837 145.001193 
L 187.724471 148.292946 
L 183.597157 151.308874 
L 179.419948 154.061057 
L 173.039848 158.145642 
L 172.795463 158.634679 
L 172.751641 159.28787 
L 172.903141 159.835331 
L 173.252141 160.27592 
L 174.013506 160.859323 
L 176.360389 162.280218 
L 180.891031 165.065183 
L 184.98574 167.862197 
L 188.70215 170.656465 
L 192.90007 174.119963 
L 196.68751 177.542981 
L 200.651066 181.45686 
L 203.886469 184.932049 
L 207.125037 188.697564 
L 210.316426 192.733001 
L 213.411744 197.013123 
L 216.36491 201.508764 
L 219.133663 206.187738 
L 221.68026 211.015677 
L 223.971874 215.956771 
L 225.980756 220.974391 
L 227.288034 224.765606 
L 228.41565 228.56352 
L 229.35734 232.352669 
L 230.108269 236.117753 
L 230.664954 239.843678 
L 231.025195 243.515596 
L 231.187995 247.118928 
L 231.153488 250.639385 
L 230.922868 254.062985 
L 230.498324 257.376057 
L 229.882977 260.56525 
L 229.080824 263.61754 
L 228.096685 266.520225 
L 226.936154 269.260934 
L 225.60556 271.82762 
L 224.111923 274.208564 
L 222.462926 276.392373 
L 220.666876 278.367983 
L 218.732685 280.124653 
L 216.66984 281.651973 
L 214.488383 282.939863 
L 212.198895 283.978576 
L 209.812475 284.758706 
L 207.340732 285.271193 
L 204.795769 285.507334 
L 202.190172 285.458801 
L 199.537006 285.117654 
L 196.849799 284.476373 
L 194.142543 283.527886 
L 191.429681 282.265619 
L 188.7261 280.68355 
L 186.047118 278.776284 
L 183.408473 276.539154 
L 180.826301 273.968347 
L 178.317105 271.06107 
L 175.897713 267.815761 
L 173.58522 264.23237 
L 171.396899 260.312712 
L 169.350077 256.060922 
L 167.461968 251.484043 
L 166.29975 248.257284 
L 166.29975 248.257284 
" clip-path="url(#pabdcb798ef)" style="fill: none; stroke: #1f77b4; stroke-width: 1.5; stroke-linecap: square"/>
   </g>
   <g id="patch_3">
    <path d="M 166.29975 26.039062 
C 148.826996 26.039062 131.524143 29.480814 115.381423 36.167347 
C 99.238704 42.853881 84.570053 52.65516 72.21495 65.010263 
C 59.859847 77.365365 50.058568 92.034016 43.372035 108.176736 
C 36.685502 124.319455 33.24375 141.622309 33.24375 159.095062 
C 33.24375 176.567816 36.685502 193.87067 43.372035 210.013389 
C 50.058568 226.156109 59.859847 240.82476 72.21495 253.179862 
C 84.570053 265.534965 99.238704 275.336244 115.381423 282.022778 
C 131.524143 288.709311 148.826996 292.151062 166.29975 292.151062 
C 183.772504 292.151062 201.075357 288.709311 217.218077 282.022778 
C 233.360796 275.336244 248.029447 265.534965 260.38455 253.179862 
C 272.739653 240.82476 282.540932 226.156109 289.227465 210.013389 
C 295.913998 193.87067 299.35575 176.567816 299.35575 159.095062 
C 299.35575 141.622309 295.913998 124.319455 289.227465 108.176736 
C 282.540932 92.034016 272.739653 77.365365 260.38455 65.010263 
C 248.029447 52.65516 233.360796 42.853881 217.218077 36.167347 
C 201.075357 29.480814 183.772504 26.039062 166.29975 26.039062 
" style="fill: none; stroke: #000000; stroke-width: 0.8; stroke-linejoin: miter; stroke-linecap: square"/>
   </g>
  </g>
 </g>
 <defs>
  <clipPath id="pabdcb798ef">
   <path d="M 299.35575 159.095062 
C 299.35575 141.622309 295.913998 124.319455 289.227465 108.176736 
C 282.540932 92.034016 272.739653 77.365365 260.38455 65.010263 
C 248.029447 52.65516 233.360796 42.853881 217.218077 36.167347 
C 201.075357 29.480814 183.772504 26.039062 166.29975 26.039062 
C 148.826996 26.039062 131.524143 29.480814 115.381423 36.167347 
C 99.238704 42.853881 84.570053 52.65516 72.21495 65.010263 
C 59.859847 77.365365 50.058568 92.034016 43.372035 108.176736 
C 36.685502 124.319455 33.24375 141.622309 33.24375 159.095062 
C 33.24375 176.567816 36.685502 193.87067 43.372035 210.013389 
C 50.058568 226.156109 59.859847 240.82476 72.21495 253.179862 
C 84.570053 265.534965 99.238704 275.336244 115.381423 282.022778 
C 131.524143 288.709311 148.826996 292.151062 166.29975 292.151062 
C 183.772504 292.151062 201.075357 288.709311 217.218077 282.022778 
C 233.360796 275.336244 248.029447 265.534965 260.38455 253.179862 
C 272.739653 240.82476 282.540932 226.156109 289.227465 210.013389 
C 295.913998 193.87067 299.35575 176.567816 299.35575 159.095062 
M 166.29975 159.095062 
C 166.29975 159.095062 166.29975 159.095062 166.29975 159.095062 
C 166.29975 159.095062 166.29975 159.095062 166.29975 159.095062 
C 166.29975 159.095062 166.29975 159.095062 166.29975 159.095062 
C 166.29975 159.095062 166.29975 159.095062 166.29975 159.095062 
C 166.29975 159.095062 166.29975 159.095062 166.29975 159.095062 
C 166.29975 159.095062 166.29975 159.095062 166.29975 159.095062 
C 166.29975 159.095062 166.29975 159.095062 166.29975 159.095062 
C 166.29975 159.095062 166.29975 159.095062 166.29975 159.095062 
C 166.29975 159.095062 166.29975 159.095062 166.29975 159.095062 
C 166.29975 159.095062 166.29975 159.095062 166.29975 159.095062 
C 166.29975 159.095062 166.29975 159.095062 166.29975 159.095062 
C 166.29975 159.095062 166.29975 159.095062 166.29975 159.095062 
C 166.29975 159.095062 166.29975 159.095062 166.29975 159.095062 
C 166.29975 159.095062 166.29975 159.095062 166.29975 159.095062 
C 166.29975 159.095062 166.29975 159.095062 166.29975 159.095062 
C 166.29975 159.095062 166.29975 159.095062 166.29975 159.095062 
z
"/>
  </clipPath>
 </defs>
</svg>
