<?xml version="1.0" encoding="utf-8" standalone="no"?>
<!DOCTYPE svg PUBLIC "-//W3C//DTD SVG 1.1//EN"
  "http://www.w3.org/Graphics/SVG/1.1/DTD/svg11.dtd">
<svg xmlns:xlink="http://www.w3.org/1999/xlink" width="329.41825pt" height="318.190125pt" viewBox="0 0 329.41825 318.190125" xmlns="http://www.w3.org/2000/svg" version="1.1">
 <metadata>
  <rdf:RDF xmlns:dc="http://purl.org/dc/elements/1.1/" xmlns:cc="http://creativecommons.org/ns#" xmlns:rdf="http://www.w3.org/1999/02/22-rdf-syntax-ns#">
   <cc:Work>
    <dc:type rdf:resource="http://purl.org/dc/dcmitype/StillImage"/>
    <dc:date>2024-01-23T00:02:34.166382</dc:date>
    <dc:format>image/svg+xml</dc:format>
    <dc:creator>
     <cc:Agent>
      <dc:title>Matplotlib v3.8.0, https://matplotlib.org/</dc:title>
     </cc:Agent>
    </dc:creator>
   </cc:Work>
  </rdf:RDF>
 </metadata>
 <defs>
  <style type="text/css">*{stroke-linejoin: round; stroke-linecap: butt}</style>
 </defs>
 <g id="figure_1">
  <g id="patch_1">
   <path d="M 0 318.190125 
L 329.41825 318.190125 
L 329.41825 0 
L 0 0 
z
" style="fill: #ffffff"/>
  </g>
  <g id="axes_1">
   <g id="patch_2">
    <path d="M 299.35575 159.095062 
C 299.35575 141.622309 295.913998 124.319455 289.227465 108.176736 
C 282.540932 92.034016 272.739653 77.365365 260.38455 65.010263 
C 248.029447 52.65516 233.360796 42.853881 217.218077 36.167347 
C 201.075357 29.480814 183.772504 26.039062 166.29975 26.039062 
C 148.826996 26.039062 131.524143 29.480814 115.381423 36.167347 
C 99.238704 42.853881 84.570053 52.65516 72.21495 65.010263 
C 59.859847 77.365365 50.058568 92.034016 43.372035 108.176736 
C 36.685502 124.319455 33.24375 141.622309 33.24375 159.095062 
C 33.24375 176.567816 36.685502 193.87067 43.372035 210.013389 
C 50.058568 226.156109 59.859847 240.82476 72.21495 253.179862 
C 84.570053 265.534965 99.238704 275.336244 115.381423 282.022778 
C 131.524143 288.709311 148.826996 292.151062 166.29975 292.151062 
C 183.772504 292.151062 201.075357 288.709311 217.218077 282.022778 
C 233.360796 275.336244 248.029447 265.534965 260.38455 253.179862 
C 272.739653 240.82476 282.540932 226.156109 289.227465 210.013389 
C 295.913998 193.87067 299.35575 176.567816 299.35575 159.095062 
M 166.29975 159.095062 
C 166.29975 159.095062 166.29975 159.095062 166.29975 159.095062 
C 166.29975 159.095062 166.29975 159.095062 166.29975 159.095062 
C 166.29975 159.095062 166.29975 159.095062 166.29975 159.095062 
C 166.29975 159.095062 166.29975 159.095062 166.29975 159.095062 
C 166.29975 159.095062 166.29975 159.095062 166.29975 159.095062 
C 166.29975 159.095062 166.29975 159.095062 166.29975 159.095062 
C 166.29975 159.095062 166.29975 159.095062 166.29975 159.095062 
C 166.29975 159.095062 166.29975 159.095062 166.29975 159.095062 
C 166.29975 159.095062 166.29975 159.095062 166.29975 159.095062 
C 166.29975 159.095062 166.29975 159.095062 166.29975 159.095062 
C 166.29975 159.095062 166.29975 159.095062 166.29975 159.095062 
C 166.29975 159.095062 166.29975 159.095062 166.29975 159.095062 
C 166.29975 159.095062 166.29975 159.095062 166.29975 159.095062 
C 166.29975 159.095062 166.29975 159.095062 166.29975 159.095062 
C 166.29975 159.095062 166.29975 159.095062 166.29975 159.095062 
C 166.29975 159.095062 166.29975 159.095062 166.29975 159.095062 
z
" style="fill: #ffffff"/>
   </g>
   <g id="matplotlib.axis_1">
    <g id="xtick_1">
     <g id="line2d_1">
      <path d="M 166.29975 159.095062 
L 166.29975 26.039062 
" clip-path="url(#p59f1830297)" style="fill: none; stroke: #b0b0b0; stroke-width: 0.8; stroke-linecap: square"/>
     </g>
     <g id="text_1">
      <!-- 0° -->
      <g transform="translate(160.6185 14.798437) scale(0.1 -0.1)">
       <defs>
        <path id="DejaVuSans-30" d="M 2034 4250 
Q 1547 4250 1301 3770 
Q 1056 3291 1056 2328 
Q 1056 1369 1301 889 
Q 1547 409 2034 409 
Q 2525 409 2770 889 
Q 3016 1369 3016 2328 
Q 3016 3291 2770 3770 
Q 2525 4250 2034 4250 
z
M 2034 4750 
Q 2819 4750 3233 4129 
Q 3647 3509 3647 2328 
Q 3647 1150 3233 529 
Q 2819 -91 2034 -91 
Q 1250 -91 836 529 
Q 422 1150 422 2328 
Q 422 3509 836 4129 
Q 1250 4750 2034 4750 
z
" transform="scale(0.015625)"/>
        <path id="DejaVuSans-b0" d="M 1600 4347 
Q 1350 4347 1178 4173 
Q 1006 4000 1006 3750 
Q 1006 3503 1178 3333 
Q 1350 3163 1600 3163 
Q 1850 3163 2022 3333 
Q 2194 3503 2194 3750 
Q 2194 3997 2020 4172 
Q 1847 4347 1600 4347 
z
M 1600 4750 
Q 1800 4750 1984 4673 
Q 2169 4597 2303 4453 
Q 2447 4313 2519 4134 
Q 2591 3956 2591 3750 
Q 2591 3338 2302 3052 
Q 2013 2766 1594 2766 
Q 1172 2766 890 3047 
Q 609 3328 609 3750 
Q 609 4169 896 4459 
Q 1184 4750 1600 4750 
z
" transform="scale(0.015625)"/>
       </defs>
       <use xlink:href="#DejaVuSans-30"/>
       <use xlink:href="#DejaVuSans-b0" x="63.623047"/>
      </g>
     </g>
    </g>
    <g id="xtick_2">
     <g id="line2d_2">
      <path d="M 166.29975 159.095062 
L 260.38455 65.010263 
" clip-path="url(#p59f1830297)" style="fill: none; stroke: #b0b0b0; stroke-width: 0.8; stroke-linecap: square"/>
     </g>
     <g id="text_2">
      <!-- 45° -->
      <g transform="translate(261.421545 57.870143) scale(0.1 -0.1)">
       <defs>
        <path id="DejaVuSans-34" d="M 2419 4116 
L 825 1625 
L 2419 1625 
L 2419 4116 
z
M 2253 4666 
L 3047 4666 
L 3047 1625 
L 3713 1625 
L 3713 1100 
L 3047 1100 
L 3047 0 
L 2419 0 
L 2419 1100 
L 313 1100 
L 313 1709 
L 2253 4666 
z
" transform="scale(0.015625)"/>
        <path id="DejaVuSans-35" d="M 691 4666 
L 3169 4666 
L 3169 4134 
L 1269 4134 
L 1269 2991 
Q 1406 3038 1543 3061 
Q 1681 3084 1819 3084 
Q 2600 3084 3056 2656 
Q 3513 2228 3513 1497 
Q 3513 744 3044 326 
Q 2575 -91 1722 -91 
Q 1428 -91 1123 -41 
Q 819 9 494 109 
L 494 744 
Q 775 591 1075 516 
Q 1375 441 1709 441 
Q 2250 441 2565 725 
Q 2881 1009 2881 1497 
Q 2881 1984 2565 2268 
Q 2250 2553 1709 2553 
Q 1456 2553 1204 2497 
Q 953 2441 691 2322 
L 691 4666 
z
" transform="scale(0.015625)"/>
       </defs>
       <use xlink:href="#DejaVuSans-34"/>
       <use xlink:href="#DejaVuSans-35" x="63.623047"/>
       <use xlink:href="#DejaVuSans-b0" x="127.246094"/>
      </g>
     </g>
    </g>
    <g id="xtick_3">
     <g id="line2d_3">
      <path d="M 166.29975 159.095062 
L 299.35575 159.095062 
" clip-path="url(#p59f1830297)" style="fill: none; stroke: #b0b0b0; stroke-width: 0.8; stroke-linecap: square"/>
     </g>
     <g id="text_3">
      <!-- 90° -->
      <g transform="translate(304.49325 161.854437) scale(0.1 -0.1)">
       <defs>
        <path id="DejaVuSans-39" d="M 703 97 
L 703 672 
Q 941 559 1184 500 
Q 1428 441 1663 441 
Q 2288 441 2617 861 
Q 2947 1281 2994 2138 
Q 2813 1869 2534 1725 
Q 2256 1581 1919 1581 
Q 1219 1581 811 2004 
Q 403 2428 403 3163 
Q 403 3881 828 4315 
Q 1253 4750 1959 4750 
Q 2769 4750 3195 4129 
Q 3622 3509 3622 2328 
Q 3622 1225 3098 567 
Q 2575 -91 1691 -91 
Q 1453 -91 1209 -44 
Q 966 3 703 97 
z
M 1959 2075 
Q 2384 2075 2632 2365 
Q 2881 2656 2881 3163 
Q 2881 3666 2632 3958 
Q 2384 4250 1959 4250 
Q 1534 4250 1286 3958 
Q 1038 3666 1038 3163 
Q 1038 2656 1286 2365 
Q 1534 2075 1959 2075 
z
" transform="scale(0.015625)"/>
       </defs>
       <use xlink:href="#DejaVuSans-39"/>
       <use xlink:href="#DejaVuSans-30" x="63.623047"/>
       <use xlink:href="#DejaVuSans-b0" x="127.246094"/>
      </g>
     </g>
    </g>
    <g id="xtick_4">
     <g id="line2d_4">
      <path d="M 166.29975 159.095062 
L 260.38455 253.179862 
" clip-path="url(#p59f1830297)" style="fill: none; stroke: #b0b0b0; stroke-width: 0.8; stroke-linecap: square"/>
     </g>
     <g id="text_4">
      <!-- 135° -->
      <g transform="translate(258.240295 265.838732) scale(0.1 -0.1)">
       <defs>
        <path id="DejaVuSans-31" d="M 794 531 
L 1825 531 
L 1825 4091 
L 703 3866 
L 703 4441 
L 1819 4666 
L 2450 4666 
L 2450 531 
L 3481 531 
L 3481 0 
L 794 0 
L 794 531 
z
" transform="scale(0.015625)"/>
        <path id="DejaVuSans-33" d="M 2597 2516 
Q 3050 2419 3304 2112 
Q 3559 1806 3559 1356 
Q 3559 666 3084 287 
Q 2609 -91 1734 -91 
Q 1441 -91 1130 -33 
Q 819 25 488 141 
L 488 750 
Q 750 597 1062 519 
Q 1375 441 1716 441 
Q 2309 441 2620 675 
Q 2931 909 2931 1356 
Q 2931 1769 2642 2001 
Q 2353 2234 1838 2234 
L 1294 2234 
L 1294 2753 
L 1863 2753 
Q 2328 2753 2575 2939 
Q 2822 3125 2822 3475 
Q 2822 3834 2567 4026 
Q 2313 4219 1838 4219 
Q 1578 4219 1281 4162 
Q 984 4106 628 3988 
L 628 4550 
Q 988 4650 1302 4700 
Q 1616 4750 1894 4750 
Q 2613 4750 3031 4423 
Q 3450 4097 3450 3541 
Q 3450 3153 3228 2886 
Q 3006 2619 2597 2516 
z
" transform="scale(0.015625)"/>
       </defs>
       <use xlink:href="#DejaVuSans-31"/>
       <use xlink:href="#DejaVuSans-33" x="63.623047"/>
       <use xlink:href="#DejaVuSans-35" x="127.246094"/>
       <use xlink:href="#DejaVuSans-b0" x="190.869141"/>
      </g>
     </g>
    </g>
    <g id="xtick_5">
     <g id="line2d_5">
      <path d="M 166.29975 159.095062 
L 166.29975 292.151062 
" clip-path="url(#p59f1830297)" style="fill: none; stroke: #b0b0b0; stroke-width: 0.8; stroke-linecap: square"/>
     </g>
     <g id="text_5">
      <!-- 180° -->
      <g transform="translate(154.256 308.910437) scale(0.1 -0.1)">
       <defs>
        <path id="DejaVuSans-38" d="M 2034 2216 
Q 1584 2216 1326 1975 
Q 1069 1734 1069 1313 
Q 1069 891 1326 650 
Q 1584 409 2034 409 
Q 2484 409 2743 651 
Q 3003 894 3003 1313 
Q 3003 1734 2745 1975 
Q 2488 2216 2034 2216 
z
M 1403 2484 
Q 997 2584 770 2862 
Q 544 3141 544 3541 
Q 544 4100 942 4425 
Q 1341 4750 2034 4750 
Q 2731 4750 3128 4425 
Q 3525 4100 3525 3541 
Q 3525 3141 3298 2862 
Q 3072 2584 2669 2484 
Q 3125 2378 3379 2068 
Q 3634 1759 3634 1313 
Q 3634 634 3220 271 
Q 2806 -91 2034 -91 
Q 1263 -91 848 271 
Q 434 634 434 1313 
Q 434 1759 690 2068 
Q 947 2378 1403 2484 
z
M 1172 3481 
Q 1172 3119 1398 2916 
Q 1625 2713 2034 2713 
Q 2441 2713 2670 2916 
Q 2900 3119 2900 3481 
Q 2900 3844 2670 4047 
Q 2441 4250 2034 4250 
Q 1625 4250 1398 4047 
Q 1172 3844 1172 3481 
z
" transform="scale(0.015625)"/>
       </defs>
       <use xlink:href="#DejaVuSans-31"/>
       <use xlink:href="#DejaVuSans-38" x="63.623047"/>
       <use xlink:href="#DejaVuSans-30" x="127.246094"/>
       <use xlink:href="#DejaVuSans-b0" x="190.869141"/>
      </g>
     </g>
    </g>
    <g id="xtick_6">
     <g id="line2d_6">
      <path d="M 166.29975 159.095062 
L 72.21495 253.179862 
" clip-path="url(#p59f1830297)" style="fill: none; stroke: #b0b0b0; stroke-width: 0.8; stroke-linecap: square"/>
     </g>
     <g id="text_6">
      <!-- 225° -->
      <g transform="translate(50.271705 265.838732) scale(0.1 -0.1)">
       <defs>
        <path id="DejaVuSans-32" d="M 1228 531 
L 3431 531 
L 3431 0 
L 469 0 
L 469 531 
Q 828 903 1448 1529 
Q 2069 2156 2228 2338 
Q 2531 2678 2651 2914 
Q 2772 3150 2772 3378 
Q 2772 3750 2511 3984 
Q 2250 4219 1831 4219 
Q 1534 4219 1204 4116 
Q 875 4013 500 3803 
L 500 4441 
Q 881 4594 1212 4672 
Q 1544 4750 1819 4750 
Q 2544 4750 2975 4387 
Q 3406 4025 3406 3419 
Q 3406 3131 3298 2873 
Q 3191 2616 2906 2266 
Q 2828 2175 2409 1742 
Q 1991 1309 1228 531 
z
" transform="scale(0.015625)"/>
       </defs>
       <use xlink:href="#DejaVuSans-32"/>
       <use xlink:href="#DejaVuSans-32" x="63.623047"/>
       <use xlink:href="#DejaVuSans-35" x="127.246094"/>
       <use xlink:href="#DejaVuSans-b0" x="190.869141"/>
      </g>
     </g>
    </g>
    <g id="xtick_7">
     <g id="line2d_7">
      <path d="M 166.29975 159.095062 
L 33.24375 159.095062 
" clip-path="url(#p59f1830297)" style="fill: none; stroke: #b0b0b0; stroke-width: 0.8; stroke-linecap: square"/>
     </g>
     <g id="text_7">
      <!-- 270° -->
      <g transform="translate(7.2 161.854437) scale(0.1 -0.1)">
       <defs>
        <path id="DejaVuSans-37" d="M 525 4666 
L 3525 4666 
L 3525 4397 
L 1831 0 
L 1172 0 
L 2766 4134 
L 525 4134 
L 525 4666 
z
" transform="scale(0.015625)"/>
       </defs>
       <use xlink:href="#DejaVuSans-32"/>
       <use xlink:href="#DejaVuSans-37" x="63.623047"/>
       <use xlink:href="#DejaVuSans-30" x="127.246094"/>
       <use xlink:href="#DejaVuSans-b0" x="190.869141"/>
      </g>
     </g>
    </g>
    <g id="xtick_8">
     <g id="line2d_8">
      <path d="M 166.29975 159.095062 
L 72.21495 65.010263 
" clip-path="url(#p59f1830297)" style="fill: none; stroke: #b0b0b0; stroke-width: 0.8; stroke-linecap: square"/>
     </g>
     <g id="text_8">
      <!-- 315° -->
      <g transform="translate(50.271705 57.870143) scale(0.1 -0.1)">
       <use xlink:href="#DejaVuSans-33"/>
       <use xlink:href="#DejaVuSans-31" x="63.623047"/>
       <use xlink:href="#DejaVuSans-35" x="127.246094"/>
       <use xlink:href="#DejaVuSans-b0" x="190.869141"/>
      </g>
     </g>
    </g>
   </g>
   <g id="matplotlib.axis_2">
    <g id="ytick_1">
     <g id="line2d_9">
      <path d="M 166.29975 153.708636 
C 167.007089 153.708636 167.70755 153.847966 168.361046 154.118653 
C 169.014542 154.38934 169.608365 154.786119 170.108529 155.286284 
C 170.608693 155.786448 171.005472 156.38027 171.276159 157.033766 
C 171.546846 157.687262 171.686177 158.387723 171.686177 159.095062 
C 171.686177 159.802402 171.546846 160.502863 171.276159 161.156359 
C 171.005472 161.809855 170.608693 162.403677 170.108529 162.903841 
C 169.608365 163.404006 169.014542 163.800785 168.361046 164.071472 
C 167.70755 164.342159 167.007089 164.481489 166.29975 164.481489 
C 165.592411 164.481489 164.89195 164.342159 164.238454 164.071472 
C 163.584958 163.800785 162.991135 163.404006 162.490971 162.903841 
C 161.990807 162.403677 161.594028 161.809855 161.323341 161.156359 
C 161.052654 160.502863 160.913323 159.802402 160.913323 159.095062 
C 160.913323 158.387723 161.052654 157.687262 161.323341 157.033766 
C 161.594028 156.38027 161.990807 155.786448 162.490971 155.286284 
C 162.991135 154.786119 163.584958 154.38934 164.238454 154.118653 
C 164.89195 153.847966 165.592411 153.708636 166.29975 153.708636 
" clip-path="url(#p59f1830297)" style="fill: none; stroke: #b0b0b0; stroke-width: 0.8; stroke-linecap: square"/>
     </g>
     <g id="text_9">
      <!-- −70 -->
      <g transform="translate(168.992963 152.350593) scale(0.1 -0.1)">
       <defs>
        <path id="DejaVuSans-2212" d="M 678 2272 
L 4684 2272 
L 4684 1741 
L 678 1741 
L 678 2272 
z
" transform="scale(0.015625)"/>
       </defs>
       <use xlink:href="#DejaVuSans-2212"/>
       <use xlink:href="#DejaVuSans-37" x="83.789062"/>
       <use xlink:href="#DejaVuSans-30" x="147.412109"/>
      </g>
     </g>
    </g>
    <g id="ytick_2">
     <g id="line2d_10">
      <path d="M 166.29975 135.470125 
C 169.402148 135.470125 172.47438 136.08123 175.340622 137.268467 
C 178.206864 138.455703 180.811376 140.195982 183.005103 142.389709 
C 185.19883 144.583436 186.939109 147.187948 188.126346 150.05419 
C 189.313582 152.920433 189.924687 155.992664 189.924687 159.095062 
C 189.924687 162.197461 189.313582 165.269692 188.126346 168.135935 
C 186.939109 171.002177 185.19883 173.606689 183.005103 175.800416 
C 180.811376 177.994143 178.206864 179.734422 175.340622 180.921658 
C 172.47438 182.108895 169.402148 182.72 166.29975 182.72 
C 163.197352 182.72 160.12512 182.108895 157.258878 180.921658 
C 154.392636 179.734422 151.788124 177.994143 149.594397 175.800416 
C 147.40067 173.606689 145.660391 171.002177 144.473154 168.135935 
C 143.285918 165.269692 142.674813 162.197461 142.674813 159.095062 
C 142.674813 155.992664 143.285918 152.920433 144.473154 150.05419 
C 145.660391 147.187948 147.40067 144.583436 149.594397 142.389709 
C 151.788124 140.195982 154.392636 138.455703 157.258878 137.268467 
C 160.12512 136.08123 163.197352 135.470125 166.29975 135.470125 
" clip-path="url(#p59f1830297)" style="fill: none; stroke: #b0b0b0; stroke-width: 0.8; stroke-linecap: square"/>
     </g>
     <g id="text_10">
      <!-- −60 -->
      <g transform="translate(178.112219 136.555579) scale(0.1 -0.1)">
       <defs>
        <path id="DejaVuSans-36" d="M 2113 2584 
Q 1688 2584 1439 2293 
Q 1191 2003 1191 1497 
Q 1191 994 1439 701 
Q 1688 409 2113 409 
Q 2538 409 2786 701 
Q 3034 994 3034 1497 
Q 3034 2003 2786 2293 
Q 2538 2584 2113 2584 
z
M 3366 4563 
L 3366 3988 
Q 3128 4100 2886 4159 
Q 2644 4219 2406 4219 
Q 1781 4219 1451 3797 
Q 1122 3375 1075 2522 
Q 1259 2794 1537 2939 
Q 1816 3084 2150 3084 
Q 2853 3084 3261 2657 
Q 3669 2231 3669 1497 
Q 3669 778 3244 343 
Q 2819 -91 2113 -91 
Q 1303 -91 875 529 
Q 447 1150 447 2328 
Q 447 3434 972 4092 
Q 1497 4750 2381 4750 
Q 2619 4750 2861 4703 
Q 3103 4656 3366 4563 
z
" transform="scale(0.015625)"/>
       </defs>
       <use xlink:href="#DejaVuSans-2212"/>
       <use xlink:href="#DejaVuSans-36" x="83.789062"/>
       <use xlink:href="#DejaVuSans-30" x="147.412109"/>
      </g>
     </g>
    </g>
    <g id="ytick_3">
     <g id="line2d_11">
      <path d="M 166.29975 117.231615 
C 171.797208 117.231615 177.241209 118.314494 182.320198 120.41828 
C 187.399186 122.522066 192.014388 125.605845 195.901678 129.493135 
C 199.788967 133.380424 202.872746 137.995626 204.976532 143.074615 
C 207.080318 148.153603 208.163198 153.597605 208.163198 159.095062 
C 208.163198 164.59252 207.080318 170.036522 204.976532 175.11551 
C 202.872746 180.194499 199.788967 184.809701 195.901678 188.69699 
C 192.014388 192.58428 187.399186 195.668059 182.320198 197.771845 
C 177.241209 199.875631 171.797208 200.95851 166.29975 200.95851 
C 160.802292 200.95851 155.358291 199.875631 150.279302 197.771845 
C 145.200314 195.668059 140.585112 192.58428 136.697822 188.69699 
C 132.810533 184.809701 129.726754 180.194499 127.622968 175.11551 
C 125.519182 170.036522 124.436302 164.59252 124.436302 159.095062 
C 124.436302 153.597605 125.519182 148.153603 127.622968 143.074615 
C 129.726754 137.995626 132.810533 133.380424 136.697822 129.493135 
C 140.585112 125.605845 145.200314 122.522066 150.279302 120.41828 
C 155.358291 118.314494 160.802292 117.231615 166.29975 117.231615 
" clip-path="url(#p59f1830297)" style="fill: none; stroke: #b0b0b0; stroke-width: 0.8; stroke-linecap: square"/>
     </g>
     <g id="text_11">
      <!-- −50 -->
      <g transform="translate(187.231474 120.760566) scale(0.1 -0.1)">
       <use xlink:href="#DejaVuSans-2212"/>
       <use xlink:href="#DejaVuSans-35" x="83.789062"/>
       <use xlink:href="#DejaVuSans-30" x="147.412109"/>
      </g>
     </g>
    </g>
    <g id="ytick_4">
     <g id="line2d_12">
      <path d="M 166.29975 98.993104 
C 174.192267 98.993104 182.008039 100.547758 189.299774 103.568094 
C 196.591508 106.588429 203.2174 111.015708 208.798252 116.59656 
C 214.379104 122.177413 218.806383 128.803304 221.826719 136.095039 
C 224.847054 143.386774 226.401708 151.202546 226.401708 159.095062 
C 226.401708 166.987579 224.847054 174.803351 221.826719 182.095086 
C 218.806383 189.386821 214.379104 196.012712 208.798252 201.593565 
C 203.2174 207.174417 196.591508 211.601696 189.299774 214.622031 
C 182.008039 217.642367 174.192267 219.197021 166.29975 219.197021 
C 158.407233 219.197021 150.591461 217.642367 143.299726 214.622031 
C 136.007992 211.601696 129.3821 207.174417 123.801248 201.593565 
C 118.220396 196.012712 113.793117 189.386821 110.772781 182.095086 
C 107.752446 174.803351 106.197792 166.987579 106.197792 159.095062 
C 106.197792 151.202546 107.752446 143.386774 110.772781 136.095039 
C 113.793117 128.803304 118.220396 122.177413 123.801248 116.59656 
C 129.3821 111.015708 136.007992 106.588429 143.299726 103.568094 
C 150.591461 100.547758 158.407233 98.993104 166.29975 98.993104 
" clip-path="url(#p59f1830297)" style="fill: none; stroke: #b0b0b0; stroke-width: 0.8; stroke-linecap: square"/>
     </g>
     <g id="text_12">
      <!-- −40 -->
      <g transform="translate(196.350729 104.965553) scale(0.1 -0.1)">
       <use xlink:href="#DejaVuSans-2212"/>
       <use xlink:href="#DejaVuSans-34" x="83.789062"/>
       <use xlink:href="#DejaVuSans-30" x="147.412109"/>
      </g>
     </g>
    </g>
    <g id="ytick_5">
     <g id="line2d_13">
      <path d="M 166.29975 80.754594 
C 176.587326 80.754594 186.774868 82.781022 196.279349 86.717907 
C 205.78383 90.654792 214.420412 96.425571 221.694827 103.699986 
C 228.969241 110.974401 234.740021 119.610982 238.676905 129.115463 
C 242.61379 138.619944 244.640219 148.807486 244.640219 159.095062 
C 244.640219 169.382639 242.61379 179.570181 238.676905 189.074662 
C 234.740021 198.579143 228.969241 207.215724 221.694827 214.490139 
C 214.420412 221.764554 205.78383 227.535333 196.279349 231.472218 
C 186.774868 235.409103 176.587326 237.435531 166.29975 237.435531 
C 156.012174 237.435531 145.824632 235.409103 136.320151 231.472218 
C 126.81567 227.535333 118.179088 221.764554 110.904673 214.490139 
C 103.630259 207.215724 97.859479 198.579143 93.922595 189.074662 
C 89.98571 179.570181 87.959281 169.382639 87.959281 159.095062 
C 87.959281 148.807486 89.98571 138.619944 93.922595 129.115463 
C 97.859479 119.610982 103.630259 110.974401 110.904673 103.699986 
C 118.179088 96.425571 126.81567 90.654792 136.320151 86.717907 
C 145.824632 82.781022 156.012174 80.754594 166.29975 80.754594 
" clip-path="url(#p59f1830297)" style="fill: none; stroke: #b0b0b0; stroke-width: 0.8; stroke-linecap: square"/>
     </g>
     <g id="text_13">
      <!-- −30 -->
      <g transform="translate(205.469984 89.170539) scale(0.1 -0.1)">
       <use xlink:href="#DejaVuSans-2212"/>
       <use xlink:href="#DejaVuSans-33" x="83.789062"/>
       <use xlink:href="#DejaVuSans-30" x="147.412109"/>
      </g>
     </g>
    </g>
    <g id="ytick_6">
     <g id="line2d_14">
      <path d="M 166.29975 62.516083 
C 178.982385 62.516083 191.541698 65.014286 203.258925 69.867721 
C 214.976152 74.721155 225.623424 81.835434 234.591401 90.803412 
C 243.559378 99.771389 250.673658 110.41866 255.527092 122.135887 
C 260.380526 133.853115 262.878729 146.412427 262.878729 159.095062 
C 262.878729 171.777698 260.380526 184.33701 255.527092 196.054238 
C 250.673658 207.771465 243.559378 218.418736 234.591401 227.386713 
C 225.623424 236.354691 214.976152 243.46897 203.258925 248.322404 
C 191.541698 253.175839 178.982385 255.674042 166.29975 255.674042 
C 153.617115 255.674042 141.057802 253.175839 129.340575 248.322404 
C 117.623348 243.46897 106.976076 236.354691 98.008099 227.386713 
C 89.040122 218.418736 81.925842 207.771465 77.072408 196.054238 
C 72.218974 184.33701 69.720771 171.777698 69.720771 159.095062 
C 69.720771 146.412427 72.218974 133.853115 77.072408 122.135887 
C 81.925842 110.41866 89.040122 99.771389 98.008099 90.803412 
C 106.976076 81.835434 117.623348 74.721155 129.340575 69.867721 
C 141.057802 65.014286 153.617115 62.516083 166.29975 62.516083 
" clip-path="url(#p59f1830297)" style="fill: none; stroke: #b0b0b0; stroke-width: 0.8; stroke-linecap: square"/>
     </g>
     <g id="text_14">
      <!-- −20 -->
      <g transform="translate(214.58924 73.375526) scale(0.1 -0.1)">
       <use xlink:href="#DejaVuSans-2212"/>
       <use xlink:href="#DejaVuSans-32" x="83.789062"/>
       <use xlink:href="#DejaVuSans-30" x="147.412109"/>
      </g>
     </g>
    </g>
    <g id="ytick_7">
     <g id="line2d_15">
      <path d="M 166.29975 44.277573 
C 181.377445 44.277573 196.308528 47.24755 210.238501 53.017534 
C 224.168474 58.787518 236.826435 67.245297 247.487975 77.906837 
C 258.149516 88.568377 266.607295 101.226338 272.377279 115.156312 
C 278.147262 129.086285 281.11724 144.017368 281.11724 159.095062 
C 281.11724 174.172757 278.147262 189.10384 272.377279 203.033813 
C 266.607295 216.963787 258.149516 229.621748 247.487975 240.283288 
C 236.826435 250.944828 224.168474 259.402607 210.238501 265.172591 
C 196.308528 270.942575 181.377445 273.912552 166.29975 273.912552 
C 151.222055 273.912552 136.290972 270.942575 122.360999 265.172591 
C 108.431026 259.402607 95.773065 250.944828 85.111525 240.283288 
C 74.449984 229.621748 65.992205 216.963787 60.222221 203.033813 
C 54.452238 189.10384 51.48226 174.172757 51.48226 159.095062 
C 51.48226 144.017368 54.452238 129.086285 60.222221 115.156312 
C 65.992205 101.226338 74.449984 88.568377 85.111525 77.906837 
C 95.773065 67.245297 108.431026 58.787518 122.360999 53.017534 
C 136.290972 47.24755 151.222055 44.277573 166.29975 44.277573 
" clip-path="url(#p59f1830297)" style="fill: none; stroke: #b0b0b0; stroke-width: 0.8; stroke-linecap: square"/>
     </g>
     <g id="text_15">
      <!-- −10 -->
      <g transform="translate(223.708495 57.580512) scale(0.1 -0.1)">
       <use xlink:href="#DejaVuSans-2212"/>
       <use xlink:href="#DejaVuSans-31" x="83.789062"/>
       <use xlink:href="#DejaVuSans-30" x="147.412109"/>
      </g>
     </g>
    </g>
    <g id="ytick_8">
     <g id="line2d_16">
      <path d="M 166.29975 26.039062 
C 183.772504 26.039062 201.075357 29.480814 217.218077 36.167347 
C 233.360796 42.853881 248.029447 52.65516 260.38455 65.010263 
C 272.739653 77.365365 282.540932 92.034016 289.227465 108.176736 
C 295.913998 124.319455 299.35575 141.622309 299.35575 159.095062 
C 299.35575 176.567816 295.913998 193.87067 289.227465 210.013389 
C 282.540932 226.156109 272.739653 240.82476 260.38455 253.179862 
C 248.029447 265.534965 233.360796 275.336244 217.218077 282.022778 
C 201.075357 288.709311 183.772504 292.151062 166.29975 292.151062 
C 148.826996 292.151062 131.524143 288.709311 115.381423 282.022778 
C 99.238704 275.336244 84.570053 265.534965 72.21495 253.179862 
C 59.859847 240.82476 50.058568 226.156109 43.372035 210.013389 
C 36.685502 193.87067 33.24375 176.567816 33.24375 159.095062 
C 33.24375 141.622309 36.685502 124.319455 43.372035 108.176736 
C 50.058568 92.034016 59.859847 77.365365 72.21495 65.010263 
C 84.570053 52.65516 99.238704 42.853881 115.381423 36.167347 
C 131.524143 29.480814 148.826996 26.039062 166.29975 26.039062 
" clip-path="url(#p59f1830297)" style="fill: none; stroke: #b0b0b0; stroke-width: 0.8; stroke-linecap: square"/>
     </g>
     <g id="text_16">
      <!-- 0 -->
      <g transform="translate(232.82775 41.785499) scale(0.1 -0.1)">
       <use xlink:href="#DejaVuSans-30"/>
      </g>
     </g>
    </g>
   </g>
   <g id="line2d_17">
    <path d="M 166.29975 165.601955 
L 165.743069 165.888345 
L 165.463156 165.710692 
L 164.945186 165.332622 
L 164.06124 165.185654 
L 163.739587 164.904181 
L 163.461775 165.022199 
L 162.869677 165.615181 
L 160.452434 168.558347 
L 156.046466 173.762799 
L 148.919892 181.763379 
L 135.692682 196.517196 
L 128.602523 204.599047 
L 110.056168 226.123553 
L 134.486699 196.054102 
L 146.480003 180.707458 
L 156.651485 167.694891 
L 160.308135 162.995445 
L 160.590862 162.272471 
L 160.548246 161.793566 
L 160.128605 160.837339 
L 159.843815 159.859945 
L 159.783202 158.87981 
L 159.937233 157.911183 
L 160.31992 156.929225 
L 160.598849 156.130209 
L 160.529884 155.666344 
L 160.167599 154.964484 
L 159.166933 153.608483 
L 145.790723 136.58937 
L 136.663165 124.88274 
L 131.667824 118.604336 
L 121.069976 105.535282 
L 121.941266 105.891791 
L 138.023587 124.300134 
L 159.529502 148.513852 
L 163.560828 153.233461 
L 163.835181 153.255745 
L 164.623096 152.81797 
L 165.118695 152.802759 
L 165.520166 152.425296 
L 165.807204 152.297143 
L 166.111353 152.440323 
L 166.482469 152.640895 
L 166.652632 152.50055 
L 166.908448 151.943376 
L 167.673764 149.450518 
L 169.517257 143.574285 
L 171.568873 137.761812 
L 174.237287 130.810285 
L 178.517403 120.292439 
L 187.57607 98.268921 
L 191.946865 87.226974 
L 211.807582 34.063321 
L 193.773038 85.064893 
L 190.768837 94.410259 
L 189.355586 99.285672 
L 188.623279 102.253186 
L 188.301397 104.092038 
L 188.282905 105.125132 
L 188.526801 105.49382 
L 189.03053 105.23889 
L 189.825671 104.319188 
L 190.990463 102.589941 
L 192.693407 99.713454 
L 195.341748 94.846907 
L 200.354333 85.002928 
L 212.395182 60.44565 
L 198.50419 91.289179 
L 191.530489 107.652103 
L 178.115185 139.837821 
L 175.146088 146.182282 
L 172.186322 151.943777 
L 171.122915 154.187746 
L 171.085688 154.692222 
L 171.288309 154.949107 
L 172.239815 155.715198 
L 172.495278 156.352961 
L 172.733274 157.644886 
L 172.81989 159.28991 
L 172.684976 160.897779 
L 172.381154 162.185266 
L 172.044002 162.732372 
L 171.534242 163.095308 
L 171.109751 163.436975 
L 171.067875 163.737408 
L 171.251159 164.359809 
L 171.995108 165.882526 
L 175.614813 172.971003 
L 178.345474 178.866856 
L 181.731608 186.719359 
L 188.737055 203.77141 
L 192.74723 213.450524 
L 196.032458 221.192098 
L 202.388166 235.69929 
L 206.128703 245.037158 
L 197.351067 227.216767 
L 193.854541 220.567459 
L 191.75805 216.861029 
L 190.354326 214.619619 
L 189.388165 213.321938 
L 188.745068 212.745214 
L 188.372987 212.802088 
L 188.257856 213.492528 
L 188.419852 214.902525 
L 188.927169 217.247535 
L 189.947279 221.018897 
L 191.947426 227.5452 
L 197.188447 243.137784 
L 196.000299 241.502057 
L 186.08163 216.224628 
L 171.788283 181.020224 
L 169.386136 174.222518 
L 167.504944 168.166736 
L 166.675392 165.724139 
L 166.42152 165.54793 
L 166.29975 165.601955 
L 166.29975 165.601955 
" clip-path="url(#p59f1830297)" style="fill: none; stroke: #1f77b4; stroke-width: 1.5; stroke-linecap: square"/>
   </g>
   <g id="patch_3">
    <path d="M 166.29975 26.039062 
C 148.826996 26.039062 131.524143 29.480814 115.381423 36.167347 
C 99.238704 42.853881 84.570053 52.65516 72.21495 65.010263 
C 59.859847 77.365365 50.058568 92.034016 43.372035 108.176736 
C 36.685502 124.319455 33.24375 141.622309 33.24375 159.095062 
C 33.24375 176.567816 36.685502 193.87067 43.372035 210.013389 
C 50.058568 226.156109 59.859847 240.82476 72.21495 253.179862 
C 84.570053 265.534965 99.238704 275.336244 115.381423 282.022778 
C 131.524143 288.709311 148.826996 292.151062 166.29975 292.151062 
C 183.772504 292.151062 201.075357 288.709311 217.218077 282.022778 
C 233.360796 275.336244 248.029447 265.534965 260.38455 253.179862 
C 272.739653 240.82476 282.540932 226.156109 289.227465 210.013389 
C 295.913998 193.87067 299.35575 176.567816 299.35575 159.095062 
C 299.35575 141.622309 295.913998 124.319455 289.227465 108.176736 
C 282.540932 92.034016 272.739653 77.365365 260.38455 65.010263 
C 248.029447 52.65516 233.360796 42.853881 217.218077 36.167347 
C 201.075357 29.480814 183.772504 26.039062 166.29975 26.039062 
" style="fill: none; stroke: #000000; stroke-width: 0.8; stroke-linejoin: miter; stroke-linecap: square"/>
   </g>
  </g>
 </g>
 <defs>
  <clipPath id="p59f1830297">
   <path d="M 299.35575 159.095062 
C 299.35575 141.622309 295.913998 124.319455 289.227465 108.176736 
C 282.540932 92.034016 272.739653 77.365365 260.38455 65.010263 
C 248.029447 52.65516 233.360796 42.853881 217.218077 36.167347 
C 201.075357 29.480814 183.772504 26.039062 166.29975 26.039062 
C 148.826996 26.039062 131.524143 29.480814 115.381423 36.167347 
C 99.238704 42.853881 84.570053 52.65516 72.21495 65.010263 
C 59.859847 77.365365 50.058568 92.034016 43.372035 108.176736 
C 36.685502 124.319455 33.24375 141.622309 33.24375 159.095062 
C 33.24375 176.567816 36.685502 193.87067 43.372035 210.013389 
C 50.058568 226.156109 59.859847 240.82476 72.21495 253.179862 
C 84.570053 265.534965 99.238704 275.336244 115.381423 282.022778 
C 131.524143 288.709311 148.826996 292.151062 166.29975 292.151062 
C 183.772504 292.151062 201.075357 288.709311 217.218077 282.022778 
C 233.360796 275.336244 248.029447 265.534965 260.38455 253.179862 
C 272.739653 240.82476 282.540932 226.156109 289.227465 210.013389 
C 295.913998 193.87067 299.35575 176.567816 299.35575 159.095062 
M 166.29975 159.095062 
C 166.29975 159.095062 166.29975 159.095062 166.29975 159.095062 
C 166.29975 159.095062 166.29975 159.095062 166.29975 159.095062 
C 166.29975 159.095062 166.29975 159.095062 166.29975 159.095062 
C 166.29975 159.095062 166.29975 159.095062 166.29975 159.095062 
C 166.29975 159.095062 166.29975 159.095062 166.29975 159.095062 
C 166.29975 159.095062 166.29975 159.095062 166.29975 159.095062 
C 166.29975 159.095062 166.29975 159.095062 166.29975 159.095062 
C 166.29975 159.095062 166.29975 159.095062 166.29975 159.095062 
C 166.29975 159.095062 166.29975 159.095062 166.29975 159.095062 
C 166.29975 159.095062 166.29975 159.095062 166.29975 159.095062 
C 166.29975 159.095062 166.29975 159.095062 166.29975 159.095062 
C 166.29975 159.095062 166.29975 159.095062 166.29975 159.095062 
C 166.29975 159.095062 166.29975 159.095062 166.29975 159.095062 
C 166.29975 159.095062 166.29975 159.095062 166.29975 159.095062 
C 166.29975 159.095062 166.29975 159.095062 166.29975 159.095062 
C 166.29975 159.095062 166.29975 159.095062 166.29975 159.095062 
z
"/>
  </clipPath>
 </defs>
</svg>
