<?xml version="1.0" encoding="utf-8" standalone="no"?>
<!DOCTYPE svg PUBLIC "-//W3C//DTD SVG 1.1//EN"
  "http://www.w3.org/Graphics/SVG/1.1/DTD/svg11.dtd">
<svg xmlns:xlink="http://www.w3.org/1999/xlink" width="449.960938pt" height="211.07625pt" viewBox="0 0 449.960938 211.07625" xmlns="http://www.w3.org/2000/svg" version="1.1">
 <metadata>
  <rdf:RDF xmlns:dc="http://purl.org/dc/elements/1.1/" xmlns:cc="http://creativecommons.org/ns#" xmlns:rdf="http://www.w3.org/1999/02/22-rdf-syntax-ns#">
   <cc:Work>
    <dc:type rdf:resource="http://purl.org/dc/dcmitype/StillImage"/>
    <dc:date>2026-01-06T17:18:16.561340</dc:date>
    <dc:format>image/svg+xml</dc:format>
    <dc:creator>
     <cc:Agent>
      <dc:title>Matplotlib v3.6.3, https://matplotlib.org/</dc:title>
     </cc:Agent>
    </dc:creator>
   </cc:Work>
  </rdf:RDF>
 </metadata>
 <defs>
  <style type="text/css">*{stroke-linejoin: round; stroke-linecap: butt}</style>
 </defs>
 <g id="figure_1">
  <g id="patch_1">
   <path d="M 0 211.07625 
L 449.960938 211.07625 
L 449.960938 0 
L 0 0 
z
" style="fill: #ffffff"/>
  </g>
  <g id="axes_1">
   <g id="patch_2">
    <path d="M 52.160938 173.52 
L 442.760938 173.52 
L 442.760938 7.2 
L 52.160938 7.2 
z
" style="fill: #ffffff"/>
   </g>
   <g id="matplotlib.axis_1">
    <g id="xtick_1">
     <g id="line2d_1">
      <path d="M 69.915483 173.52 
L 69.915483 7.2 
" clip-path="url(#pca58ec50cd)" style="fill: none; stroke: #b0b0b0; stroke-width: 0.8; stroke-linecap: square"/>
     </g>
     <g id="line2d_2">
      <defs>
       <path id="ma2bb25bfda" d="M 0 0 
L 0 3.5 
" style="stroke: #000000; stroke-width: 0.8"/>
      </defs>
      <g>
       <use xlink:href="#ma2bb25bfda" x="69.915483" y="173.52" style="stroke: #000000; stroke-width: 0.8"/>
      </g>
     </g>
     <g id="text_1">
      <!-- 0 -->
      <g transform="translate(66.734233 188.118438) scale(0.1 -0.1)">
       <defs>
        <path id="DejaVuSans-30" d="M 2034 4250 
Q 1547 4250 1301 3770 
Q 1056 3291 1056 2328 
Q 1056 1369 1301 889 
Q 1547 409 2034 409 
Q 2525 409 2770 889 
Q 3016 1369 3016 2328 
Q 3016 3291 2770 3770 
Q 2525 4250 2034 4250 
z
M 2034 4750 
Q 2819 4750 3233 4129 
Q 3647 3509 3647 2328 
Q 3647 1150 3233 529 
Q 2819 -91 2034 -91 
Q 1250 -91 836 529 
Q 422 1150 422 2328 
Q 422 3509 836 4129 
Q 1250 4750 2034 4750 
z
" transform="scale(0.015625)"/>
       </defs>
       <use xlink:href="#DejaVuSans-30"/>
      </g>
     </g>
    </g>
    <g id="xtick_2">
     <g id="line2d_3">
      <path d="M 114.524894 173.52 
L 114.524894 7.2 
" clip-path="url(#pca58ec50cd)" style="fill: none; stroke: #b0b0b0; stroke-width: 0.8; stroke-linecap: square"/>
     </g>
     <g id="line2d_4">
      <g>
       <use xlink:href="#ma2bb25bfda" x="114.524894" y="173.52" style="stroke: #000000; stroke-width: 0.8"/>
      </g>
     </g>
     <g id="text_2">
      <!-- 25 -->
      <g transform="translate(108.162394 188.118438) scale(0.1 -0.1)">
       <defs>
        <path id="DejaVuSans-32" d="M 1228 531 
L 3431 531 
L 3431 0 
L 469 0 
L 469 531 
Q 828 903 1448 1529 
Q 2069 2156 2228 2338 
Q 2531 2678 2651 2914 
Q 2772 3150 2772 3378 
Q 2772 3750 2511 3984 
Q 2250 4219 1831 4219 
Q 1534 4219 1204 4116 
Q 875 4013 500 3803 
L 500 4441 
Q 881 4594 1212 4672 
Q 1544 4750 1819 4750 
Q 2544 4750 2975 4387 
Q 3406 4025 3406 3419 
Q 3406 3131 3298 2873 
Q 3191 2616 2906 2266 
Q 2828 2175 2409 1742 
Q 1991 1309 1228 531 
z
" transform="scale(0.015625)"/>
        <path id="DejaVuSans-35" d="M 691 4666 
L 3169 4666 
L 3169 4134 
L 1269 4134 
L 1269 2991 
Q 1406 3038 1543 3061 
Q 1681 3084 1819 3084 
Q 2600 3084 3056 2656 
Q 3513 2228 3513 1497 
Q 3513 744 3044 326 
Q 2575 -91 1722 -91 
Q 1428 -91 1123 -41 
Q 819 9 494 109 
L 494 744 
Q 775 591 1075 516 
Q 1375 441 1709 441 
Q 2250 441 2565 725 
Q 2881 1009 2881 1497 
Q 2881 1984 2565 2268 
Q 2250 2553 1709 2553 
Q 1456 2553 1204 2497 
Q 953 2441 691 2322 
L 691 4666 
z
" transform="scale(0.015625)"/>
       </defs>
       <use xlink:href="#DejaVuSans-32"/>
       <use xlink:href="#DejaVuSans-35" x="63.623047"/>
      </g>
     </g>
    </g>
    <g id="xtick_3">
     <g id="line2d_5">
      <path d="M 159.134304 173.52 
L 159.134304 7.2 
" clip-path="url(#pca58ec50cd)" style="fill: none; stroke: #b0b0b0; stroke-width: 0.8; stroke-linecap: square"/>
     </g>
     <g id="line2d_6">
      <g>
       <use xlink:href="#ma2bb25bfda" x="159.134304" y="173.52" style="stroke: #000000; stroke-width: 0.8"/>
      </g>
     </g>
     <g id="text_3">
      <!-- 50 -->
      <g transform="translate(152.771804 188.118438) scale(0.1 -0.1)">
       <use xlink:href="#DejaVuSans-35"/>
       <use xlink:href="#DejaVuSans-30" x="63.623047"/>
      </g>
     </g>
    </g>
    <g id="xtick_4">
     <g id="line2d_7">
      <path d="M 203.743715 173.52 
L 203.743715 7.2 
" clip-path="url(#pca58ec50cd)" style="fill: none; stroke: #b0b0b0; stroke-width: 0.8; stroke-linecap: square"/>
     </g>
     <g id="line2d_8">
      <g>
       <use xlink:href="#ma2bb25bfda" x="203.743715" y="173.52" style="stroke: #000000; stroke-width: 0.8"/>
      </g>
     </g>
     <g id="text_4">
      <!-- 75 -->
      <g transform="translate(197.381215 188.118438) scale(0.1 -0.1)">
       <defs>
        <path id="DejaVuSans-37" d="M 525 4666 
L 3525 4666 
L 3525 4397 
L 1831 0 
L 1172 0 
L 2766 4134 
L 525 4134 
L 525 4666 
z
" transform="scale(0.015625)"/>
       </defs>
       <use xlink:href="#DejaVuSans-37"/>
       <use xlink:href="#DejaVuSans-35" x="63.623047"/>
      </g>
     </g>
    </g>
    <g id="xtick_5">
     <g id="line2d_9">
      <path d="M 248.353126 173.52 
L 248.353126 7.2 
" clip-path="url(#pca58ec50cd)" style="fill: none; stroke: #b0b0b0; stroke-width: 0.8; stroke-linecap: square"/>
     </g>
     <g id="line2d_10">
      <g>
       <use xlink:href="#ma2bb25bfda" x="248.353126" y="173.52" style="stroke: #000000; stroke-width: 0.8"/>
      </g>
     </g>
     <g id="text_5">
      <!-- 100 -->
      <g transform="translate(238.809376 188.118438) scale(0.1 -0.1)">
       <defs>
        <path id="DejaVuSans-31" d="M 794 531 
L 1825 531 
L 1825 4091 
L 703 3866 
L 703 4441 
L 1819 4666 
L 2450 4666 
L 2450 531 
L 3481 531 
L 3481 0 
L 794 0 
L 794 531 
z
" transform="scale(0.015625)"/>
       </defs>
       <use xlink:href="#DejaVuSans-31"/>
       <use xlink:href="#DejaVuSans-30" x="63.623047"/>
       <use xlink:href="#DejaVuSans-30" x="127.246094"/>
      </g>
     </g>
    </g>
    <g id="xtick_6">
     <g id="line2d_11">
      <path d="M 292.962536 173.52 
L 292.962536 7.2 
" clip-path="url(#pca58ec50cd)" style="fill: none; stroke: #b0b0b0; stroke-width: 0.8; stroke-linecap: square"/>
     </g>
     <g id="line2d_12">
      <g>
       <use xlink:href="#ma2bb25bfda" x="292.962536" y="173.52" style="stroke: #000000; stroke-width: 0.8"/>
      </g>
     </g>
     <g id="text_6">
      <!-- 125 -->
      <g transform="translate(283.418786 188.118438) scale(0.1 -0.1)">
       <use xlink:href="#DejaVuSans-31"/>
       <use xlink:href="#DejaVuSans-32" x="63.623047"/>
       <use xlink:href="#DejaVuSans-35" x="127.246094"/>
      </g>
     </g>
    </g>
    <g id="xtick_7">
     <g id="line2d_13">
      <path d="M 337.571947 173.52 
L 337.571947 7.2 
" clip-path="url(#pca58ec50cd)" style="fill: none; stroke: #b0b0b0; stroke-width: 0.8; stroke-linecap: square"/>
     </g>
     <g id="line2d_14">
      <g>
       <use xlink:href="#ma2bb25bfda" x="337.571947" y="173.52" style="stroke: #000000; stroke-width: 0.8"/>
      </g>
     </g>
     <g id="text_7">
      <!-- 150 -->
      <g transform="translate(328.028197 188.118438) scale(0.1 -0.1)">
       <use xlink:href="#DejaVuSans-31"/>
       <use xlink:href="#DejaVuSans-35" x="63.623047"/>
       <use xlink:href="#DejaVuSans-30" x="127.246094"/>
      </g>
     </g>
    </g>
    <g id="xtick_8">
     <g id="line2d_15">
      <path d="M 382.181358 173.52 
L 382.181358 7.2 
" clip-path="url(#pca58ec50cd)" style="fill: none; stroke: #b0b0b0; stroke-width: 0.8; stroke-linecap: square"/>
     </g>
     <g id="line2d_16">
      <g>
       <use xlink:href="#ma2bb25bfda" x="382.181358" y="173.52" style="stroke: #000000; stroke-width: 0.8"/>
      </g>
     </g>
     <g id="text_8">
      <!-- 175 -->
      <g transform="translate(372.637608 188.118438) scale(0.1 -0.1)">
       <use xlink:href="#DejaVuSans-31"/>
       <use xlink:href="#DejaVuSans-37" x="63.623047"/>
       <use xlink:href="#DejaVuSans-35" x="127.246094"/>
      </g>
     </g>
    </g>
    <g id="xtick_9">
     <g id="line2d_17">
      <path d="M 426.790768 173.52 
L 426.790768 7.2 
" clip-path="url(#pca58ec50cd)" style="fill: none; stroke: #b0b0b0; stroke-width: 0.8; stroke-linecap: square"/>
     </g>
     <g id="line2d_18">
      <g>
       <use xlink:href="#ma2bb25bfda" x="426.790768" y="173.52" style="stroke: #000000; stroke-width: 0.8"/>
      </g>
     </g>
     <g id="text_9">
      <!-- 200 -->
      <g transform="translate(417.247018 188.118438) scale(0.1 -0.1)">
       <use xlink:href="#DejaVuSans-32"/>
       <use xlink:href="#DejaVuSans-30" x="63.623047"/>
       <use xlink:href="#DejaVuSans-30" x="127.246094"/>
      </g>
     </g>
    </g>
    <g id="text_10">
     <!-- Time -->
     <g transform="translate(235.227344 201.796563) scale(0.1 -0.1)">
      <defs>
       <path id="DejaVuSans-54" d="M -19 4666 
L 3928 4666 
L 3928 4134 
L 2272 4134 
L 2272 0 
L 1638 0 
L 1638 4134 
L -19 4134 
L -19 4666 
z
" transform="scale(0.015625)"/>
       <path id="DejaVuSans-69" d="M 603 3500 
L 1178 3500 
L 1178 0 
L 603 0 
L 603 3500 
z
M 603 4863 
L 1178 4863 
L 1178 4134 
L 603 4134 
L 603 4863 
z
" transform="scale(0.015625)"/>
       <path id="DejaVuSans-6d" d="M 3328 2828 
Q 3544 3216 3844 3400 
Q 4144 3584 4550 3584 
Q 5097 3584 5394 3201 
Q 5691 2819 5691 2113 
L 5691 0 
L 5113 0 
L 5113 2094 
Q 5113 2597 4934 2840 
Q 4756 3084 4391 3084 
Q 3944 3084 3684 2787 
Q 3425 2491 3425 1978 
L 3425 0 
L 2847 0 
L 2847 2094 
Q 2847 2600 2669 2842 
Q 2491 3084 2119 3084 
Q 1678 3084 1418 2786 
Q 1159 2488 1159 1978 
L 1159 0 
L 581 0 
L 581 3500 
L 1159 3500 
L 1159 2956 
Q 1356 3278 1631 3431 
Q 1906 3584 2284 3584 
Q 2666 3584 2933 3390 
Q 3200 3197 3328 2828 
z
" transform="scale(0.015625)"/>
       <path id="DejaVuSans-65" d="M 3597 1894 
L 3597 1613 
L 953 1613 
Q 991 1019 1311 708 
Q 1631 397 2203 397 
Q 2534 397 2845 478 
Q 3156 559 3463 722 
L 3463 178 
Q 3153 47 2828 -22 
Q 2503 -91 2169 -91 
Q 1331 -91 842 396 
Q 353 884 353 1716 
Q 353 2575 817 3079 
Q 1281 3584 2069 3584 
Q 2775 3584 3186 3129 
Q 3597 2675 3597 1894 
z
M 3022 2063 
Q 3016 2534 2758 2815 
Q 2500 3097 2075 3097 
Q 1594 3097 1305 2825 
Q 1016 2553 972 2059 
L 3022 2063 
z
" transform="scale(0.015625)"/>
      </defs>
      <use xlink:href="#DejaVuSans-54"/>
      <use xlink:href="#DejaVuSans-69" x="57.958984"/>
      <use xlink:href="#DejaVuSans-6d" x="85.742188"/>
      <use xlink:href="#DejaVuSans-65" x="183.154297"/>
     </g>
    </g>
   </g>
   <g id="matplotlib.axis_2">
    <g id="ytick_1">
     <g id="line2d_19">
      <path d="M 52.160938 153.277798 
L 442.760938 153.277798 
" clip-path="url(#pca58ec50cd)" style="fill: none; stroke: #b0b0b0; stroke-width: 0.8; stroke-linecap: square"/>
     </g>
     <g id="line2d_20">
      <defs>
       <path id="m1ac76f4d4f" d="M 0 0 
L -3.5 0 
" style="stroke: #000000; stroke-width: 0.8"/>
      </defs>
      <g>
       <use xlink:href="#m1ac76f4d4f" x="52.160938" y="153.277798" style="stroke: #000000; stroke-width: 0.8"/>
      </g>
     </g>
     <g id="text_11">
      <!-- −1.0 -->
      <g transform="translate(20.878125 157.077017) scale(0.1 -0.1)">
       <defs>
        <path id="DejaVuSans-2212" d="M 678 2272 
L 4684 2272 
L 4684 1741 
L 678 1741 
L 678 2272 
z
" transform="scale(0.015625)"/>
        <path id="DejaVuSans-2e" d="M 684 794 
L 1344 794 
L 1344 0 
L 684 0 
L 684 794 
z
" transform="scale(0.015625)"/>
       </defs>
       <use xlink:href="#DejaVuSans-2212"/>
       <use xlink:href="#DejaVuSans-31" x="83.789062"/>
       <use xlink:href="#DejaVuSans-2e" x="147.412109"/>
       <use xlink:href="#DejaVuSans-30" x="179.199219"/>
      </g>
     </g>
    </g>
    <g id="ytick_2">
     <g id="line2d_21">
      <path d="M 52.160938 122.636037 
L 442.760938 122.636037 
" clip-path="url(#pca58ec50cd)" style="fill: none; stroke: #b0b0b0; stroke-width: 0.8; stroke-linecap: square"/>
     </g>
     <g id="line2d_22">
      <g>
       <use xlink:href="#m1ac76f4d4f" x="52.160938" y="122.636037" style="stroke: #000000; stroke-width: 0.8"/>
      </g>
     </g>
     <g id="text_12">
      <!-- −0.5 -->
      <g transform="translate(20.878125 126.435256) scale(0.1 -0.1)">
       <use xlink:href="#DejaVuSans-2212"/>
       <use xlink:href="#DejaVuSans-30" x="83.789062"/>
       <use xlink:href="#DejaVuSans-2e" x="147.412109"/>
       <use xlink:href="#DejaVuSans-35" x="179.199219"/>
      </g>
     </g>
    </g>
    <g id="ytick_3">
     <g id="line2d_23">
      <path d="M 52.160938 91.994276 
L 442.760938 91.994276 
" clip-path="url(#pca58ec50cd)" style="fill: none; stroke: #b0b0b0; stroke-width: 0.8; stroke-linecap: square"/>
     </g>
     <g id="line2d_24">
      <g>
       <use xlink:href="#m1ac76f4d4f" x="52.160938" y="91.994276" style="stroke: #000000; stroke-width: 0.8"/>
      </g>
     </g>
     <g id="text_13">
      <!-- 0.0 -->
      <g transform="translate(29.257813 95.793495) scale(0.1 -0.1)">
       <use xlink:href="#DejaVuSans-30"/>
       <use xlink:href="#DejaVuSans-2e" x="63.623047"/>
       <use xlink:href="#DejaVuSans-30" x="95.410156"/>
      </g>
     </g>
    </g>
    <g id="ytick_4">
     <g id="line2d_25">
      <path d="M 52.160938 61.352515 
L 442.760938 61.352515 
" clip-path="url(#pca58ec50cd)" style="fill: none; stroke: #b0b0b0; stroke-width: 0.8; stroke-linecap: square"/>
     </g>
     <g id="line2d_26">
      <g>
       <use xlink:href="#m1ac76f4d4f" x="52.160938" y="61.352515" style="stroke: #000000; stroke-width: 0.8"/>
      </g>
     </g>
     <g id="text_14">
      <!-- 0.5 -->
      <g transform="translate(29.257813 65.151734) scale(0.1 -0.1)">
       <use xlink:href="#DejaVuSans-30"/>
       <use xlink:href="#DejaVuSans-2e" x="63.623047"/>
       <use xlink:href="#DejaVuSans-35" x="95.410156"/>
      </g>
     </g>
    </g>
    <g id="ytick_5">
     <g id="line2d_27">
      <path d="M 52.160938 30.710754 
L 442.760938 30.710754 
" clip-path="url(#pca58ec50cd)" style="fill: none; stroke: #b0b0b0; stroke-width: 0.8; stroke-linecap: square"/>
     </g>
     <g id="line2d_28">
      <g>
       <use xlink:href="#m1ac76f4d4f" x="52.160938" y="30.710754" style="stroke: #000000; stroke-width: 0.8"/>
      </g>
     </g>
     <g id="text_15">
      <!-- 1.0 -->
      <g transform="translate(29.257813 34.509973) scale(0.1 -0.1)">
       <use xlink:href="#DejaVuSans-31"/>
       <use xlink:href="#DejaVuSans-2e" x="63.623047"/>
       <use xlink:href="#DejaVuSans-30" x="95.410156"/>
      </g>
     </g>
    </g>
    <g id="text_16">
     <!-- Samples -->
     <g transform="translate(14.798438 111.713125) rotate(-90) scale(0.1 -0.1)">
      <defs>
       <path id="DejaVuSans-53" d="M 3425 4513 
L 3425 3897 
Q 3066 4069 2747 4153 
Q 2428 4238 2131 4238 
Q 1616 4238 1336 4038 
Q 1056 3838 1056 3469 
Q 1056 3159 1242 3001 
Q 1428 2844 1947 2747 
L 2328 2669 
Q 3034 2534 3370 2195 
Q 3706 1856 3706 1288 
Q 3706 609 3251 259 
Q 2797 -91 1919 -91 
Q 1588 -91 1214 -16 
Q 841 59 441 206 
L 441 856 
Q 825 641 1194 531 
Q 1563 422 1919 422 
Q 2459 422 2753 634 
Q 3047 847 3047 1241 
Q 3047 1584 2836 1778 
Q 2625 1972 2144 2069 
L 1759 2144 
Q 1053 2284 737 2584 
Q 422 2884 422 3419 
Q 422 4038 858 4394 
Q 1294 4750 2059 4750 
Q 2388 4750 2728 4690 
Q 3069 4631 3425 4513 
z
" transform="scale(0.015625)"/>
       <path id="DejaVuSans-61" d="M 2194 1759 
Q 1497 1759 1228 1600 
Q 959 1441 959 1056 
Q 959 750 1161 570 
Q 1363 391 1709 391 
Q 2188 391 2477 730 
Q 2766 1069 2766 1631 
L 2766 1759 
L 2194 1759 
z
M 3341 1997 
L 3341 0 
L 2766 0 
L 2766 531 
Q 2569 213 2275 61 
Q 1981 -91 1556 -91 
Q 1019 -91 701 211 
Q 384 513 384 1019 
Q 384 1609 779 1909 
Q 1175 2209 1959 2209 
L 2766 2209 
L 2766 2266 
Q 2766 2663 2505 2880 
Q 2244 3097 1772 3097 
Q 1472 3097 1187 3025 
Q 903 2953 641 2809 
L 641 3341 
Q 956 3463 1253 3523 
Q 1550 3584 1831 3584 
Q 2591 3584 2966 3190 
Q 3341 2797 3341 1997 
z
" transform="scale(0.015625)"/>
       <path id="DejaVuSans-70" d="M 1159 525 
L 1159 -1331 
L 581 -1331 
L 581 3500 
L 1159 3500 
L 1159 2969 
Q 1341 3281 1617 3432 
Q 1894 3584 2278 3584 
Q 2916 3584 3314 3078 
Q 3713 2572 3713 1747 
Q 3713 922 3314 415 
Q 2916 -91 2278 -91 
Q 1894 -91 1617 61 
Q 1341 213 1159 525 
z
M 3116 1747 
Q 3116 2381 2855 2742 
Q 2594 3103 2138 3103 
Q 1681 3103 1420 2742 
Q 1159 2381 1159 1747 
Q 1159 1113 1420 752 
Q 1681 391 2138 391 
Q 2594 391 2855 752 
Q 3116 1113 3116 1747 
z
" transform="scale(0.015625)"/>
       <path id="DejaVuSans-6c" d="M 603 4863 
L 1178 4863 
L 1178 0 
L 603 0 
L 603 4863 
z
" transform="scale(0.015625)"/>
       <path id="DejaVuSans-73" d="M 2834 3397 
L 2834 2853 
Q 2591 2978 2328 3040 
Q 2066 3103 1784 3103 
Q 1356 3103 1142 2972 
Q 928 2841 928 2578 
Q 928 2378 1081 2264 
Q 1234 2150 1697 2047 
L 1894 2003 
Q 2506 1872 2764 1633 
Q 3022 1394 3022 966 
Q 3022 478 2636 193 
Q 2250 -91 1575 -91 
Q 1294 -91 989 -36 
Q 684 19 347 128 
L 347 722 
Q 666 556 975 473 
Q 1284 391 1588 391 
Q 1994 391 2212 530 
Q 2431 669 2431 922 
Q 2431 1156 2273 1281 
Q 2116 1406 1581 1522 
L 1381 1569 
Q 847 1681 609 1914 
Q 372 2147 372 2553 
Q 372 3047 722 3315 
Q 1072 3584 1716 3584 
Q 2034 3584 2315 3537 
Q 2597 3491 2834 3397 
z
" transform="scale(0.015625)"/>
      </defs>
      <use xlink:href="#DejaVuSans-53"/>
      <use xlink:href="#DejaVuSans-61" x="63.476562"/>
      <use xlink:href="#DejaVuSans-6d" x="124.755859"/>
      <use xlink:href="#DejaVuSans-70" x="222.167969"/>
      <use xlink:href="#DejaVuSans-6c" x="285.644531"/>
      <use xlink:href="#DejaVuSans-65" x="313.427734"/>
      <use xlink:href="#DejaVuSans-73" x="374.951172"/>
     </g>
    </g>
   </g>
   <g id="line2d_29">
    <path d="M 69.915483 28.376475 
L 71.699859 35.967218 
L 73.484236 22.63825 
L 75.268612 31.870925 
L 77.052989 44.170753 
L 78.837365 33.654768 
L 80.621742 44.029579 
L 82.406118 38.078112 
L 84.190494 61.157752 
L 87.759247 63.629237 
L 89.543624 88.602118 
L 91.328 86.519816 
L 93.112377 100.126778 
L 94.896753 103.330754 
L 96.681129 105.901967 
L 98.465506 114.638818 
L 100.249882 125.929965 
L 102.034259 134.572385 
L 103.818635 145.68225 
L 105.603012 149.002071 
L 107.387388 145.699141 
L 109.171764 139.032034 
L 110.956141 157.969533 
L 112.740517 145.922629 
L 114.524894 154.559123 
L 116.30927 150.095887 
L 118.093646 150.062133 
L 119.878023 152.903343 
L 121.662399 147.458479 
L 123.446776 136.695261 
L 125.231152 136.225011 
L 127.015529 139.799223 
L 128.799905 120.103438 
L 130.584281 129.290057 
L 132.368658 113.524329 
L 134.153034 94.455506 
L 135.937411 94.445895 
L 137.721787 90.641959 
L 139.506164 82.186728 
L 141.29054 77.846603 
L 143.074916 52.086602 
L 144.859293 58.202796 
L 146.643669 64.82675 
L 148.428046 39.868115 
L 150.212422 40.640298 
L 151.996799 44.567966 
L 153.781175 27.245466 
L 155.565551 33.390047 
L 157.349928 17.458062 
L 159.134304 35.932406 
L 160.918681 32.685938 
L 162.703057 31.180773 
L 164.487434 45.000454 
L 166.27181 35.033245 
L 168.056186 45.252417 
L 169.840563 41.225172 
L 171.624939 57.513423 
L 173.409316 64.574999 
L 175.193692 67.543187 
L 176.978069 77.805887 
L 178.762445 86.237308 
L 180.546821 81.29771 
L 182.331198 98.474856 
L 184.115574 107.832592 
L 185.899951 110.47309 
L 187.684327 111.703258 
L 189.468704 134.022553 
L 191.25308 136.774151 
L 193.037456 140.564515 
L 194.821833 137.640244 
L 196.606209 150.090626 
L 198.390586 152.737783 
L 200.174962 146.862816 
L 201.959339 150.021766 
L 203.743715 154.871993 
L 205.528091 160.219036 
L 207.312468 152.692811 
L 209.096844 151.982768 
L 210.881221 157.005525 
L 212.665597 148.727184 
L 214.449974 142.700603 
L 216.23435 125.837258 
L 218.018726 131.131169 
L 219.803103 117.180203 
L 221.587479 120.029663 
L 223.371856 95.777104 
L 225.156232 94.924479 
L 226.940609 91.788838 
L 228.724985 79.894974 
L 230.509361 77.417162 
L 232.293738 68.950671 
L 234.078114 44.855181 
L 235.862491 52.80376 
L 237.646867 42.254307 
L 239.431244 46.698761 
L 241.21562 36.385944 
L 242.999996 15.940149 
L 244.784373 24.535912 
L 246.568749 24.656741 
L 248.353126 27.654598 
L 250.137502 27.721727 
L 251.921879 31.530197 
L 253.706255 32.558902 
L 255.490631 49.261379 
L 257.275008 47.684791 
L 259.059384 48.600411 
L 260.843761 63.147458 
L 262.628137 50.825395 
L 264.412514 63.176485 
L 266.19689 72.513312 
L 267.981266 79.747303 
L 269.765643 97.240833 
L 271.550019 97.25034 
L 273.334396 104.624464 
L 275.118772 106.264046 
L 276.903149 117.130691 
L 278.687525 121.501485 
L 280.471901 140.507665 
L 282.256278 146.865653 
L 284.040654 137.186561 
L 285.825031 135.100577 
L 287.609407 148.691656 
L 289.393784 151.745918 
L 291.17816 152.638891 
L 292.962536 142.666823 
L 294.746913 154.794122 
L 296.531289 145.998623 
L 298.315666 156.474168 
L 300.100042 158.150516 
L 301.884419 146.552476 
L 303.668795 133.569676 
L 305.453171 141.938379 
L 307.237548 124.884868 
L 309.021924 118.626533 
L 310.806301 105.310151 
L 312.590677 104.900758 
L 314.375054 104.789286 
L 316.15943 86.226419 
L 317.943806 82.757536 
L 319.728183 64.272401 
L 321.512559 65.121538 
L 323.296936 58.453711 
L 325.081312 59.208761 
L 326.865689 47.217994 
L 328.650065 44.356659 
L 330.434441 37.30106 
L 332.218818 34.517608 
L 334.003194 30.619591 
L 335.787571 34.139455 
L 337.571947 32.878853 
L 339.356324 38.920242 
L 341.1407 41.546611 
L 342.925076 26.204114 
L 344.709453 30.848075 
L 346.493829 43.296798 
L 348.278206 52.073559 
L 350.062582 54.57126 
L 351.846959 69.03311 
L 353.631335 78.133286 
L 355.415711 71.053809 
L 357.200088 73.582096 
L 358.984464 86.216886 
L 362.553217 109.396116 
L 364.337594 108.812387 
L 366.12197 107.677543 
L 367.906346 126.283961 
L 369.690723 128.599997 
L 371.475099 131.37271 
L 373.259476 149.65913 
L 375.043852 147.922948 
L 376.828229 147.34415 
L 378.612605 151.117746 
L 380.396981 153.027232 
L 382.181358 152.422793 
L 383.965734 153.793527 
L 385.750111 147.91452 
L 387.534487 153.396859 
L 389.318863 148.449415 
L 391.10324 122.975855 
L 392.887616 130.857385 
L 394.671993 125.170806 
L 396.456369 127.472853 
L 398.240746 118.738241 
L 400.025122 102.824945 
L 401.809498 98.466059 
L 403.593875 96.812832 
L 405.378251 94.351603 
L 407.162628 79.556989 
L 408.947004 69.204489 
L 410.731381 68.248962 
L 412.515757 56.868633 
L 414.300133 56.533857 
L 416.08451 56.677572 
L 417.868886 43.174508 
L 419.653263 37.863812 
L 421.437639 17.97466 
L 423.222016 33.330212 
L 425.006392 32.48343 
L 425.006392 32.48343 
" clip-path="url(#pca58ec50cd)" style="fill: none; stroke: #1f77b4; stroke-width: 1.5; stroke-linecap: square"/>
   </g>
   <g id="line2d_30">
    <path d="M 69.915483 67.57013 
L 71.699859 71.71048 
L 73.484236 74.030214 
L 75.268612 83.857309 
L 77.052989 95.90098 
L 78.837365 99.231322 
L 80.621742 98.913127 
L 82.406118 113.900803 
L 84.190494 122.220933 
L 85.974871 124.119004 
L 87.759247 138.782121 
L 89.543624 147.98219 
L 91.328 149.047843 
L 93.112377 148.113235 
L 94.896753 148.236752 
L 96.681129 151.425798 
L 98.465506 156.725535 
L 100.249882 165.96 
L 102.034259 139.049795 
L 103.818635 144.460718 
L 105.603012 153.277276 
L 107.387388 155.571975 
L 109.171764 137.072262 
L 110.956141 137.183381 
L 112.740517 128.062483 
L 114.524894 125.620185 
L 116.30927 105.28558 
L 118.093646 111.058153 
L 119.878023 96.103837 
L 121.662399 89.520331 
L 123.446776 86.64925 
L 125.231152 72.414471 
L 127.015529 66.240399 
L 128.799905 76.282617 
L 130.584281 61.342582 
L 132.368658 51.575139 
L 134.153034 32.295793 
L 135.937411 45.982841 
L 137.721787 39.027249 
L 139.506164 19.989644 
L 141.29054 29.272455 
L 143.074916 35.972238 
L 144.859293 32.537992 
L 146.643669 33.009745 
L 148.428046 40.002029 
L 150.212422 34.40453 
L 151.996799 35.148286 
L 153.781175 50.196988 
L 155.565551 49.616156 
L 157.349928 52.926058 
L 159.134304 72.539398 
L 160.918681 70.935314 
L 162.703057 73.98907 
L 164.487434 86.855997 
L 166.27181 91.387845 
L 168.056186 92.474433 
L 169.840563 117.135271 
L 171.624939 119.782979 
L 175.193692 129.305921 
L 176.978069 136.496099 
L 178.762445 138.982036 
L 180.546821 149.406932 
L 182.331198 143.985398 
L 184.115574 155.452471 
L 185.899951 154.348665 
L 187.684327 146.799883 
L 189.468704 150.367481 
L 191.25308 155.647636 
L 193.037456 155.066356 
L 194.821833 143.403812 
L 196.606209 147.473259 
L 198.390586 145.522478 
L 200.174962 129.438043 
L 201.959339 127.422592 
L 203.743715 102.654902 
L 205.528091 119.840288 
L 207.312468 105.317932 
L 209.096844 105.430216 
L 210.881221 95.746245 
L 212.665597 86.764697 
L 214.449974 76.654753 
L 216.23435 70.536747 
L 218.018726 59.985935 
L 219.803103 48.235956 
L 221.587479 52.921864 
L 223.371856 37.922428 
L 225.156232 41.414064 
L 226.940609 35.958157 
L 228.724985 41.687479 
L 230.509361 28.004076 
L 232.293738 32.094509 
L 234.078114 36.867414 
L 235.862491 39.152204 
L 237.646867 31.295265 
L 239.431244 45.540486 
L 241.21562 37.620679 
L 242.999996 34.014184 
L 244.784373 59.264528 
L 246.568749 57.433463 
L 248.353126 51.449337 
L 250.137502 68.931527 
L 251.921879 66.951916 
L 253.706255 81.201565 
L 255.490631 94.121427 
L 257.275008 100.438004 
L 259.059384 117.302153 
L 262.628137 124.566691 
L 264.412514 121.873383 
L 266.19689 129.691346 
L 267.981266 144.133646 
L 269.765643 145.359082 
L 271.550019 155.843672 
L 273.334396 147.164802 
L 275.118772 149.855535 
L 276.903149 158.606203 
L 278.687525 160.214761 
L 280.471901 149.125437 
L 282.256278 156.197041 
L 284.040654 145.735264 
L 285.825031 142.769266 
L 287.609407 127.379592 
L 289.393784 126.450528 
L 291.17816 123.182901 
L 292.962536 113.231395 
L 294.746913 117.811742 
L 296.531289 106.585407 
L 298.315666 92.862252 
L 300.100042 95.250295 
L 301.884419 80.314211 
L 303.668795 88.703959 
L 305.453171 72.661662 
L 307.237548 61.238746 
L 309.021924 59.489797 
L 310.806301 50.235814 
L 312.590677 38.361121 
L 314.375054 30.317052 
L 316.15943 33.250818 
L 317.943806 39.26049 
L 319.728183 25.877076 
L 321.512559 17.935989 
L 323.296936 48.135268 
L 325.081312 31.99639 
L 326.865689 34.705182 
L 328.650065 35.250541 
L 330.434441 59.406095 
L 332.218818 46.451441 
L 334.003194 46.94821 
L 335.787571 54.946844 
L 337.571947 60.039243 
L 339.356324 70.892423 
L 341.1407 80.547419 
L 342.925076 87.081695 
L 344.709453 89.87749 
L 346.493829 109.886638 
L 348.278206 121.306734 
L 350.062582 115.06957 
L 351.846959 118.685941 
L 353.631335 121.186648 
L 355.415711 129.951908 
L 357.200088 137.912435 
L 358.984464 140.645464 
L 360.768841 149.31542 
L 362.553217 140.640478 
L 364.337594 153.724535 
L 366.12197 153.388916 
L 367.906346 157.927905 
L 369.690723 153.455992 
L 371.475099 144.350716 
L 373.259476 149.295725 
L 375.043852 143.921065 
L 376.828229 129.890927 
L 378.612605 140.348554 
L 380.396981 137.5612 
L 382.181358 114.784086 
L 383.965734 118.663952 
L 385.750111 106.880393 
L 387.534487 106.065549 
L 389.318863 92.085964 
L 391.10324 80.180324 
L 392.887616 75.493298 
L 394.671993 67.106948 
L 396.456369 68.411676 
L 398.240746 52.819242 
L 400.025122 45.54148 
L 401.809498 41.065016 
L 403.593875 51.269209 
L 405.378251 39.113891 
L 407.162628 38.293717 
L 408.947004 36.587147 
L 410.731381 14.76 
L 412.515757 41.29198 
L 414.300133 30.587257 
L 416.08451 39.576971 
L 417.868886 29.883617 
L 421.437639 59.457838 
L 423.222016 51.212456 
L 425.006392 60.316774 
L 425.006392 60.316774 
" clip-path="url(#pca58ec50cd)" style="fill: none; stroke: #ff7f0e; stroke-width: 1.5; stroke-linecap: square"/>
   </g>
   <g id="line2d_31">
    <path d="M 69.915483 125.815777 
L 71.699859 136.5751 
L 73.484236 135.894663 
L 75.268612 142.70867 
L 77.052989 146.819224 
L 78.837365 142.132106 
L 80.621742 145.89689 
L 82.406118 152.78418 
L 84.190494 153.36022 
L 85.974871 147.945777 
L 87.759247 154.445032 
L 89.543624 148.731913 
L 91.328 140.661687 
L 93.112377 146.449563 
L 94.896753 130.653825 
L 96.681129 124.986808 
L 98.465506 123.774737 
L 100.249882 116.083881 
L 102.034259 111.48972 
L 103.818635 97.752196 
L 105.603012 78.652619 
L 107.387388 77.776653 
L 109.171764 84.83244 
L 110.956141 74.899059 
L 112.740517 63.338257 
L 114.524894 61.842037 
L 116.30927 59.492725 
L 118.093646 40.784442 
L 119.878023 34.784234 
L 121.662399 41.715653 
L 123.446776 31.461455 
L 125.231152 35.531844 
L 127.015529 34.745825 
L 128.799905 37.465287 
L 130.584281 33.249409 
L 132.368658 20.953848 
L 134.153034 36.07731 
L 135.937411 38.347672 
L 137.721787 44.117671 
L 139.506164 44.055836 
L 141.29054 56.346243 
L 143.074916 55.221227 
L 144.859293 61.992257 
L 146.643669 76.332685 
L 148.428046 69.937927 
L 150.212422 95.510178 
L 151.996799 93.568302 
L 153.781175 115.728483 
L 155.565551 114.125486 
L 157.349928 120.660972 
L 159.134304 135.763538 
L 160.918681 122.701252 
L 162.703057 130.809791 
L 164.487434 130.001543 
L 166.27181 148.017345 
L 168.056186 149.116299 
L 169.840563 146.575332 
L 171.624939 153.020711 
L 173.409316 152.405707 
L 175.193692 148.15241 
L 176.978069 140.829775 
L 178.762445 159.270603 
L 180.546821 144.034376 
L 182.331198 141.412848 
L 184.115574 132.698528 
L 185.899951 132.586261 
L 187.684327 119.739144 
L 189.468704 116.52823 
L 191.25308 113.587667 
L 193.037456 104.905894 
L 194.821833 99.328904 
L 196.606209 84.662162 
L 200.174962 78.104573 
L 201.959339 75.366084 
L 203.743715 57.486548 
L 205.528091 57.947215 
L 207.312468 43.956594 
L 209.096844 38.384201 
L 210.881221 35.990107 
L 212.665597 38.772221 
L 214.449974 33.496602 
L 216.23435 32.250485 
L 218.018726 28.760878 
L 219.803103 34.351584 
L 221.587479 33.986892 
L 223.371856 36.75754 
L 225.156232 42.501808 
L 226.940609 48.768439 
L 228.724985 54.020979 
L 230.509361 62.070608 
L 232.293738 61.362977 
L 234.078114 70.593309 
L 235.862491 78.995809 
L 237.646867 73.876041 
L 239.431244 91.77181 
L 241.21562 100.159417 
L 242.999996 112.016914 
L 244.784373 118.862863 
L 246.568749 118.602523 
L 248.353126 125.662354 
L 250.137502 132.144849 
L 251.921879 134.846042 
L 255.490631 147.569673 
L 257.275008 155.747372 
L 259.059384 156.840455 
L 260.843761 153.237862 
L 262.628137 153.308243 
L 264.412514 153.04455 
L 266.19689 151.603614 
L 267.981266 142.41348 
L 269.765643 148.182516 
L 271.550019 143.134816 
L 273.334396 134.06893 
L 275.118772 136.294141 
L 276.903149 121.135755 
L 278.687525 107.097603 
L 280.471901 103.314809 
L 282.256278 101.568186 
L 284.040654 95.947446 
L 285.825031 87.338131 
L 287.609407 71.103461 
L 289.393784 77.762617 
L 292.962536 52.976589 
L 294.746913 56.241896 
L 296.531289 41.226006 
L 298.315666 32.371383 
L 300.100042 36.289574 
L 301.884419 32.691797 
L 303.668795 36.702948 
L 305.453171 32.937455 
L 307.237548 27.249855 
L 309.021924 39.291437 
L 310.806301 36.355496 
L 312.590677 43.374802 
L 314.375054 36.990055 
L 316.15943 39.359328 
L 317.943806 52.047908 
L 319.728183 38.736493 
L 321.512559 61.67876 
L 323.296936 71.055846 
L 325.081312 68.286074 
L 326.865689 77.853907 
L 328.650065 90.807132 
L 330.434441 98.637865 
L 332.218818 98.012858 
L 334.003194 120.431122 
L 335.787571 117.604276 
L 337.571947 133.481436 
L 339.356324 124.516145 
L 341.1407 147.488385 
L 342.925076 136.786547 
L 344.709453 149.550899 
L 346.493829 148.017906 
L 348.278206 147.961626 
L 350.062582 157.535805 
L 351.846959 149.334117 
L 353.631335 152.634582 
L 355.415711 156.75588 
L 357.200088 139.173114 
L 358.984464 156.220636 
L 360.768841 136.962067 
L 362.553217 134.166187 
L 364.337594 129.435817 
L 366.12197 126.018695 
L 367.906346 118.385671 
L 369.690723 112.243502 
L 371.475099 95.535778 
L 373.259476 87.539852 
L 375.043852 88.797717 
L 376.828229 76.909092 
L 378.612605 79.43487 
L 380.396981 59.885593 
L 382.181358 58.423508 
L 383.965734 54.116239 
L 385.750111 38.303431 
L 387.534487 34.455185 
L 389.318863 45.569702 
L 391.10324 31.591956 
L 392.887616 39.859302 
L 394.671993 33.300493 
L 396.456369 41.810884 
L 398.240746 31.03117 
L 400.025122 34.668456 
L 401.809498 36.941807 
L 403.593875 23.651544 
L 405.378251 44.732216 
L 407.162628 53.035228 
L 408.947004 49.637111 
L 410.731381 56.205607 
L 412.515757 67.044909 
L 414.300133 83.122868 
L 416.08451 83.322959 
L 417.868886 90.002404 
L 419.653263 104.474515 
L 421.437639 103.090492 
L 423.222016 117.213375 
L 425.006392 119.138591 
L 425.006392 119.138591 
" clip-path="url(#pca58ec50cd)" style="fill: none; stroke: #2ca02c; stroke-width: 1.5; stroke-linecap: square"/>
   </g>
   <g id="patch_3">
    <path d="M 52.160938 173.52 
L 52.160938 7.2 
" style="fill: none; stroke: #000000; stroke-width: 0.8; stroke-linejoin: miter; stroke-linecap: square"/>
   </g>
   <g id="patch_4">
    <path d="M 442.760938 173.52 
L 442.760938 7.2 
" style="fill: none; stroke: #000000; stroke-width: 0.8; stroke-linejoin: miter; stroke-linecap: square"/>
   </g>
   <g id="patch_5">
    <path d="M 52.160938 173.52 
L 442.760938 173.52 
" style="fill: none; stroke: #000000; stroke-width: 0.8; stroke-linejoin: miter; stroke-linecap: square"/>
   </g>
   <g id="patch_6">
    <path d="M 52.160938 7.2 
L 442.760938 7.2 
" style="fill: none; stroke: #000000; stroke-width: 0.8; stroke-linejoin: miter; stroke-linecap: square"/>
   </g>
   <g id="legend_1">
    <g id="patch_7">
     <path d="M 397.398438 59.234375 
L 435.760938 59.234375 
Q 437.760938 59.234375 437.760938 57.234375 
L 437.760938 14.2 
Q 437.760938 12.2 435.760938 12.2 
L 397.398438 12.2 
Q 395.398438 12.2 395.398438 14.2 
L 395.398438 57.234375 
Q 395.398438 59.234375 397.398438 59.234375 
z
" style="fill: #ffffff; opacity: 0.8; stroke: #cccccc; stroke-linejoin: miter"/>
    </g>
    <g id="line2d_32">
     <path d="M 399.398438 20.298438 
L 409.398438 20.298438 
L 419.398438 20.298438 
" style="fill: none; stroke: #1f77b4; stroke-width: 1.5; stroke-linecap: square"/>
    </g>
    <g id="text_17">
     <!-- 0 -->
     <g transform="translate(427.398438 23.798438) scale(0.1 -0.1)">
      <use xlink:href="#DejaVuSans-30"/>
     </g>
    </g>
    <g id="line2d_33">
     <path d="M 399.398438 34.976563 
L 409.398438 34.976563 
L 419.398438 34.976563 
" style="fill: none; stroke: #ff7f0e; stroke-width: 1.5; stroke-linecap: square"/>
    </g>
    <g id="text_18">
     <!-- 1 -->
     <g transform="translate(427.398438 38.476563) scale(0.1 -0.1)">
      <use xlink:href="#DejaVuSans-31"/>
     </g>
    </g>
    <g id="line2d_34">
     <path d="M 399.398438 49.654688 
L 409.398438 49.654688 
L 419.398438 49.654688 
" style="fill: none; stroke: #2ca02c; stroke-width: 1.5; stroke-linecap: square"/>
    </g>
    <g id="text_19">
     <!-- 2 -->
     <g transform="translate(427.398438 53.154688) scale(0.1 -0.1)">
      <use xlink:href="#DejaVuSans-32"/>
     </g>
    </g>
   </g>
  </g>
 </g>
 <defs>
  <clipPath id="pca58ec50cd">
   <rect x="52.160938" y="7.2" width="390.6" height="166.32"/>
  </clipPath>
 </defs>
</svg>
