<?xml version="1.0" encoding="utf-8" standalone="no"?>
<!DOCTYPE svg PUBLIC "-//W3C//DTD SVG 1.1//EN"
  "http://www.w3.org/Graphics/SVG/1.1/DTD/svg11.dtd">
<svg xmlns:xlink="http://www.w3.org/1999/xlink" width="413.302812pt" height="325.986375pt" viewBox="0 0 413.302812 325.986375" xmlns="http://www.w3.org/2000/svg" version="1.1">
 <metadata>
  <rdf:RDF xmlns:dc="http://purl.org/dc/elements/1.1/" xmlns:cc="http://creativecommons.org/ns#" xmlns:rdf="http://www.w3.org/1999/02/22-rdf-syntax-ns#">
   <cc:Work>
    <dc:type rdf:resource="http://purl.org/dc/dcmitype/StillImage"/>
    <dc:date>2024-05-03T21:41:46.411092</dc:date>
    <dc:format>image/svg+xml</dc:format>
    <dc:creator>
     <cc:Agent>
      <dc:title>Matplotlib v3.8.0, https://matplotlib.org/</dc:title>
     </cc:Agent>
    </dc:creator>
   </cc:Work>
  </rdf:RDF>
 </metadata>
 <defs>
  <style type="text/css">*{stroke-linejoin: round; stroke-linecap: butt}</style>
 </defs>
 <g id="figure_1">
  <g id="patch_1">
   <path d="M 0 325.986375 
L 413.302812 325.986375 
L 413.302812 0 
L 0 0 
z
" style="fill: #ffffff"/>
  </g>
  <g id="axes_1">
   <g id="patch_2">
    <path d="M 48.982813 288.430125 
L 406.102813 288.430125 
L 406.102813 22.318125 
L 48.982813 22.318125 
z
" style="fill: #ffffff"/>
   </g>
   <g id="matplotlib.axis_1">
    <g id="xtick_1">
     <g id="line2d_1">
      <path d="M 92.270085 288.430125 
L 92.270085 22.318125 
" clip-path="url(#p501b90721d)" style="fill: none; stroke: #b0b0b0; stroke-width: 0.8; stroke-linecap: square"/>
     </g>
     <g id="line2d_2">
      <defs>
       <path id="mb446e087e4" d="M 0 0 
L 0 3.5 
" style="stroke: #000000; stroke-width: 0.8"/>
      </defs>
      <g>
       <use xlink:href="#mb446e087e4" x="92.270085" y="288.430125" style="stroke: #000000; stroke-width: 0.8"/>
      </g>
     </g>
     <g id="text_1">
      <!-- −75 -->
      <g transform="translate(81.717741 303.028562) scale(0.1 -0.1)">
       <defs>
        <path id="DejaVuSans-2212" d="M 678 2272 
L 4684 2272 
L 4684 1741 
L 678 1741 
L 678 2272 
z
" transform="scale(0.015625)"/>
        <path id="DejaVuSans-37" d="M 525 4666 
L 3525 4666 
L 3525 4397 
L 1831 0 
L 1172 0 
L 2766 4134 
L 525 4134 
L 525 4666 
z
" transform="scale(0.015625)"/>
        <path id="DejaVuSans-35" d="M 691 4666 
L 3169 4666 
L 3169 4134 
L 1269 4134 
L 1269 2991 
Q 1406 3038 1543 3061 
Q 1681 3084 1819 3084 
Q 2600 3084 3056 2656 
Q 3513 2228 3513 1497 
Q 3513 744 3044 326 
Q 2575 -91 1722 -91 
Q 1428 -91 1123 -41 
Q 819 9 494 109 
L 494 744 
Q 775 591 1075 516 
Q 1375 441 1709 441 
Q 2250 441 2565 725 
Q 2881 1009 2881 1497 
Q 2881 1984 2565 2268 
Q 2250 2553 1709 2553 
Q 1456 2553 1204 2497 
Q 953 2441 691 2322 
L 691 4666 
z
" transform="scale(0.015625)"/>
       </defs>
       <use xlink:href="#DejaVuSans-2212"/>
       <use xlink:href="#DejaVuSans-37" x="83.789062"/>
       <use xlink:href="#DejaVuSans-35" x="147.412109"/>
      </g>
     </g>
    </g>
    <g id="xtick_2">
     <g id="line2d_3">
      <path d="M 137.360994 288.430125 
L 137.360994 22.318125 
" clip-path="url(#p501b90721d)" style="fill: none; stroke: #b0b0b0; stroke-width: 0.8; stroke-linecap: square"/>
     </g>
     <g id="line2d_4">
      <g>
       <use xlink:href="#mb446e087e4" x="137.360994" y="288.430125" style="stroke: #000000; stroke-width: 0.8"/>
      </g>
     </g>
     <g id="text_2">
      <!-- −50 -->
      <g transform="translate(126.808651 303.028562) scale(0.1 -0.1)">
       <defs>
        <path id="DejaVuSans-30" d="M 2034 4250 
Q 1547 4250 1301 3770 
Q 1056 3291 1056 2328 
Q 1056 1369 1301 889 
Q 1547 409 2034 409 
Q 2525 409 2770 889 
Q 3016 1369 3016 2328 
Q 3016 3291 2770 3770 
Q 2525 4250 2034 4250 
z
M 2034 4750 
Q 2819 4750 3233 4129 
Q 3647 3509 3647 2328 
Q 3647 1150 3233 529 
Q 2819 -91 2034 -91 
Q 1250 -91 836 529 
Q 422 1150 422 2328 
Q 422 3509 836 4129 
Q 1250 4750 2034 4750 
z
" transform="scale(0.015625)"/>
       </defs>
       <use xlink:href="#DejaVuSans-2212"/>
       <use xlink:href="#DejaVuSans-35" x="83.789062"/>
       <use xlink:href="#DejaVuSans-30" x="147.412109"/>
      </g>
     </g>
    </g>
    <g id="xtick_3">
     <g id="line2d_5">
      <path d="M 182.451903 288.430125 
L 182.451903 22.318125 
" clip-path="url(#p501b90721d)" style="fill: none; stroke: #b0b0b0; stroke-width: 0.8; stroke-linecap: square"/>
     </g>
     <g id="line2d_6">
      <g>
       <use xlink:href="#mb446e087e4" x="182.451903" y="288.430125" style="stroke: #000000; stroke-width: 0.8"/>
      </g>
     </g>
     <g id="text_3">
      <!-- −25 -->
      <g transform="translate(171.89956 303.028562) scale(0.1 -0.1)">
       <defs>
        <path id="DejaVuSans-32" d="M 1228 531 
L 3431 531 
L 3431 0 
L 469 0 
L 469 531 
Q 828 903 1448 1529 
Q 2069 2156 2228 2338 
Q 2531 2678 2651 2914 
Q 2772 3150 2772 3378 
Q 2772 3750 2511 3984 
Q 2250 4219 1831 4219 
Q 1534 4219 1204 4116 
Q 875 4013 500 3803 
L 500 4441 
Q 881 4594 1212 4672 
Q 1544 4750 1819 4750 
Q 2544 4750 2975 4387 
Q 3406 4025 3406 3419 
Q 3406 3131 3298 2873 
Q 3191 2616 2906 2266 
Q 2828 2175 2409 1742 
Q 1991 1309 1228 531 
z
" transform="scale(0.015625)"/>
       </defs>
       <use xlink:href="#DejaVuSans-2212"/>
       <use xlink:href="#DejaVuSans-32" x="83.789062"/>
       <use xlink:href="#DejaVuSans-35" x="147.412109"/>
      </g>
     </g>
    </g>
    <g id="xtick_4">
     <g id="line2d_7">
      <path d="M 227.542813 288.430125 
L 227.542813 22.318125 
" clip-path="url(#p501b90721d)" style="fill: none; stroke: #b0b0b0; stroke-width: 0.8; stroke-linecap: square"/>
     </g>
     <g id="line2d_8">
      <g>
       <use xlink:href="#mb446e087e4" x="227.542813" y="288.430125" style="stroke: #000000; stroke-width: 0.8"/>
      </g>
     </g>
     <g id="text_4">
      <!-- 0 -->
      <g transform="translate(224.361563 303.028562) scale(0.1 -0.1)">
       <use xlink:href="#DejaVuSans-30"/>
      </g>
     </g>
    </g>
    <g id="xtick_5">
     <g id="line2d_9">
      <path d="M 272.633722 288.430125 
L 272.633722 22.318125 
" clip-path="url(#p501b90721d)" style="fill: none; stroke: #b0b0b0; stroke-width: 0.8; stroke-linecap: square"/>
     </g>
     <g id="line2d_10">
      <g>
       <use xlink:href="#mb446e087e4" x="272.633722" y="288.430125" style="stroke: #000000; stroke-width: 0.8"/>
      </g>
     </g>
     <g id="text_5">
      <!-- 25 -->
      <g transform="translate(266.271222 303.028562) scale(0.1 -0.1)">
       <use xlink:href="#DejaVuSans-32"/>
       <use xlink:href="#DejaVuSans-35" x="63.623047"/>
      </g>
     </g>
    </g>
    <g id="xtick_6">
     <g id="line2d_11">
      <path d="M 317.724631 288.430125 
L 317.724631 22.318125 
" clip-path="url(#p501b90721d)" style="fill: none; stroke: #b0b0b0; stroke-width: 0.8; stroke-linecap: square"/>
     </g>
     <g id="line2d_12">
      <g>
       <use xlink:href="#mb446e087e4" x="317.724631" y="288.430125" style="stroke: #000000; stroke-width: 0.8"/>
      </g>
     </g>
     <g id="text_6">
      <!-- 50 -->
      <g transform="translate(311.362131 303.028562) scale(0.1 -0.1)">
       <use xlink:href="#DejaVuSans-35"/>
       <use xlink:href="#DejaVuSans-30" x="63.623047"/>
      </g>
     </g>
    </g>
    <g id="xtick_7">
     <g id="line2d_13">
      <path d="M 362.81554 288.430125 
L 362.81554 22.318125 
" clip-path="url(#p501b90721d)" style="fill: none; stroke: #b0b0b0; stroke-width: 0.8; stroke-linecap: square"/>
     </g>
     <g id="line2d_14">
      <g>
       <use xlink:href="#mb446e087e4" x="362.81554" y="288.430125" style="stroke: #000000; stroke-width: 0.8"/>
      </g>
     </g>
     <g id="text_7">
      <!-- 75 -->
      <g transform="translate(356.45304 303.028562) scale(0.1 -0.1)">
       <use xlink:href="#DejaVuSans-37"/>
       <use xlink:href="#DejaVuSans-35" x="63.623047"/>
      </g>
     </g>
    </g>
    <g id="text_8">
     <!-- Angle [deg] -->
     <g transform="translate(198.398281 316.706687) scale(0.1 -0.1)">
      <defs>
       <path id="DejaVuSans-41" d="M 2188 4044 
L 1331 1722 
L 3047 1722 
L 2188 4044 
z
M 1831 4666 
L 2547 4666 
L 4325 0 
L 3669 0 
L 3244 1197 
L 1141 1197 
L 716 0 
L 50 0 
L 1831 4666 
z
" transform="scale(0.015625)"/>
       <path id="DejaVuSans-6e" d="M 3513 2113 
L 3513 0 
L 2938 0 
L 2938 2094 
Q 2938 2591 2744 2837 
Q 2550 3084 2163 3084 
Q 1697 3084 1428 2787 
Q 1159 2491 1159 1978 
L 1159 0 
L 581 0 
L 581 3500 
L 1159 3500 
L 1159 2956 
Q 1366 3272 1645 3428 
Q 1925 3584 2291 3584 
Q 2894 3584 3203 3211 
Q 3513 2838 3513 2113 
z
" transform="scale(0.015625)"/>
       <path id="DejaVuSans-67" d="M 2906 1791 
Q 2906 2416 2648 2759 
Q 2391 3103 1925 3103 
Q 1463 3103 1205 2759 
Q 947 2416 947 1791 
Q 947 1169 1205 825 
Q 1463 481 1925 481 
Q 2391 481 2648 825 
Q 2906 1169 2906 1791 
z
M 3481 434 
Q 3481 -459 3084 -895 
Q 2688 -1331 1869 -1331 
Q 1566 -1331 1297 -1286 
Q 1028 -1241 775 -1147 
L 775 -588 
Q 1028 -725 1275 -790 
Q 1522 -856 1778 -856 
Q 2344 -856 2625 -561 
Q 2906 -266 2906 331 
L 2906 616 
Q 2728 306 2450 153 
Q 2172 0 1784 0 
Q 1141 0 747 490 
Q 353 981 353 1791 
Q 353 2603 747 3093 
Q 1141 3584 1784 3584 
Q 2172 3584 2450 3431 
Q 2728 3278 2906 2969 
L 2906 3500 
L 3481 3500 
L 3481 434 
z
" transform="scale(0.015625)"/>
       <path id="DejaVuSans-6c" d="M 603 4863 
L 1178 4863 
L 1178 0 
L 603 0 
L 603 4863 
z
" transform="scale(0.015625)"/>
       <path id="DejaVuSans-65" d="M 3597 1894 
L 3597 1613 
L 953 1613 
Q 991 1019 1311 708 
Q 1631 397 2203 397 
Q 2534 397 2845 478 
Q 3156 559 3463 722 
L 3463 178 
Q 3153 47 2828 -22 
Q 2503 -91 2169 -91 
Q 1331 -91 842 396 
Q 353 884 353 1716 
Q 353 2575 817 3079 
Q 1281 3584 2069 3584 
Q 2775 3584 3186 3129 
Q 3597 2675 3597 1894 
z
M 3022 2063 
Q 3016 2534 2758 2815 
Q 2500 3097 2075 3097 
Q 1594 3097 1305 2825 
Q 1016 2553 972 2059 
L 3022 2063 
z
" transform="scale(0.015625)"/>
       <path id="DejaVuSans-20" transform="scale(0.015625)"/>
       <path id="DejaVuSans-5b" d="M 550 4863 
L 1875 4863 
L 1875 4416 
L 1125 4416 
L 1125 -397 
L 1875 -397 
L 1875 -844 
L 550 -844 
L 550 4863 
z
" transform="scale(0.015625)"/>
       <path id="DejaVuSans-64" d="M 2906 2969 
L 2906 4863 
L 3481 4863 
L 3481 0 
L 2906 0 
L 2906 525 
Q 2725 213 2448 61 
Q 2172 -91 1784 -91 
Q 1150 -91 751 415 
Q 353 922 353 1747 
Q 353 2572 751 3078 
Q 1150 3584 1784 3584 
Q 2172 3584 2448 3432 
Q 2725 3281 2906 2969 
z
M 947 1747 
Q 947 1113 1208 752 
Q 1469 391 1925 391 
Q 2381 391 2643 752 
Q 2906 1113 2906 1747 
Q 2906 2381 2643 2742 
Q 2381 3103 1925 3103 
Q 1469 3103 1208 2742 
Q 947 2381 947 1747 
z
" transform="scale(0.015625)"/>
       <path id="DejaVuSans-5d" d="M 1947 4863 
L 1947 -844 
L 622 -844 
L 622 -397 
L 1369 -397 
L 1369 4416 
L 622 4416 
L 622 4863 
L 1947 4863 
z
" transform="scale(0.015625)"/>
      </defs>
      <use xlink:href="#DejaVuSans-41"/>
      <use xlink:href="#DejaVuSans-6e" x="68.408203"/>
      <use xlink:href="#DejaVuSans-67" x="131.787109"/>
      <use xlink:href="#DejaVuSans-6c" x="195.263672"/>
      <use xlink:href="#DejaVuSans-65" x="223.046875"/>
      <use xlink:href="#DejaVuSans-20" x="284.570312"/>
      <use xlink:href="#DejaVuSans-5b" x="316.357422"/>
      <use xlink:href="#DejaVuSans-64" x="355.371094"/>
      <use xlink:href="#DejaVuSans-65" x="418.847656"/>
      <use xlink:href="#DejaVuSans-67" x="480.371094"/>
      <use xlink:href="#DejaVuSans-5d" x="543.847656"/>
     </g>
    </g>
   </g>
   <g id="matplotlib.axis_2">
    <g id="ytick_1">
     <g id="line2d_15">
      <path d="M 48.982813 271.179079 
L 406.102813 271.179079 
" clip-path="url(#p501b90721d)" style="fill: none; stroke: #b0b0b0; stroke-width: 0.8; stroke-linecap: square"/>
     </g>
     <g id="line2d_16">
      <defs>
       <path id="maf7154cadb" d="M 0 0 
L -3.5 0 
" style="stroke: #000000; stroke-width: 0.8"/>
      </defs>
      <g>
       <use xlink:href="#maf7154cadb" x="48.982813" y="271.179079" style="stroke: #000000; stroke-width: 0.8"/>
      </g>
     </g>
     <g id="text_9">
      <!-- −40 -->
      <g transform="translate(20.878125 274.978298) scale(0.1 -0.1)">
       <defs>
        <path id="DejaVuSans-34" d="M 2419 4116 
L 825 1625 
L 2419 1625 
L 2419 4116 
z
M 2253 4666 
L 3047 4666 
L 3047 1625 
L 3713 1625 
L 3713 1100 
L 3047 1100 
L 3047 0 
L 2419 0 
L 2419 1100 
L 313 1100 
L 313 1709 
L 2253 4666 
z
" transform="scale(0.015625)"/>
       </defs>
       <use xlink:href="#DejaVuSans-2212"/>
       <use xlink:href="#DejaVuSans-34" x="83.789062"/>
       <use xlink:href="#DejaVuSans-30" x="147.412109"/>
      </g>
     </g>
    </g>
    <g id="ytick_2">
     <g id="line2d_17">
      <path d="M 48.982813 241.58346 
L 406.102813 241.58346 
" clip-path="url(#p501b90721d)" style="fill: none; stroke: #b0b0b0; stroke-width: 0.8; stroke-linecap: square"/>
     </g>
     <g id="line2d_18">
      <g>
       <use xlink:href="#maf7154cadb" x="48.982813" y="241.58346" style="stroke: #000000; stroke-width: 0.8"/>
      </g>
     </g>
     <g id="text_10">
      <!-- −35 -->
      <g transform="translate(20.878125 245.382678) scale(0.1 -0.1)">
       <defs>
        <path id="DejaVuSans-33" d="M 2597 2516 
Q 3050 2419 3304 2112 
Q 3559 1806 3559 1356 
Q 3559 666 3084 287 
Q 2609 -91 1734 -91 
Q 1441 -91 1130 -33 
Q 819 25 488 141 
L 488 750 
Q 750 597 1062 519 
Q 1375 441 1716 441 
Q 2309 441 2620 675 
Q 2931 909 2931 1356 
Q 2931 1769 2642 2001 
Q 2353 2234 1838 2234 
L 1294 2234 
L 1294 2753 
L 1863 2753 
Q 2328 2753 2575 2939 
Q 2822 3125 2822 3475 
Q 2822 3834 2567 4026 
Q 2313 4219 1838 4219 
Q 1578 4219 1281 4162 
Q 984 4106 628 3988 
L 628 4550 
Q 988 4650 1302 4700 
Q 1616 4750 1894 4750 
Q 2613 4750 3031 4423 
Q 3450 4097 3450 3541 
Q 3450 3153 3228 2886 
Q 3006 2619 2597 2516 
z
" transform="scale(0.015625)"/>
       </defs>
       <use xlink:href="#DejaVuSans-2212"/>
       <use xlink:href="#DejaVuSans-33" x="83.789062"/>
       <use xlink:href="#DejaVuSans-35" x="147.412109"/>
      </g>
     </g>
    </g>
    <g id="ytick_3">
     <g id="line2d_19">
      <path d="M 48.982813 211.98784 
L 406.102813 211.98784 
" clip-path="url(#p501b90721d)" style="fill: none; stroke: #b0b0b0; stroke-width: 0.8; stroke-linecap: square"/>
     </g>
     <g id="line2d_20">
      <g>
       <use xlink:href="#maf7154cadb" x="48.982813" y="211.98784" style="stroke: #000000; stroke-width: 0.8"/>
      </g>
     </g>
     <g id="text_11">
      <!-- −30 -->
      <g transform="translate(20.878125 215.787059) scale(0.1 -0.1)">
       <use xlink:href="#DejaVuSans-2212"/>
       <use xlink:href="#DejaVuSans-33" x="83.789062"/>
       <use xlink:href="#DejaVuSans-30" x="147.412109"/>
      </g>
     </g>
    </g>
    <g id="ytick_4">
     <g id="line2d_21">
      <path d="M 48.982813 182.392221 
L 406.102813 182.392221 
" clip-path="url(#p501b90721d)" style="fill: none; stroke: #b0b0b0; stroke-width: 0.8; stroke-linecap: square"/>
     </g>
     <g id="line2d_22">
      <g>
       <use xlink:href="#maf7154cadb" x="48.982813" y="182.392221" style="stroke: #000000; stroke-width: 0.8"/>
      </g>
     </g>
     <g id="text_12">
      <!-- −25 -->
      <g transform="translate(20.878125 186.19144) scale(0.1 -0.1)">
       <use xlink:href="#DejaVuSans-2212"/>
       <use xlink:href="#DejaVuSans-32" x="83.789062"/>
       <use xlink:href="#DejaVuSans-35" x="147.412109"/>
      </g>
     </g>
    </g>
    <g id="ytick_5">
     <g id="line2d_23">
      <path d="M 48.982813 152.796602 
L 406.102813 152.796602 
" clip-path="url(#p501b90721d)" style="fill: none; stroke: #b0b0b0; stroke-width: 0.8; stroke-linecap: square"/>
     </g>
     <g id="line2d_24">
      <g>
       <use xlink:href="#maf7154cadb" x="48.982813" y="152.796602" style="stroke: #000000; stroke-width: 0.8"/>
      </g>
     </g>
     <g id="text_13">
      <!-- −20 -->
      <g transform="translate(20.878125 156.595821) scale(0.1 -0.1)">
       <use xlink:href="#DejaVuSans-2212"/>
       <use xlink:href="#DejaVuSans-32" x="83.789062"/>
       <use xlink:href="#DejaVuSans-30" x="147.412109"/>
      </g>
     </g>
    </g>
    <g id="ytick_6">
     <g id="line2d_25">
      <path d="M 48.982813 123.200983 
L 406.102813 123.200983 
" clip-path="url(#p501b90721d)" style="fill: none; stroke: #b0b0b0; stroke-width: 0.8; stroke-linecap: square"/>
     </g>
     <g id="line2d_26">
      <g>
       <use xlink:href="#maf7154cadb" x="48.982813" y="123.200983" style="stroke: #000000; stroke-width: 0.8"/>
      </g>
     </g>
     <g id="text_14">
      <!-- −15 -->
      <g transform="translate(20.878125 127.000201) scale(0.1 -0.1)">
       <defs>
        <path id="DejaVuSans-31" d="M 794 531 
L 1825 531 
L 1825 4091 
L 703 3866 
L 703 4441 
L 1819 4666 
L 2450 4666 
L 2450 531 
L 3481 531 
L 3481 0 
L 794 0 
L 794 531 
z
" transform="scale(0.015625)"/>
       </defs>
       <use xlink:href="#DejaVuSans-2212"/>
       <use xlink:href="#DejaVuSans-31" x="83.789062"/>
       <use xlink:href="#DejaVuSans-35" x="147.412109"/>
      </g>
     </g>
    </g>
    <g id="ytick_7">
     <g id="line2d_27">
      <path d="M 48.982813 93.605363 
L 406.102813 93.605363 
" clip-path="url(#p501b90721d)" style="fill: none; stroke: #b0b0b0; stroke-width: 0.8; stroke-linecap: square"/>
     </g>
     <g id="line2d_28">
      <g>
       <use xlink:href="#maf7154cadb" x="48.982813" y="93.605363" style="stroke: #000000; stroke-width: 0.8"/>
      </g>
     </g>
     <g id="text_15">
      <!-- −10 -->
      <g transform="translate(20.878125 97.404582) scale(0.1 -0.1)">
       <use xlink:href="#DejaVuSans-2212"/>
       <use xlink:href="#DejaVuSans-31" x="83.789062"/>
       <use xlink:href="#DejaVuSans-30" x="147.412109"/>
      </g>
     </g>
    </g>
    <g id="ytick_8">
     <g id="line2d_29">
      <path d="M 48.982813 64.009744 
L 406.102813 64.009744 
" clip-path="url(#p501b90721d)" style="fill: none; stroke: #b0b0b0; stroke-width: 0.8; stroke-linecap: square"/>
     </g>
     <g id="line2d_30">
      <g>
       <use xlink:href="#maf7154cadb" x="48.982813" y="64.009744" style="stroke: #000000; stroke-width: 0.8"/>
      </g>
     </g>
     <g id="text_16">
      <!-- −5 -->
      <g transform="translate(27.240625 67.808963) scale(0.1 -0.1)">
       <use xlink:href="#DejaVuSans-2212"/>
       <use xlink:href="#DejaVuSans-35" x="83.789062"/>
      </g>
     </g>
    </g>
    <g id="ytick_9">
     <g id="line2d_31">
      <path d="M 48.982813 34.414125 
L 406.102813 34.414125 
" clip-path="url(#p501b90721d)" style="fill: none; stroke: #b0b0b0; stroke-width: 0.8; stroke-linecap: square"/>
     </g>
     <g id="line2d_32">
      <g>
       <use xlink:href="#maf7154cadb" x="48.982813" y="34.414125" style="stroke: #000000; stroke-width: 0.8"/>
      </g>
     </g>
     <g id="text_17">
      <!-- 0 -->
      <g transform="translate(35.620313 38.213344) scale(0.1 -0.1)">
       <use xlink:href="#DejaVuSans-30"/>
      </g>
     </g>
    </g>
    <g id="text_18">
     <!-- Magnitude [dB] -->
     <g transform="translate(14.798438 193.959281) rotate(-90) scale(0.1 -0.1)">
      <defs>
       <path id="DejaVuSans-4d" d="M 628 4666 
L 1569 4666 
L 2759 1491 
L 3956 4666 
L 4897 4666 
L 4897 0 
L 4281 0 
L 4281 4097 
L 3078 897 
L 2444 897 
L 1241 4097 
L 1241 0 
L 628 0 
L 628 4666 
z
" transform="scale(0.015625)"/>
       <path id="DejaVuSans-61" d="M 2194 1759 
Q 1497 1759 1228 1600 
Q 959 1441 959 1056 
Q 959 750 1161 570 
Q 1363 391 1709 391 
Q 2188 391 2477 730 
Q 2766 1069 2766 1631 
L 2766 1759 
L 2194 1759 
z
M 3341 1997 
L 3341 0 
L 2766 0 
L 2766 531 
Q 2569 213 2275 61 
Q 1981 -91 1556 -91 
Q 1019 -91 701 211 
Q 384 513 384 1019 
Q 384 1609 779 1909 
Q 1175 2209 1959 2209 
L 2766 2209 
L 2766 2266 
Q 2766 2663 2505 2880 
Q 2244 3097 1772 3097 
Q 1472 3097 1187 3025 
Q 903 2953 641 2809 
L 641 3341 
Q 956 3463 1253 3523 
Q 1550 3584 1831 3584 
Q 2591 3584 2966 3190 
Q 3341 2797 3341 1997 
z
" transform="scale(0.015625)"/>
       <path id="DejaVuSans-69" d="M 603 3500 
L 1178 3500 
L 1178 0 
L 603 0 
L 603 3500 
z
M 603 4863 
L 1178 4863 
L 1178 4134 
L 603 4134 
L 603 4863 
z
" transform="scale(0.015625)"/>
       <path id="DejaVuSans-74" d="M 1172 4494 
L 1172 3500 
L 2356 3500 
L 2356 3053 
L 1172 3053 
L 1172 1153 
Q 1172 725 1289 603 
Q 1406 481 1766 481 
L 2356 481 
L 2356 0 
L 1766 0 
Q 1100 0 847 248 
Q 594 497 594 1153 
L 594 3053 
L 172 3053 
L 172 3500 
L 594 3500 
L 594 4494 
L 1172 4494 
z
" transform="scale(0.015625)"/>
       <path id="DejaVuSans-75" d="M 544 1381 
L 544 3500 
L 1119 3500 
L 1119 1403 
Q 1119 906 1312 657 
Q 1506 409 1894 409 
Q 2359 409 2629 706 
Q 2900 1003 2900 1516 
L 2900 3500 
L 3475 3500 
L 3475 0 
L 2900 0 
L 2900 538 
Q 2691 219 2414 64 
Q 2138 -91 1772 -91 
Q 1169 -91 856 284 
Q 544 659 544 1381 
z
M 1991 3584 
L 1991 3584 
z
" transform="scale(0.015625)"/>
       <path id="DejaVuSans-42" d="M 1259 2228 
L 1259 519 
L 2272 519 
Q 2781 519 3026 730 
Q 3272 941 3272 1375 
Q 3272 1813 3026 2020 
Q 2781 2228 2272 2228 
L 1259 2228 
z
M 1259 4147 
L 1259 2741 
L 2194 2741 
Q 2656 2741 2882 2914 
Q 3109 3088 3109 3444 
Q 3109 3797 2882 3972 
Q 2656 4147 2194 4147 
L 1259 4147 
z
M 628 4666 
L 2241 4666 
Q 2963 4666 3353 4366 
Q 3744 4066 3744 3513 
Q 3744 3084 3544 2831 
Q 3344 2578 2956 2516 
Q 3422 2416 3680 2098 
Q 3938 1781 3938 1306 
Q 3938 681 3513 340 
Q 3088 0 2303 0 
L 628 0 
L 628 4666 
z
" transform="scale(0.015625)"/>
      </defs>
      <use xlink:href="#DejaVuSans-4d"/>
      <use xlink:href="#DejaVuSans-61" x="86.279297"/>
      <use xlink:href="#DejaVuSans-67" x="147.558594"/>
      <use xlink:href="#DejaVuSans-6e" x="211.035156"/>
      <use xlink:href="#DejaVuSans-69" x="274.414062"/>
      <use xlink:href="#DejaVuSans-74" x="302.197266"/>
      <use xlink:href="#DejaVuSans-75" x="341.40625"/>
      <use xlink:href="#DejaVuSans-64" x="404.785156"/>
      <use xlink:href="#DejaVuSans-65" x="468.261719"/>
      <use xlink:href="#DejaVuSans-20" x="529.785156"/>
      <use xlink:href="#DejaVuSans-5b" x="561.572266"/>
      <use xlink:href="#DejaVuSans-64" x="600.585938"/>
      <use xlink:href="#DejaVuSans-42" x="664.0625"/>
      <use xlink:href="#DejaVuSans-5d" x="732.666016"/>
     </g>
    </g>
   </g>
   <g id="line2d_33">
    <path d="M 65.21554 71.099364 
L 69.784086 70.491268 
L 71.676967 69.870815 
L 74.354867 68.5991 
L 76.41071 67.29619 
L 78.144719 65.973069 
L 80.380063 63.971848 
L 82.929683 61.31601 
L 85.678452 58.088891 
L 89.874372 52.74021 
L 94.564665 46.816395 
L 97.321731 43.702279 
L 99.558446 41.523393 
L 101.36948 40.050126 
L 103.097416 38.928809 
L 104.753167 38.147155 
L 106.08417 37.746264 
L 107.375319 37.565476 
L 108.630176 37.597751 
L 109.851811 37.836118 
L 111.042889 38.273617 
L 112.435111 39.051535 
L 113.790183 40.093479 
L 115.111147 41.38615 
L 116.612683 43.191864 
L 118.075061 45.29367 
L 119.702469 48.020681 
L 121.482235 51.441599 
L 123.591076 56.008476 
L 126.361994 62.602372 
L 132.101511 76.4192 
L 135.059941 82.820186 
L 140.984672 95.377516 
L 143.073524 100.493092 
L 144.828749 105.368616 
L 146.411126 110.384107 
L 147.969649 116.086339 
L 149.366956 122.014703 
L 150.88369 129.463995 
L 153.188523 142.245152 
L 154.257637 147.545355 
L 154.921032 149.8832 
L 155.317342 150.737605 
L 155.712379 151.103571 
L 155.975038 151.058827 
L 156.237145 150.780763 
L 156.62928 149.941099 
L 157.150239 148.112921 
L 157.798462 144.939577 
L 158.957152 137.888547 
L 161.244713 123.883664 
L 162.499312 117.634244 
L 163.619037 113.14413 
L 164.607143 110.032343 
L 165.466359 107.952718 
L 166.320707 106.436434 
L 167.049238 105.55546 
L 167.774379 105.031934 
L 168.376135 104.846041 
L 168.97564 104.865205 
L 169.692139 105.123423 
L 170.524142 105.682028 
L 171.94095 106.983627 
L 173.112817 107.969604 
L 173.812233 108.308648 
L 174.393014 108.357759 
L 174.971957 108.144411 
L 175.549097 107.637098 
L 176.124469 106.823213 
L 176.812627 105.453597 
L 177.726385 103.042679 
L 178.862679 99.343162 
L 181.340584 90.2269 
L 183.457836 82.863068 
L 185.11548 77.880553 
L 186.542783 74.237274 
L 187.852995 71.450966 
L 189.048147 69.400951 
L 190.129977 67.97687 
L 191.099966 67.074727 
L 191.959372 66.593601 
L 192.709253 66.435035 
L 193.350491 66.504479 
L 193.990366 66.772701 
L 194.735208 67.349048 
L 195.478289 68.223474 
L 196.325434 69.608023 
L 197.170421 71.427057 
L 198.118542 74.025145 
L 199.169035 77.643199 
L 200.216529 82.087062 
L 201.365465 88.003216 
L 202.511104 95.079242 
L 203.757329 104.213123 
L 205.103449 115.825726 
L 206.754943 132.25783 
L 208.914462 153.80989 
L 209.734925 159.870562 
L 210.349526 163.019903 
L 210.861224 164.708982 
L 211.372509 165.657685 
L 211.78125 165.993605 
L 212.189743 166.051497 
L 212.700019 165.856266 
L 213.413798 165.296379 
L 214.635862 164.012434 
L 215.957725 162.327082 
L 217.176214 160.405557 
L 219.710295 156.263133 
L 220.418927 155.611827 
L 220.924886 155.431013 
L 221.329538 155.495557 
L 221.734094 155.773883 
L 222.239665 156.462518 
L 222.745109 157.580513 
L 223.351491 159.574141 
L 223.957729 162.396509 
L 224.664852 166.949803 
L 225.371841 173.197752 
L 226.078727 181.669025 
L 226.785546 193.185089 
L 227.492328 208.858377 
L 228.602995 235.124042 
L 228.703969 235.501789 
L 228.804944 235.158722 
L 229.006898 232.410997 
L 229.410822 221.503436 
L 230.622793 186.505709 
L 231.430998 169.765839 
L 232.340516 155.438519 
L 233.250406 144.31474 
L 234.261918 134.569539 
L 235.274075 126.842877 
L 236.286975 120.660758 
L 237.300719 115.712965 
L 238.315405 111.788689 
L 239.331134 108.743449 
L 240.246267 106.673906 
L 241.060557 105.330099 
L 241.773753 104.522161 
L 242.487631 104.05228 
L 243.100098 103.918942 
L 243.713116 104.037592 
L 244.326707 104.413751 
L 244.940897 105.054982 
L 245.658238 106.15076 
L 246.47914 107.883736 
L 247.301252 110.159993 
L 248.227646 113.417349 
L 249.155729 117.475603 
L 250.189014 123.027484 
L 251.224606 129.834708 
L 252.262624 138.140568 
L 253.303191 148.301442 
L 254.346433 160.664174 
L 255.91659 179.716678 
L 256.231417 181.422774 
L 256.441453 181.627216 
L 256.651612 180.988685 
L 256.967083 178.472078 
L 257.388151 172.743864 
L 258.337432 155.375575 
L 259.819468 129.048188 
L 261.095259 110.27446 
L 262.376372 94.492777 
L 263.770563 80.092476 
L 265.063636 68.882524 
L 266.362885 59.426918 
L 267.66861 51.574499 
L 268.871475 45.703486 
L 269.970145 41.431617 
L 270.963309 38.444611 
L 271.849713 36.475403 
L 272.628175 35.291724 
L 273.297609 34.688937 
L 273.857044 34.486608 
L 274.305642 34.52794 
L 274.755189 34.7564 
L 275.318479 35.316247 
L 275.883303 36.19697 
L 276.563159 37.707532 
L 277.245319 39.757417 
L 278.044157 42.912904 
L 278.846291 47.018689 
L 279.651813 52.265506 
L 280.460815 58.939936 
L 281.273392 67.498999 
L 282.089644 78.736185 
L 282.79229 91.645311 
L 283.379996 106.240689 
L 283.969713 127.3674 
L 284.442963 154.782458 
L 284.798774 193.769307 
L 285.155345 276.334125 
L 285.393486 197.698676 
L 285.751343 156.425593 
L 286.229708 128.078458 
L 286.82966 106.393871 
L 287.552588 88.9436 
L 288.27885 76.34158 
L 289.13048 65.27085 
L 289.986897 56.797503 
L 290.848243 50.190325 
L 291.714664 45.02866 
L 292.586313 41.052379 
L 293.46335 38.093748 
L 294.219508 36.283453 
L 294.852835 35.250629 
L 295.489134 34.631177 
L 296.000358 34.425669 
L 296.513563 34.474686 
L 297.028785 34.777582 
L 297.546059 35.335924 
L 298.195598 36.399095 
L 298.84848 37.880176 
L 299.636463 40.236454 
L 300.562194 43.845421 
L 301.495059 48.486247 
L 302.435302 54.31911 
L 303.383183 61.577482 
L 304.338971 70.602864 
L 305.302952 81.885582 
L 306.275427 96.027333 
L 308.247142 127.531226 
L 308.531851 129.049969 
L 308.674499 129.129068 
L 308.817344 128.749518 
L 309.103629 126.741616 
L 309.534563 121.45768 
L 311.717376 90.574256 
L 312.604257 81.675967 
L 313.499422 74.643728 
L 314.403179 69.129749 
L 315.315851 64.873931 
L 316.23778 61.691767 
L 317.013387 59.766069 
L 317.795897 58.443799 
L 318.427031 57.795319 
L 319.062858 57.496364 
L 319.542886 57.496309 
L 320.025684 57.686016 
L 320.673827 58.232905 
L 321.327147 59.117149 
L 322.151309 60.704773 
L 322.984114 62.845364 
L 323.995358 66.182865 
L 325.020145 70.4213 
L 326.059138 75.643998 
L 327.290213 83.102017 
L 328.542846 92.102384 
L 331.494549 114.600802 
L 332.062857 117.076241 
L 332.444518 117.923892 
L 332.636202 118.077429 
L 332.828462 118.046233 
L 333.021305 117.832191 
L 333.408763 116.883325 
L 333.994473 114.344671 
L 334.784135 109.55302 
L 337.84161 89.514847 
L 339.111461 83.018092 
L 340.41118 77.631596 
L 341.518841 73.931314 
L 342.650514 70.886582 
L 343.807977 68.444226 
L 344.753853 66.892981 
L 345.71866 65.677721 
L 346.703671 64.781113 
L 347.710306 64.188065 
L 348.740159 63.885189 
L 349.795022 63.86018 
L 350.876932 64.101109 
L 351.988209 64.595565 
L 353.131525 65.3296 
L 354.610487 66.55801 
L 356.468063 68.428668 
L 363.158984 75.5929 
L 364.78764 76.83198 
L 366.08066 77.55545 
L 367.446728 78.051319 
L 368.90012 78.279543 
L 370.460445 78.210227 
L 372.155942 77.827274 
L 374.029962 77.130427 
L 376.940906 75.741795 
L 380.730758 73.896607 
L 383.408658 72.833095 
L 385.301539 72.27195 
L 389.870085 71.693478 
L 389.870085 71.693478 
" clip-path="url(#p501b90721d)" style="fill: none; stroke: #1f77b4; stroke-width: 1.5; stroke-linecap: square"/>
   </g>
   <g id="line2d_34">
    <path d="M 65.21554 190.432348 
L 74.761338 190.543419 
L 85.833165 190.908648 
L 114.405622 192.14972 
L 119.698021 192.374957 
L 123.237109 192.301685 
L 127.003479 191.989591 
L 133.432281 191.420987 
L 136.192121 191.44677 
L 139.374054 191.717107 
L 144.146953 192.125189 
L 146.582106 192.082219 
L 149.244539 191.799686 
L 153.984969 191.257526 
L 155.96556 191.296427 
L 158.043557 191.569874 
L 164.407423 192.598667 
L 166.290607 192.543142 
L 168.953041 192.208786 
L 171.453131 191.970429 
L 173.206441 192.033986 
L 175.511718 192.372903 
L 177.329966 192.554945 
L 178.433902 192.442775 
L 179.343025 192.128813 
L 180.187211 191.595926 
L 180.998929 190.811479 
L 181.810647 189.708277 
L 182.654833 188.164481 
L 183.531488 186.063642 
L 184.440611 183.262652 
L 185.349735 179.72426 
L 186.291327 175.150767 
L 187.265388 169.277721 
L 188.271918 161.785826 
L 189.343385 152.057371 
L 191.811007 128.66182 
L 192.168162 127.483089 
L 192.362975 127.36176 
L 192.525318 127.552727 
L 192.752599 128.254671 
L 193.109755 130.280207 
L 193.629254 134.734099 
L 194.830596 147.639048 
L 196.161813 160.861353 
L 197.265748 169.658696 
L 198.304747 176.216742 
L 199.278808 181.04133 
L 200.2204 184.64571 
L 201.097055 187.177768 
L 201.908773 188.892767 
L 202.655553 189.992363 
L 203.369864 190.660996 
L 204.019238 190.980463 
L 204.668612 191.060662 
L 205.382924 190.917022 
L 206.22711 190.507064 
L 207.525858 189.59146 
L 209.181762 188.474911 
L 210.090885 188.121095 
L 210.902603 188.032445 
L 211.746789 188.167782 
L 212.785788 188.580166 
L 215.156003 189.606365 
L 215.902783 189.641832 
L 216.552157 189.451774 
L 217.169062 189.03453 
L 217.785968 188.34601 
L 218.435342 187.284669 
L 219.149653 185.662553 
L 219.896433 183.38479 
L 220.675682 180.276038 
L 221.4874 176.104193 
L 222.331586 170.543722 
L 223.175772 163.41475 
L 223.98749 154.600413 
L 224.766739 143.590663 
L 225.48105 130.174492 
L 226.097955 114.395532 
L 226.649923 94.403641 
L 227.136954 68.060217 
L 227.688922 34.414125 
L 227.72139 34.436386 
L 227.818796 37.09306 
L 228.111015 56.812633 
L 228.695451 91.36714 
L 229.279888 113.063998 
L 229.961731 130.311757 
L 230.708511 143.85543 
L 231.552697 155.195831 
L 232.429352 164.094047 
L 233.338476 171.174091 
L 234.280068 176.809049 
L 235.189192 180.984424 
L 236.098315 184.168209 
L 236.97497 186.471238 
L 237.819156 188.10122 
L 238.630874 189.218148 
L 239.442592 189.972639 
L 240.254309 190.435928 
L 241.130964 190.685029 
L 242.169962 190.743937 
L 243.695991 190.583065 
L 246.780518 190.233315 
L 248.761109 190.273786 
L 251.715761 190.592497 
L 258.566657 191.35234 
L 263.761649 191.650117 
L 266.97605 191.972516 
L 269.768359 192.218565 
L 271.002169 192.102573 
L 272.008699 191.792239 
L 272.917823 191.279853 
L 273.794478 190.521618 
L 274.671133 189.449935 
L 275.547788 188.009282 
L 276.456911 186.063215 
L 277.398504 183.488999 
L 278.372565 180.138421 
L 279.379094 175.830619 
L 280.418093 170.345024 
L 281.48956 163.424143 
L 282.625964 154.552191 
L 284.184462 140.342516 
L 285.223461 131.666708 
L 285.74296 128.868544 
L 286.100116 127.93855 
L 286.327396 127.830919 
L 286.522209 128.04505 
L 286.781958 128.755112 
L 287.171583 130.633219 
L 287.723551 134.55529 
L 288.859955 144.684674 
L 290.450921 158.273749 
L 291.652263 166.614196 
L 292.788668 172.968637 
L 293.860135 177.764883 
L 294.899134 181.463702 
L 295.905663 184.276342 
L 296.879724 186.372912 
L 297.821317 187.891893 
L 298.73044 188.947831 
L 299.607095 189.636833 
L 300.48375 190.0513 
L 301.392874 190.24153 
L 302.431872 190.226151 
L 303.73062 189.96971 
L 308.503519 188.808673 
L 309.899674 188.827355 
L 311.360765 189.073008 
L 313.179012 189.61732 
L 318.666223 191.40674 
L 320.614345 191.717462 
L 322.659873 191.811913 
L 325.127495 191.688674 
L 335.452542 190.91275 
L 346.913993 190.614229 
L 363.602906 189.627587 
L 370.323927 189.644282 
L 389.870085 189.923456 
L 389.870085 189.923456 
" clip-path="url(#p501b90721d)" style="fill: none; stroke: #ff0000; stroke-width: 1.5; stroke-linecap: square"/>
   </g>
   <g id="LineCollection_1">
    <path d="M 192.330506 192.605153 
L 192.330506 34.414125 
" clip-path="url(#p501b90721d)" style="fill: none; stroke-dasharray: 5.55,2.4; stroke-dashoffset: 0; stroke: #008000; stroke-width: 1.5"/>
   </g>
   <g id="patch_3">
    <path d="M 48.982813 288.430125 
L 48.982813 22.318125 
" style="fill: none; stroke: #000000; stroke-width: 0.8; stroke-linejoin: miter; stroke-linecap: square"/>
   </g>
   <g id="patch_4">
    <path d="M 406.102813 288.430125 
L 406.102813 22.318125 
" style="fill: none; stroke: #000000; stroke-width: 0.8; stroke-linejoin: miter; stroke-linecap: square"/>
   </g>
   <g id="patch_5">
    <path d="M 48.982813 288.430125 
L 406.102813 288.430125 
" style="fill: none; stroke: #000000; stroke-width: 0.8; stroke-linejoin: miter; stroke-linecap: square"/>
   </g>
   <g id="patch_6">
    <path d="M 48.982813 22.318125 
L 406.102813 22.318125 
" style="fill: none; stroke: #000000; stroke-width: 0.8; stroke-linejoin: miter; stroke-linecap: square"/>
   </g>
   <g id="text_19">
    <!-- Beam Pattern and DOA Results, Without Training -->
    <g transform="translate(81.869375 16.318125) scale(0.12 -0.12)">
     <defs>
      <path id="DejaVuSans-6d" d="M 3328 2828 
Q 3544 3216 3844 3400 
Q 4144 3584 4550 3584 
Q 5097 3584 5394 3201 
Q 5691 2819 5691 2113 
L 5691 0 
L 5113 0 
L 5113 2094 
Q 5113 2597 4934 2840 
Q 4756 3084 4391 3084 
Q 3944 3084 3684 2787 
Q 3425 2491 3425 1978 
L 3425 0 
L 2847 0 
L 2847 2094 
Q 2847 2600 2669 2842 
Q 2491 3084 2119 3084 
Q 1678 3084 1418 2786 
Q 1159 2488 1159 1978 
L 1159 0 
L 581 0 
L 581 3500 
L 1159 3500 
L 1159 2956 
Q 1356 3278 1631 3431 
Q 1906 3584 2284 3584 
Q 2666 3584 2933 3390 
Q 3200 3197 3328 2828 
z
" transform="scale(0.015625)"/>
      <path id="DejaVuSans-50" d="M 1259 4147 
L 1259 2394 
L 2053 2394 
Q 2494 2394 2734 2622 
Q 2975 2850 2975 3272 
Q 2975 3691 2734 3919 
Q 2494 4147 2053 4147 
L 1259 4147 
z
M 628 4666 
L 2053 4666 
Q 2838 4666 3239 4311 
Q 3641 3956 3641 3272 
Q 3641 2581 3239 2228 
Q 2838 1875 2053 1875 
L 1259 1875 
L 1259 0 
L 628 0 
L 628 4666 
z
" transform="scale(0.015625)"/>
      <path id="DejaVuSans-72" d="M 2631 2963 
Q 2534 3019 2420 3045 
Q 2306 3072 2169 3072 
Q 1681 3072 1420 2755 
Q 1159 2438 1159 1844 
L 1159 0 
L 581 0 
L 581 3500 
L 1159 3500 
L 1159 2956 
Q 1341 3275 1631 3429 
Q 1922 3584 2338 3584 
Q 2397 3584 2469 3576 
Q 2541 3569 2628 3553 
L 2631 2963 
z
" transform="scale(0.015625)"/>
      <path id="DejaVuSans-44" d="M 1259 4147 
L 1259 519 
L 2022 519 
Q 2988 519 3436 956 
Q 3884 1394 3884 2338 
Q 3884 3275 3436 3711 
Q 2988 4147 2022 4147 
L 1259 4147 
z
M 628 4666 
L 1925 4666 
Q 3281 4666 3915 4102 
Q 4550 3538 4550 2338 
Q 4550 1131 3912 565 
Q 3275 0 1925 0 
L 628 0 
L 628 4666 
z
" transform="scale(0.015625)"/>
      <path id="DejaVuSans-4f" d="M 2522 4238 
Q 1834 4238 1429 3725 
Q 1025 3213 1025 2328 
Q 1025 1447 1429 934 
Q 1834 422 2522 422 
Q 3209 422 3611 934 
Q 4013 1447 4013 2328 
Q 4013 3213 3611 3725 
Q 3209 4238 2522 4238 
z
M 2522 4750 
Q 3503 4750 4090 4092 
Q 4678 3434 4678 2328 
Q 4678 1225 4090 567 
Q 3503 -91 2522 -91 
Q 1538 -91 948 565 
Q 359 1222 359 2328 
Q 359 3434 948 4092 
Q 1538 4750 2522 4750 
z
" transform="scale(0.015625)"/>
      <path id="DejaVuSans-52" d="M 2841 2188 
Q 3044 2119 3236 1894 
Q 3428 1669 3622 1275 
L 4263 0 
L 3584 0 
L 2988 1197 
Q 2756 1666 2539 1819 
Q 2322 1972 1947 1972 
L 1259 1972 
L 1259 0 
L 628 0 
L 628 4666 
L 2053 4666 
Q 2853 4666 3247 4331 
Q 3641 3997 3641 3322 
Q 3641 2881 3436 2590 
Q 3231 2300 2841 2188 
z
M 1259 4147 
L 1259 2491 
L 2053 2491 
Q 2509 2491 2742 2702 
Q 2975 2913 2975 3322 
Q 2975 3731 2742 3939 
Q 2509 4147 2053 4147 
L 1259 4147 
z
" transform="scale(0.015625)"/>
      <path id="DejaVuSans-73" d="M 2834 3397 
L 2834 2853 
Q 2591 2978 2328 3040 
Q 2066 3103 1784 3103 
Q 1356 3103 1142 2972 
Q 928 2841 928 2578 
Q 928 2378 1081 2264 
Q 1234 2150 1697 2047 
L 1894 2003 
Q 2506 1872 2764 1633 
Q 3022 1394 3022 966 
Q 3022 478 2636 193 
Q 2250 -91 1575 -91 
Q 1294 -91 989 -36 
Q 684 19 347 128 
L 347 722 
Q 666 556 975 473 
Q 1284 391 1588 391 
Q 1994 391 2212 530 
Q 2431 669 2431 922 
Q 2431 1156 2273 1281 
Q 2116 1406 1581 1522 
L 1381 1569 
Q 847 1681 609 1914 
Q 372 2147 372 2553 
Q 372 3047 722 3315 
Q 1072 3584 1716 3584 
Q 2034 3584 2315 3537 
Q 2597 3491 2834 3397 
z
" transform="scale(0.015625)"/>
      <path id="DejaVuSans-2c" d="M 750 794 
L 1409 794 
L 1409 256 
L 897 -744 
L 494 -744 
L 750 256 
L 750 794 
z
" transform="scale(0.015625)"/>
      <path id="DejaVuSans-57" d="M 213 4666 
L 850 4666 
L 1831 722 
L 2809 4666 
L 3519 4666 
L 4500 722 
L 5478 4666 
L 6119 4666 
L 4947 0 
L 4153 0 
L 3169 4050 
L 2175 0 
L 1381 0 
L 213 4666 
z
" transform="scale(0.015625)"/>
      <path id="DejaVuSans-68" d="M 3513 2113 
L 3513 0 
L 2938 0 
L 2938 2094 
Q 2938 2591 2744 2837 
Q 2550 3084 2163 3084 
Q 1697 3084 1428 2787 
Q 1159 2491 1159 1978 
L 1159 0 
L 581 0 
L 581 4863 
L 1159 4863 
L 1159 2956 
Q 1366 3272 1645 3428 
Q 1925 3584 2291 3584 
Q 2894 3584 3203 3211 
Q 3513 2838 3513 2113 
z
" transform="scale(0.015625)"/>
      <path id="DejaVuSans-6f" d="M 1959 3097 
Q 1497 3097 1228 2736 
Q 959 2375 959 1747 
Q 959 1119 1226 758 
Q 1494 397 1959 397 
Q 2419 397 2687 759 
Q 2956 1122 2956 1747 
Q 2956 2369 2687 2733 
Q 2419 3097 1959 3097 
z
M 1959 3584 
Q 2709 3584 3137 3096 
Q 3566 2609 3566 1747 
Q 3566 888 3137 398 
Q 2709 -91 1959 -91 
Q 1206 -91 779 398 
Q 353 888 353 1747 
Q 353 2609 779 3096 
Q 1206 3584 1959 3584 
z
" transform="scale(0.015625)"/>
      <path id="DejaVuSans-54" d="M -19 4666 
L 3928 4666 
L 3928 4134 
L 2272 4134 
L 2272 0 
L 1638 0 
L 1638 4134 
L -19 4134 
L -19 4666 
z
" transform="scale(0.015625)"/>
     </defs>
     <use xlink:href="#DejaVuSans-42"/>
     <use xlink:href="#DejaVuSans-65" x="68.603516"/>
     <use xlink:href="#DejaVuSans-61" x="130.126953"/>
     <use xlink:href="#DejaVuSans-6d" x="191.40625"/>
     <use xlink:href="#DejaVuSans-20" x="288.818359"/>
     <use xlink:href="#DejaVuSans-50" x="320.605469"/>
     <use xlink:href="#DejaVuSans-61" x="376.408203"/>
     <use xlink:href="#DejaVuSans-74" x="437.6875"/>
     <use xlink:href="#DejaVuSans-74" x="476.896484"/>
     <use xlink:href="#DejaVuSans-65" x="516.105469"/>
     <use xlink:href="#DejaVuSans-72" x="577.628906"/>
     <use xlink:href="#DejaVuSans-6e" x="616.992188"/>
     <use xlink:href="#DejaVuSans-20" x="680.371094"/>
     <use xlink:href="#DejaVuSans-61" x="712.158203"/>
     <use xlink:href="#DejaVuSans-6e" x="773.4375"/>
     <use xlink:href="#DejaVuSans-64" x="836.816406"/>
     <use xlink:href="#DejaVuSans-20" x="900.292969"/>
     <use xlink:href="#DejaVuSans-44" x="932.080078"/>
     <use xlink:href="#DejaVuSans-4f" x="1009.082031"/>
     <use xlink:href="#DejaVuSans-41" x="1086.042969"/>
     <use xlink:href="#DejaVuSans-20" x="1154.451172"/>
     <use xlink:href="#DejaVuSans-52" x="1186.238281"/>
     <use xlink:href="#DejaVuSans-65" x="1251.220703"/>
     <use xlink:href="#DejaVuSans-73" x="1312.744141"/>
     <use xlink:href="#DejaVuSans-75" x="1364.84375"/>
     <use xlink:href="#DejaVuSans-6c" x="1428.222656"/>
     <use xlink:href="#DejaVuSans-74" x="1456.005859"/>
     <use xlink:href="#DejaVuSans-73" x="1495.214844"/>
     <use xlink:href="#DejaVuSans-2c" x="1547.314453"/>
     <use xlink:href="#DejaVuSans-20" x="1579.101562"/>
     <use xlink:href="#DejaVuSans-57" x="1610.888672"/>
     <use xlink:href="#DejaVuSans-69" x="1707.515625"/>
     <use xlink:href="#DejaVuSans-74" x="1735.298828"/>
     <use xlink:href="#DejaVuSans-68" x="1774.507812"/>
     <use xlink:href="#DejaVuSans-6f" x="1837.886719"/>
     <use xlink:href="#DejaVuSans-75" x="1899.068359"/>
     <use xlink:href="#DejaVuSans-74" x="1962.447266"/>
     <use xlink:href="#DejaVuSans-20" x="2001.65625"/>
     <use xlink:href="#DejaVuSans-54" x="2033.443359"/>
     <use xlink:href="#DejaVuSans-72" x="2079.777344"/>
     <use xlink:href="#DejaVuSans-61" x="2120.890625"/>
     <use xlink:href="#DejaVuSans-69" x="2182.169922"/>
     <use xlink:href="#DejaVuSans-6e" x="2209.953125"/>
     <use xlink:href="#DejaVuSans-69" x="2273.332031"/>
     <use xlink:href="#DejaVuSans-6e" x="2301.115234"/>
     <use xlink:href="#DejaVuSans-67" x="2364.494141"/>
    </g>
   </g>
  </g>
 </g>
 <defs>
  <clipPath id="p501b90721d">
   <rect x="48.982813" y="22.318125" width="357.12" height="266.112"/>
  </clipPath>
 </defs>
</svg>
