<?xml version="1.0" encoding="utf-8" standalone="no"?>
<!DOCTYPE svg PUBLIC "-//W3C//DTD SVG 1.1//EN"
  "http://www.w3.org/Graphics/SVG/1.1/DTD/svg11.dtd">
<svg xmlns:xlink="http://www.w3.org/1999/xlink" width="413.302812pt" height="325.986375pt" viewBox="0 0 413.302812 325.986375" xmlns="http://www.w3.org/2000/svg" version="1.1">
 <metadata>
  <rdf:RDF xmlns:dc="http://purl.org/dc/elements/1.1/" xmlns:cc="http://creativecommons.org/ns#" xmlns:rdf="http://www.w3.org/1999/02/22-rdf-syntax-ns#">
   <cc:Work>
    <dc:type rdf:resource="http://purl.org/dc/dcmitype/StillImage"/>
    <dc:date>2024-05-03T21:52:08.046720</dc:date>
    <dc:format>image/svg+xml</dc:format>
    <dc:creator>
     <cc:Agent>
      <dc:title>Matplotlib v3.8.0, https://matplotlib.org/</dc:title>
     </cc:Agent>
    </dc:creator>
   </cc:Work>
  </rdf:RDF>
 </metadata>
 <defs>
  <style type="text/css">*{stroke-linejoin: round; stroke-linecap: butt}</style>
 </defs>
 <g id="figure_1">
  <g id="patch_1">
   <path d="M 0 325.986375 
L 413.302812 325.986375 
L 413.302812 0 
L 0 0 
z
" style="fill: #ffffff"/>
  </g>
  <g id="axes_1">
   <g id="patch_2">
    <path d="M 48.982813 288.430125 
L 406.102813 288.430125 
L 406.102813 22.318125 
L 48.982813 22.318125 
z
" style="fill: #ffffff"/>
   </g>
   <g id="matplotlib.axis_1">
    <g id="xtick_1">
     <g id="line2d_1">
      <path d="M 92.270085 288.430125 
L 92.270085 22.318125 
" clip-path="url(#p4bc87475ca)" style="fill: none; stroke: #b0b0b0; stroke-width: 0.8; stroke-linecap: square"/>
     </g>
     <g id="line2d_2">
      <defs>
       <path id="m9550eaa165" d="M 0 0 
L 0 3.5 
" style="stroke: #000000; stroke-width: 0.8"/>
      </defs>
      <g>
       <use xlink:href="#m9550eaa165" x="92.270085" y="288.430125" style="stroke: #000000; stroke-width: 0.8"/>
      </g>
     </g>
     <g id="text_1">
      <!-- −75 -->
      <g transform="translate(81.717741 303.028562) scale(0.1 -0.1)">
       <defs>
        <path id="DejaVuSans-2212" d="M 678 2272 
L 4684 2272 
L 4684 1741 
L 678 1741 
L 678 2272 
z
" transform="scale(0.015625)"/>
        <path id="DejaVuSans-37" d="M 525 4666 
L 3525 4666 
L 3525 4397 
L 1831 0 
L 1172 0 
L 2766 4134 
L 525 4134 
L 525 4666 
z
" transform="scale(0.015625)"/>
        <path id="DejaVuSans-35" d="M 691 4666 
L 3169 4666 
L 3169 4134 
L 1269 4134 
L 1269 2991 
Q 1406 3038 1543 3061 
Q 1681 3084 1819 3084 
Q 2600 3084 3056 2656 
Q 3513 2228 3513 1497 
Q 3513 744 3044 326 
Q 2575 -91 1722 -91 
Q 1428 -91 1123 -41 
Q 819 9 494 109 
L 494 744 
Q 775 591 1075 516 
Q 1375 441 1709 441 
Q 2250 441 2565 725 
Q 2881 1009 2881 1497 
Q 2881 1984 2565 2268 
Q 2250 2553 1709 2553 
Q 1456 2553 1204 2497 
Q 953 2441 691 2322 
L 691 4666 
z
" transform="scale(0.015625)"/>
       </defs>
       <use xlink:href="#DejaVuSans-2212"/>
       <use xlink:href="#DejaVuSans-37" x="83.789062"/>
       <use xlink:href="#DejaVuSans-35" x="147.412109"/>
      </g>
     </g>
    </g>
    <g id="xtick_2">
     <g id="line2d_3">
      <path d="M 137.360994 288.430125 
L 137.360994 22.318125 
" clip-path="url(#p4bc87475ca)" style="fill: none; stroke: #b0b0b0; stroke-width: 0.8; stroke-linecap: square"/>
     </g>
     <g id="line2d_4">
      <g>
       <use xlink:href="#m9550eaa165" x="137.360994" y="288.430125" style="stroke: #000000; stroke-width: 0.8"/>
      </g>
     </g>
     <g id="text_2">
      <!-- −50 -->
      <g transform="translate(126.808651 303.028562) scale(0.1 -0.1)">
       <defs>
        <path id="DejaVuSans-30" d="M 2034 4250 
Q 1547 4250 1301 3770 
Q 1056 3291 1056 2328 
Q 1056 1369 1301 889 
Q 1547 409 2034 409 
Q 2525 409 2770 889 
Q 3016 1369 3016 2328 
Q 3016 3291 2770 3770 
Q 2525 4250 2034 4250 
z
M 2034 4750 
Q 2819 4750 3233 4129 
Q 3647 3509 3647 2328 
Q 3647 1150 3233 529 
Q 2819 -91 2034 -91 
Q 1250 -91 836 529 
Q 422 1150 422 2328 
Q 422 3509 836 4129 
Q 1250 4750 2034 4750 
z
" transform="scale(0.015625)"/>
       </defs>
       <use xlink:href="#DejaVuSans-2212"/>
       <use xlink:href="#DejaVuSans-35" x="83.789062"/>
       <use xlink:href="#DejaVuSans-30" x="147.412109"/>
      </g>
     </g>
    </g>
    <g id="xtick_3">
     <g id="line2d_5">
      <path d="M 182.451903 288.430125 
L 182.451903 22.318125 
" clip-path="url(#p4bc87475ca)" style="fill: none; stroke: #b0b0b0; stroke-width: 0.8; stroke-linecap: square"/>
     </g>
     <g id="line2d_6">
      <g>
       <use xlink:href="#m9550eaa165" x="182.451903" y="288.430125" style="stroke: #000000; stroke-width: 0.8"/>
      </g>
     </g>
     <g id="text_3">
      <!-- −25 -->
      <g transform="translate(171.89956 303.028562) scale(0.1 -0.1)">
       <defs>
        <path id="DejaVuSans-32" d="M 1228 531 
L 3431 531 
L 3431 0 
L 469 0 
L 469 531 
Q 828 903 1448 1529 
Q 2069 2156 2228 2338 
Q 2531 2678 2651 2914 
Q 2772 3150 2772 3378 
Q 2772 3750 2511 3984 
Q 2250 4219 1831 4219 
Q 1534 4219 1204 4116 
Q 875 4013 500 3803 
L 500 4441 
Q 881 4594 1212 4672 
Q 1544 4750 1819 4750 
Q 2544 4750 2975 4387 
Q 3406 4025 3406 3419 
Q 3406 3131 3298 2873 
Q 3191 2616 2906 2266 
Q 2828 2175 2409 1742 
Q 1991 1309 1228 531 
z
" transform="scale(0.015625)"/>
       </defs>
       <use xlink:href="#DejaVuSans-2212"/>
       <use xlink:href="#DejaVuSans-32" x="83.789062"/>
       <use xlink:href="#DejaVuSans-35" x="147.412109"/>
      </g>
     </g>
    </g>
    <g id="xtick_4">
     <g id="line2d_7">
      <path d="M 227.542813 288.430125 
L 227.542813 22.318125 
" clip-path="url(#p4bc87475ca)" style="fill: none; stroke: #b0b0b0; stroke-width: 0.8; stroke-linecap: square"/>
     </g>
     <g id="line2d_8">
      <g>
       <use xlink:href="#m9550eaa165" x="227.542813" y="288.430125" style="stroke: #000000; stroke-width: 0.8"/>
      </g>
     </g>
     <g id="text_4">
      <!-- 0 -->
      <g transform="translate(224.361563 303.028562) scale(0.1 -0.1)">
       <use xlink:href="#DejaVuSans-30"/>
      </g>
     </g>
    </g>
    <g id="xtick_5">
     <g id="line2d_9">
      <path d="M 272.633722 288.430125 
L 272.633722 22.318125 
" clip-path="url(#p4bc87475ca)" style="fill: none; stroke: #b0b0b0; stroke-width: 0.8; stroke-linecap: square"/>
     </g>
     <g id="line2d_10">
      <g>
       <use xlink:href="#m9550eaa165" x="272.633722" y="288.430125" style="stroke: #000000; stroke-width: 0.8"/>
      </g>
     </g>
     <g id="text_5">
      <!-- 25 -->
      <g transform="translate(266.271222 303.028562) scale(0.1 -0.1)">
       <use xlink:href="#DejaVuSans-32"/>
       <use xlink:href="#DejaVuSans-35" x="63.623047"/>
      </g>
     </g>
    </g>
    <g id="xtick_6">
     <g id="line2d_11">
      <path d="M 317.724631 288.430125 
L 317.724631 22.318125 
" clip-path="url(#p4bc87475ca)" style="fill: none; stroke: #b0b0b0; stroke-width: 0.8; stroke-linecap: square"/>
     </g>
     <g id="line2d_12">
      <g>
       <use xlink:href="#m9550eaa165" x="317.724631" y="288.430125" style="stroke: #000000; stroke-width: 0.8"/>
      </g>
     </g>
     <g id="text_6">
      <!-- 50 -->
      <g transform="translate(311.362131 303.028562) scale(0.1 -0.1)">
       <use xlink:href="#DejaVuSans-35"/>
       <use xlink:href="#DejaVuSans-30" x="63.623047"/>
      </g>
     </g>
    </g>
    <g id="xtick_7">
     <g id="line2d_13">
      <path d="M 362.81554 288.430125 
L 362.81554 22.318125 
" clip-path="url(#p4bc87475ca)" style="fill: none; stroke: #b0b0b0; stroke-width: 0.8; stroke-linecap: square"/>
     </g>
     <g id="line2d_14">
      <g>
       <use xlink:href="#m9550eaa165" x="362.81554" y="288.430125" style="stroke: #000000; stroke-width: 0.8"/>
      </g>
     </g>
     <g id="text_7">
      <!-- 75 -->
      <g transform="translate(356.45304 303.028562) scale(0.1 -0.1)">
       <use xlink:href="#DejaVuSans-37"/>
       <use xlink:href="#DejaVuSans-35" x="63.623047"/>
      </g>
     </g>
    </g>
    <g id="text_8">
     <!-- Angle [deg] -->
     <g transform="translate(198.398281 316.706687) scale(0.1 -0.1)">
      <defs>
       <path id="DejaVuSans-41" d="M 2188 4044 
L 1331 1722 
L 3047 1722 
L 2188 4044 
z
M 1831 4666 
L 2547 4666 
L 4325 0 
L 3669 0 
L 3244 1197 
L 1141 1197 
L 716 0 
L 50 0 
L 1831 4666 
z
" transform="scale(0.015625)"/>
       <path id="DejaVuSans-6e" d="M 3513 2113 
L 3513 0 
L 2938 0 
L 2938 2094 
Q 2938 2591 2744 2837 
Q 2550 3084 2163 3084 
Q 1697 3084 1428 2787 
Q 1159 2491 1159 1978 
L 1159 0 
L 581 0 
L 581 3500 
L 1159 3500 
L 1159 2956 
Q 1366 3272 1645 3428 
Q 1925 3584 2291 3584 
Q 2894 3584 3203 3211 
Q 3513 2838 3513 2113 
z
" transform="scale(0.015625)"/>
       <path id="DejaVuSans-67" d="M 2906 1791 
Q 2906 2416 2648 2759 
Q 2391 3103 1925 3103 
Q 1463 3103 1205 2759 
Q 947 2416 947 1791 
Q 947 1169 1205 825 
Q 1463 481 1925 481 
Q 2391 481 2648 825 
Q 2906 1169 2906 1791 
z
M 3481 434 
Q 3481 -459 3084 -895 
Q 2688 -1331 1869 -1331 
Q 1566 -1331 1297 -1286 
Q 1028 -1241 775 -1147 
L 775 -588 
Q 1028 -725 1275 -790 
Q 1522 -856 1778 -856 
Q 2344 -856 2625 -561 
Q 2906 -266 2906 331 
L 2906 616 
Q 2728 306 2450 153 
Q 2172 0 1784 0 
Q 1141 0 747 490 
Q 353 981 353 1791 
Q 353 2603 747 3093 
Q 1141 3584 1784 3584 
Q 2172 3584 2450 3431 
Q 2728 3278 2906 2969 
L 2906 3500 
L 3481 3500 
L 3481 434 
z
" transform="scale(0.015625)"/>
       <path id="DejaVuSans-6c" d="M 603 4863 
L 1178 4863 
L 1178 0 
L 603 0 
L 603 4863 
z
" transform="scale(0.015625)"/>
       <path id="DejaVuSans-65" d="M 3597 1894 
L 3597 1613 
L 953 1613 
Q 991 1019 1311 708 
Q 1631 397 2203 397 
Q 2534 397 2845 478 
Q 3156 559 3463 722 
L 3463 178 
Q 3153 47 2828 -22 
Q 2503 -91 2169 -91 
Q 1331 -91 842 396 
Q 353 884 353 1716 
Q 353 2575 817 3079 
Q 1281 3584 2069 3584 
Q 2775 3584 3186 3129 
Q 3597 2675 3597 1894 
z
M 3022 2063 
Q 3016 2534 2758 2815 
Q 2500 3097 2075 3097 
Q 1594 3097 1305 2825 
Q 1016 2553 972 2059 
L 3022 2063 
z
" transform="scale(0.015625)"/>
       <path id="DejaVuSans-20" transform="scale(0.015625)"/>
       <path id="DejaVuSans-5b" d="M 550 4863 
L 1875 4863 
L 1875 4416 
L 1125 4416 
L 1125 -397 
L 1875 -397 
L 1875 -844 
L 550 -844 
L 550 4863 
z
" transform="scale(0.015625)"/>
       <path id="DejaVuSans-64" d="M 2906 2969 
L 2906 4863 
L 3481 4863 
L 3481 0 
L 2906 0 
L 2906 525 
Q 2725 213 2448 61 
Q 2172 -91 1784 -91 
Q 1150 -91 751 415 
Q 353 922 353 1747 
Q 353 2572 751 3078 
Q 1150 3584 1784 3584 
Q 2172 3584 2448 3432 
Q 2725 3281 2906 2969 
z
M 947 1747 
Q 947 1113 1208 752 
Q 1469 391 1925 391 
Q 2381 391 2643 752 
Q 2906 1113 2906 1747 
Q 2906 2381 2643 2742 
Q 2381 3103 1925 3103 
Q 1469 3103 1208 2742 
Q 947 2381 947 1747 
z
" transform="scale(0.015625)"/>
       <path id="DejaVuSans-5d" d="M 1947 4863 
L 1947 -844 
L 622 -844 
L 622 -397 
L 1369 -397 
L 1369 4416 
L 622 4416 
L 622 4863 
L 1947 4863 
z
" transform="scale(0.015625)"/>
      </defs>
      <use xlink:href="#DejaVuSans-41"/>
      <use xlink:href="#DejaVuSans-6e" x="68.408203"/>
      <use xlink:href="#DejaVuSans-67" x="131.787109"/>
      <use xlink:href="#DejaVuSans-6c" x="195.263672"/>
      <use xlink:href="#DejaVuSans-65" x="223.046875"/>
      <use xlink:href="#DejaVuSans-20" x="284.570312"/>
      <use xlink:href="#DejaVuSans-5b" x="316.357422"/>
      <use xlink:href="#DejaVuSans-64" x="355.371094"/>
      <use xlink:href="#DejaVuSans-65" x="418.847656"/>
      <use xlink:href="#DejaVuSans-67" x="480.371094"/>
      <use xlink:href="#DejaVuSans-5d" x="543.847656"/>
     </g>
    </g>
   </g>
   <g id="matplotlib.axis_2">
    <g id="ytick_1">
     <g id="line2d_15">
      <path d="M 48.982813 256.44398 
L 406.102813 256.44398 
" clip-path="url(#p4bc87475ca)" style="fill: none; stroke: #b0b0b0; stroke-width: 0.8; stroke-linecap: square"/>
     </g>
     <g id="line2d_16">
      <defs>
       <path id="m8b63ad24f9" d="M 0 0 
L -3.5 0 
" style="stroke: #000000; stroke-width: 0.8"/>
      </defs>
      <g>
       <use xlink:href="#m8b63ad24f9" x="48.982813" y="256.44398" style="stroke: #000000; stroke-width: 0.8"/>
      </g>
     </g>
     <g id="text_9">
      <!-- −50 -->
      <g transform="translate(20.878125 260.243199) scale(0.1 -0.1)">
       <use xlink:href="#DejaVuSans-2212"/>
       <use xlink:href="#DejaVuSans-35" x="83.789062"/>
       <use xlink:href="#DejaVuSans-30" x="147.412109"/>
      </g>
     </g>
    </g>
    <g id="ytick_2">
     <g id="line2d_17">
      <path d="M 48.982813 212.038009 
L 406.102813 212.038009 
" clip-path="url(#p4bc87475ca)" style="fill: none; stroke: #b0b0b0; stroke-width: 0.8; stroke-linecap: square"/>
     </g>
     <g id="line2d_18">
      <g>
       <use xlink:href="#m8b63ad24f9" x="48.982813" y="212.038009" style="stroke: #000000; stroke-width: 0.8"/>
      </g>
     </g>
     <g id="text_10">
      <!-- −40 -->
      <g transform="translate(20.878125 215.837228) scale(0.1 -0.1)">
       <defs>
        <path id="DejaVuSans-34" d="M 2419 4116 
L 825 1625 
L 2419 1625 
L 2419 4116 
z
M 2253 4666 
L 3047 4666 
L 3047 1625 
L 3713 1625 
L 3713 1100 
L 3047 1100 
L 3047 0 
L 2419 0 
L 2419 1100 
L 313 1100 
L 313 1709 
L 2253 4666 
z
" transform="scale(0.015625)"/>
       </defs>
       <use xlink:href="#DejaVuSans-2212"/>
       <use xlink:href="#DejaVuSans-34" x="83.789062"/>
       <use xlink:href="#DejaVuSans-30" x="147.412109"/>
      </g>
     </g>
    </g>
    <g id="ytick_3">
     <g id="line2d_19">
      <path d="M 48.982813 167.632038 
L 406.102813 167.632038 
" clip-path="url(#p4bc87475ca)" style="fill: none; stroke: #b0b0b0; stroke-width: 0.8; stroke-linecap: square"/>
     </g>
     <g id="line2d_20">
      <g>
       <use xlink:href="#m8b63ad24f9" x="48.982813" y="167.632038" style="stroke: #000000; stroke-width: 0.8"/>
      </g>
     </g>
     <g id="text_11">
      <!-- −30 -->
      <g transform="translate(20.878125 171.431257) scale(0.1 -0.1)">
       <defs>
        <path id="DejaVuSans-33" d="M 2597 2516 
Q 3050 2419 3304 2112 
Q 3559 1806 3559 1356 
Q 3559 666 3084 287 
Q 2609 -91 1734 -91 
Q 1441 -91 1130 -33 
Q 819 25 488 141 
L 488 750 
Q 750 597 1062 519 
Q 1375 441 1716 441 
Q 2309 441 2620 675 
Q 2931 909 2931 1356 
Q 2931 1769 2642 2001 
Q 2353 2234 1838 2234 
L 1294 2234 
L 1294 2753 
L 1863 2753 
Q 2328 2753 2575 2939 
Q 2822 3125 2822 3475 
Q 2822 3834 2567 4026 
Q 2313 4219 1838 4219 
Q 1578 4219 1281 4162 
Q 984 4106 628 3988 
L 628 4550 
Q 988 4650 1302 4700 
Q 1616 4750 1894 4750 
Q 2613 4750 3031 4423 
Q 3450 4097 3450 3541 
Q 3450 3153 3228 2886 
Q 3006 2619 2597 2516 
z
" transform="scale(0.015625)"/>
       </defs>
       <use xlink:href="#DejaVuSans-2212"/>
       <use xlink:href="#DejaVuSans-33" x="83.789062"/>
       <use xlink:href="#DejaVuSans-30" x="147.412109"/>
      </g>
     </g>
    </g>
    <g id="ytick_4">
     <g id="line2d_21">
      <path d="M 48.982813 123.226067 
L 406.102813 123.226067 
" clip-path="url(#p4bc87475ca)" style="fill: none; stroke: #b0b0b0; stroke-width: 0.8; stroke-linecap: square"/>
     </g>
     <g id="line2d_22">
      <g>
       <use xlink:href="#m8b63ad24f9" x="48.982813" y="123.226067" style="stroke: #000000; stroke-width: 0.8"/>
      </g>
     </g>
     <g id="text_12">
      <!-- −20 -->
      <g transform="translate(20.878125 127.025286) scale(0.1 -0.1)">
       <use xlink:href="#DejaVuSans-2212"/>
       <use xlink:href="#DejaVuSans-32" x="83.789062"/>
       <use xlink:href="#DejaVuSans-30" x="147.412109"/>
      </g>
     </g>
    </g>
    <g id="ytick_5">
     <g id="line2d_23">
      <path d="M 48.982813 78.820096 
L 406.102813 78.820096 
" clip-path="url(#p4bc87475ca)" style="fill: none; stroke: #b0b0b0; stroke-width: 0.8; stroke-linecap: square"/>
     </g>
     <g id="line2d_24">
      <g>
       <use xlink:href="#m8b63ad24f9" x="48.982813" y="78.820096" style="stroke: #000000; stroke-width: 0.8"/>
      </g>
     </g>
     <g id="text_13">
      <!-- −10 -->
      <g transform="translate(20.878125 82.619315) scale(0.1 -0.1)">
       <defs>
        <path id="DejaVuSans-31" d="M 794 531 
L 1825 531 
L 1825 4091 
L 703 3866 
L 703 4441 
L 1819 4666 
L 2450 4666 
L 2450 531 
L 3481 531 
L 3481 0 
L 794 0 
L 794 531 
z
" transform="scale(0.015625)"/>
       </defs>
       <use xlink:href="#DejaVuSans-2212"/>
       <use xlink:href="#DejaVuSans-31" x="83.789062"/>
       <use xlink:href="#DejaVuSans-30" x="147.412109"/>
      </g>
     </g>
    </g>
    <g id="ytick_6">
     <g id="line2d_25">
      <path d="M 48.982813 34.414125 
L 406.102813 34.414125 
" clip-path="url(#p4bc87475ca)" style="fill: none; stroke: #b0b0b0; stroke-width: 0.8; stroke-linecap: square"/>
     </g>
     <g id="line2d_26">
      <g>
       <use xlink:href="#m8b63ad24f9" x="48.982813" y="34.414125" style="stroke: #000000; stroke-width: 0.8"/>
      </g>
     </g>
     <g id="text_14">
      <!-- 0 -->
      <g transform="translate(35.620313 38.213344) scale(0.1 -0.1)">
       <use xlink:href="#DejaVuSans-30"/>
      </g>
     </g>
    </g>
    <g id="text_15">
     <!-- Magnitude [dB] -->
     <g transform="translate(14.798438 193.959281) rotate(-90) scale(0.1 -0.1)">
      <defs>
       <path id="DejaVuSans-4d" d="M 628 4666 
L 1569 4666 
L 2759 1491 
L 3956 4666 
L 4897 4666 
L 4897 0 
L 4281 0 
L 4281 4097 
L 3078 897 
L 2444 897 
L 1241 4097 
L 1241 0 
L 628 0 
L 628 4666 
z
" transform="scale(0.015625)"/>
       <path id="DejaVuSans-61" d="M 2194 1759 
Q 1497 1759 1228 1600 
Q 959 1441 959 1056 
Q 959 750 1161 570 
Q 1363 391 1709 391 
Q 2188 391 2477 730 
Q 2766 1069 2766 1631 
L 2766 1759 
L 2194 1759 
z
M 3341 1997 
L 3341 0 
L 2766 0 
L 2766 531 
Q 2569 213 2275 61 
Q 1981 -91 1556 -91 
Q 1019 -91 701 211 
Q 384 513 384 1019 
Q 384 1609 779 1909 
Q 1175 2209 1959 2209 
L 2766 2209 
L 2766 2266 
Q 2766 2663 2505 2880 
Q 2244 3097 1772 3097 
Q 1472 3097 1187 3025 
Q 903 2953 641 2809 
L 641 3341 
Q 956 3463 1253 3523 
Q 1550 3584 1831 3584 
Q 2591 3584 2966 3190 
Q 3341 2797 3341 1997 
z
" transform="scale(0.015625)"/>
       <path id="DejaVuSans-69" d="M 603 3500 
L 1178 3500 
L 1178 0 
L 603 0 
L 603 3500 
z
M 603 4863 
L 1178 4863 
L 1178 4134 
L 603 4134 
L 603 4863 
z
" transform="scale(0.015625)"/>
       <path id="DejaVuSans-74" d="M 1172 4494 
L 1172 3500 
L 2356 3500 
L 2356 3053 
L 1172 3053 
L 1172 1153 
Q 1172 725 1289 603 
Q 1406 481 1766 481 
L 2356 481 
L 2356 0 
L 1766 0 
Q 1100 0 847 248 
Q 594 497 594 1153 
L 594 3053 
L 172 3053 
L 172 3500 
L 594 3500 
L 594 4494 
L 1172 4494 
z
" transform="scale(0.015625)"/>
       <path id="DejaVuSans-75" d="M 544 1381 
L 544 3500 
L 1119 3500 
L 1119 1403 
Q 1119 906 1312 657 
Q 1506 409 1894 409 
Q 2359 409 2629 706 
Q 2900 1003 2900 1516 
L 2900 3500 
L 3475 3500 
L 3475 0 
L 2900 0 
L 2900 538 
Q 2691 219 2414 64 
Q 2138 -91 1772 -91 
Q 1169 -91 856 284 
Q 544 659 544 1381 
z
M 1991 3584 
L 1991 3584 
z
" transform="scale(0.015625)"/>
       <path id="DejaVuSans-42" d="M 1259 2228 
L 1259 519 
L 2272 519 
Q 2781 519 3026 730 
Q 3272 941 3272 1375 
Q 3272 1813 3026 2020 
Q 2781 2228 2272 2228 
L 1259 2228 
z
M 1259 4147 
L 1259 2741 
L 2194 2741 
Q 2656 2741 2882 2914 
Q 3109 3088 3109 3444 
Q 3109 3797 2882 3972 
Q 2656 4147 2194 4147 
L 1259 4147 
z
M 628 4666 
L 2241 4666 
Q 2963 4666 3353 4366 
Q 3744 4066 3744 3513 
Q 3744 3084 3544 2831 
Q 3344 2578 2956 2516 
Q 3422 2416 3680 2098 
Q 3938 1781 3938 1306 
Q 3938 681 3513 340 
Q 3088 0 2303 0 
L 628 0 
L 628 4666 
z
" transform="scale(0.015625)"/>
      </defs>
      <use xlink:href="#DejaVuSans-4d"/>
      <use xlink:href="#DejaVuSans-61" x="86.279297"/>
      <use xlink:href="#DejaVuSans-67" x="147.558594"/>
      <use xlink:href="#DejaVuSans-6e" x="211.035156"/>
      <use xlink:href="#DejaVuSans-69" x="274.414062"/>
      <use xlink:href="#DejaVuSans-74" x="302.197266"/>
      <use xlink:href="#DejaVuSans-75" x="341.40625"/>
      <use xlink:href="#DejaVuSans-64" x="404.785156"/>
      <use xlink:href="#DejaVuSans-65" x="468.261719"/>
      <use xlink:href="#DejaVuSans-20" x="529.785156"/>
      <use xlink:href="#DejaVuSans-5b" x="561.572266"/>
      <use xlink:href="#DejaVuSans-64" x="600.585938"/>
      <use xlink:href="#DejaVuSans-42" x="664.0625"/>
      <use xlink:href="#DejaVuSans-5d" x="732.666016"/>
     </g>
    </g>
   </g>
   <g id="line2d_27">
    <path d="M 65.21554 104.528105 
L 69.784086 104.758425 
L 73.129784 105.251762 
L 75.434452 105.788052 
L 78.144719 106.671065 
L 80.380063 107.645091 
L 82.327627 108.705506 
L 84.62518 110.243321 
L 86.680745 111.905312 
L 89.004965 114.117867 
L 91.52873 116.877441 
L 97.321731 123.441118 
L 98.617562 124.554444 
L 99.866602 125.355838 
L 101.073745 125.834656 
L 102.243094 126.011489 
L 103.378128 125.934679 
L 104.753167 125.585852 
L 109.122659 124.173063 
L 110.092392 124.14838 
L 111.042889 124.341886 
L 111.975327 124.792007 
L 112.890771 125.535377 
L 113.790183 126.609299 
L 114.674445 128.054298 
L 115.544357 129.916861 
L 116.400655 132.252492 
L 117.244015 135.129111 
L 118.075061 138.630331 
L 119.097424 144.039374 
L 120.102474 150.787373 
L 121.287 160.652566 
L 122.449423 170.225901 
L 122.83222 172.019016 
L 123.022768 172.410071 
L 123.212756 172.41483 
L 123.40219 172.02322 
L 123.779418 170.131275 
L 124.341239 165.250462 
L 127.261286 135.706663 
L 128.32558 127.797828 
L 129.547803 120.444099 
L 130.750208 114.68734 
L 131.765895 110.793542 
L 132.768457 107.725429 
L 133.758478 105.398028 
L 134.574313 103.983912 
L 135.382117 103.026377 
L 136.022767 102.582524 
L 136.658594 102.424266 
L 137.289728 102.554932 
L 137.916295 102.981893 
L 138.538416 103.717042 
L 139.156205 104.777558 
L 139.922519 106.597534 
L 140.682446 109.028467 
L 141.436182 112.164508 
L 142.183915 116.1442 
L 142.925826 121.17848 
L 143.662085 127.606359 
L 144.392855 136.018967 
L 144.973626 144.925554 
L 145.551062 157.073885 
L 145.981996 170.027961 
L 146.411126 190.119473 
L 146.696226 213.825224 
L 146.838483 234.898945 
L 146.980546 276.334125 
L 147.687991 186.277389 
L 148.110199 167.295032 
L 148.670562 151.256201 
L 149.366956 137.781366 
L 150.19683 126.455199 
L 151.020559 118.168138 
L 151.97406 110.959687 
L 152.919732 105.63048 
L 153.724279 102.220503 
L 154.523431 99.705686 
L 155.185381 98.220072 
L 155.843778 97.24943 
L 156.367993 96.828821 
L 156.890027 96.718464 
L 157.280147 96.838627 
L 157.798462 97.271718 
L 158.314705 98.022876 
L 158.957152 99.425829 
L 159.596491 101.373136 
L 160.359691 104.486297 
L 161.11863 108.527173 
L 161.998818 114.514014 
L 163.122459 124.022482 
L 164.113922 132.078116 
L 164.483992 133.816736 
L 164.730192 134.267941 
L 164.853138 134.253323 
L 165.098728 133.736814 
L 165.466359 131.849197 
L 165.955145 127.832086 
L 168.496214 104.31923 
L 169.453654 98.206324 
L 170.286851 94.180822 
L 171.115912 91.261629 
L 171.82333 89.572579 
L 172.410638 88.710815 
L 172.879067 88.369901 
L 173.346259 88.335339 
L 173.812233 88.605767 
L 174.277006 89.180269 
L 174.856314 90.321936 
L 175.549097 92.288539 
L 176.468857 95.747907 
L 177.726385 100.627605 
L 178.181677 101.605646 
L 178.408934 101.759551 
L 178.635934 101.640105 
L 178.862679 101.223029 
L 179.202322 100.023884 
L 179.654305 97.432739 
L 180.330436 91.99632 
L 183.679544 62.651053 
L 184.89514 54.779184 
L 185.994815 48.972608 
L 187.089537 44.291488 
L 188.179492 40.611549 
L 189.156527 38.078191 
L 190.021989 36.403439 
L 190.777014 35.362759 
L 191.529994 34.706043 
L 192.173821 34.442893 
L 192.709253 34.432909 
L 193.243714 34.612732 
L 193.883814 35.079932 
L 194.522578 35.82416 
L 195.266157 37.049281 
L 196.113853 38.934811 
L 196.959373 41.362475 
L 197.908071 44.785195 
L 198.854208 49.005139 
L 199.902588 54.739286 
L 200.948061 61.733425 
L 201.990757 70.193348 
L 203.134669 81.417486 
L 205.723418 108.489677 
L 206.136287 110.111945 
L 206.342591 110.366437 
L 206.54881 110.276912 
L 206.857979 109.598011 
L 207.269913 107.975049 
L 209.427387 98.228624 
L 210.042303 96.743007 
L 210.554255 96.067089 
L 210.963513 95.889554 
L 211.270285 95.965489 
L 211.679089 96.343134 
L 212.087643 97.035881 
L 212.597994 98.34803 
L 213.209932 100.592725 
L 213.923223 104.184841 
L 214.635862 108.922076 
L 215.449553 115.936655 
L 216.262492 124.956081 
L 217.176214 137.761973 
L 218.393259 155.027262 
L 218.697315 156.897622 
L 218.899976 157.116089 
L 219.102604 156.542001 
L 219.406485 154.507143 
L 220.115271 147.341873 
L 221.026058 138.897964 
L 221.734094 134.442334 
L 222.239665 132.417412 
L 222.64403 131.459312 
L 222.947254 131.117171 
L 223.250438 131.09602 
L 223.553586 131.399344 
L 223.856699 132.036011 
L 224.260801 133.430841 
L 224.765858 136.139377 
L 225.270849 140.106872 
L 225.775786 145.676545 
L 226.280681 153.481367 
L 226.785546 164.8314 
L 227.189424 178.566053 
L 227.492328 194.516592 
L 227.795233 223.20431 
L 227.99717 262.091887 
L 228.098139 258.96488 
L 228.40105 208.309542 
L 228.804944 179.493749 
L 229.309839 159.513322 
L 229.915769 144.081808 
L 230.622793 131.604937 
L 231.430998 121.370203 
L 232.239441 113.845204 
L 233.048172 108.23322 
L 233.857241 104.10426 
L 234.565493 101.507387 
L 235.274075 99.747518 
L 235.88172 98.854607 
L 236.38831 98.524884 
L 236.793735 98.526537 
L 237.199304 98.762624 
L 237.706474 99.389072 
L 238.213891 100.390288 
L 238.823133 102.104717 
L 239.534414 104.857554 
L 240.246267 108.502769 
L 241.060557 113.92736 
L 241.875693 120.974841 
L 242.691727 130.082122 
L 243.508714 141.810936 
L 245.145764 166.762816 
L 245.3507 167.078434 
L 245.555707 166.196923 
L 245.863353 163.122838 
L 248.021638 136.137938 
L 248.743034 130.806285 
L 249.465479 127.020366 
L 250.085584 124.780461 
L 250.706514 123.318893 
L 251.224606 122.612372 
L 251.639515 122.338519 
L 252.05482 122.29044 
L 252.574521 122.497668 
L 253.199016 123.04073 
L 255.078361 124.932499 
L 255.49724 125.010915 
L 255.91659 124.839668 
L 256.33642 124.387199 
L 256.861895 123.417913 
L 257.493497 121.723739 
L 258.443071 118.438749 
L 260.775822 110.092071 
L 261.735134 107.538595 
L 262.483381 106.074268 
L 263.126253 105.210153 
L 263.663077 104.775242 
L 264.200919 104.60508 
L 264.7398 104.704108 
L 265.279741 105.076783 
L 265.820762 105.728038 
L 266.471444 106.88539 
L 267.23263 108.768902 
L 267.996088 111.247887 
L 268.871475 114.841537 
L 269.860051 119.891434 
L 270.963309 126.746162 
L 272.739606 139.562011 
L 273.745041 146.04827 
L 274.305642 148.560405 
L 274.755189 149.763151 
L 275.09298 150.170783 
L 275.318479 150.222107 
L 275.657187 150.011445 
L 276.109669 149.312643 
L 276.903948 147.476031 
L 278.044157 144.888081 
L 278.731496 143.872276 
L 279.191095 143.513722 
L 279.651813 143.437207 
L 280.113668 143.657319 
L 280.576676 144.184113 
L 281.157087 145.284198 
L 281.739366 146.881101 
L 282.440616 149.445555 
L 283.379996 153.855922 
L 285.274373 163.226415 
L 285.751343 164.354371 
L 285.99035 164.524639 
L 286.229708 164.401659 
L 286.469421 163.980862 
L 286.82966 162.820377 
L 287.311246 160.446004 
L 288.157571 154.928463 
L 290.109642 141.84843 
L 291.218936 135.89513 
L 292.336728 131.100408 
L 293.337723 127.69363 
L 294.345939 124.961416 
L 295.361633 122.779231 
L 296.513563 120.835451 
L 297.805478 119.133611 
L 299.241847 117.622651 
L 300.961106 116.135675 
L 302.57024 115.007056 
L 303.928361 114.316747 
L 305.026676 114.006924 
L 305.996692 113.970703 
L 306.835061 114.151698 
L 307.680042 114.558749 
L 308.531851 115.218358 
L 309.390716 116.153621 
L 310.401962 117.616682 
L 311.42354 119.493075 
L 312.604257 122.126117 
L 314.251943 126.401885 
L 316.083467 131.083512 
L 317.013387 132.856954 
L 317.638832 133.623633 
L 318.110885 133.926534 
L 318.585543 133.975427 
L 319.062858 133.766604 
L 319.542886 133.311054 
L 320.187242 132.363097 
L 320.99983 130.750716 
L 322.649934 126.807234 
L 324.335417 122.925838 
L 325.537822 120.665111 
L 326.584184 119.15312 
L 327.46781 118.234228 
L 328.362528 117.648751 
L 329.086622 117.432739 
L 329.818405 117.450821 
L 330.558164 117.712491 
L 331.306207 118.228293 
L 332.062857 119.010276 
L 333.021305 120.383499 
L 333.994473 122.226478 
L 334.983151 124.576175 
L 336.191257 128.120362 
L 337.424584 132.506617 
L 338.897806 138.652664 
L 341.295442 148.893273 
L 341.968534 150.88211 
L 342.422176 151.730814 
L 342.879883 152.102223 
L 343.110298 152.092526 
L 343.341774 151.949138 
L 343.807977 151.268831 
L 344.278623 150.103747 
L 344.993233 147.620326 
L 346.208555 142.297524 
L 348.740159 130.984509 
L 350.332458 125.00959 
L 351.707497 120.665763 
L 353.131525 116.883994 
L 354.610487 113.625661 
L 356.151623 110.848892 
L 357.435246 108.94818 
L 358.769988 107.313728 
L 360.162745 105.930625 
L 361.622104 104.78613 
L 363.158984 103.869459 
L 364.78764 103.171546 
L 366.52728 102.684807 
L 368.40488 102.402911 
L 370.460445 102.320561 
L 372.757998 102.433261 
L 376.155499 102.842475 
L 385.301539 104.100583 
L 389.870085 104.308797 
L 389.870085 104.308797 
" clip-path="url(#p4bc87475ca)" style="fill: none; stroke: #1f77b4; stroke-width: 1.5; stroke-linecap: square"/>
   </g>
   <g id="line2d_28">
    <path d="M 65.21554 151.460852 
L 76.254898 151.571741 
L 91.255438 151.978116 
L 114.340685 152.74615 
L 120.314926 152.920695 
L 124.373514 152.809339 
L 129.893193 152.394703 
L 133.951781 152.19323 
L 137.133713 152.265863 
L 146.71198 152.692104 
L 149.926382 152.414468 
L 154.082376 152.077451 
L 156.355185 152.134881 
L 158.887743 152.435397 
L 163.72558 153.060137 
L 165.900983 153.065788 
L 168.660822 152.82448 
L 171.680412 152.611482 
L 173.72594 152.706905 
L 178.044277 153.020205 
L 179.148213 152.799426 
L 180.089805 152.39018 
L 180.998929 151.74528 
L 181.875584 150.839903 
L 182.752239 149.604164 
L 183.661363 147.913967 
L 184.570486 145.738699 
L 185.512079 142.888472 
L 186.48614 139.189375 
L 187.460201 134.591991 
L 188.46673 128.744894 
L 189.570666 120.95711 
L 191.648663 105.798875 
L 192.070756 104.387362 
L 192.330506 104.139794 
L 192.492849 104.243315 
L 192.72013 104.716742 
L 193.044817 106.001455 
L 193.531848 108.973575 
L 194.505909 116.693932 
L 196.031938 128.400238 
L 197.135874 135.176441 
L 198.174872 140.244055 
L 199.181402 144.093103 
L 200.122994 146.873197 
L 201.032118 148.897395 
L 201.876304 150.26246 
L 202.655553 151.13077 
L 203.402333 151.649037 
L 204.149113 151.89759 
L 204.928362 151.912189 
L 205.805017 151.691026 
L 206.97389 151.139003 
L 209.506449 149.876158 
L 210.48051 149.674111 
L 211.422102 149.703797 
L 212.493569 149.969429 
L 215.545627 150.877313 
L 216.324876 150.795171 
L 217.039188 150.49401 
L 217.72103 149.960492 
L 218.435342 149.099425 
L 219.182122 147.817913 
L 219.961371 146.001898 
L 220.773088 143.506031 
L 221.617274 140.135593 
L 222.461461 135.801561 
L 223.305647 130.242731 
L 224.117365 123.352494 
L 224.864145 115.113279 
L 225.545987 105.175099 
L 226.162893 92.921472 
L 226.714861 77.228617 
L 227.201891 56.345753 
L 227.688922 34.414125 
L 227.72139 34.430825 
L 227.818796 36.423894 
L 228.111015 51.217752 
L 228.695451 77.140954 
L 229.279888 93.418195 
L 229.961731 106.357669 
L 230.708511 116.518293 
L 231.552697 125.025998 
L 232.429352 131.701545 
L 233.338476 137.013078 
L 234.280068 141.240491 
L 235.22166 144.470092 
L 236.130784 146.834797 
L 237.039908 148.597555 
L 237.916563 149.828799 
L 238.793218 150.683129 
L 239.669872 151.233116 
L 240.611465 151.560125 
L 241.682932 151.692803 
L 243.144024 151.631643 
L 247.689642 151.305615 
L 250.319607 151.452965 
L 261.164153 152.272833 
L 266.651363 152.585452 
L 270.060577 152.795519 
L 271.391794 152.644395 
L 272.49573 152.298563 
L 273.469791 151.763755 
L 274.411383 150.989001 
L 275.320507 149.952216 
L 276.262099 148.527494 
L 277.203691 146.689381 
L 278.177752 144.28651 
L 279.184282 141.186671 
L 280.223281 137.228234 
L 281.294748 132.219684 
L 282.431152 125.768055 
L 283.827306 116.3901 
L 285.190992 107.540391 
L 285.74296 105.274954 
L 286.100116 104.577261 
L 286.327396 104.496515 
L 286.522209 104.657159 
L 286.781958 105.189856 
L 287.171583 106.598834 
L 287.756019 109.738949 
L 288.957361 117.809872 
L 290.48339 127.521589 
L 291.684732 133.743311 
L 292.821137 138.480514 
L 293.925073 142.150493 
L 294.99654 144.960195 
L 296.035538 147.077482 
L 297.042068 148.637122 
L 298.016129 149.748702 
L 298.957721 150.502929 
L 299.931782 151.00133 
L 300.938312 151.266829 
L 302.074717 151.327808 
L 303.470871 151.163388 
L 309.152894 150.228392 
L 310.776329 150.348458 
L 312.691982 150.726239 
L 319.73769 152.341162 
L 322.010499 152.490753 
L 324.672933 152.430798 
L 337.692882 151.804795 
L 345.550308 151.659464 
L 353.602546 151.21232 
L 360.972941 150.901855 
L 367.888774 150.848877 
L 382.986721 151.04364 
L 389.870085 151.079075 
L 389.870085 151.079075 
" clip-path="url(#p4bc87475ca)" style="fill: none; stroke: #ff0000; stroke-width: 1.5; stroke-linecap: square"/>
   </g>
   <g id="LineCollection_1">
    <path d="M 192.330506 153.090916 
L 192.330506 34.414125 
" clip-path="url(#p4bc87475ca)" style="fill: none; stroke-dasharray: 5.55,2.4; stroke-dashoffset: 0; stroke: #008000; stroke-width: 1.5"/>
   </g>
   <g id="patch_3">
    <path d="M 48.982813 288.430125 
L 48.982813 22.318125 
" style="fill: none; stroke: #000000; stroke-width: 0.8; stroke-linejoin: miter; stroke-linecap: square"/>
   </g>
   <g id="patch_4">
    <path d="M 406.102813 288.430125 
L 406.102813 22.318125 
" style="fill: none; stroke: #000000; stroke-width: 0.8; stroke-linejoin: miter; stroke-linecap: square"/>
   </g>
   <g id="patch_5">
    <path d="M 48.982813 288.430125 
L 406.102813 288.430125 
" style="fill: none; stroke: #000000; stroke-width: 0.8; stroke-linejoin: miter; stroke-linecap: square"/>
   </g>
   <g id="patch_6">
    <path d="M 48.982813 22.318125 
L 406.102813 22.318125 
" style="fill: none; stroke: #000000; stroke-width: 0.8; stroke-linejoin: miter; stroke-linecap: square"/>
   </g>
   <g id="text_16">
    <!-- Beam Pattern and DOA Results, With Training -->
    <g transform="translate(91.695313 16.318125) scale(0.12 -0.12)">
     <defs>
      <path id="DejaVuSans-6d" d="M 3328 2828 
Q 3544 3216 3844 3400 
Q 4144 3584 4550 3584 
Q 5097 3584 5394 3201 
Q 5691 2819 5691 2113 
L 5691 0 
L 5113 0 
L 5113 2094 
Q 5113 2597 4934 2840 
Q 4756 3084 4391 3084 
Q 3944 3084 3684 2787 
Q 3425 2491 3425 1978 
L 3425 0 
L 2847 0 
L 2847 2094 
Q 2847 2600 2669 2842 
Q 2491 3084 2119 3084 
Q 1678 3084 1418 2786 
Q 1159 2488 1159 1978 
L 1159 0 
L 581 0 
L 581 3500 
L 1159 3500 
L 1159 2956 
Q 1356 3278 1631 3431 
Q 1906 3584 2284 3584 
Q 2666 3584 2933 3390 
Q 3200 3197 3328 2828 
z
" transform="scale(0.015625)"/>
      <path id="DejaVuSans-50" d="M 1259 4147 
L 1259 2394 
L 2053 2394 
Q 2494 2394 2734 2622 
Q 2975 2850 2975 3272 
Q 2975 3691 2734 3919 
Q 2494 4147 2053 4147 
L 1259 4147 
z
M 628 4666 
L 2053 4666 
Q 2838 4666 3239 4311 
Q 3641 3956 3641 3272 
Q 3641 2581 3239 2228 
Q 2838 1875 2053 1875 
L 1259 1875 
L 1259 0 
L 628 0 
L 628 4666 
z
" transform="scale(0.015625)"/>
      <path id="DejaVuSans-72" d="M 2631 2963 
Q 2534 3019 2420 3045 
Q 2306 3072 2169 3072 
Q 1681 3072 1420 2755 
Q 1159 2438 1159 1844 
L 1159 0 
L 581 0 
L 581 3500 
L 1159 3500 
L 1159 2956 
Q 1341 3275 1631 3429 
Q 1922 3584 2338 3584 
Q 2397 3584 2469 3576 
Q 2541 3569 2628 3553 
L 2631 2963 
z
" transform="scale(0.015625)"/>
      <path id="DejaVuSans-44" d="M 1259 4147 
L 1259 519 
L 2022 519 
Q 2988 519 3436 956 
Q 3884 1394 3884 2338 
Q 3884 3275 3436 3711 
Q 2988 4147 2022 4147 
L 1259 4147 
z
M 628 4666 
L 1925 4666 
Q 3281 4666 3915 4102 
Q 4550 3538 4550 2338 
Q 4550 1131 3912 565 
Q 3275 0 1925 0 
L 628 0 
L 628 4666 
z
" transform="scale(0.015625)"/>
      <path id="DejaVuSans-4f" d="M 2522 4238 
Q 1834 4238 1429 3725 
Q 1025 3213 1025 2328 
Q 1025 1447 1429 934 
Q 1834 422 2522 422 
Q 3209 422 3611 934 
Q 4013 1447 4013 2328 
Q 4013 3213 3611 3725 
Q 3209 4238 2522 4238 
z
M 2522 4750 
Q 3503 4750 4090 4092 
Q 4678 3434 4678 2328 
Q 4678 1225 4090 567 
Q 3503 -91 2522 -91 
Q 1538 -91 948 565 
Q 359 1222 359 2328 
Q 359 3434 948 4092 
Q 1538 4750 2522 4750 
z
" transform="scale(0.015625)"/>
      <path id="DejaVuSans-52" d="M 2841 2188 
Q 3044 2119 3236 1894 
Q 3428 1669 3622 1275 
L 4263 0 
L 3584 0 
L 2988 1197 
Q 2756 1666 2539 1819 
Q 2322 1972 1947 1972 
L 1259 1972 
L 1259 0 
L 628 0 
L 628 4666 
L 2053 4666 
Q 2853 4666 3247 4331 
Q 3641 3997 3641 3322 
Q 3641 2881 3436 2590 
Q 3231 2300 2841 2188 
z
M 1259 4147 
L 1259 2491 
L 2053 2491 
Q 2509 2491 2742 2702 
Q 2975 2913 2975 3322 
Q 2975 3731 2742 3939 
Q 2509 4147 2053 4147 
L 1259 4147 
z
" transform="scale(0.015625)"/>
      <path id="DejaVuSans-73" d="M 2834 3397 
L 2834 2853 
Q 2591 2978 2328 3040 
Q 2066 3103 1784 3103 
Q 1356 3103 1142 2972 
Q 928 2841 928 2578 
Q 928 2378 1081 2264 
Q 1234 2150 1697 2047 
L 1894 2003 
Q 2506 1872 2764 1633 
Q 3022 1394 3022 966 
Q 3022 478 2636 193 
Q 2250 -91 1575 -91 
Q 1294 -91 989 -36 
Q 684 19 347 128 
L 347 722 
Q 666 556 975 473 
Q 1284 391 1588 391 
Q 1994 391 2212 530 
Q 2431 669 2431 922 
Q 2431 1156 2273 1281 
Q 2116 1406 1581 1522 
L 1381 1569 
Q 847 1681 609 1914 
Q 372 2147 372 2553 
Q 372 3047 722 3315 
Q 1072 3584 1716 3584 
Q 2034 3584 2315 3537 
Q 2597 3491 2834 3397 
z
" transform="scale(0.015625)"/>
      <path id="DejaVuSans-2c" d="M 750 794 
L 1409 794 
L 1409 256 
L 897 -744 
L 494 -744 
L 750 256 
L 750 794 
z
" transform="scale(0.015625)"/>
      <path id="DejaVuSans-57" d="M 213 4666 
L 850 4666 
L 1831 722 
L 2809 4666 
L 3519 4666 
L 4500 722 
L 5478 4666 
L 6119 4666 
L 4947 0 
L 4153 0 
L 3169 4050 
L 2175 0 
L 1381 0 
L 213 4666 
z
" transform="scale(0.015625)"/>
      <path id="DejaVuSans-68" d="M 3513 2113 
L 3513 0 
L 2938 0 
L 2938 2094 
Q 2938 2591 2744 2837 
Q 2550 3084 2163 3084 
Q 1697 3084 1428 2787 
Q 1159 2491 1159 1978 
L 1159 0 
L 581 0 
L 581 4863 
L 1159 4863 
L 1159 2956 
Q 1366 3272 1645 3428 
Q 1925 3584 2291 3584 
Q 2894 3584 3203 3211 
Q 3513 2838 3513 2113 
z
" transform="scale(0.015625)"/>
      <path id="DejaVuSans-54" d="M -19 4666 
L 3928 4666 
L 3928 4134 
L 2272 4134 
L 2272 0 
L 1638 0 
L 1638 4134 
L -19 4134 
L -19 4666 
z
" transform="scale(0.015625)"/>
     </defs>
     <use xlink:href="#DejaVuSans-42"/>
     <use xlink:href="#DejaVuSans-65" x="68.603516"/>
     <use xlink:href="#DejaVuSans-61" x="130.126953"/>
     <use xlink:href="#DejaVuSans-6d" x="191.40625"/>
     <use xlink:href="#DejaVuSans-20" x="288.818359"/>
     <use xlink:href="#DejaVuSans-50" x="320.605469"/>
     <use xlink:href="#DejaVuSans-61" x="376.408203"/>
     <use xlink:href="#DejaVuSans-74" x="437.6875"/>
     <use xlink:href="#DejaVuSans-74" x="476.896484"/>
     <use xlink:href="#DejaVuSans-65" x="516.105469"/>
     <use xlink:href="#DejaVuSans-72" x="577.628906"/>
     <use xlink:href="#DejaVuSans-6e" x="616.992188"/>
     <use xlink:href="#DejaVuSans-20" x="680.371094"/>
     <use xlink:href="#DejaVuSans-61" x="712.158203"/>
     <use xlink:href="#DejaVuSans-6e" x="773.4375"/>
     <use xlink:href="#DejaVuSans-64" x="836.816406"/>
     <use xlink:href="#DejaVuSans-20" x="900.292969"/>
     <use xlink:href="#DejaVuSans-44" x="932.080078"/>
     <use xlink:href="#DejaVuSans-4f" x="1009.082031"/>
     <use xlink:href="#DejaVuSans-41" x="1086.042969"/>
     <use xlink:href="#DejaVuSans-20" x="1154.451172"/>
     <use xlink:href="#DejaVuSans-52" x="1186.238281"/>
     <use xlink:href="#DejaVuSans-65" x="1251.220703"/>
     <use xlink:href="#DejaVuSans-73" x="1312.744141"/>
     <use xlink:href="#DejaVuSans-75" x="1364.84375"/>
     <use xlink:href="#DejaVuSans-6c" x="1428.222656"/>
     <use xlink:href="#DejaVuSans-74" x="1456.005859"/>
     <use xlink:href="#DejaVuSans-73" x="1495.214844"/>
     <use xlink:href="#DejaVuSans-2c" x="1547.314453"/>
     <use xlink:href="#DejaVuSans-20" x="1579.101562"/>
     <use xlink:href="#DejaVuSans-57" x="1610.888672"/>
     <use xlink:href="#DejaVuSans-69" x="1707.515625"/>
     <use xlink:href="#DejaVuSans-74" x="1735.298828"/>
     <use xlink:href="#DejaVuSans-68" x="1774.507812"/>
     <use xlink:href="#DejaVuSans-20" x="1837.886719"/>
     <use xlink:href="#DejaVuSans-54" x="1869.673828"/>
     <use xlink:href="#DejaVuSans-72" x="1916.007812"/>
     <use xlink:href="#DejaVuSans-61" x="1957.121094"/>
     <use xlink:href="#DejaVuSans-69" x="2018.400391"/>
     <use xlink:href="#DejaVuSans-6e" x="2046.183594"/>
     <use xlink:href="#DejaVuSans-69" x="2109.5625"/>
     <use xlink:href="#DejaVuSans-6e" x="2137.345703"/>
     <use xlink:href="#DejaVuSans-67" x="2200.724609"/>
    </g>
   </g>
  </g>
 </g>
 <defs>
  <clipPath id="p4bc87475ca">
   <rect x="48.982813" y="22.318125" width="357.12" height="266.112"/>
  </clipPath>
 </defs>
</svg>
