<?xml version="1.0" encoding="utf-8" standalone="no"?>
<!DOCTYPE svg PUBLIC "-//W3C//DTD SVG 1.1//EN"
  "http://www.w3.org/Graphics/SVG/1.1/DTD/svg11.dtd">
<svg xmlns:xlink="http://www.w3.org/1999/xlink" width="618.054062pt" height="385.066719pt" viewBox="0 0 618.054062 385.066719" xmlns="http://www.w3.org/2000/svg" version="1.1">
 <metadata>
  <rdf:RDF xmlns:dc="http://purl.org/dc/elements/1.1/" xmlns:cc="http://creativecommons.org/ns#" xmlns:rdf="http://www.w3.org/1999/02/22-rdf-syntax-ns#">
   <cc:Work>
    <dc:type rdf:resource="http://purl.org/dc/dcmitype/StillImage"/>
    <dc:date>2025-04-12T01:01:17.276957</dc:date>
    <dc:format>image/svg+xml</dc:format>
    <dc:creator>
     <cc:Agent>
      <dc:title>Matplotlib v3.10.1, https://matplotlib.org/</dc:title>
     </cc:Agent>
    </dc:creator>
   </cc:Work>
  </rdf:RDF>
 </metadata>
 <defs>
  <style type="text/css">*{stroke-linejoin: round; stroke-linecap: butt}</style>
 </defs>
 <g id="figure_1">
  <g id="patch_1">
   <path d="M 0 385.066719 
L 618.054062 385.066719 
L 618.054062 0 
L 0 0 
z
" style="fill: #ffffff"/>
  </g>
  <g id="axes_1">
   <g id="patch_2">
    <path d="M 52.854063 343.639219 
L 610.854063 343.639219 
L 610.854063 10.999219 
L 52.854063 10.999219 
z
" style="fill: #ffffff"/>
   </g>
   <g id="matplotlib.axis_1">
    <g id="xtick_1">
     <g id="line2d_1">
      <path d="M 83.854062 343.639219 
L 83.854062 10.999219 
" clip-path="url(#p392a7b9d55)" style="fill: none; stroke: #b0b0b0; stroke-width: 0.8; stroke-linecap: square"/>
     </g>
     <g id="line2d_2">
      <defs>
       <path id="m581671e043" d="M 0 0 
L 0 3.5 
" style="stroke: #000000; stroke-width: 0.8"/>
      </defs>
      <g>
       <use xlink:href="#m581671e043" x="83.854062" y="343.639219" style="stroke: #000000; stroke-width: 0.8"/>
      </g>
     </g>
     <g id="text_1">
      <!-- −80 -->
      <g transform="translate(73.301719 358.237656) scale(0.1 -0.1)">
       <defs>
        <path id="DejaVuSans-2212" d="M 678 2272 
L 4684 2272 
L 4684 1741 
L 678 1741 
L 678 2272 
z
" transform="scale(0.015625)"/>
        <path id="DejaVuSans-38" d="M 2034 2216 
Q 1584 2216 1326 1975 
Q 1069 1734 1069 1313 
Q 1069 891 1326 650 
Q 1584 409 2034 409 
Q 2484 409 2743 651 
Q 3003 894 3003 1313 
Q 3003 1734 2745 1975 
Q 2488 2216 2034 2216 
z
M 1403 2484 
Q 997 2584 770 2862 
Q 544 3141 544 3541 
Q 544 4100 942 4425 
Q 1341 4750 2034 4750 
Q 2731 4750 3128 4425 
Q 3525 4100 3525 3541 
Q 3525 3141 3298 2862 
Q 3072 2584 2669 2484 
Q 3125 2378 3379 2068 
Q 3634 1759 3634 1313 
Q 3634 634 3220 271 
Q 2806 -91 2034 -91 
Q 1263 -91 848 271 
Q 434 634 434 1313 
Q 434 1759 690 2068 
Q 947 2378 1403 2484 
z
M 1172 3481 
Q 1172 3119 1398 2916 
Q 1625 2713 2034 2713 
Q 2441 2713 2670 2916 
Q 2900 3119 2900 3481 
Q 2900 3844 2670 4047 
Q 2441 4250 2034 4250 
Q 1625 4250 1398 4047 
Q 1172 3844 1172 3481 
z
" transform="scale(0.015625)"/>
        <path id="DejaVuSans-30" d="M 2034 4250 
Q 1547 4250 1301 3770 
Q 1056 3291 1056 2328 
Q 1056 1369 1301 889 
Q 1547 409 2034 409 
Q 2525 409 2770 889 
Q 3016 1369 3016 2328 
Q 3016 3291 2770 3770 
Q 2525 4250 2034 4250 
z
M 2034 4750 
Q 2819 4750 3233 4129 
Q 3647 3509 3647 2328 
Q 3647 1150 3233 529 
Q 2819 -91 2034 -91 
Q 1250 -91 836 529 
Q 422 1150 422 2328 
Q 422 3509 836 4129 
Q 1250 4750 2034 4750 
z
" transform="scale(0.015625)"/>
       </defs>
       <use xlink:href="#DejaVuSans-2212"/>
       <use xlink:href="#DejaVuSans-38" transform="translate(83.789062 0)"/>
       <use xlink:href="#DejaVuSans-30" transform="translate(147.412109 0)"/>
      </g>
     </g>
    </g>
    <g id="xtick_2">
     <g id="line2d_3">
      <path d="M 145.854062 343.639219 
L 145.854062 10.999219 
" clip-path="url(#p392a7b9d55)" style="fill: none; stroke: #b0b0b0; stroke-width: 0.8; stroke-linecap: square"/>
     </g>
     <g id="line2d_4">
      <g>
       <use xlink:href="#m581671e043" x="145.854062" y="343.639219" style="stroke: #000000; stroke-width: 0.8"/>
      </g>
     </g>
     <g id="text_2">
      <!-- −60 -->
      <g transform="translate(135.301719 358.237656) scale(0.1 -0.1)">
       <defs>
        <path id="DejaVuSans-36" d="M 2113 2584 
Q 1688 2584 1439 2293 
Q 1191 2003 1191 1497 
Q 1191 994 1439 701 
Q 1688 409 2113 409 
Q 2538 409 2786 701 
Q 3034 994 3034 1497 
Q 3034 2003 2786 2293 
Q 2538 2584 2113 2584 
z
M 3366 4563 
L 3366 3988 
Q 3128 4100 2886 4159 
Q 2644 4219 2406 4219 
Q 1781 4219 1451 3797 
Q 1122 3375 1075 2522 
Q 1259 2794 1537 2939 
Q 1816 3084 2150 3084 
Q 2853 3084 3261 2657 
Q 3669 2231 3669 1497 
Q 3669 778 3244 343 
Q 2819 -91 2113 -91 
Q 1303 -91 875 529 
Q 447 1150 447 2328 
Q 447 3434 972 4092 
Q 1497 4750 2381 4750 
Q 2619 4750 2861 4703 
Q 3103 4656 3366 4563 
z
" transform="scale(0.015625)"/>
       </defs>
       <use xlink:href="#DejaVuSans-2212"/>
       <use xlink:href="#DejaVuSans-36" transform="translate(83.789062 0)"/>
       <use xlink:href="#DejaVuSans-30" transform="translate(147.412109 0)"/>
      </g>
     </g>
    </g>
    <g id="xtick_3">
     <g id="line2d_5">
      <path d="M 207.854062 343.639219 
L 207.854062 10.999219 
" clip-path="url(#p392a7b9d55)" style="fill: none; stroke: #b0b0b0; stroke-width: 0.8; stroke-linecap: square"/>
     </g>
     <g id="line2d_6">
      <g>
       <use xlink:href="#m581671e043" x="207.854062" y="343.639219" style="stroke: #000000; stroke-width: 0.8"/>
      </g>
     </g>
     <g id="text_3">
      <!-- −40 -->
      <g transform="translate(197.301719 358.237656) scale(0.1 -0.1)">
       <defs>
        <path id="DejaVuSans-34" d="M 2419 4116 
L 825 1625 
L 2419 1625 
L 2419 4116 
z
M 2253 4666 
L 3047 4666 
L 3047 1625 
L 3713 1625 
L 3713 1100 
L 3047 1100 
L 3047 0 
L 2419 0 
L 2419 1100 
L 313 1100 
L 313 1709 
L 2253 4666 
z
" transform="scale(0.015625)"/>
       </defs>
       <use xlink:href="#DejaVuSans-2212"/>
       <use xlink:href="#DejaVuSans-34" transform="translate(83.789062 0)"/>
       <use xlink:href="#DejaVuSans-30" transform="translate(147.412109 0)"/>
      </g>
     </g>
    </g>
    <g id="xtick_4">
     <g id="line2d_7">
      <path d="M 269.854062 343.639219 
L 269.854062 10.999219 
" clip-path="url(#p392a7b9d55)" style="fill: none; stroke: #b0b0b0; stroke-width: 0.8; stroke-linecap: square"/>
     </g>
     <g id="line2d_8">
      <g>
       <use xlink:href="#m581671e043" x="269.854062" y="343.639219" style="stroke: #000000; stroke-width: 0.8"/>
      </g>
     </g>
     <g id="text_4">
      <!-- −20 -->
      <g transform="translate(259.301719 358.237656) scale(0.1 -0.1)">
       <defs>
        <path id="DejaVuSans-32" d="M 1228 531 
L 3431 531 
L 3431 0 
L 469 0 
L 469 531 
Q 828 903 1448 1529 
Q 2069 2156 2228 2338 
Q 2531 2678 2651 2914 
Q 2772 3150 2772 3378 
Q 2772 3750 2511 3984 
Q 2250 4219 1831 4219 
Q 1534 4219 1204 4116 
Q 875 4013 500 3803 
L 500 4441 
Q 881 4594 1212 4672 
Q 1544 4750 1819 4750 
Q 2544 4750 2975 4387 
Q 3406 4025 3406 3419 
Q 3406 3131 3298 2873 
Q 3191 2616 2906 2266 
Q 2828 2175 2409 1742 
Q 1991 1309 1228 531 
z
" transform="scale(0.015625)"/>
       </defs>
       <use xlink:href="#DejaVuSans-2212"/>
       <use xlink:href="#DejaVuSans-32" transform="translate(83.789062 0)"/>
       <use xlink:href="#DejaVuSans-30" transform="translate(147.412109 0)"/>
      </g>
     </g>
    </g>
    <g id="xtick_5">
     <g id="line2d_9">
      <path d="M 331.854062 343.639219 
L 331.854062 10.999219 
" clip-path="url(#p392a7b9d55)" style="fill: none; stroke: #b0b0b0; stroke-width: 0.8; stroke-linecap: square"/>
     </g>
     <g id="line2d_10">
      <g>
       <use xlink:href="#m581671e043" x="331.854062" y="343.639219" style="stroke: #000000; stroke-width: 0.8"/>
      </g>
     </g>
     <g id="text_5">
      <!-- 0 -->
      <g transform="translate(328.672813 358.237656) scale(0.1 -0.1)">
       <use xlink:href="#DejaVuSans-30"/>
      </g>
     </g>
    </g>
    <g id="xtick_6">
     <g id="line2d_11">
      <path d="M 393.854062 343.639219 
L 393.854062 10.999219 
" clip-path="url(#p392a7b9d55)" style="fill: none; stroke: #b0b0b0; stroke-width: 0.8; stroke-linecap: square"/>
     </g>
     <g id="line2d_12">
      <g>
       <use xlink:href="#m581671e043" x="393.854062" y="343.639219" style="stroke: #000000; stroke-width: 0.8"/>
      </g>
     </g>
     <g id="text_6">
      <!-- 20 -->
      <g transform="translate(387.491562 358.237656) scale(0.1 -0.1)">
       <use xlink:href="#DejaVuSans-32"/>
       <use xlink:href="#DejaVuSans-30" transform="translate(63.623047 0)"/>
      </g>
     </g>
    </g>
    <g id="xtick_7">
     <g id="line2d_13">
      <path d="M 455.854062 343.639219 
L 455.854062 10.999219 
" clip-path="url(#p392a7b9d55)" style="fill: none; stroke: #b0b0b0; stroke-width: 0.8; stroke-linecap: square"/>
     </g>
     <g id="line2d_14">
      <g>
       <use xlink:href="#m581671e043" x="455.854062" y="343.639219" style="stroke: #000000; stroke-width: 0.8"/>
      </g>
     </g>
     <g id="text_7">
      <!-- 40 -->
      <g transform="translate(449.491562 358.237656) scale(0.1 -0.1)">
       <use xlink:href="#DejaVuSans-34"/>
       <use xlink:href="#DejaVuSans-30" transform="translate(63.623047 0)"/>
      </g>
     </g>
    </g>
    <g id="xtick_8">
     <g id="line2d_15">
      <path d="M 517.854063 343.639219 
L 517.854063 10.999219 
" clip-path="url(#p392a7b9d55)" style="fill: none; stroke: #b0b0b0; stroke-width: 0.8; stroke-linecap: square"/>
     </g>
     <g id="line2d_16">
      <g>
       <use xlink:href="#m581671e043" x="517.854063" y="343.639219" style="stroke: #000000; stroke-width: 0.8"/>
      </g>
     </g>
     <g id="text_8">
      <!-- 60 -->
      <g transform="translate(511.491563 358.237656) scale(0.1 -0.1)">
       <use xlink:href="#DejaVuSans-36"/>
       <use xlink:href="#DejaVuSans-30" transform="translate(63.623047 0)"/>
      </g>
     </g>
    </g>
    <g id="xtick_9">
     <g id="line2d_17">
      <path d="M 579.854063 343.639219 
L 579.854063 10.999219 
" clip-path="url(#p392a7b9d55)" style="fill: none; stroke: #b0b0b0; stroke-width: 0.8; stroke-linecap: square"/>
     </g>
     <g id="line2d_18">
      <g>
       <use xlink:href="#m581671e043" x="579.854063" y="343.639219" style="stroke: #000000; stroke-width: 0.8"/>
      </g>
     </g>
     <g id="text_9">
      <!-- 80 -->
      <g transform="translate(573.491563 358.237656) scale(0.1 -0.1)">
       <use xlink:href="#DejaVuSans-38"/>
       <use xlink:href="#DejaVuSans-30" transform="translate(63.623047 0)"/>
      </g>
     </g>
    </g>
    <g id="text_10">
     <!-- Azimuth angle (deg) -->
     <g transform="translate(260.483594 374.955156) scale(0.14 -0.14)">
      <defs>
       <path id="DejaVuSans-41" d="M 2188 4044 
L 1331 1722 
L 3047 1722 
L 2188 4044 
z
M 1831 4666 
L 2547 4666 
L 4325 0 
L 3669 0 
L 3244 1197 
L 1141 1197 
L 716 0 
L 50 0 
L 1831 4666 
z
" transform="scale(0.015625)"/>
       <path id="DejaVuSans-7a" d="M 353 3500 
L 3084 3500 
L 3084 2975 
L 922 459 
L 3084 459 
L 3084 0 
L 275 0 
L 275 525 
L 2438 3041 
L 353 3041 
L 353 3500 
z
" transform="scale(0.015625)"/>
       <path id="DejaVuSans-69" d="M 603 3500 
L 1178 3500 
L 1178 0 
L 603 0 
L 603 3500 
z
M 603 4863 
L 1178 4863 
L 1178 4134 
L 603 4134 
L 603 4863 
z
" transform="scale(0.015625)"/>
       <path id="DejaVuSans-6d" d="M 3328 2828 
Q 3544 3216 3844 3400 
Q 4144 3584 4550 3584 
Q 5097 3584 5394 3201 
Q 5691 2819 5691 2113 
L 5691 0 
L 5113 0 
L 5113 2094 
Q 5113 2597 4934 2840 
Q 4756 3084 4391 3084 
Q 3944 3084 3684 2787 
Q 3425 2491 3425 1978 
L 3425 0 
L 2847 0 
L 2847 2094 
Q 2847 2600 2669 2842 
Q 2491 3084 2119 3084 
Q 1678 3084 1418 2786 
Q 1159 2488 1159 1978 
L 1159 0 
L 581 0 
L 581 3500 
L 1159 3500 
L 1159 2956 
Q 1356 3278 1631 3431 
Q 1906 3584 2284 3584 
Q 2666 3584 2933 3390 
Q 3200 3197 3328 2828 
z
" transform="scale(0.015625)"/>
       <path id="DejaVuSans-75" d="M 544 1381 
L 544 3500 
L 1119 3500 
L 1119 1403 
Q 1119 906 1312 657 
Q 1506 409 1894 409 
Q 2359 409 2629 706 
Q 2900 1003 2900 1516 
L 2900 3500 
L 3475 3500 
L 3475 0 
L 2900 0 
L 2900 538 
Q 2691 219 2414 64 
Q 2138 -91 1772 -91 
Q 1169 -91 856 284 
Q 544 659 544 1381 
z
M 1991 3584 
L 1991 3584 
z
" transform="scale(0.015625)"/>
       <path id="DejaVuSans-74" d="M 1172 4494 
L 1172 3500 
L 2356 3500 
L 2356 3053 
L 1172 3053 
L 1172 1153 
Q 1172 725 1289 603 
Q 1406 481 1766 481 
L 2356 481 
L 2356 0 
L 1766 0 
Q 1100 0 847 248 
Q 594 497 594 1153 
L 594 3053 
L 172 3053 
L 172 3500 
L 594 3500 
L 594 4494 
L 1172 4494 
z
" transform="scale(0.015625)"/>
       <path id="DejaVuSans-68" d="M 3513 2113 
L 3513 0 
L 2938 0 
L 2938 2094 
Q 2938 2591 2744 2837 
Q 2550 3084 2163 3084 
Q 1697 3084 1428 2787 
Q 1159 2491 1159 1978 
L 1159 0 
L 581 0 
L 581 4863 
L 1159 4863 
L 1159 2956 
Q 1366 3272 1645 3428 
Q 1925 3584 2291 3584 
Q 2894 3584 3203 3211 
Q 3513 2838 3513 2113 
z
" transform="scale(0.015625)"/>
       <path id="DejaVuSans-20" transform="scale(0.015625)"/>
       <path id="DejaVuSans-61" d="M 2194 1759 
Q 1497 1759 1228 1600 
Q 959 1441 959 1056 
Q 959 750 1161 570 
Q 1363 391 1709 391 
Q 2188 391 2477 730 
Q 2766 1069 2766 1631 
L 2766 1759 
L 2194 1759 
z
M 3341 1997 
L 3341 0 
L 2766 0 
L 2766 531 
Q 2569 213 2275 61 
Q 1981 -91 1556 -91 
Q 1019 -91 701 211 
Q 384 513 384 1019 
Q 384 1609 779 1909 
Q 1175 2209 1959 2209 
L 2766 2209 
L 2766 2266 
Q 2766 2663 2505 2880 
Q 2244 3097 1772 3097 
Q 1472 3097 1187 3025 
Q 903 2953 641 2809 
L 641 3341 
Q 956 3463 1253 3523 
Q 1550 3584 1831 3584 
Q 2591 3584 2966 3190 
Q 3341 2797 3341 1997 
z
" transform="scale(0.015625)"/>
       <path id="DejaVuSans-6e" d="M 3513 2113 
L 3513 0 
L 2938 0 
L 2938 2094 
Q 2938 2591 2744 2837 
Q 2550 3084 2163 3084 
Q 1697 3084 1428 2787 
Q 1159 2491 1159 1978 
L 1159 0 
L 581 0 
L 581 3500 
L 1159 3500 
L 1159 2956 
Q 1366 3272 1645 3428 
Q 1925 3584 2291 3584 
Q 2894 3584 3203 3211 
Q 3513 2838 3513 2113 
z
" transform="scale(0.015625)"/>
       <path id="DejaVuSans-67" d="M 2906 1791 
Q 2906 2416 2648 2759 
Q 2391 3103 1925 3103 
Q 1463 3103 1205 2759 
Q 947 2416 947 1791 
Q 947 1169 1205 825 
Q 1463 481 1925 481 
Q 2391 481 2648 825 
Q 2906 1169 2906 1791 
z
M 3481 434 
Q 3481 -459 3084 -895 
Q 2688 -1331 1869 -1331 
Q 1566 -1331 1297 -1286 
Q 1028 -1241 775 -1147 
L 775 -588 
Q 1028 -725 1275 -790 
Q 1522 -856 1778 -856 
Q 2344 -856 2625 -561 
Q 2906 -266 2906 331 
L 2906 616 
Q 2728 306 2450 153 
Q 2172 0 1784 0 
Q 1141 0 747 490 
Q 353 981 353 1791 
Q 353 2603 747 3093 
Q 1141 3584 1784 3584 
Q 2172 3584 2450 3431 
Q 2728 3278 2906 2969 
L 2906 3500 
L 3481 3500 
L 3481 434 
z
" transform="scale(0.015625)"/>
       <path id="DejaVuSans-6c" d="M 603 4863 
L 1178 4863 
L 1178 0 
L 603 0 
L 603 4863 
z
" transform="scale(0.015625)"/>
       <path id="DejaVuSans-65" d="M 3597 1894 
L 3597 1613 
L 953 1613 
Q 991 1019 1311 708 
Q 1631 397 2203 397 
Q 2534 397 2845 478 
Q 3156 559 3463 722 
L 3463 178 
Q 3153 47 2828 -22 
Q 2503 -91 2169 -91 
Q 1331 -91 842 396 
Q 353 884 353 1716 
Q 353 2575 817 3079 
Q 1281 3584 2069 3584 
Q 2775 3584 3186 3129 
Q 3597 2675 3597 1894 
z
M 3022 2063 
Q 3016 2534 2758 2815 
Q 2500 3097 2075 3097 
Q 1594 3097 1305 2825 
Q 1016 2553 972 2059 
L 3022 2063 
z
" transform="scale(0.015625)"/>
       <path id="DejaVuSans-28" d="M 1984 4856 
Q 1566 4138 1362 3434 
Q 1159 2731 1159 2009 
Q 1159 1288 1364 580 
Q 1569 -128 1984 -844 
L 1484 -844 
Q 1016 -109 783 600 
Q 550 1309 550 2009 
Q 550 2706 781 3412 
Q 1013 4119 1484 4856 
L 1984 4856 
z
" transform="scale(0.015625)"/>
       <path id="DejaVuSans-64" d="M 2906 2969 
L 2906 4863 
L 3481 4863 
L 3481 0 
L 2906 0 
L 2906 525 
Q 2725 213 2448 61 
Q 2172 -91 1784 -91 
Q 1150 -91 751 415 
Q 353 922 353 1747 
Q 353 2572 751 3078 
Q 1150 3584 1784 3584 
Q 2172 3584 2448 3432 
Q 2725 3281 2906 2969 
z
M 947 1747 
Q 947 1113 1208 752 
Q 1469 391 1925 391 
Q 2381 391 2643 752 
Q 2906 1113 2906 1747 
Q 2906 2381 2643 2742 
Q 2381 3103 1925 3103 
Q 1469 3103 1208 2742 
Q 947 2381 947 1747 
z
" transform="scale(0.015625)"/>
       <path id="DejaVuSans-29" d="M 513 4856 
L 1013 4856 
Q 1481 4119 1714 3412 
Q 1947 2706 1947 2009 
Q 1947 1309 1714 600 
Q 1481 -109 1013 -844 
L 513 -844 
Q 928 -128 1133 580 
Q 1338 1288 1338 2009 
Q 1338 2731 1133 3434 
Q 928 4138 513 4856 
z
" transform="scale(0.015625)"/>
      </defs>
      <use xlink:href="#DejaVuSans-41"/>
      <use xlink:href="#DejaVuSans-7a" transform="translate(68.408203 0)"/>
      <use xlink:href="#DejaVuSans-69" transform="translate(120.898438 0)"/>
      <use xlink:href="#DejaVuSans-6d" transform="translate(148.681641 0)"/>
      <use xlink:href="#DejaVuSans-75" transform="translate(246.09375 0)"/>
      <use xlink:href="#DejaVuSans-74" transform="translate(309.472656 0)"/>
      <use xlink:href="#DejaVuSans-68" transform="translate(348.681641 0)"/>
      <use xlink:href="#DejaVuSans-20" transform="translate(412.060547 0)"/>
      <use xlink:href="#DejaVuSans-61" transform="translate(443.847656 0)"/>
      <use xlink:href="#DejaVuSans-6e" transform="translate(505.126953 0)"/>
      <use xlink:href="#DejaVuSans-67" transform="translate(568.505859 0)"/>
      <use xlink:href="#DejaVuSans-6c" transform="translate(631.982422 0)"/>
      <use xlink:href="#DejaVuSans-65" transform="translate(659.765625 0)"/>
      <use xlink:href="#DejaVuSans-20" transform="translate(721.289062 0)"/>
      <use xlink:href="#DejaVuSans-28" transform="translate(753.076172 0)"/>
      <use xlink:href="#DejaVuSans-64" transform="translate(792.089844 0)"/>
      <use xlink:href="#DejaVuSans-65" transform="translate(855.566406 0)"/>
      <use xlink:href="#DejaVuSans-67" transform="translate(917.089844 0)"/>
      <use xlink:href="#DejaVuSans-29" transform="translate(980.566406 0)"/>
     </g>
    </g>
   </g>
   <g id="matplotlib.axis_2">
    <g id="ytick_1">
     <g id="line2d_19">
      <path d="M 52.854063 343.639219 
L 610.854063 343.639219 
" clip-path="url(#p392a7b9d55)" style="fill: none; stroke: #b0b0b0; stroke-width: 0.8; stroke-linecap: square"/>
     </g>
     <g id="line2d_20">
      <defs>
       <path id="mc421ef4c8e" d="M 0 0 
L -3.5 0 
" style="stroke: #000000; stroke-width: 0.8"/>
      </defs>
      <g>
       <use xlink:href="#mc421ef4c8e" x="52.854063" y="343.639219" style="stroke: #000000; stroke-width: 0.8"/>
      </g>
     </g>
     <g id="text_11">
      <!-- −80 -->
      <g transform="translate(24.749375 347.438438) scale(0.1 -0.1)">
       <use xlink:href="#DejaVuSans-2212"/>
       <use xlink:href="#DejaVuSans-38" transform="translate(83.789062 0)"/>
       <use xlink:href="#DejaVuSans-30" transform="translate(147.412109 0)"/>
      </g>
     </g>
    </g>
    <g id="ytick_2">
     <g id="line2d_21">
      <path d="M 52.854063 306.679219 
L 610.854063 306.679219 
" clip-path="url(#p392a7b9d55)" style="fill: none; stroke: #b0b0b0; stroke-width: 0.8; stroke-linecap: square"/>
     </g>
     <g id="line2d_22">
      <g>
       <use xlink:href="#mc421ef4c8e" x="52.854063" y="306.679219" style="stroke: #000000; stroke-width: 0.8"/>
      </g>
     </g>
     <g id="text_12">
      <!-- −70 -->
      <g transform="translate(24.749375 310.478438) scale(0.1 -0.1)">
       <defs>
        <path id="DejaVuSans-37" d="M 525 4666 
L 3525 4666 
L 3525 4397 
L 1831 0 
L 1172 0 
L 2766 4134 
L 525 4134 
L 525 4666 
z
" transform="scale(0.015625)"/>
       </defs>
       <use xlink:href="#DejaVuSans-2212"/>
       <use xlink:href="#DejaVuSans-37" transform="translate(83.789062 0)"/>
       <use xlink:href="#DejaVuSans-30" transform="translate(147.412109 0)"/>
      </g>
     </g>
    </g>
    <g id="ytick_3">
     <g id="line2d_23">
      <path d="M 52.854063 269.719219 
L 610.854063 269.719219 
" clip-path="url(#p392a7b9d55)" style="fill: none; stroke: #b0b0b0; stroke-width: 0.8; stroke-linecap: square"/>
     </g>
     <g id="line2d_24">
      <g>
       <use xlink:href="#mc421ef4c8e" x="52.854063" y="269.719219" style="stroke: #000000; stroke-width: 0.8"/>
      </g>
     </g>
     <g id="text_13">
      <!-- −60 -->
      <g transform="translate(24.749375 273.518438) scale(0.1 -0.1)">
       <use xlink:href="#DejaVuSans-2212"/>
       <use xlink:href="#DejaVuSans-36" transform="translate(83.789062 0)"/>
       <use xlink:href="#DejaVuSans-30" transform="translate(147.412109 0)"/>
      </g>
     </g>
    </g>
    <g id="ytick_4">
     <g id="line2d_25">
      <path d="M 52.854063 232.759219 
L 610.854063 232.759219 
" clip-path="url(#p392a7b9d55)" style="fill: none; stroke: #b0b0b0; stroke-width: 0.8; stroke-linecap: square"/>
     </g>
     <g id="line2d_26">
      <g>
       <use xlink:href="#mc421ef4c8e" x="52.854063" y="232.759219" style="stroke: #000000; stroke-width: 0.8"/>
      </g>
     </g>
     <g id="text_14">
      <!-- −50 -->
      <g transform="translate(24.749375 236.558438) scale(0.1 -0.1)">
       <defs>
        <path id="DejaVuSans-35" d="M 691 4666 
L 3169 4666 
L 3169 4134 
L 1269 4134 
L 1269 2991 
Q 1406 3038 1543 3061 
Q 1681 3084 1819 3084 
Q 2600 3084 3056 2656 
Q 3513 2228 3513 1497 
Q 3513 744 3044 326 
Q 2575 -91 1722 -91 
Q 1428 -91 1123 -41 
Q 819 9 494 109 
L 494 744 
Q 775 591 1075 516 
Q 1375 441 1709 441 
Q 2250 441 2565 725 
Q 2881 1009 2881 1497 
Q 2881 1984 2565 2268 
Q 2250 2553 1709 2553 
Q 1456 2553 1204 2497 
Q 953 2441 691 2322 
L 691 4666 
z
" transform="scale(0.015625)"/>
       </defs>
       <use xlink:href="#DejaVuSans-2212"/>
       <use xlink:href="#DejaVuSans-35" transform="translate(83.789062 0)"/>
       <use xlink:href="#DejaVuSans-30" transform="translate(147.412109 0)"/>
      </g>
     </g>
    </g>
    <g id="ytick_5">
     <g id="line2d_27">
      <path d="M 52.854063 195.799219 
L 610.854063 195.799219 
" clip-path="url(#p392a7b9d55)" style="fill: none; stroke: #b0b0b0; stroke-width: 0.8; stroke-linecap: square"/>
     </g>
     <g id="line2d_28">
      <g>
       <use xlink:href="#mc421ef4c8e" x="52.854063" y="195.799219" style="stroke: #000000; stroke-width: 0.8"/>
      </g>
     </g>
     <g id="text_15">
      <!-- −40 -->
      <g transform="translate(24.749375 199.598438) scale(0.1 -0.1)">
       <use xlink:href="#DejaVuSans-2212"/>
       <use xlink:href="#DejaVuSans-34" transform="translate(83.789062 0)"/>
       <use xlink:href="#DejaVuSans-30" transform="translate(147.412109 0)"/>
      </g>
     </g>
    </g>
    <g id="ytick_6">
     <g id="line2d_29">
      <path d="M 52.854063 158.839219 
L 610.854063 158.839219 
" clip-path="url(#p392a7b9d55)" style="fill: none; stroke: #b0b0b0; stroke-width: 0.8; stroke-linecap: square"/>
     </g>
     <g id="line2d_30">
      <g>
       <use xlink:href="#mc421ef4c8e" x="52.854063" y="158.839219" style="stroke: #000000; stroke-width: 0.8"/>
      </g>
     </g>
     <g id="text_16">
      <!-- −30 -->
      <g transform="translate(24.749375 162.638438) scale(0.1 -0.1)">
       <defs>
        <path id="DejaVuSans-33" d="M 2597 2516 
Q 3050 2419 3304 2112 
Q 3559 1806 3559 1356 
Q 3559 666 3084 287 
Q 2609 -91 1734 -91 
Q 1441 -91 1130 -33 
Q 819 25 488 141 
L 488 750 
Q 750 597 1062 519 
Q 1375 441 1716 441 
Q 2309 441 2620 675 
Q 2931 909 2931 1356 
Q 2931 1769 2642 2001 
Q 2353 2234 1838 2234 
L 1294 2234 
L 1294 2753 
L 1863 2753 
Q 2328 2753 2575 2939 
Q 2822 3125 2822 3475 
Q 2822 3834 2567 4026 
Q 2313 4219 1838 4219 
Q 1578 4219 1281 4162 
Q 984 4106 628 3988 
L 628 4550 
Q 988 4650 1302 4700 
Q 1616 4750 1894 4750 
Q 2613 4750 3031 4423 
Q 3450 4097 3450 3541 
Q 3450 3153 3228 2886 
Q 3006 2619 2597 2516 
z
" transform="scale(0.015625)"/>
       </defs>
       <use xlink:href="#DejaVuSans-2212"/>
       <use xlink:href="#DejaVuSans-33" transform="translate(83.789062 0)"/>
       <use xlink:href="#DejaVuSans-30" transform="translate(147.412109 0)"/>
      </g>
     </g>
    </g>
    <g id="ytick_7">
     <g id="line2d_31">
      <path d="M 52.854063 121.879219 
L 610.854063 121.879219 
" clip-path="url(#p392a7b9d55)" style="fill: none; stroke: #b0b0b0; stroke-width: 0.8; stroke-linecap: square"/>
     </g>
     <g id="line2d_32">
      <g>
       <use xlink:href="#mc421ef4c8e" x="52.854063" y="121.879219" style="stroke: #000000; stroke-width: 0.8"/>
      </g>
     </g>
     <g id="text_17">
      <!-- −20 -->
      <g transform="translate(24.749375 125.678438) scale(0.1 -0.1)">
       <use xlink:href="#DejaVuSans-2212"/>
       <use xlink:href="#DejaVuSans-32" transform="translate(83.789062 0)"/>
       <use xlink:href="#DejaVuSans-30" transform="translate(147.412109 0)"/>
      </g>
     </g>
    </g>
    <g id="ytick_8">
     <g id="line2d_33">
      <path d="M 52.854063 84.919219 
L 610.854063 84.919219 
" clip-path="url(#p392a7b9d55)" style="fill: none; stroke: #b0b0b0; stroke-width: 0.8; stroke-linecap: square"/>
     </g>
     <g id="line2d_34">
      <g>
       <use xlink:href="#mc421ef4c8e" x="52.854063" y="84.919219" style="stroke: #000000; stroke-width: 0.8"/>
      </g>
     </g>
     <g id="text_18">
      <!-- −10 -->
      <g transform="translate(24.749375 88.718438) scale(0.1 -0.1)">
       <defs>
        <path id="DejaVuSans-31" d="M 794 531 
L 1825 531 
L 1825 4091 
L 703 3866 
L 703 4441 
L 1819 4666 
L 2450 4666 
L 2450 531 
L 3481 531 
L 3481 0 
L 794 0 
L 794 531 
z
" transform="scale(0.015625)"/>
       </defs>
       <use xlink:href="#DejaVuSans-2212"/>
       <use xlink:href="#DejaVuSans-31" transform="translate(83.789062 0)"/>
       <use xlink:href="#DejaVuSans-30" transform="translate(147.412109 0)"/>
      </g>
     </g>
    </g>
    <g id="ytick_9">
     <g id="line2d_35">
      <path d="M 52.854063 47.959219 
L 610.854063 47.959219 
" clip-path="url(#p392a7b9d55)" style="fill: none; stroke: #b0b0b0; stroke-width: 0.8; stroke-linecap: square"/>
     </g>
     <g id="line2d_36">
      <g>
       <use xlink:href="#mc421ef4c8e" x="52.854063" y="47.959219" style="stroke: #000000; stroke-width: 0.8"/>
      </g>
     </g>
     <g id="text_19">
      <!-- 0 -->
      <g transform="translate(39.491563 51.758438) scale(0.1 -0.1)">
       <use xlink:href="#DejaVuSans-30"/>
      </g>
     </g>
    </g>
    <g id="ytick_10">
     <g id="line2d_37">
      <path d="M 52.854063 10.999219 
L 610.854063 10.999219 
" clip-path="url(#p392a7b9d55)" style="fill: none; stroke: #b0b0b0; stroke-width: 0.8; stroke-linecap: square"/>
     </g>
     <g id="line2d_38">
      <g>
       <use xlink:href="#mc421ef4c8e" x="52.854063" y="10.999219" style="stroke: #000000; stroke-width: 0.8"/>
      </g>
     </g>
     <g id="text_20">
      <!-- 10 -->
      <g transform="translate(33.129063 14.798437) scale(0.1 -0.1)">
       <use xlink:href="#DejaVuSans-31"/>
       <use xlink:href="#DejaVuSans-30" transform="translate(63.623047 0)"/>
      </g>
     </g>
    </g>
    <g id="text_21">
     <!-- Power, dB -->
     <g transform="translate(17.837813 212.174844) rotate(-90) scale(0.14 -0.14)">
      <defs>
       <path id="DejaVuSans-50" d="M 1259 4147 
L 1259 2394 
L 2053 2394 
Q 2494 2394 2734 2622 
Q 2975 2850 2975 3272 
Q 2975 3691 2734 3919 
Q 2494 4147 2053 4147 
L 1259 4147 
z
M 628 4666 
L 2053 4666 
Q 2838 4666 3239 4311 
Q 3641 3956 3641 3272 
Q 3641 2581 3239 2228 
Q 2838 1875 2053 1875 
L 1259 1875 
L 1259 0 
L 628 0 
L 628 4666 
z
" transform="scale(0.015625)"/>
       <path id="DejaVuSans-6f" d="M 1959 3097 
Q 1497 3097 1228 2736 
Q 959 2375 959 1747 
Q 959 1119 1226 758 
Q 1494 397 1959 397 
Q 2419 397 2687 759 
Q 2956 1122 2956 1747 
Q 2956 2369 2687 2733 
Q 2419 3097 1959 3097 
z
M 1959 3584 
Q 2709 3584 3137 3096 
Q 3566 2609 3566 1747 
Q 3566 888 3137 398 
Q 2709 -91 1959 -91 
Q 1206 -91 779 398 
Q 353 888 353 1747 
Q 353 2609 779 3096 
Q 1206 3584 1959 3584 
z
" transform="scale(0.015625)"/>
       <path id="DejaVuSans-77" d="M 269 3500 
L 844 3500 
L 1563 769 
L 2278 3500 
L 2956 3500 
L 3675 769 
L 4391 3500 
L 4966 3500 
L 4050 0 
L 3372 0 
L 2619 2869 
L 1863 0 
L 1184 0 
L 269 3500 
z
" transform="scale(0.015625)"/>
       <path id="DejaVuSans-72" d="M 2631 2963 
Q 2534 3019 2420 3045 
Q 2306 3072 2169 3072 
Q 1681 3072 1420 2755 
Q 1159 2438 1159 1844 
L 1159 0 
L 581 0 
L 581 3500 
L 1159 3500 
L 1159 2956 
Q 1341 3275 1631 3429 
Q 1922 3584 2338 3584 
Q 2397 3584 2469 3576 
Q 2541 3569 2628 3553 
L 2631 2963 
z
" transform="scale(0.015625)"/>
       <path id="DejaVuSans-2c" d="M 750 794 
L 1409 794 
L 1409 256 
L 897 -744 
L 494 -744 
L 750 256 
L 750 794 
z
" transform="scale(0.015625)"/>
       <path id="DejaVuSans-42" d="M 1259 2228 
L 1259 519 
L 2272 519 
Q 2781 519 3026 730 
Q 3272 941 3272 1375 
Q 3272 1813 3026 2020 
Q 2781 2228 2272 2228 
L 1259 2228 
z
M 1259 4147 
L 1259 2741 
L 2194 2741 
Q 2656 2741 2882 2914 
Q 3109 3088 3109 3444 
Q 3109 3797 2882 3972 
Q 2656 4147 2194 4147 
L 1259 4147 
z
M 628 4666 
L 2241 4666 
Q 2963 4666 3353 4366 
Q 3744 4066 3744 3513 
Q 3744 3084 3544 2831 
Q 3344 2578 2956 2516 
Q 3422 2416 3680 2098 
Q 3938 1781 3938 1306 
Q 3938 681 3513 340 
Q 3088 0 2303 0 
L 628 0 
L 628 4666 
z
" transform="scale(0.015625)"/>
      </defs>
      <use xlink:href="#DejaVuSans-50"/>
      <use xlink:href="#DejaVuSans-6f" transform="translate(56.677734 0)"/>
      <use xlink:href="#DejaVuSans-77" transform="translate(117.859375 0)"/>
      <use xlink:href="#DejaVuSans-65" transform="translate(199.646484 0)"/>
      <use xlink:href="#DejaVuSans-72" transform="translate(261.169922 0)"/>
      <use xlink:href="#DejaVuSans-2c" transform="translate(302.283203 0)"/>
      <use xlink:href="#DejaVuSans-20" transform="translate(334.070312 0)"/>
      <use xlink:href="#DejaVuSans-64" transform="translate(365.857422 0)"/>
      <use xlink:href="#DejaVuSans-42" transform="translate(429.333984 0)"/>
     </g>
    </g>
   </g>
   <g id="line2d_39">
    <path d="M 52.854062 124.573556 
L 60.704334 124.226608 
L 66.453347 123.56762 
L 72.091059 122.66263 
L 81.186344 120.910934 
L 89.738343 119.325524 
L 94.485649 118.647242 
L 98.752494 118.252854 
L 102.662543 118.132641 
L 105.705768 118.238375 
L 108.587718 118.530951 
L 111.332261 119.012398 
L 113.957931 119.68709 
L 116.479463 120.561959 
L 118.908801 121.646853 
L 121.255784 122.955075 
L 123.528632 124.504167 
L 125.734296 126.317052 
L 127.878716 128.423711 
L 129.967017 130.863679 
L 131.600265 133.090613 
L 133.202482 135.600049 
L 134.775495 138.438645 
L 136.320962 141.668825 
L 137.840394 145.376553 
L 139.335168 149.684618 
L 140.806548 154.776905 
L 141.895434 159.280702 
L 142.972273 164.581505 
L 144.037493 170.993252 
L 145.091501 179.070693 
L 145.788133 185.892131 
L 146.480061 194.58378 
L 147.167389 206.553226 
L 147.509359 214.775785 
L 147.850217 225.854873 
L 148.189974 242.900451 
L 148.528642 281.562486 
L 148.866233 272.350443 
L 149.202759 239.891601 
L 149.872657 213.579514 
L 150.538425 199.357835 
L 151.200147 189.574799 
L 152.185323 178.973953 
L 153.161844 171.090593 
L 154.129964 164.837681 
L 155.408137 158.142181 
L 156.672343 152.7238 
L 157.923094 148.207815 
L 159.468339 143.495119 
L 160.994188 139.566978 
L 162.501464 136.248493 
L 164.286752 132.908836 
L 166.047629 130.142314 
L 167.785234 127.854923 
L 169.500626 125.98048 
L 171.194792 124.47141 
L 172.868647 123.293219 
L 174.52305 122.421044 
L 176.158801 121.837464 
L 177.776652 121.531104 
L 179.111698 121.48297 
L 180.435189 121.621941 
L 181.747492 121.949219 
L 183.048956 122.468301 
L 184.339913 123.185153 
L 185.875638 124.318949 
L 187.397209 125.77165 
L 188.905119 127.573161 
L 190.399837 129.764748 
L 191.881805 132.403503 
L 193.351444 135.569649 
L 194.567016 138.693037 
L 195.774527 142.358538 
L 196.97419 146.70658 
L 198.16621 151.952388 
L 199.114456 157.025491 
L 200.058033 163.195375 
L 200.997037 170.989255 
L 201.698344 178.4974 
L 202.397168 188.405148 
L 202.861689 197.309325 
L 203.325134 209.716595 
L 203.787512 230.262556 
L 204.018305 249.375329 
L 204.248836 303.356801 
L 204.709114 237.632161 
L 205.168357 213.385938 
L 205.626574 199.750344 
L 206.312001 186.365872 
L 206.995176 176.997282 
L 207.902629 167.741279 
L 208.80621 160.659281 
L 209.930352 153.695755 
L 211.048694 148.13049 
L 212.383236 142.725227 
L 213.709837 138.329787 
L 215.028711 134.699546 
L 216.340064 131.678354 
L 217.644091 129.161148 
L 218.940984 127.074579 
L 220.230927 125.36618 
L 221.514097 123.997952 
L 222.790666 122.942405 
L 224.0608 122.180044 
L 225.324658 121.697772 
L 226.582397 121.487904 
L 227.625946 121.518918 
L 228.665433 121.737886 
L 229.907574 122.253299 
L 231.144122 123.054028 
L 232.375214 124.155922 
L 233.600977 125.581871 
L 234.821539 127.363772 
L 236.037023 129.54561 
L 237.247546 132.188382 
L 238.453226 135.378192 
L 239.654175 139.24027 
L 240.850501 143.964848 
L 241.843986 148.776927 
L 242.834397 154.690547 
L 243.82179 162.216913 
L 244.609572 170.049513 
L 245.395489 180.643657 
L 245.983721 191.944383 
L 246.375307 202.632533 
L 246.766443 218.858363 
L 246.961843 231.701508 
L 247.157132 253.484071 
L 247.35231 368.448274 
L 247.547378 255.290445 
L 247.937183 219.374628 
L 248.326552 202.839431 
L 248.909794 187.680925 
L 249.685952 174.659098 
L 250.460422 165.476901 
L 251.426175 156.879348 
L 252.38938 150.222742 
L 253.541931 143.883154 
L 254.690962 138.786704 
L 255.836555 134.59604 
L 257.168838 130.581219 
L 258.496667 127.313464 
L 259.820161 124.658601 
L 261.139433 122.52664 
L 262.454597 120.855946 
L 263.578693 119.758655 
L 264.699918 118.950887 
L 265.81834 118.420669 
L 266.934022 118.161294 
L 267.86171 118.150521 
L 268.787577 118.327779 
L 269.711657 118.696731 
L 270.818246 119.401363 
L 271.922372 120.407074 
L 273.024097 121.73699 
L 274.123476 123.423326 
L 275.220566 125.510516 
L 276.315425 128.06021 
L 277.408105 131.159519 
L 278.498662 134.935299 
L 279.587149 139.580604 
L 280.492678 144.335707 
L 281.396835 150.206857 
L 282.29965 157.717984 
L 283.020956 165.578227 
L 283.741437 176.282408 
L 284.281264 187.80609 
L 284.640899 198.832179 
L 285.000336 215.909986 
L 285.17998 229.872798 
L 285.359576 255.245017 
L 285.539123 305.800477 
L 285.718621 244.061421 
L 286.077474 212.026048 
L 286.615396 190.579568 
L 287.152894 177.809433 
L 287.868909 166.153863 
L 288.762904 155.833037 
L 289.655787 148.100679 
L 290.725815 140.874726 
L 291.794326 135.126429 
L 293.039064 129.714615 
L 294.281867 125.327987 
L 295.522806 121.73116 
L 296.761948 118.774517 
L 297.999363 116.358526 
L 299.235116 114.415228 
L 300.469274 112.897945 
L 301.525905 111.912362 
L 302.581452 111.203728 
L 303.635957 110.764602 
L 304.689461 110.592379 
L 305.566643 110.654081 
L 306.44318 110.906188 
L 307.494205 111.468991 
L 308.544372 112.331241 
L 309.59372 113.516252 
L 310.642287 115.056502 
L 311.690112 116.996818 
L 312.737233 119.399453 
L 313.783687 122.352469 
L 314.829513 125.984311 
L 315.874746 130.490837 
L 316.745349 135.137982 
L 317.615588 140.914533 
L 318.485484 148.357529 
L 319.181169 156.203379 
L 319.87666 166.978422 
L 320.398156 178.704297 
L 320.745765 190.072214 
L 321.093332 208.08381 
L 321.267099 223.379645 
L 321.614605 270.698643 
L 321.96207 211.049792 
L 322.309499 191.295247 
L 322.830572 174.35768 
L 323.525218 160.256207 
L 324.219735 150.432003 
L 325.087719 141.257968 
L 326.129089 132.887874 
L 327.170261 126.309036 
L 328.384762 120.13601 
L 329.5991 115.114376 
L 330.813332 110.956538 
L 332.200971 107.036475 
L 333.58863 103.842423 
L 334.802916 101.555676 
L 336.01734 99.690803 
L 337.231959 98.214412 
L 338.446829 97.105149 
L 339.48839 96.437624 
L 340.530213 96.029219 
L 341.572336 95.88253 
L 342.441026 95.965424 
L 343.309969 96.242283 
L 344.179187 96.723239 
L 345.222641 97.589385 
L 346.266557 98.801692 
L 347.310972 100.404896 
L 348.355924 102.461331 
L 349.401449 105.059457 
L 350.447584 108.328711 
L 351.494367 112.467138 
L 352.367208 116.806633 
L 353.240547 122.280771 
L 354.114405 129.439651 
L 354.813882 137.092985 
L 355.513716 147.758548 
L 356.038834 159.557169 
L 356.38903 171.198953 
L 356.739323 190.170236 
L 356.914506 207.049602 
L 357.089713 245.544728 
L 357.264945 236.165071 
L 357.615484 187.579467 
L 357.966124 168.817338 
L 358.492276 152.195761 
L 359.19418 138.037496 
L 359.896515 127.991038 
L 360.775057 118.444112 
L 361.830253 109.551749 
L 362.886518 102.395937 
L 364.120233 95.49351 
L 365.532126 88.927173 
L 366.946177 83.376981 
L 368.539687 78.039959 
L 370.136199 73.449671 
L 371.913799 69.047959 
L 373.695491 65.250748 
L 375.481483 61.963114 
L 377.271989 59.116771 
L 379.067226 56.661225 
L 380.867417 54.558385 
L 382.67279 52.779147 
L 384.483578 51.301136 
L 386.30002 50.107188 
L 388.122361 49.184308 
L 389.950852 48.52295 
L 391.785753 48.116529 
L 393.442862 47.96541 
L 395.105578 48.01639 
L 396.774103 48.269866 
L 398.635091 48.791456 
L 400.503809 49.570632 
L 402.380563 50.615274 
L 404.26567 51.936424 
L 406.159458 53.548863 
L 408.062266 55.471969 
L 409.974447 57.730949 
L 411.896365 60.358655 
L 413.828398 63.398292 
L 415.770942 66.907608 
L 417.528555 70.532259 
L 419.295323 74.680449 
L 421.071567 79.46421 
L 422.658678 84.38151 
L 424.253785 90.10446 
L 425.656261 95.984822 
L 426.863543 101.903457 
L 428.075707 108.954806 
L 429.089657 116.077449 
L 430.107148 124.937881 
L 430.923738 134.038921 
L 431.53772 142.836819 
L 432.153039 154.659206 
L 432.564003 165.691298 
L 432.975573 182.258082 
L 433.181586 195.270604 
L 433.387754 217.22182 
L 433.594075 332.353962 
L 433.800551 219.363363 
L 434.21397 183.779914 
L 434.628015 167.574341 
L 435.250268 152.905254 
L 435.87396 143.15532 
L 436.707816 133.874659 
L 437.544304 127.0012 
L 438.593681 120.444395 
L 439.647325 115.364297 
L 440.705327 111.305125 
L 441.767779 108.000848 
L 443.04873 104.799143 
L 444.336396 102.254584 
L 445.630953 100.242316 
L 446.932581 98.676724 
L 448.24147 97.497355 
L 449.337898 96.777853 
L 450.439619 96.277609 
L 451.546756 95.982555 
L 452.659431 95.882261 
L 454.002133 96.008764 
L 455.353226 96.397374 
L 456.712949 97.045138 
L 458.081551 97.953746 
L 459.459289 99.129609 
L 460.846436 100.584296 
L 462.243272 102.335351 
L 463.885554 104.78653 
L 465.541915 107.731681 
L 466.97325 110.710307 
L 468.415649 114.184734 
L 469.869471 118.259945 
L 471.335091 123.091746 
L 472.565737 127.867927 
L 473.805089 133.559488 
L 475.053396 140.536086 
L 476.058662 147.47952 
L 477.069964 156.326992 
L 477.832487 165.003801 
L 478.598549 176.840867 
L 479.111253 188.075319 
L 479.625578 205.361054 
L 479.883355 219.427668 
L 480.141543 244.903586 
L 480.400147 295.562639 
L 480.659169 233.927073 
L 481.178475 202.098377 
L 481.699484 186.555602 
L 482.484234 172.11796 
L 483.272936 162.349067 
L 484.065665 155.003947 
L 485.129037 147.443384 
L 486.199902 141.515028 
L 487.278459 136.687019 
L 488.637791 131.749409 
L 490.009896 127.709731 
L 491.395227 124.351717 
L 492.79426 121.534385 
L 494.207499 119.161024 
L 495.635478 117.162718 
L 497.078763 115.488942 
L 498.537956 114.101874 
L 500.013697 112.972804 
L 501.506668 112.079784 
L 503.017595 111.406051 
L 504.547256 110.938941 
L 506.096484 110.669151 
L 507.666172 110.590227 
L 509.25728 110.698234 
L 511.196346 111.072473 
L 513.1697 111.715157 
L 515.179483 112.632515 
L 517.228064 113.835972 
L 519.318069 115.342985 
L 521.452428 117.178433 
L 523.634418 119.376797 
L 525.867731 121.985597 
L 527.771032 124.520038 
L 529.715593 127.437224 
L 531.704471 130.808665 
L 533.741108 134.735033 
L 535.40741 138.372441 
L 537.109015 142.567734 
L 538.848433 147.48289 
L 540.179493 151.788545 
L 541.534721 156.802485 
L 542.915564 162.781791 
L 544.323623 170.162279 
L 545.278314 176.241481 
L 546.246456 183.746186 
L 547.228662 193.546566 
L 547.725245 199.849546 
L 548.225596 207.689478 
L 548.729808 218.067528 
L 549.237974 233.466705 
L 549.750194 264.060422 
L 550.266571 280.992693 
L 550.787212 239.092418 
L 551.312229 221.551247 
L 551.841739 210.298439 
L 552.375864 202.004531 
L 553.458477 190.007487 
L 554.561164 181.350287 
L 555.685129 174.589481 
L 556.831703 169.054916 
L 558.002357 164.380223 
L 559.19873 160.343094 
L 560.422655 156.798442 
L 561.676188 153.646326 
L 563.61718 149.50239 
L 565.639369 145.914087 
L 567.754188 142.766395 
L 569.976016 139.97802 
L 572.323365 137.489412 
L 574.820765 135.255671 
L 577.501913 133.242134 
L 580.415331 131.421509 
L 583.635512 129.771955 
L 586.011099 128.758399 
L 588.637468 127.808492 
L 591.617066 126.918325 
L 595.149682 126.084438 
L 599.751198 125.30376 
L 603.003791 124.932507 
L 603.003791 124.932507 
" clip-path="url(#p392a7b9d55)" style="fill: none; stroke-dasharray: 1.5,2.475; stroke-dashoffset: 0; stroke: #0000ff; stroke-width: 1.5"/>
   </g>
   <g id="line2d_40">
    <path d="M 52.854062 168.900989 
L 60.704334 168.647937 
L 76.420243 167.603688 
L 80.072613 167.64323 
L 83.292794 167.915411 
L 86.206212 168.425023 
L 88.88736 169.181756 
L 91.38476 170.200924 
L 93.732109 171.504684 
L 95.226032 172.546787 
L 96.669985 173.740766 
L 98.068756 175.101366 
L 99.426417 176.646957 
L 100.746468 178.400618 
L 102.031937 180.391684 
L 103.28547 182.658009 
L 104.509395 185.2494 
L 105.705768 188.232988 
L 106.876422 191.702053 
L 108.022996 195.791339 
L 109.146961 200.705573 
L 110.249648 206.777781 
L 111.332261 214.604827 
L 111.866386 219.516173 
L 112.395896 225.428809 
L 112.920913 232.820503 
L 113.441554 242.624791 
L 113.957931 257.095462 
L 114.978317 314.869427 
L 115.482529 265.877635 
L 115.98288 247.120807 
L 116.479463 235.226028 
L 117.461669 219.514599 
L 118.429811 208.791592 
L 119.384502 200.603962 
L 120.792561 191.048224 
L 122.173404 183.502483 
L 123.528632 177.252155 
L 125.29824 170.289369 
L 127.027953 164.434176 
L 128.720508 159.385483 
L 130.787642 153.927339 
L 132.804734 149.199812 
L 135.164383 144.276378 
L 137.462899 140.00459 
L 139.705159 136.263229 
L 142.255697 132.455735 
L 144.741387 129.156794 
L 147.167389 126.296093 
L 149.53823 123.821663 
L 151.857905 121.694389 
L 154.129964 119.884519 
L 156.357573 118.369387 
L 158.543574 117.131878 
L 160.69053 116.159402 
L 162.800758 115.443202 
L 164.876365 114.977926 
L 166.919272 114.761381 
L 168.931235 114.794475 
L 170.913865 115.081309 
L 172.591044 115.534764 
L 174.248632 116.187202 
L 175.887439 117.048158 
L 177.508223 118.130128 
L 179.111698 119.449256 
L 180.698534 121.026303 
L 182.26936 122.888041 
L 183.82477 125.069287 
L 185.365327 127.615961 
L 186.89156 130.589818 
L 188.403971 134.076109 
L 189.903036 138.19657 
L 191.142388 142.243119 
L 192.373034 147.012344 
L 193.595214 152.747575 
L 194.567016 158.292721 
L 195.533659 165.049802 
L 196.495253 173.610184 
L 197.213199 181.850417 
L 197.928408 192.52834 
L 198.877836 211.58254 
L 199.350784 218.346392 
L 199.586822 217.718822 
L 200.058033 209.637578 
L 200.997037 191.104769 
L 201.698344 180.911177 
L 202.629564 170.761951 
L 203.556456 163.051223 
L 204.709114 155.537948 
L 205.855302 149.578131 
L 206.995176 144.691475 
L 208.354899 139.853677 
L 209.705992 135.857576 
L 211.048694 132.514145 
L 212.604881 129.272852 
L 214.15031 126.614287 
L 215.685315 124.445458 
L 217.210217 122.700683 
L 218.725323 121.332586 
L 220.230927 120.306642 
L 221.514097 119.680357 
L 222.790666 119.275376 
L 224.0608 119.08337 
L 225.324658 119.098743 
L 226.582397 119.318314 
L 227.834165 119.741134 
L 229.08011 120.368404 
L 230.526539 121.36323 
L 231.965448 122.650269 
L 233.397048 124.243479 
L 234.821539 126.16231 
L 236.239118 128.432939 
L 237.649972 131.090137 
L 239.054285 134.180072 
L 240.452233 137.764614 
L 241.843986 141.928105 
L 243.229713 146.788399 
L 244.609572 152.51557 
L 245.787758 158.30462 
L 246.961843 165.157022 
L 248.131922 173.433277 
L 249.103993 181.783435 
L 250.266961 193.92342 
L 251.426175 206.51192 
L 251.81176 209.109305 
L 252.004401 209.749626 
L 252.196941 209.891059 
L 252.38938 209.54302 
L 252.77396 207.616422 
L 253.541931 201.209899 
L 254.882131 190.086433 
L 255.836555 184.086676 
L 256.788646 179.548005 
L 257.738446 176.18457 
L 258.496667 174.197408 
L 259.253473 172.756112 
L 260.008884 171.813696 
L 260.57454 171.417479 
L 261.139433 171.281753 
L 261.703571 171.407217 
L 262.266963 171.800145 
L 262.829618 172.472967 
L 263.391545 173.44535 
L 264.13966 175.259118 
L 264.886515 177.76098 
L 265.632128 181.114649 
L 266.376519 185.589004 
L 267.119707 191.657499 
L 267.676319 197.78549 
L 268.232273 206.108726 
L 268.787577 218.440431 
L 269.157421 231.325946 
L 269.526982 254.577721 
L 269.711657 280.013965 
L 269.896262 323.484927 
L 270.080797 266.963876 
L 270.449659 234.814044 
L 271.002436 212.695284 
L 271.5546 199.198496 
L 272.289878 186.573965 
L 273.207488 175.065592 
L 274.123476 166.176196 
L 275.220566 157.599225 
L 276.497688 149.470185 
L 277.771857 142.729194 
L 279.224547 136.24905 
L 280.673618 130.759251 
L 282.29965 125.510832 
L 283.92143 121.061602 
L 285.539123 117.28364 
L 287.152894 114.088917 
L 288.762904 111.415755 
L 290.190993 109.442275 
L 291.616344 107.825694 
L 293.039064 106.552197 
L 294.281867 105.713201 
L 295.522806 105.12952 
L 296.761948 104.803081 
L 297.822692 104.732074 
L 298.882209 104.859767 
L 299.94054 105.194317 
L 300.997727 105.746727 
L 302.053811 106.531457 
L 303.108833 107.567287 
L 304.162832 108.878565 
L 305.391259 110.799381 
L 306.618412 113.207001 
L 307.844354 116.198113 
L 308.894243 119.332061 
L 309.943327 123.129733 
L 310.991643 127.791575 
L 312.039229 133.642807 
L 312.911687 139.83209 
L 313.783687 147.867516 
L 314.480972 156.464529 
L 315.003758 165.082538 
L 315.526398 177.140686 
L 315.874746 188.943239 
L 316.223032 207.989665 
L 316.397153 224.626686 
L 316.571258 258.214122 
L 316.745349 250.361477 
L 317.093487 205.634934 
L 317.615588 180.86213 
L 318.137565 166.927191 
L 318.833352 154.482053 
L 319.702805 143.573986 
L 320.571966 135.420215 
L 321.614605 127.777475 
L 322.65689 121.653284 
L 323.872492 115.820216 
L 325.087719 111.011988 
L 326.476166 106.459975 
L 327.864285 102.698268 
L 329.252159 99.581323 
L 330.639875 97.012736 
L 332.027517 94.92736 
L 333.241709 93.464195 
L 334.455966 92.317847 
L 335.670345 91.476372 
L 336.71138 90.993445 
L 337.752583 90.730482 
L 338.793989 90.690861 
L 339.835633 90.881465 
L 340.877553 91.313113 
L 341.919783 92.001284 
L 342.96236 92.96722 
L 344.00532 94.239591 
L 345.048701 95.857021 
L 346.092537 97.872008 
L 347.136867 100.357199 
L 348.181727 103.415913 
L 349.227153 107.200804 
L 350.273184 111.9496 
L 351.145365 116.92256 
L 352.018013 123.233128 
L 352.716482 129.719153 
L 353.415276 138.245158 
L 353.939591 146.857719 
L 354.464099 158.935019 
L 354.813882 170.585256 
L 355.513716 204.865431 
L 355.688732 198.621917 
L 356.21392 169.802024 
L 356.739323 152.730121 
L 357.440202 138.132608 
L 358.141482 127.856617 
L 359.018664 118.1688 
L 360.072168 109.21139 
L 361.126673 102.046553 
L 362.358249 95.169227 
L 363.767585 88.655111 
L 365.178954 83.16872 
L 366.769299 77.908292 
L 368.362485 73.394294 
L 370.136199 69.07305 
L 371.913799 65.349143 
L 373.695491 62.125808 
L 375.481483 59.333376 
L 377.271989 56.920181 
L 379.067226 54.847019 
L 380.867417 53.083634 
L 382.67279 51.606393 
L 384.483578 50.396706 
L 386.30002 49.439923 
L 388.122361 48.724551 
L 389.950852 48.241693 
L 391.785753 47.984641 
L 393.627328 47.948576 
L 395.475852 48.130368 
L 397.331606 48.528428 
L 399.194881 49.142622 
L 401.253528 50.069443 
L 403.322052 51.263063 
L 405.400879 52.729333 
L 407.490456 54.476421 
L 409.591244 56.515054 
L 411.703724 58.858876 
L 414.022173 61.78398 
L 416.355815 65.120372 
L 418.705363 68.902992 
L 421.071567 73.176032 
L 423.255892 77.571683 
L 425.455514 82.482036 
L 427.671102 87.97828 
L 429.903363 94.153652 
L 431.947783 100.46147 
L 434.007183 107.561361 
L 435.87396 114.773987 
L 437.753842 122.954753 
L 439.436251 131.253339 
L 441.129769 140.809842 
L 442.621009 150.548059 
L 443.906418 160.29498 
L 445.198657 171.875108 
L 446.280871 183.594913 
L 447.15022 195.065424 
L 448.02281 209.618279 
L 448.679414 224.155109 
L 449.118193 237.161286 
L 449.557815 255.860756 
L 449.777945 269.976855 
L 449.998288 292.661843 
L 450.218846 334.315934 
L 450.66061 275.091329 
L 451.103244 256.226096 
L 451.546756 246.623086 
L 451.991154 241.103956 
L 452.436447 238.073067 
L 452.659431 237.27385 
L 452.882642 236.896002 
L 453.10608 236.921134 
L 453.329748 237.346334 
L 453.553645 238.183802 
L 454.002133 241.231842 
L 454.451554 246.597474 
L 454.901915 255.604109 
L 455.353226 272.242534 
L 455.579241 287.983812 
L 455.805496 322.87119 
L 456.031994 311.547918 
L 456.485719 264.101449 
L 456.940426 243.864331 
L 457.624348 225.066598 
L 458.310532 211.97379 
L 459.22902 198.835146 
L 460.151669 188.541545 
L 461.310957 178.142736 
L 462.477041 169.582701 
L 463.885554 160.998168 
L 465.304411 153.758589 
L 466.733935 147.537187 
L 468.415649 141.283993 
L 470.112911 135.896946 
L 471.82632 131.216891 
L 473.556511 127.129332 
L 475.304154 123.549186 
L 477.069964 120.411613 
L 478.8547 117.666215 
L 480.659169 115.273225 
L 482.484234 113.200909 
L 484.330816 111.423747 
L 486.199902 109.921146 
L 488.092549 108.676487 
L 490.009896 107.676446 
L 491.953169 106.910474 
L 493.923689 106.370429 
L 495.922891 106.050303 
L 497.95233 105.946034 
L 500.013697 106.055391 
L 502.108842 106.377922 
L 504.239786 106.914955 
L 506.408755 107.669672 
L 508.937296 108.805486 
L 511.522802 110.243721 
L 514.169895 112.000055 
L 516.883831 114.095515 
L 519.670632 116.557858 
L 522.537249 119.423609 
L 525.117344 122.299707 
L 527.771032 125.563992 
L 530.505643 129.272398 
L 533.329779 133.50008 
L 535.829409 137.614784 
L 538.409885 142.277345 
L 541.080206 147.615367 
L 543.38181 152.712047 
L 545.760666 158.565184 
L 547.725245 163.948401 
L 549.750194 170.145547 
L 551.841739 177.420658 
L 553.458477 183.811459 
L 555.120407 191.230956 
L 556.831703 199.835126 
L 559.19873 212.157343 
L 559.807126 214.700893 
L 560.422655 216.582185 
L 561.045582 217.55398 
L 561.676188 217.490219 
L 562.314774 216.452197 
L 562.961657 214.655344 
L 564.281708 209.831236 
L 566.333377 202.126785 
L 567.754188 197.509476 
L 569.222476 193.434085 
L 570.743455 189.864483 
L 572.323365 186.738492 
L 573.969782 183.994775 
L 575.692048 181.580183 
L 577.501913 179.450665 
L 579.414503 177.570265 
L 581.44986 175.909745 
L 583.635512 174.445301 
L 586.011099 173.157494 
L 588.637468 172.030408 
L 591.617066 171.050984 
L 595.149682 170.208509 
L 599.751198 169.494217 
L 603.003791 169.182858 
L 603.003791 169.182858 
" clip-path="url(#p392a7b9d55)" style="fill: none; stroke: #000000; stroke-width: 1.5; stroke-linecap: square"/>
   </g>
   <g id="line2d_41">
    <path d="M 114.854062 343.639219 
L 114.854062 10.999219 
" clip-path="url(#p392a7b9d55)" style="fill: none; stroke-dasharray: 7.4,3.2; stroke-dashoffset: 0; stroke: #ff0000; stroke-width: 2"/>
   </g>
   <g id="line2d_42">
    <path d="M 269.854062 343.639219 
L 269.854062 10.999219 
" clip-path="url(#p392a7b9d55)" style="fill: none; stroke-dasharray: 7.4,3.2; stroke-dashoffset: 0; stroke: #ff0000; stroke-width: 2"/>
   </g>
   <g id="line2d_43">
    <path d="M 455.854062 343.639219 
L 455.854062 10.999219 
" clip-path="url(#p392a7b9d55)" style="fill: none; stroke-dasharray: 7.4,3.2; stroke-dashoffset: 0; stroke: #ff0000; stroke-width: 2"/>
   </g>
   <g id="line2d_44">
    <path d="M 393.854062 343.639219 
L 393.854062 10.999219 
" clip-path="url(#p392a7b9d55)" style="fill: none; stroke-dasharray: 7.4,3.2; stroke-dashoffset: 0; stroke: #008000; stroke-width: 2"/>
   </g>
   <g id="patch_3">
    <path d="M 52.854063 343.639219 
L 52.854063 10.999219 
" style="fill: none; stroke: #000000; stroke-width: 0.8; stroke-linejoin: miter; stroke-linecap: square"/>
   </g>
   <g id="patch_4">
    <path d="M 610.854063 343.639219 
L 610.854063 10.999219 
" style="fill: none; stroke: #000000; stroke-width: 0.8; stroke-linejoin: miter; stroke-linecap: square"/>
   </g>
   <g id="patch_5">
    <path d="M 52.854062 343.639219 
L 610.854063 343.639219 
" style="fill: none; stroke: #000000; stroke-width: 0.8; stroke-linejoin: miter; stroke-linecap: square"/>
   </g>
   <g id="patch_6">
    <path d="M 52.854062 10.999219 
L 610.854063 10.999219 
" style="fill: none; stroke: #000000; stroke-width: 0.8; stroke-linejoin: miter; stroke-linecap: square"/>
   </g>
   <g id="legend_1">
    <g id="line2d_45">
     <path d="M 63.654063 26.717344 
L 75.654063 26.717344 
L 87.654063 26.717344 
" style="fill: none; stroke-dasharray: 1.5,2.475; stroke-dashoffset: 0; stroke: #0000ff; stroke-width: 1.5"/>
    </g>
    <g id="text_22">
     <!-- Conventional Pattern -->
     <g transform="translate(97.254063 30.917344) scale(0.12 -0.12)">
      <defs>
       <path id="DejaVuSans-43" d="M 4122 4306 
L 4122 3641 
Q 3803 3938 3442 4084 
Q 3081 4231 2675 4231 
Q 1875 4231 1450 3742 
Q 1025 3253 1025 2328 
Q 1025 1406 1450 917 
Q 1875 428 2675 428 
Q 3081 428 3442 575 
Q 3803 722 4122 1019 
L 4122 359 
Q 3791 134 3420 21 
Q 3050 -91 2638 -91 
Q 1578 -91 968 557 
Q 359 1206 359 2328 
Q 359 3453 968 4101 
Q 1578 4750 2638 4750 
Q 3056 4750 3426 4639 
Q 3797 4528 4122 4306 
z
" transform="scale(0.015625)"/>
       <path id="DejaVuSans-76" d="M 191 3500 
L 800 3500 
L 1894 563 
L 2988 3500 
L 3597 3500 
L 2284 0 
L 1503 0 
L 191 3500 
z
" transform="scale(0.015625)"/>
      </defs>
      <use xlink:href="#DejaVuSans-43"/>
      <use xlink:href="#DejaVuSans-6f" transform="translate(69.824219 0)"/>
      <use xlink:href="#DejaVuSans-6e" transform="translate(131.005859 0)"/>
      <use xlink:href="#DejaVuSans-76" transform="translate(194.384766 0)"/>
      <use xlink:href="#DejaVuSans-65" transform="translate(253.564453 0)"/>
      <use xlink:href="#DejaVuSans-6e" transform="translate(315.087891 0)"/>
      <use xlink:href="#DejaVuSans-74" transform="translate(378.466797 0)"/>
      <use xlink:href="#DejaVuSans-69" transform="translate(417.675781 0)"/>
      <use xlink:href="#DejaVuSans-6f" transform="translate(445.458984 0)"/>
      <use xlink:href="#DejaVuSans-6e" transform="translate(506.640625 0)"/>
      <use xlink:href="#DejaVuSans-61" transform="translate(570.019531 0)"/>
      <use xlink:href="#DejaVuSans-6c" transform="translate(631.298828 0)"/>
      <use xlink:href="#DejaVuSans-20" transform="translate(659.082031 0)"/>
      <use xlink:href="#DejaVuSans-50" transform="translate(690.869141 0)"/>
      <use xlink:href="#DejaVuSans-61" transform="translate(746.671875 0)"/>
      <use xlink:href="#DejaVuSans-74" transform="translate(807.951172 0)"/>
      <use xlink:href="#DejaVuSans-74" transform="translate(847.160156 0)"/>
      <use xlink:href="#DejaVuSans-65" transform="translate(886.369141 0)"/>
      <use xlink:href="#DejaVuSans-72" transform="translate(947.892578 0)"/>
      <use xlink:href="#DejaVuSans-6e" transform="translate(987.255859 0)"/>
     </g>
    </g>
    <g id="line2d_46">
     <path d="M 63.654063 44.331094 
L 75.654063 44.331094 
L 87.654063 44.331094 
" style="fill: none; stroke: #000000; stroke-width: 1.5; stroke-linecap: square"/>
    </g>
    <g id="text_23">
     <!-- MVDR Pattern -->
     <g transform="translate(97.254063 48.531094) scale(0.12 -0.12)">
      <defs>
       <path id="DejaVuSans-4d" d="M 628 4666 
L 1569 4666 
L 2759 1491 
L 3956 4666 
L 4897 4666 
L 4897 0 
L 4281 0 
L 4281 4097 
L 3078 897 
L 2444 897 
L 1241 4097 
L 1241 0 
L 628 0 
L 628 4666 
z
" transform="scale(0.015625)"/>
       <path id="DejaVuSans-56" d="M 1831 0 
L 50 4666 
L 709 4666 
L 2188 738 
L 3669 4666 
L 4325 4666 
L 2547 0 
L 1831 0 
z
" transform="scale(0.015625)"/>
       <path id="DejaVuSans-44" d="M 1259 4147 
L 1259 519 
L 2022 519 
Q 2988 519 3436 956 
Q 3884 1394 3884 2338 
Q 3884 3275 3436 3711 
Q 2988 4147 2022 4147 
L 1259 4147 
z
M 628 4666 
L 1925 4666 
Q 3281 4666 3915 4102 
Q 4550 3538 4550 2338 
Q 4550 1131 3912 565 
Q 3275 0 1925 0 
L 628 0 
L 628 4666 
z
" transform="scale(0.015625)"/>
       <path id="DejaVuSans-52" d="M 2841 2188 
Q 3044 2119 3236 1894 
Q 3428 1669 3622 1275 
L 4263 0 
L 3584 0 
L 2988 1197 
Q 2756 1666 2539 1819 
Q 2322 1972 1947 1972 
L 1259 1972 
L 1259 0 
L 628 0 
L 628 4666 
L 2053 4666 
Q 2853 4666 3247 4331 
Q 3641 3997 3641 3322 
Q 3641 2881 3436 2590 
Q 3231 2300 2841 2188 
z
M 1259 4147 
L 1259 2491 
L 2053 2491 
Q 2509 2491 2742 2702 
Q 2975 2913 2975 3322 
Q 2975 3731 2742 3939 
Q 2509 4147 2053 4147 
L 1259 4147 
z
" transform="scale(0.015625)"/>
      </defs>
      <use xlink:href="#DejaVuSans-4d"/>
      <use xlink:href="#DejaVuSans-56" transform="translate(86.279297 0)"/>
      <use xlink:href="#DejaVuSans-44" transform="translate(154.6875 0)"/>
      <use xlink:href="#DejaVuSans-52" transform="translate(231.689453 0)"/>
      <use xlink:href="#DejaVuSans-20" transform="translate(301.171875 0)"/>
      <use xlink:href="#DejaVuSans-50" transform="translate(332.958984 0)"/>
      <use xlink:href="#DejaVuSans-61" transform="translate(388.761719 0)"/>
      <use xlink:href="#DejaVuSans-74" transform="translate(450.041016 0)"/>
      <use xlink:href="#DejaVuSans-74" transform="translate(489.25 0)"/>
      <use xlink:href="#DejaVuSans-65" transform="translate(528.458984 0)"/>
      <use xlink:href="#DejaVuSans-72" transform="translate(589.982422 0)"/>
      <use xlink:href="#DejaVuSans-6e" transform="translate(629.345703 0)"/>
     </g>
    </g>
   </g>
  </g>
 </g>
 <defs>
  <clipPath id="p392a7b9d55">
   <rect x="52.854063" y="10.999219" width="558" height="332.64"/>
  </clipPath>
 </defs>
</svg>
