<?xml version="1.0" encoding="utf-8" standalone="no"?>
<!DOCTYPE svg PUBLIC "-//W3C//DTD SVG 1.1//EN"
  "http://www.w3.org/Graphics/SVG/1.1/DTD/svg11.dtd">
<svg xmlns:xlink="http://www.w3.org/1999/xlink" width="329.41825pt" height="318.190125pt" viewBox="0 0 329.41825 318.190125" xmlns="http://www.w3.org/2000/svg" version="1.1">
 <metadata>
  <rdf:RDF xmlns:dc="http://purl.org/dc/elements/1.1/" xmlns:cc="http://creativecommons.org/ns#" xmlns:rdf="http://www.w3.org/1999/02/22-rdf-syntax-ns#">
   <cc:Work>
    <dc:type rdf:resource="http://purl.org/dc/dcmitype/StillImage"/>
    <dc:date>2024-01-22T23:19:21.800432</dc:date>
    <dc:format>image/svg+xml</dc:format>
    <dc:creator>
     <cc:Agent>
      <dc:title>Matplotlib v3.8.0, https://matplotlib.org/</dc:title>
     </cc:Agent>
    </dc:creator>
   </cc:Work>
  </rdf:RDF>
 </metadata>
 <defs>
  <style type="text/css">*{stroke-linejoin: round; stroke-linecap: butt}</style>
 </defs>
 <g id="figure_1">
  <g id="patch_1">
   <path d="M 0 318.190125 
L 329.41825 318.190125 
L 329.41825 0 
L 0 0 
z
" style="fill: #ffffff"/>
  </g>
  <g id="axes_1">
   <g id="patch_2">
    <path d="M 299.35575 159.095062 
C 299.35575 141.622309 295.913998 124.319455 289.227465 108.176736 
C 282.540932 92.034016 272.739653 77.365365 260.38455 65.010263 
C 248.029447 52.65516 233.360796 42.853881 217.218077 36.167347 
C 201.075357 29.480814 183.772504 26.039062 166.29975 26.039062 
C 148.826996 26.039062 131.524143 29.480814 115.381423 36.167347 
C 99.238704 42.853881 84.570053 52.65516 72.21495 65.010263 
C 59.859847 77.365365 50.058568 92.034016 43.372035 108.176736 
C 36.685502 124.319455 33.24375 141.622309 33.24375 159.095062 
C 33.24375 176.567816 36.685502 193.87067 43.372035 210.013389 
C 50.058568 226.156109 59.859847 240.82476 72.21495 253.179862 
C 84.570053 265.534965 99.238704 275.336244 115.381423 282.022778 
C 131.524143 288.709311 148.826996 292.151062 166.29975 292.151062 
C 183.772504 292.151062 201.075357 288.709311 217.218077 282.022778 
C 233.360796 275.336244 248.029447 265.534965 260.38455 253.179862 
C 272.739653 240.82476 282.540932 226.156109 289.227465 210.013389 
C 295.913998 193.87067 299.35575 176.567816 299.35575 159.095062 
M 166.29975 159.095062 
C 166.29975 159.095062 166.29975 159.095062 166.29975 159.095062 
C 166.29975 159.095062 166.29975 159.095062 166.29975 159.095062 
C 166.29975 159.095062 166.29975 159.095062 166.29975 159.095062 
C 166.29975 159.095062 166.29975 159.095062 166.29975 159.095062 
C 166.29975 159.095062 166.29975 159.095062 166.29975 159.095062 
C 166.29975 159.095062 166.29975 159.095062 166.29975 159.095062 
C 166.29975 159.095062 166.29975 159.095062 166.29975 159.095062 
C 166.29975 159.095062 166.29975 159.095062 166.29975 159.095062 
C 166.29975 159.095062 166.29975 159.095062 166.29975 159.095062 
C 166.29975 159.095062 166.29975 159.095062 166.29975 159.095062 
C 166.29975 159.095062 166.29975 159.095062 166.29975 159.095062 
C 166.29975 159.095062 166.29975 159.095062 166.29975 159.095062 
C 166.29975 159.095062 166.29975 159.095062 166.29975 159.095062 
C 166.29975 159.095062 166.29975 159.095062 166.29975 159.095062 
C 166.29975 159.095062 166.29975 159.095062 166.29975 159.095062 
C 166.29975 159.095062 166.29975 159.095062 166.29975 159.095062 
z
" style="fill: #ffffff"/>
   </g>
   <g id="matplotlib.axis_1">
    <g id="xtick_1">
     <g id="line2d_1">
      <path d="M 166.29975 159.095062 
L 166.29975 26.039062 
" clip-path="url(#pb7cff22fe9)" style="fill: none; stroke: #b0b0b0; stroke-width: 0.8; stroke-linecap: square"/>
     </g>
     <g id="text_1">
      <!-- 0° -->
      <g transform="translate(160.6185 14.798437) scale(0.1 -0.1)">
       <defs>
        <path id="DejaVuSans-30" d="M 2034 4250 
Q 1547 4250 1301 3770 
Q 1056 3291 1056 2328 
Q 1056 1369 1301 889 
Q 1547 409 2034 409 
Q 2525 409 2770 889 
Q 3016 1369 3016 2328 
Q 3016 3291 2770 3770 
Q 2525 4250 2034 4250 
z
M 2034 4750 
Q 2819 4750 3233 4129 
Q 3647 3509 3647 2328 
Q 3647 1150 3233 529 
Q 2819 -91 2034 -91 
Q 1250 -91 836 529 
Q 422 1150 422 2328 
Q 422 3509 836 4129 
Q 1250 4750 2034 4750 
z
" transform="scale(0.015625)"/>
        <path id="DejaVuSans-b0" d="M 1600 4347 
Q 1350 4347 1178 4173 
Q 1006 4000 1006 3750 
Q 1006 3503 1178 3333 
Q 1350 3163 1600 3163 
Q 1850 3163 2022 3333 
Q 2194 3503 2194 3750 
Q 2194 3997 2020 4172 
Q 1847 4347 1600 4347 
z
M 1600 4750 
Q 1800 4750 1984 4673 
Q 2169 4597 2303 4453 
Q 2447 4313 2519 4134 
Q 2591 3956 2591 3750 
Q 2591 3338 2302 3052 
Q 2013 2766 1594 2766 
Q 1172 2766 890 3047 
Q 609 3328 609 3750 
Q 609 4169 896 4459 
Q 1184 4750 1600 4750 
z
" transform="scale(0.015625)"/>
       </defs>
       <use xlink:href="#DejaVuSans-30"/>
       <use xlink:href="#DejaVuSans-b0" x="63.623047"/>
      </g>
     </g>
    </g>
    <g id="xtick_2">
     <g id="line2d_2">
      <path d="M 166.29975 159.095062 
L 260.38455 65.010263 
" clip-path="url(#pb7cff22fe9)" style="fill: none; stroke: #b0b0b0; stroke-width: 0.8; stroke-linecap: square"/>
     </g>
     <g id="text_2">
      <!-- 45° -->
      <g transform="translate(261.421545 57.870143) scale(0.1 -0.1)">
       <defs>
        <path id="DejaVuSans-34" d="M 2419 4116 
L 825 1625 
L 2419 1625 
L 2419 4116 
z
M 2253 4666 
L 3047 4666 
L 3047 1625 
L 3713 1625 
L 3713 1100 
L 3047 1100 
L 3047 0 
L 2419 0 
L 2419 1100 
L 313 1100 
L 313 1709 
L 2253 4666 
z
" transform="scale(0.015625)"/>
        <path id="DejaVuSans-35" d="M 691 4666 
L 3169 4666 
L 3169 4134 
L 1269 4134 
L 1269 2991 
Q 1406 3038 1543 3061 
Q 1681 3084 1819 3084 
Q 2600 3084 3056 2656 
Q 3513 2228 3513 1497 
Q 3513 744 3044 326 
Q 2575 -91 1722 -91 
Q 1428 -91 1123 -41 
Q 819 9 494 109 
L 494 744 
Q 775 591 1075 516 
Q 1375 441 1709 441 
Q 2250 441 2565 725 
Q 2881 1009 2881 1497 
Q 2881 1984 2565 2268 
Q 2250 2553 1709 2553 
Q 1456 2553 1204 2497 
Q 953 2441 691 2322 
L 691 4666 
z
" transform="scale(0.015625)"/>
       </defs>
       <use xlink:href="#DejaVuSans-34"/>
       <use xlink:href="#DejaVuSans-35" x="63.623047"/>
       <use xlink:href="#DejaVuSans-b0" x="127.246094"/>
      </g>
     </g>
    </g>
    <g id="xtick_3">
     <g id="line2d_3">
      <path d="M 166.29975 159.095062 
L 299.35575 159.095062 
" clip-path="url(#pb7cff22fe9)" style="fill: none; stroke: #b0b0b0; stroke-width: 0.8; stroke-linecap: square"/>
     </g>
     <g id="text_3">
      <!-- 90° -->
      <g transform="translate(304.49325 161.854437) scale(0.1 -0.1)">
       <defs>
        <path id="DejaVuSans-39" d="M 703 97 
L 703 672 
Q 941 559 1184 500 
Q 1428 441 1663 441 
Q 2288 441 2617 861 
Q 2947 1281 2994 2138 
Q 2813 1869 2534 1725 
Q 2256 1581 1919 1581 
Q 1219 1581 811 2004 
Q 403 2428 403 3163 
Q 403 3881 828 4315 
Q 1253 4750 1959 4750 
Q 2769 4750 3195 4129 
Q 3622 3509 3622 2328 
Q 3622 1225 3098 567 
Q 2575 -91 1691 -91 
Q 1453 -91 1209 -44 
Q 966 3 703 97 
z
M 1959 2075 
Q 2384 2075 2632 2365 
Q 2881 2656 2881 3163 
Q 2881 3666 2632 3958 
Q 2384 4250 1959 4250 
Q 1534 4250 1286 3958 
Q 1038 3666 1038 3163 
Q 1038 2656 1286 2365 
Q 1534 2075 1959 2075 
z
" transform="scale(0.015625)"/>
       </defs>
       <use xlink:href="#DejaVuSans-39"/>
       <use xlink:href="#DejaVuSans-30" x="63.623047"/>
       <use xlink:href="#DejaVuSans-b0" x="127.246094"/>
      </g>
     </g>
    </g>
    <g id="xtick_4">
     <g id="line2d_4">
      <path d="M 166.29975 159.095062 
L 260.38455 253.179862 
" clip-path="url(#pb7cff22fe9)" style="fill: none; stroke: #b0b0b0; stroke-width: 0.8; stroke-linecap: square"/>
     </g>
     <g id="text_4">
      <!-- 135° -->
      <g transform="translate(258.240295 265.838732) scale(0.1 -0.1)">
       <defs>
        <path id="DejaVuSans-31" d="M 794 531 
L 1825 531 
L 1825 4091 
L 703 3866 
L 703 4441 
L 1819 4666 
L 2450 4666 
L 2450 531 
L 3481 531 
L 3481 0 
L 794 0 
L 794 531 
z
" transform="scale(0.015625)"/>
        <path id="DejaVuSans-33" d="M 2597 2516 
Q 3050 2419 3304 2112 
Q 3559 1806 3559 1356 
Q 3559 666 3084 287 
Q 2609 -91 1734 -91 
Q 1441 -91 1130 -33 
Q 819 25 488 141 
L 488 750 
Q 750 597 1062 519 
Q 1375 441 1716 441 
Q 2309 441 2620 675 
Q 2931 909 2931 1356 
Q 2931 1769 2642 2001 
Q 2353 2234 1838 2234 
L 1294 2234 
L 1294 2753 
L 1863 2753 
Q 2328 2753 2575 2939 
Q 2822 3125 2822 3475 
Q 2822 3834 2567 4026 
Q 2313 4219 1838 4219 
Q 1578 4219 1281 4162 
Q 984 4106 628 3988 
L 628 4550 
Q 988 4650 1302 4700 
Q 1616 4750 1894 4750 
Q 2613 4750 3031 4423 
Q 3450 4097 3450 3541 
Q 3450 3153 3228 2886 
Q 3006 2619 2597 2516 
z
" transform="scale(0.015625)"/>
       </defs>
       <use xlink:href="#DejaVuSans-31"/>
       <use xlink:href="#DejaVuSans-33" x="63.623047"/>
       <use xlink:href="#DejaVuSans-35" x="127.246094"/>
       <use xlink:href="#DejaVuSans-b0" x="190.869141"/>
      </g>
     </g>
    </g>
    <g id="xtick_5">
     <g id="line2d_5">
      <path d="M 166.29975 159.095062 
L 166.29975 292.151062 
" clip-path="url(#pb7cff22fe9)" style="fill: none; stroke: #b0b0b0; stroke-width: 0.8; stroke-linecap: square"/>
     </g>
     <g id="text_5">
      <!-- 180° -->
      <g transform="translate(154.256 308.910437) scale(0.1 -0.1)">
       <defs>
        <path id="DejaVuSans-38" d="M 2034 2216 
Q 1584 2216 1326 1975 
Q 1069 1734 1069 1313 
Q 1069 891 1326 650 
Q 1584 409 2034 409 
Q 2484 409 2743 651 
Q 3003 894 3003 1313 
Q 3003 1734 2745 1975 
Q 2488 2216 2034 2216 
z
M 1403 2484 
Q 997 2584 770 2862 
Q 544 3141 544 3541 
Q 544 4100 942 4425 
Q 1341 4750 2034 4750 
Q 2731 4750 3128 4425 
Q 3525 4100 3525 3541 
Q 3525 3141 3298 2862 
Q 3072 2584 2669 2484 
Q 3125 2378 3379 2068 
Q 3634 1759 3634 1313 
Q 3634 634 3220 271 
Q 2806 -91 2034 -91 
Q 1263 -91 848 271 
Q 434 634 434 1313 
Q 434 1759 690 2068 
Q 947 2378 1403 2484 
z
M 1172 3481 
Q 1172 3119 1398 2916 
Q 1625 2713 2034 2713 
Q 2441 2713 2670 2916 
Q 2900 3119 2900 3481 
Q 2900 3844 2670 4047 
Q 2441 4250 2034 4250 
Q 1625 4250 1398 4047 
Q 1172 3844 1172 3481 
z
" transform="scale(0.015625)"/>
       </defs>
       <use xlink:href="#DejaVuSans-31"/>
       <use xlink:href="#DejaVuSans-38" x="63.623047"/>
       <use xlink:href="#DejaVuSans-30" x="127.246094"/>
       <use xlink:href="#DejaVuSans-b0" x="190.869141"/>
      </g>
     </g>
    </g>
    <g id="xtick_6">
     <g id="line2d_6">
      <path d="M 166.29975 159.095062 
L 72.21495 253.179862 
" clip-path="url(#pb7cff22fe9)" style="fill: none; stroke: #b0b0b0; stroke-width: 0.8; stroke-linecap: square"/>
     </g>
     <g id="text_6">
      <!-- 225° -->
      <g transform="translate(50.271705 265.838732) scale(0.1 -0.1)">
       <defs>
        <path id="DejaVuSans-32" d="M 1228 531 
L 3431 531 
L 3431 0 
L 469 0 
L 469 531 
Q 828 903 1448 1529 
Q 2069 2156 2228 2338 
Q 2531 2678 2651 2914 
Q 2772 3150 2772 3378 
Q 2772 3750 2511 3984 
Q 2250 4219 1831 4219 
Q 1534 4219 1204 4116 
Q 875 4013 500 3803 
L 500 4441 
Q 881 4594 1212 4672 
Q 1544 4750 1819 4750 
Q 2544 4750 2975 4387 
Q 3406 4025 3406 3419 
Q 3406 3131 3298 2873 
Q 3191 2616 2906 2266 
Q 2828 2175 2409 1742 
Q 1991 1309 1228 531 
z
" transform="scale(0.015625)"/>
       </defs>
       <use xlink:href="#DejaVuSans-32"/>
       <use xlink:href="#DejaVuSans-32" x="63.623047"/>
       <use xlink:href="#DejaVuSans-35" x="127.246094"/>
       <use xlink:href="#DejaVuSans-b0" x="190.869141"/>
      </g>
     </g>
    </g>
    <g id="xtick_7">
     <g id="line2d_7">
      <path d="M 166.29975 159.095062 
L 33.24375 159.095062 
" clip-path="url(#pb7cff22fe9)" style="fill: none; stroke: #b0b0b0; stroke-width: 0.8; stroke-linecap: square"/>
     </g>
     <g id="text_7">
      <!-- 270° -->
      <g transform="translate(7.2 161.854437) scale(0.1 -0.1)">
       <defs>
        <path id="DejaVuSans-37" d="M 525 4666 
L 3525 4666 
L 3525 4397 
L 1831 0 
L 1172 0 
L 2766 4134 
L 525 4134 
L 525 4666 
z
" transform="scale(0.015625)"/>
       </defs>
       <use xlink:href="#DejaVuSans-32"/>
       <use xlink:href="#DejaVuSans-37" x="63.623047"/>
       <use xlink:href="#DejaVuSans-30" x="127.246094"/>
       <use xlink:href="#DejaVuSans-b0" x="190.869141"/>
      </g>
     </g>
    </g>
    <g id="xtick_8">
     <g id="line2d_8">
      <path d="M 166.29975 159.095062 
L 72.21495 65.010263 
" clip-path="url(#pb7cff22fe9)" style="fill: none; stroke: #b0b0b0; stroke-width: 0.8; stroke-linecap: square"/>
     </g>
     <g id="text_8">
      <!-- 315° -->
      <g transform="translate(50.271705 57.870143) scale(0.1 -0.1)">
       <use xlink:href="#DejaVuSans-33"/>
       <use xlink:href="#DejaVuSans-31" x="63.623047"/>
       <use xlink:href="#DejaVuSans-35" x="127.246094"/>
       <use xlink:href="#DejaVuSans-b0" x="190.869141"/>
      </g>
     </g>
    </g>
   </g>
   <g id="matplotlib.axis_2">
    <g id="ytick_1">
     <g id="line2d_9">
      <path d="M 166.29975 144.901801 
C 168.163592 144.901801 170.00931 145.268938 171.731276 145.982199 
C 173.453241 146.69546 175.017966 147.740976 176.335901 149.058911 
C 177.653837 150.376847 178.699352 151.941571 179.412614 153.663537 
C 180.125875 155.385502 180.493011 157.231221 180.493011 159.095062 
C 180.493011 160.958904 180.125875 162.804623 179.412614 164.526588 
C 178.699352 166.248554 177.653837 167.813278 176.335901 169.131214 
C 175.017966 170.449149 173.453241 171.494665 171.731276 172.207926 
C 170.00931 172.921187 168.163592 173.288324 166.29975 173.288324 
C 164.435908 173.288324 162.59019 172.921187 160.868224 172.207926 
C 159.146259 171.494665 157.581534 170.449149 156.263599 169.131214 
C 154.945663 167.813278 153.900148 166.248554 153.186886 164.526588 
C 152.473625 162.804623 152.106489 160.958904 152.106489 159.095062 
C 152.106489 157.231221 152.473625 155.385502 153.186886 153.663537 
C 153.900148 151.941571 154.945663 150.376847 156.263599 149.058911 
C 157.581534 147.740976 159.146259 146.69546 160.868224 145.982199 
C 162.59019 145.268938 164.435908 144.901801 166.29975 144.901801 
" clip-path="url(#pb7cff22fe9)" style="fill: none; stroke: #b0b0b0; stroke-width: 0.8; stroke-linecap: square"/>
     </g>
     <g id="text_9">
      <!-- −30 -->
      <g transform="translate(173.396381 144.72365) scale(0.1 -0.1)">
       <defs>
        <path id="DejaVuSans-2212" d="M 678 2272 
L 4684 2272 
L 4684 1741 
L 678 1741 
L 678 2272 
z
" transform="scale(0.015625)"/>
       </defs>
       <use xlink:href="#DejaVuSans-2212"/>
       <use xlink:href="#DejaVuSans-33" x="83.789062"/>
       <use xlink:href="#DejaVuSans-30" x="147.412109"/>
      </g>
     </g>
    </g>
    <g id="ytick_2">
     <g id="line2d_10">
      <path d="M 166.29975 125.091345 
C 170.765077 125.091345 175.186985 125.970917 179.312409 127.679724 
C 183.437834 129.388531 187.186546 131.89334 190.344009 135.050803 
C 193.501473 138.208266 196.006282 141.956979 197.715089 146.082403 
C 199.423896 150.207828 200.303468 154.629735 200.303468 159.095062 
C 200.303468 163.56039 199.423896 167.982297 197.715089 172.107722 
C 196.006282 176.233146 193.501473 179.981859 190.344009 183.139322 
C 187.186546 186.296785 183.437834 188.801594 179.312409 190.510401 
C 175.186985 192.219208 170.765077 193.09878 166.29975 193.09878 
C 161.834423 193.09878 157.412515 192.219208 153.287091 190.510401 
C 149.161666 188.801594 145.412954 186.296785 142.255491 183.139322 
C 139.098027 179.981859 136.593218 176.233146 134.884411 172.107722 
C 133.175604 167.982297 132.296032 163.56039 132.296032 159.095062 
C 132.296032 154.629735 133.175604 150.207828 134.884411 146.082403 
C 136.593218 141.956979 139.098027 138.208266 142.255491 135.050803 
C 145.412954 131.89334 149.161666 129.388531 153.287091 127.679724 
C 157.412515 125.970917 161.834423 125.091345 166.29975 125.091345 
" clip-path="url(#pb7cff22fe9)" style="fill: none; stroke: #b0b0b0; stroke-width: 0.8; stroke-linecap: square"/>
     </g>
     <g id="text_10">
      <!-- −25 -->
      <g transform="translate(183.301609 127.567292) scale(0.1 -0.1)">
       <use xlink:href="#DejaVuSans-2212"/>
       <use xlink:href="#DejaVuSans-32" x="83.789062"/>
       <use xlink:href="#DejaVuSans-35" x="147.412109"/>
      </g>
     </g>
    </g>
    <g id="ytick_3">
     <g id="line2d_11">
      <path d="M 166.29975 105.280888 
C 173.366563 105.280888 180.364659 106.672896 186.893543 109.377248 
C 193.422426 112.081601 199.355126 116.045704 204.352117 121.042695 
C 209.349109 126.039686 213.313212 131.972386 216.017564 138.50127 
C 218.721916 145.030153 220.113924 152.02825 220.113924 159.095062 
C 220.113924 166.161875 218.721916 173.159972 216.017564 179.688855 
C 213.313212 186.217739 209.349109 192.150439 204.352117 197.14743 
C 199.355126 202.144421 193.422426 206.108524 186.893543 208.812877 
C 180.364659 211.517229 173.366563 212.909237 166.29975 212.909237 
C 159.232937 212.909237 152.234841 211.517229 145.705957 208.812877 
C 139.177074 206.108524 133.244374 202.144421 128.247383 197.14743 
C 123.250391 192.150439 119.286288 186.217739 116.581936 179.688855 
C 113.877584 173.159972 112.485576 166.161875 112.485576 159.095062 
C 112.485576 152.02825 113.877584 145.030153 116.581936 138.50127 
C 119.286288 131.972386 123.250391 126.039686 128.247383 121.042695 
C 133.244374 116.045704 139.177074 112.081601 145.705957 109.377248 
C 152.234841 106.672896 159.232937 105.280888 166.29975 105.280888 
" clip-path="url(#pb7cff22fe9)" style="fill: none; stroke: #b0b0b0; stroke-width: 0.8; stroke-linecap: square"/>
     </g>
     <g id="text_11">
      <!-- −20 -->
      <g transform="translate(193.206837 110.410933) scale(0.1 -0.1)">
       <use xlink:href="#DejaVuSans-2212"/>
       <use xlink:href="#DejaVuSans-32" x="83.789062"/>
       <use xlink:href="#DejaVuSans-30" x="147.412109"/>
      </g>
     </g>
    </g>
    <g id="ytick_4">
     <g id="line2d_12">
      <path d="M 166.29975 85.470432 
C 175.968048 85.470432 185.542334 87.374876 194.474676 91.074773 
C 203.407019 94.774671 211.523707 100.198068 218.360226 107.034587 
C 225.196745 113.871106 230.620142 121.987794 234.320039 130.920136 
C 238.019937 139.852479 239.924381 149.426765 239.924381 159.095062 
C 239.924381 168.76336 238.019937 178.337646 234.320039 187.269989 
C 230.620142 196.202331 225.196745 204.319019 218.360226 211.155538 
C 211.523707 217.992057 203.407019 223.415454 194.474676 227.115352 
C 185.542334 230.815249 175.968048 232.719693 166.29975 232.719693 
C 156.631452 232.719693 147.057166 230.815249 138.124824 227.115352 
C 129.192481 223.415454 121.075793 217.992057 114.239274 211.155538 
C 107.402755 204.319019 101.979358 196.202331 98.279461 187.269989 
C 94.579563 178.337646 92.675119 168.76336 92.675119 159.095062 
C 92.675119 149.426765 94.579563 139.852479 98.279461 130.920136 
C 101.979358 121.987794 107.402755 113.871106 114.239274 107.034587 
C 121.075793 100.198068 129.192481 94.774671 138.124824 91.074773 
C 147.057166 87.374876 156.631452 85.470432 166.29975 85.470432 
" clip-path="url(#pb7cff22fe9)" style="fill: none; stroke: #b0b0b0; stroke-width: 0.8; stroke-linecap: square"/>
     </g>
     <g id="text_12">
      <!-- −15 -->
      <g transform="translate(203.112065 93.254575) scale(0.1 -0.1)">
       <use xlink:href="#DejaVuSans-2212"/>
       <use xlink:href="#DejaVuSans-31" x="83.789062"/>
       <use xlink:href="#DejaVuSans-35" x="147.412109"/>
      </g>
     </g>
    </g>
    <g id="ytick_5">
     <g id="line2d_13">
      <path d="M 166.29975 65.659975 
C 178.569533 65.659975 190.720008 68.076855 202.05581 72.772298 
C 213.391611 77.467741 223.692287 84.350432 232.368334 93.026479 
C 241.044381 101.702526 247.927072 112.003201 252.622515 123.339003 
C 257.317957 134.674804 259.734837 146.825279 259.734837 159.095062 
C 259.734837 171.364846 257.317957 183.515321 252.622515 194.851122 
C 247.927072 206.186924 241.044381 216.487599 232.368334 225.163646 
C 223.692287 233.839693 213.391611 240.722384 202.05581 245.417827 
C 190.720008 250.11327 178.569533 252.53015 166.29975 252.53015 
C 154.029967 252.53015 141.879492 250.11327 130.54369 245.417827 
C 119.207889 240.722384 108.907213 233.839693 100.231166 225.163646 
C 91.555119 216.487599 84.672428 206.186924 79.976985 194.851122 
C 75.281543 183.515321 72.864663 171.364846 72.864663 159.095062 
C 72.864663 146.825279 75.281543 134.674804 79.976985 123.339003 
C 84.672428 112.003201 91.555119 101.702526 100.231166 93.026479 
C 108.907213 84.350432 119.207889 77.467741 130.54369 72.772298 
C 141.879492 68.076855 154.029967 65.659975 166.29975 65.659975 
" clip-path="url(#pb7cff22fe9)" style="fill: none; stroke: #b0b0b0; stroke-width: 0.8; stroke-linecap: square"/>
     </g>
     <g id="text_13">
      <!-- −10 -->
      <g transform="translate(213.017294 76.098216) scale(0.1 -0.1)">
       <use xlink:href="#DejaVuSans-2212"/>
       <use xlink:href="#DejaVuSans-31" x="83.789062"/>
       <use xlink:href="#DejaVuSans-30" x="147.412109"/>
      </g>
     </g>
    </g>
    <g id="ytick_6">
     <g id="line2d_14">
      <path d="M 166.29975 45.849519 
C 181.171019 45.849519 195.897683 48.778835 209.636943 54.469823 
C 223.376204 60.160811 235.860867 68.502796 246.376442 79.018371 
C 256.892017 89.533946 265.234002 102.018609 270.92499 115.757869 
C 276.615978 129.49713 279.545294 144.223794 279.545294 159.095062 
C 279.545294 173.966331 276.615978 188.692995 270.92499 202.432256 
C 265.234002 216.171516 256.892017 228.656179 246.376442 239.171754 
C 235.860867 249.687329 223.376204 258.029314 209.636943 263.720302 
C 195.897683 269.41129 181.171019 272.340606 166.29975 272.340606 
C 151.428481 272.340606 136.701817 269.41129 122.962557 263.720302 
C 109.223296 258.029314 96.738633 249.687329 86.223058 239.171754 
C 75.707483 228.656179 67.365498 216.171516 61.67451 202.432256 
C 55.983522 188.692995 53.054206 173.966331 53.054206 159.095062 
C 53.054206 144.223794 55.983522 129.49713 61.67451 115.757869 
C 67.365498 102.018609 75.707483 89.533946 86.223058 79.018371 
C 96.738633 68.502796 109.223296 60.160811 122.962557 54.469823 
C 136.701817 48.778835 151.428481 45.849519 166.29975 45.849519 
" clip-path="url(#pb7cff22fe9)" style="fill: none; stroke: #b0b0b0; stroke-width: 0.8; stroke-linecap: square"/>
     </g>
     <g id="text_14">
      <!-- −5 -->
      <g transform="translate(222.922522 58.941857) scale(0.1 -0.1)">
       <use xlink:href="#DejaVuSans-2212"/>
       <use xlink:href="#DejaVuSans-35" x="83.789062"/>
      </g>
     </g>
    </g>
    <g id="ytick_7">
     <g id="line2d_15">
      <path d="M 166.29975 26.039062 
C 183.772504 26.039062 201.075357 29.480814 217.218077 36.167347 
C 233.360796 42.853881 248.029447 52.65516 260.38455 65.010263 
C 272.739653 77.365365 282.540932 92.034016 289.227465 108.176736 
C 295.913998 124.319455 299.35575 141.622309 299.35575 159.095062 
C 299.35575 176.567816 295.913998 193.87067 289.227465 210.013389 
C 282.540932 226.156109 272.739653 240.82476 260.38455 253.179862 
C 248.029447 265.534965 233.360796 275.336244 217.218077 282.022778 
C 201.075357 288.709311 183.772504 292.151062 166.29975 292.151062 
C 148.826996 292.151062 131.524143 288.709311 115.381423 282.022778 
C 99.238704 275.336244 84.570053 265.534965 72.21495 253.179862 
C 59.859847 240.82476 50.058568 226.156109 43.372035 210.013389 
C 36.685502 193.87067 33.24375 176.567816 33.24375 159.095062 
C 33.24375 141.622309 36.685502 124.319455 43.372035 108.176736 
C 50.058568 92.034016 59.859847 77.365365 72.21495 65.010263 
C 84.570053 52.65516 99.238704 42.853881 115.381423 36.167347 
C 131.524143 29.480814 148.826996 26.039062 166.29975 26.039062 
" clip-path="url(#pb7cff22fe9)" style="fill: none; stroke: #b0b0b0; stroke-width: 0.8; stroke-linecap: square"/>
     </g>
     <g id="text_15">
      <!-- 0 -->
      <g transform="translate(232.82775 41.785499) scale(0.1 -0.1)">
       <use xlink:href="#DejaVuSans-30"/>
      </g>
     </g>
    </g>
   </g>
   <g id="line2d_16">
    <path d="M 166.29975 165.697561 
L 165.752529 166.331778 
L 165.578334 166.239733 
L 165.293294 165.711938 
L 165.015415 165.390039 
L 164.789177 165.468672 
L 164.111616 165.822247 
L 163.941011 165.639608 
L 163.603065 165.111137 
L 163.293937 165.372731 
L 162.33973 166.62254 
L 157.323686 173.41964 
L 153.311317 178.442942 
L 148.92198 183.624661 
L 143.302331 189.884767 
L 138.424407 194.982775 
L 135.21813 198.088146 
L 132.616605 200.278202 
L 131.752231 200.797063 
L 131.271979 200.839534 
L 131.201892 200.39276 
L 131.521902 199.498476 
L 133.080741 196.719737 
L 135.352088 193.270907 
L 139.09559 188.02077 
L 143.688723 181.956339 
L 149.116544 175.204748 
L 153.559859 170.026289 
L 158.428506 164.727325 
L 160.252485 162.611855 
L 160.51863 161.987076 
L 160.46457 161.568702 
L 159.695601 159.2093 
L 159.778645 158.301656 
L 160.084585 157.403501 
L 160.521274 156.227055 
L 160.365602 155.767795 
L 159.847949 155.038095 
L 158.092976 153.104846 
L 153.297546 147.86758 
L 148.727844 142.516825 
L 144.208351 136.89921 
L 139.707394 130.997453 
L 135.969386 125.811874 
L 133.604524 122.297522 
L 131.811087 119.281526 
L 131.316059 118.193061 
L 131.185863 117.514221 
L 131.461391 117.310166 
L 132.139731 117.595854 
L 133.173622 118.332062 
L 135.987618 120.821008 
L 139.253922 124.048352 
L 144.071216 129.138739 
L 149.536054 135.273801 
L 154.670954 141.414337 
L 158.830559 146.747946 
L 163.675188 153.088707 
L 163.798568 152.954515 
L 164.133104 152.362029 
L 164.382835 152.42582 
L 165.110244 152.757735 
L 165.309433 152.443657 
L 165.684866 151.870694 
L 165.869384 151.900867 
L 166.149146 152.254643 
L 166.44272 152.601381 
L 166.569955 152.489298 
L 166.775666 151.899002 
L 167.527576 148.590339 
L 168.966708 142.609057 
L 170.771114 136.072563 
L 172.904024 129.137968 
L 175.88782 120.275568 
L 178.883834 111.982498 
L 182.777051 101.76799 
L 187.950503 88.792928 
L 195.114871 71.444085 
L 201.581558 56.156262 
L 205.360626 47.425262 
L 209.083605 39.206572 
L 211.670956 34.4387 
L 212.241359 35.299718 
L 211.529607 39.52851 
L 209.966294 47.907968 
L 209.695192 50.608612 
L 209.818201 52.25472 
L 210.335532 52.901369 
L 211.256621 52.57848 
L 212.60487 51.281924 
L 214.410881 48.99191 
L 221.588465 38.804087 
L 222.334518 39.174352 
L 220.727497 44.498398 
L 217.714729 52.575694 
L 211.354524 68.675766 
L 201.802958 92.120134 
L 195.160007 107.812273 
L 190.103682 119.180721 
L 186.057622 127.783458 
L 182.006151 135.856686 
L 178.262468 142.759784 
L 175.115537 148.106396 
L 171.323947 154.473035 
L 171.429626 154.721402 
L 171.857582 154.875336 
L 172.435144 155.128497 
L 172.708017 155.501958 
L 172.828832 156.106561 
L 172.904091 158.793704 
L 172.826973 162.107577 
L 172.658528 162.793016 
L 172.376066 163.10522 
L 171.884567 163.307656 
L 171.358625 163.547433 
L 171.337953 163.818504 
L 171.618407 164.472584 
L 172.725125 166.280998 
L 176.540816 172.452348 
L 179.692004 177.998904 
L 183.121765 184.497335 
L 186.519335 191.362771 
L 190.672566 200.257005 
L 195.886414 212.057628 
L 200.851802 223.783272 
L 207.296806 239.462573 
L 216.065446 261.374649 
L 219.309574 269.806569 
L 221.795806 276.895537 
L 222.247072 279.817042 
L 220.531575 278.071153 
L 213.449028 267.928523 
L 211.875421 266.136894 
L 210.744458 265.32948 
L 210.027311 265.489844 
L 209.707498 266.630361 
L 209.781547 268.796579 
L 210.247057 272.039654 
L 211.964381 280.967716 
L 212.196338 283.971619 
L 210.604898 282.023905 
L 207.279968 275.080376 
L 199.81447 257.890033 
L 191.218642 237.375955 
L 185.170106 222.489062 
L 180.699304 211.034034 
L 176.335817 199.186361 
L 173.224895 190.044375 
L 170.999612 182.893939 
L 169.112393 176.141415 
L 167.599659 169.921133 
L 166.547802 165.66514 
L 166.381716 165.610845 
L 166.29975 165.697561 
L 166.29975 165.697561 
" clip-path="url(#pb7cff22fe9)" style="fill: none; stroke: #1f77b4; stroke-width: 1.5; stroke-linecap: square"/>
   </g>
   <g id="patch_3">
    <path d="M 166.29975 26.039062 
C 148.826996 26.039062 131.524143 29.480814 115.381423 36.167347 
C 99.238704 42.853881 84.570053 52.65516 72.21495 65.010263 
C 59.859847 77.365365 50.058568 92.034016 43.372035 108.176736 
C 36.685502 124.319455 33.24375 141.622309 33.24375 159.095062 
C 33.24375 176.567816 36.685502 193.87067 43.372035 210.013389 
C 50.058568 226.156109 59.859847 240.82476 72.21495 253.179862 
C 84.570053 265.534965 99.238704 275.336244 115.381423 282.022778 
C 131.524143 288.709311 148.826996 292.151062 166.29975 292.151062 
C 183.772504 292.151062 201.075357 288.709311 217.218077 282.022778 
C 233.360796 275.336244 248.029447 265.534965 260.38455 253.179862 
C 272.739653 240.82476 282.540932 226.156109 289.227465 210.013389 
C 295.913998 193.87067 299.35575 176.567816 299.35575 159.095062 
C 299.35575 141.622309 295.913998 124.319455 289.227465 108.176736 
C 282.540932 92.034016 272.739653 77.365365 260.38455 65.010263 
C 248.029447 52.65516 233.360796 42.853881 217.218077 36.167347 
C 201.075357 29.480814 183.772504 26.039062 166.29975 26.039062 
" style="fill: none; stroke: #000000; stroke-width: 0.8; stroke-linejoin: miter; stroke-linecap: square"/>
   </g>
  </g>
 </g>
 <defs>
  <clipPath id="pb7cff22fe9">
   <path d="M 299.35575 159.095062 
C 299.35575 141.622309 295.913998 124.319455 289.227465 108.176736 
C 282.540932 92.034016 272.739653 77.365365 260.38455 65.010263 
C 248.029447 52.65516 233.360796 42.853881 217.218077 36.167347 
C 201.075357 29.480814 183.772504 26.039062 166.29975 26.039062 
C 148.826996 26.039062 131.524143 29.480814 115.381423 36.167347 
C 99.238704 42.853881 84.570053 52.65516 72.21495 65.010263 
C 59.859847 77.365365 50.058568 92.034016 43.372035 108.176736 
C 36.685502 124.319455 33.24375 141.622309 33.24375 159.095062 
C 33.24375 176.567816 36.685502 193.87067 43.372035 210.013389 
C 50.058568 226.156109 59.859847 240.82476 72.21495 253.179862 
C 84.570053 265.534965 99.238704 275.336244 115.381423 282.022778 
C 131.524143 288.709311 148.826996 292.151062 166.29975 292.151062 
C 183.772504 292.151062 201.075357 288.709311 217.218077 282.022778 
C 233.360796 275.336244 248.029447 265.534965 260.38455 253.179862 
C 272.739653 240.82476 282.540932 226.156109 289.227465 210.013389 
C 295.913998 193.87067 299.35575 176.567816 299.35575 159.095062 
M 166.29975 159.095062 
C 166.29975 159.095062 166.29975 159.095062 166.29975 159.095062 
C 166.29975 159.095062 166.29975 159.095062 166.29975 159.095062 
C 166.29975 159.095062 166.29975 159.095062 166.29975 159.095062 
C 166.29975 159.095062 166.29975 159.095062 166.29975 159.095062 
C 166.29975 159.095062 166.29975 159.095062 166.29975 159.095062 
C 166.29975 159.095062 166.29975 159.095062 166.29975 159.095062 
C 166.29975 159.095062 166.29975 159.095062 166.29975 159.095062 
C 166.29975 159.095062 166.29975 159.095062 166.29975 159.095062 
C 166.29975 159.095062 166.29975 159.095062 166.29975 159.095062 
C 166.29975 159.095062 166.29975 159.095062 166.29975 159.095062 
C 166.29975 159.095062 166.29975 159.095062 166.29975 159.095062 
C 166.29975 159.095062 166.29975 159.095062 166.29975 159.095062 
C 166.29975 159.095062 166.29975 159.095062 166.29975 159.095062 
C 166.29975 159.095062 166.29975 159.095062 166.29975 159.095062 
C 166.29975 159.095062 166.29975 159.095062 166.29975 159.095062 
C 166.29975 159.095062 166.29975 159.095062 166.29975 159.095062 
z
"/>
  </clipPath>
 </defs>
</svg>
