<?xml version="1.0" encoding="utf-8" standalone="no"?>
<!DOCTYPE svg PUBLIC "-//W3C//DTD SVG 1.1//EN"
  "http://www.w3.org/Graphics/SVG/1.1/DTD/svg11.dtd">
<svg xmlns:xlink="http://www.w3.org/1999/xlink" width="728.960937pt" height="211.07625pt" viewBox="0 0 728.960937 211.07625" xmlns="http://www.w3.org/2000/svg" version="1.1">
 <metadata>
  <rdf:RDF xmlns:dc="http://purl.org/dc/elements/1.1/" xmlns:cc="http://creativecommons.org/ns#" xmlns:rdf="http://www.w3.org/1999/02/22-rdf-syntax-ns#">
   <cc:Work>
    <dc:type rdf:resource="http://purl.org/dc/dcmitype/StillImage"/>
    <dc:date>2026-06-21T20:28:53.900867</dc:date>
    <dc:format>image/svg+xml</dc:format>
    <dc:creator>
     <cc:Agent>
      <dc:title>Matplotlib v3.10.9, https://matplotlib.org/</dc:title>
     </cc:Agent>
    </dc:creator>
   </cc:Work>
  </rdf:RDF>
 </metadata>
 <defs>
  <style type="text/css">*{stroke-linejoin: round; stroke-linecap: butt}</style>
 </defs>
 <g id="figure_1">
  <g id="patch_1">
   <path d="M 0 211.07625 
L 728.960937 211.07625 
L 728.960937 0 
L 0 0 
z
" style="fill: #ffffff"/>
  </g>
  <g id="axes_1">
   <g id="patch_2">
    <path d="M 52.160938 173.52 
L 721.760938 173.52 
L 721.760938 7.2 
L 52.160938 7.2 
z
" style="fill: #ffffff"/>
   </g>
   <g id="matplotlib.axis_1">
    <g id="xtick_1">
     <g id="line2d_1">
      <defs>
       <path id="mbb6562e613" d="M 0 0 
L 0 3.5 
" style="stroke: #000000; stroke-width: 0.8"/>
      </defs>
      <g>
       <use xlink:href="#mbb6562e613" x="82.597301" y="173.52" style="stroke: #000000; stroke-width: 0.8"/>
      </g>
     </g>
     <g id="text_1">
      <!-- 0 -->
      <g transform="translate(79.416051 188.118438) scale(0.1 -0.1)">
       <defs>
        <path id="DejaVuSans-30" d="M 2034 4250 
Q 1547 4250 1301 3770 
Q 1056 3291 1056 2328 
Q 1056 1369 1301 889 
Q 1547 409 2034 409 
Q 2525 409 2770 889 
Q 3016 1369 3016 2328 
Q 3016 3291 2770 3770 
Q 2525 4250 2034 4250 
z
M 2034 4750 
Q 2819 4750 3233 4129 
Q 3647 3509 3647 2328 
Q 3647 1150 3233 529 
Q 2819 -91 2034 -91 
Q 1250 -91 836 529 
Q 422 1150 422 2328 
Q 422 3509 836 4129 
Q 1250 4750 2034 4750 
z
" transform="scale(0.015625)"/>
       </defs>
       <use xlink:href="#DejaVuSans-30"/>
      </g>
     </g>
    </g>
    <g id="xtick_2">
     <g id="line2d_2">
      <g>
       <use xlink:href="#mbb6562e613" x="175.249854" y="173.52" style="stroke: #000000; stroke-width: 0.8"/>
      </g>
     </g>
     <g id="text_2">
      <!-- 100 -->
      <g transform="translate(165.706104 188.118438) scale(0.1 -0.1)">
       <defs>
        <path id="DejaVuSans-31" d="M 794 531 
L 1825 531 
L 1825 4091 
L 703 3866 
L 703 4441 
L 1819 4666 
L 2450 4666 
L 2450 531 
L 3481 531 
L 3481 0 
L 794 0 
L 794 531 
z
" transform="scale(0.015625)"/>
       </defs>
       <use xlink:href="#DejaVuSans-31"/>
       <use xlink:href="#DejaVuSans-30" transform="translate(63.623047 0)"/>
       <use xlink:href="#DejaVuSans-30" transform="translate(127.246094 0)"/>
      </g>
     </g>
    </g>
    <g id="xtick_3">
     <g id="line2d_3">
      <g>
       <use xlink:href="#mbb6562e613" x="267.902407" y="173.52" style="stroke: #000000; stroke-width: 0.8"/>
      </g>
     </g>
     <g id="text_3">
      <!-- 200 -->
      <g transform="translate(258.358657 188.118438) scale(0.1 -0.1)">
       <defs>
        <path id="DejaVuSans-32" d="M 1228 531 
L 3431 531 
L 3431 0 
L 469 0 
L 469 531 
Q 828 903 1448 1529 
Q 2069 2156 2228 2338 
Q 2531 2678 2651 2914 
Q 2772 3150 2772 3378 
Q 2772 3750 2511 3984 
Q 2250 4219 1831 4219 
Q 1534 4219 1204 4116 
Q 875 4013 500 3803 
L 500 4441 
Q 881 4594 1212 4672 
Q 1544 4750 1819 4750 
Q 2544 4750 2975 4387 
Q 3406 4025 3406 3419 
Q 3406 3131 3298 2873 
Q 3191 2616 2906 2266 
Q 2828 2175 2409 1742 
Q 1991 1309 1228 531 
z
" transform="scale(0.015625)"/>
       </defs>
       <use xlink:href="#DejaVuSans-32"/>
       <use xlink:href="#DejaVuSans-30" transform="translate(63.623047 0)"/>
       <use xlink:href="#DejaVuSans-30" transform="translate(127.246094 0)"/>
      </g>
     </g>
    </g>
    <g id="xtick_4">
     <g id="line2d_4">
      <g>
       <use xlink:href="#mbb6562e613" x="360.55496" y="173.52" style="stroke: #000000; stroke-width: 0.8"/>
      </g>
     </g>
     <g id="text_4">
      <!-- 300 -->
      <g transform="translate(351.01121 188.118438) scale(0.1 -0.1)">
       <defs>
        <path id="DejaVuSans-33" d="M 2597 2516 
Q 3050 2419 3304 2112 
Q 3559 1806 3559 1356 
Q 3559 666 3084 287 
Q 2609 -91 1734 -91 
Q 1441 -91 1130 -33 
Q 819 25 488 141 
L 488 750 
Q 750 597 1062 519 
Q 1375 441 1716 441 
Q 2309 441 2620 675 
Q 2931 909 2931 1356 
Q 2931 1769 2642 2001 
Q 2353 2234 1838 2234 
L 1294 2234 
L 1294 2753 
L 1863 2753 
Q 2328 2753 2575 2939 
Q 2822 3125 2822 3475 
Q 2822 3834 2567 4026 
Q 2313 4219 1838 4219 
Q 1578 4219 1281 4162 
Q 984 4106 628 3988 
L 628 4550 
Q 988 4650 1302 4700 
Q 1616 4750 1894 4750 
Q 2613 4750 3031 4423 
Q 3450 4097 3450 3541 
Q 3450 3153 3228 2886 
Q 3006 2619 2597 2516 
z
" transform="scale(0.015625)"/>
       </defs>
       <use xlink:href="#DejaVuSans-33"/>
       <use xlink:href="#DejaVuSans-30" transform="translate(63.623047 0)"/>
       <use xlink:href="#DejaVuSans-30" transform="translate(127.246094 0)"/>
      </g>
     </g>
    </g>
    <g id="xtick_5">
     <g id="line2d_5">
      <g>
       <use xlink:href="#mbb6562e613" x="453.207513" y="173.52" style="stroke: #000000; stroke-width: 0.8"/>
      </g>
     </g>
     <g id="text_5">
      <!-- 400 -->
      <g transform="translate(443.663763 188.118438) scale(0.1 -0.1)">
       <defs>
        <path id="DejaVuSans-34" d="M 2419 4116 
L 825 1625 
L 2419 1625 
L 2419 4116 
z
M 2253 4666 
L 3047 4666 
L 3047 1625 
L 3713 1625 
L 3713 1100 
L 3047 1100 
L 3047 0 
L 2419 0 
L 2419 1100 
L 313 1100 
L 313 1709 
L 2253 4666 
z
" transform="scale(0.015625)"/>
       </defs>
       <use xlink:href="#DejaVuSans-34"/>
       <use xlink:href="#DejaVuSans-30" transform="translate(63.623047 0)"/>
       <use xlink:href="#DejaVuSans-30" transform="translate(127.246094 0)"/>
      </g>
     </g>
    </g>
    <g id="xtick_6">
     <g id="line2d_6">
      <g>
       <use xlink:href="#mbb6562e613" x="545.860066" y="173.52" style="stroke: #000000; stroke-width: 0.8"/>
      </g>
     </g>
     <g id="text_6">
      <!-- 500 -->
      <g transform="translate(536.316316 188.118438) scale(0.1 -0.1)">
       <defs>
        <path id="DejaVuSans-35" d="M 691 4666 
L 3169 4666 
L 3169 4134 
L 1269 4134 
L 1269 2991 
Q 1406 3038 1543 3061 
Q 1681 3084 1819 3084 
Q 2600 3084 3056 2656 
Q 3513 2228 3513 1497 
Q 3513 744 3044 326 
Q 2575 -91 1722 -91 
Q 1428 -91 1123 -41 
Q 819 9 494 109 
L 494 744 
Q 775 591 1075 516 
Q 1375 441 1709 441 
Q 2250 441 2565 725 
Q 2881 1009 2881 1497 
Q 2881 1984 2565 2268 
Q 2250 2553 1709 2553 
Q 1456 2553 1204 2497 
Q 953 2441 691 2322 
L 691 4666 
z
" transform="scale(0.015625)"/>
       </defs>
       <use xlink:href="#DejaVuSans-35"/>
       <use xlink:href="#DejaVuSans-30" transform="translate(63.623047 0)"/>
       <use xlink:href="#DejaVuSans-30" transform="translate(127.246094 0)"/>
      </g>
     </g>
    </g>
    <g id="xtick_7">
     <g id="line2d_7">
      <g>
       <use xlink:href="#mbb6562e613" x="638.512619" y="173.52" style="stroke: #000000; stroke-width: 0.8"/>
      </g>
     </g>
     <g id="text_7">
      <!-- 600 -->
      <g transform="translate(628.968869 188.118438) scale(0.1 -0.1)">
       <defs>
        <path id="DejaVuSans-36" d="M 2113 2584 
Q 1688 2584 1439 2293 
Q 1191 2003 1191 1497 
Q 1191 994 1439 701 
Q 1688 409 2113 409 
Q 2538 409 2786 701 
Q 3034 994 3034 1497 
Q 3034 2003 2786 2293 
Q 2538 2584 2113 2584 
z
M 3366 4563 
L 3366 3988 
Q 3128 4100 2886 4159 
Q 2644 4219 2406 4219 
Q 1781 4219 1451 3797 
Q 1122 3375 1075 2522 
Q 1259 2794 1537 2939 
Q 1816 3084 2150 3084 
Q 2853 3084 3261 2657 
Q 3669 2231 3669 1497 
Q 3669 778 3244 343 
Q 2819 -91 2113 -91 
Q 1303 -91 875 529 
Q 447 1150 447 2328 
Q 447 3434 972 4092 
Q 1497 4750 2381 4750 
Q 2619 4750 2861 4703 
Q 3103 4656 3366 4563 
z
" transform="scale(0.015625)"/>
       </defs>
       <use xlink:href="#DejaVuSans-36"/>
       <use xlink:href="#DejaVuSans-30" transform="translate(63.623047 0)"/>
       <use xlink:href="#DejaVuSans-30" transform="translate(127.246094 0)"/>
      </g>
     </g>
    </g>
    <g id="text_8">
     <!-- Sample -->
     <g transform="translate(368.2125 201.796563) scale(0.1 -0.1)">
      <defs>
       <path id="DejaVuSans-53" d="M 3425 4513 
L 3425 3897 
Q 3066 4069 2747 4153 
Q 2428 4238 2131 4238 
Q 1616 4238 1336 4038 
Q 1056 3838 1056 3469 
Q 1056 3159 1242 3001 
Q 1428 2844 1947 2747 
L 2328 2669 
Q 3034 2534 3370 2195 
Q 3706 1856 3706 1288 
Q 3706 609 3251 259 
Q 2797 -91 1919 -91 
Q 1588 -91 1214 -16 
Q 841 59 441 206 
L 441 856 
Q 825 641 1194 531 
Q 1563 422 1919 422 
Q 2459 422 2753 634 
Q 3047 847 3047 1241 
Q 3047 1584 2836 1778 
Q 2625 1972 2144 2069 
L 1759 2144 
Q 1053 2284 737 2584 
Q 422 2884 422 3419 
Q 422 4038 858 4394 
Q 1294 4750 2059 4750 
Q 2388 4750 2728 4690 
Q 3069 4631 3425 4513 
z
" transform="scale(0.015625)"/>
       <path id="DejaVuSans-61" d="M 2194 1759 
Q 1497 1759 1228 1600 
Q 959 1441 959 1056 
Q 959 750 1161 570 
Q 1363 391 1709 391 
Q 2188 391 2477 730 
Q 2766 1069 2766 1631 
L 2766 1759 
L 2194 1759 
z
M 3341 1997 
L 3341 0 
L 2766 0 
L 2766 531 
Q 2569 213 2275 61 
Q 1981 -91 1556 -91 
Q 1019 -91 701 211 
Q 384 513 384 1019 
Q 384 1609 779 1909 
Q 1175 2209 1959 2209 
L 2766 2209 
L 2766 2266 
Q 2766 2663 2505 2880 
Q 2244 3097 1772 3097 
Q 1472 3097 1187 3025 
Q 903 2953 641 2809 
L 641 3341 
Q 956 3463 1253 3523 
Q 1550 3584 1831 3584 
Q 2591 3584 2966 3190 
Q 3341 2797 3341 1997 
z
" transform="scale(0.015625)"/>
       <path id="DejaVuSans-6d" d="M 3328 2828 
Q 3544 3216 3844 3400 
Q 4144 3584 4550 3584 
Q 5097 3584 5394 3201 
Q 5691 2819 5691 2113 
L 5691 0 
L 5113 0 
L 5113 2094 
Q 5113 2597 4934 2840 
Q 4756 3084 4391 3084 
Q 3944 3084 3684 2787 
Q 3425 2491 3425 1978 
L 3425 0 
L 2847 0 
L 2847 2094 
Q 2847 2600 2669 2842 
Q 2491 3084 2119 3084 
Q 1678 3084 1418 2786 
Q 1159 2488 1159 1978 
L 1159 0 
L 581 0 
L 581 3500 
L 1159 3500 
L 1159 2956 
Q 1356 3278 1631 3431 
Q 1906 3584 2284 3584 
Q 2666 3584 2933 3390 
Q 3200 3197 3328 2828 
z
" transform="scale(0.015625)"/>
       <path id="DejaVuSans-70" d="M 1159 525 
L 1159 -1331 
L 581 -1331 
L 581 3500 
L 1159 3500 
L 1159 2969 
Q 1341 3281 1617 3432 
Q 1894 3584 2278 3584 
Q 2916 3584 3314 3078 
Q 3713 2572 3713 1747 
Q 3713 922 3314 415 
Q 2916 -91 2278 -91 
Q 1894 -91 1617 61 
Q 1341 213 1159 525 
z
M 3116 1747 
Q 3116 2381 2855 2742 
Q 2594 3103 2138 3103 
Q 1681 3103 1420 2742 
Q 1159 2381 1159 1747 
Q 1159 1113 1420 752 
Q 1681 391 2138 391 
Q 2594 391 2855 752 
Q 3116 1113 3116 1747 
z
" transform="scale(0.015625)"/>
       <path id="DejaVuSans-6c" d="M 603 4863 
L 1178 4863 
L 1178 0 
L 603 0 
L 603 4863 
z
" transform="scale(0.015625)"/>
       <path id="DejaVuSans-65" d="M 3597 1894 
L 3597 1613 
L 953 1613 
Q 991 1019 1311 708 
Q 1631 397 2203 397 
Q 2534 397 2845 478 
Q 3156 559 3463 722 
L 3463 178 
Q 3153 47 2828 -22 
Q 2503 -91 2169 -91 
Q 1331 -91 842 396 
Q 353 884 353 1716 
Q 353 2575 817 3079 
Q 1281 3584 2069 3584 
Q 2775 3584 3186 3129 
Q 3597 2675 3597 1894 
z
M 3022 2063 
Q 3016 2534 2758 2815 
Q 2500 3097 2075 3097 
Q 1594 3097 1305 2825 
Q 1016 2553 972 2059 
L 3022 2063 
z
" transform="scale(0.015625)"/>
      </defs>
      <use xlink:href="#DejaVuSans-53"/>
      <use xlink:href="#DejaVuSans-61" transform="translate(63.476562 0)"/>
      <use xlink:href="#DejaVuSans-6d" transform="translate(124.755859 0)"/>
      <use xlink:href="#DejaVuSans-70" transform="translate(222.167969 0)"/>
      <use xlink:href="#DejaVuSans-6c" transform="translate(285.644531 0)"/>
      <use xlink:href="#DejaVuSans-65" transform="translate(313.427734 0)"/>
     </g>
    </g>
   </g>
   <g id="matplotlib.axis_2">
    <g id="ytick_1">
     <g id="line2d_8">
      <defs>
       <path id="mae09267b25" d="M 0 0 
L -3.5 0 
" style="stroke: #000000; stroke-width: 0.8"/>
      </defs>
      <g>
       <use xlink:href="#mae09267b25" x="52.160938" y="150.63296" style="stroke: #000000; stroke-width: 0.8"/>
      </g>
     </g>
     <g id="text_9">
      <!-- −1.5 -->
      <g transform="translate(20.878125 154.432179) scale(0.1 -0.1)">
       <defs>
        <path id="DejaVuSans-2212" d="M 678 2272 
L 4684 2272 
L 4684 1741 
L 678 1741 
L 678 2272 
z
" transform="scale(0.015625)"/>
        <path id="DejaVuSans-2e" d="M 684 794 
L 1344 794 
L 1344 0 
L 684 0 
L 684 794 
z
" transform="scale(0.015625)"/>
       </defs>
       <use xlink:href="#DejaVuSans-2212"/>
       <use xlink:href="#DejaVuSans-31" transform="translate(83.789062 0)"/>
       <use xlink:href="#DejaVuSans-2e" transform="translate(147.412109 0)"/>
       <use xlink:href="#DejaVuSans-35" transform="translate(179.199219 0)"/>
      </g>
     </g>
    </g>
    <g id="ytick_2">
     <g id="line2d_9">
      <g>
       <use xlink:href="#mae09267b25" x="52.160938" y="126.223307" style="stroke: #000000; stroke-width: 0.8"/>
      </g>
     </g>
     <g id="text_10">
      <!-- −1.0 -->
      <g transform="translate(20.878125 130.022525) scale(0.1 -0.1)">
       <use xlink:href="#DejaVuSans-2212"/>
       <use xlink:href="#DejaVuSans-31" transform="translate(83.789062 0)"/>
       <use xlink:href="#DejaVuSans-2e" transform="translate(147.412109 0)"/>
       <use xlink:href="#DejaVuSans-30" transform="translate(179.199219 0)"/>
      </g>
     </g>
    </g>
    <g id="ytick_3">
     <g id="line2d_10">
      <g>
       <use xlink:href="#mae09267b25" x="52.160938" y="101.813653" style="stroke: #000000; stroke-width: 0.8"/>
      </g>
     </g>
     <g id="text_11">
      <!-- −0.5 -->
      <g transform="translate(20.878125 105.612872) scale(0.1 -0.1)">
       <use xlink:href="#DejaVuSans-2212"/>
       <use xlink:href="#DejaVuSans-30" transform="translate(83.789062 0)"/>
       <use xlink:href="#DejaVuSans-2e" transform="translate(147.412109 0)"/>
       <use xlink:href="#DejaVuSans-35" transform="translate(179.199219 0)"/>
      </g>
     </g>
    </g>
    <g id="ytick_4">
     <g id="line2d_11">
      <g>
       <use xlink:href="#mae09267b25" x="52.160938" y="77.403999" style="stroke: #000000; stroke-width: 0.8"/>
      </g>
     </g>
     <g id="text_12">
      <!-- 0.0 -->
      <g transform="translate(29.257813 81.203218) scale(0.1 -0.1)">
       <use xlink:href="#DejaVuSans-30"/>
       <use xlink:href="#DejaVuSans-2e" transform="translate(63.623047 0)"/>
       <use xlink:href="#DejaVuSans-30" transform="translate(95.410156 0)"/>
      </g>
     </g>
    </g>
    <g id="ytick_5">
     <g id="line2d_12">
      <g>
       <use xlink:href="#mae09267b25" x="52.160938" y="52.994346" style="stroke: #000000; stroke-width: 0.8"/>
      </g>
     </g>
     <g id="text_13">
      <!-- 0.5 -->
      <g transform="translate(29.257813 56.793564) scale(0.1 -0.1)">
       <use xlink:href="#DejaVuSans-30"/>
       <use xlink:href="#DejaVuSans-2e" transform="translate(63.623047 0)"/>
       <use xlink:href="#DejaVuSans-35" transform="translate(95.410156 0)"/>
      </g>
     </g>
    </g>
    <g id="ytick_6">
     <g id="line2d_13">
      <g>
       <use xlink:href="#mae09267b25" x="52.160938" y="28.584692" style="stroke: #000000; stroke-width: 0.8"/>
      </g>
     </g>
     <g id="text_14">
      <!-- 1.0 -->
      <g transform="translate(29.257813 32.383911) scale(0.1 -0.1)">
       <use xlink:href="#DejaVuSans-31"/>
       <use xlink:href="#DejaVuSans-2e" transform="translate(63.623047 0)"/>
       <use xlink:href="#DejaVuSans-30" transform="translate(95.410156 0)"/>
      </g>
     </g>
    </g>
    <g id="text_15">
     <!-- Amplitude -->
     <g transform="translate(14.798438 115.982656) rotate(-90) scale(0.1 -0.1)">
      <defs>
       <path id="DejaVuSans-41" d="M 2188 4044 
L 1331 1722 
L 3047 1722 
L 2188 4044 
z
M 1831 4666 
L 2547 4666 
L 4325 0 
L 3669 0 
L 3244 1197 
L 1141 1197 
L 716 0 
L 50 0 
L 1831 4666 
z
" transform="scale(0.015625)"/>
       <path id="DejaVuSans-69" d="M 603 3500 
L 1178 3500 
L 1178 0 
L 603 0 
L 603 3500 
z
M 603 4863 
L 1178 4863 
L 1178 4134 
L 603 4134 
L 603 4863 
z
" transform="scale(0.015625)"/>
       <path id="DejaVuSans-74" d="M 1172 4494 
L 1172 3500 
L 2356 3500 
L 2356 3053 
L 1172 3053 
L 1172 1153 
Q 1172 725 1289 603 
Q 1406 481 1766 481 
L 2356 481 
L 2356 0 
L 1766 0 
Q 1100 0 847 248 
Q 594 497 594 1153 
L 594 3053 
L 172 3053 
L 172 3500 
L 594 3500 
L 594 4494 
L 1172 4494 
z
" transform="scale(0.015625)"/>
       <path id="DejaVuSans-75" d="M 544 1381 
L 544 3500 
L 1119 3500 
L 1119 1403 
Q 1119 906 1312 657 
Q 1506 409 1894 409 
Q 2359 409 2629 706 
Q 2900 1003 2900 1516 
L 2900 3500 
L 3475 3500 
L 3475 0 
L 2900 0 
L 2900 538 
Q 2691 219 2414 64 
Q 2138 -91 1772 -91 
Q 1169 -91 856 284 
Q 544 659 544 1381 
z
M 1991 3584 
L 1991 3584 
z
" transform="scale(0.015625)"/>
       <path id="DejaVuSans-64" d="M 2906 2969 
L 2906 4863 
L 3481 4863 
L 3481 0 
L 2906 0 
L 2906 525 
Q 2725 213 2448 61 
Q 2172 -91 1784 -91 
Q 1150 -91 751 415 
Q 353 922 353 1747 
Q 353 2572 751 3078 
Q 1150 3584 1784 3584 
Q 2172 3584 2448 3432 
Q 2725 3281 2906 2969 
z
M 947 1747 
Q 947 1113 1208 752 
Q 1469 391 1925 391 
Q 2381 391 2643 752 
Q 2906 1113 2906 1747 
Q 2906 2381 2643 2742 
Q 2381 3103 1925 3103 
Q 1469 3103 1208 2742 
Q 947 2381 947 1747 
z
" transform="scale(0.015625)"/>
      </defs>
      <use xlink:href="#DejaVuSans-41"/>
      <use xlink:href="#DejaVuSans-6d" transform="translate(68.408203 0)"/>
      <use xlink:href="#DejaVuSans-70" transform="translate(165.820312 0)"/>
      <use xlink:href="#DejaVuSans-6c" transform="translate(229.296875 0)"/>
      <use xlink:href="#DejaVuSans-69" transform="translate(257.080078 0)"/>
      <use xlink:href="#DejaVuSans-74" transform="translate(284.863281 0)"/>
      <use xlink:href="#DejaVuSans-75" transform="translate(324.072266 0)"/>
      <use xlink:href="#DejaVuSans-64" transform="translate(387.451172 0)"/>
      <use xlink:href="#DejaVuSans-65" transform="translate(450.927734 0)"/>
     </g>
    </g>
   </g>
   <g id="line2d_14">
    <path d="M 82.597301 163.898727 
L 83.523827 163.480464 
L 84.450352 163.737916 
L 85.376878 164.263699 
L 86.303403 164.415401 
L 87.229929 163.299971 
L 88.156454 163.66588 
L 89.08298 164.699071 
L 90.009505 163.097079 
L 91.862556 163.958647 
L 92.789082 163.977072 
L 93.715607 163.157441 
L 94.642133 163.250504 
L 95.568659 163.874488 
L 97.42171 163.745051 
L 98.348235 164.007858 
L 99.274761 164.148369 
L 100.201286 162.331961 
L 101.127812 162.931071 
L 102.054337 164.159933 
L 102.980863 162.872682 
L 103.907388 150.692804 
L 104.833914 123.867148 
L 105.760439 114.117159 
L 106.686965 118.137974 
L 107.61349 115.592035 
L 108.540016 118.383897 
L 109.466541 129.405858 
L 110.393067 108.232056 
L 111.319593 109.682006 
L 112.246118 131.41107 
L 113.172644 104.977174 
L 114.099169 115.834088 
L 115.025695 129.208867 
L 115.95222 102.07666 
L 116.878746 122.78829 
L 117.805271 123.32391 
L 118.731797 101.80214 
L 119.658322 128.331673 
L 121.511373 104.588673 
L 122.437899 131.720947 
L 123.364424 109.368632 
L 124.29095 109.103323 
L 125.217475 131.25608 
L 126.144001 104.66449 
L 127.997052 128.35508 
L 128.923578 102.361445 
L 129.850103 122.265016 
L 130.776629 123.052019 
L 131.703154 101.446688 
L 132.62968 116.89538 
L 133.556205 118.936497 
L 134.482731 115.872117 
L 135.409256 116.647766 
L 136.335782 117.265872 
L 137.262307 116.478342 
L 138.188833 116.906193 
L 139.115358 116.56647 
L 140.041884 116.020386 
L 140.968409 117.230057 
L 141.894935 116.604781 
L 142.821461 117.049725 
L 144.674512 117.56502 
L 145.601037 116.602075 
L 146.527563 116.498059 
L 147.454088 116.907939 
L 149.307139 79.636097 
L 150.233665 85.846236 
L 151.16019 86.10499 
L 152.086716 83.041531 
L 153.013241 85.20232 
L 153.939767 85.708896 
L 154.866292 81.870292 
L 155.792818 83.651146 
L 156.719343 83.923523 
L 157.645869 80.29122 
L 158.572395 84.798666 
L 160.425446 79.752205 
L 161.351971 81.989224 
L 162.278497 79.21939 
L 163.205022 79.419669 
L 164.131548 83.19099 
L 165.058073 79.386474 
L 165.984599 79.283388 
L 166.911124 80.159379 
L 167.83765 74.713227 
L 168.764175 78.072315 
L 169.690701 80.325024 
L 170.617226 75.654453 
L 171.543752 75.481591 
L 172.470277 72.897894 
L 173.396803 73.870866 
L 174.323329 78.253056 
L 175.249854 74.906323 
L 176.17638 77.859785 
L 177.102905 77.070025 
L 178.029431 69.192181 
L 178.955956 76.712226 
L 180.809007 64.865864 
L 181.735533 74.087308 
L 182.662058 68.536029 
L 183.588584 66.129284 
L 184.515109 74.510607 
L 185.441635 68.283362 
L 186.36816 68.88925 
L 187.294686 73.30899 
L 188.221211 67.697989 
L 189.147737 70.045392 
L 190.074263 69.618055 
L 191.000788 65.236188 
L 191.927314 65.95297 
L 192.853839 62.053993 
L 193.780365 62.094131 
L 194.70689 68.181677 
L 195.633416 62.643865 
L 196.559941 61.981689 
L 197.486467 67.992312 
L 198.412992 60.54567 
L 199.339518 60.024605 
L 200.266043 61.709807 
L 201.192569 59.072305 
L 202.119094 67.102125 
L 203.04562 64.80909 
L 203.972145 56.916116 
L 204.898671 60.206254 
L 205.825197 58.187654 
L 206.751722 57.36098 
L 207.678248 60.021631 
L 208.604773 55.756682 
L 209.531299 54.980255 
L 210.457824 57.212418 
L 211.38435 49.73303 
L 213.237401 55.047016 
L 214.163926 52.983838 
L 215.090452 55.215949 
L 216.016977 48.226006 
L 216.943503 49.788789 
L 217.870028 52.140317 
L 218.796554 46.573559 
L 219.723079 45.327663 
L 220.649605 48.710483 
L 221.576131 47.425996 
L 222.502656 52.306438 
L 223.429182 53.401685 
L 224.355707 51.99797 
L 225.282233 54.773555 
L 226.208758 52.520304 
L 227.135284 72.576114 
L 228.061809 84.869777 
L 229.91486 61.020988 
L 230.841386 60.030938 
L 231.767911 55.372451 
L 232.694437 48.806624 
L 233.620962 58.110942 
L 234.547488 54.394229 
L 235.474013 54.589282 
L 236.400539 54.591012 
L 237.327065 43.637853 
L 238.25359 38.007448 
L 239.180116 43.243777 
L 240.106641 50.729129 
L 241.033167 71.451768 
L 241.959692 77.936415 
L 242.886218 78.999826 
L 243.812743 79.55837 
L 244.739269 78.450304 
L 245.665794 78.980366 
L 246.59232 76.301257 
L 247.518845 55.786171 
L 249.371896 42.462157 
L 250.298422 24.681171 
L 251.224947 25.168601 
L 252.151473 28.35312 
L 253.077999 22.868265 
L 254.004524 27.592867 
L 254.93105 27.611083 
L 255.857575 29.587342 
L 256.784101 48.558058 
L 258.637152 71.694205 
L 259.563677 79.56252 
L 260.490203 79.357216 
L 261.416728 88.172521 
L 262.343254 92.772957 
L 263.269779 88.974137 
L 264.196305 89.596096 
L 265.12283 93.532849 
L 266.049356 89.73101 
L 266.975881 89.191059 
L 267.902407 92.776674 
L 268.828933 90.712443 
L 269.755458 90.546887 
L 270.681984 86.938847 
L 271.608509 81.541946 
L 272.535035 88.474105 
L 273.46156 83.617364 
L 274.388086 84.323419 
L 275.314611 86.289568 
L 276.241137 81.616799 
L 277.167662 84.044253 
L 278.094188 86.934847 
L 279.020713 82.907929 
L 279.947239 83.872847 
L 280.873764 86.891886 
L 281.80029 82.555417 
L 282.726815 88.319712 
L 283.653341 90.457391 
L 284.579867 88.394303 
L 285.506392 88.348141 
L 286.432918 83.704645 
L 287.359443 90.080143 
L 288.285969 92.532907 
L 289.212494 88.787925 
L 290.13902 89.651371 
L 291.065545 84.346078 
L 291.992071 81.188339 
L 292.918596 79.538227 
L 293.845122 76.830798 
L 294.771647 72.790538 
L 295.698173 69.355587 
L 296.624698 65.400821 
L 297.551224 60.898579 
L 298.477749 65.360125 
L 299.404275 55.904589 
L 300.330801 55.787665 
L 301.257326 58.085601 
L 302.183852 40.571082 
L 303.110377 46.48631 
L 304.036903 54.015781 
L 304.963428 39.367585 
L 305.889954 46.641591 
L 306.816479 47.237376 
L 307.743005 35.74183 
L 308.66953 40.56351 
L 309.596056 38.815047 
L 310.522581 38.256005 
L 311.449107 42.664704 
L 312.375632 31.924085 
L 313.302158 34.972682 
L 314.228683 38.790473 
L 315.155209 33.840776 
L 316.081735 42.50889 
L 317.00826 44.196397 
L 317.934786 35.838254 
L 318.861311 43.257581 
L 319.787837 39.089339 
L 320.714362 34.272058 
L 321.640888 46.209038 
L 322.567413 40.777711 
L 323.493939 38.558927 
L 324.420464 45.128055 
L 325.34699 39.218394 
L 326.273515 41.671369 
L 327.200041 47.257538 
L 328.126566 41.787097 
L 329.053092 47.447532 
L 329.979617 47.129307 
L 330.906143 41.024021 
L 331.832669 51.232412 
L 333.68572 41.113948 
L 334.612245 48.934399 
L 335.538771 44.23186 
L 336.465296 45.667464 
L 337.391822 55.746082 
L 338.318347 44.917216 
L 340.171398 55.101858 
L 341.097924 46.628136 
L 342.024449 53.121634 
L 342.950975 55.04308 
L 343.8775 48.819736 
L 344.804026 53.768836 
L 345.730551 51.67831 
L 346.657077 48.02646 
L 347.583603 51.796698 
L 351.289705 82.722037 
L 352.21623 82.052852 
L 353.142756 73.332488 
L 354.069281 69.253442 
L 354.995807 63.606437 
L 355.922332 39.089889 
L 356.848858 19.344579 
L 357.775383 17.151397 
L 358.701909 15.277844 
L 359.628434 14.791194 
L 360.55496 17.559789 
L 361.481485 14.76 
L 362.408011 16.592343 
L 363.334537 19.68324 
L 364.261062 15.36216 
L 365.187588 16.712159 
L 366.114113 19.197649 
L 367.040639 16.081587 
L 367.967164 18.647331 
L 368.89369 18.563393 
L 369.820215 16.692547 
L 370.746741 20.87826 
L 372.599792 16.854905 
L 373.526317 20.67155 
L 374.452843 20.13588 
L 375.379368 21.113715 
L 376.305894 22.701897 
L 377.232419 17.828747 
L 378.158945 19.294134 
L 379.085471 20.21394 
L 380.011996 17.831954 
L 380.938522 22.72279 
L 381.865047 21.437134 
L 382.791573 17.992427 
L 383.718098 23.919236 
L 384.644624 23.493751 
L 385.571149 23.373917 
L 386.497675 25.259959 
L 387.4242 21.664626 
L 388.350726 23.628605 
L 389.277251 26.846105 
L 390.203777 24.288555 
L 391.130302 25.775295 
L 392.056828 26.224652 
L 392.983353 22.596543 
L 393.909879 25.032123 
L 394.836404 24.852881 
L 395.76293 23.284183 
L 396.689456 22.839627 
L 397.615981 19.78416 
L 398.542507 29.51447 
L 399.469032 27.750966 
L 400.395558 16.758135 
L 401.322083 55.064415 
L 402.248609 68.488579 
L 403.175134 20.427797 
L 405.028185 33.137024 
L 405.954711 25.265592 
L 406.881236 31.908308 
L 407.807762 30.388967 
L 408.734287 26.087778 
L 409.660813 32.134427 
L 410.587338 30.614617 
L 411.513864 29.87939 
L 412.44039 34.217181 
L 413.366915 32.463142 
L 414.293441 32.701326 
L 415.219966 35.582035 
L 416.146492 30.931614 
L 417.073017 35.035628 
L 417.999543 35.273741 
L 418.926068 29.788663 
L 419.852594 37.074291 
L 420.779119 36.965739 
L 421.705645 34.335112 
L 422.63217 39.292627 
L 423.558696 35.761308 
L 424.485221 37.979784 
L 425.411747 41.378515 
L 426.338272 34.512246 
L 427.264798 36.401355 
L 428.191324 41.500854 
L 429.117849 36.06568 
L 430.044375 41.499699 
L 430.9709 43.423405 
L 431.897426 36.986321 
L 432.823951 42.693264 
L 433.750477 39.528765 
L 434.677002 37.117055 
L 435.603528 44.054385 
L 436.530053 40.917139 
L 437.456579 40.70392 
L 438.383104 43.9243 
L 439.30963 36.167775 
L 440.236155 36.798425 
L 441.162681 45.228931 
L 442.089206 42.67396 
L 443.015732 38.254256 
L 443.942258 32.434099 
L 444.868783 35.618408 
L 445.795309 45.855191 
L 446.721834 41.972935 
L 447.64836 39.687771 
L 448.574885 48.324929 
L 449.501411 45.104925 
L 450.427936 41.082905 
L 451.354462 44.005627 
L 452.280987 38.044092 
L 453.207513 36.511487 
L 455.060564 52.756628 
L 455.987089 52.075477 
L 456.913615 89.249822 
L 457.84014 85.912869 
L 458.766666 69.124298 
L 459.693192 71.399248 
L 460.619717 72.14623 
L 461.546243 70.589964 
L 462.472768 55.180916 
L 463.399294 61.012328 
L 464.325819 63.461826 
L 465.252345 39.457453 
L 466.17887 39.645724 
L 467.105396 50.565031 
L 468.031921 46.88434 
L 468.958447 52.365232 
L 469.884972 55.722387 
L 470.811498 52.115924 
L 471.738023 60.342766 
L 472.664549 66.213523 
L 474.5176 71.923318 
L 475.444126 69.513505 
L 476.370651 77.868069 
L 477.297177 80.906709 
L 478.223702 76.124823 
L 479.150228 77.153808 
L 480.076753 78.566851 
L 481.003279 87.135893 
L 481.929804 85.715368 
L 482.85633 79.107656 
L 483.782855 82.86238 
L 484.709381 80.451843 
L 485.635906 78.598978 
L 486.562432 86.506893 
L 487.488957 81.85117 
L 488.415483 85.218128 
L 489.342008 91.18199 
L 490.268534 91.800921 
L 491.19506 91.065195 
L 492.121585 77.710459 
L 493.048111 49.565061 
L 493.974636 29.561092 
L 494.901162 49.442091 
L 495.827687 64.924088 
L 496.754213 65.900936 
L 497.680738 55.883876 
L 498.607264 53.136421 
L 499.533789 85.123442 
L 500.460315 102.804989 
L 501.38684 102.065533 
L 502.313366 100.437123 
L 503.239891 94.94428 
L 504.166417 82.021484 
L 505.092942 88.212765 
L 506.019468 100.003468 
L 506.945994 102.1121 
L 507.872519 96.219699 
L 508.799045 83.823848 
L 509.72557 82.973576 
L 510.652096 85.738799 
L 511.578621 86.41111 
L 512.505147 88.128459 
L 513.431672 92.126848 
L 514.358198 88.898869 
L 515.284723 85.139131 
L 516.211249 86.414995 
L 517.137774 83.886811 
L 518.0643 93.143842 
L 518.990825 98.534641 
L 519.917351 91.844091 
L 520.843876 94.677302 
L 521.770402 93.21088 
L 522.696928 90.859307 
L 523.623453 93.688889 
L 524.549979 94.542577 
L 525.476504 99.962287 
L 526.40303 95.14856 
L 527.329555 89.04893 
L 528.256081 96.220964 
L 529.182606 97.624023 
L 530.109132 95.750431 
L 531.035657 98.508744 
L 531.962183 101.996436 
L 532.888708 87.626081 
L 533.815234 78.636312 
L 534.741759 89.111646 
L 535.668285 102.773568 
L 536.59481 108.257023 
L 537.521336 100.101314 
L 538.447862 100.952225 
L 539.374387 102.771191 
L 540.300913 102.578375 
L 541.227438 107.698042 
L 542.153964 106.434931 
L 543.080489 106.779403 
L 544.007015 100.201746 
L 544.93354 77.099993 
L 545.860066 76.736168 
L 546.786591 94.738407 
L 547.713117 104.367184 
L 548.639642 102.110706 
L 549.566168 103.114327 
L 550.492693 106.247225 
L 551.419219 103.961486 
L 552.345744 102.09215 
L 553.27227 103.724393 
L 554.198796 105.664555 
L 555.125321 105.460205 
L 556.051847 98.917796 
L 556.978372 95.200474 
L 557.904898 105.105054 
L 558.831423 105.143356 
L 559.757949 99.741855 
L 560.684474 103.162407 
L 561.611 101.39823 
L 562.537525 90.772725 
L 563.464051 55.632812 
L 564.390576 38.513827 
L 565.317102 46.047343 
L 566.243627 38.290833 
L 567.170153 60.249119 
L 568.096678 92.847399 
L 569.023204 82.344081 
L 569.94973 81.523788 
L 570.876255 79.94066 
L 571.802781 77.794321 
L 572.729306 83.906901 
L 573.655832 82.253206 
L 574.582357 80.205749 
L 575.508883 80.34219 
L 576.435408 82.399682 
L 577.361934 86.609565 
L 578.288459 84.17914 
L 579.214985 79.336228 
L 580.14151 82.433002 
L 581.068036 84.448814 
L 581.994561 67.833272 
L 582.921087 49.205874 
L 583.847612 48.769032 
L 584.774138 72.123646 
L 585.700664 92.549202 
L 586.627189 88.325043 
L 587.553715 80.551249 
L 588.48024 83.084247 
L 589.406766 87.682929 
L 590.333291 88.779886 
L 591.259817 86.353105 
L 592.186342 83.044897 
L 593.112868 88.988712 
L 594.039393 91.964107 
L 594.965919 85.9105 
L 595.892444 85.712425 
L 596.81897 81.97738 
L 597.745495 84.312151 
L 598.672021 84.445619 
L 599.598546 83.675009 
L 600.525072 90.453382 
L 601.451598 87.58372 
L 602.378123 83.968554 
L 603.304649 86.354296 
L 604.231174 86.522986 
L 605.1577 83.683034 
L 606.084225 89.86517 
L 607.010751 87.941874 
L 607.937276 83.012278 
L 608.863802 90.266055 
L 609.790327 87.63463 
L 610.716853 86.261771 
L 611.643378 93.133851 
L 612.569904 93.082436 
L 613.496429 95.497419 
L 614.422955 95.922692 
L 615.34948 92.365581 
L 616.276006 87.896771 
L 617.202532 88.466262 
L 618.129057 89.374853 
L 619.055583 94.262375 
L 619.982108 91.365491 
L 620.908634 83.742424 
L 621.835159 85.976442 
L 622.761685 82.220425 
L 623.68821 82.610591 
L 624.614736 83.445923 
L 625.541261 86.64978 
L 626.467787 91.925825 
L 627.394312 83.01203 
L 628.320838 82.201127 
L 629.247363 92.049834 
L 630.173889 91.789293 
L 631.100414 85.485357 
L 632.02694 90.090435 
L 632.953466 90.234719 
L 633.879991 87.429405 
L 634.806517 85.36713 
L 635.733042 103.993645 
L 636.659568 119.310253 
L 637.586093 117.559363 
L 638.512619 116.393424 
L 639.439144 117.668168 
L 640.36567 117.42846 
L 642.218721 117.987092 
L 643.145246 116.629538 
L 644.071772 116.93299 
L 645.924823 116.94914 
L 646.851348 118.056745 
L 647.777874 117.110163 
L 648.7044 118.717742 
L 650.557451 160.382391 
L 651.483976 164.81649 
L 652.410502 165.96 
L 653.337027 163.675186 
L 654.263553 163.241617 
L 655.190078 164.60183 
L 656.116604 165.105346 
L 657.043129 163.077175 
L 658.89618 163.82917 
L 659.822706 163.055357 
L 660.749231 162.581411 
L 661.675757 164.118584 
L 662.602282 164.1111 
L 663.528808 162.853058 
L 664.455334 163.910552 
L 665.381859 165.677098 
L 666.308385 164.318404 
L 667.23491 163.33415 
L 668.161436 164.144138 
L 669.087961 164.372475 
L 670.014487 163.071478 
L 670.941012 163.602794 
L 671.867538 164.486064 
L 673.720589 162.741808 
L 675.57364 165.049459 
L 676.500165 163.0262 
L 678.353216 164.068133 
L 679.279742 163.904465 
L 680.206268 162.308885 
L 681.132793 164.059374 
L 682.059319 164.345599 
L 682.985844 162.972764 
L 683.91237 163.371705 
L 684.838895 164.387443 
L 685.765421 164.375041 
L 686.691946 163.102194 
L 687.618472 163.375791 
L 688.544997 163.817868 
L 689.471523 162.813001 
L 690.398048 163.589415 
L 691.324574 164.917584 
L 691.324574 164.917584 
" clip-path="url(#pa9613484a4)" style="fill: none; stroke: #1f77b4; stroke-width: 1.5; stroke-linecap: square"/>
   </g>
   <g id="patch_3">
    <path d="M 52.160938 173.52 
L 52.160938 7.2 
" style="fill: none; stroke: #000000; stroke-width: 0.8; stroke-linejoin: miter; stroke-linecap: square"/>
   </g>
   <g id="patch_4">
    <path d="M 721.760938 173.52 
L 721.760938 7.2 
" style="fill: none; stroke: #000000; stroke-width: 0.8; stroke-linejoin: miter; stroke-linecap: square"/>
   </g>
   <g id="patch_5">
    <path d="M 52.160938 173.52 
L 721.760937 173.52 
" style="fill: none; stroke: #000000; stroke-width: 0.8; stroke-linejoin: miter; stroke-linecap: square"/>
   </g>
   <g id="patch_6">
    <path d="M 52.160938 7.2 
L 721.760937 7.2 
" style="fill: none; stroke: #000000; stroke-width: 0.8; stroke-linejoin: miter; stroke-linecap: square"/>
   </g>
  </g>
 </g>
 <defs>
  <clipPath id="pa9613484a4">
   <rect x="52.160938" y="7.2" width="669.6" height="166.32"/>
  </clipPath>
 </defs>
</svg>
