<?xml version="1.0" encoding="utf-8" standalone="no"?>
<!DOCTYPE svg PUBLIC "-//W3C//DTD SVG 1.1//EN"
  "http://www.w3.org/Graphics/SVG/1.1/DTD/svg11.dtd">
<svg xmlns:xlink="http://www.w3.org/1999/xlink" width="416.484062pt" height="314.667469pt" viewBox="0 0 416.484062 314.667469" xmlns="http://www.w3.org/2000/svg" version="1.1">
 <metadata>
  <rdf:RDF xmlns:dc="http://purl.org/dc/elements/1.1/" xmlns:cc="http://creativecommons.org/ns#" xmlns:rdf="http://www.w3.org/1999/02/22-rdf-syntax-ns#">
   <cc:Work>
    <dc:type rdf:resource="http://purl.org/dc/dcmitype/StillImage"/>
    <dc:date>2026-06-21T23:25:24.909042</dc:date>
    <dc:format>image/svg+xml</dc:format>
    <dc:creator>
     <cc:Agent>
      <dc:title>Matplotlib v3.10.9, https://matplotlib.org/</dc:title>
     </cc:Agent>
    </dc:creator>
   </cc:Work>
  </rdf:RDF>
 </metadata>
 <defs>
  <style type="text/css">*{stroke-linejoin: round; stroke-linecap: butt}</style>
 </defs>
 <g id="figure_1">
  <g id="patch_1">
   <path d="M 0 314.667469 
L 416.484062 314.667469 
L 416.484062 0 
L 0 0 
z
" style="fill: #ffffff"/>
  </g>
  <g id="axes_1">
   <g id="patch_2">
    <path d="M 48.982813 277.111219 
L 406.102813 277.111219 
L 406.102813 10.999219 
L 48.982813 10.999219 
z
" style="fill: #ffffff"/>
   </g>
   <g id="matplotlib.axis_1">
    <g id="xtick_1">
     <g id="line2d_1">
      <path d="M 48.982813 277.111219 
L 48.982813 10.999219 
" clip-path="url(#pcea9043d6b)" style="fill: none; stroke: #b0b0b0; stroke-width: 0.8; stroke-linecap: square"/>
     </g>
     <g id="line2d_2">
      <defs>
       <path id="m618f36ecfa" d="M 0 0 
L 0 3.5 
" style="stroke: #000000; stroke-width: 0.8"/>
      </defs>
      <g>
       <use xlink:href="#m618f36ecfa" x="48.982813" y="277.111219" style="stroke: #000000; stroke-width: 0.8"/>
      </g>
     </g>
     <g id="text_1">
      <text style="font-size: 10px; font-family: 'DejaVu Sans', 'Bitstream Vera Sans', 'Computer Modern Sans Serif', 'Lucida Grande', 'Verdana', 'Geneva', 'Lucid', 'Arial', 'Helvetica', 'Avant Garde', sans-serif; text-anchor: middle" x="48.982813" y="291.709656" transform="rotate(-0 48.982813 291.709656)">−4</text>
     </g>
    </g>
    <g id="xtick_2">
     <g id="line2d_3">
      <path d="M 93.622813 277.111219 
L 93.622813 10.999219 
" clip-path="url(#pcea9043d6b)" style="fill: none; stroke: #b0b0b0; stroke-width: 0.8; stroke-linecap: square"/>
     </g>
     <g id="line2d_4">
      <g>
       <use xlink:href="#m618f36ecfa" x="93.622813" y="277.111219" style="stroke: #000000; stroke-width: 0.8"/>
      </g>
     </g>
     <g id="text_2">
      <text style="font-size: 10px; font-family: 'DejaVu Sans', 'Bitstream Vera Sans', 'Computer Modern Sans Serif', 'Lucida Grande', 'Verdana', 'Geneva', 'Lucid', 'Arial', 'Helvetica', 'Avant Garde', sans-serif; text-anchor: middle" x="93.622813" y="291.709656" transform="rotate(-0 93.622813 291.709656)">−3</text>
     </g>
    </g>
    <g id="xtick_3">
     <g id="line2d_5">
      <path d="M 138.262813 277.111219 
L 138.262813 10.999219 
" clip-path="url(#pcea9043d6b)" style="fill: none; stroke: #b0b0b0; stroke-width: 0.8; stroke-linecap: square"/>
     </g>
     <g id="line2d_6">
      <g>
       <use xlink:href="#m618f36ecfa" x="138.262813" y="277.111219" style="stroke: #000000; stroke-width: 0.8"/>
      </g>
     </g>
     <g id="text_3">
      <text style="font-size: 10px; font-family: 'DejaVu Sans', 'Bitstream Vera Sans', 'Computer Modern Sans Serif', 'Lucida Grande', 'Verdana', 'Geneva', 'Lucid', 'Arial', 'Helvetica', 'Avant Garde', sans-serif; text-anchor: middle" x="138.262813" y="291.709656" transform="rotate(-0 138.262813 291.709656)">−2</text>
     </g>
    </g>
    <g id="xtick_4">
     <g id="line2d_7">
      <path d="M 182.902813 277.111219 
L 182.902813 10.999219 
" clip-path="url(#pcea9043d6b)" style="fill: none; stroke: #b0b0b0; stroke-width: 0.8; stroke-linecap: square"/>
     </g>
     <g id="line2d_8">
      <g>
       <use xlink:href="#m618f36ecfa" x="182.902813" y="277.111219" style="stroke: #000000; stroke-width: 0.8"/>
      </g>
     </g>
     <g id="text_4">
      <text style="font-size: 10px; font-family: 'DejaVu Sans', 'Bitstream Vera Sans', 'Computer Modern Sans Serif', 'Lucida Grande', 'Verdana', 'Geneva', 'Lucid', 'Arial', 'Helvetica', 'Avant Garde', sans-serif; text-anchor: middle" x="182.902813" y="291.709656" transform="rotate(-0 182.902813 291.709656)">−1</text>
     </g>
    </g>
    <g id="xtick_5">
     <g id="line2d_9">
      <path d="M 227.542813 277.111219 
L 227.542813 10.999219 
" clip-path="url(#pcea9043d6b)" style="fill: none; stroke: #b0b0b0; stroke-width: 0.8; stroke-linecap: square"/>
     </g>
     <g id="line2d_10">
      <g>
       <use xlink:href="#m618f36ecfa" x="227.542813" y="277.111219" style="stroke: #000000; stroke-width: 0.8"/>
      </g>
     </g>
     <g id="text_5">
      <text style="font-size: 10px; font-family: 'DejaVu Sans', 'Bitstream Vera Sans', 'Computer Modern Sans Serif', 'Lucida Grande', 'Verdana', 'Geneva', 'Lucid', 'Arial', 'Helvetica', 'Avant Garde', sans-serif; text-anchor: middle" x="227.542813" y="291.709656" transform="rotate(-0 227.542813 291.709656)">0</text>
     </g>
    </g>
    <g id="xtick_6">
     <g id="line2d_11">
      <path d="M 272.182813 277.111219 
L 272.182813 10.999219 
" clip-path="url(#pcea9043d6b)" style="fill: none; stroke: #b0b0b0; stroke-width: 0.8; stroke-linecap: square"/>
     </g>
     <g id="line2d_12">
      <g>
       <use xlink:href="#m618f36ecfa" x="272.182813" y="277.111219" style="stroke: #000000; stroke-width: 0.8"/>
      </g>
     </g>
     <g id="text_6">
      <text style="font-size: 10px; font-family: 'DejaVu Sans', 'Bitstream Vera Sans', 'Computer Modern Sans Serif', 'Lucida Grande', 'Verdana', 'Geneva', 'Lucid', 'Arial', 'Helvetica', 'Avant Garde', sans-serif; text-anchor: middle" x="272.182813" y="291.709656" transform="rotate(-0 272.182813 291.709656)">1</text>
     </g>
    </g>
    <g id="xtick_7">
     <g id="line2d_13">
      <path d="M 316.822813 277.111219 
L 316.822813 10.999219 
" clip-path="url(#pcea9043d6b)" style="fill: none; stroke: #b0b0b0; stroke-width: 0.8; stroke-linecap: square"/>
     </g>
     <g id="line2d_14">
      <g>
       <use xlink:href="#m618f36ecfa" x="316.822813" y="277.111219" style="stroke: #000000; stroke-width: 0.8"/>
      </g>
     </g>
     <g id="text_7">
      <text style="font-size: 10px; font-family: 'DejaVu Sans', 'Bitstream Vera Sans', 'Computer Modern Sans Serif', 'Lucida Grande', 'Verdana', 'Geneva', 'Lucid', 'Arial', 'Helvetica', 'Avant Garde', sans-serif; text-anchor: middle" x="316.822813" y="291.709656" transform="rotate(-0 316.822813 291.709656)">2</text>
     </g>
    </g>
    <g id="xtick_8">
     <g id="line2d_15">
      <path d="M 361.462813 277.111219 
L 361.462813 10.999219 
" clip-path="url(#pcea9043d6b)" style="fill: none; stroke: #b0b0b0; stroke-width: 0.8; stroke-linecap: square"/>
     </g>
     <g id="line2d_16">
      <g>
       <use xlink:href="#m618f36ecfa" x="361.462813" y="277.111219" style="stroke: #000000; stroke-width: 0.8"/>
      </g>
     </g>
     <g id="text_8">
      <text style="font-size: 10px; font-family: 'DejaVu Sans', 'Bitstream Vera Sans', 'Computer Modern Sans Serif', 'Lucida Grande', 'Verdana', 'Geneva', 'Lucid', 'Arial', 'Helvetica', 'Avant Garde', sans-serif; text-anchor: middle" x="361.462813" y="291.709656" transform="rotate(-0 361.462813 291.709656)">3</text>
     </g>
    </g>
    <g id="xtick_9">
     <g id="line2d_17">
      <path d="M 406.102813 277.111219 
L 406.102813 10.999219 
" clip-path="url(#pcea9043d6b)" style="fill: none; stroke: #b0b0b0; stroke-width: 0.8; stroke-linecap: square"/>
     </g>
     <g id="line2d_18">
      <g>
       <use xlink:href="#m618f36ecfa" x="406.102813" y="277.111219" style="stroke: #000000; stroke-width: 0.8"/>
      </g>
     </g>
     <g id="text_9">
      <text style="font-size: 10px; font-family: 'DejaVu Sans', 'Bitstream Vera Sans', 'Computer Modern Sans Serif', 'Lucida Grande', 'Verdana', 'Geneva', 'Lucid', 'Arial', 'Helvetica', 'Avant Garde', sans-serif; text-anchor: middle" x="406.102813" y="291.709656" transform="rotate(-0 406.102813 291.709656)">4</text>
     </g>
    </g>
    <g id="text_10">
     <text style="font-size: 10px; font-family: 'DejaVu Sans', 'Bitstream Vera Sans', 'Computer Modern Sans Serif', 'Lucida Grande', 'Verdana', 'Geneva', 'Lucid', 'Arial', 'Helvetica', 'Avant Garde', sans-serif; text-anchor: middle" x="227.542813" y="305.387781" transform="rotate(-0 227.542813 305.387781)">Frequency [MHz]</text>
    </g>
   </g>
   <g id="matplotlib.axis_2">
    <g id="ytick_1">
     <g id="line2d_19">
      <path d="M 48.982813 277.111219 
L 406.102813 277.111219 
" clip-path="url(#pcea9043d6b)" style="fill: none; stroke: #b0b0b0; stroke-width: 0.8; stroke-linecap: square"/>
     </g>
     <g id="line2d_20">
      <defs>
       <path id="mb04d95800e" d="M 0 0 
L -3.5 0 
" style="stroke: #000000; stroke-width: 0.8"/>
      </defs>
      <g>
       <use xlink:href="#mb04d95800e" x="48.982813" y="277.111219" style="stroke: #000000; stroke-width: 0.8"/>
      </g>
     </g>
     <g id="text_11">
      <text style="font-size: 10px; font-family: 'DejaVu Sans', 'Bitstream Vera Sans', 'Computer Modern Sans Serif', 'Lucida Grande', 'Verdana', 'Geneva', 'Lucid', 'Arial', 'Helvetica', 'Avant Garde', sans-serif; text-anchor: end" x="41.982813" y="280.910437" transform="rotate(-0 41.982813 280.910437)">−30</text>
     </g>
    </g>
    <g id="ytick_2">
     <g id="line2d_21">
      <path d="M 48.982813 247.543219 
L 406.102813 247.543219 
" clip-path="url(#pcea9043d6b)" style="fill: none; stroke: #b0b0b0; stroke-width: 0.8; stroke-linecap: square"/>
     </g>
     <g id="line2d_22">
      <g>
       <use xlink:href="#mb04d95800e" x="48.982813" y="247.543219" style="stroke: #000000; stroke-width: 0.8"/>
      </g>
     </g>
     <g id="text_12">
      <text style="font-size: 10px; font-family: 'DejaVu Sans', 'Bitstream Vera Sans', 'Computer Modern Sans Serif', 'Lucida Grande', 'Verdana', 'Geneva', 'Lucid', 'Arial', 'Helvetica', 'Avant Garde', sans-serif; text-anchor: end" x="41.982813" y="251.342437" transform="rotate(-0 41.982813 251.342437)">−25</text>
     </g>
    </g>
    <g id="ytick_3">
     <g id="line2d_23">
      <path d="M 48.982813 217.975219 
L 406.102813 217.975219 
" clip-path="url(#pcea9043d6b)" style="fill: none; stroke: #b0b0b0; stroke-width: 0.8; stroke-linecap: square"/>
     </g>
     <g id="line2d_24">
      <g>
       <use xlink:href="#mb04d95800e" x="48.982813" y="217.975219" style="stroke: #000000; stroke-width: 0.8"/>
      </g>
     </g>
     <g id="text_13">
      <text style="font-size: 10px; font-family: 'DejaVu Sans', 'Bitstream Vera Sans', 'Computer Modern Sans Serif', 'Lucida Grande', 'Verdana', 'Geneva', 'Lucid', 'Arial', 'Helvetica', 'Avant Garde', sans-serif; text-anchor: end" x="41.982813" y="221.774437" transform="rotate(-0 41.982813 221.774437)">−20</text>
     </g>
    </g>
    <g id="ytick_4">
     <g id="line2d_25">
      <path d="M 48.982813 188.407219 
L 406.102813 188.407219 
" clip-path="url(#pcea9043d6b)" style="fill: none; stroke: #b0b0b0; stroke-width: 0.8; stroke-linecap: square"/>
     </g>
     <g id="line2d_26">
      <g>
       <use xlink:href="#mb04d95800e" x="48.982813" y="188.407219" style="stroke: #000000; stroke-width: 0.8"/>
      </g>
     </g>
     <g id="text_14">
      <text style="font-size: 10px; font-family: 'DejaVu Sans', 'Bitstream Vera Sans', 'Computer Modern Sans Serif', 'Lucida Grande', 'Verdana', 'Geneva', 'Lucid', 'Arial', 'Helvetica', 'Avant Garde', sans-serif; text-anchor: end" x="41.982813" y="192.206437" transform="rotate(-0 41.982813 192.206437)">−15</text>
     </g>
    </g>
    <g id="ytick_5">
     <g id="line2d_27">
      <path d="M 48.982813 158.839219 
L 406.102813 158.839219 
" clip-path="url(#pcea9043d6b)" style="fill: none; stroke: #b0b0b0; stroke-width: 0.8; stroke-linecap: square"/>
     </g>
     <g id="line2d_28">
      <g>
       <use xlink:href="#mb04d95800e" x="48.982813" y="158.839219" style="stroke: #000000; stroke-width: 0.8"/>
      </g>
     </g>
     <g id="text_15">
      <text style="font-size: 10px; font-family: 'DejaVu Sans', 'Bitstream Vera Sans', 'Computer Modern Sans Serif', 'Lucida Grande', 'Verdana', 'Geneva', 'Lucid', 'Arial', 'Helvetica', 'Avant Garde', sans-serif; text-anchor: end" x="41.982813" y="162.638437" transform="rotate(-0 41.982813 162.638437)">−10</text>
     </g>
    </g>
    <g id="ytick_6">
     <g id="line2d_29">
      <path d="M 48.982813 129.271219 
L 406.102813 129.271219 
" clip-path="url(#pcea9043d6b)" style="fill: none; stroke: #b0b0b0; stroke-width: 0.8; stroke-linecap: square"/>
     </g>
     <g id="line2d_30">
      <g>
       <use xlink:href="#mb04d95800e" x="48.982813" y="129.271219" style="stroke: #000000; stroke-width: 0.8"/>
      </g>
     </g>
     <g id="text_16">
      <text style="font-size: 10px; font-family: 'DejaVu Sans', 'Bitstream Vera Sans', 'Computer Modern Sans Serif', 'Lucida Grande', 'Verdana', 'Geneva', 'Lucid', 'Arial', 'Helvetica', 'Avant Garde', sans-serif; text-anchor: end" x="41.982813" y="133.070437" transform="rotate(-0 41.982813 133.070437)">−5</text>
     </g>
    </g>
    <g id="ytick_7">
     <g id="line2d_31">
      <path d="M 48.982813 99.703219 
L 406.102813 99.703219 
" clip-path="url(#pcea9043d6b)" style="fill: none; stroke: #b0b0b0; stroke-width: 0.8; stroke-linecap: square"/>
     </g>
     <g id="line2d_32">
      <g>
       <use xlink:href="#mb04d95800e" x="48.982813" y="99.703219" style="stroke: #000000; stroke-width: 0.8"/>
      </g>
     </g>
     <g id="text_17">
      <text style="font-size: 10px; font-family: 'DejaVu Sans', 'Bitstream Vera Sans', 'Computer Modern Sans Serif', 'Lucida Grande', 'Verdana', 'Geneva', 'Lucid', 'Arial', 'Helvetica', 'Avant Garde', sans-serif; text-anchor: end" x="41.982813" y="103.502437" transform="rotate(-0 41.982813 103.502437)">0</text>
     </g>
    </g>
    <g id="ytick_8">
     <g id="line2d_33">
      <path d="M 48.982813 70.135219 
L 406.102813 70.135219 
" clip-path="url(#pcea9043d6b)" style="fill: none; stroke: #b0b0b0; stroke-width: 0.8; stroke-linecap: square"/>
     </g>
     <g id="line2d_34">
      <g>
       <use xlink:href="#mb04d95800e" x="48.982813" y="70.135219" style="stroke: #000000; stroke-width: 0.8"/>
      </g>
     </g>
     <g id="text_18">
      <text style="font-size: 10px; font-family: 'DejaVu Sans', 'Bitstream Vera Sans', 'Computer Modern Sans Serif', 'Lucida Grande', 'Verdana', 'Geneva', 'Lucid', 'Arial', 'Helvetica', 'Avant Garde', sans-serif; text-anchor: end" x="41.982813" y="73.934437" transform="rotate(-0 41.982813 73.934437)">5</text>
     </g>
    </g>
    <g id="ytick_9">
     <g id="line2d_35">
      <path d="M 48.982813 40.567219 
L 406.102813 40.567219 
" clip-path="url(#pcea9043d6b)" style="fill: none; stroke: #b0b0b0; stroke-width: 0.8; stroke-linecap: square"/>
     </g>
     <g id="line2d_36">
      <g>
       <use xlink:href="#mb04d95800e" x="48.982813" y="40.567219" style="stroke: #000000; stroke-width: 0.8"/>
      </g>
     </g>
     <g id="text_19">
      <text style="font-size: 10px; font-family: 'DejaVu Sans', 'Bitstream Vera Sans', 'Computer Modern Sans Serif', 'Lucida Grande', 'Verdana', 'Geneva', 'Lucid', 'Arial', 'Helvetica', 'Avant Garde', sans-serif; text-anchor: end" x="41.982813" y="44.366438" transform="rotate(-0 41.982813 44.366438)">10</text>
     </g>
    </g>
    <g id="ytick_10">
     <g id="line2d_37">
      <path d="M 48.982813 10.999219 
L 406.102813 10.999219 
" clip-path="url(#pcea9043d6b)" style="fill: none; stroke: #b0b0b0; stroke-width: 0.8; stroke-linecap: square"/>
     </g>
     <g id="line2d_38">
      <g>
       <use xlink:href="#mb04d95800e" x="48.982813" y="10.999219" style="stroke: #000000; stroke-width: 0.8"/>
      </g>
     </g>
     <g id="text_20">
      <text style="font-size: 10px; font-family: 'DejaVu Sans', 'Bitstream Vera Sans', 'Computer Modern Sans Serif', 'Lucida Grande', 'Verdana', 'Geneva', 'Lucid', 'Arial', 'Helvetica', 'Avant Garde', sans-serif; text-anchor: end" x="41.982813" y="14.798437" transform="rotate(-0 41.982813 14.798437)">15</text>
     </g>
    </g>
    <g id="text_21">
     <text style="font-size: 10px; font-family: 'DejaVu Sans', 'Bitstream Vera Sans', 'Computer Modern Sans Serif', 'Lucida Grande', 'Verdana', 'Geneva', 'Lucid', 'Arial', 'Helvetica', 'Avant Garde', sans-serif; text-anchor: middle" x="14.798438" y="144.055219" transform="rotate(-90 14.798438 144.055219)">PSD [dB]</text>
    </g>
   </g>
   <g id="line2d_39">
    <path d="M 49.29067 315.667469 
L 49.327523 290.37116 
L 49.375223 315.667469 
M 49.597807 315.667469 
L 49.872132 291.933974 
L 49.967279 315.667469 
M 49.989696 315.667469 
L 50.089976 275.79753 
L 50.198898 305.997182 
L 50.30782 305.977015 
L 50.416741 299.353451 
L 50.450819 315.667469 
M 51.188449 315.667469 
L 51.288116 266.946779 
L 51.511715 315.667469 
M 51.992226 315.667469 
L 52.050569 304.592639 
L 52.068939 315.667469 
M 52.265961 315.667469 
L 52.377334 310.971262 
L 52.405669 315.667469 
M 52.552083 315.667469 
L 52.595178 306.923348 
L 52.626474 315.667469 
M 52.788344 315.667469 
L 52.813021 309.314604 
L 52.829397 315.667469 
M 52.987723 315.667469 
L 53.030865 292.120624 
L 53.102364 315.667469 
M 53.413452 315.667469 
L 53.466552 292.328998 
L 53.575474 298.310206 
L 53.626971 315.667469 
M 54.115157 315.667469 
L 54.120083 314.36042 
L 54.129922 315.667469 
M 54.311966 315.667469 
L 54.337927 311.548604 
L 54.346202 315.667469 
M 54.646326 315.667469 
L 54.664692 305.199804 
L 54.707997 315.667469 
M 55.627452 315.667469 
L 55.753911 306.551357 
L 55.795645 315.667469 
M 55.908613 315.667469 
L 55.971754 295.426541 
L 55.993306 315.667469 
M 56.465751 315.667469 
L 56.516363 293.282256 
L 56.543949 315.667469 
M 57.058264 315.667469 
L 57.060972 314.629341 
L 57.062008 315.667469 
M 57.277221 315.667469 
L 57.387738 299.604596 
L 57.49666 274.83121 
L 57.605581 288.295894 
L 57.638996 315.667469 
M 58.041014 315.667469 
L 58.041269 315.592029 
L 58.041759 315.667469 
M 58.715782 315.667469 
L 58.803721 280.173525 
L 58.912643 304.223355 
L 59.130487 272.311032 
L 59.239409 301.81712 
L 59.348331 276.564613 
L 59.386659 315.667469 
M 59.531279 315.667469 
L 59.675096 278.483165 
L 59.719087 315.667469 
M 59.871324 315.667469 
L 60.001861 287.746964 
L 60.110783 297.021749 
L 60.219705 293.213069 
L 60.449463 315.667469 
M 60.759425 315.667469 
L 60.764314 307.580344 
L 60.873236 311.64026 
L 61.09108 262.291903 
L 61.160881 315.667469 
M 61.295544 315.667469 
L 61.417845 280.184658 
L 61.488753 315.667469 
M 61.664104 315.667469 
L 61.744611 276.308697 
L 61.867254 315.667469 
M 62.095216 315.667469 
L 62.180298 292.461011 
L 62.306502 315.667469 
M 62.49521 315.667469 
L 62.507063 315.44612 
L 62.512666 315.667469 
M 62.830749 315.667469 
L 62.833829 315.278397 
L 62.836302 315.667469 
M 63.333427 315.667469 
L 63.378438 311.495885 
L 63.396564 315.667469 
M 63.745209 315.667469 
L 63.923047 297.553049 
L 64.036852 315.667469 
M 64.237053 315.667469 
L 64.249812 309.460784 
L 64.268127 315.667469 
M 64.696713 315.667469 
L 64.794421 303.734916 
L 64.825769 315.667469 
M 65.221285 315.667469 
L 65.33903 294.314763 
L 65.458231 315.667469 
M 65.811027 315.667469 
L 65.88364 304.364887 
L 65.902753 315.667469 
M 66.235447 315.667469 
L 66.319327 309.375196 
L 66.428249 309.640824 
L 66.53717 307.006657 
L 66.755014 287.071582 
L 66.803866 315.667469 
M 66.948057 315.667469 
L 67.08178 297.068175 
L 67.155891 315.667469 
M 67.780234 315.667469 
L 67.953154 275.314855 
L 68.014286 315.667469 
M 68.102662 315.667469 
L 68.170998 262.552714 
L 68.264558 315.667469 
M 68.306793 315.667469 
L 68.497763 288.736091 
L 68.606685 276.804896 
L 68.715607 303.723096 
L 68.824529 267.035524 
L 68.896251 315.667469 
M 69.115529 315.667469 
L 69.151294 300.924093 
L 69.260216 305.515579 
L 69.47806 296.31932 
L 69.586981 271.602241 
L 69.695903 294.002327 
L 69.804825 275.94336 
L 69.906403 315.667469 
M 69.92117 315.667469 
L 70.022669 276.399811 
L 70.13159 282.916831 
L 70.234054 315.667469 
M 70.258448 315.667469 
L 70.567278 277.847576 
L 70.642895 315.667469 
M 70.706424 315.667469 
L 70.785121 272.296245 
L 70.880654 315.667469 
M 71.002184 315.667469 
L 71.002965 315.623588 
L 71.003373 315.667469 
M 71.265781 315.667469 
L 71.32973 266.581251 
L 71.400109 315.667469 
M 71.491867 315.667469 
L 71.547574 287.526138 
L 71.656496 302.786688 
L 71.87434 265.469766 
L 71.983261 298.36067 
L 72.092183 291.325501 
L 72.165152 315.667469 
M 72.241431 315.667469 
L 72.310027 295.265788 
L 72.470493 315.667469 
M 72.703185 315.667469 
L 72.854636 284.361303 
L 72.883274 315.667469 
M 73.057812 315.667469 
L 73.07248 302.00977 
L 73.157936 315.667469 
M 73.222466 315.667469 
L 73.290323 309.470529 
L 73.399245 309.991159 
L 73.617089 295.514159 
L 73.686055 315.667469 
M 73.806369 315.667469 
L 73.943854 297.937809 
L 74.052776 310.978255 
L 74.161698 263.789512 
L 74.27062 283.615064 
L 74.379541 249.620358 
L 74.467756 315.667469 
M 74.531336 315.667469 
L 74.597385 291.783599 
L 74.706307 293.708185 
L 74.826376 315.667469 
M 75.041435 315.667469 
L 75.141994 288.439806 
L 75.198566 315.667469 
M 75.292265 315.667469 
L 75.359838 274.492899 
L 75.46876 282.2963 
L 75.577681 272.121686 
L 75.624018 315.667469 
M 75.901701 315.667469 
L 75.904447 313.043359 
L 75.911844 315.667469 
M 76.047752 315.667469 
L 76.12229 237.596356 
L 76.340134 284.788822 
L 76.449056 263.825053 
L 76.557978 292.333487 
L 76.6669 291.879856 
L 76.775821 280.598112 
L 76.854464 315.667469 
M 76.909277 315.667469 
L 76.993665 269.223888 
L 77.102587 277.574245 
L 77.32043 270.199762 
L 77.429352 260.217483 
L 77.487746 315.667469 
M 77.586509 315.667469 
L 77.647196 255.300307 
L 77.778628 315.667469 
M 77.89049 315.667469 
L 77.973961 268.990644 
L 78.027749 315.667469 
M 78.161527 315.667469 
L 78.300727 267.282597 
L 78.409649 243.625366 
L 78.557248 315.667469 
M 78.728248 315.667469 
L 78.845336 283.740422 
L 78.954258 276.613249 
L 79.06318 286.343786 
L 79.134872 315.667469 
M 79.218094 315.667469 
L 79.389945 236.358341 
L 79.488872 315.667469 
M 79.51971 315.667469 
L 79.607789 281.807241 
L 79.676421 315.667469 
M 79.748094 315.667469 
L 79.934554 250.307312 
L 80.043476 307.324958 
L 80.26132 243.055164 
L 80.320964 315.667469 
M 80.432012 315.667469 
L 80.479163 269.875155 
L 80.588085 274.574742 
L 80.697007 252.038301 
L 80.870063 315.667469 
M 80.957678 315.667469 
L 81.132694 258.020952 
L 81.214732 315.667469 
M 81.268055 315.667469 
L 81.45946 252.289547 
L 81.559858 315.667469 
M 81.619709 315.667469 
L 81.677303 309.62977 
L 81.786225 256.483054 
L 81.869272 315.667469 
M 81.931774 315.667469 
L 82.004069 279.270426 
L 82.11299 300.961202 
L 82.330834 269.348581 
L 82.439756 310.215955 
L 82.766521 257.192928 
L 82.867607 315.667469 
M 82.885864 315.667469 
L 82.984365 272.81895 
L 83.093287 282.891204 
L 83.202209 273.889694 
L 83.31113 305.500645 
L 83.528974 253.810425 
L 83.637896 273.801027 
L 83.728237 315.667469 
M 83.766893 315.667469 
L 83.964661 257.751479 
L 84.045418 315.667469 
M 84.114264 315.667469 
L 84.291427 250.825156 
L 84.400349 293.028811 
L 84.618192 253.717235 
L 84.727114 255.008557 
L 84.836036 277.008487 
L 84.944958 276.494974 
L 85.048375 315.667469 
M 85.057253 315.667469 
L 85.162801 250.434103 
L 85.3355 315.667469 
M 85.5753 315.667469 
L 85.816332 228.756174 
L 85.925254 224.960961 
L 86.143098 295.592302 
L 86.360941 253.630971 
L 86.486468 315.667469 
M 86.638843 315.667469 
L 86.687707 221.13191 
L 86.796629 313.027816 
L 87.014472 234.179045 
L 87.123394 280.694821 
L 87.341238 266.885577 
L 87.559081 218.443535 
L 87.650271 315.667469 
M 87.721478 315.667469 
L 87.994769 197.446797 
L 88.321534 273.849178 
L 88.430456 258.571461 
L 88.539378 225.373467 
L 88.6483 249.730117 
L 88.757221 208.664441 
L 88.866143 240.909526 
L 88.975065 225.619965 
L 89.083987 313.512149 
L 89.30183 241.704355 
L 89.410752 196.79641 
L 89.519674 259.861959 
L 89.628596 221.365787 
L 89.67794 315.667469 
M 89.796485 315.667469 
L 89.84644 219.210572 
L 89.955361 232.211248 
L 90.064283 214.504196 
L 90.173205 247.416372 
L 90.282127 212.519355 
L 90.391049 230.110953 
L 90.49997 202.430002 
L 90.608892 251.079481 
L 90.717814 205.579339 
L 90.826736 291.923913 
L 90.935658 216.734744 
L 91.04458 238.714484 
L 91.153501 225.187133 
L 91.371345 260.285824 
L 91.480267 213.568386 
L 91.69811 272.722602 
L 91.807032 230.911884 
L 91.915954 270.82909 
L 92.024876 244.810606 
L 92.242719 276.494252 
L 92.460563 214.983791 
L 92.569485 289.429136 
L 92.787329 202.918023 
L 93.005172 300.454197 
L 93.069441 315.667469 
M 93.138894 315.667469 
L 93.223016 279.814517 
L 93.331938 281.856972 
L 93.440859 194.618028 
L 93.549781 297.147965 
L 93.658703 225.014244 
L 93.767625 248.201806 
L 93.876547 246.995259 
L 93.985469 271.143884 
L 94.203312 186.998931 
L 94.421156 305.589571 
L 94.530078 223.110998 
L 94.638999 275.206653 
L 94.747921 208.897821 
L 94.856843 236.071035 
L 94.965765 194.016915 
L 95.29253 262.558794 
L 95.401452 202.701145 
L 95.510374 288.063709 
L 95.728218 161.972743 
L 95.837139 186.428717 
L 96.054983 153.679516 
L 96.163905 168.794524 
L 96.272827 233.653678 
L 96.49067 182.476762 
L 96.599592 178.127177 
L 96.708514 195.910444 
L 96.817436 169.564195 
L 97.035279 225.377054 
L 97.144201 148.229596 
L 97.362045 197.770501 
L 97.470967 173.967858 
L 97.579889 227.990614 
L 97.68881 191.228712 
L 97.797732 205.932844 
L 97.906654 148.935325 
L 98.015576 173.320528 
L 98.124498 154.696795 
L 98.233419 163.675437 
L 98.342341 155.654143 
L 98.451263 286.176638 
L 98.778029 132.153801 
L 98.88695 173.591795 
L 98.995872 149.288626 
L 99.213716 234.15352 
L 99.322638 166.484354 
L 99.431559 168.903205 
L 99.540481 145.397582 
L 99.649403 158.752374 
L 99.758325 209.076959 
L 99.867247 203.981627 
L 100.08509 129.126629 
L 100.194012 211.447698 
L 100.520778 112.457103 
L 100.738621 132.127066 
L 100.847543 205.453383 
L 100.956465 144.548259 
L 101.065387 151.501579 
L 101.174309 130.447802 
L 101.28323 154.311263 
L 101.392152 123.878767 
L 101.501074 128.254063 
L 101.609996 141.619119 
L 101.718918 179.096097 
L 101.827839 175.011695 
L 101.936761 141.342046 
L 102.154605 172.231776 
L 102.263527 167.174585 
L 102.48137 112.232125 
L 102.590292 166.089128 
L 102.699214 111.906466 
L 102.808136 114.016597 
L 102.917058 182.245125 
L 103.025979 151.637732 
L 103.134901 191.482322 
L 103.243823 149.886395 
L 103.352745 153.182161 
L 103.461667 133.0308 
L 103.570589 169.966561 
L 103.67951 125.810561 
L 103.897354 134.812985 
L 104.006276 138.726129 
L 104.115198 245.692512 
L 104.224119 126.743971 
L 104.333041 158.917948 
L 104.550885 111.990355 
L 104.87765 180.503866 
L 104.986572 134.78574 
L 105.095494 157.395288 
L 105.204416 156.385791 
L 105.422259 120.030632 
L 105.531181 132.045387 
L 105.640103 226.017921 
L 105.749025 163.105816 
L 105.857947 165.758549 
L 105.966869 135.255861 
L 106.07579 201.450068 
L 106.184712 165.220881 
L 106.293634 192.086136 
L 106.402556 115.329368 
L 106.511478 116.957293 
L 106.620399 151.722101 
L 106.729321 146.39525 
L 106.838243 200.339361 
L 107.056087 139.766263 
L 107.165009 123.029535 
L 107.27393 177.357991 
L 107.382852 141.534789 
L 107.491774 173.538991 
L 107.600696 144.120303 
L 107.818539 165.84893 
L 107.927461 128.931906 
L 108.036383 173.894881 
L 108.145305 166.561646 
L 108.254227 132.18714 
L 108.363149 180.865001 
L 108.47207 159.772096 
L 108.580992 224.996085 
L 108.798836 149.733516 
L 108.907758 128.329428 
L 109.016679 167.620794 
L 109.125601 144.202899 
L 109.234523 174.873895 
L 109.343445 274.436119 
L 109.452367 209.141612 
L 109.561289 280.028812 
L 109.67021 168.441561 
L 109.779132 192.019368 
L 109.888054 157.111902 
L 109.996976 197.012894 
L 110.105898 164.795545 
L 110.214819 167.828339 
L 110.323741 163.038563 
L 110.541585 247.555175 
L 110.759429 188.774044 
L 110.86835 253.520175 
L 111.304038 199.257609 
L 111.412959 233.766223 
L 111.521881 196.065579 
L 111.739725 210.390128 
L 111.848647 182.912193 
L 111.957569 197.227697 
L 112.06649 181.377724 
L 112.175412 224.072931 
L 112.284334 176.937138 
L 112.393256 224.677388 
L 112.502178 213.11594 
L 112.611099 262.600279 
L 112.720021 233.246394 
L 112.828943 239.662216 
L 112.926378 315.667469 
M 113.070577 315.667469 
L 113.26463 208.413071 
L 113.373552 280.810219 
L 113.591396 228.480699 
L 113.809239 265.385611 
L 114.027083 219.073597 
L 114.136005 258.046929 
L 114.244927 230.393116 
L 114.353849 234.886607 
L 114.46277 213.300289 
L 114.680614 232.934781 
L 114.789536 213.813846 
L 114.898458 237.843531 
L 115.007379 209.1468 
L 115.116301 219.294603 
L 115.225223 188.654619 
L 115.443067 238.738013 
L 115.551989 214.011945 
L 115.769832 274.987948 
L 115.878754 242.540309 
L 115.987676 262.797351 
L 116.096598 203.246984 
L 116.205519 217.048027 
L 116.314441 203.439465 
L 116.423363 302.570419 
L 116.532285 211.341255 
L 116.641207 228.304528 
L 116.85905 187.054916 
L 116.98744 315.667469 
M 117.131894 315.667469 
L 117.185816 201.623803 
L 117.294738 233.403278 
L 117.403659 207.136153 
L 117.621503 238.450301 
L 117.730425 237.385885 
L 117.948269 223.312627 
L 118.05719 244.860506 
L 118.166112 193.110392 
L 118.275034 207.247164 
L 118.492878 308.985248 
L 118.710721 203.110504 
L 118.928565 276.748815 
L 119.037487 236.995587 
L 119.146409 266.91487 
L 119.25533 221.57248 
L 119.364252 230.748932 
L 119.473174 217.081492 
L 119.691018 274.708142 
L 119.799939 199.90124 
L 120.017783 263.955272 
L 120.126705 258.388691 
L 120.344549 214.01014 
L 120.562392 266.906207 
L 120.671314 212.219269 
L 120.780236 253.598239 
L 120.998079 215.178765 
L 121.107001 207.523078 
L 121.215923 234.930878 
L 121.324845 222.158202 
L 121.433767 283.757646 
L 121.65161 257.564987 
L 121.722521 315.667469 
M 121.784515 315.667469 
L 121.869454 205.357667 
L 121.978376 219.55776 
L 122.196219 301.35627 
L 122.305141 227.643324 
L 122.501341 315.667469 
M 122.541858 315.667469 
L 122.740828 244.326115 
L 122.84975 241.495812 
L 122.958672 210.301981 
L 123.067594 265.008184 
L 123.176516 251.712453 
L 123.285438 285.522292 
L 123.503281 218.540661 
L 123.612203 231.31169 
L 123.721125 246.855407 
L 123.938968 220.54515 
L 124.04789 284.557901 
L 124.265734 218.139378 
L 124.374656 223.023888 
L 124.483578 197.115468 
L 124.701421 262.945493 
L 124.919265 195.449764 
L 125.137108 247.15635 
L 125.24603 205.831465 
L 125.354952 257.733883 
L 125.463874 211.63119 
L 125.572796 238.778483 
L 125.681718 235.794771 
L 125.790639 242.663468 
L 126.008483 230.3824 
L 126.226327 290.248464 
L 126.44417 179.486141 
L 126.662014 248.206757 
L 126.770936 276.424208 
L 126.879858 230.915381 
L 126.988779 240.977901 
L 127.097701 207.101875 
L 127.206623 269.222591 
L 127.315545 210.792213 
L 127.533388 258.596095 
L 127.64231 237.896578 
L 127.751232 271.284774 
L 127.969076 217.030375 
L 128.077998 222.369193 
L 128.295841 278.190884 
L 128.404763 211.006542 
L 128.513685 258.57013 
L 128.622607 203.838774 
L 128.731528 239.20457 
L 128.84045 223.905884 
L 128.949372 231.625762 
L 129.058294 206.400641 
L 129.167216 265.508161 
L 129.493981 216.898813 
L 129.602903 260.75299 
L 129.820747 234.04463 
L 129.929668 234.93213 
L 130.03859 212.526055 
L 130.147512 265.648137 
L 130.256434 245.466655 
L 130.474278 248.315445 
L 130.583199 277.443123 
L 130.692121 218.792088 
L 131.018887 315.404296 
L 131.23673 233.677511 
L 131.345652 249.976637 
L 131.404029 315.667469 
M 131.511131 315.667469 
L 131.563496 263.006751 
L 131.672418 277.509818 
L 131.781339 276.271836 
L 131.849079 315.667469 
M 132.022772 315.667469 
L 132.108105 239.408376 
L 132.217027 305.889307 
L 132.325948 251.144608 
L 132.543792 285.545471 
L 132.652714 237.076922 
L 132.870558 307.070655 
L 132.979479 267.784143 
L 133.088401 304.520925 
L 133.197323 256.146074 
L 133.306245 264.738665 
L 133.415167 244.686523 
L 133.524088 274.767324 
L 133.741932 250.410935 
L 133.850639 315.667469 
M 133.851009 315.667469 
L 133.959776 225.290768 
L 134.068698 296.129061 
L 134.286541 251.574439 
L 134.395463 250.041312 
L 134.504385 222.739955 
L 134.613307 258.59138 
L 134.722228 242.034421 
L 134.83115 196.204529 
L 134.92243 315.667469 
M 134.960132 315.667469 
L 135.048994 213.383033 
L 135.157916 241.982841 
L 135.266838 235.900999 
L 135.375759 242.387509 
L 135.484681 241.352238 
L 135.593603 253.511535 
L 135.702525 239.83788 
L 135.811447 255.872088 
L 135.920368 252.103777 
L 136.02929 242.632551 
L 136.138212 199.225644 
L 136.247134 206.098672 
L 136.356056 285.668776 
L 136.464978 234.411873 
L 136.573899 270.095338 
L 136.682821 250.397039 
L 136.900665 198.899333 
L 137.009587 209.786438 
L 137.08148 315.667469 
M 137.16137 315.667469 
L 137.22743 231.615487 
L 137.336352 267.124924 
L 137.445274 260.396474 
L 137.554196 214.622403 
L 137.663118 247.714314 
L 137.760729 315.667469 
M 137.7846 315.667469 
L 137.880961 255.264935 
L 137.989883 276.951549 
L 138.098805 219.388086 
L 138.207727 306.965848 
L 138.316648 293.08823 
L 138.349503 315.667469 
M 138.485591 315.667469 
L 138.643414 238.605267 
L 138.752336 232.671985 
L 138.970179 205.476754 
L 139.079101 232.154863 
L 139.185408 315.667469 
M 139.194556 315.667469 
L 139.405867 221.43203 
L 139.514788 242.508186 
L 139.62371 284.730677 
L 139.732632 213.904656 
L 139.897869 315.667469 
M 140.012974 315.667469 
L 140.059398 274.493587 
L 140.168319 314.039231 
L 140.277241 250.033642 
L 140.495085 270.763388 
L 140.604007 234.87173 
L 140.712928 313.880035 
L 140.82185 273.41779 
L 140.930772 306.288188 
L 141.039694 269.561365 
L 141.148616 309.444654 
L 141.257538 245.028781 
L 141.366459 270.3014 
L 141.475381 230.785443 
L 141.584303 279.129536 
L 141.693225 262.182686 
L 141.75304 315.667469 
M 141.85548 315.667469 
L 142.01999 241.8117 
L 142.128912 308.77137 
L 142.237834 237.863721 
L 142.346756 291.63302 
L 142.455678 248.163467 
L 142.564599 253.161256 
L 142.673521 268.396766 
L 143.000287 243.737832 
L 143.109208 242.288127 
L 143.21813 232.815672 
L 143.435974 261.505082 
L 143.544896 244.1984 
L 143.762739 277.96302 
L 143.871661 270.391578 
L 143.980583 242.814351 
L 144.089505 258.917848 
L 144.198427 242.662193 
L 144.41627 261.491851 
L 144.518784 315.667469 
M 144.528584 315.667469 
L 144.634114 210.31599 
L 144.743036 223.287553 
L 144.851958 271.361687 
L 144.960879 193.616156 
L 145.069801 280.838733 
L 145.287645 220.39588 
L 145.396567 221.418427 
L 145.505488 213.815256 
L 145.61441 293.248035 
L 145.723332 223.266111 
L 145.832254 234.375835 
L 145.941176 223.673418 
L 146.050098 279.570557 
L 146.159019 272.478293 
L 146.267941 254.722897 
L 146.485785 203.125303 
L 146.594707 217.584526 
L 146.703628 204.692583 
L 146.81255 209.664982 
L 146.921472 236.458952 
L 147.030394 235.294624 
L 147.139316 209.836777 
L 147.213671 315.667469 
M 147.309912 315.667469 
L 147.466081 200.68338 
L 147.575003 278.739712 
L 147.683925 242.88514 
L 147.792847 270.048856 
L 147.901768 221.38918 
L 148.01069 252.059472 
L 148.119612 206.82278 
L 148.228534 248.138585 
L 148.337456 247.666445 
L 148.446378 268.533674 
L 148.664221 211.101627 
L 148.773143 226.626451 
L 148.882065 189.929236 
L 148.990987 219.699462 
L 149.099908 218.970752 
L 149.20883 238.942067 
L 149.317752 205.66275 
L 149.535596 244.231459 
L 149.644518 201.734475 
L 149.862361 251.051294 
L 149.971283 246.647124 
L 150.189127 223.639118 
L 150.298048 247.144473 
L 150.40697 243.165825 
L 150.624814 211.065341 
L 150.733736 232.878937 
L 150.842657 288.508147 
L 150.951579 202.7116 
L 151.169423 302.206368 
L 151.278345 182.609435 
L 151.496188 235.916869 
L 151.60511 237.978646 
L 151.714032 214.761161 
L 151.822954 219.370524 
L 152.149719 284.072147 
L 152.258641 223.350424 
L 152.367563 225.174817 
L 152.476485 222.221287 
L 152.585407 228.312243 
L 152.694328 287.949653 
L 152.80325 192.033907 
L 152.912172 276.030527 
L 153.130016 173.427151 
L 153.238937 227.801471 
L 153.347859 219.238906 
L 153.456781 228.146144 
L 153.565703 180.477343 
L 153.783547 262.550391 
L 153.892468 281.635356 
L 154.110312 210.658305 
L 154.219234 202.516378 
L 154.328156 218.999424 
L 154.545999 186.5822 
L 154.763843 300.480613 
L 154.981687 174.571458 
L 155.090608 176.298476 
L 155.19953 250.96617 
L 155.308452 201.504862 
L 155.526296 258.580981 
L 155.635217 206.921982 
L 155.744139 215.129779 
L 155.853061 239.501689 
L 155.961983 168.363147 
L 156.070905 240.370285 
L 156.179827 200.443481 
L 156.288748 219.157312 
L 156.39767 216.67484 
L 156.506592 184.075371 
L 156.615514 192.192545 
L 156.833357 283.889862 
L 157.051201 187.23305 
L 157.160123 204.651211 
L 157.377967 183.166733 
L 157.486888 210.298698 
L 157.704732 206.367311 
L 157.813654 169.615679 
L 157.922576 171.962483 
L 158.031497 237.834857 
L 158.140419 219.57724 
L 158.249341 182.144733 
L 158.467185 229.789583 
L 158.685028 179.756291 
L 158.902872 206.627321 
L 159.011794 175.845263 
L 159.229637 216.692842 
L 159.338559 210.225124 
L 159.447481 184.660186 
L 159.556403 197.906011 
L 159.665325 239.675221 
L 159.883168 164.962241 
L 159.99209 213.407758 
L 160.101012 194.932698 
L 160.168912 315.667469 
M 160.256632 315.667469 
L 160.427777 189.322387 
L 160.536699 171.197888 
L 160.645621 251.403084 
L 160.863465 181.692631 
L 160.972387 167.661366 
L 161.081308 231.253591 
L 161.19023 176.397136 
L 161.299152 241.617922 
L 161.516996 172.638982 
L 161.734839 218.198481 
L 161.843761 155.552939 
L 161.952683 207.935731 
L 162.061605 178.70091 
L 162.279448 244.623189 
L 162.38837 205.110797 
L 162.497292 214.762785 
L 162.604611 315.667469 
M 162.607489 315.667469 
L 162.824057 179.818254 
L 162.932979 186.044556 
L 163.041901 202.423956 
L 163.150823 163.858269 
L 163.259745 215.494089 
L 163.58651 154.056098 
L 163.695432 170.852527 
L 163.804354 250.41521 
L 164.022197 180.107771 
L 164.131119 160.133287 
L 164.240041 192.571343 
L 164.348963 172.006027 
L 164.457885 194.857161 
L 164.566807 149.025407 
L 164.675728 187.427826 
L 164.78465 158.835023 
L 164.893572 209.786517 
L 165.002494 141.117673 
L 165.220337 214.553734 
L 165.438181 147.968227 
L 165.547103 199.044724 
L 165.656025 153.868106 
L 165.764947 176.275218 
L 165.873868 145.552204 
L 166.091712 170.354715 
L 166.309556 114.3821 
L 166.418477 200.274968 
L 166.527399 111.615063 
L 166.745243 203.271234 
L 166.854165 116.650364 
L 167.072008 162.31516 
L 167.18093 165.939356 
L 167.289852 118.133414 
L 167.398774 146.572109 
L 167.616617 109.255919 
L 167.834461 152.146919 
L 167.943383 132.856233 
L 168.270148 150.067806 
L 168.37907 107.482427 
L 168.487992 145.18411 
L 168.596914 72.757791 
L 168.705836 156.684783 
L 168.814757 111.41947 
L 169.032601 163.232933 
L 169.141523 142.182088 
L 169.250445 168.760703 
L 169.359367 142.454489 
L 169.468288 198.802614 
L 169.686132 124.600857 
L 169.795054 127.778612 
L 169.903976 134.183688 
L 170.121819 125.631226 
L 170.230741 75.436229 
L 170.666428 139.350903 
L 170.77535 185.59882 
L 170.884272 86.215688 
L 170.993194 115.825214 
L 171.102116 112.987756 
L 171.211037 117.184111 
L 171.319959 80.275741 
L 171.537803 144.877987 
L 171.646725 131.517846 
L 171.755647 202.714274 
L 171.864568 190.299439 
L 171.97349 89.435801 
L 172.082412 92.659584 
L 172.191334 129.518636 
L 172.300256 93.840715 
L 172.409177 249.303398 
L 172.627021 168.601281 
L 172.735943 132.246663 
L 172.844865 162.851073 
L 172.953787 125.964236 
L 173.062708 140.209712 
L 173.17163 100.221711 
L 173.498396 174.878317 
L 173.716239 120.891582 
L 173.825161 90.413519 
L 173.934083 194.887468 
L 174.151927 126.925356 
L 174.260848 154.67312 
L 174.36977 226.866519 
L 174.478692 144.359379 
L 174.696536 147.510925 
L 174.805457 107.247002 
L 174.914379 113.073706 
L 175.023301 135.397809 
L 175.132223 182.763634 
L 175.241145 151.059414 
L 175.350067 181.565547 
L 175.458988 140.239534 
L 175.56791 193.645268 
L 175.894676 118.764968 
L 176.112519 156.140077 
L 176.221441 128.321189 
L 176.330363 132.667026 
L 176.548207 164.865815 
L 176.76605 122.393938 
L 176.874972 133.730221 
L 177.092816 208.002685 
L 177.310659 136.09466 
L 177.528503 196.461291 
L 177.746347 112.728903 
L 178.073112 209.505865 
L 178.182034 171.3798 
L 178.290956 196.939736 
L 178.399877 186.323538 
L 178.508799 158.795297 
L 178.617721 194.659243 
L 178.726643 143.531098 
L 178.835565 154.997783 
L 178.944487 182.393938 
L 179.053408 154.359984 
L 179.16233 185.153593 
L 179.271252 135.721832 
L 179.380174 198.078257 
L 179.489096 160.315792 
L 179.598017 195.04116 
L 179.706939 146.67743 
L 179.815861 192.033547 
L 179.924783 178.230958 
L 180.033705 188.281534 
L 180.142626 176.770887 
L 180.251548 184.594484 
L 180.36047 211.359595 
L 180.469392 191.319973 
L 180.578314 264.671677 
L 180.687236 163.819344 
L 180.796157 209.881872 
L 180.905079 309.4768 
L 181.014001 185.618407 
L 181.122923 253.605784 
L 181.231845 200.420177 
L 181.340766 279.856058 
L 181.449688 278.89434 
L 181.55861 157.602049 
L 181.667532 233.555063 
L 181.776454 187.708985 
L 181.885376 192.783202 
L 181.994297 168.074357 
L 182.103219 177.589871 
L 182.212141 162.116712 
L 182.321063 211.888245 
L 182.429985 149.099732 
L 182.538906 215.60078 
L 182.647828 181.476474 
L 182.75675 188.710384 
L 182.865672 170.57319 
L 182.974594 192.511806 
L 183.083516 167.37882 
L 183.301359 179.117731 
L 183.410281 250.997503 
L 183.519203 211.33583 
L 183.60628 315.667469 
M 183.644885 315.667469 
L 183.737046 171.746806 
L 183.845968 172.339996 
L 183.95489 184.384424 
L 184.063812 160.802899 
L 184.172734 197.9992 
L 184.281656 162.762203 
L 184.499499 187.530806 
L 184.608421 214.503135 
L 184.717343 214.04118 
L 184.826265 223.977316 
L 185.044108 148.100922 
L 185.261952 202.851678 
L 185.370874 190.504762 
L 185.479796 196.632093 
L 185.588717 242.238069 
L 185.697639 184.643622 
L 185.806561 248.868875 
L 186.024405 149.681231 
L 186.133326 214.768289 
L 186.242248 176.80821 
L 186.35117 195.038362 
L 186.460092 142.229275 
L 186.569014 220.424292 
L 186.677936 178.82038 
L 186.786857 180.226091 
L 186.895779 156.434185 
L 187.004701 165.935182 
L 187.113623 164.250608 
L 187.222545 160.726668 
L 187.331466 163.701239 
L 187.440388 130.85228 
L 187.658232 199.970483 
L 187.767154 195.888145 
L 187.984997 178.927167 
L 188.093919 178.883409 
L 188.202841 167.407401 
L 188.300244 315.667469 
M 188.321856 315.667469 
L 188.420685 143.986246 
L 188.638528 259.693176 
L 188.856372 149.04686 
L 188.965294 207.719247 
L 189.074216 166.456855 
L 189.183137 178.46312 
L 189.292059 169.08778 
L 189.509903 180.03683 
L 189.618825 222.630681 
L 189.727746 214.030082 
L 189.836668 141.670172 
L 189.94559 175.720497 
L 190.054512 250.465639 
L 190.163434 172.695767 
L 190.272356 220.892891 
L 190.381277 181.544957 
L 190.490199 237.339459 
L 190.599121 218.661665 
L 190.708043 154.07569 
L 190.816965 184.029724 
L 190.925886 170.28193 
L 191.034808 203.717285 
L 191.14373 168.354276 
L 191.252652 195.581912 
L 191.361574 170.766951 
L 191.579417 278.216601 
L 191.797261 125.697701 
L 191.906183 194.470698 
L 192.015105 140.760079 
L 192.124026 208.447236 
L 192.34187 169.914789 
L 192.450792 207.749171 
L 192.668636 145.64053 
L 192.777557 262.871614 
L 192.995401 191.33877 
L 193.104323 193.702217 
L 193.213245 211.34553 
L 193.322166 206.502493 
L 193.431088 142.374014 
L 193.54001 252.119241 
L 193.648932 132.897817 
L 193.866776 182.867178 
L 193.975697 143.140848 
L 194.193541 202.283585 
L 194.302463 190.087721 
L 194.520306 153.057677 
L 194.629228 172.815655 
L 194.847072 160.665743 
L 195.064916 247.890147 
L 195.282759 145.087647 
L 195.391681 256.988491 
L 195.609525 141.91782 
L 195.718446 218.853143 
L 195.827368 213.261962 
L 195.93629 175.08078 
L 196.045212 188.847726 
L 196.154134 231.471664 
L 196.263056 138.165553 
L 196.371977 176.363479 
L 196.589821 143.738874 
L 196.698743 142.094102 
L 196.807665 149.087285 
L 196.916586 117.298379 
L 197.13443 166.478416 
L 197.352274 140.031832 
L 197.570117 286.831424 
L 197.787961 140.768519 
L 197.896883 154.054868 
L 198.005805 215.625843 
L 198.33257 140.54813 
L 198.441492 174.111872 
L 198.550414 156.035338 
L 198.659336 184.260588 
L 198.768257 136.512919 
L 199.095023 243.415199 
L 199.203945 152.556148 
L 199.312866 207.866329 
L 199.53071 153.862043 
L 199.639632 133.210008 
L 199.748554 197.54513 
L 199.857476 141.45117 
L 200.075319 267.491648 
L 200.184241 178.00196 
L 200.293163 186.663152 
L 200.402085 124.345891 
L 200.619928 178.777846 
L 200.72885 175.070138 
L 200.837772 148.900596 
L 200.946694 182.861696 
L 201.055616 140.149954 
L 201.164537 159.087222 
L 201.273459 250.376702 
L 201.491303 163.327747 
L 201.600225 155.958441 
L 201.709146 113.772403 
L 202.035912 141.944281 
L 202.253756 149.222823 
L 202.471599 115.121002 
L 202.580521 156.423594 
L 202.689443 106.497281 
L 202.798365 130.514445 
L 202.907286 217.92048 
L 203.016208 132.403567 
L 203.12513 223.458942 
L 203.234052 91.275101 
L 203.451896 145.995771 
L 203.560817 116.058868 
L 203.669739 119.654115 
L 203.887583 150.774713 
L 203.996505 114.846282 
L 204.105426 237.065203 
L 204.214348 117.602806 
L 204.32327 211.20543 
L 204.432192 99.40965 
L 204.650036 152.66941 
L 204.758957 153.934608 
L 204.976801 144.601582 
L 205.085723 98.234397 
L 205.194645 225.696789 
L 205.303566 104.498009 
L 205.412488 128.934402 
L 205.52141 121.765766 
L 205.630332 146.955326 
L 205.739254 142.958245 
L 205.848176 124.376805 
L 206.066019 177.889714 
L 206.174941 126.352171 
L 206.283863 202.699475 
L 206.392785 139.809846 
L 206.610628 150.207241 
L 206.71955 260.058941 
L 206.828472 136.549388 
L 206.937394 193.705725 
L 207.046316 135.714043 
L 207.155237 154.707787 
L 207.264159 140.769475 
L 207.373081 195.275826 
L 207.482003 119.735549 
L 207.590925 175.237467 
L 207.699846 140.654759 
L 207.808768 140.763663 
L 207.91769 144.020588 
L 208.026612 169.880534 
L 208.244456 135.79901 
L 208.353377 149.078927 
L 208.462299 117.03147 
L 208.680143 150.186408 
L 208.789065 124.266177 
L 208.897986 150.640631 
L 209.006908 137.261428 
L 209.224752 144.812497 
L 209.333674 207.10201 
L 209.442595 111.524941 
L 209.769361 168.9163 
L 209.878283 130.492414 
L 209.987205 132.254672 
L 210.096126 252.035718 
L 210.531814 122.447515 
L 210.640735 130.30449 
L 210.858579 212.596551 
L 211.076423 127.832494 
L 211.294266 158.836027 
L 211.51211 115.611476 
L 211.621032 147.563971 
L 211.729954 121.356853 
L 211.838875 163.924478 
L 211.947797 115.100261 
L 212.056719 172.382451 
L 212.165641 138.141723 
L 212.274563 161.071674 
L 212.383485 136.982606 
L 212.492406 147.25013 
L 212.71025 178.301273 
L 212.819172 137.713891 
L 212.928094 145.260228 
L 213.037015 139.501341 
L 213.145937 126.567264 
L 213.254859 140.472254 
L 213.363781 102.968649 
L 213.472703 206.719902 
L 213.799468 93.31992 
L 213.90839 151.462965 
L 214.017312 102.675985 
L 214.126234 188.205799 
L 214.235155 112.745364 
L 214.344077 135.377861 
L 214.452999 108.089317 
L 214.670843 144.095001 
L 214.779765 117.249731 
L 214.888686 120.155745 
L 214.997608 118.300805 
L 215.10653 155.72739 
L 215.215452 117.824022 
L 215.324374 182.812417 
L 215.542217 121.420412 
L 215.651139 179.954807 
L 215.977905 101.79384 
L 216.086826 176.134283 
L 216.30467 154.067676 
L 216.413592 223.985042 
L 216.631435 122.100638 
L 216.740357 159.822412 
L 216.849279 123.754859 
L 217.067123 162.404599 
L 217.176045 132.121133 
L 217.284966 146.400788 
L 217.393888 118.398284 
L 217.50281 133.492529 
L 217.611732 110.736035 
L 217.720654 166.188786 
L 217.829575 133.476485 
L 217.938497 171.416266 
L 218.047419 137.24139 
L 218.156341 208.898069 
L 218.374185 157.247563 
L 218.483106 184.829618 
L 218.70095 113.097594 
L 218.809872 147.541621 
L 218.918794 147.135882 
L 219.245559 199.680899 
L 219.463403 87.507659 
L 219.572325 156.064049 
L 219.681246 116.756368 
L 219.790168 193.578241 
L 220.008012 124.46125 
L 220.116934 115.842749 
L 220.225855 125.771208 
L 220.334777 178.941661 
L 220.443699 171.734613 
L 220.552621 87.80738 
L 220.661543 148.730532 
L 220.988308 91.137912 
L 221.206152 123.283043 
L 221.315074 135.66151 
L 221.423995 165.508374 
L 221.532917 122.441958 
L 221.641839 258.34116 
L 221.750761 92.892552 
L 222.077526 159.836585 
L 222.186448 153.249662 
L 222.29537 100.600881 
L 222.404292 151.45173 
L 222.513214 128.447638 
L 222.731057 160.078689 
L 222.839979 145.559821 
L 222.948901 165.463555 
L 223.057823 95.717037 
L 223.166745 132.632914 
L 223.275666 103.385971 
L 223.384588 154.23113 
L 223.49351 114.976055 
L 223.711354 176.886928 
L 223.929197 113.686704 
L 224.038119 169.348715 
L 224.364885 115.18046 
L 224.473806 152.890456 
L 224.582728 123.156352 
L 224.69165 155.770539 
L 224.800572 153.975541 
L 224.909494 146.109193 
L 225.018415 153.042427 
L 225.127337 208.382132 
L 225.236259 206.705442 
L 225.345181 174.80049 
L 225.454103 230.402365 
L 225.563025 156.546375 
L 225.671946 239.874188 
L 225.88979 101.029763 
L 225.998712 166.011865 
L 226.107634 119.601793 
L 226.216555 197.360792 
L 226.434399 120.955083 
L 226.543321 159.628499 
L 226.652243 108.469614 
L 226.870086 163.606295 
L 226.979008 165.364377 
L 227.196852 110.358922 
L 227.632539 196.164724 
L 227.741461 199.881636 
L 227.959305 142.701686 
L 228.068226 211.605789 
L 228.177148 116.261427 
L 228.28607 135.325522 
L 228.503914 106.721307 
L 228.612835 216.166132 
L 228.830679 122.244337 
L 228.939601 145.940435 
L 229.048523 102.294891 
L 229.157445 127.053173 
L 229.266366 204.295146 
L 229.375288 130.351101 
L 229.48421 185.914663 
L 229.593132 127.257278 
L 229.702054 136.924515 
L 229.810975 134.249246 
L 230.137741 174.637763 
L 230.355585 99.887622 
L 230.464506 111.66039 
L 230.573428 166.542087 
L 230.68235 157.075689 
L 230.791272 167.205406 
L 230.900194 110.83685 
L 231.009115 156.918236 
L 231.118037 81.96124 
L 231.335881 132.686105 
L 231.553725 174.655472 
L 231.662646 126.994543 
L 231.771568 169.183941 
L 231.88049 134.418915 
L 231.989412 186.635805 
L 232.098334 114.741361 
L 232.207255 143.27455 
L 232.316177 133.549315 
L 232.425099 159.334448 
L 232.534021 97.686182 
L 232.751865 198.570598 
L 232.860786 109.725779 
L 233.07863 131.272394 
L 233.187552 131.633135 
L 233.405395 158.968987 
L 233.514317 125.223448 
L 233.623239 148.076626 
L 233.732161 120.255974 
L 233.841083 157.285789 
L 233.950005 100.702169 
L 234.058926 105.422739 
L 234.167848 98.549396 
L 234.27677 125.005225 
L 234.385692 189.729948 
L 234.494614 107.941165 
L 234.821379 132.431156 
L 234.930301 248.821253 
L 235.039223 105.669116 
L 235.148145 167.581723 
L 235.257066 89.339515 
L 235.47491 229.998318 
L 235.801675 112.251788 
L 235.910597 110.991958 
L 236.128441 130.102291 
L 236.346285 113.062605 
L 236.564128 162.323117 
L 236.67305 121.005606 
L 236.781972 172.787135 
L 236.999815 103.812733 
L 237.108737 117.071833 
L 237.217659 153.177344 
L 237.326581 103.255007 
L 237.435503 118.387425 
L 237.544425 155.141645 
L 237.653346 123.571722 
L 237.762268 245.596029 
L 237.87119 132.826504 
L 237.980112 160.246469 
L 238.089034 158.342642 
L 238.306877 86.56528 
L 238.524721 249.575162 
L 238.633643 118.944371 
L 239.06933 162.336416 
L 239.178252 260.379792 
L 239.287174 137.214562 
L 239.396095 156.221965 
L 239.505017 136.915477 
L 239.613939 180.56857 
L 239.722861 111.904093 
L 239.831783 224.319925 
L 239.940704 138.138018 
L 240.049626 174.853294 
L 240.26747 94.047263 
L 240.376392 144.183701 
L 240.594235 115.13132 
L 240.703157 170.697003 
L 240.812079 107.250477 
L 241.138844 188.527704 
L 241.247766 151.899417 
L 241.46561 211.893095 
L 241.683454 123.227171 
L 241.792375 231.824909 
L 242.010219 118.505447 
L 242.119141 191.043072 
L 242.336984 135.237059 
L 242.554828 107.054534 
L 242.66375 96.360512 
L 242.772672 222.516839 
L 242.881594 105.90051 
L 242.990515 160.518097 
L 243.208359 131.347371 
L 243.317281 129.305 
L 243.426203 188.476598 
L 243.644046 145.68792 
L 243.752968 120.30322 
L 243.86189 162.229764 
L 243.970812 116.362447 
L 244.079734 145.659984 
L 244.188655 132.44995 
L 244.297577 105.741345 
L 244.406499 157.863323 
L 244.624343 152.503029 
L 244.733264 164.13283 
L 244.842186 159.658237 
L 244.951108 143.105615 
L 245.06003 165.976143 
L 245.168952 135.572753 
L 245.277874 153.229398 
L 245.386795 115.277601 
L 245.495717 162.146365 
L 245.604639 155.456693 
L 245.713561 135.795429 
L 245.822483 151.560209 
L 245.931404 224.47144 
L 246.040326 130.614081 
L 246.149248 160.23735 
L 246.25817 134.397377 
L 246.367092 145.295363 
L 246.476014 105.060931 
L 246.584935 185.529763 
L 246.911701 112.061003 
L 247.020623 134.600447 
L 247.129544 125.96912 
L 247.238466 140.227431 
L 247.347388 194.465871 
L 247.45631 147.958397 
L 247.565232 177.778743 
L 247.674154 161.367484 
L 247.783075 118.26452 
L 248.000919 174.272292 
L 248.109841 132.295731 
L 248.218763 136.288605 
L 248.327684 188.96798 
L 248.436606 158.37185 
L 248.545528 172.972601 
L 248.65445 128.43606 
L 248.763372 180.471805 
L 248.872294 159.452068 
L 248.981215 211.089073 
L 249.090137 163.548291 
L 249.199059 168.058149 
L 249.307981 162.803435 
L 249.416903 113.09155 
L 249.525824 126.993384 
L 249.634746 124.867871 
L 249.85259 159.637421 
L 249.961512 127.102179 
L 250.070434 140.047445 
L 250.179355 186.617533 
L 250.288277 95.315557 
L 250.506121 151.010924 
L 250.723964 118.673425 
L 250.941808 159.499007 
L 251.05073 160.026985 
L 251.159652 118.045809 
L 251.268574 140.694211 
L 251.377495 132.158801 
L 251.486417 219.375995 
L 251.704261 146.785446 
L 251.813183 202.642357 
L 252.031026 196.265832 
L 252.24887 140.873766 
L 252.357792 162.12648 
L 252.466714 122.429971 
L 252.684557 161.138808 
L 252.793479 123.157166 
L 252.902401 140.195776 
L 253.011323 123.263076 
L 253.120244 180.327159 
L 253.229166 134.455516 
L 253.338088 190.499472 
L 253.44701 157.074849 
L 253.555932 178.403531 
L 253.664854 162.892186 
L 253.773775 106.957656 
L 253.991619 167.772208 
L 254.100541 121.533988 
L 254.209463 123.339555 
L 254.318384 177.954948 
L 254.427306 104.161171 
L 254.536228 138.051221 
L 254.64515 134.20495 
L 254.754072 116.158991 
L 254.862994 173.997849 
L 255.080837 123.102067 
L 255.298681 174.083944 
L 255.407603 114.204488 
L 255.734368 189.340784 
L 255.952212 128.212476 
L 256.170055 191.8993 
L 256.278977 109.348021 
L 256.387899 110.716683 
L 256.496821 159.476567 
L 256.605743 135.568507 
L 256.714664 138.562077 
L 256.823586 148.089976 
L 256.932508 117.623823 
L 257.04143 121.464153 
L 257.150352 131.563705 
L 257.259274 175.041596 
L 257.368195 117.357707 
L 257.586039 142.003436 
L 257.694961 215.747693 
L 257.912804 144.345731 
L 258.021726 158.127974 
L 258.130648 135.343668 
L 258.23957 167.185786 
L 258.457414 132.894214 
L 258.675257 181.101928 
L 258.784179 135.602471 
L 258.893101 140.691239 
L 259.002023 151.825239 
L 259.110944 139.346735 
L 259.219866 184.265089 
L 259.43771 85.910164 
L 259.655554 198.702837 
L 259.764475 122.330195 
L 259.873397 164.043847 
L 260.091241 129.749867 
L 260.309084 188.686652 
L 260.418006 151.364547 
L 260.526928 165.134815 
L 260.744772 128.803506 
L 260.853694 174.020758 
L 260.962615 136.112716 
L 261.289381 216.047993 
L 261.507224 157.470685 
L 261.616146 198.817198 
L 261.725068 169.790846 
L 261.83399 184.443753 
L 262.051834 133.861441 
L 262.160755 154.625516 
L 262.378599 142.342875 
L 262.487521 164.881036 
L 262.596443 155.421462 
L 262.814286 185.995254 
L 262.923208 148.881782 
L 263.141052 192.34869 
L 263.249974 143.479591 
L 263.358895 152.67876 
L 263.467817 117.818397 
L 263.576739 206.979077 
L 263.685661 163.390421 
L 263.794583 199.793917 
L 263.903504 111.769317 
L 264.012426 183.850659 
L 264.121348 177.044055 
L 264.23027 133.392285 
L 264.339192 150.185799 
L 264.448114 135.926731 
L 264.557035 148.531058 
L 264.665957 129.660405 
L 264.774879 140.344223 
L 264.992723 113.663833 
L 265.210566 149.07335 
L 265.319488 137.660024 
L 265.42841 208.562262 
L 265.755175 143.658089 
L 265.973019 173.573376 
L 266.081941 114.710247 
L 266.299784 171.716685 
L 266.408706 112.194869 
L 266.517628 167.386839 
L 266.62655 157.831899 
L 266.735472 118.952103 
L 266.844394 184.760222 
L 267.062237 146.074492 
L 267.171159 170.746434 
L 267.280081 139.998388 
L 267.389003 145.969428 
L 267.497924 215.112499 
L 267.606846 163.982697 
L 267.715768 181.821079 
L 267.933612 145.093732 
L 268.042533 127.509683 
L 268.151455 138.95727 
L 268.260377 119.894203 
L 268.369299 148.498139 
L 268.478221 146.888584 
L 268.587143 180.883037 
L 268.804986 277.230148 
L 268.913908 147.130152 
L 269.02283 162.394053 
L 269.131752 137.271469 
L 269.240673 142.252454 
L 269.349595 168.391153 
L 269.458517 120.162479 
L 269.567439 244.761067 
L 269.785283 120.680048 
L 269.894204 120.612602 
L 270.003126 182.426394 
L 270.22097 128.144896 
L 270.438813 182.411883 
L 270.547735 158.392141 
L 270.656657 181.360986 
L 270.765579 147.064118 
L 270.874501 151.308946 
L 271.201266 220.814015 
L 271.41911 137.620893 
L 271.528032 177.037913 
L 271.636953 120.738115 
L 271.745875 176.808774 
L 271.854797 167.979826 
L 271.963719 146.120712 
L 272.072641 239.783017 
L 272.399406 117.702253 
L 272.508328 136.153268 
L 272.61725 224.197578 
L 272.726172 209.894967 
L 272.835093 125.200529 
L 272.944015 182.071384 
L 273.052937 177.209719 
L 273.161859 125.717778 
L 273.270781 225.279522 
L 273.379703 142.459793 
L 273.488624 164.702885 
L 273.597546 138.928446 
L 273.706468 144.041644 
L 273.81539 185.568863 
L 273.924312 142.499482 
L 274.033233 144.032186 
L 274.142155 140.868479 
L 274.251077 146.071286 
L 274.359999 135.417454 
L 274.468921 152.591627 
L 274.577843 122.835208 
L 274.686764 261.992912 
L 274.795686 148.110098 
L 274.904608 169.526048 
L 275.01353 166.721485 
L 275.122452 147.265955 
L 275.231373 154.502239 
L 275.340295 132.607043 
L 275.449217 205.204257 
L 275.667061 134.277436 
L 275.775983 142.167583 
L 275.884904 172.464886 
L 275.993826 145.263736 
L 276.102748 206.632318 
L 276.320592 163.286189 
L 276.429513 220.755611 
L 276.647357 148.221447 
L 276.756279 195.756809 
L 276.974123 179.263081 
L 277.083044 120.296643 
L 277.191966 185.614132 
L 277.300888 155.377586 
L 277.40981 162.377371 
L 277.518732 226.58439 
L 277.627653 116.836585 
L 277.845497 145.156608 
L 277.954419 118.378156 
L 278.063341 178.824181 
L 278.172263 145.557091 
L 278.281184 211.445566 
L 278.390106 158.384471 
L 278.499028 199.608892 
L 278.60795 123.51157 
L 278.825793 161.084673 
L 278.934715 120.802906 
L 279.152559 146.050103 
L 279.261481 127.937583 
L 279.370403 145.242136 
L 279.479324 133.395606 
L 279.588246 143.932776 
L 279.697168 192.405854 
L 279.80609 134.025722 
L 280.023933 175.8001 
L 280.241777 133.114972 
L 280.350699 172.003241 
L 280.459621 169.945051 
L 280.568543 116.835777 
L 280.677464 129.666118 
L 280.786386 122.698276 
L 280.895308 207.541632 
L 281.113152 148.072447 
L 281.222073 169.165979 
L 281.330995 162.965293 
L 281.439917 121.314562 
L 281.766683 189.707693 
L 281.875604 148.082069 
L 281.984526 183.770864 
L 282.093448 107.828049 
L 282.311292 186.014869 
L 282.420213 183.558446 
L 282.638057 136.404037 
L 282.746979 199.9396 
L 282.964823 138.124897 
L 283.073744 117.509405 
L 283.182666 211.510354 
L 283.509432 142.344457 
L 283.618353 196.265042 
L 283.727275 143.652999 
L 283.945119 191.550567 
L 284.054041 150.106274 
L 284.128158 315.667469 
M 284.196703 315.667469 
L 284.380806 124.285925 
L 284.489728 173.805667 
L 284.59865 279.259586 
L 284.816493 149.28778 
L 284.925415 148.7038 
L 285.034337 115.036062 
L 285.143259 180.247335 
L 285.252181 174.93486 
L 285.470024 150.873458 
L 285.578946 150.987125 
L 285.687868 114.598926 
L 285.79679 171.416345 
L 286.232477 118.831964 
L 286.341399 145.902751 
L 286.450321 236.305903 
L 286.668164 151.419088 
L 286.886008 165.099138 
L 286.99493 155.586557 
L 287.103852 190.859 
L 287.212773 175.472099 
L 287.321695 135.436962 
L 287.430617 135.480336 
L 287.539539 161.168839 
L 287.648461 127.590919 
L 287.757383 263.973263 
L 287.866304 135.025939 
L 287.975226 181.43015 
L 288.084148 133.242546 
L 288.19307 140.041041 
L 288.301992 310.884028 
L 288.410913 125.408198 
L 288.519835 126.086129 
L 288.628757 119.925154 
L 288.737679 120.42243 
L 288.846601 228.458423 
L 289.173366 122.162336 
L 289.282288 157.602664 
L 289.39121 154.080901 
L 289.500132 139.305411 
L 289.717975 205.32683 
L 289.826897 143.353424 
L 289.935819 147.393778 
L 290.044741 133.486354 
L 290.262584 171.252638 
L 290.371506 143.183792 
L 290.58935 222.831137 
L 290.698272 145.342085 
L 290.807193 208.118771 
L 291.025037 165.931297 
L 291.133959 146.643806 
L 291.242881 260.939031 
L 291.351803 165.358483 
L 291.460724 227.998239 
L 291.678568 158.755617 
L 291.78749 145.892018 
L 291.896412 204.317344 
L 292.114255 146.207591 
L 292.223177 195.411087 
L 292.549943 124.819934 
L 292.767786 165.992086 
L 292.876708 172.490501 
L 292.98563 187.662616 
L 293.094552 185.177279 
L 293.203473 134.234386 
L 293.421317 154.386485 
L 293.530239 156.461069 
L 293.639161 229.497111 
L 293.748083 169.601591 
L 293.857004 182.548402 
L 293.965926 154.579919 
L 294.074848 156.55903 
L 294.18377 213.006564 
L 294.401613 139.249511 
L 294.619457 188.552101 
L 294.728379 144.462232 
L 294.946223 183.182299 
L 295.055144 131.418058 
L 295.164066 149.735185 
L 295.272988 211.66805 
L 295.38191 180.948197 
L 295.490832 186.913868 
L 295.708675 154.309194 
L 295.817597 148.663037 
L 295.926519 154.177953 
L 296.035441 227.514289 
L 296.144363 124.30654 
L 296.362206 169.140121 
L 296.471128 162.488923 
L 296.58005 184.178847 
L 296.688972 171.088885 
L 296.797893 127.659904 
L 296.906815 147.33155 
L 297.015737 192.545706 
L 297.124659 121.459054 
L 297.342502 159.738884 
L 297.451424 162.682047 
L 297.560346 190.020497 
L 297.669268 189.935857 
L 297.77819 180.606919 
L 297.887112 140.238389 
L 297.996033 207.308399 
L 298.104955 122.476714 
L 298.322799 189.537506 
L 298.431721 165.240017 
L 298.540642 225.212264 
L 298.649564 152.246143 
L 298.97633 203.855344 
L 299.085252 201.962001 
L 299.194173 151.971864 
L 299.303095 162.431968 
L 299.412017 154.025728 
L 299.520939 157.059944 
L 299.629861 133.748163 
L 299.847704 172.284862 
L 299.956626 134.179379 
L 300.065548 182.745542 
L 300.392313 134.054698 
L 300.501235 192.9522 
L 300.610157 146.909699 
L 300.719079 197.537877 
L 301.045844 168.24869 
L 301.154766 136.851637 
L 301.263688 178.972279 
L 301.37261 163.518317 
L 301.481532 183.432028 
L 301.699375 135.114543 
L 301.808297 138.611703 
L 301.917219 135.558257 
L 302.026141 178.38196 
L 302.135062 147.000892 
L 302.243984 203.102958 
L 302.352906 182.253093 
L 302.461828 125.568468 
L 302.679672 218.325542 
L 302.897515 140.402655 
L 303.115359 184.602656 
L 303.224281 170.003715 
L 303.333202 135.037181 
L 303.442124 137.135032 
L 303.551046 168.808064 
L 303.659968 158.814748 
L 303.76889 138.342932 
L 303.986733 195.859349 
L 304.095655 125.38064 
L 304.204577 137.517115 
L 304.313499 247.960496 
L 304.531342 158.596043 
L 304.640264 219.464244 
L 304.858108 162.965456 
L 304.96703 184.726587 
L 305.184873 133.128778 
L 305.293795 129.016699 
L 305.511639 180.097355 
L 305.620561 207.901679 
L 305.729482 142.901578 
L 305.838404 170.230513 
L 305.947326 159.545077 
L 306.16517 173.788224 
L 306.274092 182.65224 
L 306.383013 117.462756 
L 306.491935 212.397934 
L 306.600857 156.288975 
L 306.709779 161.36899 
L 306.818701 177.598415 
L 306.927622 233.766821 
L 307.036544 169.294106 
L 307.254388 202.197727 
L 307.36331 173.756788 
L 307.472232 293.394824 
L 307.690075 180.546293 
L 307.798997 170.717176 
L 308.016841 229.101704 
L 308.234684 158.806932 
L 308.343606 162.959236 
L 308.452528 142.025177 
L 308.670372 170.39064 
L 308.779293 166.946884 
L 308.888215 142.664019 
L 308.997137 147.377248 
L 309.106059 264.284425 
L 309.214981 156.792201 
L 309.323902 205.417256 
L 309.432824 136.706923 
L 309.541746 222.089004 
L 309.650668 147.020427 
L 309.868512 186.117747 
L 309.977433 182.17182 
L 310.086355 137.464083 
L 310.195277 280.324578 
L 310.304199 160.511797 
L 310.413121 188.759415 
L 310.522042 175.983096 
L 310.630964 180.228894 
L 310.739886 147.332847 
L 310.95773 186.055959 
L 311.066652 169.154593 
L 311.175573 195.62589 
L 311.284495 186.547883 
L 311.393417 159.443 
L 311.502339 228.838073 
L 311.720182 132.367279 
L 312.046948 190.335871 
L 312.15587 155.891589 
L 312.264792 195.739393 
L 312.373713 171.050011 
L 312.482635 204.381049 
L 312.591557 134.427152 
L 312.700479 181.218449 
L 312.809401 147.058388 
L 312.918322 164.544851 
L 313.027244 142.280117 
L 313.136166 181.18927 
L 313.245088 160.685752 
L 313.35401 204.335594 
L 313.571853 174.426045 
L 313.680775 228.034863 
L 313.789697 200.127186 
L 313.898619 214.628042 
L 314.007541 164.550778 
L 314.116462 176.627634 
L 314.225384 166.930862 
L 314.334306 167.807281 
L 314.443228 190.817999 
L 314.55215 179.746777 
L 314.661072 185.32986 
L 314.769993 143.318731 
L 314.878915 189.624734 
L 315.096759 173.657779 
L 315.205681 213.963331 
L 315.314602 141.730071 
L 315.532446 298.27436 
L 315.641368 131.414652 
L 315.968133 245.871514 
L 316.077055 240.182293 
L 316.185977 226.402681 
L 316.294899 171.29286 
L 316.512742 197.398465 
L 316.621664 139.98551 
L 316.730586 151.933103 
L 316.839508 135.418926 
L 316.94843 239.568824 
L 317.166273 140.996657 
L 317.275195 256.861136 
L 317.493039 161.348219 
L 317.601961 161.933243 
L 317.710882 149.517066 
L 317.819804 169.469155 
L 317.928726 132.233165 
L 318.037648 220.536679 
L 318.14657 158.749029 
L 318.255492 172.822383 
L 318.364413 153.701888 
L 318.473335 153.858168 
L 318.582257 209.127242 
L 318.691179 172.502169 
L 318.800101 173.996141 
L 318.909022 195.008867 
L 319.017944 141.754361 
L 319.126866 151.430469 
L 319.235788 206.631528 
L 319.453632 140.968092 
L 319.562553 200.418125 
L 319.671475 162.889986 
L 319.780397 186.817109 
L 319.889319 132.118254 
L 319.998241 214.054129 
L 320.216084 138.447299 
L 320.325006 303.34278 
L 320.433928 148.226872 
L 320.651772 189.647242 
L 320.760693 146.463994 
L 320.869615 184.694559 
L 321.087459 127.332319 
L 321.305302 209.04082 
L 321.414224 207.581775 
L 321.523146 150.005138 
L 321.74099 230.186118 
L 321.958833 164.208299 
L 322.067755 194.678068 
L 322.176677 170.053727 
L 322.285599 170.876315 
L 322.394521 140.849231 
L 322.503442 213.905287 
L 322.612364 188.853766 
L 322.721286 133.528474 
L 322.830208 214.655327 
L 323.048052 134.447849 
L 323.156973 158.910775 
L 323.265895 209.971464 
L 323.483739 159.245849 
L 323.810504 154.147843 
L 324.028348 220.869509 
L 324.13727 147.737751 
L 324.246192 166.692102 
L 324.355113 217.728044 
L 324.572957 130.014595 
L 324.681879 191.203272 
L 324.899722 150.785214 
L 325.008644 177.30495 
L 325.117566 176.26386 
L 325.226488 132.035893 
L 325.33541 162.522281 
L 325.444332 147.828386 
L 325.662175 176.78414 
L 325.771097 189.893407 
L 325.880019 179.421257 
L 325.988941 208.403517 
L 326.097862 206.411999 
L 326.315706 135.778606 
L 326.642471 291.778613 
L 326.751393 157.193338 
L 326.860315 200.188422 
L 326.969237 125.074122 
L 327.078159 178.350293 
L 327.404924 127.563339 
L 327.513846 143.202927 
L 327.73169 200.84085 
L 327.840611 119.414241 
L 328.058455 189.679963 
L 328.167377 125.699545 
L 328.494142 192.995642 
L 328.711986 137.870569 
L 328.820908 187.8888 
L 329.038751 125.327768 
L 329.147673 172.274531 
L 329.256595 127.894691 
L 329.474439 185.9421 
L 329.583361 131.703661 
L 329.910126 222.112792 
L 330.019048 209.829265 
L 330.12797 142.986644 
L 330.236891 161.368533 
L 330.345813 127.511434 
L 330.454735 195.989985 
L 330.563657 159.066113 
L 330.672579 195.739123 
L 330.781501 139.708505 
L 330.890422 159.578154 
L 330.999344 157.068504 
L 331.108266 179.827537 
L 331.217188 166.697511 
L 331.32611 135.644377 
L 331.435031 161.081622 
L 331.543953 155.674378 
L 331.652875 156.240446 
L 331.870719 226.443501 
L 332.197484 155.548258 
L 332.306406 183.335201 
L 332.52425 131.457874 
L 332.742093 152.714403 
L 332.851015 217.172234 
L 332.959937 151.015831 
L 333.068859 159.937529 
L 333.177781 157.809723 
L 333.286702 175.162087 
L 333.504546 135.850661 
L 333.72239 180.884458 
L 333.831311 155.382374 
L 333.940233 174.600451 
L 334.049155 133.20211 
L 334.266999 207.425343 
L 334.375921 129.512173 
L 334.484842 147.947078 
L 334.702686 143.010119 
L 334.811608 154.57666 
L 334.92053 153.920887 
L 335.029451 217.212874 
L 335.138373 114.251593 
L 335.247295 169.728286 
L 335.465139 136.930126 
L 335.574061 114.665626 
L 335.900826 179.693578 
L 336.11867 109.808843 
L 336.227591 155.498144 
L 336.336513 118.979337 
L 336.445435 123.412989 
L 336.554357 132.66411 
L 336.772201 180.036559 
L 336.990044 127.876004 
L 337.098966 142.024923 
L 337.207888 190.456379 
L 337.31681 178.602041 
L 337.425731 198.611114 
L 337.534653 133.433392 
L 337.61819 315.667469 
M 337.669354 315.667469 
L 337.752497 137.062788 
L 337.861419 206.970065 
L 337.970341 131.845177 
L 338.079262 133.299786 
L 338.188184 188.24932 
L 338.406028 158.985342 
L 338.623871 186.28437 
L 338.732793 161.792082 
L 338.841715 172.722093 
L 338.950637 169.304714 
L 339.059559 214.637291 
L 339.168481 183.002856 
L 339.277402 188.118536 
L 339.386324 176.693951 
L 339.604168 194.654133 
L 339.71309 241.148997 
L 339.930933 207.85981 
L 340.039855 197.728001 
L 340.148777 236.768377 
L 340.257699 201.766689 
L 340.366621 224.154232 
L 340.584464 182.43923 
L 340.693386 193.785915 
L 340.802308 232.479628 
L 340.91123 201.64397 
L 341.020151 215.676002 
L 341.129073 201.284848 
L 341.455839 253.709317 
L 341.564761 191.396424 
L 341.673682 232.508085 
L 341.782604 224.024802 
L 341.891526 205.206773 
L 342.218291 305.717117 
L 342.436135 189.584213 
L 342.653979 241.69884 
L 342.871822 213.898926 
L 342.980744 225.152032 
L 343.089666 261.48038 
L 343.198588 218.729601 
L 343.500608 315.667469 
M 343.582077 315.667469 
L 343.961041 215.713731 
L 344.069962 305.183674 
L 344.287806 215.122967 
L 344.396728 229.816337 
L 344.50565 262.345784 
L 344.723493 206.233753 
L 344.941337 254.073255 
L 345.050259 198.735829 
L 345.159181 256.470275 
L 345.268102 252.910641 
L 345.377024 240.480597 
L 345.485946 244.220733 
L 345.594868 226.950144 
L 345.70379 237.458569 
L 345.812711 269.593139 
L 345.921633 267.855089 
L 346.030555 212.533454 
L 346.139477 243.682315 
L 346.248399 212.803684 
L 346.466242 257.196774 
L 346.684086 202.510333 
L 346.793008 229.493806 
L 346.90193 307.34472 
L 347.010851 206.242889 
L 347.228695 279.117422 
L 347.337617 217.716991 
L 347.446539 227.066467 
L 347.578751 315.667469 
M 347.7091 315.667469 
L 347.773304 224.61895 
L 347.882226 284.313332 
L 347.991148 244.206476 
L 348.10007 250.921052 
L 348.208991 226.180366 
L 348.317913 248.882996 
L 348.426835 229.732126 
L 348.514326 315.667469 
M 348.559908 315.667469 
L 348.644679 241.779656 
L 348.753601 282.680507 
L 348.971444 275.689012 
L 349.080366 213.335706 
L 349.29821 259.683149 
L 349.407131 239.866574 
L 349.516053 256.733612 
L 349.624975 223.213685 
L 349.733897 263.675749 
L 349.842819 260.621913 
L 349.951741 251.505388 
L 350.169584 271.261347 
L 350.278506 270.086179 
L 350.387428 235.934499 
L 350.49635 287.965692 
L 350.605271 229.202507 
L 350.714193 270.273472 
L 350.823115 250.317937 
L 350.932037 257.752381 
L 351.040959 254.188958 
L 351.149881 222.811804 
L 351.347627 315.667469 
M 351.384592 315.667469 
L 351.585568 250.371593 
L 351.69449 217.603453 
L 351.912333 264.983899 
L 352.021255 313.705815 
L 352.130177 248.421786 
L 352.220125 315.667469 
M 352.260196 315.667469 
L 352.456942 253.723202 
L 352.565864 252.638596 
L 352.674786 273.372459 
L 352.89263 257.595937 
L 353.001551 260.869888 
L 353.219395 274.963742 
L 353.264809 315.667469 
M 353.372319 315.667469 
L 353.437239 231.689366 
L 353.546161 298.172554 
L 353.655082 233.043559 
L 353.764004 292.739158 
L 353.872926 231.478331 
L 353.981848 255.189781 
L 354.09077 242.60142 
L 354.308613 291.566157 
L 354.526457 229.479402 
L 354.744301 273.963686 
L 354.962144 296.576082 
L 355.071066 245.444345 
L 355.28891 277.432205 
L 355.397831 247.607624 
L 355.506753 264.094865 
L 355.615675 245.040805 
L 355.833519 262.083947 
L 355.94244 262.092519 
L 356.047758 315.667469 
M 356.069719 315.667469 
L 356.160284 306.620995 
L 356.269206 245.150406 
L 356.479181 315.667469 
M 356.677897 315.667469 
L 356.922737 228.109543 
L 357.14058 272.750101 
L 357.249502 234.66948 
L 357.467346 299.492705 
L 357.794111 234.843802 
L 357.903033 302.235401 
L 358.011955 290.310162 
L 358.120877 248.350523 
L 358.37032 315.667469 
M 358.48093 315.667469 
L 358.556564 238.880888 
L 358.665486 267.90156 
L 358.722366 315.667469 
M 358.820235 315.667469 
L 358.88333 255.498575 
L 358.992251 301.452257 
L 359.101173 290.569586 
L 359.319017 239.205517 
L 359.53686 304.378197 
L 359.645782 297.747911 
L 359.754704 256.877446 
L 359.799055 315.667469 
M 360.048415 315.667469 
L 360.08147 288.616835 
L 360.190391 303.830046 
L 360.408235 256.240482 
L 360.517157 246.827705 
L 360.717629 315.667469 
M 360.911603 315.667469 
L 360.952844 280.586539 
L 361.061766 301.386476 
L 361.170688 235.96951 
L 361.212514 315.667469 
M 361.348037 315.667469 
L 361.497453 230.338061 
L 361.606375 236.591946 
L 361.824219 263.217787 
L 361.928525 315.667469 
M 361.936646 315.667469 
L 362.042062 245.868739 
L 362.150984 274.397555 
L 362.368828 246.926929 
L 362.434701 315.667469 
M 362.545474 315.667469 
L 362.695593 239.624859 
L 362.768762 315.667469 
M 362.840852 315.667469 
L 362.913437 241.443758 
L 363.022359 303.266667 
L 363.13128 273.424784 
L 363.1842 315.667469 
M 363.434053 315.667469 
L 363.458046 311.231227 
L 363.566968 258.41769 
L 363.67589 308.438 
L 363.784811 272.828673 
L 364.002655 305.694559 
L 364.111577 221.811714 
L 364.32942 273.274701 
L 364.438342 257.384789 
L 364.656186 311.621446 
L 364.765108 313.028921 
L 364.982951 248.727951 
L 365.091873 293.647503 
L 365.200795 265.497355 
L 365.309717 266.052646 
L 365.39729 315.667469 
M 365.441318 315.667469 
L 365.636482 252.955691 
L 365.77734 315.667469 
M 366.164338 315.667469 
L 366.290013 281.188279 
L 366.398935 280.222827 
L 366.507857 272.567252 
L 366.616779 274.72056 
L 366.74881 315.667469 
M 366.947526 315.667469 
L 367.052466 255.689488 
L 367.161388 303.713079 
L 367.27031 277.107508 
L 367.379231 281.954662 
L 367.468029 315.667469 
M 367.533314 315.667469 
L 367.597075 304.880577 
L 367.705997 247.487476 
L 367.837719 315.667469 
M 367.978954 315.667469 
L 368.250606 247.767338 
L 368.31364 315.667469 
M 368.536954 315.667469 
L 368.686293 246.872349 
L 368.774741 315.667469 
M 368.970024 315.667469 
L 369.013059 297.241899 
L 369.12198 303.145686 
L 369.230902 295.716238 
L 369.339824 279.303756 
L 369.405101 315.667469 
M 369.501628 315.667469 
L 369.66659 274.212282 
L 369.773033 315.667469 
M 369.968167 315.667469 
L 369.993355 288.477761 
L 370.13166 315.667469 
M 370.320522 315.667469 
L 370.537964 262.465492 
L 370.920907 315.667469 
M 371.007911 315.667469 
L 371.082573 271.242871 
L 371.144957 315.667469 
M 371.233571 315.667469 
L 371.300417 263.017421 
L 371.40001 315.667469 
M 371.425612 315.667469 
L 371.627182 267.614096 
L 371.736104 293.778906 
L 371.845026 256.92994 
L 372.009776 315.667469 
M 372.15219 315.667469 
L 372.171791 311.061406 
L 372.280713 256.818861 
L 372.477194 315.667469 
M 372.520293 315.667469 
L 372.7164 250.50329 
L 372.934244 306.434458 
L 373.043166 267.994434 
L 373.26101 307.146723 
L 373.478853 254.805394 
L 373.696697 296.097005 
L 373.763456 315.667469 
M 373.844525 315.667469 
L 373.91454 293.424827 
L 374.023462 313.158927 
L 374.132384 283.992695 
L 374.241306 287.026149 
L 374.350228 300.776312 
L 374.45915 298.112999 
L 374.532146 315.667469 
M 374.658575 315.667469 
L 374.676993 313.909271 
L 374.696114 315.667469 
M 374.80957 315.667469 
L 375.003759 258.022148 
L 375.11268 313.25277 
L 375.330524 258.467714 
L 375.439446 278.636281 
L 375.457865 315.667469 
M 375.635214 315.667469 
L 375.65729 269.416956 
L 375.718479 315.667469 
M 375.863049 315.667469 
L 375.875133 311.165266 
L 375.981471 315.667469 
M 375.984523 315.667469 
L 376.092977 290.31799 
L 376.151752 315.667469 
M 376.2436 315.667469 
L 376.419742 270.299268 
L 376.528664 284.52545 
L 376.566068 315.667469 
M 376.702991 315.667469 
L 376.85543 262.234886 
L 376.900874 315.667469 
M 377.037922 315.667469 
L 377.073273 279.804704 
L 377.182195 307.498863 
L 377.291117 279.54784 
L 377.400039 280.190523 
L 377.50896 299.86429 
L 377.726804 274.231107 
L 377.835726 314.191817 
L 377.944648 269.590026 
L 378.05357 310.450091 
L 378.271413 263.008985 
L 378.380335 281.198159 
L 378.442689 315.667469 
M 378.535957 315.667469 
L 378.598179 281.368093 
L 378.7071 315.090281 
L 378.816022 278.173447 
L 378.924944 291.243072 
L 378.962061 315.667469 
M 379.181715 315.667469 
L 379.25171 296.864539 
L 379.417825 315.667469 
M 379.523765 315.667469 
L 379.578475 310.020688 
L 379.687397 255.571382 
L 379.796319 307.428751 
L 379.90524 256.421063 
L 379.971281 315.667469 
M 380.364797 315.667469 
L 380.44985 288.810207 
L 380.484778 315.667469 
M 380.837465 315.667469 
L 380.994459 291.212325 
L 381.10338 309.695844 
L 381.212302 308.616235 
L 381.348176 315.667469 
M 381.448662 315.667469 
L 381.539068 277.534655 
L 381.64799 289.545132 
L 381.756911 262.851729 
L 381.915662 315.667469 
M 382.26345 315.667469 
L 382.410442 286.87107 
L 382.457291 315.667469 
M 382.994387 315.667469 
L 383.063973 266.970815 
L 383.263235 315.667469 
M 383.454643 315.667469 
L 383.49966 294.982182 
L 383.608582 303.976 
L 383.717504 276.11423 
L 383.826426 285.132536 
L 383.923713 315.667469 
M 384.057215 315.667469 
L 384.153191 250.196967 
L 384.433252 315.667469 
M 384.52648 315.667469 
L 384.588879 293.117895 
L 384.6978 303.165312 
L 384.806722 269.093466 
L 384.915644 287.560675 
L 385.024566 269.094402 
L 385.117881 315.667469 
M 385.151523 315.667469 
L 385.242409 276.416967 
L 385.378634 315.667469 
M 385.506307 315.667469 
L 385.569175 286.448796 
L 385.678097 313.078776 
L 385.89594 271.26146 
L 386.004862 289.99204 
L 386.113784 281.100413 
L 386.222706 313.31819 
L 386.331628 277.016191 
L 386.461011 315.667469 
M 386.648623 315.667469 
L 386.658393 307.14943 
L 386.670058 315.667469 
M 387.049989 315.667469 
L 387.09408 277.84884 
L 387.133691 315.667469 
M 387.399105 315.667469 
L 387.420846 308.30928 
L 387.529768 315.122652 
L 387.638689 271.748579 
L 387.861619 315.667469 
M 388.334213 315.667469 
L 388.401142 308.337591 
L 388.423824 315.667469 
M 388.592932 315.667469 
L 388.836829 247.235474 
L 388.906681 315.667469 
M 389.025438 315.667469 
L 389.054673 301.624898 
L 389.163595 302.836565 
L 389.257009 315.667469 
M 389.277332 315.667469 
L 389.381439 269.614118 
L 389.49036 275.94724 
L 389.534421 315.667469 
M 389.693344 315.667469 
L 389.708204 306.430172 
L 389.729627 315.667469 
M 389.904947 315.667469 
L 389.926048 306.602655 
L 389.945404 315.667469 
M 390.077046 315.667469 
L 390.143891 249.033349 
L 390.361735 305.1146 
L 390.470657 307.120194 
L 390.579579 313.924565 
L 390.6885 275.618573 
L 390.810992 315.667469 
M 390.987053 315.667469 
L 391.124188 276.175951 
L 391.233109 279.247066 
L 391.267177 315.667469 
M 391.441503 315.667469 
L 391.559875 286.29718 
L 391.668797 283.188515 
L 391.720286 315.667469 
M 391.833223 315.667469 
L 391.995562 280.42264 
L 392.104484 303.661195 
L 392.213406 301.595662 
L 392.322328 303.911527 
L 392.431249 279.489255 
L 392.483125 315.667469 
M 392.822838 315.667469 
L 392.866937 289.145258 
L 392.930433 315.667469 
M 393.059736 315.667469 
L 393.08478 310.002145 
L 393.094239 315.667469 
M 393.2914 315.667469 
L 393.302624 308.823436 
L 393.341957 315.667469 
M 393.443934 315.667469 
L 393.629389 285.385925 
L 393.738311 277.956264 
L 393.847233 289.426609 
L 393.956155 278.024334 
L 394.040248 315.667469 
M 394.335575 315.667469 
L 394.391842 288.179018 
L 394.444078 315.667469 
M 394.69461 315.667469 
L 394.718608 305.699634 
L 394.767135 315.667469 
M 395.035175 315.667469 
L 395.045373 309.77895 
L 395.055403 315.667469 
M 395.213898 315.667469 
L 395.263217 267.62568 
L 395.334877 315.667469 
M 395.430615 315.667469 
L 395.48106 294.118233 
L 395.589982 306.893413 
L 395.698904 272.720955 
L 395.800696 315.667469 
M 395.816303 315.667469 
L 395.916748 280.024345 
L 395.982493 315.667469 
M 396.078946 315.667469 
L 396.243513 283.725838 
L 396.390139 315.667469 
M 396.788065 315.667469 
L 396.897044 308.013199 
L 396.956269 315.667469 
M 397.346919 315.667469 
L 397.550575 271.144008 
L 397.707101 315.667469 
M 397.865961 315.667469 
L 397.87734 312.267343 
L 397.885204 315.667469 
M 398.605325 315.667469 
L 398.639793 281.770741 
L 398.699271 315.667469 
M 398.949688 315.667469 
L 399.07548 310.929574 
L 399.184402 314.894698 
L 399.293324 312.943853 
L 399.387308 315.667469 
M 399.405102 315.667469 
L 399.511168 299.591985 
L 399.620089 315.086942 
L 399.729011 265.641775 
L 399.946855 305.711455 
L 400.055777 288.940517 
L 400.139651 315.667469 
M 400.387409 315.667469 
L 400.491464 299.018929 
L 400.597115 315.667469 
M 400.800561 315.667469 
L 400.818229 300.160665 
L 400.927151 300.993054 
L 400.99165 315.667469 
M 401.099148 315.667469 
L 401.253917 291.020825 
L 401.33288 315.667469 
M 401.556818 315.667469 
L 401.580682 283.216251 
L 401.727827 315.667469 
M 401.86902 315.667469 
L 401.907448 309.059511 
L 401.993464 315.667469 
M 402.386246 315.667469 
L 402.560979 297.588827 
L 402.585835 315.667469 
M 402.980265 315.667469 
L 403.105588 300.876427 
L 403.167398 315.667469 
M 403.269627 315.667469 
L 403.323431 304.662616 
L 403.330069 315.667469 
M 403.627331 315.667469 
L 403.650197 305.478899 
L 403.663447 315.667469 
M 403.856937 315.667469 
L 403.86804 307.317672 
L 403.891619 315.667469 
M 404.395245 315.667469 
L 404.412649 295.605972 
L 404.449897 315.667469 
M 404.794691 315.667469 
L 404.848337 305.663721 
L 404.924021 315.667469 
M 405.17633 315.667469 
L 405.284024 305.981053 
L 405.311042 315.667469 
M 405.465573 315.667469 
L 405.501868 300.993032 
L 405.568582 315.667469 
M 405.631994 315.667469 
L 405.719711 277.263365 
L 405.766664 315.667469 
M 405.926733 315.667469 
L 405.937555 310.076114 
L 405.946341 315.667469 
M 406.154725 315.667469 
L 406.155399 315.270817 
L 406.155399 315.270817 
" clip-path="url(#pcea9043d6b)" style="fill: none; stroke: #1f77b4; stroke-width: 1.5; stroke-linecap: square"/>
   </g>
   <g id="patch_3">
    <path d="M 48.982813 277.111219 
L 48.982813 10.999219 
" style="fill: none; stroke: #000000; stroke-width: 0.8; stroke-linejoin: miter; stroke-linecap: square"/>
   </g>
   <g id="patch_4">
    <path d="M 406.102813 277.111219 
L 406.102813 10.999219 
" style="fill: none; stroke: #000000; stroke-width: 0.8; stroke-linejoin: miter; stroke-linecap: square"/>
   </g>
   <g id="patch_5">
    <path d="M 48.982813 277.111219 
L 406.102813 277.111219 
" style="fill: none; stroke: #000000; stroke-width: 0.8; stroke-linejoin: miter; stroke-linecap: square"/>
   </g>
   <g id="patch_6">
    <path d="M 48.982813 10.999219 
L 406.102813 10.999219 
" style="fill: none; stroke: #000000; stroke-width: 0.8; stroke-linejoin: miter; stroke-linecap: square"/>
   </g>
  </g>
 </g>
 <defs>
  <clipPath id="pcea9043d6b">
   <rect x="48.982813" y="10.999219" width="357.12" height="266.112"/>
  </clipPath>
 </defs>
</svg>
