<?xml version="1.0" encoding="UTF-8" standalone="no"?>
<svg
   width="312.19989pt"
   height="166.45912pt"
   viewBox="0 0 312.1999 166.45913"
   version="1.1"
   id="svg363"
   sodipodi:docname="lcmv_beam_pattern.svg"
   inkscape:version="1.2.1 (9c6d41e410, 2022-07-14)"
   xmlns:inkscape="http://www.inkscape.org/namespaces/inkscape"
   xmlns:sodipodi="http://sodipodi.sourceforge.net/DTD/sodipodi-0.dtd"
   xmlns:xlink="http://www.w3.org/1999/xlink"
   xmlns="http://www.w3.org/2000/svg"
   xmlns:svg="http://www.w3.org/2000/svg"
   xmlns:rdf="http://www.w3.org/1999/02/22-rdf-syntax-ns#"
   xmlns:cc="http://creativecommons.org/ns#"
   xmlns:dc="http://purl.org/dc/elements/1.1/">
  <sodipodi:namedview
     id="namedview365"
     pagecolor="#ffffff"
     bordercolor="#000000"
     borderopacity="0.25"
     inkscape:showpageshadow="2"
     inkscape:pageopacity="0.0"
     inkscape:pagecheckerboard="0"
     inkscape:deskcolor="#d1d1d1"
     inkscape:document-units="pt"
     showgrid="false"
     inkscape:zoom="2.7458719"
     inkscape:cx="150.22551"
     inkscape:cy="113.26093"
     inkscape:window-width="2560"
     inkscape:window-height="1369"
     inkscape:window-x="-8"
     inkscape:window-y="-8"
     inkscape:window-maximized="1"
     inkscape:current-layer="svg363" />
  <metadata
     id="metadata2">
    <rdf:RDF>
      <cc:Work>
        <dc:type
           rdf:resource="http://purl.org/dc/dcmitype/StillImage" />
        <dc:date>2024-04-24T14:08:27.351989</dc:date>
        <dc:format>image/svg+xml</dc:format>
        <dc:creator>
          <cc:Agent>
            <dc:title>Matplotlib v3.8.0, https://matplotlib.org/</dc:title>
          </cc:Agent>
        </dc:creator>
      </cc:Work>
    </rdf:RDF>
  </metadata>
  <defs
     id="defs6">
    <style
       type="text/css"
       id="style4">*{stroke-linejoin: round; stroke-linecap: butt}</style>
  </defs>
  <g
     id="axes_1"
     transform="translate(-7.6890625,-55.0655)">
    <g
       id="patch_2">
      <path
         d="m 297.97841,206.784 c 0,-35.27511 -14.02793,-69.14153 -38.9712,-94.0848 -24.94327,-24.94327 -58.80969,-38.9712 -94.0848,-38.9712 -35.27511,0 -69.141533,14.02793 -94.084804,38.9712 -24.94327,24.94327 -38.9712,58.80969 -38.9712,94.0848 H 164.92241 c 0,0 0,0 0,0 0,0 0,0 0,0 0,0 0,0 0,0 0,0 0,0 0,0 z"
         style="fill:#ffffff"
         id="path11" />
    </g>
    <g
       id="matplotlib.axis_1">
      <g
         id="xtick_1">
        <g
           id="line2d_1">
          <path
             d="M 164.92241,206.784 H 31.866406"
             clip-path="url(#p26509fea78)"
             style="fill:none;stroke:#b0b0b0;stroke-width:0.8;stroke-linecap:square"
             id="path14" />
        </g>
        <g
           id="text_1">
          <!-- -90° -->
          <g
             transform="matrix(0.1,0,0,-0.1,7.2,209.54337)"
             id="g31">
            <defs
               id="defs21">
              <path
                 id="DejaVuSans-2d"
                 d="M 313,2009 H 1997 V 1497 H 313 Z"
                 transform="scale(0.015625)" />
              <path
                 id="DejaVuSans-39"
                 d="m 703,97 v 575 q 238,-113 481,-172 244,-59 479,-59 625,0 954,420 330,420 377,1277 -181,-269 -460,-413 -278,-144 -615,-144 -700,0 -1108,423 -408,424 -408,1159 0,718 425,1152 425,435 1131,435 810,0 1236,-621 427,-620 427,-1801 Q 3622,1225 3098,567 2575,-91 1691,-91 1453,-91 1209,-44 966,3 703,97 Z m 1256,1978 q 425,0 673,290 249,291 249,798 0,503 -249,795 -248,292 -673,292 -425,0 -673,-292 -248,-292 -248,-795 0,-507 248,-798 248,-290 673,-290 z"
                 transform="scale(0.015625)" />
              <path
                 id="DejaVuSans-30"
                 d="m 2034,4250 q -487,0 -733,-480 -245,-479 -245,-1442 0,-959 245,-1439 246,-480 733,-480 491,0 736,480 246,480 246,1439 0,963 -246,1442 -245,480 -736,480 z m 0,500 q 785,0 1199,-621 414,-620 414,-1801 0,-1178 -414,-1799 -414,-620 -1199,-620 -784,0 -1198,620 -414,621 -414,1799 0,1181 414,1801 414,621 1198,621 z"
                 transform="scale(0.015625)" />
              <path
                 id="DejaVuSans-b0"
                 d="m 1600,4347 q -250,0 -422,-174 -172,-173 -172,-423 0,-247 172,-417 172,-170 422,-170 250,0 422,170 172,170 172,417 0,247 -174,422 -173,175 -420,175 z m 0,403 q 200,0 384,-77 185,-76 319,-220 144,-140 216,-319 72,-178 72,-384 0,-412 -289,-698 -289,-286 -708,-286 -422,0 -704,281 -281,281 -281,703 0,419 287,709 288,291 704,291 z"
                 transform="scale(0.015625)" />
            </defs>
            <use
               xlink:href="#DejaVuSans-2d"
               id="use23" />
            <use
               xlink:href="#DejaVuSans-39"
               x="36.083984"
               id="use25" />
            <use
               xlink:href="#DejaVuSans-30"
               x="99.707031"
               id="use27" />
            <use
               xlink:href="#DejaVuSans-b0"
               x="163.33008"
               id="use29" />
          </g>
        </g>
      </g>
      <g
         id="xtick_2">
        <g
           id="line2d_2">
          <path
             d="M 164.92241,206.784 36.40018,172.34657"
             clip-path="url(#p26509fea78)"
             style="fill:none;stroke:#b0b0b0;stroke-width:0.8;stroke-linecap:square"
             id="path35" />
        </g>
        <g
           id="text_2">
          <!-- -75° -->
          <g
             transform="matrix(0.1,0,0,-0.1,12.210812,171.48248)"
             id="g50">
            <defs
               id="defs40">
              <path
                 id="DejaVuSans-37"
                 d="M 525,4666 H 3525 V 4397 L 1831,0 H 1172 L 2766,4134 H 525 Z"
                 transform="scale(0.015625)" />
              <path
                 id="DejaVuSans-35"
                 d="M 691,4666 H 3169 V 4134 H 1269 V 2991 q 137,47 274,70 138,23 276,23 781,0 1237,-428 457,-428 457,-1159 Q 3513,744 3044,326 2575,-91 1722,-91 1428,-91 1123,-41 819,9 494,109 v 635 q 281,-153 581,-228 300,-75 634,-75 541,0 856,284 316,284 316,772 0,487 -316,771 -315,285 -856,285 -253,0 -505,-56 -251,-56 -513,-175 z"
                 transform="scale(0.015625)" />
            </defs>
            <use
               xlink:href="#DejaVuSans-2d"
               id="use42" />
            <use
               xlink:href="#DejaVuSans-37"
               x="36.083984"
               id="use44" />
            <use
               xlink:href="#DejaVuSans-35"
               x="99.707031"
               id="use46" />
            <use
               xlink:href="#DejaVuSans-b0"
               x="163.33008"
               id="use48" />
          </g>
        </g>
      </g>
      <g
         id="xtick_3">
        <g
           id="line2d_3">
          <path
             d="M 164.92241,206.784 49.69253,140.256"
             clip-path="url(#p26509fea78)"
             style="fill:none;stroke:#b0b0b0;stroke-width:0.8;stroke-linecap:square"
             id="path54" />
        </g>
        <g
           id="text_3">
          <!-- -60° -->
          <g
             transform="matrix(0.1,0,0,-0.1,26.901768,136.01537)"
             id="g68">
            <defs
               id="defs58">
              <path
                 id="DejaVuSans-36"
                 d="m 2113,2584 q -425,0 -674,-291 -248,-290 -248,-796 0,-503 248,-796 249,-292 674,-292 425,0 673,292 248,293 248,796 0,506 -248,796 -248,291 -673,291 z m 1253,1979 v -575 q -238,112 -480,171 -242,60 -480,60 -625,0 -955,-422 -329,-422 -376,-1275 184,272 462,417 279,145 613,145 703,0 1111,-427 408,-426 408,-1160 0,-719 -425,-1154 -425,-434 -1131,-434 -810,0 -1238,620 -428,621 -428,1799 0,1106 525,1764 525,658 1409,658 238,0 480,-47 242,-47 505,-140 z"
                 transform="scale(0.015625)" />
            </defs>
            <use
               xlink:href="#DejaVuSans-2d"
               id="use60" />
            <use
               xlink:href="#DejaVuSans-36"
               x="36.083984"
               id="use62" />
            <use
               xlink:href="#DejaVuSans-30"
               x="99.707031"
               id="use64" />
            <use
               xlink:href="#DejaVuSans-b0"
               x="163.33008"
               id="use66" />
          </g>
        </g>
      </g>
      <g
         id="xtick_4">
        <g
           id="line2d_4">
          <path
             d="M 164.92241,206.784 70.837606,112.6992"
             clip-path="url(#p26509fea78)"
             style="fill:none;stroke:#b0b0b0;stroke-width:0.8;stroke-linecap:square"
             id="path72" />
        </g>
        <g
           id="text_4">
          <!-- -45° -->
          <g
             transform="matrix(0.1,0,0,-0.1,50.271705,105.55908)"
             id="g86">
            <defs
               id="defs76">
              <path
                 id="DejaVuSans-34"
                 d="M 2419,4116 825,1625 h 1594 z m -166,550 h 794 V 1625 h 666 V 1100 H 3047 V 0 H 2419 V 1100 H 313 v 609 z"
                 transform="scale(0.015625)" />
            </defs>
            <use
               xlink:href="#DejaVuSans-2d"
               id="use78" />
            <use
               xlink:href="#DejaVuSans-34"
               x="36.083984"
               id="use80" />
            <use
               xlink:href="#DejaVuSans-35"
               x="99.707031"
               id="use82" />
            <use
               xlink:href="#DejaVuSans-b0"
               x="163.33008"
               id="use84" />
          </g>
        </g>
      </g>
      <g
         id="xtick_5">
        <g
           id="line2d_5">
          <path
             d="M 164.92241,206.784 98.394406,91.554124"
             clip-path="url(#p26509fea78)"
             style="fill:none;stroke:#b0b0b0;stroke-width:0.8;stroke-linecap:square"
             id="path90" />
        </g>
        <g
           id="text_5">
          <!-- -30° -->
          <g
             transform="matrix(0.1,0,0,-0.1,80.728,82.189143)"
             id="g104">
            <defs
               id="defs94">
              <path
                 id="DejaVuSans-33"
                 d="m 2597,2516 q 453,-97 707,-404 255,-306 255,-756 0,-690 -475,-1069 -475,-378 -1350,-378 -293,0 -604,58 -311,58 -642,174 v 609 q 262,-153 574,-231 313,-78 654,-78 593,0 904,234 311,234 311,681 0,413 -289,645 -289,233 -804,233 h -544 v 519 h 569 q 465,0 712,186 247,186 247,536 0,359 -255,551 -254,193 -729,193 -260,0 -557,-57 -297,-56 -653,-174 v 562 q 360,100 674,150 314,50 592,50 719,0 1137,-327 419,-326 419,-882 0,-388 -222,-655 -222,-267 -631,-370 z"
                 transform="scale(0.015625)" />
            </defs>
            <use
               xlink:href="#DejaVuSans-2d"
               id="use96" />
            <use
               xlink:href="#DejaVuSans-33"
               x="36.083984"
               id="use98" />
            <use
               xlink:href="#DejaVuSans-30"
               x="99.707031"
               id="use100" />
            <use
               xlink:href="#DejaVuSans-b0"
               x="163.33008"
               id="use102" />
          </g>
        </g>
      </g>
      <g
         id="xtick_6">
        <g
           id="line2d_6">
          <path
             d="M 164.92241,206.784 130.48498,78.261773"
             clip-path="url(#p26509fea78)"
             style="fill:none;stroke:#b0b0b0;stroke-width:0.8;stroke-linecap:square"
             id="path108" />
        </g>
        <g
           id="text_6">
          <!-- -15° -->
          <g
             transform="matrix(0.1,0,0,-0.1,116.19511,67.498187)"
             id="g122">
            <defs
               id="defs112">
              <path
                 id="DejaVuSans-31"
                 d="M 794,531 H 1825 V 4091 L 703,3866 v 575 l 1116,225 h 631 V 531 H 3481 V 0 H 794 Z"
                 transform="scale(0.015625)" />
            </defs>
            <use
               xlink:href="#DejaVuSans-2d"
               id="use114" />
            <use
               xlink:href="#DejaVuSans-31"
               x="36.083984"
               id="use116" />
            <use
               xlink:href="#DejaVuSans-35"
               x="99.707031"
               id="use118" />
            <use
               xlink:href="#DejaVuSans-b0"
               x="163.33008"
               id="use120" />
          </g>
        </g>
      </g>
      <g
         id="xtick_7">
        <g
           id="line2d_7">
          <path
             d="M 164.92241,206.784 V 73.728"
             clip-path="url(#p26509fea78)"
             style="fill:none;stroke:#b0b0b0;stroke-width:0.8;stroke-linecap:square"
             id="path126" />
        </g>
        <g
           id="text_7">
          <!-- 0° -->
          <g
             transform="matrix(0.1,0,0,-0.1,159.24116,62.487375)"
             id="g133">
            <use
               xlink:href="#DejaVuSans-30"
               id="use129" />
            <use
               xlink:href="#DejaVuSans-b0"
               x="63.623047"
               id="use131" />
          </g>
        </g>
      </g>
      <g
         id="xtick_8">
        <g
           id="line2d_8">
          <path
             d="M 164.92241,206.784 199.35983,78.261773"
             clip-path="url(#p26509fea78)"
             style="fill:none;stroke:#b0b0b0;stroke-width:0.8;stroke-linecap:square"
             id="path137" />
        </g>
        <g
           id="text_8">
          <!-- 15° -->
          <g
             transform="matrix(0.1,0,0,-0.1,194.1208,67.498187)"
             id="g146">
            <use
               xlink:href="#DejaVuSans-31"
               id="use140" />
            <use
               xlink:href="#DejaVuSans-35"
               x="63.623047"
               id="use142" />
            <use
               xlink:href="#DejaVuSans-b0"
               x="127.24609"
               id="use144" />
          </g>
        </g>
      </g>
      <g
         id="xtick_9">
        <g
           id="line2d_9">
          <path
             d="m 164.92241,206.784 66.528,-115.229876"
             clip-path="url(#p26509fea78)"
             style="fill:none;stroke:#b0b0b0;stroke-width:0.8;stroke-linecap:square"
             id="path150" />
        </g>
        <g
           id="text_9">
          <!-- 30° -->
          <g
             transform="matrix(0.1,0,0,-0.1,229.58791,82.189143)"
             id="g159">
            <use
               xlink:href="#DejaVuSans-33"
               id="use153" />
            <use
               xlink:href="#DejaVuSans-30"
               x="63.623047"
               id="use155" />
            <use
               xlink:href="#DejaVuSans-b0"
               x="127.24609"
               id="use157" />
          </g>
        </g>
      </g>
      <g
         id="xtick_10">
        <g
           id="line2d_10">
          <path
             d="m 164.92241,206.784 94.0848,-94.0848"
             clip-path="url(#p26509fea78)"
             style="fill:none;stroke:#b0b0b0;stroke-width:0.8;stroke-linecap:square"
             id="path163" />
        </g>
        <g
           id="text_10">
          <!-- 45° -->
          <g
             transform="matrix(0.1,0,0,-0.1,260.0442,105.55908)"
             id="g172">
            <use
               xlink:href="#DejaVuSans-34"
               id="use166" />
            <use
               xlink:href="#DejaVuSans-35"
               x="63.623047"
               id="use168" />
            <use
               xlink:href="#DejaVuSans-b0"
               x="127.24609"
               id="use170" />
          </g>
        </g>
      </g>
      <g
         id="xtick_11">
        <g
           id="line2d_11">
          <path
             d="M 164.92241,206.784 280.15228,140.256"
             clip-path="url(#p26509fea78)"
             style="fill:none;stroke:#b0b0b0;stroke-width:0.8;stroke-linecap:square"
             id="path176" />
        </g>
        <g
           id="text_11">
          <!-- 60° -->
          <g
             transform="matrix(0.1,0,0,-0.1,283.41414,136.01537)"
             id="g185">
            <use
               xlink:href="#DejaVuSans-36"
               id="use179" />
            <use
               xlink:href="#DejaVuSans-30"
               x="63.623047"
               id="use181" />
            <use
               xlink:href="#DejaVuSans-b0"
               x="127.24609"
               id="use183" />
          </g>
        </g>
      </g>
      <g
         id="xtick_12">
        <g
           id="line2d_12">
          <path
             d="M 164.92241,206.784 293.44463,172.34657"
             clip-path="url(#p26509fea78)"
             style="fill:none;stroke:#b0b0b0;stroke-width:0.8;stroke-linecap:square"
             id="path189" />
        </g>
        <g
           id="text_12">
          <!-- 75° -->
          <g
             transform="matrix(0.1,0,0,-0.1,298.10509,171.48248)"
             id="g198">
            <use
               xlink:href="#DejaVuSans-37"
               id="use192" />
            <use
               xlink:href="#DejaVuSans-35"
               x="63.623047"
               id="use194" />
            <use
               xlink:href="#DejaVuSans-b0"
               x="127.24609"
               id="use196" />
          </g>
        </g>
      </g>
      <g
         id="xtick_13">
        <g
           id="line2d_13">
          <path
             d="m 164.92241,206.784 h 133.056"
             clip-path="url(#p26509fea78)"
             style="fill:none;stroke:#b0b0b0;stroke-width:0.8;stroke-linecap:square"
             id="path202" />
        </g>
        <g
           id="text_13">
          <!-- 90° -->
          <g
             transform="matrix(0.1,0,0,-0.1,303.11591,209.54337)"
             id="g211">
            <use
               xlink:href="#DejaVuSans-39"
               id="use205" />
            <use
               xlink:href="#DejaVuSans-30"
               x="63.623047"
               id="use207" />
            <use
               xlink:href="#DejaVuSans-b0"
               x="127.24609"
               id="use209" />
          </g>
        </g>
      </g>
    </g>
    <g
       id="matplotlib.axis_2">
      <g
         id="ytick_1">
        <g
           id="line2d_14">
          <path
             d="m 164.92241,206.784 c 0,0 0,0 0,0 0,0 0,0 0,0 0,0 0,0 0,0 0,0 0,0 0,0"
             clip-path="url(#p26509fea78)"
             style="fill:none;stroke:#b0b0b0;stroke-width:0.8;stroke-linecap:square"
             id="path216" />
        </g>
        <g
           id="text_14">
          <!-- −30 -->
          <g
             transform="matrix(0.1,0,0,-0.1,154.37006,221.38244)"
             id="g228">
            <defs
               id="defs220">
              <path
                 id="DejaVuSans-2212"
                 d="M 678,2272 H 4684 V 1741 H 678 Z"
                 transform="scale(0.015625)" />
            </defs>
            <use
               xlink:href="#DejaVuSans-2212"
               id="use222" />
            <use
               xlink:href="#DejaVuSans-33"
               x="83.789062"
               id="use224" />
            <use
               xlink:href="#DejaVuSans-30"
               x="147.41211"
               id="use226" />
          </g>
        </g>
      </g>
      <g
         id="ytick_2">
        <g
           id="line2d_15">
          <path
             d="m 143.46176,206.784 c 0,-5.68953 2.26257,-11.15186 6.28568,-15.17497 4.02311,-4.02311 9.48543,-6.28568 15.17497,-6.28568 5.68953,0 11.15186,2.26257 15.17496,6.28568 4.02311,4.02311 6.28568,9.48544 6.28568,15.17497"
             clip-path="url(#p26509fea78)"
             style="fill:none;stroke:#b0b0b0;stroke-width:0.8;stroke-linecap:square"
             id="path232" />
        </g>
        <g
           id="text_15">
          <!-- −25 -->
          <g
             transform="matrix(0.1,0,0,-0.1,132.90942,221.38244)"
             id="g244">
            <defs
               id="defs236">
              <path
                 id="DejaVuSans-32"
                 d="M 1228,531 H 3431 V 0 H 469 v 531 q 359,372 979,998 621,627 780,809 303,340 423,576 121,236 121,464 0,372 -261,606 -261,235 -680,235 -297,0 -627,-103 -329,-103 -704,-313 v 638 q 381,153 712,231 332,78 607,78 725,0 1156,-363 431,-362 431,-968 0,-288 -108,-546 -107,-257 -392,-607 -78,-91 -497,-524 Q 1991,1309 1228,531 Z"
                 transform="scale(0.015625)" />
            </defs>
            <use
               xlink:href="#DejaVuSans-2212"
               id="use238" />
            <use
               xlink:href="#DejaVuSans-32"
               x="83.789062"
               id="use240" />
            <use
               xlink:href="#DejaVuSans-35"
               x="147.41211"
               id="use242" />
          </g>
        </g>
      </g>
      <g
         id="ytick_3">
        <g
           id="line2d_16">
          <path
             d="m 122.00112,206.784 c 0,-11.37907 4.52514,-22.30372 12.57135,-30.34994 8.04622,-8.04621 18.97087,-12.57135 30.34994,-12.57135 11.37906,0 22.30371,4.52514 30.34993,12.57135 8.04622,8.04622 12.57136,18.97087 12.57136,30.34994"
             clip-path="url(#p26509fea78)"
             style="fill:none;stroke:#b0b0b0;stroke-width:0.8;stroke-linecap:square"
             id="path248" />
        </g>
        <g
           id="text_16">
          <!-- −20 -->
          <g
             transform="matrix(0.1,0,0,-0.1,111.44877,221.38244)"
             id="g257">
            <use
               xlink:href="#DejaVuSans-2212"
               id="use251" />
            <use
               xlink:href="#DejaVuSans-32"
               x="83.789062"
               id="use253" />
            <use
               xlink:href="#DejaVuSans-30"
               x="147.41211"
               id="use255" />
          </g>
        </g>
      </g>
      <g
         id="ytick_4">
        <g
           id="line2d_17">
          <path
             d="m 100.54047,206.784 c 0,-17.0686 6.78771,-33.45558 18.85703,-45.5249 12.06933,-12.06933 28.4563,-18.85704 45.52491,-18.85704 17.0686,0 33.45557,6.78771 45.5249,18.85704 12.06932,12.06932 18.85703,28.4563 18.85703,45.5249"
             clip-path="url(#p26509fea78)"
             style="fill:none;stroke:#b0b0b0;stroke-width:0.8;stroke-linecap:square"
             id="path261" />
        </g>
        <g
           id="text_17">
          <!-- −15 -->
          <g
             transform="matrix(0.1,0,0,-0.1,89.988127,221.38244)"
             id="g270">
            <use
               xlink:href="#DejaVuSans-2212"
               id="use264" />
            <use
               xlink:href="#DejaVuSans-31"
               x="83.789062"
               id="use266" />
            <use
               xlink:href="#DejaVuSans-35"
               x="147.41211"
               id="use268" />
          </g>
        </g>
      </g>
      <g
         id="ytick_5">
        <g
           id="line2d_18">
          <path
             d="m 79.079826,206.784 c 0,-22.75814 9.050277,-44.60744 25.142704,-60.69987 16.09244,-16.09243 37.94174,-25.14271 60.69988,-25.14271 22.75813,0 44.60743,9.05028 60.69987,25.14271 16.09243,16.09243 25.14271,37.94173 25.14271,60.69987"
             clip-path="url(#p26509fea78)"
             style="fill:none;stroke:#b0b0b0;stroke-width:0.8;stroke-linecap:square"
             id="path274" />
        </g>
        <g
           id="text_18">
          <!-- −10 -->
          <g
             transform="matrix(0.1,0,0,-0.1,68.527482,221.38244)"
             id="g283">
            <use
               xlink:href="#DejaVuSans-2212"
               id="use277" />
            <use
               xlink:href="#DejaVuSans-31"
               x="83.789062"
               id="use279" />
            <use
               xlink:href="#DejaVuSans-30"
               x="147.41211"
               id="use281" />
          </g>
        </g>
      </g>
      <g
         id="ytick_6">
        <g
           id="line2d_19">
          <path
             d="m 57.61918,206.784 c 0,-28.44767 11.312847,-55.7593 31.428388,-75.87484 20.115542,-20.11554 47.427172,-31.428386 75.874842,-31.428386 28.44767,0 55.75929,11.312846 75.87483,31.428386 20.11555,20.11554 31.42839,47.42717 31.42839,75.87484"
             clip-path="url(#p26509fea78)"
             style="fill:none;stroke:#b0b0b0;stroke-width:0.8;stroke-linecap:square"
             id="path287" />
        </g>
        <g
           id="text_19">
          <!-- −5 -->
          <g
             transform="matrix(0.1,0,0,-0.1,50.248087,221.38244)"
             id="g294">
            <use
               xlink:href="#DejaVuSans-2212"
               id="use290" />
            <use
               xlink:href="#DejaVuSans-35"
               x="83.789062"
               id="use292" />
          </g>
        </g>
      </g>
      <g
         id="ytick_7">
        <g
           id="line2d_20">
          <path
             d="m 36.158535,206.784 c 0,-34.1372 13.575416,-66.91116 37.714065,-91.04981 24.138649,-24.138645 56.9126,-37.714061 91.04981,-37.714061 34.1372,0 66.91115,13.575416 91.0498,37.714061 24.13865,24.13865 37.71407,56.91261 37.71407,91.04981"
             clip-path="url(#p26509fea78)"
             style="fill:none;stroke:#b0b0b0;stroke-width:0.8;stroke-linecap:square"
             id="path298" />
        </g>
        <g
           id="text_20">
          <!-- 0 -->
          <g
             transform="matrix(0.1,0,0,-0.1,32.977285,221.38244)"
             id="g303">
            <use
               xlink:href="#DejaVuSans-30"
               id="use301" />
          </g>
        </g>
      </g>
    </g>
    <g
       id="line2d_21">
      <path
         d="m 52.44081,206.784 0.792029,-6.99427 0.802606,-2.8405 0.813363,-2.13961 0.82431,-1.76919 1.682275,-2.87884 1.728628,-2.31941 1.776943,-1.94266 1.827462,-1.65926 1.88046,-1.43074 1.936252,-1.23723 1.995205,-1.06727 2.057744,-0.91356 2.124369,-0.77117 3.32188,-0.906 3.50131,-0.61774 3.704271,-0.3342 3.937038,-0.0464 4.208245,0.2547 4.530093,0.57929 4.920417,0.94036 5.40633,1.35616 6.03123,1.85443 4.46854,1.5737 4.93083,1.90666 5.52648,2.32034 6.32429,2.85598 7.44962,3.58826 9.15754,4.66813 12.05633,6.45362 m -0.95032,-0.71515 -9.38376,-5.77062 -9.71046,-6.28348 -6.79607,-4.71096 -5.04357,-3.7667 -3.86507,-3.12757 -3.86463,-3.45974 -2.79396,-2.85287 -1.99399,-2.38016 -1.36713,-1.99019 -0.85761,-1.65387 -0.43111,-1.35338 -0.0654,-1.07722 0.16317,-0.63678 0.3279,-0.49559 0.48012,-0.35779 0.62189,-0.22224 1.03476,-0.0877 1.25415,0.14985 1.45946,0.38803 2.09507,0.82289 2.37666,1.20264 2.63743,1.58552 2.87296,1.96549 3.70661,2.83546 3.89051,3.2779 4.53108,4.13889 5.56874,5.43259 3.48726,3.32025 0.90631,0.58733 0.95583,0.47708 0.80787,0.75212 1.24531,1.45157 2.28468,3.06499 2.79854,4.1155 3.98419,6.24819 m -0.33455,-0.7257 -5.23394,-10.01303 -4.80368,-9.72439 -3.56515,-7.76223 -2.71173,-6.41973 -2.07776,-5.42047 -1.84754,-5.47376 -1.28835,-4.55829 -0.83473,-3.78533 -0.45616,-3.1049 -0.13329,-2.4849 0.10449,-1.62516 0.27918,-1.23434 0.43757,-0.84979 0.45486,-0.40331 0.54153,-0.15496 0.62305,0.0982 0.70013,0.35852 0.77337,0.62852 1.06479,1.18436 1.16881,1.6559 1.26835,2.16468 1.36361,2.71666 1.75403,4.05106 1.86351,4.95915 1.92158,5.78661 2.39375,8.02594 1.46274,4.67772 0.0727,0.0752 0.0467,-0.0579 -0.001,-0.9395 -0.41991,-4.47336 -0.68954,-7.84745 -0.28636,-5.42531 -0.0338,-4.49304 0.1955,-3.46906 0.31131,-2.10826 0.42307,-1.40033 0.40539,-0.60402 0.33676,-0.14249 0.36053,0.13545 0.38059,0.42903 0.53232,1.06702 0.55269,1.70152 0.56393,2.44564 0.56512,3.3567 0.55462,4.53238 0.52934,6.15607 0.48333,8.62044 0.31284,9.12287 0.24287,13.34028 0.0574,6.09145 m 0.0426,-0.3371 0.36982,-19.182 0.44685,-13.12223 0.68915,-12.95817 0.77462,-10.02104 0.84444,-8.19188 0.90308,-6.92835 1.19845,-7.37143 1.26362,-6.29315 1.3182,-5.45647 1.36384,-4.77957 1.40177,-4.2139 1.7225,-4.42191 1.75641,-3.824011 1.78047,-3.300261 1.79526,-2.83207 1.80127,-2.406368 1.79874,-2.013642 1.78786,-1.646759 1.76866,-1.300199 1.74109,-0.969576 1.42371,-0.564415 1.39359,-0.348944 1.35827,-0.137678 1.31753,0.07058 1.2711,0.276951 1.21869,0.482522 1.15993,0.688376 1.09435,0.895622 1.02142,1.105439 0.94047,1.319101 0.85074,1.538041 0.75122,1.763899 0.64079,1.9986 0.51794,2.244461 0.38088,2.504327 0.22727,2.781774 0.0542,3.08139 -0.14241,3.40922 -0.3677,3.77339 -0.62896,4.18524 -0.93656,4.661 -1.30579,5.22492 -1.76036,5.91498 -1.81721,5.35284 -2.27971,6.05876 -2.88215,6.9868 -3.71046,8.27971 -3.55736,7.43669 -4.5486,9.03128 -6.1298,11.61403 -9.07215,16.49416 m -2.24218,4.05676 8.60706,-14.37363 5.73967,-9.20977 5.40897,-8.21747 3.92067,-5.5231 2.96045,-3.80096 2.2608,-2.57201 1.70317,-1.62364 1.22679,-0.84728 0.63675,-0.1946 0.29692,0.0606 0.19817,0.20307 0.11749,0.55502 -0.0901,0.83238 -0.41831,1.48669 -0.90245,2.2969 -1.543,3.82268 0.009,0.38237 0.0975,0.0761 0.41322,-0.11096 0.73107,-0.48514 1.70186,-1.41461 15.76408,-13.88927 5.24974,-4.12412 4.98801,-3.58019 3.78103,-2.46951 3.59717,-2.13654 3.42195,-1.82562 3.25724,-1.53726 3.85589,-1.54827 3.6336,-1.16778 3.42725,-0.81911 3.23405,-0.49742 3.05143,-0.19852 2.8771,0.0812 2.70914,0.34469 2.54583,0.59461 2.38571,0.83315 2.22749,1.06224 2.06998,1.28363 1.91217,1.49889 1.75302,1.70957 1.59162,1.91713 1.42703,2.12319 1.25833,2.32946 1.08456,2.53796 0.90473,2.75117 0.71774,2.97234 0.5224,3.20594 0.31737,3.45843 0.10114,3.7399 -0.12809,4.06708 -0.37242,4.47046 -0.63437,5.0131 -1.36835,8.57945 -1.05715,6.83027 -0.60981,5.29974 -0.32616,7.0994 v 0"
         clip-path="url(#p26509fea78)"
         style="fill:none;stroke:#1f77b4;stroke-width:1.5;stroke-linecap:square"
         id="path308" />
    </g>
    <g
       id="line2d_22">
      <defs
         id="defs312">
        <path
           id="mc564ec52cf"
           d="M 0,3 C 0.795609,3 1.55874,2.683901 2.12132,2.12132 2.683901,1.55874 3,0.795609 3,0 3,-0.795609 2.683901,-1.55874 2.12132,-2.12132 1.55874,-2.683901 0.795609,-3 0,-3 -0.795609,-3 -1.55874,-2.683901 -2.12132,-2.12132 -2.683901,-1.55874 -3,-0.795609 -3,0 -3,0.795609 -2.683901,1.55874 -2.12132,2.12132 -1.55874,2.683901 -0.795609,3 0,3 Z"
           style="stroke:#ff0000" />
      </defs>
      <g
         clip-path="url(#p26509fea78)"
         id="g316">
        <use
           xlink:href="#mc564ec52cf"
           x="53.409622"
           y="142.40207"
           style="fill:#ff0000;stroke:#ff0000"
           id="use314" />
      </g>
    </g>
    <g
       id="line2d_23">
      <g
         clip-path="url(#p26509fea78)"
         id="g321">
        <use
           xlink:href="#mc564ec52cf"
           x="100.54047"
           y="95.271217"
           style="fill:#ff0000;stroke:#ff0000"
           id="use319" />
      </g>
    </g>
    <g
       id="line2d_24">
      <g
         clip-path="url(#p26509fea78)"
         id="g326">
        <use
           xlink:href="#mc564ec52cf"
           x="164.92241"
           y="78.020126"
           style="fill:#ff0000;stroke:#ff0000"
           id="use324" />
      </g>
    </g>
    <g
       id="line2d_25">
      <g
         clip-path="url(#p26509fea78)"
         id="g331">
        <use
           xlink:href="#mc564ec52cf"
           x="229.30434"
           y="95.271217"
           style="fill:#ff0000;stroke:#ff0000"
           id="use329" />
      </g>
    </g>
    <g
       id="line2d_26">
      <defs
         id="defs335">
        <path
           id="mafc515e8e3"
           d="M 0,3 C 0.795609,3 1.55874,2.683901 2.12132,2.12132 2.683901,1.55874 3,0.795609 3,0 3,-0.795609 2.683901,-1.55874 2.12132,-2.12132 1.55874,-2.683901 0.795609,-3 0,-3 -0.795609,-3 -1.55874,-2.683901 -2.12132,-2.12132 -2.683901,-1.55874 -3,-0.795609 -3,0 -3,0.795609 -2.683901,1.55874 -2.12132,2.12132 -1.55874,2.683901 -0.795609,3 0,3 Z"
           style="stroke:#008000" />
      </defs>
      <g
         clip-path="url(#p26509fea78)"
         id="g339">
        <use
           xlink:href="#mafc515e8e3"
           x="198.24895"
           y="82.407654"
           style="fill:#008000;stroke:#008000"
           id="use337" />
      </g>
    </g>
    <g
       id="line2d_27">
      <g
         clip-path="url(#p26509fea78)"
         id="g344">
        <use
           xlink:href="#mafc515e8e3"
           x="276.43518"
           y="142.40207"
           style="fill:#008000;stroke:#008000"
           id="use342" />
      </g>
    </g>
    <g
       id="patch_3">
      <path
         d="m 297.97841,206.784 c 0,-35.27511 -14.02793,-69.14153 -38.9712,-94.0848 -24.94327,-24.94327 -58.80969,-38.9712 -94.0848,-38.9712 -35.27511,0 -69.141533,14.02793 -94.084804,38.9712 -24.94327,24.94327 -38.9712,58.80969 -38.9712,94.0848"
         style="fill:none;stroke:#000000;stroke-width:0.8;stroke-linecap:square;stroke-linejoin:miter"
         id="path347" />
    </g>
    <g
       id="patch_4">
      <path
         d="M 164.92241,206.784 H 31.866406"
         style="fill:none;stroke:#000000;stroke-width:0.8;stroke-linecap:square;stroke-linejoin:miter"
         id="path350" />
    </g>
    <g
       id="patch_5">
      <path
         d="m 164.92241,206.784 h 133.056"
         style="fill:none;stroke:#000000;stroke-width:0.8;stroke-linecap:square;stroke-linejoin:miter"
         id="path353" />
    </g>
  </g>
  <defs
     id="defs361">
    <clipPath
       id="p26509fea78">
      <path
         d="m 297.97841,206.784 c 0,-35.27511 -14.02793,-69.14153 -38.9712,-94.0848 -24.94327,-24.94327 -58.80969,-38.9712 -94.0848,-38.9712 -35.27511,0 -69.141533,14.02793 -94.084804,38.9712 -24.94327,24.94327 -38.9712,58.80969 -38.9712,94.0848 H 164.92241 c 0,0 0,0 0,0 0,0 0,0 0,0 0,0 0,0 0,0 0,0 0,0 0,0 z"
         id="path358" />
    </clipPath>
  </defs>
</svg>
