<?xml version="1.0" encoding="UTF-8" standalone="no"?>
<svg
   width="312.19989pt"
   height="166.45912pt"
   viewBox="0 0 312.1999 166.45913"
   version="1.1"
   id="svg327"
   sodipodi:docname="lcmv_beam_pattern_spread.svg"
   inkscape:version="1.2.1 (9c6d41e410, 2022-07-14)"
   xmlns:inkscape="http://www.inkscape.org/namespaces/inkscape"
   xmlns:sodipodi="http://sodipodi.sourceforge.net/DTD/sodipodi-0.dtd"
   xmlns:xlink="http://www.w3.org/1999/xlink"
   xmlns="http://www.w3.org/2000/svg"
   xmlns:svg="http://www.w3.org/2000/svg"
   xmlns:rdf="http://www.w3.org/1999/02/22-rdf-syntax-ns#"
   xmlns:cc="http://creativecommons.org/ns#"
   xmlns:dc="http://purl.org/dc/elements/1.1/">
  <sodipodi:namedview
     id="namedview329"
     pagecolor="#ffffff"
     bordercolor="#000000"
     borderopacity="0.25"
     inkscape:showpageshadow="2"
     inkscape:pageopacity="0.0"
     inkscape:pagecheckerboard="0"
     inkscape:deskcolor="#d1d1d1"
     inkscape:document-units="pt"
     showgrid="false"
     inkscape:zoom="2.7458719"
     inkscape:cx="150.22551"
     inkscape:cy="113.26093"
     inkscape:window-width="2560"
     inkscape:window-height="1369"
     inkscape:window-x="-8"
     inkscape:window-y="-8"
     inkscape:window-maximized="1"
     inkscape:current-layer="svg327" />
  <metadata
     id="metadata2">
    <rdf:RDF>
      <cc:Work>
        <dc:type
           rdf:resource="http://purl.org/dc/dcmitype/StillImage" />
        <dc:date>2024-05-10T23:43:18.651127</dc:date>
        <dc:format>image/svg+xml</dc:format>
        <dc:creator>
          <cc:Agent>
            <dc:title>Matplotlib v3.8.0, https://matplotlib.org/</dc:title>
          </cc:Agent>
        </dc:creator>
      </cc:Work>
    </rdf:RDF>
  </metadata>
  <defs
     id="defs6">
    <style
       type="text/css"
       id="style4">*{stroke-linejoin: round; stroke-linecap: butt}</style>
  </defs>
  <g
     id="axes_1"
     transform="translate(-7.6890625,-55.0655)">
    <g
       id="patch_2">
      <path
         d="m 297.97841,206.784 c 0,-35.27511 -14.02793,-69.14153 -38.9712,-94.0848 -24.94327,-24.94327 -58.80969,-38.9712 -94.0848,-38.9712 -35.27511,0 -69.141533,14.02793 -94.084804,38.9712 -24.94327,24.94327 -38.9712,58.80969 -38.9712,94.0848 H 164.92241 c 0,0 0,0 0,0 0,0 0,0 0,0 0,0 0,0 0,0 0,0 0,0 0,0 z"
         style="fill:#ffffff"
         id="path11" />
    </g>
    <g
       id="matplotlib.axis_1">
      <g
         id="xtick_1">
        <g
           id="line2d_1">
          <path
             d="M 164.92241,206.784 H 31.866406"
             clip-path="url(#p4864279b8b)"
             style="fill:none;stroke:#b0b0b0;stroke-width:0.8;stroke-linecap:square"
             id="path14" />
        </g>
        <g
           id="text_1">
          <!-- -90° -->
          <g
             transform="matrix(0.1,0,0,-0.1,7.2,209.54337)"
             id="g31">
            <defs
               id="defs21">
              <path
                 id="DejaVuSans-2d"
                 d="M 313,2009 H 1997 V 1497 H 313 Z"
                 transform="scale(0.015625)" />
              <path
                 id="DejaVuSans-39"
                 d="m 703,97 v 575 q 238,-113 481,-172 244,-59 479,-59 625,0 954,420 330,420 377,1277 -181,-269 -460,-413 -278,-144 -615,-144 -700,0 -1108,423 -408,424 -408,1159 0,718 425,1152 425,435 1131,435 810,0 1236,-621 427,-620 427,-1801 Q 3622,1225 3098,567 2575,-91 1691,-91 1453,-91 1209,-44 966,3 703,97 Z m 1256,1978 q 425,0 673,290 249,291 249,798 0,503 -249,795 -248,292 -673,292 -425,0 -673,-292 -248,-292 -248,-795 0,-507 248,-798 248,-290 673,-290 z"
                 transform="scale(0.015625)" />
              <path
                 id="DejaVuSans-30"
                 d="m 2034,4250 q -487,0 -733,-480 -245,-479 -245,-1442 0,-959 245,-1439 246,-480 733,-480 491,0 736,480 246,480 246,1439 0,963 -246,1442 -245,480 -736,480 z m 0,500 q 785,0 1199,-621 414,-620 414,-1801 0,-1178 -414,-1799 -414,-620 -1199,-620 -784,0 -1198,620 -414,621 -414,1799 0,1181 414,1801 414,621 1198,621 z"
                 transform="scale(0.015625)" />
              <path
                 id="DejaVuSans-b0"
                 d="m 1600,4347 q -250,0 -422,-174 -172,-173 -172,-423 0,-247 172,-417 172,-170 422,-170 250,0 422,170 172,170 172,417 0,247 -174,422 -173,175 -420,175 z m 0,403 q 200,0 384,-77 185,-76 319,-220 144,-140 216,-319 72,-178 72,-384 0,-412 -289,-698 -289,-286 -708,-286 -422,0 -704,281 -281,281 -281,703 0,419 287,709 288,291 704,291 z"
                 transform="scale(0.015625)" />
            </defs>
            <use
               xlink:href="#DejaVuSans-2d"
               id="use23" />
            <use
               xlink:href="#DejaVuSans-39"
               x="36.083984"
               id="use25" />
            <use
               xlink:href="#DejaVuSans-30"
               x="99.707031"
               id="use27" />
            <use
               xlink:href="#DejaVuSans-b0"
               x="163.33008"
               id="use29" />
          </g>
        </g>
      </g>
      <g
         id="xtick_2">
        <g
           id="line2d_2">
          <path
             d="M 164.92241,206.784 36.40018,172.34657"
             clip-path="url(#p4864279b8b)"
             style="fill:none;stroke:#b0b0b0;stroke-width:0.8;stroke-linecap:square"
             id="path35" />
        </g>
        <g
           id="text_2">
          <!-- -75° -->
          <g
             transform="matrix(0.1,0,0,-0.1,12.210812,171.48248)"
             id="g50">
            <defs
               id="defs40">
              <path
                 id="DejaVuSans-37"
                 d="M 525,4666 H 3525 V 4397 L 1831,0 H 1172 L 2766,4134 H 525 Z"
                 transform="scale(0.015625)" />
              <path
                 id="DejaVuSans-35"
                 d="M 691,4666 H 3169 V 4134 H 1269 V 2991 q 137,47 274,70 138,23 276,23 781,0 1237,-428 457,-428 457,-1159 Q 3513,744 3044,326 2575,-91 1722,-91 1428,-91 1123,-41 819,9 494,109 v 635 q 281,-153 581,-228 300,-75 634,-75 541,0 856,284 316,284 316,772 0,487 -316,771 -315,285 -856,285 -253,0 -505,-56 -251,-56 -513,-175 z"
                 transform="scale(0.015625)" />
            </defs>
            <use
               xlink:href="#DejaVuSans-2d"
               id="use42" />
            <use
               xlink:href="#DejaVuSans-37"
               x="36.083984"
               id="use44" />
            <use
               xlink:href="#DejaVuSans-35"
               x="99.707031"
               id="use46" />
            <use
               xlink:href="#DejaVuSans-b0"
               x="163.33008"
               id="use48" />
          </g>
        </g>
      </g>
      <g
         id="xtick_3">
        <g
           id="line2d_3">
          <path
             d="M 164.92241,206.784 49.69253,140.256"
             clip-path="url(#p4864279b8b)"
             style="fill:none;stroke:#b0b0b0;stroke-width:0.8;stroke-linecap:square"
             id="path54" />
        </g>
        <g
           id="text_3">
          <!-- -60° -->
          <g
             transform="matrix(0.1,0,0,-0.1,26.901768,136.01537)"
             id="g68">
            <defs
               id="defs58">
              <path
                 id="DejaVuSans-36"
                 d="m 2113,2584 q -425,0 -674,-291 -248,-290 -248,-796 0,-503 248,-796 249,-292 674,-292 425,0 673,292 248,293 248,796 0,506 -248,796 -248,291 -673,291 z m 1253,1979 v -575 q -238,112 -480,171 -242,60 -480,60 -625,0 -955,-422 -329,-422 -376,-1275 184,272 462,417 279,145 613,145 703,0 1111,-427 408,-426 408,-1160 0,-719 -425,-1154 -425,-434 -1131,-434 -810,0 -1238,620 -428,621 -428,1799 0,1106 525,1764 525,658 1409,658 238,0 480,-47 242,-47 505,-140 z"
                 transform="scale(0.015625)" />
            </defs>
            <use
               xlink:href="#DejaVuSans-2d"
               id="use60" />
            <use
               xlink:href="#DejaVuSans-36"
               x="36.083984"
               id="use62" />
            <use
               xlink:href="#DejaVuSans-30"
               x="99.707031"
               id="use64" />
            <use
               xlink:href="#DejaVuSans-b0"
               x="163.33008"
               id="use66" />
          </g>
        </g>
      </g>
      <g
         id="xtick_4">
        <g
           id="line2d_4">
          <path
             d="M 164.92241,206.784 70.837606,112.6992"
             clip-path="url(#p4864279b8b)"
             style="fill:none;stroke:#b0b0b0;stroke-width:0.8;stroke-linecap:square"
             id="path72" />
        </g>
        <g
           id="text_4">
          <!-- -45° -->
          <g
             transform="matrix(0.1,0,0,-0.1,50.271705,105.55908)"
             id="g86">
            <defs
               id="defs76">
              <path
                 id="DejaVuSans-34"
                 d="M 2419,4116 825,1625 h 1594 z m -166,550 h 794 V 1625 h 666 V 1100 H 3047 V 0 H 2419 V 1100 H 313 v 609 z"
                 transform="scale(0.015625)" />
            </defs>
            <use
               xlink:href="#DejaVuSans-2d"
               id="use78" />
            <use
               xlink:href="#DejaVuSans-34"
               x="36.083984"
               id="use80" />
            <use
               xlink:href="#DejaVuSans-35"
               x="99.707031"
               id="use82" />
            <use
               xlink:href="#DejaVuSans-b0"
               x="163.33008"
               id="use84" />
          </g>
        </g>
      </g>
      <g
         id="xtick_5">
        <g
           id="line2d_5">
          <path
             d="M 164.92241,206.784 98.394406,91.554124"
             clip-path="url(#p4864279b8b)"
             style="fill:none;stroke:#b0b0b0;stroke-width:0.8;stroke-linecap:square"
             id="path90" />
        </g>
        <g
           id="text_5">
          <!-- -30° -->
          <g
             transform="matrix(0.1,0,0,-0.1,80.728,82.189143)"
             id="g104">
            <defs
               id="defs94">
              <path
                 id="DejaVuSans-33"
                 d="m 2597,2516 q 453,-97 707,-404 255,-306 255,-756 0,-690 -475,-1069 -475,-378 -1350,-378 -293,0 -604,58 -311,58 -642,174 v 609 q 262,-153 574,-231 313,-78 654,-78 593,0 904,234 311,234 311,681 0,413 -289,645 -289,233 -804,233 h -544 v 519 h 569 q 465,0 712,186 247,186 247,536 0,359 -255,551 -254,193 -729,193 -260,0 -557,-57 -297,-56 -653,-174 v 562 q 360,100 674,150 314,50 592,50 719,0 1137,-327 419,-326 419,-882 0,-388 -222,-655 -222,-267 -631,-370 z"
                 transform="scale(0.015625)" />
            </defs>
            <use
               xlink:href="#DejaVuSans-2d"
               id="use96" />
            <use
               xlink:href="#DejaVuSans-33"
               x="36.083984"
               id="use98" />
            <use
               xlink:href="#DejaVuSans-30"
               x="99.707031"
               id="use100" />
            <use
               xlink:href="#DejaVuSans-b0"
               x="163.33008"
               id="use102" />
          </g>
        </g>
      </g>
      <g
         id="xtick_6">
        <g
           id="line2d_6">
          <path
             d="M 164.92241,206.784 130.48498,78.261773"
             clip-path="url(#p4864279b8b)"
             style="fill:none;stroke:#b0b0b0;stroke-width:0.8;stroke-linecap:square"
             id="path108" />
        </g>
        <g
           id="text_6">
          <!-- -15° -->
          <g
             transform="matrix(0.1,0,0,-0.1,116.19511,67.498187)"
             id="g122">
            <defs
               id="defs112">
              <path
                 id="DejaVuSans-31"
                 d="M 794,531 H 1825 V 4091 L 703,3866 v 575 l 1116,225 h 631 V 531 H 3481 V 0 H 794 Z"
                 transform="scale(0.015625)" />
            </defs>
            <use
               xlink:href="#DejaVuSans-2d"
               id="use114" />
            <use
               xlink:href="#DejaVuSans-31"
               x="36.083984"
               id="use116" />
            <use
               xlink:href="#DejaVuSans-35"
               x="99.707031"
               id="use118" />
            <use
               xlink:href="#DejaVuSans-b0"
               x="163.33008"
               id="use120" />
          </g>
        </g>
      </g>
      <g
         id="xtick_7">
        <g
           id="line2d_7">
          <path
             d="M 164.92241,206.784 V 73.728"
             clip-path="url(#p4864279b8b)"
             style="fill:none;stroke:#b0b0b0;stroke-width:0.8;stroke-linecap:square"
             id="path126" />
        </g>
        <g
           id="text_7">
          <!-- 0° -->
          <g
             transform="matrix(0.1,0,0,-0.1,159.24116,62.487375)"
             id="g133">
            <use
               xlink:href="#DejaVuSans-30"
               id="use129" />
            <use
               xlink:href="#DejaVuSans-b0"
               x="63.623047"
               id="use131" />
          </g>
        </g>
      </g>
      <g
         id="xtick_8">
        <g
           id="line2d_8">
          <path
             d="M 164.92241,206.784 199.35983,78.261773"
             clip-path="url(#p4864279b8b)"
             style="fill:none;stroke:#b0b0b0;stroke-width:0.8;stroke-linecap:square"
             id="path137" />
        </g>
        <g
           id="text_8">
          <!-- 15° -->
          <g
             transform="matrix(0.1,0,0,-0.1,194.1208,67.498187)"
             id="g146">
            <use
               xlink:href="#DejaVuSans-31"
               id="use140" />
            <use
               xlink:href="#DejaVuSans-35"
               x="63.623047"
               id="use142" />
            <use
               xlink:href="#DejaVuSans-b0"
               x="127.24609"
               id="use144" />
          </g>
        </g>
      </g>
      <g
         id="xtick_9">
        <g
           id="line2d_9">
          <path
             d="m 164.92241,206.784 66.528,-115.229876"
             clip-path="url(#p4864279b8b)"
             style="fill:none;stroke:#b0b0b0;stroke-width:0.8;stroke-linecap:square"
             id="path150" />
        </g>
        <g
           id="text_9">
          <!-- 30° -->
          <g
             transform="matrix(0.1,0,0,-0.1,229.58791,82.189143)"
             id="g159">
            <use
               xlink:href="#DejaVuSans-33"
               id="use153" />
            <use
               xlink:href="#DejaVuSans-30"
               x="63.623047"
               id="use155" />
            <use
               xlink:href="#DejaVuSans-b0"
               x="127.24609"
               id="use157" />
          </g>
        </g>
      </g>
      <g
         id="xtick_10">
        <g
           id="line2d_10">
          <path
             d="m 164.92241,206.784 94.0848,-94.0848"
             clip-path="url(#p4864279b8b)"
             style="fill:none;stroke:#b0b0b0;stroke-width:0.8;stroke-linecap:square"
             id="path163" />
        </g>
        <g
           id="text_10">
          <!-- 45° -->
          <g
             transform="matrix(0.1,0,0,-0.1,260.0442,105.55908)"
             id="g172">
            <use
               xlink:href="#DejaVuSans-34"
               id="use166" />
            <use
               xlink:href="#DejaVuSans-35"
               x="63.623047"
               id="use168" />
            <use
               xlink:href="#DejaVuSans-b0"
               x="127.24609"
               id="use170" />
          </g>
        </g>
      </g>
      <g
         id="xtick_11">
        <g
           id="line2d_11">
          <path
             d="M 164.92241,206.784 280.15228,140.256"
             clip-path="url(#p4864279b8b)"
             style="fill:none;stroke:#b0b0b0;stroke-width:0.8;stroke-linecap:square"
             id="path176" />
        </g>
        <g
           id="text_11">
          <!-- 60° -->
          <g
             transform="matrix(0.1,0,0,-0.1,283.41414,136.01537)"
             id="g185">
            <use
               xlink:href="#DejaVuSans-36"
               id="use179" />
            <use
               xlink:href="#DejaVuSans-30"
               x="63.623047"
               id="use181" />
            <use
               xlink:href="#DejaVuSans-b0"
               x="127.24609"
               id="use183" />
          </g>
        </g>
      </g>
      <g
         id="xtick_12">
        <g
           id="line2d_12">
          <path
             d="M 164.92241,206.784 293.44463,172.34657"
             clip-path="url(#p4864279b8b)"
             style="fill:none;stroke:#b0b0b0;stroke-width:0.8;stroke-linecap:square"
             id="path189" />
        </g>
        <g
           id="text_12">
          <!-- 75° -->
          <g
             transform="matrix(0.1,0,0,-0.1,298.10509,171.48248)"
             id="g198">
            <use
               xlink:href="#DejaVuSans-37"
               id="use192" />
            <use
               xlink:href="#DejaVuSans-35"
               x="63.623047"
               id="use194" />
            <use
               xlink:href="#DejaVuSans-b0"
               x="127.24609"
               id="use196" />
          </g>
        </g>
      </g>
      <g
         id="xtick_13">
        <g
           id="line2d_13">
          <path
             d="m 164.92241,206.784 h 133.056"
             clip-path="url(#p4864279b8b)"
             style="fill:none;stroke:#b0b0b0;stroke-width:0.8;stroke-linecap:square"
             id="path202" />
        </g>
        <g
           id="text_13">
          <!-- 90° -->
          <g
             transform="matrix(0.1,0,0,-0.1,303.11591,209.54337)"
             id="g211">
            <use
               xlink:href="#DejaVuSans-39"
               id="use205" />
            <use
               xlink:href="#DejaVuSans-30"
               x="63.623047"
               id="use207" />
            <use
               xlink:href="#DejaVuSans-b0"
               x="127.24609"
               id="use209" />
          </g>
        </g>
      </g>
    </g>
    <g
       id="matplotlib.axis_2">
      <g
         id="ytick_1">
        <g
           id="line2d_14">
          <path
             d="m 164.92241,206.784 c 0,0 0,0 0,0 0,0 0,0 0,0 0,0 0,0 0,0 0,0 0,0 0,0"
             clip-path="url(#p4864279b8b)"
             style="fill:none;stroke:#b0b0b0;stroke-width:0.8;stroke-linecap:square"
             id="path216" />
        </g>
        <g
           id="text_14">
          <!-- −30 -->
          <g
             transform="matrix(0.1,0,0,-0.1,154.37006,221.38244)"
             id="g228">
            <defs
               id="defs220">
              <path
                 id="DejaVuSans-2212"
                 d="M 678,2272 H 4684 V 1741 H 678 Z"
                 transform="scale(0.015625)" />
            </defs>
            <use
               xlink:href="#DejaVuSans-2212"
               id="use222" />
            <use
               xlink:href="#DejaVuSans-33"
               x="83.789062"
               id="use224" />
            <use
               xlink:href="#DejaVuSans-30"
               x="147.41211"
               id="use226" />
          </g>
        </g>
      </g>
      <g
         id="ytick_2">
        <g
           id="line2d_15">
          <path
             d="m 143.46176,206.784 c 0,-5.68953 2.26257,-11.15186 6.28568,-15.17497 4.02311,-4.02311 9.48543,-6.28568 15.17497,-6.28568 5.68953,0 11.15186,2.26257 15.17496,6.28568 4.02311,4.02311 6.28568,9.48544 6.28568,15.17497"
             clip-path="url(#p4864279b8b)"
             style="fill:none;stroke:#b0b0b0;stroke-width:0.8;stroke-linecap:square"
             id="path232" />
        </g>
        <g
           id="text_15">
          <!-- −25 -->
          <g
             transform="matrix(0.1,0,0,-0.1,132.90942,221.38244)"
             id="g244">
            <defs
               id="defs236">
              <path
                 id="DejaVuSans-32"
                 d="M 1228,531 H 3431 V 0 H 469 v 531 q 359,372 979,998 621,627 780,809 303,340 423,576 121,236 121,464 0,372 -261,606 -261,235 -680,235 -297,0 -627,-103 -329,-103 -704,-313 v 638 q 381,153 712,231 332,78 607,78 725,0 1156,-363 431,-362 431,-968 0,-288 -108,-546 -107,-257 -392,-607 -78,-91 -497,-524 Q 1991,1309 1228,531 Z"
                 transform="scale(0.015625)" />
            </defs>
            <use
               xlink:href="#DejaVuSans-2212"
               id="use238" />
            <use
               xlink:href="#DejaVuSans-32"
               x="83.789062"
               id="use240" />
            <use
               xlink:href="#DejaVuSans-35"
               x="147.41211"
               id="use242" />
          </g>
        </g>
      </g>
      <g
         id="ytick_3">
        <g
           id="line2d_16">
          <path
             d="m 122.00112,206.784 c 0,-11.37907 4.52514,-22.30372 12.57135,-30.34994 8.04622,-8.04621 18.97087,-12.57135 30.34994,-12.57135 11.37906,0 22.30371,4.52514 30.34993,12.57135 8.04622,8.04622 12.57136,18.97087 12.57136,30.34994"
             clip-path="url(#p4864279b8b)"
             style="fill:none;stroke:#b0b0b0;stroke-width:0.8;stroke-linecap:square"
             id="path248" />
        </g>
        <g
           id="text_16">
          <!-- −20 -->
          <g
             transform="matrix(0.1,0,0,-0.1,111.44877,221.38244)"
             id="g257">
            <use
               xlink:href="#DejaVuSans-2212"
               id="use251" />
            <use
               xlink:href="#DejaVuSans-32"
               x="83.789062"
               id="use253" />
            <use
               xlink:href="#DejaVuSans-30"
               x="147.41211"
               id="use255" />
          </g>
        </g>
      </g>
      <g
         id="ytick_4">
        <g
           id="line2d_17">
          <path
             d="m 100.54047,206.784 c 0,-17.0686 6.78771,-33.45558 18.85703,-45.5249 12.06933,-12.06933 28.4563,-18.85704 45.52491,-18.85704 17.0686,0 33.45557,6.78771 45.5249,18.85704 12.06932,12.06932 18.85703,28.4563 18.85703,45.5249"
             clip-path="url(#p4864279b8b)"
             style="fill:none;stroke:#b0b0b0;stroke-width:0.8;stroke-linecap:square"
             id="path261" />
        </g>
        <g
           id="text_17">
          <!-- −15 -->
          <g
             transform="matrix(0.1,0,0,-0.1,89.988127,221.38244)"
             id="g270">
            <use
               xlink:href="#DejaVuSans-2212"
               id="use264" />
            <use
               xlink:href="#DejaVuSans-31"
               x="83.789062"
               id="use266" />
            <use
               xlink:href="#DejaVuSans-35"
               x="147.41211"
               id="use268" />
          </g>
        </g>
      </g>
      <g
         id="ytick_5">
        <g
           id="line2d_18">
          <path
             d="m 79.079826,206.784 c 0,-22.75814 9.050277,-44.60744 25.142704,-60.69987 16.09244,-16.09243 37.94174,-25.14271 60.69988,-25.14271 22.75813,0 44.60743,9.05028 60.69987,25.14271 16.09243,16.09243 25.14271,37.94173 25.14271,60.69987"
             clip-path="url(#p4864279b8b)"
             style="fill:none;stroke:#b0b0b0;stroke-width:0.8;stroke-linecap:square"
             id="path274" />
        </g>
        <g
           id="text_18">
          <!-- −10 -->
          <g
             transform="matrix(0.1,0,0,-0.1,68.527482,221.38244)"
             id="g283">
            <use
               xlink:href="#DejaVuSans-2212"
               id="use277" />
            <use
               xlink:href="#DejaVuSans-31"
               x="83.789062"
               id="use279" />
            <use
               xlink:href="#DejaVuSans-30"
               x="147.41211"
               id="use281" />
          </g>
        </g>
      </g>
      <g
         id="ytick_6">
        <g
           id="line2d_19">
          <path
             d="m 57.61918,206.784 c 0,-28.44767 11.312847,-55.7593 31.428388,-75.87484 20.115542,-20.11554 47.427172,-31.428386 75.874842,-31.428386 28.44767,0 55.75929,11.312846 75.87483,31.428386 20.11555,20.11554 31.42839,47.42717 31.42839,75.87484"
             clip-path="url(#p4864279b8b)"
             style="fill:none;stroke:#b0b0b0;stroke-width:0.8;stroke-linecap:square"
             id="path287" />
        </g>
        <g
           id="text_19">
          <!-- −5 -->
          <g
             transform="matrix(0.1,0,0,-0.1,50.248087,221.38244)"
             id="g294">
            <use
               xlink:href="#DejaVuSans-2212"
               id="use290" />
            <use
               xlink:href="#DejaVuSans-35"
               x="83.789062"
               id="use292" />
          </g>
        </g>
      </g>
      <g
         id="ytick_7">
        <g
           id="line2d_20">
          <path
             d="m 36.158535,206.784 c 0,-34.1372 13.575416,-66.91116 37.714065,-91.04981 24.138649,-24.138645 56.9126,-37.714061 91.04981,-37.714061 34.1372,0 66.91115,13.575416 91.0498,37.714061 24.13865,24.13865 37.71407,56.91261 37.71407,91.04981"
             clip-path="url(#p4864279b8b)"
             style="fill:none;stroke:#b0b0b0;stroke-width:0.8;stroke-linecap:square"
             id="path298" />
        </g>
        <g
           id="text_20">
          <!-- 0 -->
          <g
             transform="matrix(0.1,0,0,-0.1,32.977285,221.38244)"
             id="g303">
            <use
               xlink:href="#DejaVuSans-30"
               id="use301" />
          </g>
        </g>
      </g>
    </g>
    <g
       id="line2d_21">
      <path
         d="m 70.535535,206.784 0.72515,-5.86532 0.792025,-2.37147 0.860978,-1.7724 0.932276,-1.44824 1.006214,-1.22962 1.083129,-1.06419 1.163396,-0.92945 1.247436,-0.8138 1.335728,-0.71056 1.428815,-0.61544 1.527305,-0.52554 1.631889,-0.43876 3.605872,-0.62167 4.118338,-0.27571 4.712301,0.0905 5.400863,0.49051 6.17691,0.93056 6.95253,1.38921 7.37176,1.7491 8.38278,2.09258 0.64494,0.008 -0.79035,-0.5048 -4.80232,-2.24958 -9.69952,-4.57152 -5.88214,-2.99453 -5.01117,-2.75911 -4.18004,-2.50782 -3.451213,-2.27142 -2.822806,-2.05469 -2.278231,-1.85517 -1.800146,-1.66889 -1.373772,-1.49199 -0.987158,-1.3211 -0.630713,-1.15327 -0.296616,-0.98594 0.02171,-0.81671 0.330012,-0.64323 0.633595,-0.46311 0.937641,-0.27367 1.247537,-0.0719 1.569262,0.14597 1.909844,0.38453 2.278002,0.64981 2.685063,0.94991 3.146359,1.29601 3.68337,1.70401 4.32706,2.19701 5.12258,2.80902 6.1332,3.58845 7.42619,4.58962 8.92946,5.77448 14.23801,9.53091 -1.7007,-1.27678 -12.69009,-9.45911 -7.9233,-6.12493 -6.32373,-5.08918 -7.09838,-6.05286 -5.03151,-4.66141 -3.54381,-3.63601 -2.40227,-2.8233 -1.47321,-2.13398 -0.53382,-1.07545 -0.20673,-0.81162 0.10246,-0.55311 0.40035,-0.29484 0.69282,-0.0321 0.98545,0.23995 1.28384,0.52638 2.51285,1.37265 3.28184,2.16259 4.1631,3.09638 5.20366,4.22722 6.40863,5.57122 7.46865,6.83224 7.97308,7.35035 -2.16909,-2.48105 -8.62774,-9.64858 -5.84263,-6.82529 -4.48924,-5.55589 -3.2947,-4.39485 -2.30963,-3.40919 -1.4856,-2.55718 -0.77264,-1.79133 -0.15574,-0.79327 0.11536,-0.47992 0.37863,-0.16607 0.63926,0.15435 0.90254,0.4878 1.17415,0.84168 2.30548,1.99314 3.03969,3.00805 3.92398,4.26225 5.05562,5.89691 6.56202,8.10391 8.30765,10.7323 7.56406,9.97433 -1.16268,-1.69055 -10.40956,-15.10986 -6.67758,-10.10535 -4.83964,-7.71786 -3.46707,-5.90551 -2.44495,-4.53363 -1.64731,-3.43894 -0.99322,-2.51448 -0.43164,-1.69158 -0.006,-0.69895 0.20652,-0.36502 0.41205,-0.0316 0.61475,0.30752 0.81847,0.65876 1.622,1.69111 2.12995,2.62884 2.70526,3.72698 3.38883,5.06714 4.22838,6.7494 5.21157,8.77172 9.03499,15.80254 -0.37883,-0.84037 -9.24167,-18.88226 -3.89068,-8.44674 -2.83097,-6.57375 -1.9871,-5.04752 -1.31725,-3.80571 -0.76741,-2.75425 -0.29767,-1.8209 0.036,-0.72928 0.21144,-0.35273 0.38056,0.0228 0.54679,0.40485 0.71346,0.80117 1.39262,1.99835 1.80942,3.06999 2.28618,4.34345 2.86283,5.93083 3.58779,7.97562 4.43606,10.4468 6.09621,14.89157 -0.32359,-0.99758 -6.46525,-18.44726 -3.3753,-10.23881 -2.41628,-7.91124 -1.67119,-6.05997 -1.09948,-4.60586 -0.64523,-3.4143 -0.26929,-2.38775 0.0544,-1.45913 0.19859,-0.48266 0.32039,-0.0968 0.43793,0.29216 0.55348,0.69173 1.04806,1.83037 1.32047,2.87829 1.61897,4.09289 1.96152,5.55524 2.36263,7.34348 2.78236,9.3351 4.08283,14.14476 -0.82017,-3.94606 -3.00783,-14.16329 -1.85427,-9.54322 -1.30369,-7.59357 -1.04946,-7.57563 -0.38857,-4.14525 -0.11937,-3.05106 0.10488,-2.08226 0.29704,-1.18778 0.2932,-0.31325 0.36335,0.067 0.42976,0.45238 0.49352,0.84985 0.8567,2.06485 0.99608,3.10707 1.14015,4.30268 1.29295,5.70404 1.44884,7.30552 2.05831,11.7329 1.32108,7.35642 0.0188,-0.53969 -0.55446,-6.94284 -0.98299,-12.66536 -0.56129,-10.47806 -0.14133,-7.74475 0.10517,-4.3023 0.24446,-3.20862 0.35519,-2.23527 0.44343,-1.33675 0.33549,-0.41168 0.36188,-0.0321 0.38401,0.35126 0.4022,0.745 0.62926,1.8962 0.64944,2.91714 0.65685,4.0805 0.64972,5.43721 0.62364,6.99273 0.73849,11.4264 0.53175,8.27053 0.098,-0.0755 0.18779,-3.27858 0.79365,-18.52615 0.54094,-7.97014 0.6027,-6.41689 0.64241,-5.06148 0.66474,-3.90373 0.67237,-2.89355 0.66668,-1.98265 0.64795,-1.13107 0.41494,-0.29491 0.39634,0.0715 0.37307,0.44376 0.34465,0.82811 0.31041,1.23106 0.3866,2.66033 0.26769,3.74383 0.11714,4.96891 -0.0632,6.27937 -0.36914,15.272 0.18614,-0.48467 0.66104,-3.42506 3.07882,-17.58511 1.59077,-7.97601 1.51246,-6.71319 1.42993,-5.576102 1.35207,-4.604039 1.27899,-3.772703 1.20889,-3.050738 1.13989,-2.41161 1.07034,-1.834763 0.99885,-1.304561 0.92427,-0.809029 0.57276,-0.276914 0.53638,-0.07377 0.4984,0.124919 0.45868,0.320185 0.4171,0.512855 0.5433,1.126379 0.43837,1.550416 0.32666,1.968958 0.25218,3.258658 0.0384,3.930098 -0.2236,5.638425 -0.5952,10.591846 0.15198,1.71915 0.26123,0.55322 0.3908,0.0983 0.50529,-0.28548 0.91645,-0.92551 3.0475,-3.39881 0.90165,-0.67047 0.78622,-0.28858 0.45203,0.032 0.39122,0.21226 0.32936,0.38847 0.37939,0.89448 0.24999,1.22705 0.1673,2.02662 0.26729,5.1142 0.31819,0.85573 0.33187,0.26908 0.43477,0.0209 0.53322,-0.20777 0.95451,-0.65296 4.36188,-3.45279 0.92397,-0.40161 0.77951,-0.07 0.42952,0.15026 0.35323,0.31048 0.27556,0.46831 0.27062,0.98147 0.11524,1.27055 -0.0488,2.99658 0.0609,1.75061 0.18185,0.57766 0.34325,0.27703 0.53977,-0.0776 0.75397,-0.45276 1.5189,-1.33241 3.30725,-3.42675 5.22406,-5.41431 2.87241,-2.69616 2.64177,-2.18729 2.35842,-1.62301 1.56645,-0.84009 1.38574,-0.52062 1.20058,-0.2078 1.01161,0.0975 0.56751,0.23093 0.48052,0.36135 0.39211,0.49002 0.41882,0.97308 0.20983,1.25543 -0.007,1.53555 -0.23268,1.81518 -0.46944,2.09626 -0.71921,2.38088 -1.37449,3.62801 -1.89114,4.1672 -2.46502,4.74018 -3.11305,5.36253 -3.85962,6.05661 -3.46417,5.0597 -4.03657,5.57184 -4.71403,6.17306 -5.54029,6.90455 -6.58977,7.83689 -8.00162,9.1033 -10.07313,10.99084 -8.50943,8.99121 -5.07723,5.26971 m -0.25052,1.67623 9.58813,-4.91984 8.2558,-4.03835 7.27773,-3.37307 6.51856,-2.84341 5.90451,-2.40508 5.39177,-2.03154 4.95257,-1.70588 4.56842,-1.41665 4.22641,-1.15587 3.91729,-0.91767 3.63416,-0.69766 3.37179,-0.49245 3.12606,-0.29926 2.89369,-0.11589 2.67199,0.0597 2.45873,0.22904 2.25196,0.39392 2.05004,0.55588 1.85142,0.71665 1.65473,0.87815 1.45862,1.04275 1.26183,1.2136 1.06304,1.39511 0.86093,1.59409 0.65406,1.82185 0.4409,2.09933 0.2197,2.47136 -0.0115,3.05937 -0.47836,10.37157 v 0"
         clip-path="url(#p4864279b8b)"
         style="fill:none;stroke:#1f77b4;stroke-width:1.5;stroke-linecap:square"
         id="path308" />
    </g>
    <g
       id="patch_3">
      <path
         d="m 297.97841,206.784 c 0,-35.27511 -14.02793,-69.14153 -38.9712,-94.0848 -24.94327,-24.94327 -58.80969,-38.9712 -94.0848,-38.9712 -35.27511,0 -69.141533,14.02793 -94.084804,38.9712 -24.94327,24.94327 -38.9712,58.80969 -38.9712,94.0848"
         style="fill:none;stroke:#000000;stroke-width:0.8;stroke-linecap:square;stroke-linejoin:miter"
         id="path311" />
    </g>
    <g
       id="patch_4">
      <path
         d="M 164.92241,206.784 H 31.866406"
         style="fill:none;stroke:#000000;stroke-width:0.8;stroke-linecap:square;stroke-linejoin:miter"
         id="path314" />
    </g>
    <g
       id="patch_5">
      <path
         d="m 164.92241,206.784 h 133.056"
         style="fill:none;stroke:#000000;stroke-width:0.8;stroke-linecap:square;stroke-linejoin:miter"
         id="path317" />
    </g>
  </g>
  <defs
     id="defs325">
    <clipPath
       id="p4864279b8b">
      <path
         d="m 297.97841,206.784 c 0,-35.27511 -14.02793,-69.14153 -38.9712,-94.0848 -24.94327,-24.94327 -58.80969,-38.9712 -94.0848,-38.9712 -35.27511,0 -69.141533,14.02793 -94.084804,38.9712 -24.94327,24.94327 -38.9712,58.80969 -38.9712,94.0848 H 164.92241 c 0,0 0,0 0,0 0,0 0,0 0,0 0,0 0,0 0,0 0,0 0,0 0,0 z"
         id="path322" />
    </clipPath>
  </defs>
</svg>
