<?xml version="1.0" encoding="utf-8" standalone="no"?>
<!DOCTYPE svg PUBLIC "-//W3C//DTD SVG 1.1//EN"
  "http://www.w3.org/Graphics/SVG/1.1/DTD/svg11.dtd">
<svg xmlns:xlink="http://www.w3.org/1999/xlink" width="490.4375pt" height="280.8pt" viewBox="0 0 490.4375 280.8" xmlns="http://www.w3.org/2000/svg" version="1.1">
 <metadata>
  <rdf:RDF xmlns:dc="http://purl.org/dc/elements/1.1/" xmlns:cc="http://creativecommons.org/ns#" xmlns:rdf="http://www.w3.org/1999/02/22-rdf-syntax-ns#">
   <cc:Work>
    <dc:type rdf:resource="http://purl.org/dc/dcmitype/StillImage"/>
    <dc:date>2026-06-06T01:19:15.295396</dc:date>
    <dc:format>image/svg+xml</dc:format>
    <dc:creator>
     <cc:Agent>
      <dc:title>Matplotlib v3.10.9, https://matplotlib.org/</dc:title>
     </cc:Agent>
    </dc:creator>
   </cc:Work>
  </rdf:RDF>
 </metadata>
 <defs>
  <style type="text/css">*{stroke-linejoin: round; stroke-linecap: butt}</style>
 </defs>
 <g id="figure_1">
  <g id="patch_1">
   <path d="M 0 280.8 
L 490.4375 280.8 
L 490.4375 0 
L 0 0 
z
" style="fill: #ffffff"/>
  </g>
  <g id="axes_1">
   <g id="patch_2">
    <path d="M 43.78125 119.041875 
L 483.2375 119.041875 
L 483.2375 22.318125 
L 43.78125 22.318125 
z
" style="fill: #ffffff"/>
   </g>
   <g id="matplotlib.axis_1">
    <g id="xtick_1">
     <g id="line2d_1">
      <defs>
       <path id="mcd2cf5da06" d="M 0 0 
L 0 3.5 
" style="stroke: #000000; stroke-width: 0.8"/>
      </defs>
      <g>
       <use xlink:href="#mcd2cf5da06" x="63.756534" y="119.041875" style="stroke: #000000; stroke-width: 0.8"/>
      </g>
     </g>
     <g id="text_1">
      <!-- 0 -->
      <g transform="translate(60.575284 133.640312) scale(0.1 -0.1)">
       <defs>
        <path id="DejaVuSans-30" d="M 2034 4250 
Q 1547 4250 1301 3770 
Q 1056 3291 1056 2328 
Q 1056 1369 1301 889 
Q 1547 409 2034 409 
Q 2525 409 2770 889 
Q 3016 1369 3016 2328 
Q 3016 3291 2770 3770 
Q 2525 4250 2034 4250 
z
M 2034 4750 
Q 2819 4750 3233 4129 
Q 3647 3509 3647 2328 
Q 3647 1150 3233 529 
Q 2819 -91 2034 -91 
Q 1250 -91 836 529 
Q 422 1150 422 2328 
Q 422 3509 836 4129 
Q 1250 4750 2034 4750 
z
" transform="scale(0.015625)"/>
       </defs>
       <use xlink:href="#DejaVuSans-30"/>
      </g>
     </g>
    </g>
    <g id="xtick_2">
     <g id="line2d_2">
      <g>
       <use xlink:href="#mcd2cf5da06" x="126.37498" y="119.041875" style="stroke: #000000; stroke-width: 0.8"/>
      </g>
     </g>
     <g id="text_2">
      <!-- 50 -->
      <g transform="translate(120.01248 133.640312) scale(0.1 -0.1)">
       <defs>
        <path id="DejaVuSans-35" d="M 691 4666 
L 3169 4666 
L 3169 4134 
L 1269 4134 
L 1269 2991 
Q 1406 3038 1543 3061 
Q 1681 3084 1819 3084 
Q 2600 3084 3056 2656 
Q 3513 2228 3513 1497 
Q 3513 744 3044 326 
Q 2575 -91 1722 -91 
Q 1428 -91 1123 -41 
Q 819 9 494 109 
L 494 744 
Q 775 591 1075 516 
Q 1375 441 1709 441 
Q 2250 441 2565 725 
Q 2881 1009 2881 1497 
Q 2881 1984 2565 2268 
Q 2250 2553 1709 2553 
Q 1456 2553 1204 2497 
Q 953 2441 691 2322 
L 691 4666 
z
" transform="scale(0.015625)"/>
       </defs>
       <use xlink:href="#DejaVuSans-35"/>
       <use xlink:href="#DejaVuSans-30" transform="translate(63.623047 0)"/>
      </g>
     </g>
    </g>
    <g id="xtick_3">
     <g id="line2d_3">
      <g>
       <use xlink:href="#mcd2cf5da06" x="188.993425" y="119.041875" style="stroke: #000000; stroke-width: 0.8"/>
      </g>
     </g>
     <g id="text_3">
      <!-- 100 -->
      <g transform="translate(179.449675 133.640312) scale(0.1 -0.1)">
       <defs>
        <path id="DejaVuSans-31" d="M 794 531 
L 1825 531 
L 1825 4091 
L 703 3866 
L 703 4441 
L 1819 4666 
L 2450 4666 
L 2450 531 
L 3481 531 
L 3481 0 
L 794 0 
L 794 531 
z
" transform="scale(0.015625)"/>
       </defs>
       <use xlink:href="#DejaVuSans-31"/>
       <use xlink:href="#DejaVuSans-30" transform="translate(63.623047 0)"/>
       <use xlink:href="#DejaVuSans-30" transform="translate(127.246094 0)"/>
      </g>
     </g>
    </g>
    <g id="xtick_4">
     <g id="line2d_4">
      <g>
       <use xlink:href="#mcd2cf5da06" x="251.61187" y="119.041875" style="stroke: #000000; stroke-width: 0.8"/>
      </g>
     </g>
     <g id="text_4">
      <!-- 150 -->
      <g transform="translate(242.06812 133.640312) scale(0.1 -0.1)">
       <use xlink:href="#DejaVuSans-31"/>
       <use xlink:href="#DejaVuSans-35" transform="translate(63.623047 0)"/>
       <use xlink:href="#DejaVuSans-30" transform="translate(127.246094 0)"/>
      </g>
     </g>
    </g>
    <g id="xtick_5">
     <g id="line2d_5">
      <g>
       <use xlink:href="#mcd2cf5da06" x="314.230316" y="119.041875" style="stroke: #000000; stroke-width: 0.8"/>
      </g>
     </g>
     <g id="text_5">
      <!-- 200 -->
      <g transform="translate(304.686566 133.640312) scale(0.1 -0.1)">
       <defs>
        <path id="DejaVuSans-32" d="M 1228 531 
L 3431 531 
L 3431 0 
L 469 0 
L 469 531 
Q 828 903 1448 1529 
Q 2069 2156 2228 2338 
Q 2531 2678 2651 2914 
Q 2772 3150 2772 3378 
Q 2772 3750 2511 3984 
Q 2250 4219 1831 4219 
Q 1534 4219 1204 4116 
Q 875 4013 500 3803 
L 500 4441 
Q 881 4594 1212 4672 
Q 1544 4750 1819 4750 
Q 2544 4750 2975 4387 
Q 3406 4025 3406 3419 
Q 3406 3131 3298 2873 
Q 3191 2616 2906 2266 
Q 2828 2175 2409 1742 
Q 1991 1309 1228 531 
z
" transform="scale(0.015625)"/>
       </defs>
       <use xlink:href="#DejaVuSans-32"/>
       <use xlink:href="#DejaVuSans-30" transform="translate(63.623047 0)"/>
       <use xlink:href="#DejaVuSans-30" transform="translate(127.246094 0)"/>
      </g>
     </g>
    </g>
    <g id="xtick_6">
     <g id="line2d_6">
      <g>
       <use xlink:href="#mcd2cf5da06" x="376.848761" y="119.041875" style="stroke: #000000; stroke-width: 0.8"/>
      </g>
     </g>
     <g id="text_6">
      <!-- 250 -->
      <g transform="translate(367.305011 133.640312) scale(0.1 -0.1)">
       <use xlink:href="#DejaVuSans-32"/>
       <use xlink:href="#DejaVuSans-35" transform="translate(63.623047 0)"/>
       <use xlink:href="#DejaVuSans-30" transform="translate(127.246094 0)"/>
      </g>
     </g>
    </g>
    <g id="xtick_7">
     <g id="line2d_7">
      <g>
       <use xlink:href="#mcd2cf5da06" x="439.467207" y="119.041875" style="stroke: #000000; stroke-width: 0.8"/>
      </g>
     </g>
     <g id="text_7">
      <!-- 300 -->
      <g transform="translate(429.923457 133.640312) scale(0.1 -0.1)">
       <defs>
        <path id="DejaVuSans-33" d="M 2597 2516 
Q 3050 2419 3304 2112 
Q 3559 1806 3559 1356 
Q 3559 666 3084 287 
Q 2609 -91 1734 -91 
Q 1441 -91 1130 -33 
Q 819 25 488 141 
L 488 750 
Q 750 597 1062 519 
Q 1375 441 1716 441 
Q 2309 441 2620 675 
Q 2931 909 2931 1356 
Q 2931 1769 2642 2001 
Q 2353 2234 1838 2234 
L 1294 2234 
L 1294 2753 
L 1863 2753 
Q 2328 2753 2575 2939 
Q 2822 3125 2822 3475 
Q 2822 3834 2567 4026 
Q 2313 4219 1838 4219 
Q 1578 4219 1281 4162 
Q 984 4106 628 3988 
L 628 4550 
Q 988 4650 1302 4700 
Q 1616 4750 1894 4750 
Q 2613 4750 3031 4423 
Q 3450 4097 3450 3541 
Q 3450 3153 3228 2886 
Q 3006 2619 2597 2516 
z
" transform="scale(0.015625)"/>
       </defs>
       <use xlink:href="#DejaVuSans-33"/>
       <use xlink:href="#DejaVuSans-30" transform="translate(63.623047 0)"/>
       <use xlink:href="#DejaVuSans-30" transform="translate(127.246094 0)"/>
      </g>
     </g>
    </g>
   </g>
   <g id="matplotlib.axis_2">
    <g id="ytick_1">
     <g id="line2d_8">
      <defs>
       <path id="me5ec6cc415" d="M 0 0 
L -3.5 0 
" style="stroke: #000000; stroke-width: 0.8"/>
      </defs>
      <g>
       <use xlink:href="#me5ec6cc415" x="43.78125" y="114.645341" style="stroke: #000000; stroke-width: 0.8"/>
      </g>
     </g>
     <g id="text_8">
      <!-- −1 -->
      <g transform="translate(22.039063 118.44456) scale(0.1 -0.1)">
       <defs>
        <path id="DejaVuSans-2212" d="M 678 2272 
L 4684 2272 
L 4684 1741 
L 678 1741 
L 678 2272 
z
" transform="scale(0.015625)"/>
       </defs>
       <use xlink:href="#DejaVuSans-2212"/>
       <use xlink:href="#DejaVuSans-31" transform="translate(83.789062 0)"/>
      </g>
     </g>
    </g>
    <g id="ytick_2">
     <g id="line2d_9">
      <g>
       <use xlink:href="#me5ec6cc415" x="43.78125" y="70.68" style="stroke: #000000; stroke-width: 0.8"/>
      </g>
     </g>
     <g id="text_9">
      <!-- 0 -->
      <g transform="translate(30.41875 74.479219) scale(0.1 -0.1)">
       <use xlink:href="#DejaVuSans-30"/>
      </g>
     </g>
    </g>
    <g id="ytick_3">
     <g id="line2d_10">
      <g>
       <use xlink:href="#me5ec6cc415" x="43.78125" y="26.714659" style="stroke: #000000; stroke-width: 0.8"/>
      </g>
     </g>
     <g id="text_10">
      <!-- 1 -->
      <g transform="translate(30.41875 30.513878) scale(0.1 -0.1)">
       <use xlink:href="#DejaVuSans-31"/>
      </g>
     </g>
    </g>
   </g>
   <g id="line2d_11">
    <path d="M 63.756534 26.926364 
L 65.008903 26.714659 
L 66.261272 26.926364 
L 67.513641 27.559441 
L 68.76601 28.607792 
L 70.018379 30.061321 
L 71.270748 31.906031 
L 72.523116 34.124155 
L 73.775485 36.694332 
L 75.027854 39.591809 
L 77.532592 46.254165 
L 80.03733 53.855192 
L 83.794437 66.370643 
L 85.046806 70.68 
L 88.803912 57.917535 
L 91.30865 49.954882 
L 93.813388 42.788683 
L 96.318126 36.694332 
L 97.570495 34.124155 
L 98.822864 31.906031 
L 100.075232 30.061321 
L 101.327601 28.607792 
L 102.57997 27.559441 
L 103.832339 26.926364 
L 105.084708 26.714659 
L 106.337077 26.926364 
L 107.589446 27.559441 
L 108.841815 28.607792 
L 110.094184 30.061321 
L 111.346553 31.906031 
L 112.598922 34.124155 
L 113.85129 36.694332 
L 115.103659 39.591809 
L 117.608397 46.254165 
L 120.113135 53.855192 
L 123.870242 66.370643 
L 128.879717 83.442465 
L 131.384455 91.405118 
L 133.889193 98.571317 
L 136.393931 104.665668 
L 137.6463 107.235845 
L 138.898669 109.453969 
L 140.151038 111.298679 
L 141.403406 112.752208 
L 142.655775 113.800559 
L 143.908144 114.433636 
L 145.160513 114.645341 
L 146.412882 114.433636 
L 147.665251 113.800559 
L 148.91762 112.752208 
L 150.169989 111.298679 
L 151.422358 109.453969 
L 152.674727 107.235845 
L 153.927096 104.665668 
L 155.179464 101.768191 
L 157.684202 95.105835 
L 160.18894 87.504808 
L 163.946047 74.989357 
L 165.198416 70.68 
L 168.955522 83.442465 
L 171.46026 91.405118 
L 173.964998 98.571317 
L 176.469736 104.665668 
L 177.722105 107.235845 
L 178.974474 109.453969 
L 180.226843 111.298679 
L 181.479211 112.752208 
L 182.73158 113.800559 
L 183.983949 114.433636 
L 185.236318 114.645341 
L 186.488687 114.433636 
L 187.741056 113.800559 
L 188.993425 112.752208 
L 190.245794 111.298679 
L 191.498163 109.453969 
L 192.750532 107.235845 
L 194.002901 104.665668 
L 195.255269 101.768191 
L 197.760007 95.105835 
L 200.264745 87.504808 
L 204.021852 74.989357 
L 209.031327 57.917535 
L 211.536065 49.954882 
L 214.040803 42.788683 
L 216.545541 36.694332 
L 217.79791 34.124155 
L 219.050279 31.906031 
L 220.302648 30.061321 
L 221.555017 28.607792 
L 222.807385 27.559441 
L 224.059754 26.926364 
L 225.312123 26.714659 
L 226.564492 26.926364 
L 227.816861 27.559441 
L 229.06923 28.607792 
L 230.321599 30.061321 
L 231.573968 31.906031 
L 232.826337 34.124155 
L 234.078706 36.694332 
L 235.331075 39.591809 
L 237.835812 46.254165 
L 240.34055 53.855192 
L 244.097657 66.370643 
L 249.107133 83.442465 
L 251.61187 91.405118 
L 254.116608 98.571317 
L 256.621346 104.665668 
L 257.873715 107.235845 
L 259.126084 109.453969 
L 260.378453 111.298679 
L 261.630822 112.752208 
L 262.883191 113.800559 
L 264.135559 114.433636 
L 265.387928 114.645341 
L 266.640297 114.433636 
L 267.892666 113.800559 
L 269.145035 112.752208 
L 270.397404 111.298679 
L 271.649773 109.453969 
L 272.902142 107.235845 
L 274.154511 104.665668 
L 275.40688 101.768191 
L 277.911617 95.105835 
L 280.416355 87.504808 
L 284.173462 74.989357 
L 289.182938 57.917535 
L 291.687675 49.954882 
L 294.192413 42.788683 
L 296.697151 36.694332 
L 297.94952 34.124155 
L 299.201889 31.906031 
L 300.454258 30.061321 
L 301.706627 28.607792 
L 302.958996 27.559441 
L 304.211365 26.926364 
L 305.463733 26.714659 
L 306.716102 26.926364 
L 307.968471 27.559441 
L 309.22084 28.607792 
L 310.473209 30.061321 
L 311.725578 31.906031 
L 312.977947 34.124155 
L 314.230316 36.694332 
L 315.482685 39.591809 
L 317.987423 46.254165 
L 320.49216 53.855192 
L 324.249267 66.370643 
L 329.258743 83.442465 
L 331.763481 91.405118 
L 334.268218 98.571317 
L 336.772956 104.665668 
L 338.025325 107.235845 
L 339.277694 109.453969 
L 340.530063 111.298679 
L 341.782432 112.752208 
L 343.034801 113.800559 
L 344.28717 114.433636 
L 345.539539 114.645341 
L 346.791907 114.433636 
L 348.044276 113.800559 
L 349.296645 112.752208 
L 350.549014 111.298679 
L 351.801383 109.453969 
L 353.053752 107.235845 
L 354.306121 104.665668 
L 355.55849 101.768191 
L 358.063228 95.105835 
L 360.567965 87.504808 
L 364.325072 74.989357 
L 369.334548 57.917535 
L 371.839286 49.954882 
L 374.344023 42.788683 
L 376.848761 36.694332 
L 378.10113 34.124155 
L 379.353499 31.906031 
L 380.605868 30.061321 
L 381.858237 28.607792 
L 383.110606 27.559441 
L 384.362975 26.926364 
L 385.615344 26.714659 
L 386.867712 26.926364 
L 388.120081 27.559441 
L 389.37245 28.607792 
L 390.624819 30.061321 
L 391.877188 31.906031 
L 393.129557 34.124155 
L 394.381926 36.694332 
L 395.634295 39.591809 
L 398.139033 46.254165 
L 400.64377 53.855192 
L 404.400877 66.370643 
L 405.653246 70.68 
L 409.410353 57.917535 
L 411.915091 49.954882 
L 414.419828 42.788683 
L 416.924566 36.694332 
L 418.176935 34.124155 
L 419.429304 31.906031 
L 420.681673 30.061321 
L 421.934042 28.607792 
L 423.186411 27.559441 
L 424.43878 26.926364 
L 425.691149 26.714659 
L 426.943518 26.926364 
L 428.195886 27.559441 
L 429.448255 28.607792 
L 430.700624 30.061321 
L 431.952993 31.906031 
L 433.205362 34.124155 
L 434.457731 36.694332 
L 435.7101 39.591809 
L 438.214838 46.254165 
L 440.719576 53.855192 
L 444.476682 66.370643 
L 445.729051 70.68 
L 449.486158 57.917535 
L 451.990896 49.954882 
L 454.495634 42.788683 
L 457.000371 36.694332 
L 458.25274 34.124155 
L 459.505109 31.906031 
L 460.757478 30.061321 
L 462.009847 28.607792 
L 463.262216 27.559441 
L 463.262216 27.559441 
" clip-path="url(#pcbadf45c6e)" style="fill: none; stroke: #1f77b4; stroke-width: 1.5; stroke-linecap: square"/>
   </g>
   <g id="line2d_12">
    <path d="M 63.756534 70.68 
L 65.008903 70.68 
L 68.76601 57.917535 
L 71.270748 49.954882 
L 73.775485 42.788683 
L 76.280223 36.694332 
L 77.532592 34.124155 
L 78.784961 31.906031 
L 80.03733 30.061321 
L 81.289699 28.607792 
L 82.542068 27.559441 
L 83.794437 26.926364 
L 85.046806 26.714659 
L 86.299174 26.926364 
L 87.551543 27.559441 
L 88.803912 28.607792 
L 90.056281 30.061321 
L 91.30865 31.906031 
L 92.561019 34.124155 
L 93.813388 36.694332 
L 95.065757 39.591809 
L 97.570495 46.254165 
L 100.075232 53.855192 
L 103.832339 66.370643 
L 105.084708 70.68 
L 108.841815 57.917535 
L 111.346553 49.954882 
L 113.85129 42.788683 
L 116.356028 36.694332 
L 117.608397 34.124155 
L 118.860766 31.906031 
L 120.113135 30.061321 
L 121.365504 28.607792 
L 122.617873 27.559441 
L 123.870242 26.926364 
L 125.122611 26.714659 
L 126.37498 26.926364 
L 127.627348 27.559441 
L 128.879717 28.607792 
L 130.132086 30.061321 
L 131.384455 31.906031 
L 132.636824 34.124155 
L 133.889193 36.694332 
L 135.141562 39.591809 
L 137.6463 46.254165 
L 140.151038 53.855192 
L 143.908144 66.370643 
L 148.91762 83.442465 
L 151.422358 91.405118 
L 153.927096 98.571317 
L 156.431833 104.665668 
L 157.684202 107.235845 
L 158.936571 109.453969 
L 160.18894 111.298679 
L 161.441309 112.752208 
L 162.693678 113.800559 
L 163.946047 114.433636 
L 165.198416 114.645341 
L 166.450785 114.433636 
L 167.703153 113.800559 
L 168.955522 112.752208 
L 170.207891 111.298679 
L 171.46026 109.453969 
L 172.712629 107.235845 
L 173.964998 104.665668 
L 175.217367 101.768191 
L 177.722105 95.105835 
L 180.226843 87.504808 
L 183.983949 74.989357 
L 185.236318 70.68 
L 188.993425 83.442465 
L 191.498163 91.405118 
L 194.002901 98.571317 
L 196.507638 104.665668 
L 197.760007 107.235845 
L 199.012376 109.453969 
L 200.264745 111.298679 
L 201.517114 112.752208 
L 202.769483 113.800559 
L 204.021852 114.433636 
L 205.274221 114.645341 
L 206.52659 114.433636 
L 207.778959 113.800559 
L 209.031327 112.752208 
L 210.283696 111.298679 
L 211.536065 109.453969 
L 212.788434 107.235845 
L 214.040803 104.665668 
L 215.293172 101.768191 
L 217.79791 95.105835 
L 220.302648 87.504808 
L 224.059754 74.989357 
L 225.312123 70.68 
L 229.06923 83.442465 
L 231.573968 91.405118 
L 234.078706 98.571317 
L 236.583443 104.665668 
L 237.835812 107.235845 
L 239.088181 109.453969 
L 240.34055 111.298679 
L 241.592919 112.752208 
L 242.845288 113.800559 
L 244.097657 114.433636 
L 245.350026 114.645341 
L 246.602395 114.433636 
L 247.854764 113.800559 
L 249.107133 112.752208 
L 250.359501 111.298679 
L 251.61187 109.453969 
L 252.864239 107.235845 
L 254.116608 104.665668 
L 255.368977 101.768191 
L 257.873715 95.105835 
L 260.378453 87.504808 
L 264.135559 74.989357 
L 269.145035 57.917535 
L 271.649773 49.954882 
L 274.154511 42.788683 
L 276.659249 36.694332 
L 277.911617 34.124155 
L 279.163986 31.906031 
L 280.416355 30.061321 
L 281.668724 28.607792 
L 282.921093 27.559441 
L 284.173462 26.926364 
L 285.425831 26.714659 
L 286.6782 26.926364 
L 287.930569 27.559441 
L 289.182938 28.607792 
L 290.435307 30.061321 
L 291.687675 31.906031 
L 292.940044 34.124155 
L 294.192413 36.694332 
L 295.444782 39.591809 
L 297.94952 46.254165 
L 300.454258 53.855192 
L 304.211365 66.370643 
L 309.22084 83.442465 
L 311.725578 91.405118 
L 314.230316 98.571317 
L 316.735054 104.665668 
L 317.987423 107.235845 
L 319.239791 109.453969 
L 320.49216 111.298679 
L 321.744529 112.752208 
L 322.996898 113.800559 
L 324.249267 114.433636 
L 325.501636 114.645341 
L 326.754005 114.433636 
L 328.006374 113.800559 
L 329.258743 112.752208 
L 330.511112 111.298679 
L 331.763481 109.453969 
L 333.015849 107.235845 
L 334.268218 104.665668 
L 335.520587 101.768191 
L 338.025325 95.105835 
L 340.530063 87.504808 
L 344.28717 74.989357 
L 349.296645 57.917535 
L 351.801383 49.954882 
L 354.306121 42.788683 
L 356.810859 36.694332 
L 358.063228 34.124155 
L 359.315597 31.906031 
L 360.567965 30.061321 
L 361.820334 28.607792 
L 363.072703 27.559441 
L 364.325072 26.926364 
L 365.577441 26.714659 
L 366.82981 26.926364 
L 368.082179 27.559441 
L 369.334548 28.607792 
L 370.586917 30.061321 
L 371.839286 31.906031 
L 373.091654 34.124155 
L 374.344023 36.694332 
L 375.596392 39.591809 
L 378.10113 46.254165 
L 380.605868 53.855192 
L 384.362975 66.370643 
L 385.615344 70.68 
L 389.37245 57.917535 
L 391.877188 49.954882 
L 394.381926 42.788683 
L 396.886664 36.694332 
L 398.139033 34.124155 
L 399.391402 31.906031 
L 400.64377 30.061321 
L 401.896139 28.607792 
L 403.148508 27.559441 
L 404.400877 26.926364 
L 405.653246 26.714659 
L 406.905615 26.926364 
L 408.157984 27.559441 
L 409.410353 28.607792 
L 410.662722 30.061321 
L 411.915091 31.906031 
L 413.16746 34.124155 
L 414.419828 36.694332 
L 415.672197 39.591809 
L 418.176935 46.254165 
L 420.681673 53.855192 
L 424.43878 66.370643 
L 429.448255 83.442465 
L 431.952993 91.405118 
L 434.457731 98.571317 
L 436.962469 104.665668 
L 438.214838 107.235845 
L 439.467207 109.453969 
L 440.719576 111.298679 
L 441.971944 112.752208 
L 443.224313 113.800559 
L 444.476682 114.433636 
L 445.729051 114.645341 
L 446.98142 114.433636 
L 448.233789 113.800559 
L 449.486158 112.752208 
L 450.738527 111.298679 
L 451.990896 109.453969 
L 453.243265 107.235845 
L 454.495634 104.665668 
L 455.748002 101.768191 
L 458.25274 95.105835 
L 460.757478 87.504808 
L 463.262216 79.257213 
L 463.262216 79.257213 
" clip-path="url(#pcbadf45c6e)" style="fill: none; stroke: #ff7f0e; stroke-opacity: 0.7; stroke-width: 1.5; stroke-linecap: square"/>
   </g>
   <g id="line2d_13">
    <path d="M 43.78125 26.714659 
L 483.2375 26.714659 
" clip-path="url(#pcbadf45c6e)" style="fill: none; stroke-dasharray: 3.7,1.6; stroke-dashoffset: 0; stroke: #808080"/>
   </g>
   <g id="line2d_14">
    <path d="M 43.78125 114.645341 
L 483.2375 114.645341 
" clip-path="url(#pcbadf45c6e)" style="fill: none; stroke-dasharray: 3.7,1.6; stroke-dashoffset: 0; stroke: #808080"/>
   </g>
   <g id="line2d_15">
    <path d="M 63.756534 119.041875 
L 63.756534 22.318125 
" clip-path="url(#pcbadf45c6e)" style="fill: none; stroke-dasharray: 3.7,1.6; stroke-dashoffset: 0; stroke: #808080"/>
   </g>
   <g id="line2d_16">
    <path d="M 103.832339 119.041875 
L 103.832339 22.318125 
" clip-path="url(#pcbadf45c6e)" style="fill: none; stroke-dasharray: 3.7,1.6; stroke-dashoffset: 0; stroke: #808080"/>
   </g>
   <g id="line2d_17">
    <path d="M 143.908144 119.041875 
L 143.908144 22.318125 
" clip-path="url(#pcbadf45c6e)" style="fill: none; stroke-dasharray: 3.7,1.6; stroke-dashoffset: 0; stroke: #808080"/>
   </g>
   <g id="line2d_18">
    <path d="M 183.983949 119.041875 
L 183.983949 22.318125 
" clip-path="url(#pcbadf45c6e)" style="fill: none; stroke-dasharray: 3.7,1.6; stroke-dashoffset: 0; stroke: #808080"/>
   </g>
   <g id="line2d_19">
    <path d="M 224.059754 119.041875 
L 224.059754 22.318125 
" clip-path="url(#pcbadf45c6e)" style="fill: none; stroke-dasharray: 3.7,1.6; stroke-dashoffset: 0; stroke: #808080"/>
   </g>
   <g id="line2d_20">
    <path d="M 264.135559 119.041875 
L 264.135559 22.318125 
" clip-path="url(#pcbadf45c6e)" style="fill: none; stroke-dasharray: 3.7,1.6; stroke-dashoffset: 0; stroke: #808080"/>
   </g>
   <g id="line2d_21">
    <path d="M 304.211365 119.041875 
L 304.211365 22.318125 
" clip-path="url(#pcbadf45c6e)" style="fill: none; stroke-dasharray: 3.7,1.6; stroke-dashoffset: 0; stroke: #808080"/>
   </g>
   <g id="line2d_22">
    <path d="M 344.28717 119.041875 
L 344.28717 22.318125 
" clip-path="url(#pcbadf45c6e)" style="fill: none; stroke-dasharray: 3.7,1.6; stroke-dashoffset: 0; stroke: #808080"/>
   </g>
   <g id="line2d_23">
    <path d="M 384.362975 119.041875 
L 384.362975 22.318125 
" clip-path="url(#pcbadf45c6e)" style="fill: none; stroke-dasharray: 3.7,1.6; stroke-dashoffset: 0; stroke: #808080"/>
   </g>
   <g id="line2d_24">
    <path d="M 424.43878 119.041875 
L 424.43878 22.318125 
" clip-path="url(#pcbadf45c6e)" style="fill: none; stroke-dasharray: 3.7,1.6; stroke-dashoffset: 0; stroke: #808080"/>
   </g>
   <g id="line2d_25">
    <path d="M 83.794437 119.041875 
L 83.794437 22.318125 
" clip-path="url(#pcbadf45c6e)" style="fill: none; stroke-dasharray: 3.7,1.6; stroke-dashoffset: 0; stroke: #0000ff; stroke-opacity: 0.5"/>
   </g>
   <g id="line2d_26">
    <path d="M 123.870242 119.041875 
L 123.870242 22.318125 
" clip-path="url(#pcbadf45c6e)" style="fill: none; stroke-dasharray: 3.7,1.6; stroke-dashoffset: 0; stroke: #0000ff; stroke-opacity: 0.5"/>
   </g>
   <g id="line2d_27">
    <path d="M 163.946047 119.041875 
L 163.946047 22.318125 
" clip-path="url(#pcbadf45c6e)" style="fill: none; stroke-dasharray: 3.7,1.6; stroke-dashoffset: 0; stroke: #0000ff; stroke-opacity: 0.5"/>
   </g>
   <g id="line2d_28">
    <path d="M 204.021852 119.041875 
L 204.021852 22.318125 
" clip-path="url(#pcbadf45c6e)" style="fill: none; stroke-dasharray: 3.7,1.6; stroke-dashoffset: 0; stroke: #0000ff; stroke-opacity: 0.5"/>
   </g>
   <g id="line2d_29">
    <path d="M 244.097657 119.041875 
L 244.097657 22.318125 
" clip-path="url(#pcbadf45c6e)" style="fill: none; stroke-dasharray: 3.7,1.6; stroke-dashoffset: 0; stroke: #0000ff; stroke-opacity: 0.5"/>
   </g>
   <g id="line2d_30">
    <path d="M 284.173462 119.041875 
L 284.173462 22.318125 
" clip-path="url(#pcbadf45c6e)" style="fill: none; stroke-dasharray: 3.7,1.6; stroke-dashoffset: 0; stroke: #0000ff; stroke-opacity: 0.5"/>
   </g>
   <g id="line2d_31">
    <path d="M 324.249267 119.041875 
L 324.249267 22.318125 
" clip-path="url(#pcbadf45c6e)" style="fill: none; stroke-dasharray: 3.7,1.6; stroke-dashoffset: 0; stroke: #0000ff; stroke-opacity: 0.5"/>
   </g>
   <g id="line2d_32">
    <path d="M 364.325072 119.041875 
L 364.325072 22.318125 
" clip-path="url(#pcbadf45c6e)" style="fill: none; stroke-dasharray: 3.7,1.6; stroke-dashoffset: 0; stroke: #0000ff; stroke-opacity: 0.5"/>
   </g>
   <g id="line2d_33">
    <path d="M 404.400877 119.041875 
L 404.400877 22.318125 
" clip-path="url(#pcbadf45c6e)" style="fill: none; stroke-dasharray: 3.7,1.6; stroke-dashoffset: 0; stroke: #0000ff; stroke-opacity: 0.5"/>
   </g>
   <g id="line2d_34">
    <path d="M 444.476682 119.041875 
L 444.476682 22.318125 
" clip-path="url(#pcbadf45c6e)" style="fill: none; stroke-dasharray: 3.7,1.6; stroke-dashoffset: 0; stroke: #0000ff; stroke-opacity: 0.5"/>
   </g>
   <g id="patch_3">
    <path d="M 43.78125 119.041875 
L 43.78125 22.318125 
" style="fill: none; stroke: #000000; stroke-width: 0.8; stroke-linejoin: miter; stroke-linecap: square"/>
   </g>
   <g id="patch_4">
    <path d="M 483.2375 119.041875 
L 483.2375 22.318125 
" style="fill: none; stroke: #000000; stroke-width: 0.8; stroke-linejoin: miter; stroke-linecap: square"/>
   </g>
   <g id="patch_5">
    <path d="M 43.78125 119.041875 
L 483.2375 119.041875 
" style="fill: none; stroke: #000000; stroke-width: 0.8; stroke-linejoin: miter; stroke-linecap: square"/>
   </g>
   <g id="patch_6">
    <path d="M 43.78125 22.318125 
L 483.2375 22.318125 
" style="fill: none; stroke: #000000; stroke-width: 0.8; stroke-linejoin: miter; stroke-linecap: square"/>
   </g>
   <g id="text_11">
    <!-- MSK -->
    <g transform="translate(250.58875 16.318125) scale(0.12 -0.12)">
     <defs>
      <path id="DejaVuSans-4d" d="M 628 4666 
L 1569 4666 
L 2759 1491 
L 3956 4666 
L 4897 4666 
L 4897 0 
L 4281 0 
L 4281 4097 
L 3078 897 
L 2444 897 
L 1241 4097 
L 1241 0 
L 628 0 
L 628 4666 
z
" transform="scale(0.015625)"/>
      <path id="DejaVuSans-53" d="M 3425 4513 
L 3425 3897 
Q 3066 4069 2747 4153 
Q 2428 4238 2131 4238 
Q 1616 4238 1336 4038 
Q 1056 3838 1056 3469 
Q 1056 3159 1242 3001 
Q 1428 2844 1947 2747 
L 2328 2669 
Q 3034 2534 3370 2195 
Q 3706 1856 3706 1288 
Q 3706 609 3251 259 
Q 2797 -91 1919 -91 
Q 1588 -91 1214 -16 
Q 841 59 441 206 
L 441 856 
Q 825 641 1194 531 
Q 1563 422 1919 422 
Q 2459 422 2753 634 
Q 3047 847 3047 1241 
Q 3047 1584 2836 1778 
Q 2625 1972 2144 2069 
L 1759 2144 
Q 1053 2284 737 2584 
Q 422 2884 422 3419 
Q 422 4038 858 4394 
Q 1294 4750 2059 4750 
Q 2388 4750 2728 4690 
Q 3069 4631 3425 4513 
z
" transform="scale(0.015625)"/>
      <path id="DejaVuSans-4b" d="M 628 4666 
L 1259 4666 
L 1259 2694 
L 3353 4666 
L 4166 4666 
L 1850 2491 
L 4331 0 
L 3500 0 
L 1259 2247 
L 1259 0 
L 628 0 
L 628 4666 
z
" transform="scale(0.015625)"/>
     </defs>
     <use xlink:href="#DejaVuSans-4d"/>
     <use xlink:href="#DejaVuSans-53" transform="translate(86.279297 0)"/>
     <use xlink:href="#DejaVuSans-4b" transform="translate(149.755859 0)"/>
    </g>
   </g>
   <g id="legend_1">
    <g id="patch_7">
     <path d="M 50.78125 114.041875 
L 90.653125 114.041875 
Q 92.653125 114.041875 92.653125 112.041875 
L 92.653125 83.685625 
Q 92.653125 81.685625 90.653125 81.685625 
L 50.78125 81.685625 
Q 48.78125 81.685625 48.78125 83.685625 
L 48.78125 112.041875 
Q 48.78125 114.041875 50.78125 114.041875 
z
" style="fill: #ffffff; opacity: 0.8; stroke: #cccccc; stroke-linejoin: miter"/>
    </g>
    <g id="line2d_35">
     <path d="M 52.78125 89.784063 
L 62.78125 89.784063 
L 72.78125 89.784063 
" style="fill: none; stroke: #1f77b4; stroke-width: 1.5; stroke-linecap: square"/>
    </g>
    <g id="text_12">
     <!-- I -->
     <g transform="translate(80.78125 93.284063) scale(0.1 -0.1)">
      <defs>
       <path id="DejaVuSans-49" d="M 628 4666 
L 1259 4666 
L 1259 0 
L 628 0 
L 628 4666 
z
" transform="scale(0.015625)"/>
      </defs>
      <use xlink:href="#DejaVuSans-49"/>
     </g>
    </g>
    <g id="line2d_36">
     <path d="M 52.78125 104.462187 
L 62.78125 104.462187 
L 72.78125 104.462187 
" style="fill: none; stroke: #ff7f0e; stroke-opacity: 0.7; stroke-width: 1.5; stroke-linecap: square"/>
    </g>
    <g id="text_13">
     <!-- Q -->
     <g transform="translate(80.78125 107.962187) scale(0.1 -0.1)">
      <defs>
       <path id="DejaVuSans-51" d="M 2522 4238 
Q 1834 4238 1429 3725 
Q 1025 3213 1025 2328 
Q 1025 1447 1429 934 
Q 1834 422 2522 422 
Q 3209 422 3611 934 
Q 4013 1447 4013 2328 
Q 4013 3213 3611 3725 
Q 3209 4238 2522 4238 
z
M 3406 84 
L 4238 -825 
L 3475 -825 
L 2784 -78 
Q 2681 -84 2626 -87 
Q 2572 -91 2522 -91 
Q 1538 -91 948 567 
Q 359 1225 359 2328 
Q 359 3434 948 4092 
Q 1538 4750 2522 4750 
Q 3503 4750 4090 4092 
Q 4678 3434 4678 2328 
Q 4678 1516 4351 937 
Q 4025 359 3406 84 
z
" transform="scale(0.015625)"/>
      </defs>
      <use xlink:href="#DejaVuSans-51"/>
     </g>
    </g>
   </g>
  </g>
  <g id="axes_2">
   <g id="patch_8">
    <path d="M 43.78125 243.24375 
L 483.2375 243.24375 
L 483.2375 146.52 
L 43.78125 146.52 
z
" style="fill: #ffffff"/>
   </g>
   <g id="matplotlib.axis_3">
    <g id="xtick_8">
     <g id="line2d_37">
      <path d="M 63.756534 243.24375 
L 63.756534 146.52 
" clip-path="url(#p12fb5c6162)" style="fill: none; stroke: #b0b0b0; stroke-width: 0.8; stroke-linecap: square"/>
     </g>
     <g id="line2d_38">
      <g>
       <use xlink:href="#mcd2cf5da06" x="63.756534" y="243.24375" style="stroke: #000000; stroke-width: 0.8"/>
      </g>
     </g>
     <g id="text_14">
      <!-- 0 -->
      <g transform="translate(60.575284 257.842188) scale(0.1 -0.1)">
       <use xlink:href="#DejaVuSans-30"/>
      </g>
     </g>
    </g>
    <g id="xtick_9">
     <g id="line2d_39">
      <path d="M 126.37498 243.24375 
L 126.37498 146.52 
" clip-path="url(#p12fb5c6162)" style="fill: none; stroke: #b0b0b0; stroke-width: 0.8; stroke-linecap: square"/>
     </g>
     <g id="line2d_40">
      <g>
       <use xlink:href="#mcd2cf5da06" x="126.37498" y="243.24375" style="stroke: #000000; stroke-width: 0.8"/>
      </g>
     </g>
     <g id="text_15">
      <!-- 50 -->
      <g transform="translate(120.01248 257.842188) scale(0.1 -0.1)">
       <use xlink:href="#DejaVuSans-35"/>
       <use xlink:href="#DejaVuSans-30" transform="translate(63.623047 0)"/>
      </g>
     </g>
    </g>
    <g id="xtick_10">
     <g id="line2d_41">
      <path d="M 188.993425 243.24375 
L 188.993425 146.52 
" clip-path="url(#p12fb5c6162)" style="fill: none; stroke: #b0b0b0; stroke-width: 0.8; stroke-linecap: square"/>
     </g>
     <g id="line2d_42">
      <g>
       <use xlink:href="#mcd2cf5da06" x="188.993425" y="243.24375" style="stroke: #000000; stroke-width: 0.8"/>
      </g>
     </g>
     <g id="text_16">
      <!-- 100 -->
      <g transform="translate(179.449675 257.842188) scale(0.1 -0.1)">
       <use xlink:href="#DejaVuSans-31"/>
       <use xlink:href="#DejaVuSans-30" transform="translate(63.623047 0)"/>
       <use xlink:href="#DejaVuSans-30" transform="translate(127.246094 0)"/>
      </g>
     </g>
    </g>
    <g id="xtick_11">
     <g id="line2d_43">
      <path d="M 251.61187 243.24375 
L 251.61187 146.52 
" clip-path="url(#p12fb5c6162)" style="fill: none; stroke: #b0b0b0; stroke-width: 0.8; stroke-linecap: square"/>
     </g>
     <g id="line2d_44">
      <g>
       <use xlink:href="#mcd2cf5da06" x="251.61187" y="243.24375" style="stroke: #000000; stroke-width: 0.8"/>
      </g>
     </g>
     <g id="text_17">
      <!-- 150 -->
      <g transform="translate(242.06812 257.842188) scale(0.1 -0.1)">
       <use xlink:href="#DejaVuSans-31"/>
       <use xlink:href="#DejaVuSans-35" transform="translate(63.623047 0)"/>
       <use xlink:href="#DejaVuSans-30" transform="translate(127.246094 0)"/>
      </g>
     </g>
    </g>
    <g id="xtick_12">
     <g id="line2d_45">
      <path d="M 314.230316 243.24375 
L 314.230316 146.52 
" clip-path="url(#p12fb5c6162)" style="fill: none; stroke: #b0b0b0; stroke-width: 0.8; stroke-linecap: square"/>
     </g>
     <g id="line2d_46">
      <g>
       <use xlink:href="#mcd2cf5da06" x="314.230316" y="243.24375" style="stroke: #000000; stroke-width: 0.8"/>
      </g>
     </g>
     <g id="text_18">
      <!-- 200 -->
      <g transform="translate(304.686566 257.842188) scale(0.1 -0.1)">
       <use xlink:href="#DejaVuSans-32"/>
       <use xlink:href="#DejaVuSans-30" transform="translate(63.623047 0)"/>
       <use xlink:href="#DejaVuSans-30" transform="translate(127.246094 0)"/>
      </g>
     </g>
    </g>
    <g id="xtick_13">
     <g id="line2d_47">
      <path d="M 376.848761 243.24375 
L 376.848761 146.52 
" clip-path="url(#p12fb5c6162)" style="fill: none; stroke: #b0b0b0; stroke-width: 0.8; stroke-linecap: square"/>
     </g>
     <g id="line2d_48">
      <g>
       <use xlink:href="#mcd2cf5da06" x="376.848761" y="243.24375" style="stroke: #000000; stroke-width: 0.8"/>
      </g>
     </g>
     <g id="text_19">
      <!-- 250 -->
      <g transform="translate(367.305011 257.842188) scale(0.1 -0.1)">
       <use xlink:href="#DejaVuSans-32"/>
       <use xlink:href="#DejaVuSans-35" transform="translate(63.623047 0)"/>
       <use xlink:href="#DejaVuSans-30" transform="translate(127.246094 0)"/>
      </g>
     </g>
    </g>
    <g id="xtick_14">
     <g id="line2d_49">
      <path d="M 439.467207 243.24375 
L 439.467207 146.52 
" clip-path="url(#p12fb5c6162)" style="fill: none; stroke: #b0b0b0; stroke-width: 0.8; stroke-linecap: square"/>
     </g>
     <g id="line2d_50">
      <g>
       <use xlink:href="#mcd2cf5da06" x="439.467207" y="243.24375" style="stroke: #000000; stroke-width: 0.8"/>
      </g>
     </g>
     <g id="text_20">
      <!-- 300 -->
      <g transform="translate(429.923457 257.842188) scale(0.1 -0.1)">
       <use xlink:href="#DejaVuSans-33"/>
       <use xlink:href="#DejaVuSans-30" transform="translate(63.623047 0)"/>
       <use xlink:href="#DejaVuSans-30" transform="translate(127.246094 0)"/>
      </g>
     </g>
    </g>
    <g id="text_21">
     <!-- Sample Index (Time) -->
     <g transform="translate(211.68125 271.520312) scale(0.1 -0.1)">
      <defs>
       <path id="DejaVuSans-61" d="M 2194 1759 
Q 1497 1759 1228 1600 
Q 959 1441 959 1056 
Q 959 750 1161 570 
Q 1363 391 1709 391 
Q 2188 391 2477 730 
Q 2766 1069 2766 1631 
L 2766 1759 
L 2194 1759 
z
M 3341 1997 
L 3341 0 
L 2766 0 
L 2766 531 
Q 2569 213 2275 61 
Q 1981 -91 1556 -91 
Q 1019 -91 701 211 
Q 384 513 384 1019 
Q 384 1609 779 1909 
Q 1175 2209 1959 2209 
L 2766 2209 
L 2766 2266 
Q 2766 2663 2505 2880 
Q 2244 3097 1772 3097 
Q 1472 3097 1187 3025 
Q 903 2953 641 2809 
L 641 3341 
Q 956 3463 1253 3523 
Q 1550 3584 1831 3584 
Q 2591 3584 2966 3190 
Q 3341 2797 3341 1997 
z
" transform="scale(0.015625)"/>
       <path id="DejaVuSans-6d" d="M 3328 2828 
Q 3544 3216 3844 3400 
Q 4144 3584 4550 3584 
Q 5097 3584 5394 3201 
Q 5691 2819 5691 2113 
L 5691 0 
L 5113 0 
L 5113 2094 
Q 5113 2597 4934 2840 
Q 4756 3084 4391 3084 
Q 3944 3084 3684 2787 
Q 3425 2491 3425 1978 
L 3425 0 
L 2847 0 
L 2847 2094 
Q 2847 2600 2669 2842 
Q 2491 3084 2119 3084 
Q 1678 3084 1418 2786 
Q 1159 2488 1159 1978 
L 1159 0 
L 581 0 
L 581 3500 
L 1159 3500 
L 1159 2956 
Q 1356 3278 1631 3431 
Q 1906 3584 2284 3584 
Q 2666 3584 2933 3390 
Q 3200 3197 3328 2828 
z
" transform="scale(0.015625)"/>
       <path id="DejaVuSans-70" d="M 1159 525 
L 1159 -1331 
L 581 -1331 
L 581 3500 
L 1159 3500 
L 1159 2969 
Q 1341 3281 1617 3432 
Q 1894 3584 2278 3584 
Q 2916 3584 3314 3078 
Q 3713 2572 3713 1747 
Q 3713 922 3314 415 
Q 2916 -91 2278 -91 
Q 1894 -91 1617 61 
Q 1341 213 1159 525 
z
M 3116 1747 
Q 3116 2381 2855 2742 
Q 2594 3103 2138 3103 
Q 1681 3103 1420 2742 
Q 1159 2381 1159 1747 
Q 1159 1113 1420 752 
Q 1681 391 2138 391 
Q 2594 391 2855 752 
Q 3116 1113 3116 1747 
z
" transform="scale(0.015625)"/>
       <path id="DejaVuSans-6c" d="M 603 4863 
L 1178 4863 
L 1178 0 
L 603 0 
L 603 4863 
z
" transform="scale(0.015625)"/>
       <path id="DejaVuSans-65" d="M 3597 1894 
L 3597 1613 
L 953 1613 
Q 991 1019 1311 708 
Q 1631 397 2203 397 
Q 2534 397 2845 478 
Q 3156 559 3463 722 
L 3463 178 
Q 3153 47 2828 -22 
Q 2503 -91 2169 -91 
Q 1331 -91 842 396 
Q 353 884 353 1716 
Q 353 2575 817 3079 
Q 1281 3584 2069 3584 
Q 2775 3584 3186 3129 
Q 3597 2675 3597 1894 
z
M 3022 2063 
Q 3016 2534 2758 2815 
Q 2500 3097 2075 3097 
Q 1594 3097 1305 2825 
Q 1016 2553 972 2059 
L 3022 2063 
z
" transform="scale(0.015625)"/>
       <path id="DejaVuSans-20" transform="scale(0.015625)"/>
       <path id="DejaVuSans-6e" d="M 3513 2113 
L 3513 0 
L 2938 0 
L 2938 2094 
Q 2938 2591 2744 2837 
Q 2550 3084 2163 3084 
Q 1697 3084 1428 2787 
Q 1159 2491 1159 1978 
L 1159 0 
L 581 0 
L 581 3500 
L 1159 3500 
L 1159 2956 
Q 1366 3272 1645 3428 
Q 1925 3584 2291 3584 
Q 2894 3584 3203 3211 
Q 3513 2838 3513 2113 
z
" transform="scale(0.015625)"/>
       <path id="DejaVuSans-64" d="M 2906 2969 
L 2906 4863 
L 3481 4863 
L 3481 0 
L 2906 0 
L 2906 525 
Q 2725 213 2448 61 
Q 2172 -91 1784 -91 
Q 1150 -91 751 415 
Q 353 922 353 1747 
Q 353 2572 751 3078 
Q 1150 3584 1784 3584 
Q 2172 3584 2448 3432 
Q 2725 3281 2906 2969 
z
M 947 1747 
Q 947 1113 1208 752 
Q 1469 391 1925 391 
Q 2381 391 2643 752 
Q 2906 1113 2906 1747 
Q 2906 2381 2643 2742 
Q 2381 3103 1925 3103 
Q 1469 3103 1208 2742 
Q 947 2381 947 1747 
z
" transform="scale(0.015625)"/>
       <path id="DejaVuSans-78" d="M 3513 3500 
L 2247 1797 
L 3578 0 
L 2900 0 
L 1881 1375 
L 863 0 
L 184 0 
L 1544 1831 
L 300 3500 
L 978 3500 
L 1906 2253 
L 2834 3500 
L 3513 3500 
z
" transform="scale(0.015625)"/>
       <path id="DejaVuSans-28" d="M 1984 4856 
Q 1566 4138 1362 3434 
Q 1159 2731 1159 2009 
Q 1159 1288 1364 580 
Q 1569 -128 1984 -844 
L 1484 -844 
Q 1016 -109 783 600 
Q 550 1309 550 2009 
Q 550 2706 781 3412 
Q 1013 4119 1484 4856 
L 1984 4856 
z
" transform="scale(0.015625)"/>
       <path id="DejaVuSans-54" d="M -19 4666 
L 3928 4666 
L 3928 4134 
L 2272 4134 
L 2272 0 
L 1638 0 
L 1638 4134 
L -19 4134 
L -19 4666 
z
" transform="scale(0.015625)"/>
       <path id="DejaVuSans-69" d="M 603 3500 
L 1178 3500 
L 1178 0 
L 603 0 
L 603 3500 
z
M 603 4863 
L 1178 4863 
L 1178 4134 
L 603 4134 
L 603 4863 
z
" transform="scale(0.015625)"/>
       <path id="DejaVuSans-29" d="M 513 4856 
L 1013 4856 
Q 1481 4119 1714 3412 
Q 1947 2706 1947 2009 
Q 1947 1309 1714 600 
Q 1481 -109 1013 -844 
L 513 -844 
Q 928 -128 1133 580 
Q 1338 1288 1338 2009 
Q 1338 2731 1133 3434 
Q 928 4138 513 4856 
z
" transform="scale(0.015625)"/>
      </defs>
      <use xlink:href="#DejaVuSans-53"/>
      <use xlink:href="#DejaVuSans-61" transform="translate(63.476562 0)"/>
      <use xlink:href="#DejaVuSans-6d" transform="translate(124.755859 0)"/>
      <use xlink:href="#DejaVuSans-70" transform="translate(222.167969 0)"/>
      <use xlink:href="#DejaVuSans-6c" transform="translate(285.644531 0)"/>
      <use xlink:href="#DejaVuSans-65" transform="translate(313.427734 0)"/>
      <use xlink:href="#DejaVuSans-20" transform="translate(374.951172 0)"/>
      <use xlink:href="#DejaVuSans-49" transform="translate(406.738281 0)"/>
      <use xlink:href="#DejaVuSans-6e" transform="translate(436.230469 0)"/>
      <use xlink:href="#DejaVuSans-64" transform="translate(499.609375 0)"/>
      <use xlink:href="#DejaVuSans-65" transform="translate(563.085938 0)"/>
      <use xlink:href="#DejaVuSans-78" transform="translate(622.859375 0)"/>
      <use xlink:href="#DejaVuSans-20" transform="translate(682.039062 0)"/>
      <use xlink:href="#DejaVuSans-28" transform="translate(713.826172 0)"/>
      <use xlink:href="#DejaVuSans-54" transform="translate(752.839844 0)"/>
      <use xlink:href="#DejaVuSans-69" transform="translate(810.798828 0)"/>
      <use xlink:href="#DejaVuSans-6d" transform="translate(838.582031 0)"/>
      <use xlink:href="#DejaVuSans-65" transform="translate(935.994141 0)"/>
      <use xlink:href="#DejaVuSans-29" transform="translate(997.517578 0)"/>
     </g>
    </g>
   </g>
   <g id="matplotlib.axis_4">
    <g id="ytick_4">
     <g id="line2d_51">
      <path d="M 43.78125 243.24375 
L 483.2375 243.24375 
" clip-path="url(#p12fb5c6162)" style="fill: none; stroke: #b0b0b0; stroke-width: 0.8; stroke-linecap: square"/>
     </g>
     <g id="line2d_52">
      <g>
       <use xlink:href="#me5ec6cc415" x="43.78125" y="243.24375" style="stroke: #000000; stroke-width: 0.8"/>
      </g>
     </g>
     <g id="text_22">
      <!-- 0.0 -->
      <g transform="translate(20.878125 247.042969) scale(0.1 -0.1)">
       <defs>
        <path id="DejaVuSans-2e" d="M 684 794 
L 1344 794 
L 1344 0 
L 684 0 
L 684 794 
z
" transform="scale(0.015625)"/>
       </defs>
       <use xlink:href="#DejaVuSans-30"/>
       <use xlink:href="#DejaVuSans-2e" transform="translate(63.623047 0)"/>
       <use xlink:href="#DejaVuSans-30" transform="translate(95.410156 0)"/>
      </g>
     </g>
    </g>
    <g id="ytick_5">
     <g id="line2d_53">
      <path d="M 43.78125 202.942188 
L 483.2375 202.942188 
" clip-path="url(#p12fb5c6162)" style="fill: none; stroke: #b0b0b0; stroke-width: 0.8; stroke-linecap: square"/>
     </g>
     <g id="line2d_54">
      <g>
       <use xlink:href="#me5ec6cc415" x="43.78125" y="202.942188" style="stroke: #000000; stroke-width: 0.8"/>
      </g>
     </g>
     <g id="text_23">
      <!-- 0.5 -->
      <g transform="translate(20.878125 206.741406) scale(0.1 -0.1)">
       <use xlink:href="#DejaVuSans-30"/>
       <use xlink:href="#DejaVuSans-2e" transform="translate(63.623047 0)"/>
       <use xlink:href="#DejaVuSans-35" transform="translate(95.410156 0)"/>
      </g>
     </g>
    </g>
    <g id="ytick_6">
     <g id="line2d_55">
      <path d="M 43.78125 162.640625 
L 483.2375 162.640625 
" clip-path="url(#p12fb5c6162)" style="fill: none; stroke: #b0b0b0; stroke-width: 0.8; stroke-linecap: square"/>
     </g>
     <g id="line2d_56">
      <g>
       <use xlink:href="#me5ec6cc415" x="43.78125" y="162.640625" style="stroke: #000000; stroke-width: 0.8"/>
      </g>
     </g>
     <g id="text_24">
      <!-- 1.0 -->
      <g transform="translate(20.878125 166.439844) scale(0.1 -0.1)">
       <use xlink:href="#DejaVuSans-31"/>
       <use xlink:href="#DejaVuSans-2e" transform="translate(63.623047 0)"/>
       <use xlink:href="#DejaVuSans-30" transform="translate(95.410156 0)"/>
      </g>
     </g>
    </g>
    <g id="text_25">
     <!-- Magnitude -->
     <g transform="translate(14.798438 221.371719) rotate(-90) scale(0.1 -0.1)">
      <defs>
       <path id="DejaVuSans-67" d="M 2906 1791 
Q 2906 2416 2648 2759 
Q 2391 3103 1925 3103 
Q 1463 3103 1205 2759 
Q 947 2416 947 1791 
Q 947 1169 1205 825 
Q 1463 481 1925 481 
Q 2391 481 2648 825 
Q 2906 1169 2906 1791 
z
M 3481 434 
Q 3481 -459 3084 -895 
Q 2688 -1331 1869 -1331 
Q 1566 -1331 1297 -1286 
Q 1028 -1241 775 -1147 
L 775 -588 
Q 1028 -725 1275 -790 
Q 1522 -856 1778 -856 
Q 2344 -856 2625 -561 
Q 2906 -266 2906 331 
L 2906 616 
Q 2728 306 2450 153 
Q 2172 0 1784 0 
Q 1141 0 747 490 
Q 353 981 353 1791 
Q 353 2603 747 3093 
Q 1141 3584 1784 3584 
Q 2172 3584 2450 3431 
Q 2728 3278 2906 2969 
L 2906 3500 
L 3481 3500 
L 3481 434 
z
" transform="scale(0.015625)"/>
       <path id="DejaVuSans-74" d="M 1172 4494 
L 1172 3500 
L 2356 3500 
L 2356 3053 
L 1172 3053 
L 1172 1153 
Q 1172 725 1289 603 
Q 1406 481 1766 481 
L 2356 481 
L 2356 0 
L 1766 0 
Q 1100 0 847 248 
Q 594 497 594 1153 
L 594 3053 
L 172 3053 
L 172 3500 
L 594 3500 
L 594 4494 
L 1172 4494 
z
" transform="scale(0.015625)"/>
       <path id="DejaVuSans-75" d="M 544 1381 
L 544 3500 
L 1119 3500 
L 1119 1403 
Q 1119 906 1312 657 
Q 1506 409 1894 409 
Q 2359 409 2629 706 
Q 2900 1003 2900 1516 
L 2900 3500 
L 3475 3500 
L 3475 0 
L 2900 0 
L 2900 538 
Q 2691 219 2414 64 
Q 2138 -91 1772 -91 
Q 1169 -91 856 284 
Q 544 659 544 1381 
z
M 1991 3584 
L 1991 3584 
z
" transform="scale(0.015625)"/>
      </defs>
      <use xlink:href="#DejaVuSans-4d"/>
      <use xlink:href="#DejaVuSans-61" transform="translate(86.279297 0)"/>
      <use xlink:href="#DejaVuSans-67" transform="translate(147.558594 0)"/>
      <use xlink:href="#DejaVuSans-6e" transform="translate(211.035156 0)"/>
      <use xlink:href="#DejaVuSans-69" transform="translate(274.414062 0)"/>
      <use xlink:href="#DejaVuSans-74" transform="translate(302.197266 0)"/>
      <use xlink:href="#DejaVuSans-75" transform="translate(341.40625 0)"/>
      <use xlink:href="#DejaVuSans-64" transform="translate(404.785156 0)"/>
      <use xlink:href="#DejaVuSans-65" transform="translate(468.261719 0)"/>
     </g>
    </g>
   </g>
   <g id="line2d_57">
    <path d="M 63.756534 163.028751 
L 65.008903 162.640625 
L 463.262216 162.640625 
L 463.262216 162.640625 
" clip-path="url(#p12fb5c6162)" style="fill: none; stroke: #1f77b4; stroke-width: 1.5; stroke-linecap: square"/>
   </g>
   <g id="patch_9">
    <path d="M 43.78125 243.24375 
L 43.78125 146.52 
" style="fill: none; stroke: #000000; stroke-width: 0.8; stroke-linejoin: miter; stroke-linecap: square"/>
   </g>
   <g id="patch_10">
    <path d="M 483.2375 243.24375 
L 483.2375 146.52 
" style="fill: none; stroke: #000000; stroke-width: 0.8; stroke-linejoin: miter; stroke-linecap: square"/>
   </g>
   <g id="patch_11">
    <path d="M 43.78125 243.24375 
L 483.2375 243.24375 
" style="fill: none; stroke: #000000; stroke-width: 0.8; stroke-linejoin: miter; stroke-linecap: square"/>
   </g>
   <g id="patch_12">
    <path d="M 43.78125 146.52 
L 483.2375 146.52 
" style="fill: none; stroke: #000000; stroke-width: 0.8; stroke-linejoin: miter; stroke-linecap: square"/>
   </g>
  </g>
 </g>
 <defs>
  <clipPath id="pcbadf45c6e">
   <rect x="43.78125" y="22.318125" width="439.45625" height="96.72375"/>
  </clipPath>
  <clipPath id="p12fb5c6162">
   <rect x="43.78125" y="146.52" width="439.45625" height="96.72375"/>
  </clipPath>
 </defs>
</svg>
