<?xml version="1.0" encoding="utf-8" standalone="no"?>
<!DOCTYPE svg PUBLIC "-//W3C//DTD SVG 1.1//EN"
  "http://www.w3.org/Graphics/SVG/1.1/DTD/svg11.dtd">
<svg xmlns:xlink="http://www.w3.org/1999/xlink" width="720pt" height="432pt" viewBox="0 0 720 432" xmlns="http://www.w3.org/2000/svg" version="1.1">
 <metadata>
  <rdf:RDF xmlns:dc="http://purl.org/dc/elements/1.1/" xmlns:cc="http://creativecommons.org/ns#" xmlns:rdf="http://www.w3.org/1999/02/22-rdf-syntax-ns#">
   <cc:Work>
    <dc:type rdf:resource="http://purl.org/dc/dcmitype/StillImage"/>
    <dc:date>2026-06-07T00:05:35.435816</dc:date>
    <dc:format>image/svg+xml</dc:format>
    <dc:creator>
     <cc:Agent>
      <dc:title>Matplotlib v3.6.3, https://matplotlib.org/</dc:title>
     </cc:Agent>
    </dc:creator>
   </cc:Work>
  </rdf:RDF>
 </metadata>
 <defs>
  <style type="text/css">*{stroke-linejoin: round; stroke-linecap: butt}</style>
 </defs>
 <g id="figure_1">
  <g id="patch_1">
   <path d="M 0 432 
L 720 432 
L 720 0 
L 0 0 
z
" style="fill: #ffffff"/>
  </g>
  <g id="axes_1">
   <g id="patch_2">
    <path d="M 55.91 387.16 
L 706.005 387.16 
L 706.005 27.6 
L 55.91 27.6 
z
" style="fill: #ffffff"/>
   </g>
   <g id="matplotlib.axis_1">
    <g id="xtick_1">
     <g id="line2d_1">
      <path d="M 55.91 387.16 
L 55.91 27.6 
" clip-path="url(#p5a207688ab)" style="fill: none; stroke: #b0b0b0; stroke-opacity: 0.3; stroke-width: 0.6; stroke-linecap: square"/>
     </g>
     <g id="line2d_2">
      <defs>
       <path id="m1374a3da60" d="M 0 0 
L 0 3.5 
" style="stroke: #000000; stroke-width: 0.8"/>
      </defs>
      <g>
       <use xlink:href="#m1374a3da60" x="55.91" y="387.16" style="stroke: #000000; stroke-width: 0.8"/>
      </g>
     </g>
     <g id="text_1">
      <!-- −3 -->
      <g transform="translate(48.538906 401.758438) scale(0.1 -0.1)">
       <defs>
        <path id="DejaVuSans-2212" d="M 678 2272 
L 4684 2272 
L 4684 1741 
L 678 1741 
L 678 2272 
z
" transform="scale(0.015625)"/>
        <path id="DejaVuSans-33" d="M 2597 2516 
Q 3050 2419 3304 2112 
Q 3559 1806 3559 1356 
Q 3559 666 3084 287 
Q 2609 -91 1734 -91 
Q 1441 -91 1130 -33 
Q 819 25 488 141 
L 488 750 
Q 750 597 1062 519 
Q 1375 441 1716 441 
Q 2309 441 2620 675 
Q 2931 909 2931 1356 
Q 2931 1769 2642 2001 
Q 2353 2234 1838 2234 
L 1294 2234 
L 1294 2753 
L 1863 2753 
Q 2328 2753 2575 2939 
Q 2822 3125 2822 3475 
Q 2822 3834 2567 4026 
Q 2313 4219 1838 4219 
Q 1578 4219 1281 4162 
Q 984 4106 628 3988 
L 628 4550 
Q 988 4650 1302 4700 
Q 1616 4750 1894 4750 
Q 2613 4750 3031 4423 
Q 3450 4097 3450 3541 
Q 3450 3153 3228 2886 
Q 3006 2619 2597 2516 
z
" transform="scale(0.015625)"/>
       </defs>
       <use xlink:href="#DejaVuSans-2212"/>
       <use xlink:href="#DejaVuSans-33" x="83.789062"/>
      </g>
     </g>
    </g>
    <g id="xtick_2">
     <g id="line2d_3">
      <path d="M 164.259167 387.16 
L 164.259167 27.6 
" clip-path="url(#p5a207688ab)" style="fill: none; stroke: #b0b0b0; stroke-opacity: 0.3; stroke-width: 0.6; stroke-linecap: square"/>
     </g>
     <g id="line2d_4">
      <g>
       <use xlink:href="#m1374a3da60" x="164.259167" y="387.16" style="stroke: #000000; stroke-width: 0.8"/>
      </g>
     </g>
     <g id="text_2">
      <!-- −2 -->
      <g transform="translate(156.888073 401.758438) scale(0.1 -0.1)">
       <defs>
        <path id="DejaVuSans-32" d="M 1228 531 
L 3431 531 
L 3431 0 
L 469 0 
L 469 531 
Q 828 903 1448 1529 
Q 2069 2156 2228 2338 
Q 2531 2678 2651 2914 
Q 2772 3150 2772 3378 
Q 2772 3750 2511 3984 
Q 2250 4219 1831 4219 
Q 1534 4219 1204 4116 
Q 875 4013 500 3803 
L 500 4441 
Q 881 4594 1212 4672 
Q 1544 4750 1819 4750 
Q 2544 4750 2975 4387 
Q 3406 4025 3406 3419 
Q 3406 3131 3298 2873 
Q 3191 2616 2906 2266 
Q 2828 2175 2409 1742 
Q 1991 1309 1228 531 
z
" transform="scale(0.015625)"/>
       </defs>
       <use xlink:href="#DejaVuSans-2212"/>
       <use xlink:href="#DejaVuSans-32" x="83.789062"/>
      </g>
     </g>
    </g>
    <g id="xtick_3">
     <g id="line2d_5">
      <path d="M 272.608333 387.16 
L 272.608333 27.6 
" clip-path="url(#p5a207688ab)" style="fill: none; stroke: #b0b0b0; stroke-opacity: 0.3; stroke-width: 0.6; stroke-linecap: square"/>
     </g>
     <g id="line2d_6">
      <g>
       <use xlink:href="#m1374a3da60" x="272.608333" y="387.16" style="stroke: #000000; stroke-width: 0.8"/>
      </g>
     </g>
     <g id="text_3">
      <!-- −1 -->
      <g transform="translate(265.23724 401.758438) scale(0.1 -0.1)">
       <defs>
        <path id="DejaVuSans-31" d="M 794 531 
L 1825 531 
L 1825 4091 
L 703 3866 
L 703 4441 
L 1819 4666 
L 2450 4666 
L 2450 531 
L 3481 531 
L 3481 0 
L 794 0 
L 794 531 
z
" transform="scale(0.015625)"/>
       </defs>
       <use xlink:href="#DejaVuSans-2212"/>
       <use xlink:href="#DejaVuSans-31" x="83.789062"/>
      </g>
     </g>
    </g>
    <g id="xtick_4">
     <g id="line2d_7">
      <path d="M 380.9575 387.16 
L 380.9575 27.6 
" clip-path="url(#p5a207688ab)" style="fill: none; stroke: #b0b0b0; stroke-opacity: 0.3; stroke-width: 0.6; stroke-linecap: square"/>
     </g>
     <g id="line2d_8">
      <g>
       <use xlink:href="#m1374a3da60" x="380.9575" y="387.16" style="stroke: #000000; stroke-width: 0.8"/>
      </g>
     </g>
     <g id="text_4">
      <!-- 0 -->
      <g transform="translate(377.77625 401.758438) scale(0.1 -0.1)">
       <defs>
        <path id="DejaVuSans-30" d="M 2034 4250 
Q 1547 4250 1301 3770 
Q 1056 3291 1056 2328 
Q 1056 1369 1301 889 
Q 1547 409 2034 409 
Q 2525 409 2770 889 
Q 3016 1369 3016 2328 
Q 3016 3291 2770 3770 
Q 2525 4250 2034 4250 
z
M 2034 4750 
Q 2819 4750 3233 4129 
Q 3647 3509 3647 2328 
Q 3647 1150 3233 529 
Q 2819 -91 2034 -91 
Q 1250 -91 836 529 
Q 422 1150 422 2328 
Q 422 3509 836 4129 
Q 1250 4750 2034 4750 
z
" transform="scale(0.015625)"/>
       </defs>
       <use xlink:href="#DejaVuSans-30"/>
      </g>
     </g>
    </g>
    <g id="xtick_5">
     <g id="line2d_9">
      <path d="M 489.306667 387.16 
L 489.306667 27.6 
" clip-path="url(#p5a207688ab)" style="fill: none; stroke: #b0b0b0; stroke-opacity: 0.3; stroke-width: 0.6; stroke-linecap: square"/>
     </g>
     <g id="line2d_10">
      <g>
       <use xlink:href="#m1374a3da60" x="489.306667" y="387.16" style="stroke: #000000; stroke-width: 0.8"/>
      </g>
     </g>
     <g id="text_5">
      <!-- 1 -->
      <g transform="translate(486.125417 401.758438) scale(0.1 -0.1)">
       <use xlink:href="#DejaVuSans-31"/>
      </g>
     </g>
    </g>
    <g id="xtick_6">
     <g id="line2d_11">
      <path d="M 597.655833 387.16 
L 597.655833 27.6 
" clip-path="url(#p5a207688ab)" style="fill: none; stroke: #b0b0b0; stroke-opacity: 0.3; stroke-width: 0.6; stroke-linecap: square"/>
     </g>
     <g id="line2d_12">
      <g>
       <use xlink:href="#m1374a3da60" x="597.655833" y="387.16" style="stroke: #000000; stroke-width: 0.8"/>
      </g>
     </g>
     <g id="text_6">
      <!-- 2 -->
      <g transform="translate(594.474583 401.758438) scale(0.1 -0.1)">
       <use xlink:href="#DejaVuSans-32"/>
      </g>
     </g>
    </g>
    <g id="xtick_7">
     <g id="line2d_13">
      <path d="M 706.005 387.16 
L 706.005 27.6 
" clip-path="url(#p5a207688ab)" style="fill: none; stroke: #b0b0b0; stroke-opacity: 0.3; stroke-width: 0.6; stroke-linecap: square"/>
     </g>
     <g id="line2d_14">
      <g>
       <use xlink:href="#m1374a3da60" x="706.005" y="387.16" style="stroke: #000000; stroke-width: 0.8"/>
      </g>
     </g>
     <g id="text_7">
      <!-- 3 -->
      <g transform="translate(702.82375 401.758438) scale(0.1 -0.1)">
       <use xlink:href="#DejaVuSans-33"/>
      </g>
     </g>
    </g>
    <g id="text_8">
     <!-- Normalized Frequency, fTₛ -->
     <g transform="translate(295.635859 417.716094) scale(0.13 -0.13)">
      <defs>
       <path id="DejaVuSans-4e" d="M 628 4666 
L 1478 4666 
L 3547 763 
L 3547 4666 
L 4159 4666 
L 4159 0 
L 3309 0 
L 1241 3903 
L 1241 0 
L 628 0 
L 628 4666 
z
" transform="scale(0.015625)"/>
       <path id="DejaVuSans-6f" d="M 1959 3097 
Q 1497 3097 1228 2736 
Q 959 2375 959 1747 
Q 959 1119 1226 758 
Q 1494 397 1959 397 
Q 2419 397 2687 759 
Q 2956 1122 2956 1747 
Q 2956 2369 2687 2733 
Q 2419 3097 1959 3097 
z
M 1959 3584 
Q 2709 3584 3137 3096 
Q 3566 2609 3566 1747 
Q 3566 888 3137 398 
Q 2709 -91 1959 -91 
Q 1206 -91 779 398 
Q 353 888 353 1747 
Q 353 2609 779 3096 
Q 1206 3584 1959 3584 
z
" transform="scale(0.015625)"/>
       <path id="DejaVuSans-72" d="M 2631 2963 
Q 2534 3019 2420 3045 
Q 2306 3072 2169 3072 
Q 1681 3072 1420 2755 
Q 1159 2438 1159 1844 
L 1159 0 
L 581 0 
L 581 3500 
L 1159 3500 
L 1159 2956 
Q 1341 3275 1631 3429 
Q 1922 3584 2338 3584 
Q 2397 3584 2469 3576 
Q 2541 3569 2628 3553 
L 2631 2963 
z
" transform="scale(0.015625)"/>
       <path id="DejaVuSans-6d" d="M 3328 2828 
Q 3544 3216 3844 3400 
Q 4144 3584 4550 3584 
Q 5097 3584 5394 3201 
Q 5691 2819 5691 2113 
L 5691 0 
L 5113 0 
L 5113 2094 
Q 5113 2597 4934 2840 
Q 4756 3084 4391 3084 
Q 3944 3084 3684 2787 
Q 3425 2491 3425 1978 
L 3425 0 
L 2847 0 
L 2847 2094 
Q 2847 2600 2669 2842 
Q 2491 3084 2119 3084 
Q 1678 3084 1418 2786 
Q 1159 2488 1159 1978 
L 1159 0 
L 581 0 
L 581 3500 
L 1159 3500 
L 1159 2956 
Q 1356 3278 1631 3431 
Q 1906 3584 2284 3584 
Q 2666 3584 2933 3390 
Q 3200 3197 3328 2828 
z
" transform="scale(0.015625)"/>
       <path id="DejaVuSans-61" d="M 2194 1759 
Q 1497 1759 1228 1600 
Q 959 1441 959 1056 
Q 959 750 1161 570 
Q 1363 391 1709 391 
Q 2188 391 2477 730 
Q 2766 1069 2766 1631 
L 2766 1759 
L 2194 1759 
z
M 3341 1997 
L 3341 0 
L 2766 0 
L 2766 531 
Q 2569 213 2275 61 
Q 1981 -91 1556 -91 
Q 1019 -91 701 211 
Q 384 513 384 1019 
Q 384 1609 779 1909 
Q 1175 2209 1959 2209 
L 2766 2209 
L 2766 2266 
Q 2766 2663 2505 2880 
Q 2244 3097 1772 3097 
Q 1472 3097 1187 3025 
Q 903 2953 641 2809 
L 641 3341 
Q 956 3463 1253 3523 
Q 1550 3584 1831 3584 
Q 2591 3584 2966 3190 
Q 3341 2797 3341 1997 
z
" transform="scale(0.015625)"/>
       <path id="DejaVuSans-6c" d="M 603 4863 
L 1178 4863 
L 1178 0 
L 603 0 
L 603 4863 
z
" transform="scale(0.015625)"/>
       <path id="DejaVuSans-69" d="M 603 3500 
L 1178 3500 
L 1178 0 
L 603 0 
L 603 3500 
z
M 603 4863 
L 1178 4863 
L 1178 4134 
L 603 4134 
L 603 4863 
z
" transform="scale(0.015625)"/>
       <path id="DejaVuSans-7a" d="M 353 3500 
L 3084 3500 
L 3084 2975 
L 922 459 
L 3084 459 
L 3084 0 
L 275 0 
L 275 525 
L 2438 3041 
L 353 3041 
L 353 3500 
z
" transform="scale(0.015625)"/>
       <path id="DejaVuSans-65" d="M 3597 1894 
L 3597 1613 
L 953 1613 
Q 991 1019 1311 708 
Q 1631 397 2203 397 
Q 2534 397 2845 478 
Q 3156 559 3463 722 
L 3463 178 
Q 3153 47 2828 -22 
Q 2503 -91 2169 -91 
Q 1331 -91 842 396 
Q 353 884 353 1716 
Q 353 2575 817 3079 
Q 1281 3584 2069 3584 
Q 2775 3584 3186 3129 
Q 3597 2675 3597 1894 
z
M 3022 2063 
Q 3016 2534 2758 2815 
Q 2500 3097 2075 3097 
Q 1594 3097 1305 2825 
Q 1016 2553 972 2059 
L 3022 2063 
z
" transform="scale(0.015625)"/>
       <path id="DejaVuSans-64" d="M 2906 2969 
L 2906 4863 
L 3481 4863 
L 3481 0 
L 2906 0 
L 2906 525 
Q 2725 213 2448 61 
Q 2172 -91 1784 -91 
Q 1150 -91 751 415 
Q 353 922 353 1747 
Q 353 2572 751 3078 
Q 1150 3584 1784 3584 
Q 2172 3584 2448 3432 
Q 2725 3281 2906 2969 
z
M 947 1747 
Q 947 1113 1208 752 
Q 1469 391 1925 391 
Q 2381 391 2643 752 
Q 2906 1113 2906 1747 
Q 2906 2381 2643 2742 
Q 2381 3103 1925 3103 
Q 1469 3103 1208 2742 
Q 947 2381 947 1747 
z
" transform="scale(0.015625)"/>
       <path id="DejaVuSans-20" transform="scale(0.015625)"/>
       <path id="DejaVuSans-46" d="M 628 4666 
L 3309 4666 
L 3309 4134 
L 1259 4134 
L 1259 2759 
L 3109 2759 
L 3109 2228 
L 1259 2228 
L 1259 0 
L 628 0 
L 628 4666 
z
" transform="scale(0.015625)"/>
       <path id="DejaVuSans-71" d="M 947 1747 
Q 947 1113 1208 752 
Q 1469 391 1925 391 
Q 2381 391 2643 752 
Q 2906 1113 2906 1747 
Q 2906 2381 2643 2742 
Q 2381 3103 1925 3103 
Q 1469 3103 1208 2742 
Q 947 2381 947 1747 
z
M 2906 525 
Q 2725 213 2448 61 
Q 2172 -91 1784 -91 
Q 1150 -91 751 415 
Q 353 922 353 1747 
Q 353 2572 751 3078 
Q 1150 3584 1784 3584 
Q 2172 3584 2448 3432 
Q 2725 3281 2906 2969 
L 2906 3500 
L 3481 3500 
L 3481 -1331 
L 2906 -1331 
L 2906 525 
z
" transform="scale(0.015625)"/>
       <path id="DejaVuSans-75" d="M 544 1381 
L 544 3500 
L 1119 3500 
L 1119 1403 
Q 1119 906 1312 657 
Q 1506 409 1894 409 
Q 2359 409 2629 706 
Q 2900 1003 2900 1516 
L 2900 3500 
L 3475 3500 
L 3475 0 
L 2900 0 
L 2900 538 
Q 2691 219 2414 64 
Q 2138 -91 1772 -91 
Q 1169 -91 856 284 
Q 544 659 544 1381 
z
M 1991 3584 
L 1991 3584 
z
" transform="scale(0.015625)"/>
       <path id="DejaVuSans-6e" d="M 3513 2113 
L 3513 0 
L 2938 0 
L 2938 2094 
Q 2938 2591 2744 2837 
Q 2550 3084 2163 3084 
Q 1697 3084 1428 2787 
Q 1159 2491 1159 1978 
L 1159 0 
L 581 0 
L 581 3500 
L 1159 3500 
L 1159 2956 
Q 1366 3272 1645 3428 
Q 1925 3584 2291 3584 
Q 2894 3584 3203 3211 
Q 3513 2838 3513 2113 
z
" transform="scale(0.015625)"/>
       <path id="DejaVuSans-63" d="M 3122 3366 
L 3122 2828 
Q 2878 2963 2633 3030 
Q 2388 3097 2138 3097 
Q 1578 3097 1268 2742 
Q 959 2388 959 1747 
Q 959 1106 1268 751 
Q 1578 397 2138 397 
Q 2388 397 2633 464 
Q 2878 531 3122 666 
L 3122 134 
Q 2881 22 2623 -34 
Q 2366 -91 2075 -91 
Q 1284 -91 818 406 
Q 353 903 353 1747 
Q 353 2603 823 3093 
Q 1294 3584 2113 3584 
Q 2378 3584 2631 3529 
Q 2884 3475 3122 3366 
z
" transform="scale(0.015625)"/>
       <path id="DejaVuSans-79" d="M 2059 -325 
Q 1816 -950 1584 -1140 
Q 1353 -1331 966 -1331 
L 506 -1331 
L 506 -850 
L 844 -850 
Q 1081 -850 1212 -737 
Q 1344 -625 1503 -206 
L 1606 56 
L 191 3500 
L 800 3500 
L 1894 763 
L 2988 3500 
L 3597 3500 
L 2059 -325 
z
" transform="scale(0.015625)"/>
       <path id="DejaVuSans-2c" d="M 750 794 
L 1409 794 
L 1409 256 
L 897 -744 
L 494 -744 
L 750 256 
L 750 794 
z
" transform="scale(0.015625)"/>
       <path id="DejaVuSans-66" d="M 2375 4863 
L 2375 4384 
L 1825 4384 
Q 1516 4384 1395 4259 
Q 1275 4134 1275 3809 
L 1275 3500 
L 2222 3500 
L 2222 3053 
L 1275 3053 
L 1275 0 
L 697 0 
L 697 3053 
L 147 3053 
L 147 3500 
L 697 3500 
L 697 3744 
Q 697 4328 969 4595 
Q 1241 4863 1831 4863 
L 2375 4863 
z
" transform="scale(0.015625)"/>
       <path id="DejaVuSans-54" d="M -19 4666 
L 3928 4666 
L 3928 4134 
L 2272 4134 
L 2272 0 
L 1638 0 
L 1638 4134 
L -19 4134 
L -19 4666 
z
" transform="scale(0.015625)"/>
       <path id="DejaVuSans-209b" d="M 1931 1953 
L 1931 1650 
Q 1778 1718 1613 1753 
Q 1450 1787 1272 1787 
Q 1000 1787 866 1715 
Q 731 1640 731 1493 
Q 731 1381 828 1318 
Q 925 1253 1216 1196 
L 1341 1171 
Q 1731 1096 1888 965 
Q 2050 831 2050 590 
Q 2050 318 1806 159 
Q 1566 0 1141 0 
Q 963 0 769 31 
Q 578 62 366 121 
L 366 456 
Q 566 362 763 315 
Q 956 268 1147 268 
Q 1403 268 1540 346 
Q 1678 425 1678 565 
Q 1678 696 1578 768 
Q 1491 831 1144 903 
L 1019 928 
Q 681 993 531 1121 
Q 381 1253 381 1481 
Q 381 1756 603 1906 
Q 822 2059 1228 2059 
Q 1428 2059 1606 2031 
Q 1784 2006 1931 1953 
z
" transform="scale(0.015625)"/>
      </defs>
      <use xlink:href="#DejaVuSans-4e"/>
      <use xlink:href="#DejaVuSans-6f" x="74.804688"/>
      <use xlink:href="#DejaVuSans-72" x="135.986328"/>
      <use xlink:href="#DejaVuSans-6d" x="175.349609"/>
      <use xlink:href="#DejaVuSans-61" x="272.761719"/>
      <use xlink:href="#DejaVuSans-6c" x="334.041016"/>
      <use xlink:href="#DejaVuSans-69" x="361.824219"/>
      <use xlink:href="#DejaVuSans-7a" x="389.607422"/>
      <use xlink:href="#DejaVuSans-65" x="442.097656"/>
      <use xlink:href="#DejaVuSans-64" x="503.621094"/>
      <use xlink:href="#DejaVuSans-20" x="567.097656"/>
      <use xlink:href="#DejaVuSans-46" x="598.884766"/>
      <use xlink:href="#DejaVuSans-72" x="649.154297"/>
      <use xlink:href="#DejaVuSans-65" x="688.017578"/>
      <use xlink:href="#DejaVuSans-71" x="749.541016"/>
      <use xlink:href="#DejaVuSans-75" x="813.017578"/>
      <use xlink:href="#DejaVuSans-65" x="876.396484"/>
      <use xlink:href="#DejaVuSans-6e" x="937.919922"/>
      <use xlink:href="#DejaVuSans-63" x="1001.298828"/>
      <use xlink:href="#DejaVuSans-79" x="1056.279297"/>
      <use xlink:href="#DejaVuSans-2c" x="1115.458984"/>
      <use xlink:href="#DejaVuSans-20" x="1147.246094"/>
      <use xlink:href="#DejaVuSans-66" x="1179.033203"/>
      <use xlink:href="#DejaVuSans-54" x="1214.238281"/>
      <use xlink:href="#DejaVuSans-209b" x="1275.322266"/>
     </g>
    </g>
   </g>
   <g id="matplotlib.axis_2">
    <g id="ytick_1">
     <g id="line2d_15">
      <path d="M 55.91 387.16 
L 706.005 387.16 
" clip-path="url(#p5a207688ab)" style="fill: none; stroke: #b0b0b0; stroke-opacity: 0.3; stroke-width: 0.6; stroke-linecap: square"/>
     </g>
     <g id="line2d_16">
      <defs>
       <path id="mb42d5f589b" d="M 0 0 
L -3.5 0 
" style="stroke: #000000; stroke-width: 0.8"/>
      </defs>
      <g>
       <use xlink:href="#mb42d5f589b" x="55.91" y="387.16" style="stroke: #000000; stroke-width: 0.8"/>
      </g>
     </g>
     <g id="text_9">
      <!-- −50 -->
      <g transform="translate(27.805313 390.959219) scale(0.1 -0.1)">
       <defs>
        <path id="DejaVuSans-35" d="M 691 4666 
L 3169 4666 
L 3169 4134 
L 1269 4134 
L 1269 2991 
Q 1406 3038 1543 3061 
Q 1681 3084 1819 3084 
Q 2600 3084 3056 2656 
Q 3513 2228 3513 1497 
Q 3513 744 3044 326 
Q 2575 -91 1722 -91 
Q 1428 -91 1123 -41 
Q 819 9 494 109 
L 494 744 
Q 775 591 1075 516 
Q 1375 441 1709 441 
Q 2250 441 2565 725 
Q 2881 1009 2881 1497 
Q 2881 1984 2565 2268 
Q 2250 2553 1709 2553 
Q 1456 2553 1204 2497 
Q 953 2441 691 2322 
L 691 4666 
z
" transform="scale(0.015625)"/>
       </defs>
       <use xlink:href="#DejaVuSans-2212"/>
       <use xlink:href="#DejaVuSans-35" x="83.789062"/>
       <use xlink:href="#DejaVuSans-30" x="147.412109"/>
      </g>
     </g>
    </g>
    <g id="ytick_2">
     <g id="line2d_17">
      <path d="M 55.91 319.318491 
L 706.005 319.318491 
" clip-path="url(#p5a207688ab)" style="fill: none; stroke: #b0b0b0; stroke-opacity: 0.3; stroke-width: 0.6; stroke-linecap: square"/>
     </g>
     <g id="line2d_18">
      <g>
       <use xlink:href="#mb42d5f589b" x="55.91" y="319.318491" style="stroke: #000000; stroke-width: 0.8"/>
      </g>
     </g>
     <g id="text_10">
      <!-- −40 -->
      <g transform="translate(27.805313 323.117709) scale(0.1 -0.1)">
       <defs>
        <path id="DejaVuSans-34" d="M 2419 4116 
L 825 1625 
L 2419 1625 
L 2419 4116 
z
M 2253 4666 
L 3047 4666 
L 3047 1625 
L 3713 1625 
L 3713 1100 
L 3047 1100 
L 3047 0 
L 2419 0 
L 2419 1100 
L 313 1100 
L 313 1709 
L 2253 4666 
z
" transform="scale(0.015625)"/>
       </defs>
       <use xlink:href="#DejaVuSans-2212"/>
       <use xlink:href="#DejaVuSans-34" x="83.789062"/>
       <use xlink:href="#DejaVuSans-30" x="147.412109"/>
      </g>
     </g>
    </g>
    <g id="ytick_3">
     <g id="line2d_19">
      <path d="M 55.91 251.476981 
L 706.005 251.476981 
" clip-path="url(#p5a207688ab)" style="fill: none; stroke: #b0b0b0; stroke-opacity: 0.3; stroke-width: 0.6; stroke-linecap: square"/>
     </g>
     <g id="line2d_20">
      <g>
       <use xlink:href="#mb42d5f589b" x="55.91" y="251.476981" style="stroke: #000000; stroke-width: 0.8"/>
      </g>
     </g>
     <g id="text_11">
      <!-- −30 -->
      <g transform="translate(27.805313 255.2762) scale(0.1 -0.1)">
       <use xlink:href="#DejaVuSans-2212"/>
       <use xlink:href="#DejaVuSans-33" x="83.789062"/>
       <use xlink:href="#DejaVuSans-30" x="147.412109"/>
      </g>
     </g>
    </g>
    <g id="ytick_4">
     <g id="line2d_21">
      <path d="M 55.91 183.635472 
L 706.005 183.635472 
" clip-path="url(#p5a207688ab)" style="fill: none; stroke: #b0b0b0; stroke-opacity: 0.3; stroke-width: 0.6; stroke-linecap: square"/>
     </g>
     <g id="line2d_22">
      <g>
       <use xlink:href="#mb42d5f589b" x="55.91" y="183.635472" style="stroke: #000000; stroke-width: 0.8"/>
      </g>
     </g>
     <g id="text_12">
      <!-- −20 -->
      <g transform="translate(27.805313 187.43469) scale(0.1 -0.1)">
       <use xlink:href="#DejaVuSans-2212"/>
       <use xlink:href="#DejaVuSans-32" x="83.789062"/>
       <use xlink:href="#DejaVuSans-30" x="147.412109"/>
      </g>
     </g>
    </g>
    <g id="ytick_5">
     <g id="line2d_23">
      <path d="M 55.91 115.793962 
L 706.005 115.793962 
" clip-path="url(#p5a207688ab)" style="fill: none; stroke: #b0b0b0; stroke-opacity: 0.3; stroke-width: 0.6; stroke-linecap: square"/>
     </g>
     <g id="line2d_24">
      <g>
       <use xlink:href="#mb42d5f589b" x="55.91" y="115.793962" style="stroke: #000000; stroke-width: 0.8"/>
      </g>
     </g>
     <g id="text_13">
      <!-- −10 -->
      <g transform="translate(27.805313 119.593181) scale(0.1 -0.1)">
       <use xlink:href="#DejaVuSans-2212"/>
       <use xlink:href="#DejaVuSans-31" x="83.789062"/>
       <use xlink:href="#DejaVuSans-30" x="147.412109"/>
      </g>
     </g>
    </g>
    <g id="ytick_6">
     <g id="line2d_25">
      <path d="M 55.91 47.952453 
L 706.005 47.952453 
" clip-path="url(#p5a207688ab)" style="fill: none; stroke: #b0b0b0; stroke-opacity: 0.3; stroke-width: 0.6; stroke-linecap: square"/>
     </g>
     <g id="line2d_26">
      <g>
       <use xlink:href="#mb42d5f589b" x="55.91" y="47.952453" style="stroke: #000000; stroke-width: 0.8"/>
      </g>
     </g>
     <g id="text_14">
      <!-- 0 -->
      <g transform="translate(42.5475 51.751672) scale(0.1 -0.1)">
       <use xlink:href="#DejaVuSans-30"/>
      </g>
     </g>
    </g>
    <g id="text_15">
     <!-- Power Spectral Density [dB] -->
     <g transform="translate(21.101719 298.430781) rotate(-90) scale(0.13 -0.13)">
      <defs>
       <path id="DejaVuSans-50" d="M 1259 4147 
L 1259 2394 
L 2053 2394 
Q 2494 2394 2734 2622 
Q 2975 2850 2975 3272 
Q 2975 3691 2734 3919 
Q 2494 4147 2053 4147 
L 1259 4147 
z
M 628 4666 
L 2053 4666 
Q 2838 4666 3239 4311 
Q 3641 3956 3641 3272 
Q 3641 2581 3239 2228 
Q 2838 1875 2053 1875 
L 1259 1875 
L 1259 0 
L 628 0 
L 628 4666 
z
" transform="scale(0.015625)"/>
       <path id="DejaVuSans-77" d="M 269 3500 
L 844 3500 
L 1563 769 
L 2278 3500 
L 2956 3500 
L 3675 769 
L 4391 3500 
L 4966 3500 
L 4050 0 
L 3372 0 
L 2619 2869 
L 1863 0 
L 1184 0 
L 269 3500 
z
" transform="scale(0.015625)"/>
       <path id="DejaVuSans-53" d="M 3425 4513 
L 3425 3897 
Q 3066 4069 2747 4153 
Q 2428 4238 2131 4238 
Q 1616 4238 1336 4038 
Q 1056 3838 1056 3469 
Q 1056 3159 1242 3001 
Q 1428 2844 1947 2747 
L 2328 2669 
Q 3034 2534 3370 2195 
Q 3706 1856 3706 1288 
Q 3706 609 3251 259 
Q 2797 -91 1919 -91 
Q 1588 -91 1214 -16 
Q 841 59 441 206 
L 441 856 
Q 825 641 1194 531 
Q 1563 422 1919 422 
Q 2459 422 2753 634 
Q 3047 847 3047 1241 
Q 3047 1584 2836 1778 
Q 2625 1972 2144 2069 
L 1759 2144 
Q 1053 2284 737 2584 
Q 422 2884 422 3419 
Q 422 4038 858 4394 
Q 1294 4750 2059 4750 
Q 2388 4750 2728 4690 
Q 3069 4631 3425 4513 
z
" transform="scale(0.015625)"/>
       <path id="DejaVuSans-70" d="M 1159 525 
L 1159 -1331 
L 581 -1331 
L 581 3500 
L 1159 3500 
L 1159 2969 
Q 1341 3281 1617 3432 
Q 1894 3584 2278 3584 
Q 2916 3584 3314 3078 
Q 3713 2572 3713 1747 
Q 3713 922 3314 415 
Q 2916 -91 2278 -91 
Q 1894 -91 1617 61 
Q 1341 213 1159 525 
z
M 3116 1747 
Q 3116 2381 2855 2742 
Q 2594 3103 2138 3103 
Q 1681 3103 1420 2742 
Q 1159 2381 1159 1747 
Q 1159 1113 1420 752 
Q 1681 391 2138 391 
Q 2594 391 2855 752 
Q 3116 1113 3116 1747 
z
" transform="scale(0.015625)"/>
       <path id="DejaVuSans-74" d="M 1172 4494 
L 1172 3500 
L 2356 3500 
L 2356 3053 
L 1172 3053 
L 1172 1153 
Q 1172 725 1289 603 
Q 1406 481 1766 481 
L 2356 481 
L 2356 0 
L 1766 0 
Q 1100 0 847 248 
Q 594 497 594 1153 
L 594 3053 
L 172 3053 
L 172 3500 
L 594 3500 
L 594 4494 
L 1172 4494 
z
" transform="scale(0.015625)"/>
       <path id="DejaVuSans-44" d="M 1259 4147 
L 1259 519 
L 2022 519 
Q 2988 519 3436 956 
Q 3884 1394 3884 2338 
Q 3884 3275 3436 3711 
Q 2988 4147 2022 4147 
L 1259 4147 
z
M 628 4666 
L 1925 4666 
Q 3281 4666 3915 4102 
Q 4550 3538 4550 2338 
Q 4550 1131 3912 565 
Q 3275 0 1925 0 
L 628 0 
L 628 4666 
z
" transform="scale(0.015625)"/>
       <path id="DejaVuSans-73" d="M 2834 3397 
L 2834 2853 
Q 2591 2978 2328 3040 
Q 2066 3103 1784 3103 
Q 1356 3103 1142 2972 
Q 928 2841 928 2578 
Q 928 2378 1081 2264 
Q 1234 2150 1697 2047 
L 1894 2003 
Q 2506 1872 2764 1633 
Q 3022 1394 3022 966 
Q 3022 478 2636 193 
Q 2250 -91 1575 -91 
Q 1294 -91 989 -36 
Q 684 19 347 128 
L 347 722 
Q 666 556 975 473 
Q 1284 391 1588 391 
Q 1994 391 2212 530 
Q 2431 669 2431 922 
Q 2431 1156 2273 1281 
Q 2116 1406 1581 1522 
L 1381 1569 
Q 847 1681 609 1914 
Q 372 2147 372 2553 
Q 372 3047 722 3315 
Q 1072 3584 1716 3584 
Q 2034 3584 2315 3537 
Q 2597 3491 2834 3397 
z
" transform="scale(0.015625)"/>
       <path id="DejaVuSans-5b" d="M 550 4863 
L 1875 4863 
L 1875 4416 
L 1125 4416 
L 1125 -397 
L 1875 -397 
L 1875 -844 
L 550 -844 
L 550 4863 
z
" transform="scale(0.015625)"/>
       <path id="DejaVuSans-42" d="M 1259 2228 
L 1259 519 
L 2272 519 
Q 2781 519 3026 730 
Q 3272 941 3272 1375 
Q 3272 1813 3026 2020 
Q 2781 2228 2272 2228 
L 1259 2228 
z
M 1259 4147 
L 1259 2741 
L 2194 2741 
Q 2656 2741 2882 2914 
Q 3109 3088 3109 3444 
Q 3109 3797 2882 3972 
Q 2656 4147 2194 4147 
L 1259 4147 
z
M 628 4666 
L 2241 4666 
Q 2963 4666 3353 4366 
Q 3744 4066 3744 3513 
Q 3744 3084 3544 2831 
Q 3344 2578 2956 2516 
Q 3422 2416 3680 2098 
Q 3938 1781 3938 1306 
Q 3938 681 3513 340 
Q 3088 0 2303 0 
L 628 0 
L 628 4666 
z
" transform="scale(0.015625)"/>
       <path id="DejaVuSans-5d" d="M 1947 4863 
L 1947 -844 
L 622 -844 
L 622 -397 
L 1369 -397 
L 1369 4416 
L 622 4416 
L 622 4863 
L 1947 4863 
z
" transform="scale(0.015625)"/>
      </defs>
      <use xlink:href="#DejaVuSans-50"/>
      <use xlink:href="#DejaVuSans-6f" x="56.677734"/>
      <use xlink:href="#DejaVuSans-77" x="117.859375"/>
      <use xlink:href="#DejaVuSans-65" x="199.646484"/>
      <use xlink:href="#DejaVuSans-72" x="261.169922"/>
      <use xlink:href="#DejaVuSans-20" x="302.283203"/>
      <use xlink:href="#DejaVuSans-53" x="334.070312"/>
      <use xlink:href="#DejaVuSans-70" x="397.546875"/>
      <use xlink:href="#DejaVuSans-65" x="461.023438"/>
      <use xlink:href="#DejaVuSans-63" x="522.546875"/>
      <use xlink:href="#DejaVuSans-74" x="577.527344"/>
      <use xlink:href="#DejaVuSans-72" x="616.736328"/>
      <use xlink:href="#DejaVuSans-61" x="657.849609"/>
      <use xlink:href="#DejaVuSans-6c" x="719.128906"/>
      <use xlink:href="#DejaVuSans-20" x="746.912109"/>
      <use xlink:href="#DejaVuSans-44" x="778.699219"/>
      <use xlink:href="#DejaVuSans-65" x="855.701172"/>
      <use xlink:href="#DejaVuSans-6e" x="917.224609"/>
      <use xlink:href="#DejaVuSans-73" x="980.603516"/>
      <use xlink:href="#DejaVuSans-69" x="1032.703125"/>
      <use xlink:href="#DejaVuSans-74" x="1060.486328"/>
      <use xlink:href="#DejaVuSans-79" x="1099.695312"/>
      <use xlink:href="#DejaVuSans-20" x="1158.875"/>
      <use xlink:href="#DejaVuSans-5b" x="1190.662109"/>
      <use xlink:href="#DejaVuSans-64" x="1229.675781"/>
      <use xlink:href="#DejaVuSans-42" x="1293.152344"/>
      <use xlink:href="#DejaVuSans-5d" x="1361.755859"/>
     </g>
    </g>
   </g>
   <g id="line2d_27">
    <path d="M 55.91 340.394924 
L 57.021138 340.110948 
L 58.052909 340.066066 
L 59.08468 340.234334 
L 60.11645 340.619776 
L 61.227588 341.284391 
L 62.338726 342.217272 
L 63.529231 343.528898 
L 64.719736 345.182984 
L 65.989607 347.353659 
L 67.259479 349.982779 
L 68.529351 353.121787 
L 69.799223 356.837924 
L 71.069095 361.220403 
L 72.338967 366.390091 
L 73.608838 372.515406 
L 74.799343 379.340821 
L 75.989848 387.518415 
L 77.100986 396.780218 
L 78.132757 407.341803 
L 79.085161 419.52968 
L 79.911556 433 
M 85.958079 433 
L 86.783758 418.35157 
L 87.815529 404.028617 
L 88.926667 391.746345 
L 90.117172 380.996931 
L 91.387044 371.465176 
L 92.736283 362.945604 
L 94.164888 355.300566 
L 95.672861 348.43731 
L 97.180834 342.578625 
L 98.688807 337.559402 
L 100.196779 333.262312 
L 101.704752 329.602096 
L 103.212725 326.516031 
L 104.641331 324.079987 
L 105.99057 322.188262 
L 107.339808 320.675938 
L 108.60968 319.588425 
L 109.800185 318.859166 
L 110.911323 318.430076 
L 112.022461 318.244319 
L 113.054231 318.291902 
L 114.086002 318.555158 
L 115.117773 319.039485 
L 116.228911 319.816682 
L 117.340049 320.870558 
L 118.530554 322.324003 
L 119.721058 324.136149 
L 120.99093 326.498555 
L 122.260802 329.350409 
L 123.530674 332.752854 
L 124.800546 336.786542 
L 126.070418 341.55987 
L 127.340289 347.222277 
L 128.530794 353.526447 
L 129.721299 361.055688 
L 130.832437 369.532245 
L 131.864208 379.106874 
L 132.816612 389.998128 
L 133.689648 402.533562 
L 134.483318 417.23029 
L 135.128805 433 
M 139.147688 433 
L 139.800906 415.936534 
L 140.673943 398.784342 
L 141.626347 384.386386 
L 142.658118 371.9348 
L 143.848623 360.246674 
L 145.118495 349.966221 
L 146.467733 340.821526 
L 147.896339 332.634144 
L 149.404312 325.284776 
L 150.912285 318.999264 
L 152.499625 313.331229 
L 154.086964 308.489165 
L 155.674304 304.366511 
L 157.182277 301.045949 
L 158.69025 298.256787 
L 160.118855 296.072637 
L 161.468094 294.399503 
L 162.737966 293.159374 
L 163.928471 292.285779 
L 165.118976 291.689649 
L 166.230114 291.384045 
L 167.261884 291.31933 
L 168.293655 291.469354 
L 169.325426 291.839556 
L 170.357197 292.437253 
L 171.468335 293.346214 
L 172.579473 294.544952 
L 173.769977 296.172407 
L 174.960482 298.183579 
L 176.230354 300.794022 
L 177.500226 303.942181 
L 178.770098 307.705063 
L 180.039969 312.185819 
L 181.309841 317.526015 
L 182.500346 323.490237 
L 183.690851 330.625787 
L 184.801989 338.660807 
L 185.83376 347.722616 
L 186.786163 357.99229 
L 187.6592 369.73399 
L 188.45287 383.349338 
L 189.167173 399.488139 
L 189.802109 419.305114 
L 190.127 433 
M 192.535083 433 
L 193.135523 408.548058 
L 193.849825 388.39483 
L 194.722862 370.372388 
L 195.675266 355.35612 
L 196.707037 342.418229 
L 197.897542 330.29125 
L 199.167414 319.621929 
L 200.516652 310.115413 
L 201.945258 301.579308 
L 203.453231 293.885195 
L 205.040571 286.94744 
L 206.627911 280.986295 
L 208.21525 275.850218 
L 209.80259 271.431492 
L 211.38993 267.65226 
L 212.897903 264.602663 
L 214.405875 262.044098 
L 215.834481 260.050684 
L 217.18372 258.539772 
L 218.453592 257.441476 
L 219.644097 256.695181 
L 220.755234 256.247119 
L 221.866372 256.042202 
L 222.898143 256.074312 
L 223.929914 256.326845 
L 224.961685 256.80792 
L 225.993456 257.527888 
L 227.104593 258.585322 
L 228.215731 259.955085 
L 229.406236 261.79815 
L 230.596741 264.068272 
L 231.787246 266.815936 
L 232.977751 270.106594 
L 234.168255 274.026486 
L 235.35876 278.691714 
L 236.549265 284.263017 
L 237.73977 290.971152 
L 238.850908 298.561598 
L 239.882679 307.149472 
L 240.835082 316.89639 
L 241.708119 328.034096 
L 242.501789 340.906874 
L 243.216092 356.054296 
L 243.851028 374.392014 
L 244.406597 397.67714 
L 244.803432 423.234582 
L 244.912844 433 
M 246.118153 433 
L 246.549506 400.460481 
L 247.105074 374.548774 
L 247.819377 352.049697 
L 248.613047 333.976346 
L 249.565451 317.490142 
L 250.597222 303.442266 
L 251.787727 290.345943 
L 253.057599 278.839746 
L 254.406837 268.569225 
L 255.835443 259.306377 
L 257.343416 250.899723 
L 258.930756 243.247567 
L 260.597462 236.282811 
L 262.264169 230.231769 
L 264.010243 224.731557 
L 265.67695 220.186702 
L 267.343656 216.264236 
L 268.930996 213.064798 
L 270.518336 210.360657 
L 272.026309 208.23484 
L 273.375548 206.692641 
L 274.645419 205.551107 
L 275.835924 204.756786 
L 276.947062 204.261288 
L 278.0582 204.010298 
L 279.089971 204.004508 
L 280.121742 204.227746 
L 281.153512 204.692541 
L 282.185283 205.414466 
L 283.217054 206.412777 
L 284.248825 207.711272 
L 285.359963 209.479361 
L 286.471101 211.676399 
L 287.582238 214.362104 
L 288.693376 217.614438 
L 289.804514 221.537295 
L 290.915652 226.272807 
L 292.02679 232.022025 
L 293.058561 238.525602 
L 294.090331 246.521465 
L 295.042735 255.729378 
L 295.915772 266.392266 
L 296.709442 278.871624 
L 297.423745 293.736883 
L 298.058681 311.963746 
L 298.534883 331.416319 
L 298.931718 355.406001 
L 299.249186 386.532004 
L 299.492787 433 
M 299.896694 433 
L 300.20159 377.60381 
L 300.598424 342.847337 
L 301.153993 313.707921 
L 301.788929 291.419841 
L 302.582599 271.2611 
L 303.535003 253.034119 
L 304.566774 237.501539 
L 305.757279 222.927725 
L 307.106518 209.233463 
L 308.535123 196.956185 
L 310.122463 185.208415 
L 311.868537 173.966943 
L 313.693978 163.628135 
L 315.678152 153.652055 
L 317.821061 144.040512 
L 320.043337 135.097517 
L 322.344979 126.736873 
L 324.725989 118.895813 
L 327.265733 111.301818 
L 329.805476 104.393938 
L 332.424587 97.8993 
L 335.123064 91.800819 
L 337.821542 86.242857 
L 340.599387 81.033966 
L 343.377231 76.30204 
L 346.155076 72.011684 
L 348.93292 68.1338 
L 351.631398 64.738787 
L 354.329875 61.691804 
L 357.028353 58.977368 
L 359.647464 56.648459 
L 362.266574 54.610577 
L 364.885685 52.85536 
L 367.425429 51.416711 
L 369.965172 50.232148 
L 372.425549 49.322974 
L 374.885925 48.645415 
L 377.346302 48.19732 
L 379.806679 47.977282 
L 382.267055 47.984613 
L 384.727432 48.219336 
L 387.187809 48.682185 
L 389.648185 49.374613 
L 392.108562 50.298823 
L 394.568938 51.457799 
L 397.108682 52.904466 
L 399.648426 54.610577 
L 402.188169 56.582475 
L 404.80728 58.902427 
L 407.426391 61.523064 
L 410.045501 64.456181 
L 412.743979 67.819791 
L 415.442456 71.548114 
L 418.140934 75.662837 
L 420.839412 80.189977 
L 423.537889 85.160968 
L 426.236367 90.614133 
L 428.855477 96.412695 
L 431.474588 102.763786 
L 434.014332 109.514216 
L 436.474708 116.684801 
L 438.855718 124.304405 
L 441.157361 132.412407 
L 443.379636 141.062302 
L 445.522545 150.327081 
L 447.50672 159.901423 
L 449.411527 170.226084 
L 451.157601 180.943051 
L 452.744941 192.051799 
L 454.252914 204.230186 
L 455.602152 216.989736 
L 456.792657 230.342303 
L 457.903795 245.44386 
L 458.856199 261.546561 
L 459.649869 278.609179 
L 460.364172 298.904773 
L 460.919741 320.748462 
L 461.395942 348.39639 
L 461.71341 377.60381 
L 461.951511 415.46505 
L 462.018306 433 
M 462.422213 433 
L 462.586447 397.935704 
L 462.983282 355.406001 
L 463.459484 327.652383 
L 464.09442 304.367371 
L 464.808723 286.5798 
L 465.602393 272.220254 
L 466.47543 260.258986 
L 467.427834 250.107577 
L 468.459604 241.398707 
L 469.570742 233.889087 
L 470.68188 227.801242 
L 471.872385 222.477863 
L 473.06289 218.130965 
L 474.253395 214.574563 
L 475.443899 211.676399 
L 476.634404 209.33946 
L 477.824909 207.490858 
L 478.936047 206.156703 
L 480.047185 205.163872 
L 481.078956 204.522929 
L 482.110726 204.133966 
L 483.142497 203.982405 
L 484.174268 204.056552 
L 485.206039 204.347158 
L 486.317177 204.894058 
L 487.507682 205.742146 
L 488.777553 206.940182 
L 490.126792 208.542178 
L 491.555398 210.609343 
L 493.063371 213.212824 
L 494.571344 216.264236 
L 496.158683 219.986236 
L 497.746023 224.270281 
L 499.41273 229.433816 
L 501.079437 235.365964 
L 502.666776 241.842823 
L 504.254116 249.279569 
L 505.762089 257.431083 
L 507.190695 266.38363 
L 508.539933 276.265274 
L 509.809805 287.266529 
L 510.920943 298.770399 
L 511.952714 311.714 
L 512.905118 326.578039 
L 513.698788 342.362622 
L 514.413091 361.05698 
L 514.96866 380.900809 
L 515.444861 405.260229 
L 515.796847 433 
M 517.002156 433 
L 517.429036 401.953642 
L 517.984605 377.181641 
L 518.619541 358.036531 
L 519.413211 340.906874 
L 520.286248 326.910176 
L 521.238652 315.122184 
L 522.270422 305.009755 
L 523.38156 296.239275 
L 524.572065 288.590483 
L 525.841937 281.912973 
L 527.111809 276.412903 
L 528.381681 271.851339 
L 529.651552 268.062754 
L 530.921424 264.928221 
L 532.191296 262.3599 
L 533.461168 260.291559 
L 534.651673 258.761351 
L 535.842177 257.593518 
L 536.953315 256.80792 
L 538.064453 256.299422 
L 539.096224 256.064106 
L 540.127995 256.048674 
L 541.159766 256.247119 
L 542.270903 256.695181 
L 543.382041 257.383192 
L 544.572546 258.385393 
L 545.842418 259.758075 
L 547.191657 261.565537 
L 548.620262 263.882923 
L 550.048868 266.634289 
L 551.556841 270.039298 
L 553.064814 274.001564 
L 554.572787 278.580224 
L 556.080759 283.855506 
L 557.588732 289.937394 
L 559.096705 296.979782 
L 560.525311 304.737613 
L 561.87455 313.289373 
L 563.144421 322.75072 
L 564.334926 333.291834 
L 565.446064 345.16808 
L 566.477835 358.778024 
L 567.350872 373.277835 
L 568.144542 390.33141 
L 568.779477 408.548058 
L 569.335046 430.759266 
L 569.379917 433 
M 571.788 433 
L 572.271625 413.656756 
L 572.985928 393.563448 
L 573.779598 377.477202 
L 574.652635 364.059468 
L 575.605038 352.58563 
L 576.716176 341.935645 
L 577.906681 332.768801 
L 579.097186 325.266259 
L 580.367058 318.637982 
L 581.63693 313.116559 
L 582.986168 308.223428 
L 584.335407 304.158433 
L 585.684646 300.794022 
L 587.033885 298.036864 
L 588.303757 295.933956 
L 589.573628 294.262806 
L 590.764133 293.057663 
L 591.875271 292.228594 
L 592.986409 291.670692 
L 594.01818 291.385933 
L 595.049951 291.319048 
L 596.081721 291.465272 
L 597.192859 291.857551 
L 598.303997 292.491568 
L 599.494502 293.439403 
L 600.764374 294.75988 
L 602.034246 296.406731 
L 603.383484 298.526497 
L 604.81209 301.207107 
L 606.240696 304.366511 
L 607.748669 308.266689 
L 609.256641 312.811895 
L 610.764614 318.091122 
L 612.272587 324.227123 
L 613.701193 330.986786 
L 615.129799 338.883226 
L 616.479037 347.669566 
L 617.748909 357.494271 
L 618.939414 368.580023 
L 619.971185 380.268374 
L 620.923589 393.590166 
L 621.796626 409.120116 
L 622.510928 425.711072 
L 622.767312 433 
M 626.786195 433 
L 627.431682 417.23029 
L 628.304719 401.262383 
L 629.257122 388.011658 
L 630.288893 376.720886 
L 631.400031 366.941661 
L 632.590536 358.389231 
L 633.860408 350.874456 
L 635.13028 344.623749 
L 636.479518 339.072578 
L 637.828757 334.434286 
L 639.177996 330.557966 
L 640.527235 327.33463 
L 641.876474 324.683637 
L 643.146345 322.656874 
L 644.416217 321.044534 
L 645.606722 319.882625 
L 646.71786 319.086093 
L 647.828998 318.555158 
L 648.940136 318.280642 
L 649.971906 318.249476 
L 651.003677 318.430076 
L 652.114815 318.859166 
L 653.225953 319.531108 
L 654.416458 320.522356 
L 655.68633 321.894219 
L 656.956201 323.599916 
L 658.30544 325.793227 
L 659.734046 328.567997 
L 661.162652 331.843458 
L 662.591257 335.667611 
L 664.09923 340.370602 
L 665.527836 345.548393 
L 666.956442 351.550579 
L 668.385048 358.545271 
L 669.734286 366.281387 
L 671.004158 374.84355 
L 672.194663 384.355029 
L 673.305801 394.996194 
L 674.337572 407.037204 
L 675.289976 420.900249 
L 675.956921 433 
M 682.003444 433 
L 682.829839 419.52968 
L 683.782243 407.341803 
L 684.814014 396.780218 
L 685.925152 387.518415 
L 687.115657 379.340821 
L 688.385529 372.100463 
L 689.734767 365.69565 
L 691.084006 360.342901 
L 692.433245 355.850355 
L 693.782484 352.082379 
L 695.131723 348.940165 
L 696.480961 346.350154 
L 697.750833 344.366982 
L 699.020705 342.788132 
L 700.21121 341.650684 
L 701.322348 340.872446 
L 702.433486 340.356606 
L 703.544623 340.094985 
L 704.576394 340.074611 
L 705.608165 340.265551 
L 706.005 340.394924 
L 706.005 340.394924 
" clip-path="url(#p5a207688ab)" style="fill: none; stroke: #e63946; stroke-width: 2.2; stroke-linecap: square"/>
   </g>
   <g id="line2d_28">
    <path d="M 344.851534 433 
L 345.202672 365.986198 
L 345.678874 311.786324 
L 346.31381 264.867482 
L 347.028113 228.100839 
L 347.821782 197.759508 
L 348.774186 169.907822 
L 349.805957 146.380472 
L 350.917095 126.20812 
L 352.028233 109.854615 
L 353.218738 95.513937 
L 354.409242 83.762679 
L 355.599747 74.128447 
L 356.790252 66.289486 
L 357.90139 60.39323 
L 358.933161 56.027325 
L 359.885565 52.876642 
L 360.758602 50.690948 
L 361.552271 49.265412 
L 362.266574 48.428461 
L 362.90151 48.034092 
L 363.457079 47.952453 
L 399.01349 48.034092 
L 399.569059 48.361243 
L 400.203995 49.043191 
L 400.918298 50.20788 
L 401.711967 52.005681 
L 402.585004 54.614973 
L 403.537408 58.250955 
L 404.569179 63.17962 
L 405.60095 69.225776 
L 406.712088 77.126872 
L 407.823225 86.673126 
L 408.934363 98.156254 
L 410.045501 111.997177 
L 411.156639 128.828134 
L 412.18841 148.003589 
L 413.140814 169.907822 
L 414.013851 195.139931 
L 414.80752 224.665498 
L 415.521823 260.145999 
L 416.077392 298.160548 
L 416.553594 345.005615 
L 416.950429 406.781012 
L 417.063466 433 
L 417.063466 433 
" clip-path="url(#p5a207688ab)" style="fill: none; stroke: #457b9d; stroke-width: 2.2; stroke-linecap: square"/>
   </g>
   <g id="line2d_29">
    <path d="M 56.381924 433 
L 56.70367 402.27484 
L 57.179872 374.525084 
L 57.814808 350.583432 
L 58.529111 331.794555 
L 59.402147 314.859306 
L 60.354551 300.724254 
L 61.386322 288.573108 
L 62.576827 277.243237 
L 63.846699 267.353698 
L 65.195938 258.631395 
L 66.624543 250.897421 
L 68.053149 244.365171 
L 69.561122 238.518235 
L 71.069095 233.564542 
L 72.577068 229.372153 
L 74.08504 225.845843 
L 75.513646 223.056033 
L 76.942252 220.757154 
L 78.291491 219.007097 
L 79.561362 217.714992 
L 80.751867 216.80522 
L 81.863005 216.213308 
L 82.974143 215.866472 
L 84.005914 215.762886 
L 85.037685 215.870391 
L 86.069455 216.191248 
L 87.180593 216.779853 
L 88.291731 217.627466 
L 89.482236 218.834045 
L 90.672741 220.364662 
L 91.942613 222.377338 
L 93.212484 224.813333 
L 94.561723 227.911259 
L 95.910962 231.597365 
L 97.260201 235.957028 
L 98.60944 241.106099 
L 99.879311 246.817036 
L 101.149183 253.560737 
L 102.339688 261.068829 
L 103.530193 270.082423 
L 104.641331 280.3481 
L 105.593735 291.164018 
L 106.466771 303.480472 
L 107.260441 317.734575 
L 107.974744 334.646542 
L 108.60968 355.530882 
L 109.085882 378.363764 
L 109.482717 408.098229 
L 109.688621 433 
M 110.479523 433 
L 110.831956 395.051887 
L 111.308158 365.930096 
L 111.943094 341.224686 
L 112.657397 322.008356 
L 113.530433 304.773637 
L 114.482837 290.43079 
L 115.514608 278.121031 
L 116.625746 267.346363 
L 117.895618 257.216781 
L 119.244857 248.293363 
L 120.594095 240.788244 
L 122.022701 234.043966 
L 123.530674 228.002947 
L 125.038647 222.876215 
L 126.546619 218.525595 
L 128.054592 214.851649 
L 129.483198 211.929038 
L 130.911804 209.50231 
L 132.261043 207.634729 
L 133.530914 206.233953 
L 134.721419 205.22336 
L 135.911924 204.498234 
L 137.023062 204.075196 
L 138.1342 203.895778 
L 139.165971 203.947926 
L 140.197741 204.212933 
L 141.308879 204.740753 
L 142.420017 205.526813 
L 143.531155 206.580628 
L 144.72166 208.02103 
L 145.991532 209.934286 
L 147.261403 212.266776 
L 148.531275 215.058283 
L 149.880514 218.585118 
L 151.229753 222.770159 
L 152.578992 227.723834 
L 153.848863 233.224574 
L 155.118735 239.721646 
L 156.30924 246.94978 
L 157.499745 255.61049 
L 158.610883 265.439737 
L 159.642654 276.699936 
L 160.51569 288.577461 
L 161.30936 302.229719 
L 162.023663 318.253959 
L 162.658599 337.690094 
L 163.214168 362.614207 
L 163.611003 390.629387 
L 163.942295 433 
M 164.574589 433 
L 164.960242 385.640755 
L 165.436444 354.99608 
L 166.07138 329.46737 
L 166.785682 309.792837 
L 167.579352 293.630139 
L 168.531756 278.744954 
L 169.563527 266.039788 
L 170.674665 254.955647 
L 171.944537 244.554646 
L 173.293775 235.399115 
L 174.722381 227.282046 
L 176.150987 220.416419 
L 177.65896 214.253222 
L 179.166933 209.008133 
L 180.674905 204.541499 
L 182.182878 200.752878 
L 183.690851 197.568749 
L 185.119457 195.060511 
L 186.468696 193.114213 
L 187.817934 191.556796 
L 189.087806 190.432688 
L 190.278311 189.67213 
L 191.389449 189.214812 
L 192.500587 189.000296 
L 193.532357 189.019418 
L 194.564128 189.251267 
L 195.595899 189.699926 
L 196.707037 190.432286 
L 197.818175 191.432657 
L 199.00868 192.81643 
L 200.199184 194.542652 
L 201.469056 196.79049 
L 202.738928 199.497313 
L 204.0088 202.714998 
L 205.358039 206.769788 
L 206.707277 211.587367 
L 207.977149 216.953071 
L 209.247021 223.305987 
L 210.437526 230.387318 
L 211.628031 238.884452 
L 212.739169 248.537198 
L 213.770939 259.598747 
L 214.643976 271.261672 
L 215.437646 284.648776 
L 216.151949 300.317684 
L 216.786885 319.223162 
L 217.342454 343.221793 
L 217.739289 369.689139 
L 218.056757 405.561842 
L 218.195016 433 
M 218.672273 433 
L 218.929794 389.077049 
L 219.326629 354.314612 
L 219.882198 325.646285 
L 220.517133 304.067868 
L 221.310803 284.885986 
L 222.18384 269.13815 
L 223.136244 255.71476 
L 224.247382 243.187757 
L 225.437887 232.269396 
L 226.707759 222.617428 
L 228.056997 214.010453 
L 229.485603 206.300745 
L 230.993576 199.388763 
L 232.501549 193.494089 
L 234.009521 188.446938 
L 235.517494 184.126885 
L 237.025467 180.446515 
L 238.53344 177.341527 
L 239.962046 174.887595 
L 241.311284 172.978246 
L 242.660523 171.446985 
L 243.930395 170.339978 
L 245.1209 169.590603 
L 246.232038 169.14084 
L 247.343175 168.932312 
L 248.374946 168.956637 
L 249.406717 169.194371 
L 250.438488 169.650671 
L 251.549626 170.394582 
L 252.660764 171.411591 
L 253.851268 172.821075 
L 255.041773 174.584034 
L 256.311645 176.887339 
L 257.581517 179.672074 
L 258.851389 182.997806 
L 260.121261 186.943021 
L 261.391132 191.61303 
L 262.661004 197.152674 
L 263.851509 203.317719 
L 265.042014 210.674664 
L 266.153152 218.945634 
L 267.184922 228.268133 
L 268.137326 238.839161 
L 269.010363 250.949269 
L 269.804033 265.047186 
L 270.518336 281.875507 
L 271.153272 302.799466 
L 271.629474 325.864383 
L 272.026309 356.264027 
L 272.343777 402.544108 
L 272.445997 433 
M 272.769715 433 
L 273.05808 370.89166 
L 273.454915 333.419263 
L 274.010483 303.423555 
L 274.645419 281.13504 
L 275.439089 261.433088 
L 276.312126 245.292178 
L 277.26453 231.532624 
L 278.375668 218.671776 
L 279.566173 207.430825 
L 280.836044 197.455117 
L 282.185283 188.515524 
L 283.613889 180.458949 
L 285.121862 173.181727 
L 286.709202 166.61443 
L 288.296541 160.973286 
L 289.883881 156.119382 
L 291.471221 151.953312 
L 293.058561 148.402922 
L 294.566533 145.552382 
L 296.074506 143.177648 
L 297.503112 141.346183 
L 298.852351 139.978618 
L 300.122223 139.007664 
L 301.312727 138.374815 
L 302.423865 138.028039 
L 303.535003 137.920536 
L 304.566774 138.040157 
L 305.598545 138.377921 
L 306.630316 138.942573 
L 307.741453 139.817189 
L 308.852591 140.985326 
L 309.963729 142.468969 
L 311.154234 144.440186 
L 312.344739 146.84847 
L 313.535244 149.749402 
L 314.725748 153.215587 
L 315.916253 157.343595 
L 317.106758 162.264968 
L 318.297263 168.164516 
L 319.408401 174.789893 
L 320.519539 182.833878 
L 321.551309 192.031382 
L 322.503713 202.619666 
L 323.37675 214.956375 
L 324.17042 229.612476 
L 324.805356 245.261133 
L 325.360925 264.047042 
L 325.837127 287.532686 
L 326.233962 319.143513 
L 326.472063 352.390829 
L 326.630797 394.32842 
L 326.701554 433 
M 326.86611 433 
L 326.948265 389.069825 
L 327.265733 325.584678 
L 327.662567 289.816064 
L 328.218136 260.393747 
L 328.853072 238.1685 
L 329.646742 218.269875 
L 330.519779 201.769825 
L 331.55155 186.475898 
L 332.662688 173.18621 
L 333.93256 160.645095 
L 335.281798 149.450071 
L 336.789771 138.786979 
L 338.377111 129.11764 
L 340.123185 119.874915 
L 341.948625 111.425428 
L 343.853433 103.660902 
L 345.837608 96.504356 
L 347.901149 89.900711 
L 349.964691 84.023745 
L 352.1076 78.585727 
L 354.250508 73.743692 
L 356.393417 69.433823 
L 358.536326 65.606078 
L 360.679235 62.220696 
L 362.822143 59.245784 
L 364.965052 56.655603 
L 367.028594 54.505512 
L 369.092135 52.677815 
L 371.07631 51.213121 
L 373.060485 50.026642 
L 374.965292 49.143091 
L 376.8701 48.505212 
L 378.695541 48.121478 
L 380.520982 47.958694 
L 382.346422 48.016127 
L 384.171863 48.294035 
L 385.997304 48.793672 
L 387.822744 49.517316 
L 389.727552 50.51489 
L 391.63236 51.765175 
L 393.616535 53.343455 
L 395.600709 55.212592 
L 397.584884 57.384271 
L 399.648426 59.979172 
L 401.711967 62.936514 
L 403.775509 66.280478 
L 405.839051 70.04082 
L 407.902592 74.254383 
L 409.966134 78.967215 
L 412.029676 84.237606 
L 414.093218 90.140544 
L 416.077392 96.504356 
L 417.9822 103.357586 
L 419.807641 110.740446 
L 421.553714 118.708666 
L 423.220421 127.339295 
L 424.807761 136.739779 
L 426.315734 147.062725 
L 427.664973 157.840954 
L 428.934844 169.826546 
L 430.045982 182.402014 
L 431.077753 196.674915 
L 431.95079 211.772765 
L 432.74446 229.447852 
L 433.379396 248.296002 
L 433.934965 271.327739 
L 434.411167 301.709342 
L 434.728634 336.251724 
L 434.966735 389.069825 
L 435.04889 433 
M 435.213446 433 
L 435.442937 352.390829 
L 435.839772 304.354171 
L 436.315974 274.57203 
L 436.871543 252.541124 
L 437.585846 233.114658 
L 438.379516 217.57087 
L 439.252553 204.642625 
L 440.204957 193.634964 
L 441.236728 184.126141 
L 442.347865 175.842529 
L 443.53837 168.598566 
L 444.808242 162.264968 
L 446.078114 157.045401 
L 447.347986 152.717596 
L 448.617857 149.126611 
L 449.887729 146.160646 
L 451.157601 143.736901 
L 452.427473 141.792863 
L 453.617978 140.36331 
L 454.808482 139.28268 
L 455.91962 138.567693 
L 457.030758 138.120486 
L 458.062529 137.934548 
L 459.0943 137.961916 
L 460.205438 138.22378 
L 461.316576 138.722261 
L 462.50708 139.51625 
L 463.697585 140.578836 
L 464.967457 142.011026 
L 466.316696 143.87771 
L 467.745302 146.255259 
L 469.173907 149.066502 
L 470.68188 152.537461 
L 472.189853 156.572425 
L 473.697826 161.235677 
L 475.205798 166.61443 
L 476.713771 172.828606 
L 478.142377 179.638512 
L 479.570983 187.555503 
L 480.920222 196.324082 
L 482.190093 206.083894 
L 483.380598 217.042391 
L 484.412369 228.533883 
L 485.364773 241.546928 
L 486.23781 256.58748 
L 486.952113 272.470543 
L 487.587049 291.254522 
L 488.142618 314.500747 
L 488.539452 339.259238 
L 488.85692 370.89166 
L 489.095021 415.433397 
L 489.145285 433 
M 489.469003 433 
L 489.65059 387.128569 
L 490.047425 342.145959 
L 490.523627 313.180191 
L 491.158563 288.844603 
L 491.872866 270.106951 
L 492.666536 254.803501 
L 493.61894 240.84005 
L 494.650711 229.067312 
L 495.761848 218.945634 
L 496.952353 210.140508 
L 498.222225 202.433263 
L 499.492097 196.039339 
L 500.841336 190.370493 
L 502.190574 185.637873 
L 503.539813 181.682763 
L 504.889052 178.391065 
L 506.238291 175.678645 
L 507.508163 173.59818 
L 508.778034 171.934568 
L 509.968539 170.72576 
L 511.159044 169.836074 
L 512.270182 169.280048 
L 513.38132 168.979212 
L 514.413091 168.922321 
L 515.444861 169.075802 
L 516.555999 169.473959 
L 517.667137 170.113006 
L 518.857642 171.066627 
L 520.048147 172.302765 
L 521.318019 173.940975 
L 522.667257 176.057404 
L 524.095863 178.743933 
L 525.524469 181.922743 
L 526.953075 185.640002 
L 528.461047 190.216275 
L 529.889653 195.257142 
L 531.318259 201.10065 
L 532.746865 207.906838 
L 534.096104 215.425862 
L 535.365975 223.732261 
L 536.55648 232.93408 
L 537.667618 243.187757 
L 538.699389 254.723868 
L 539.651793 267.894513 
L 540.52483 283.268466 
L 541.239133 299.705424 
L 541.874068 319.476476 
L 542.429637 344.624819 
L 542.826472 372.665491 
L 543.14394 411.856077 
L 543.242727 433 
M 543.719984 433 
L 544.016977 384.917411 
L 544.413812 352.416362 
L 544.969381 325.122051 
L 545.604317 304.48657 
L 546.397987 286.186996 
L 547.271024 271.261672 
L 548.223428 258.656928 
L 549.255198 247.779676 
L 550.366336 238.265123 
L 551.556841 229.875495 
L 552.826713 222.450043 
L 554.175952 215.878051 
L 555.52519 210.378042 
L 556.874429 205.751705 
L 558.223668 201.859296 
L 559.572907 198.599263 
L 560.922146 195.896138 
L 562.271384 193.692976 
L 563.541256 192.037198 
L 564.731761 190.827529 
L 565.922266 189.93139 
L 567.033404 189.365989 
L 568.144542 189.053918 
L 569.176312 188.985982 
L 570.208083 189.128738 
L 571.319221 189.516674 
L 572.430359 190.147894 
L 573.620864 191.096984 
L 574.811369 192.333918 
L 576.08124 193.98054 
L 577.430479 196.116738 
L 578.779718 198.675303 
L 580.208324 201.880937 
L 581.63693 205.647648 
L 583.065535 210.04368 
L 584.494141 215.161044 
L 585.922747 221.126019 
L 587.271986 227.697374 
L 588.621225 235.399115 
L 589.891096 243.967903 
L 591.081601 253.539672 
L 592.192739 264.314829 
L 593.22451 276.597202 
L 594.097547 289.537434 
L 594.891217 304.462005 
L 595.605519 322.158321 
L 596.240455 344.097544 
L 596.716657 368.359297 
L 597.113492 400.805097 
L 597.340411 433 
M 597.972705 433 
L 598.22463 398.301651 
L 598.700832 362.614207 
L 599.256401 337.690094 
L 599.970704 316.231479 
L 600.764374 299.215562 
L 601.637411 285.068426 
L 602.589814 272.966068 
L 603.700952 261.698193 
L 604.891457 251.946834 
L 606.161329 243.421489 
L 607.431201 236.334561 
L 608.78044 230.020828 
L 610.129678 224.709259 
L 611.558284 219.982065 
L 612.98689 216.032527 
L 614.336129 212.919834 
L 615.685367 210.338631 
L 617.034606 208.238387 
L 618.304478 206.666455 
L 619.494983 205.526813 
L 620.685488 204.694584 
L 621.796626 204.184915 
L 622.907763 203.926121 
L 623.939534 203.906488 
L 624.971305 204.09733 
L 626.082443 204.537795 
L 627.193581 205.22336 
L 628.384086 206.233953 
L 629.57459 207.537204 
L 630.844462 209.261699 
L 632.193701 211.491201 
L 633.54294 214.157183 
L 634.971546 217.496533 
L 636.400151 221.423836 
L 637.828757 226.016133 
L 639.257363 231.377957 
L 640.685969 237.6542 
L 642.035208 244.606884 
L 643.305079 252.29149 
L 644.574951 261.408788 
L 645.765456 271.706433 
L 646.797227 282.542985 
L 647.749631 294.826335 
L 648.622668 308.992823 
L 649.416337 325.769578 
L 650.051273 343.804267 
L 650.606842 365.930096 
L 651.083044 395.051887 
L 651.435477 433 
M 652.226379 433 
L 652.591017 394.346764 
L 653.067219 365.832775 
L 653.702155 341.619878 
L 654.416458 322.830703 
L 655.210128 307.385819 
L 656.162531 293.204101 
L 657.194302 281.168176 
L 658.30544 270.748973 
L 659.495945 261.618071 
L 660.765817 253.560737 
L 662.115056 246.432188 
L 663.464294 240.454621 
L 664.8929 235.134101 
L 666.321506 230.673029 
L 667.750112 226.942262 
L 669.099351 224.004354 
L 670.448589 221.574851 
L 671.718461 219.712351 
L 672.988333 218.231697 
L 674.178838 217.170745 
L 675.289976 216.453673 
L 676.401113 215.991773 
L 677.512251 215.779164 
L 678.544022 215.801729 
L 679.575793 216.034764 
L 680.686931 216.521381 
L 681.798069 217.254613 
L 682.988573 218.318908 
L 684.179078 219.679671 
L 685.44895 221.471126 
L 686.798189 223.780084 
L 688.147428 226.536645 
L 689.576033 229.987728 
L 691.004639 234.048194 
L 692.433245 238.802338 
L 693.861851 244.365171 
L 695.21109 250.505555 
L 696.560328 257.703171 
L 697.8302 265.696223 
L 699.020705 274.587843 
L 700.131843 284.527318 
L 701.163614 295.734055 
L 702.116018 308.54129 
L 702.989054 323.48272 
L 703.703357 339.414862 
L 704.338293 358.467252 
L 704.893862 382.410002 
L 705.290697 408.493823 
L 705.533076 433 
L 705.533076 433 
" clip-path="url(#p5a207688ab)" style="fill: none; stroke-dasharray: 5.18,2.24; stroke-dashoffset: 0; stroke: #457b9d; stroke-opacity: 0.55; stroke-width: 1.4"/>
   </g>
   <g id="patch_3">
    <path d="M 55.91 387.16 
L 55.91 27.6 
" style="fill: none; stroke: #000000; stroke-width: 0.8; stroke-linejoin: miter; stroke-linecap: square"/>
   </g>
   <g id="patch_4">
    <path d="M 706.005 387.16 
L 706.005 27.6 
" style="fill: none; stroke: #000000; stroke-width: 0.8; stroke-linejoin: miter; stroke-linecap: square"/>
   </g>
   <g id="patch_5">
    <path d="M 55.91 387.16 
L 706.005 387.16 
" style="fill: none; stroke: #000000; stroke-width: 0.8; stroke-linejoin: miter; stroke-linecap: square"/>
   </g>
   <g id="patch_6">
    <path d="M 55.91 27.6 
L 706.005 27.6 
" style="fill: none; stroke: #000000; stroke-width: 0.8; stroke-linejoin: miter; stroke-linecap: square"/>
   </g>
   <g id="text_16">
    <!-- MSK vs QPSK - Spectral Comparison -->
    <g transform="translate(238.505313 21.6) scale(0.14 -0.14)">
     <defs>
      <path id="DejaVuSans-Bold-4d" d="M 588 4666 
L 2119 4666 
L 3181 2169 
L 4250 4666 
L 5778 4666 
L 5778 0 
L 4641 0 
L 4641 3413 
L 3566 897 
L 2803 897 
L 1728 3413 
L 1728 0 
L 588 0 
L 588 4666 
z
" transform="scale(0.015625)"/>
      <path id="DejaVuSans-Bold-53" d="M 3834 4519 
L 3834 3531 
Q 3450 3703 3084 3790 
Q 2719 3878 2394 3878 
Q 1963 3878 1756 3759 
Q 1550 3641 1550 3391 
Q 1550 3203 1689 3098 
Q 1828 2994 2194 2919 
L 2706 2816 
Q 3484 2659 3812 2340 
Q 4141 2022 4141 1434 
Q 4141 663 3683 286 
Q 3225 -91 2284 -91 
Q 1841 -91 1394 -6 
Q 947 78 500 244 
L 500 1259 
Q 947 1022 1364 901 
Q 1781 781 2169 781 
Q 2563 781 2772 912 
Q 2981 1044 2981 1288 
Q 2981 1506 2839 1625 
Q 2697 1744 2272 1838 
L 1806 1941 
Q 1106 2091 782 2419 
Q 459 2747 459 3303 
Q 459 4000 909 4375 
Q 1359 4750 2203 4750 
Q 2588 4750 2994 4692 
Q 3400 4634 3834 4519 
z
" transform="scale(0.015625)"/>
      <path id="DejaVuSans-Bold-4b" d="M 588 4666 
L 1791 4666 
L 1791 2963 
L 3525 4666 
L 4922 4666 
L 2675 2456 
L 5153 0 
L 3647 0 
L 1791 1838 
L 1791 0 
L 588 0 
L 588 4666 
z
" transform="scale(0.015625)"/>
      <path id="DejaVuSans-Bold-20" transform="scale(0.015625)"/>
      <path id="DejaVuSans-Bold-76" d="M 97 3500 
L 1216 3500 
L 2088 1081 
L 2956 3500 
L 4078 3500 
L 2700 0 
L 1472 0 
L 97 3500 
z
" transform="scale(0.015625)"/>
      <path id="DejaVuSans-Bold-73" d="M 3272 3391 
L 3272 2541 
Q 2913 2691 2578 2766 
Q 2244 2841 1947 2841 
Q 1628 2841 1473 2761 
Q 1319 2681 1319 2516 
Q 1319 2381 1436 2309 
Q 1553 2238 1856 2203 
L 2053 2175 
Q 2913 2066 3209 1816 
Q 3506 1566 3506 1031 
Q 3506 472 3093 190 
Q 2681 -91 1863 -91 
Q 1516 -91 1145 -36 
Q 775 19 384 128 
L 384 978 
Q 719 816 1070 734 
Q 1422 653 1784 653 
Q 2113 653 2278 743 
Q 2444 834 2444 1013 
Q 2444 1163 2330 1236 
Q 2216 1309 1875 1350 
L 1678 1375 
Q 931 1469 631 1722 
Q 331 1975 331 2491 
Q 331 3047 712 3315 
Q 1094 3584 1881 3584 
Q 2191 3584 2531 3537 
Q 2872 3491 3272 3391 
z
" transform="scale(0.015625)"/>
      <path id="DejaVuSans-Bold-51" d="M 2847 -84 
L 2753 -84 
Q 1600 -84 959 553 
Q 319 1191 319 2328 
Q 319 3463 958 4106 
Q 1597 4750 2719 4750 
Q 3853 4750 4486 4112 
Q 5119 3475 5119 2328 
Q 5119 1541 4783 972 
Q 4447 403 3816 116 
L 4756 -934 
L 3609 -934 
L 2847 -84 
z
M 2719 3878 
Q 2169 3878 1866 3472 
Q 1563 3066 1563 2328 
Q 1563 1578 1859 1179 
Q 2156 781 2719 781 
Q 3272 781 3575 1187 
Q 3878 1594 3878 2328 
Q 3878 3066 3575 3472 
Q 3272 3878 2719 3878 
z
" transform="scale(0.015625)"/>
      <path id="DejaVuSans-Bold-50" d="M 588 4666 
L 2584 4666 
Q 3475 4666 3951 4270 
Q 4428 3875 4428 3144 
Q 4428 2409 3951 2014 
Q 3475 1619 2584 1619 
L 1791 1619 
L 1791 0 
L 588 0 
L 588 4666 
z
M 1791 3794 
L 1791 2491 
L 2456 2491 
Q 2806 2491 2997 2661 
Q 3188 2831 3188 3144 
Q 3188 3456 2997 3625 
Q 2806 3794 2456 3794 
L 1791 3794 
z
" transform="scale(0.015625)"/>
      <path id="DejaVuSans-Bold-2d" d="M 347 2297 
L 2309 2297 
L 2309 1388 
L 347 1388 
L 347 2297 
z
" transform="scale(0.015625)"/>
      <path id="DejaVuSans-Bold-70" d="M 1656 506 
L 1656 -1331 
L 538 -1331 
L 538 3500 
L 1656 3500 
L 1656 2988 
Q 1888 3294 2169 3439 
Q 2450 3584 2816 3584 
Q 3463 3584 3878 3070 
Q 4294 2556 4294 1747 
Q 4294 938 3878 423 
Q 3463 -91 2816 -91 
Q 2450 -91 2169 54 
Q 1888 200 1656 506 
z
M 2400 2772 
Q 2041 2772 1848 2508 
Q 1656 2244 1656 1747 
Q 1656 1250 1848 986 
Q 2041 722 2400 722 
Q 2759 722 2948 984 
Q 3138 1247 3138 1747 
Q 3138 2247 2948 2509 
Q 2759 2772 2400 2772 
z
" transform="scale(0.015625)"/>
      <path id="DejaVuSans-Bold-65" d="M 4031 1759 
L 4031 1441 
L 1416 1441 
Q 1456 1047 1700 850 
Q 1944 653 2381 653 
Q 2734 653 3104 758 
Q 3475 863 3866 1075 
L 3866 213 
Q 3469 63 3072 -14 
Q 2675 -91 2278 -91 
Q 1328 -91 801 392 
Q 275 875 275 1747 
Q 275 2603 792 3093 
Q 1309 3584 2216 3584 
Q 3041 3584 3536 3087 
Q 4031 2591 4031 1759 
z
M 2881 2131 
Q 2881 2450 2695 2645 
Q 2509 2841 2209 2841 
Q 1884 2841 1681 2658 
Q 1478 2475 1428 2131 
L 2881 2131 
z
" transform="scale(0.015625)"/>
      <path id="DejaVuSans-Bold-63" d="M 3366 3391 
L 3366 2478 
Q 3138 2634 2908 2709 
Q 2678 2784 2431 2784 
Q 1963 2784 1702 2511 
Q 1441 2238 1441 1747 
Q 1441 1256 1702 982 
Q 1963 709 2431 709 
Q 2694 709 2930 787 
Q 3166 866 3366 1019 
L 3366 103 
Q 3103 6 2833 -42 
Q 2563 -91 2291 -91 
Q 1344 -91 809 395 
Q 275 881 275 1747 
Q 275 2613 809 3098 
Q 1344 3584 2291 3584 
Q 2566 3584 2833 3536 
Q 3100 3488 3366 3391 
z
" transform="scale(0.015625)"/>
      <path id="DejaVuSans-Bold-74" d="M 1759 4494 
L 1759 3500 
L 2913 3500 
L 2913 2700 
L 1759 2700 
L 1759 1216 
Q 1759 972 1856 886 
Q 1953 800 2241 800 
L 2816 800 
L 2816 0 
L 1856 0 
Q 1194 0 917 276 
Q 641 553 641 1216 
L 641 2700 
L 84 2700 
L 84 3500 
L 641 3500 
L 641 4494 
L 1759 4494 
z
" transform="scale(0.015625)"/>
      <path id="DejaVuSans-Bold-72" d="M 3138 2547 
Q 2991 2616 2845 2648 
Q 2700 2681 2553 2681 
Q 2122 2681 1889 2404 
Q 1656 2128 1656 1613 
L 1656 0 
L 538 0 
L 538 3500 
L 1656 3500 
L 1656 2925 
Q 1872 3269 2151 3426 
Q 2431 3584 2822 3584 
Q 2878 3584 2943 3579 
Q 3009 3575 3134 3559 
L 3138 2547 
z
" transform="scale(0.015625)"/>
      <path id="DejaVuSans-Bold-61" d="M 2106 1575 
Q 1756 1575 1579 1456 
Q 1403 1338 1403 1106 
Q 1403 894 1545 773 
Q 1688 653 1941 653 
Q 2256 653 2472 879 
Q 2688 1106 2688 1447 
L 2688 1575 
L 2106 1575 
z
M 3816 1997 
L 3816 0 
L 2688 0 
L 2688 519 
Q 2463 200 2181 54 
Q 1900 -91 1497 -91 
Q 953 -91 614 226 
Q 275 544 275 1050 
Q 275 1666 698 1953 
Q 1122 2241 2028 2241 
L 2688 2241 
L 2688 2328 
Q 2688 2594 2478 2717 
Q 2269 2841 1825 2841 
Q 1466 2841 1156 2769 
Q 847 2697 581 2553 
L 581 3406 
Q 941 3494 1303 3539 
Q 1666 3584 2028 3584 
Q 2975 3584 3395 3211 
Q 3816 2838 3816 1997 
z
" transform="scale(0.015625)"/>
      <path id="DejaVuSans-Bold-6c" d="M 538 4863 
L 1656 4863 
L 1656 0 
L 538 0 
L 538 4863 
z
" transform="scale(0.015625)"/>
      <path id="DejaVuSans-Bold-43" d="M 4288 256 
Q 3956 84 3597 -3 
Q 3238 -91 2847 -91 
Q 1681 -91 1000 561 
Q 319 1213 319 2328 
Q 319 3447 1000 4098 
Q 1681 4750 2847 4750 
Q 3238 4750 3597 4662 
Q 3956 4575 4288 4403 
L 4288 3438 
Q 3953 3666 3628 3772 
Q 3303 3878 2944 3878 
Q 2300 3878 1931 3465 
Q 1563 3053 1563 2328 
Q 1563 1606 1931 1193 
Q 2300 781 2944 781 
Q 3303 781 3628 887 
Q 3953 994 4288 1222 
L 4288 256 
z
" transform="scale(0.015625)"/>
      <path id="DejaVuSans-Bold-6f" d="M 2203 2784 
Q 1831 2784 1636 2517 
Q 1441 2250 1441 1747 
Q 1441 1244 1636 976 
Q 1831 709 2203 709 
Q 2569 709 2762 976 
Q 2956 1244 2956 1747 
Q 2956 2250 2762 2517 
Q 2569 2784 2203 2784 
z
M 2203 3584 
Q 3106 3584 3614 3096 
Q 4122 2609 4122 1747 
Q 4122 884 3614 396 
Q 3106 -91 2203 -91 
Q 1297 -91 786 396 
Q 275 884 275 1747 
Q 275 2609 786 3096 
Q 1297 3584 2203 3584 
z
" transform="scale(0.015625)"/>
      <path id="DejaVuSans-Bold-6d" d="M 3781 2919 
Q 3994 3244 4286 3414 
Q 4578 3584 4928 3584 
Q 5531 3584 5847 3212 
Q 6163 2841 6163 2131 
L 6163 0 
L 5038 0 
L 5038 1825 
Q 5041 1866 5042 1909 
Q 5044 1953 5044 2034 
Q 5044 2406 4934 2573 
Q 4825 2741 4581 2741 
Q 4263 2741 4089 2478 
Q 3916 2216 3909 1719 
L 3909 0 
L 2784 0 
L 2784 1825 
Q 2784 2406 2684 2573 
Q 2584 2741 2328 2741 
Q 2006 2741 1831 2477 
Q 1656 2213 1656 1722 
L 1656 0 
L 531 0 
L 531 3500 
L 1656 3500 
L 1656 2988 
Q 1863 3284 2130 3434 
Q 2397 3584 2719 3584 
Q 3081 3584 3359 3409 
Q 3638 3234 3781 2919 
z
" transform="scale(0.015625)"/>
      <path id="DejaVuSans-Bold-69" d="M 538 3500 
L 1656 3500 
L 1656 0 
L 538 0 
L 538 3500 
z
M 538 4863 
L 1656 4863 
L 1656 3950 
L 538 3950 
L 538 4863 
z
" transform="scale(0.015625)"/>
      <path id="DejaVuSans-Bold-6e" d="M 4056 2131 
L 4056 0 
L 2931 0 
L 2931 347 
L 2931 1631 
Q 2931 2084 2911 2256 
Q 2891 2428 2841 2509 
Q 2775 2619 2662 2680 
Q 2550 2741 2406 2741 
Q 2056 2741 1856 2470 
Q 1656 2200 1656 1722 
L 1656 0 
L 538 0 
L 538 3500 
L 1656 3500 
L 1656 2988 
Q 1909 3294 2193 3439 
Q 2478 3584 2822 3584 
Q 3428 3584 3742 3212 
Q 4056 2841 4056 2131 
z
" transform="scale(0.015625)"/>
     </defs>
     <use xlink:href="#DejaVuSans-Bold-4d"/>
     <use xlink:href="#DejaVuSans-Bold-53" x="99.511719"/>
     <use xlink:href="#DejaVuSans-Bold-4b" x="171.533203"/>
     <use xlink:href="#DejaVuSans-Bold-20" x="249.023438"/>
     <use xlink:href="#DejaVuSans-Bold-76" x="283.837891"/>
     <use xlink:href="#DejaVuSans-Bold-73" x="349.023438"/>
     <use xlink:href="#DejaVuSans-Bold-20" x="408.544922"/>
     <use xlink:href="#DejaVuSans-Bold-51" x="443.359375"/>
     <use xlink:href="#DejaVuSans-Bold-50" x="528.369141"/>
     <use xlink:href="#DejaVuSans-Bold-53" x="601.660156"/>
     <use xlink:href="#DejaVuSans-Bold-4b" x="673.681641"/>
     <use xlink:href="#DejaVuSans-Bold-20" x="751.171875"/>
     <use xlink:href="#DejaVuSans-Bold-2d" x="785.986328"/>
     <use xlink:href="#DejaVuSans-Bold-20" x="827.490234"/>
     <use xlink:href="#DejaVuSans-Bold-53" x="862.304688"/>
     <use xlink:href="#DejaVuSans-Bold-70" x="934.326172"/>
     <use xlink:href="#DejaVuSans-Bold-65" x="1005.908203"/>
     <use xlink:href="#DejaVuSans-Bold-63" x="1073.730469"/>
     <use xlink:href="#DejaVuSans-Bold-74" x="1133.007812"/>
     <use xlink:href="#DejaVuSans-Bold-72" x="1180.810547"/>
     <use xlink:href="#DejaVuSans-Bold-61" x="1230.126953"/>
     <use xlink:href="#DejaVuSans-Bold-6c" x="1297.607422"/>
     <use xlink:href="#DejaVuSans-Bold-20" x="1331.884766"/>
     <use xlink:href="#DejaVuSans-Bold-43" x="1366.699219"/>
     <use xlink:href="#DejaVuSans-Bold-6f" x="1440.087891"/>
     <use xlink:href="#DejaVuSans-Bold-6d" x="1508.789062"/>
     <use xlink:href="#DejaVuSans-Bold-70" x="1612.988281"/>
     <use xlink:href="#DejaVuSans-Bold-61" x="1684.570312"/>
     <use xlink:href="#DejaVuSans-Bold-72" x="1752.050781"/>
     <use xlink:href="#DejaVuSans-Bold-69" x="1801.367188"/>
     <use xlink:href="#DejaVuSans-Bold-73" x="1835.644531"/>
     <use xlink:href="#DejaVuSans-Bold-6f" x="1895.166016"/>
     <use xlink:href="#DejaVuSans-Bold-6e" x="1963.867188"/>
    </g>
   </g>
   <g id="legend_1">
    <g id="patch_7">
     <path d="M 537.800625 90.04125 
L 697.605 90.04125 
Q 700.005 90.04125 700.005 87.64125 
L 700.005 36 
Q 700.005 33.6 697.605 33.6 
L 537.800625 33.6 
Q 535.400625 33.6 535.400625 36 
L 535.400625 87.64125 
Q 535.400625 90.04125 537.800625 90.04125 
z
" style="fill: #ffffff; opacity: 0.8; stroke: #cccccc; stroke-linejoin: miter"/>
    </g>
    <g id="line2d_30">
     <path d="M 540.200625 43.318125 
L 552.200625 43.318125 
L 564.200625 43.318125 
" style="fill: none; stroke: #e63946; stroke-width: 2.2; stroke-linecap: square"/>
    </g>
    <g id="text_17">
     <!-- MSK -->
     <g transform="translate(573.800625 47.518125) scale(0.12 -0.12)">
      <defs>
       <path id="DejaVuSans-4d" d="M 628 4666 
L 1569 4666 
L 2759 1491 
L 3956 4666 
L 4897 4666 
L 4897 0 
L 4281 0 
L 4281 4097 
L 3078 897 
L 2444 897 
L 1241 4097 
L 1241 0 
L 628 0 
L 628 4666 
z
" transform="scale(0.015625)"/>
       <path id="DejaVuSans-4b" d="M 628 4666 
L 1259 4666 
L 1259 2694 
L 3353 4666 
L 4166 4666 
L 1850 2491 
L 4331 0 
L 3500 0 
L 1259 2247 
L 1259 0 
L 628 0 
L 628 4666 
z
" transform="scale(0.015625)"/>
      </defs>
      <use xlink:href="#DejaVuSans-4d"/>
      <use xlink:href="#DejaVuSans-53" x="86.279297"/>
      <use xlink:href="#DejaVuSans-4b" x="149.755859"/>
     </g>
    </g>
    <g id="line2d_31">
     <path d="M 540.200625 60.931875 
L 552.200625 60.931875 
L 564.200625 60.931875 
" style="fill: none; stroke: #457b9d; stroke-width: 2.2; stroke-linecap: square"/>
    </g>
    <g id="text_18">
     <!-- QPSK  (RC α = 0.35) -->
     <g transform="translate(573.800625 65.131875) scale(0.12 -0.12)">
      <defs>
       <path id="DejaVuSans-51" d="M 2522 4238 
Q 1834 4238 1429 3725 
Q 1025 3213 1025 2328 
Q 1025 1447 1429 934 
Q 1834 422 2522 422 
Q 3209 422 3611 934 
Q 4013 1447 4013 2328 
Q 4013 3213 3611 3725 
Q 3209 4238 2522 4238 
z
M 3406 84 
L 4238 -825 
L 3475 -825 
L 2784 -78 
Q 2681 -84 2626 -87 
Q 2572 -91 2522 -91 
Q 1538 -91 948 567 
Q 359 1225 359 2328 
Q 359 3434 948 4092 
Q 1538 4750 2522 4750 
Q 3503 4750 4090 4092 
Q 4678 3434 4678 2328 
Q 4678 1516 4351 937 
Q 4025 359 3406 84 
z
" transform="scale(0.015625)"/>
       <path id="DejaVuSans-28" d="M 1984 4856 
Q 1566 4138 1362 3434 
Q 1159 2731 1159 2009 
Q 1159 1288 1364 580 
Q 1569 -128 1984 -844 
L 1484 -844 
Q 1016 -109 783 600 
Q 550 1309 550 2009 
Q 550 2706 781 3412 
Q 1013 4119 1484 4856 
L 1984 4856 
z
" transform="scale(0.015625)"/>
       <path id="DejaVuSans-52" d="M 2841 2188 
Q 3044 2119 3236 1894 
Q 3428 1669 3622 1275 
L 4263 0 
L 3584 0 
L 2988 1197 
Q 2756 1666 2539 1819 
Q 2322 1972 1947 1972 
L 1259 1972 
L 1259 0 
L 628 0 
L 628 4666 
L 2053 4666 
Q 2853 4666 3247 4331 
Q 3641 3997 3641 3322 
Q 3641 2881 3436 2590 
Q 3231 2300 2841 2188 
z
M 1259 4147 
L 1259 2491 
L 2053 2491 
Q 2509 2491 2742 2702 
Q 2975 2913 2975 3322 
Q 2975 3731 2742 3939 
Q 2509 4147 2053 4147 
L 1259 4147 
z
" transform="scale(0.015625)"/>
       <path id="DejaVuSans-43" d="M 4122 4306 
L 4122 3641 
Q 3803 3938 3442 4084 
Q 3081 4231 2675 4231 
Q 1875 4231 1450 3742 
Q 1025 3253 1025 2328 
Q 1025 1406 1450 917 
Q 1875 428 2675 428 
Q 3081 428 3442 575 
Q 3803 722 4122 1019 
L 4122 359 
Q 3791 134 3420 21 
Q 3050 -91 2638 -91 
Q 1578 -91 968 557 
Q 359 1206 359 2328 
Q 359 3453 968 4101 
Q 1578 4750 2638 4750 
Q 3056 4750 3426 4639 
Q 3797 4528 4122 4306 
z
" transform="scale(0.015625)"/>
       <path id="DejaVuSans-3b1" d="M 2644 1628 
L 2506 2350 
Q 2366 3091 1809 3091 
Q 1391 3091 1200 2747 
Q 959 2316 959 1747 
Q 959 1059 1194 731 
Q 1431 397 1809 397 
Q 2228 397 2453 1063 
L 2644 1628 
z
M 2966 2584 
L 3275 3500 
L 3788 3500 
L 3147 1603 
L 3272 919 
Q 3300 766 3409 638 
Q 3538 488 3638 488 
L 3913 488 
L 3913 0 
L 3569 0 
Q 3275 0 3013 263 
Q 2884 394 2831 669 
Q 2688 322 2394 50 
Q 2256 -78 1809 -78 
Q 1075 -78 719 397 
Q 353 888 353 1747 
Q 353 2666 750 3097 
Q 1191 3578 1809 3578 
Q 2781 3578 2966 2584 
z
" transform="scale(0.015625)"/>
       <path id="DejaVuSans-3d" d="M 678 2906 
L 4684 2906 
L 4684 2381 
L 678 2381 
L 678 2906 
z
M 678 1631 
L 4684 1631 
L 4684 1100 
L 678 1100 
L 678 1631 
z
" transform="scale(0.015625)"/>
       <path id="DejaVuSans-2e" d="M 684 794 
L 1344 794 
L 1344 0 
L 684 0 
L 684 794 
z
" transform="scale(0.015625)"/>
       <path id="DejaVuSans-29" d="M 513 4856 
L 1013 4856 
Q 1481 4119 1714 3412 
Q 1947 2706 1947 2009 
Q 1947 1309 1714 600 
Q 1481 -109 1013 -844 
L 513 -844 
Q 928 -128 1133 580 
Q 1338 1288 1338 2009 
Q 1338 2731 1133 3434 
Q 928 4138 513 4856 
z
" transform="scale(0.015625)"/>
      </defs>
      <use xlink:href="#DejaVuSans-51"/>
      <use xlink:href="#DejaVuSans-50" x="78.710938"/>
      <use xlink:href="#DejaVuSans-53" x="139.013672"/>
      <use xlink:href="#DejaVuSans-4b" x="202.490234"/>
      <use xlink:href="#DejaVuSans-20" x="268.066406"/>
      <use xlink:href="#DejaVuSans-20" x="299.853516"/>
      <use xlink:href="#DejaVuSans-28" x="331.640625"/>
      <use xlink:href="#DejaVuSans-52" x="370.654297"/>
      <use xlink:href="#DejaVuSans-43" x="435.136719"/>
      <use xlink:href="#DejaVuSans-20" x="504.960938"/>
      <use xlink:href="#DejaVuSans-3b1" x="536.748047"/>
      <use xlink:href="#DejaVuSans-20" x="602.666016"/>
      <use xlink:href="#DejaVuSans-3d" x="634.453125"/>
      <use xlink:href="#DejaVuSans-20" x="718.242188"/>
      <use xlink:href="#DejaVuSans-30" x="750.029297"/>
      <use xlink:href="#DejaVuSans-2e" x="813.652344"/>
      <use xlink:href="#DejaVuSans-33" x="845.439453"/>
      <use xlink:href="#DejaVuSans-35" x="909.0625"/>
      <use xlink:href="#DejaVuSans-29" x="972.685547"/>
     </g>
    </g>
    <g id="line2d_32">
     <path d="M 540.200625 78.545625 
L 552.200625 78.545625 
L 564.200625 78.545625 
" style="fill: none; stroke-dasharray: 5.18,2.24; stroke-dashoffset: 0; stroke: #457b9d; stroke-opacity: 0.55; stroke-width: 1.4"/>
    </g>
    <g id="text_19">
     <!-- QPSK  (rectangular) -->
     <g transform="translate(573.800625 82.745625) scale(0.12 -0.12)">
      <defs>
       <path id="DejaVuSans-67" d="M 2906 1791 
Q 2906 2416 2648 2759 
Q 2391 3103 1925 3103 
Q 1463 3103 1205 2759 
Q 947 2416 947 1791 
Q 947 1169 1205 825 
Q 1463 481 1925 481 
Q 2391 481 2648 825 
Q 2906 1169 2906 1791 
z
M 3481 434 
Q 3481 -459 3084 -895 
Q 2688 -1331 1869 -1331 
Q 1566 -1331 1297 -1286 
Q 1028 -1241 775 -1147 
L 775 -588 
Q 1028 -725 1275 -790 
Q 1522 -856 1778 -856 
Q 2344 -856 2625 -561 
Q 2906 -266 2906 331 
L 2906 616 
Q 2728 306 2450 153 
Q 2172 0 1784 0 
Q 1141 0 747 490 
Q 353 981 353 1791 
Q 353 2603 747 3093 
Q 1141 3584 1784 3584 
Q 2172 3584 2450 3431 
Q 2728 3278 2906 2969 
L 2906 3500 
L 3481 3500 
L 3481 434 
z
" transform="scale(0.015625)"/>
      </defs>
      <use xlink:href="#DejaVuSans-51"/>
      <use xlink:href="#DejaVuSans-50" x="78.710938"/>
      <use xlink:href="#DejaVuSans-53" x="139.013672"/>
      <use xlink:href="#DejaVuSans-4b" x="202.490234"/>
      <use xlink:href="#DejaVuSans-20" x="268.066406"/>
      <use xlink:href="#DejaVuSans-20" x="299.853516"/>
      <use xlink:href="#DejaVuSans-28" x="331.640625"/>
      <use xlink:href="#DejaVuSans-72" x="370.654297"/>
      <use xlink:href="#DejaVuSans-65" x="409.517578"/>
      <use xlink:href="#DejaVuSans-63" x="471.041016"/>
      <use xlink:href="#DejaVuSans-74" x="526.021484"/>
      <use xlink:href="#DejaVuSans-61" x="565.230469"/>
      <use xlink:href="#DejaVuSans-6e" x="626.509766"/>
      <use xlink:href="#DejaVuSans-67" x="689.888672"/>
      <use xlink:href="#DejaVuSans-75" x="753.365234"/>
      <use xlink:href="#DejaVuSans-6c" x="816.744141"/>
      <use xlink:href="#DejaVuSans-61" x="844.527344"/>
      <use xlink:href="#DejaVuSans-72" x="905.806641"/>
      <use xlink:href="#DejaVuSans-29" x="946.919922"/>
     </g>
    </g>
   </g>
  </g>
 </g>
 <defs>
  <clipPath id="p5a207688ab">
   <rect x="55.91" y="27.6" width="650.095" height="359.56"/>
  </clipPath>
 </defs>
</svg>
