<?xml version="1.0" encoding="UTF-8" standalone="no"?>
<svg
   width="312.19989pt"
   height="166.45912pt"
   viewBox="0 0 312.1999 166.45913"
   version="1.1"
   id="svg384"
   sodipodi:docname="null_steering.svg"
   inkscape:version="1.2.1 (9c6d41e410, 2022-07-14)"
   xmlns:inkscape="http://www.inkscape.org/namespaces/inkscape"
   xmlns:sodipodi="http://sodipodi.sourceforge.net/DTD/sodipodi-0.dtd"
   xmlns:xlink="http://www.w3.org/1999/xlink"
   xmlns="http://www.w3.org/2000/svg"
   xmlns:svg="http://www.w3.org/2000/svg"
   xmlns:rdf="http://www.w3.org/1999/02/22-rdf-syntax-ns#"
   xmlns:cc="http://creativecommons.org/ns#"
   xmlns:dc="http://purl.org/dc/elements/1.1/">
  <sodipodi:namedview
     id="namedview386"
     pagecolor="#ffffff"
     bordercolor="#000000"
     borderopacity="0.25"
     inkscape:showpageshadow="2"
     inkscape:pageopacity="0.0"
     inkscape:pagecheckerboard="0"
     inkscape:deskcolor="#d1d1d1"
     inkscape:document-units="pt"
     showgrid="false"
     inkscape:zoom="2.7458719"
     inkscape:cx="150.22551"
     inkscape:cy="113.26093"
     inkscape:window-width="2560"
     inkscape:window-height="1369"
     inkscape:window-x="-8"
     inkscape:window-y="-8"
     inkscape:window-maximized="1"
     inkscape:current-layer="svg384" />
  <metadata
     id="metadata2">
    <rdf:RDF>
      <cc:Work>
        <dc:type
           rdf:resource="http://purl.org/dc/dcmitype/StillImage" />
        <dc:date>2024-05-03T20:15:26.369633</dc:date>
        <dc:format>image/svg+xml</dc:format>
        <dc:creator>
          <cc:Agent>
            <dc:title>Matplotlib v3.8.0, https://matplotlib.org/</dc:title>
          </cc:Agent>
        </dc:creator>
      </cc:Work>
    </rdf:RDF>
  </metadata>
  <defs
     id="defs6">
    <style
       type="text/css"
       id="style4">*{stroke-linejoin: round; stroke-linecap: butt}</style>
  </defs>
  <g
     id="patch_2"
     transform="translate(-7.6890625,-55.0655)">
    <path
       d="m 297.97841,206.784 c 0,-35.27511 -14.02793,-69.14153 -38.9712,-94.0848 -24.94327,-24.94327 -58.80969,-38.9712 -94.0848,-38.9712 -35.27511,0 -69.141533,14.02793 -94.084804,38.9712 -24.94327,24.94327 -38.9712,58.80969 -38.9712,94.0848 H 164.92241 c 0,0 0,0 0,0 0,0 0,0 0,0 0,0 0,0 0,0 0,0 0,0 0,0 z"
       style="fill:#ffffff"
       id="path11" />
  </g>
  <g
     id="matplotlib.axis_1"
     transform="translate(-7.6890625,-55.0655)">
    <g
       id="xtick_1">
      <g
         id="line2d_1">
        <path
           d="M 164.92241,206.784 H 31.866406"
           clip-path="url(#p7f2c4286be)"
           style="fill:none;stroke:#b0b0b0;stroke-width:0.8;stroke-linecap:square"
           id="path14" />
      </g>
      <g
         id="text_1">
        <!-- -90° -->
        <g
           transform="matrix(0.1,0,0,-0.1,7.2,209.54337)"
           id="g31">
          <defs
             id="defs21">
            <path
               id="DejaVuSans-2d"
               d="M 313,2009 H 1997 V 1497 H 313 Z"
               transform="scale(0.015625)" />
            <path
               id="DejaVuSans-39"
               d="m 703,97 v 575 q 238,-113 481,-172 244,-59 479,-59 625,0 954,420 330,420 377,1277 -181,-269 -460,-413 -278,-144 -615,-144 -700,0 -1108,423 -408,424 -408,1159 0,718 425,1152 425,435 1131,435 810,0 1236,-621 427,-620 427,-1801 Q 3622,1225 3098,567 2575,-91 1691,-91 1453,-91 1209,-44 966,3 703,97 Z m 1256,1978 q 425,0 673,290 249,291 249,798 0,503 -249,795 -248,292 -673,292 -425,0 -673,-292 -248,-292 -248,-795 0,-507 248,-798 248,-290 673,-290 z"
               transform="scale(0.015625)" />
            <path
               id="DejaVuSans-30"
               d="m 2034,4250 q -487,0 -733,-480 -245,-479 -245,-1442 0,-959 245,-1439 246,-480 733,-480 491,0 736,480 246,480 246,1439 0,963 -246,1442 -245,480 -736,480 z m 0,500 q 785,0 1199,-621 414,-620 414,-1801 0,-1178 -414,-1799 -414,-620 -1199,-620 -784,0 -1198,620 -414,621 -414,1799 0,1181 414,1801 414,621 1198,621 z"
               transform="scale(0.015625)" />
            <path
               id="DejaVuSans-b0"
               d="m 1600,4347 q -250,0 -422,-174 -172,-173 -172,-423 0,-247 172,-417 172,-170 422,-170 250,0 422,170 172,170 172,417 0,247 -174,422 -173,175 -420,175 z m 0,403 q 200,0 384,-77 185,-76 319,-220 144,-140 216,-319 72,-178 72,-384 0,-412 -289,-698 -289,-286 -708,-286 -422,0 -704,281 -281,281 -281,703 0,419 287,709 288,291 704,291 z"
               transform="scale(0.015625)" />
          </defs>
          <use
             xlink:href="#DejaVuSans-2d"
             id="use23" />
          <use
             xlink:href="#DejaVuSans-39"
             x="36.083984"
             id="use25" />
          <use
             xlink:href="#DejaVuSans-30"
             x="99.707031"
             id="use27" />
          <use
             xlink:href="#DejaVuSans-b0"
             x="163.33008"
             id="use29" />
        </g>
      </g>
    </g>
    <g
       id="xtick_2">
      <g
         id="line2d_2">
        <path
           d="M 164.92241,206.784 36.40018,172.34657"
           clip-path="url(#p7f2c4286be)"
           style="fill:none;stroke:#b0b0b0;stroke-width:0.8;stroke-linecap:square"
           id="path35" />
      </g>
      <g
         id="text_2">
        <!-- -75° -->
        <g
           transform="matrix(0.1,0,0,-0.1,12.210812,171.48248)"
           id="g50">
          <defs
             id="defs40">
            <path
               id="DejaVuSans-37"
               d="M 525,4666 H 3525 V 4397 L 1831,0 H 1172 L 2766,4134 H 525 Z"
               transform="scale(0.015625)" />
            <path
               id="DejaVuSans-35"
               d="M 691,4666 H 3169 V 4134 H 1269 V 2991 q 137,47 274,70 138,23 276,23 781,0 1237,-428 457,-428 457,-1159 Q 3513,744 3044,326 2575,-91 1722,-91 1428,-91 1123,-41 819,9 494,109 v 635 q 281,-153 581,-228 300,-75 634,-75 541,0 856,284 316,284 316,772 0,487 -316,771 -315,285 -856,285 -253,0 -505,-56 -251,-56 -513,-175 z"
               transform="scale(0.015625)" />
          </defs>
          <use
             xlink:href="#DejaVuSans-2d"
             id="use42" />
          <use
             xlink:href="#DejaVuSans-37"
             x="36.083984"
             id="use44" />
          <use
             xlink:href="#DejaVuSans-35"
             x="99.707031"
             id="use46" />
          <use
             xlink:href="#DejaVuSans-b0"
             x="163.33008"
             id="use48" />
        </g>
      </g>
    </g>
    <g
       id="xtick_3">
      <g
         id="line2d_3">
        <path
           d="M 164.92241,206.784 49.69253,140.256"
           clip-path="url(#p7f2c4286be)"
           style="fill:none;stroke:#b0b0b0;stroke-width:0.8;stroke-linecap:square"
           id="path54" />
      </g>
      <g
         id="text_3">
        <!-- -60° -->
        <g
           transform="matrix(0.1,0,0,-0.1,26.901768,136.01537)"
           id="g68">
          <defs
             id="defs58">
            <path
               id="DejaVuSans-36"
               d="m 2113,2584 q -425,0 -674,-291 -248,-290 -248,-796 0,-503 248,-796 249,-292 674,-292 425,0 673,292 248,293 248,796 0,506 -248,796 -248,291 -673,291 z m 1253,1979 v -575 q -238,112 -480,171 -242,60 -480,60 -625,0 -955,-422 -329,-422 -376,-1275 184,272 462,417 279,145 613,145 703,0 1111,-427 408,-426 408,-1160 0,-719 -425,-1154 -425,-434 -1131,-434 -810,0 -1238,620 -428,621 -428,1799 0,1106 525,1764 525,658 1409,658 238,0 480,-47 242,-47 505,-140 z"
               transform="scale(0.015625)" />
          </defs>
          <use
             xlink:href="#DejaVuSans-2d"
             id="use60" />
          <use
             xlink:href="#DejaVuSans-36"
             x="36.083984"
             id="use62" />
          <use
             xlink:href="#DejaVuSans-30"
             x="99.707031"
             id="use64" />
          <use
             xlink:href="#DejaVuSans-b0"
             x="163.33008"
             id="use66" />
        </g>
      </g>
    </g>
    <g
       id="xtick_4">
      <g
         id="line2d_4">
        <path
           d="M 164.92241,206.784 70.837606,112.6992"
           clip-path="url(#p7f2c4286be)"
           style="fill:none;stroke:#b0b0b0;stroke-width:0.8;stroke-linecap:square"
           id="path72" />
      </g>
      <g
         id="text_4">
        <!-- -45° -->
        <g
           transform="matrix(0.1,0,0,-0.1,50.271705,105.55908)"
           id="g86">
          <defs
             id="defs76">
            <path
               id="DejaVuSans-34"
               d="M 2419,4116 825,1625 h 1594 z m -166,550 h 794 V 1625 h 666 V 1100 H 3047 V 0 H 2419 V 1100 H 313 v 609 z"
               transform="scale(0.015625)" />
          </defs>
          <use
             xlink:href="#DejaVuSans-2d"
             id="use78" />
          <use
             xlink:href="#DejaVuSans-34"
             x="36.083984"
             id="use80" />
          <use
             xlink:href="#DejaVuSans-35"
             x="99.707031"
             id="use82" />
          <use
             xlink:href="#DejaVuSans-b0"
             x="163.33008"
             id="use84" />
        </g>
      </g>
    </g>
    <g
       id="xtick_5">
      <g
         id="line2d_5">
        <path
           d="M 164.92241,206.784 98.394406,91.554124"
           clip-path="url(#p7f2c4286be)"
           style="fill:none;stroke:#b0b0b0;stroke-width:0.8;stroke-linecap:square"
           id="path90" />
      </g>
      <g
         id="text_5">
        <!-- -30° -->
        <g
           transform="matrix(0.1,0,0,-0.1,80.728,82.189143)"
           id="g104">
          <defs
             id="defs94">
            <path
               id="DejaVuSans-33"
               d="m 2597,2516 q 453,-97 707,-404 255,-306 255,-756 0,-690 -475,-1069 -475,-378 -1350,-378 -293,0 -604,58 -311,58 -642,174 v 609 q 262,-153 574,-231 313,-78 654,-78 593,0 904,234 311,234 311,681 0,413 -289,645 -289,233 -804,233 h -544 v 519 h 569 q 465,0 712,186 247,186 247,536 0,359 -255,551 -254,193 -729,193 -260,0 -557,-57 -297,-56 -653,-174 v 562 q 360,100 674,150 314,50 592,50 719,0 1137,-327 419,-326 419,-882 0,-388 -222,-655 -222,-267 -631,-370 z"
               transform="scale(0.015625)" />
          </defs>
          <use
             xlink:href="#DejaVuSans-2d"
             id="use96" />
          <use
             xlink:href="#DejaVuSans-33"
             x="36.083984"
             id="use98" />
          <use
             xlink:href="#DejaVuSans-30"
             x="99.707031"
             id="use100" />
          <use
             xlink:href="#DejaVuSans-b0"
             x="163.33008"
             id="use102" />
        </g>
      </g>
    </g>
    <g
       id="xtick_6">
      <g
         id="line2d_6">
        <path
           d="M 164.92241,206.784 130.48498,78.261773"
           clip-path="url(#p7f2c4286be)"
           style="fill:none;stroke:#b0b0b0;stroke-width:0.8;stroke-linecap:square"
           id="path108" />
      </g>
      <g
         id="text_6">
        <!-- -15° -->
        <g
           transform="matrix(0.1,0,0,-0.1,116.19511,67.498187)"
           id="g122">
          <defs
             id="defs112">
            <path
               id="DejaVuSans-31"
               d="M 794,531 H 1825 V 4091 L 703,3866 v 575 l 1116,225 h 631 V 531 H 3481 V 0 H 794 Z"
               transform="scale(0.015625)" />
          </defs>
          <use
             xlink:href="#DejaVuSans-2d"
             id="use114" />
          <use
             xlink:href="#DejaVuSans-31"
             x="36.083984"
             id="use116" />
          <use
             xlink:href="#DejaVuSans-35"
             x="99.707031"
             id="use118" />
          <use
             xlink:href="#DejaVuSans-b0"
             x="163.33008"
             id="use120" />
        </g>
      </g>
    </g>
    <g
       id="xtick_7">
      <g
         id="line2d_7">
        <path
           d="M 164.92241,206.784 V 73.728"
           clip-path="url(#p7f2c4286be)"
           style="fill:none;stroke:#b0b0b0;stroke-width:0.8;stroke-linecap:square"
           id="path126" />
      </g>
      <g
         id="text_7">
        <!-- 0° -->
        <g
           transform="matrix(0.1,0,0,-0.1,159.24116,62.487375)"
           id="g133">
          <use
             xlink:href="#DejaVuSans-30"
             id="use129" />
          <use
             xlink:href="#DejaVuSans-b0"
             x="63.623047"
             id="use131" />
        </g>
      </g>
    </g>
    <g
       id="xtick_8">
      <g
         id="line2d_8">
        <path
           d="M 164.92241,206.784 199.35983,78.261773"
           clip-path="url(#p7f2c4286be)"
           style="fill:none;stroke:#b0b0b0;stroke-width:0.8;stroke-linecap:square"
           id="path137" />
      </g>
      <g
         id="text_8">
        <!-- 15° -->
        <g
           transform="matrix(0.1,0,0,-0.1,194.1208,67.498187)"
           id="g146">
          <use
             xlink:href="#DejaVuSans-31"
             id="use140" />
          <use
             xlink:href="#DejaVuSans-35"
             x="63.623047"
             id="use142" />
          <use
             xlink:href="#DejaVuSans-b0"
             x="127.24609"
             id="use144" />
        </g>
      </g>
    </g>
    <g
       id="xtick_9">
      <g
         id="line2d_9">
        <path
           d="m 164.92241,206.784 66.528,-115.229876"
           clip-path="url(#p7f2c4286be)"
           style="fill:none;stroke:#b0b0b0;stroke-width:0.8;stroke-linecap:square"
           id="path150" />
      </g>
      <g
         id="text_9">
        <!-- 30° -->
        <g
           transform="matrix(0.1,0,0,-0.1,229.58791,82.189143)"
           id="g159">
          <use
             xlink:href="#DejaVuSans-33"
             id="use153" />
          <use
             xlink:href="#DejaVuSans-30"
             x="63.623047"
             id="use155" />
          <use
             xlink:href="#DejaVuSans-b0"
             x="127.24609"
             id="use157" />
        </g>
      </g>
    </g>
    <g
       id="xtick_10">
      <g
         id="line2d_10">
        <path
           d="m 164.92241,206.784 94.0848,-94.0848"
           clip-path="url(#p7f2c4286be)"
           style="fill:none;stroke:#b0b0b0;stroke-width:0.8;stroke-linecap:square"
           id="path163" />
      </g>
      <g
         id="text_10">
        <!-- 45° -->
        <g
           transform="matrix(0.1,0,0,-0.1,260.0442,105.55908)"
           id="g172">
          <use
             xlink:href="#DejaVuSans-34"
             id="use166" />
          <use
             xlink:href="#DejaVuSans-35"
             x="63.623047"
             id="use168" />
          <use
             xlink:href="#DejaVuSans-b0"
             x="127.24609"
             id="use170" />
        </g>
      </g>
    </g>
    <g
       id="xtick_11">
      <g
         id="line2d_11">
        <path
           d="M 164.92241,206.784 280.15228,140.256"
           clip-path="url(#p7f2c4286be)"
           style="fill:none;stroke:#b0b0b0;stroke-width:0.8;stroke-linecap:square"
           id="path176" />
      </g>
      <g
         id="text_11">
        <!-- 60° -->
        <g
           transform="matrix(0.1,0,0,-0.1,283.41414,136.01537)"
           id="g185">
          <use
             xlink:href="#DejaVuSans-36"
             id="use179" />
          <use
             xlink:href="#DejaVuSans-30"
             x="63.623047"
             id="use181" />
          <use
             xlink:href="#DejaVuSans-b0"
             x="127.24609"
             id="use183" />
        </g>
      </g>
    </g>
    <g
       id="xtick_12">
      <g
         id="line2d_12">
        <path
           d="M 164.92241,206.784 293.44463,172.34657"
           clip-path="url(#p7f2c4286be)"
           style="fill:none;stroke:#b0b0b0;stroke-width:0.8;stroke-linecap:square"
           id="path189" />
      </g>
      <g
         id="text_12">
        <!-- 75° -->
        <g
           transform="matrix(0.1,0,0,-0.1,298.10509,171.48248)"
           id="g198">
          <use
             xlink:href="#DejaVuSans-37"
             id="use192" />
          <use
             xlink:href="#DejaVuSans-35"
             x="63.623047"
             id="use194" />
          <use
             xlink:href="#DejaVuSans-b0"
             x="127.24609"
             id="use196" />
        </g>
      </g>
    </g>
    <g
       id="xtick_13">
      <g
         id="line2d_13">
        <path
           d="m 164.92241,206.784 h 133.056"
           clip-path="url(#p7f2c4286be)"
           style="fill:none;stroke:#b0b0b0;stroke-width:0.8;stroke-linecap:square"
           id="path202" />
      </g>
      <g
         id="text_13">
        <!-- 90° -->
        <g
           transform="matrix(0.1,0,0,-0.1,303.11591,209.54337)"
           id="g211">
          <use
             xlink:href="#DejaVuSans-39"
             id="use205" />
          <use
             xlink:href="#DejaVuSans-30"
             x="63.623047"
             id="use207" />
          <use
             xlink:href="#DejaVuSans-b0"
             x="127.24609"
             id="use209" />
        </g>
      </g>
    </g>
  </g>
  <g
     id="line2d_14"
     transform="translate(-7.6890625,-55.0655)">
    <path
       d="m 164.92241,206.784 c 0,0 0,0 0,0 0,0 0,0 0,0 0,0 0,0 0,0 0,0 0,0 0,0"
       clip-path="url(#p7f2c4286be)"
       style="fill:none;stroke:#b0b0b0;stroke-width:0.8;stroke-linecap:square"
       id="path216" />
  </g>
  <g
     id="text_14"
     transform="translate(-10.689063,-59.5655)">
    <!-- −40 -->
    <g
       transform="matrix(0.1,0,0,-0.1,154.37006,221.38244)"
       id="g228">
      <defs
         id="defs220">
        <path
           id="DejaVuSans-2212"
           d="M 678,2272 H 4684 V 1741 H 678 Z"
           transform="scale(0.015625)" />
      </defs>
      <use
         xlink:href="#DejaVuSans-2212"
         id="use222" />
      <use
         xlink:href="#DejaVuSans-34"
         x="83.789062"
         id="use224" />
      <use
         xlink:href="#DejaVuSans-30"
         x="147.41211"
         id="use226" />
    </g>
  </g>
  <g
     id="line2d_15"
     transform="translate(-7.6890625,-55.0655)">
    <path
       d="m 148.69606,206.784 c 0,-4.30184 1.71073,-8.43189 4.75259,-11.47376 3.04186,-3.04186 7.17191,-4.75258 11.47376,-4.75258 4.30184,0 8.43189,1.71072 11.47375,4.75258 3.04186,3.04187 4.75259,7.17192 4.75259,11.47376"
       clip-path="url(#p7f2c4286be)"
       style="fill:none;stroke:#b0b0b0;stroke-width:0.8;stroke-linecap:square"
       id="path232" />
  </g>
  <g
     id="line2d_16"
     transform="translate(-7.6890625,-55.0655)">
    <path
       d="m 132.46972,206.784 c 0,-8.60369 3.42145,-16.86379 9.50517,-22.94751 6.08373,-6.08373 14.34383,-9.50517 22.94752,-9.50517 8.60368,0 16.86378,3.42144 22.94751,9.50517 6.08372,6.08372 9.50517,14.34382 9.50517,22.94751"
       clip-path="url(#p7f2c4286be)"
       style="fill:none;stroke:#b0b0b0;stroke-width:0.8;stroke-linecap:square"
       id="path245" />
  </g>
  <g
     id="text_16"
     transform="translate(-10.689063,-59.5655)">
    <!-- −30 -->
    <g
       transform="matrix(0.1,0,0,-0.1,121.91738,221.38244)"
       id="g254">
      <use
         xlink:href="#DejaVuSans-2212"
         id="use248" />
      <use
         xlink:href="#DejaVuSans-33"
         x="83.789062"
         id="use250" />
      <use
         xlink:href="#DejaVuSans-30"
         x="147.41211"
         id="use252" />
    </g>
  </g>
  <g
     id="line2d_17"
     transform="translate(-7.6890625,-55.0655)">
    <path
       d="m 116.24338,206.784 c 0,-12.90553 5.13217,-25.29568 14.25776,-34.42127 9.12558,-9.12559 21.51574,-14.25775 34.42127,-14.25775 12.90552,0 25.29568,5.13216 34.42126,14.25775 9.12559,9.12559 14.25776,21.51574 14.25776,34.42127"
       clip-path="url(#p7f2c4286be)"
       style="fill:none;stroke:#b0b0b0;stroke-width:0.8;stroke-linecap:square"
       id="path258" />
  </g>
  <g
     id="line2d_18"
     transform="translate(-7.6890625,-55.0655)">
    <path
       d="m 100.01704,206.784 c 0,-17.20737 6.84289,-33.72758 19.01034,-45.89502 12.16745,-12.16745 28.68765,-19.01035 45.89503,-19.01035 17.20737,0 33.72757,6.8429 45.89502,19.01035 12.16745,12.16744 19.01034,28.68765 19.01034,45.89502"
       clip-path="url(#p7f2c4286be)"
       style="fill:none;stroke:#b0b0b0;stroke-width:0.8;stroke-linecap:square"
       id="path274" />
  </g>
  <g
     id="text_18"
     transform="translate(-10.689063,-59.5655)">
    <!-- −20 -->
    <g
       transform="matrix(0.1,0,0,-0.1,89.464697,221.38244)"
       id="g283">
      <use
         xlink:href="#DejaVuSans-2212"
         id="use277" />
      <path
         id="use279"
         d="m 102.97656,8.296875 h 34.42188 V 0 H 91.117187 v 8.296875 q 5.609375,5.8125 15.296873,15.59375 9.70313,9.796875 12.1875,12.640625 4.73438,5.3125 6.60938,9 1.89062,3.6875 1.89062,7.25 0,5.8125 -4.07812,9.46875 -4.07813,3.671875 -10.625,3.671875 -4.64063,0 -9.79688,-1.609375 -5.140623,-1.609375 -10.999998,-4.890625 v 9.96875 Q 97.554687,71.78125 102.72656,73 q 5.1875,1.21875 9.48438,1.21875 11.32812,0 18.0625,-5.671875 6.73437,-5.65625 6.73437,-15.125 0,-4.5 -1.6875,-8.53125 -1.67187,-4.015625 -6.125,-9.484375 -1.21875,-1.421875 -7.76562,-8.1875 -6.53125,-6.765625 -18.45313,-18.921875 z"
         style="stroke-width:0.015625" />
      <use
         xlink:href="#DejaVuSans-30"
         x="147.41211"
         id="use281" />
    </g>
  </g>
  <g
     id="line2d_19"
     transform="translate(-7.6890625,-55.0655)">
    <path
       d="m 83.790699,206.784 c 0,-21.50921 8.553616,-42.15947 23.762931,-57.36878 15.20931,-15.20931 35.85956,-23.76293 57.36878,-23.76293 21.50921,0 42.15946,8.55362 57.36878,23.76293 15.20931,15.20931 23.76292,35.85957 23.76292,57.36878"
       clip-path="url(#p7f2c4286be)"
       style="fill:none;stroke:#b0b0b0;stroke-width:0.8;stroke-linecap:square"
       id="path287" />
  </g>
  <g
     id="line2d_20"
     transform="translate(-7.6890625,-55.0655)">
    <path
       d="m 67.564357,206.784 c 0,-25.81106 10.264339,-50.59136 28.515513,-68.84254 18.25117,-18.25117 43.03148,-28.51551 68.84254,-28.51551 25.81105,0 50.59136,10.26434 68.84253,28.51551 18.25118,18.25118 28.51552,43.03148 28.51552,68.84254"
       clip-path="url(#p7f2c4286be)"
       style="fill:none;stroke:#b0b0b0;stroke-width:0.8;stroke-linecap:square"
       id="path300" />
  </g>
  <use
     xlink:href="#DejaVuSans-2212"
     id="use303"
     transform="matrix(0.1,0,0,-0.1,46.322952,161.81694)" />
  <use
     xlink:href="#DejaVuSans-31"
     x="83.789062"
     id="use305"
     transform="matrix(0.1,0,0,-0.1,46.322952,161.81694)" />
  <use
     xlink:href="#DejaVuSans-30"
     x="147.41211"
     id="use307"
     transform="matrix(0.1,0,0,-0.1,46.322952,161.81694)" />
  <g
     id="line2d_21"
     transform="translate(-7.6890625,-55.0655)">
    <path
       d="m 51.338016,206.784 c 0,-30.1129 11.975062,-59.02326 33.268098,-80.31629 21.293036,-21.29304 50.203396,-33.2681 80.316296,-33.2681 30.1129,0 59.02325,11.97506 80.31629,33.2681 21.29304,21.29303 33.2681,50.20339 33.2681,80.31629"
       clip-path="url(#p7f2c4286be)"
       style="fill:none;stroke:#b0b0b0;stroke-width:0.8;stroke-linecap:square"
       id="path313" />
  </g>
  <g
     id="line2d_22"
     transform="translate(-7.6890625,-55.0655)">
    <path
       d="m 35.111675,206.784 c 0,-34.41474 13.685785,-67.45515 38.020683,-91.79005 24.334898,-24.334897 57.375302,-38.020682 91.790052,-38.020682 34.41474,0 67.45515,13.685785 91.79004,38.020682 24.3349,24.3349 38.02069,57.37531 38.02069,91.79005"
       clip-path="url(#p7f2c4286be)"
       style="fill:none;stroke:#b0b0b0;stroke-width:0.8;stroke-linecap:square"
       id="path324" />
  </g>
  <use
     xlink:href="#DejaVuSans-30"
     id="use327"
     transform="matrix(0.1,0,0,-0.1,24.241362,161.81694)" />
  <g
     id="line2d_23"
     transform="translate(-7.6890625,-55.0655)">
    <path
       d="m 119.64546,206.784 -0.34619,-2.85703 -0.87946,-2.993 -0.96184,-3.17342 -0.3385,-1.96463 -0.01,-1.26024 0.1976,-1.10485 0.40719,-0.95858 0.62209,-0.81371 0.84625,-0.66477 1.08447,-0.50711 1.34298,-0.33587 1.63009,-0.14534 1.95747,0.072 2.34223,0.32681 2.81082,0.63527 3.40661,1.02355 4.20647,1.53761 5.36131,2.26692 7.21483,3.41338 6.58209,3.35012 4.18115,2.20671 m -0.1254,-0.26395 -8.67975,-5.25145 -9.09636,-5.79563 -6.59593,-4.49606 -5.12998,-3.74915 -4.15566,-3.25988 -4.48141,-3.81937 -3.60313,-3.38328 -2.94711,-3.05516 -2.43297,-2.79358 -2.46228,-3.18901 -1.93789,-2.90327 -1.50352,-2.65375 -1.13419,-2.42832 -0.81339,-2.21908 -0.52976,-2.02054 -0.27518,-1.82872 -0.0435,-1.64055 0.1698,-1.45352 0.36857,-1.2654 0.5559,-1.07418 0.73445,-0.87777 0.90667,-0.67401 1.07491,-0.46047 1.24158,-0.23425 1.4093,0.008 1.58109,0.27126 1.76071,0.56095 1.953,0.88528 2.16464,1.25559 2.4053,1.68854 2.68971,2.20975 3.04194,2.86091 2.7589,2.89018 3.14423,3.59768 3.68067,4.57125 4.49399,6.02424 4.23542,6.03746 5.56039,8.32565 8.38868,13.12894 4.18887,6.71392 m -2.97306,-5.03485 -7.98445,-13.66794 -4.80711,-8.61449 -4.21605,-8.04011 -2.84949,-5.91339 -2.01616,-4.62284 -1.73874,-4.56538 -1.12415,-3.59961 -0.66931,-2.86705 -0.31363,-2.27261 -0.0235,-1.76339 0.22131,-1.30685 0.33158,-0.73786 0.45577,-0.47333 0.57112,-0.21073 0.68021,0.0555 0.7854,0.33109 0.88908,0.62245 0.9938,0.93729 1.39607,1.66652 1.58337,2.30836 1.80273,3.10083 2.08031,4.13894 1.9349,4.33877 2.28587,5.67111 2.84774,7.77984 2.78875,8.24315 3.9526,12.4484 1.83414,5.9884 m 2.06855,6.81992 -5.2273,-18.75211 -2.88352,-11.05326 -2.38478,-10.04939 -1.51364,-7.30875 -1.18371,-6.94678 -0.67708,-5.39581 -0.32829,-4.32565 -0.0709,-3.52243 0.12802,-2.88102 0.28667,-2.34327 0.41602,-1.87397 0.52303,-1.45003 0.61237,-1.05522 0.54439,-0.57147 0.5859,-0.33337 0.62179,-0.0951 0.65256,0.14744 0.67865,0.39827 0.70034,0.66219 0.71788,0.94496 0.91585,1.61953 0.92918,2.17622 0.93469,2.84296 0.93205,3.68034 0.73794,3.72949 0.72591,4.67665 0.70888,6.02938 0.68719,8.16991 0.50034,8.56524 0.49463,12.78955 0.34666,13.92868 m 0.10844,1.19749 0.0235,-20.0549 0.21757,-11.63389 0.43838,-10.47168 0.54225,-7.54597 0.61212,-5.83817 0.83465,-5.73663 0.88969,-4.52466 0.92773,-3.62904 0.95251,-2.92191 0.96605,-2.3339 0.96936,-1.82353 0.96284,-1.36372 0.94639,-0.93522 0.73824,-0.45109 0.71515,-0.18988 0.68559,0.0742 0.64866,0.3465 0.60314,0.63337 0.54735,0.94231 0.47889,1.2832 0.39437,1.6695 0.28871,2.12077 0.15404,2.66695 -0.0224,3.35692 -0.26335,4.27695 -0.61242,5.59591 -0.80559,5.50513 -1.28369,7.32479 -2.14084,10.62904 -2.39829,10.88552 -4.46068,19.08612 m 0.74413,-2.63407 4.82631,-18.84857 4.24342,-15.55672 2.98488,-10.06396 2.41055,-7.47011 2.72826,-7.68124 2.39692,-6.05969 2.18696,-4.98291 2.53526,-5.16172 2.38032,-4.28969 2.26714,-3.62606 2.17958,-3.09755 2.10845,-2.66173 2.45126,-2.71109 2.37644,-2.26169 2.30906,-1.872852 2.24608,-1.529461 2.18536,-1.221064 2.1254,-0.940195 2.06509,-0.681367 2.00358,-0.440452 1.94018,-0.214271 1.87429,-3.36e-4 1.80545,0.203339 1.73319,0.398362 1.65711,0.586058 1.57678,0.767532 1.49181,0.943725 1.40178,1.11544 1.51424,1.513387 1.3746,1.737101 1.22442,1.956954 1.06258,2.17391 0.8878,2.3889 0.6986,2.60281 0.49325,2.81658 0.26961,3.03122 0.0374,2.77045 -0.15694,2.93149 -0.3682,3.09528 -0.59876,3.26273 -0.85163,3.43498 -1.13051,3.61343 -1.44016,3.79991 -1.78663,3.9967 -1.78556,3.49053 -2.08852,3.64646 -2.42963,3.81515 -2.81774,4.00027 -3.26502,4.20705 -3.78851,4.44298 -3.47454,3.75089 -3.94194,3.95578 -4.49997,4.19961 -5.18258,4.49886 -6.04442,4.88072 -5.25836,3.98706 -6.07,4.36029 -7.15602,4.87209 -8.71143,5.62726 m 0.0115,0.57383 6.72304,-2.45038 5.68478,-1.82122 4.91133,-1.32751 4.30529,-0.91788 3.81184,-0.56156 3.39758,-0.23714 3.04081,0.0734 1.85056,0.22334 1.7211,0.37171 1.5999,0.5372 1.48554,0.73595 1.37686,1.00455 0.64917,0.65031 0.62369,0.80909 0.59866,1.10026 0.57401,2.77052 v 0"
       clip-path="url(#p7f2c4286be)"
       style="fill:none;stroke:#1f77b4;stroke-width:1.5;stroke-linecap:square"
       id="path334" />
  </g>
  <g
     id="line2d_24"
     transform="translate(-7.6890625,-55.0655)">
    <defs
       id="defs338">
      <path
         id="m3ff69da555"
         d="M 0,3 C 0.795609,3 1.55874,2.683901 2.12132,2.12132 2.683901,1.55874 3,0.795609 3,0 3,-0.795609 2.683901,-1.55874 2.12132,-2.12132 1.55874,-2.683901 0.795609,-3 0,-3 -0.795609,-3 -1.55874,-2.683901 -2.12132,-2.12132 -2.683901,-1.55874 -3,-0.795609 -3,0 -3,0.795609 -2.683901,1.55874 -2.12132,2.12132 -1.55874,2.683901 -0.795609,3 0,3 Z"
         style="stroke:#ff0000" />
    </defs>
    <g
       clip-path="url(#p7f2c4286be)"
       id="g342">
      <use
         xlink:href="#m3ff69da555"
         x="52.503014"
         y="141.87863"
         style="fill:#ff0000;stroke:#ff0000"
         id="use340" />
    </g>
  </g>
  <g
     id="line2d_25"
     transform="translate(-7.6890625,-55.0655)">
    <g
       clip-path="url(#p7f2c4286be)"
       id="g347">
      <use
         xlink:href="#m3ff69da555"
         x="100.01704"
         y="94.364609"
         style="fill:#ff0000;stroke:#ff0000"
         id="use345" />
    </g>
  </g>
  <g
     id="line2d_26"
     transform="translate(-7.6890625,-55.0655)">
    <g
       clip-path="url(#p7f2c4286be)"
       id="g352">
      <use
         xlink:href="#m3ff69da555"
         x="164.92241"
         y="76.973267"
         style="fill:#ff0000;stroke:#ff0000"
         id="use350" />
    </g>
  </g>
  <g
     id="line2d_27"
     transform="translate(-7.6890625,-55.0655)">
    <g
       clip-path="url(#p7f2c4286be)"
       id="g357">
      <use
         xlink:href="#m3ff69da555"
         x="277.3418"
         y="141.87863"
         style="fill:#ff0000;stroke:#ff0000"
         id="use355" />
    </g>
  </g>
  <g
     id="line2d_28"
     transform="translate(-7.6890625,-55.0655)">
    <defs
       id="defs361">
      <path
         id="md0d33d8296"
         d="M 0,3 C 0.795609,3 1.55874,2.683901 2.12132,2.12132 2.683901,1.55874 3,0.795609 3,0 3,-0.795609 2.683901,-1.55874 2.12132,-2.12132 1.55874,-2.683901 0.795609,-3 0,-3 -0.795609,-3 -1.55874,-2.683901 -2.12132,-2.12132 -2.683901,-1.55874 -3,-0.795609 -3,0 -3,0.795609 -2.683901,1.55874 -2.12132,2.12132 -1.55874,2.683901 -0.795609,3 0,3 Z"
         style="stroke:#008000" />
    </defs>
    <g
       clip-path="url(#p7f2c4286be)"
       id="g365">
      <use
         xlink:href="#md0d33d8296"
         x="229.82777"
         y="94.364609"
         style="fill:#008000;stroke:#008000"
         id="use363" />
    </g>
  </g>
  <g
     id="patch_3"
     transform="translate(-7.6890625,-55.0655)">
    <path
       d="m 297.97841,206.784 c 0,-35.27511 -14.02793,-69.14153 -38.9712,-94.0848 -24.94327,-24.94327 -58.80969,-38.9712 -94.0848,-38.9712 -35.27511,0 -69.141533,14.02793 -94.084804,38.9712 -24.94327,24.94327 -38.9712,58.80969 -38.9712,94.0848"
       style="fill:none;stroke:#000000;stroke-width:0.8;stroke-linecap:square;stroke-linejoin:miter"
       id="path368" />
  </g>
  <g
     id="patch_4"
     transform="translate(-7.6890625,-55.0655)">
    <path
       d="M 164.92241,206.784 H 31.866406"
       style="fill:none;stroke:#000000;stroke-width:0.8;stroke-linecap:square;stroke-linejoin:miter"
       id="path371" />
  </g>
  <g
     id="patch_5"
     transform="translate(-7.6890625,-55.0655)">
    <path
       d="m 164.92241,206.784 h 133.056"
       style="fill:none;stroke:#000000;stroke-width:0.8;stroke-linecap:square;stroke-linejoin:miter"
       id="path374" />
  </g>
  <defs
     id="defs382">
    <clipPath
       id="p7f2c4286be">
      <path
         d="m 297.97841,206.784 c 0,-35.27511 -14.02793,-69.14153 -38.9712,-94.0848 -24.94327,-24.94327 -58.80969,-38.9712 -94.0848,-38.9712 -35.27511,0 -69.141533,14.02793 -94.084804,38.9712 -24.94327,24.94327 -38.9712,58.80969 -38.9712,94.0848 H 164.92241 c 0,0 0,0 0,0 0,0 0,0 0,0 0,0 0,0 0,0 0,0 0,0 0,0 z"
         id="path379" />
    </clipPath>
  </defs>
</svg>
