<?xml version="1.0" encoding="utf-8" standalone="no"?>
<!DOCTYPE svg PUBLIC "-//W3C//DTD SVG 1.1//EN"
  "http://www.w3.org/Graphics/SVG/1.1/DTD/svg11.dtd">
<svg xmlns:xlink="http://www.w3.org/1999/xlink" width="487.259375pt" height="280.8pt" viewBox="0 0 487.259375 280.8" xmlns="http://www.w3.org/2000/svg" version="1.1">
 <metadata>
  <rdf:RDF xmlns:dc="http://purl.org/dc/elements/1.1/" xmlns:cc="http://creativecommons.org/ns#" xmlns:rdf="http://www.w3.org/1999/02/22-rdf-syntax-ns#">
   <cc:Work>
    <dc:type rdf:resource="http://purl.org/dc/dcmitype/StillImage"/>
    <dc:date>2026-06-06T00:53:49.557116</dc:date>
    <dc:format>image/svg+xml</dc:format>
    <dc:creator>
     <cc:Agent>
      <dc:title>Matplotlib v3.10.9, https://matplotlib.org/</dc:title>
     </cc:Agent>
    </dc:creator>
   </cc:Work>
  </rdf:RDF>
 </metadata>
 <defs>
  <style type="text/css">*{stroke-linejoin: round; stroke-linecap: butt}</style>
 </defs>
 <g id="figure_1">
  <g id="patch_1">
   <path d="M 0 280.8 
L 487.259375 280.8 
L 487.259375 0 
L 0 0 
z
" style="fill: #ffffff"/>
  </g>
  <g id="axes_1">
   <g id="patch_2">
    <path d="M 34.240625 117.707979 
L 480.059375 117.707979 
L 480.059375 22.318125 
L 34.240625 22.318125 
z
" style="fill: #ffffff"/>
   </g>
   <g id="matplotlib.axis_1">
    <g id="xtick_1">
     <g id="line2d_1">
      <defs>
       <path id="mad5c2b0ed3" d="M 0 0 
L 0 3.5 
" style="stroke: #000000; stroke-width: 0.8"/>
      </defs>
      <g>
       <use xlink:href="#mad5c2b0ed3" x="54.505114" y="117.707979" style="stroke: #000000; stroke-width: 0.8"/>
      </g>
     </g>
     <g id="text_1">
      <!-- 0 -->
      <g transform="translate(51.323864 132.306417) scale(0.1 -0.1)">
       <defs>
        <path id="DejaVuSans-30" d="M 2034 4250 
Q 1547 4250 1301 3770 
Q 1056 3291 1056 2328 
Q 1056 1369 1301 889 
Q 1547 409 2034 409 
Q 2525 409 2770 889 
Q 3016 1369 3016 2328 
Q 3016 3291 2770 3770 
Q 2525 4250 2034 4250 
z
M 2034 4750 
Q 2819 4750 3233 4129 
Q 3647 3509 3647 2328 
Q 3647 1150 3233 529 
Q 2819 -91 2034 -91 
Q 1250 -91 836 529 
Q 422 1150 422 2328 
Q 422 3509 836 4129 
Q 1250 4750 2034 4750 
z
" transform="scale(0.015625)"/>
       </defs>
       <use xlink:href="#DejaVuSans-30"/>
      </g>
     </g>
    </g>
    <g id="xtick_2">
     <g id="line2d_2">
      <g>
       <use xlink:href="#mad5c2b0ed3" x="118.030156" y="117.707979" style="stroke: #000000; stroke-width: 0.8"/>
      </g>
     </g>
     <g id="text_2">
      <!-- 50 -->
      <g transform="translate(111.667656 132.306417) scale(0.1 -0.1)">
       <defs>
        <path id="DejaVuSans-35" d="M 691 4666 
L 3169 4666 
L 3169 4134 
L 1269 4134 
L 1269 2991 
Q 1406 3038 1543 3061 
Q 1681 3084 1819 3084 
Q 2600 3084 3056 2656 
Q 3513 2228 3513 1497 
Q 3513 744 3044 326 
Q 2575 -91 1722 -91 
Q 1428 -91 1123 -41 
Q 819 9 494 109 
L 494 744 
Q 775 591 1075 516 
Q 1375 441 1709 441 
Q 2250 441 2565 725 
Q 2881 1009 2881 1497 
Q 2881 1984 2565 2268 
Q 2250 2553 1709 2553 
Q 1456 2553 1204 2497 
Q 953 2441 691 2322 
L 691 4666 
z
" transform="scale(0.015625)"/>
       </defs>
       <use xlink:href="#DejaVuSans-35"/>
       <use xlink:href="#DejaVuSans-30" transform="translate(63.623047 0)"/>
      </g>
     </g>
    </g>
    <g id="xtick_3">
     <g id="line2d_3">
      <g>
       <use xlink:href="#mad5c2b0ed3" x="181.555199" y="117.707979" style="stroke: #000000; stroke-width: 0.8"/>
      </g>
     </g>
     <g id="text_3">
      <!-- 100 -->
      <g transform="translate(172.011449 132.306417) scale(0.1 -0.1)">
       <defs>
        <path id="DejaVuSans-31" d="M 794 531 
L 1825 531 
L 1825 4091 
L 703 3866 
L 703 4441 
L 1819 4666 
L 2450 4666 
L 2450 531 
L 3481 531 
L 3481 0 
L 794 0 
L 794 531 
z
" transform="scale(0.015625)"/>
       </defs>
       <use xlink:href="#DejaVuSans-31"/>
       <use xlink:href="#DejaVuSans-30" transform="translate(63.623047 0)"/>
       <use xlink:href="#DejaVuSans-30" transform="translate(127.246094 0)"/>
      </g>
     </g>
    </g>
    <g id="xtick_4">
     <g id="line2d_4">
      <g>
       <use xlink:href="#mad5c2b0ed3" x="245.080242" y="117.707979" style="stroke: #000000; stroke-width: 0.8"/>
      </g>
     </g>
     <g id="text_4">
      <!-- 150 -->
      <g transform="translate(235.536492 132.306417) scale(0.1 -0.1)">
       <use xlink:href="#DejaVuSans-31"/>
       <use xlink:href="#DejaVuSans-35" transform="translate(63.623047 0)"/>
       <use xlink:href="#DejaVuSans-30" transform="translate(127.246094 0)"/>
      </g>
     </g>
    </g>
    <g id="xtick_5">
     <g id="line2d_5">
      <g>
       <use xlink:href="#mad5c2b0ed3" x="308.605285" y="117.707979" style="stroke: #000000; stroke-width: 0.8"/>
      </g>
     </g>
     <g id="text_5">
      <!-- 200 -->
      <g transform="translate(299.061535 132.306417) scale(0.1 -0.1)">
       <defs>
        <path id="DejaVuSans-32" d="M 1228 531 
L 3431 531 
L 3431 0 
L 469 0 
L 469 531 
Q 828 903 1448 1529 
Q 2069 2156 2228 2338 
Q 2531 2678 2651 2914 
Q 2772 3150 2772 3378 
Q 2772 3750 2511 3984 
Q 2250 4219 1831 4219 
Q 1534 4219 1204 4116 
Q 875 4013 500 3803 
L 500 4441 
Q 881 4594 1212 4672 
Q 1544 4750 1819 4750 
Q 2544 4750 2975 4387 
Q 3406 4025 3406 3419 
Q 3406 3131 3298 2873 
Q 3191 2616 2906 2266 
Q 2828 2175 2409 1742 
Q 1991 1309 1228 531 
z
" transform="scale(0.015625)"/>
       </defs>
       <use xlink:href="#DejaVuSans-32"/>
       <use xlink:href="#DejaVuSans-30" transform="translate(63.623047 0)"/>
       <use xlink:href="#DejaVuSans-30" transform="translate(127.246094 0)"/>
      </g>
     </g>
    </g>
    <g id="xtick_6">
     <g id="line2d_6">
      <g>
       <use xlink:href="#mad5c2b0ed3" x="372.130327" y="117.707979" style="stroke: #000000; stroke-width: 0.8"/>
      </g>
     </g>
     <g id="text_6">
      <!-- 250 -->
      <g transform="translate(362.586577 132.306417) scale(0.1 -0.1)">
       <use xlink:href="#DejaVuSans-32"/>
       <use xlink:href="#DejaVuSans-35" transform="translate(63.623047 0)"/>
       <use xlink:href="#DejaVuSans-30" transform="translate(127.246094 0)"/>
      </g>
     </g>
    </g>
    <g id="xtick_7">
     <g id="line2d_7">
      <g>
       <use xlink:href="#mad5c2b0ed3" x="435.65537" y="117.707979" style="stroke: #000000; stroke-width: 0.8"/>
      </g>
     </g>
     <g id="text_7">
      <!-- 300 -->
      <g transform="translate(426.11162 132.306417) scale(0.1 -0.1)">
       <defs>
        <path id="DejaVuSans-33" d="M 2597 2516 
Q 3050 2419 3304 2112 
Q 3559 1806 3559 1356 
Q 3559 666 3084 287 
Q 2609 -91 1734 -91 
Q 1441 -91 1130 -33 
Q 819 25 488 141 
L 488 750 
Q 750 597 1062 519 
Q 1375 441 1716 441 
Q 2309 441 2620 675 
Q 2931 909 2931 1356 
Q 2931 1769 2642 2001 
Q 2353 2234 1838 2234 
L 1294 2234 
L 1294 2753 
L 1863 2753 
Q 2328 2753 2575 2939 
Q 2822 3125 2822 3475 
Q 2822 3834 2567 4026 
Q 2313 4219 1838 4219 
Q 1578 4219 1281 4162 
Q 984 4106 628 3988 
L 628 4550 
Q 988 4650 1302 4700 
Q 1616 4750 1894 4750 
Q 2613 4750 3031 4423 
Q 3450 4097 3450 3541 
Q 3450 3153 3228 2886 
Q 3006 2619 2597 2516 
z
" transform="scale(0.015625)"/>
       </defs>
       <use xlink:href="#DejaVuSans-33"/>
       <use xlink:href="#DejaVuSans-30" transform="translate(63.623047 0)"/>
       <use xlink:href="#DejaVuSans-30" transform="translate(127.246094 0)"/>
      </g>
     </g>
    </g>
   </g>
   <g id="matplotlib.axis_2">
    <g id="ytick_1">
     <g id="line2d_8">
      <defs>
       <path id="m653803b121" d="M 0 0 
L -3.5 0 
" style="stroke: #000000; stroke-width: 0.8"/>
      </defs>
      <g>
       <use xlink:href="#m653803b121" x="34.240625" y="96.285823" style="stroke: #000000; stroke-width: 0.8"/>
      </g>
     </g>
     <g id="text_8">
      <!-- −1 -->
      <g transform="translate(12.498438 100.085042) scale(0.1 -0.1)">
       <defs>
        <path id="DejaVuSans-2212" d="M 678 2272 
L 4684 2272 
L 4684 1741 
L 678 1741 
L 678 2272 
z
" transform="scale(0.015625)"/>
       </defs>
       <use xlink:href="#DejaVuSans-2212"/>
       <use xlink:href="#DejaVuSans-31" transform="translate(83.789062 0)"/>
      </g>
     </g>
    </g>
    <g id="ytick_2">
     <g id="line2d_9">
      <g>
       <use xlink:href="#m653803b121" x="34.240625" y="68.158791" style="stroke: #000000; stroke-width: 0.8"/>
      </g>
     </g>
     <g id="text_9">
      <!-- 0 -->
      <g transform="translate(20.878125 71.95801) scale(0.1 -0.1)">
       <use xlink:href="#DejaVuSans-30"/>
      </g>
     </g>
    </g>
    <g id="ytick_3">
     <g id="line2d_10">
      <g>
       <use xlink:href="#m653803b121" x="34.240625" y="40.03176" style="stroke: #000000; stroke-width: 0.8"/>
      </g>
     </g>
     <g id="text_10">
      <!-- 1 -->
      <g transform="translate(20.878125 43.830979) scale(0.1 -0.1)">
       <use xlink:href="#DejaVuSans-31"/>
      </g>
     </g>
    </g>
   </g>
   <g id="line2d_11">
    <path d="M 54.505114 40.03176 
L 55.775614 40.512992 
L 57.046115 41.124602 
L 59.587117 42.734254 
L 62.128119 44.844495 
L 64.66912 47.428659 
L 67.210122 50.450499 
L 69.751124 53.865257 
L 72.292126 57.620896 
L 76.103628 63.765366 
L 81.185632 72.575285 
L 90.079138 88.17548 
L 93.89064 94.351937 
L 96.431642 98.153928 
L 98.972644 101.641283 
L 101.513645 104.754382 
L 104.054647 107.446479 
L 106.595649 109.675992 
L 109.13665 111.406919 
L 110.407151 112.075792 
L 111.677652 112.609262 
L 112.948153 113.004595 
L 114.218654 113.259484 
L 115.489155 113.372077 
L 116.759656 113.340983 
L 118.030156 113.165294 
L 119.300657 112.844598 
L 120.571158 112.378997 
L 121.841659 111.769122 
L 123.11216 111.016147 
L 124.382661 110.121802 
L 126.923662 107.918794 
L 129.464664 105.185539 
L 132.005666 101.957019 
L 134.546667 98.277849 
L 137.087669 94.193574 
L 140.899172 87.449897 
L 145.981175 77.73064 
L 153.60418 63.024475 
L 157.415683 56.303907 
L 159.956685 52.271105 
L 162.497686 48.696193 
L 165.038688 45.655537 
L 167.57969 43.214873 
L 168.850191 42.236677 
L 170.120691 41.427312 
L 171.391192 40.79117 
L 172.661693 40.331662 
L 173.932194 40.051187 
L 175.202695 39.951114 
L 176.473196 40.03176 
L 177.743697 40.2838 
L 179.014197 40.713663 
L 180.284698 41.318612 
L 181.555199 42.094884 
L 182.8257 43.037717 
L 184.096201 44.141378 
L 186.637203 46.803645 
L 189.178204 50.018081 
L 191.719206 53.708773 
L 194.260208 57.789677 
L 198.07171 64.436321 
L 209.506218 85.037385 
L 212.04722 89.148264 
L 214.588221 92.917351 
L 217.129223 96.285823 
L 219.670225 99.225755 
L 222.211226 101.689223 
L 224.752228 103.658168 
L 227.29323 105.128481 
L 229.834232 106.109371 
L 232.375233 106.622342 
L 234.916235 106.699847 
L 237.457237 106.383663 
L 239.998238 105.723081 
L 242.53924 104.772977 
L 245.080242 103.591839 
L 248.891744 101.518538 
L 260.326252 94.938254 
L 264.137755 93.181028 
L 266.678756 92.227201 
L 269.219758 91.471347 
L 271.76076 90.925985 
L 274.301762 90.596943 
L 276.842763 90.483834 
L 279.383765 90.580635 
L 281.924767 90.876322 
L 284.465768 91.355534 
L 288.277271 92.37595 
L 292.088774 93.689141 
L 297.170777 95.742257 
L 307.334784 100.02854 
L 311.146286 101.384374 
L 313.687288 102.126095 
L 316.22829 102.701793 
L 318.769291 103.08158 
L 321.310293 103.237214 
L 323.851295 103.14265 
L 326.392297 102.774624 
L 328.933298 102.113246 
L 331.4743 101.14258 
L 334.015302 99.85119 
L 336.556303 98.232626 
L 339.097305 96.285823 
L 341.638307 94.013578 
L 344.179309 91.424712 
L 346.72031 88.536083 
L 349.261312 85.370615 
L 353.072815 80.167548 
L 356.884317 74.525828 
L 361.966321 66.565883 
L 370.859827 52.496636 
L 374.671329 46.84143 
L 378.482832 41.63981 
L 381.023833 38.511602 
L 383.564835 35.702308 
L 386.105837 33.227721 
L 388.646838 31.116252 
L 391.18784 29.392067 
L 393.728842 28.074998 
L 396.269844 27.180499 
L 398.810845 26.719619 
L 401.351847 26.698975 
L 403.892849 27.120718 
L 406.43385 27.982467 
L 408.974852 29.27722 
L 411.515854 30.993239 
L 414.056856 33.113921 
L 416.597857 35.617672 
L 419.138859 38.477801 
L 421.679861 41.662931 
L 424.220862 45.1388 
L 428.032365 50.804807 
L 433.114368 58.944008 
L 443.278375 75.526352 
L 447.089878 81.236436 
L 449.63088 84.737168 
L 452.171881 87.93757 
L 454.712883 90.798154 
L 457.253885 93.288179 
L 459.794886 95.38683 
L 459.794886 95.38683 
" clip-path="url(#pf2511b97be)" style="fill: none; stroke: #1f77b4; stroke-width: 1.5; stroke-linecap: square"/>
   </g>
   <g id="line2d_12">
    <path d="M 54.505114 40.03176 
L 55.775614 41.112021 
L 57.046115 42.357525 
L 59.587117 45.319286 
L 62.128119 48.853991 
L 64.66912 52.878836 
L 67.210122 57.293563 
L 71.021625 64.392576 
L 77.374129 76.41628 
L 79.915131 80.901485 
L 82.456132 85.006823 
L 84.997134 88.614948 
L 87.538136 91.622574 
L 88.808637 92.8736 
L 90.079138 93.943803 
L 91.349638 94.825604 
L 92.620139 95.51281 
L 93.89064 96.000652 
L 95.161141 96.285823 
L 96.431642 96.357904 
L 97.702143 96.224772 
L 98.972644 95.887656 
L 100.243144 95.349244 
L 101.513645 94.613651 
L 102.784146 93.686366 
L 104.054647 92.574199 
L 105.325148 91.285206 
L 107.86615 88.214711 
L 110.407151 84.561002 
L 112.948153 80.424134 
L 116.759656 73.556195 
L 129.464664 49.658018 
L 132.005666 45.496591 
L 134.546667 41.740037 
L 137.087669 38.453029 
L 139.628671 35.67599 
L 142.169673 33.422621 
L 144.710674 31.698423 
L 145.981175 31.032279 
L 147.251676 30.493673 
L 148.522177 30.079268 
L 149.792678 29.784992 
L 152.333679 29.537272 
L 154.874681 29.705861 
L 157.415683 30.238879 
L 159.956685 31.07956 
L 162.497686 32.168513 
L 166.309189 34.136662 
L 172.661693 37.836771 
L 177.743697 40.718545 
L 181.555199 42.607914 
L 185.366702 44.170553 
L 187.907703 44.995815 
L 190.448705 45.630085 
L 192.989707 46.062592 
L 195.530709 46.286057 
L 198.07171 46.296379 
L 200.612712 46.092483 
L 203.153714 45.676351 
L 205.694715 45.053238 
L 208.235717 44.23206 
L 210.776719 43.225903 
L 214.588221 41.410344 
L 218.399724 39.312101 
L 231.104732 31.980531 
L 233.645734 30.831118 
L 236.186736 29.930351 
L 238.727738 29.342991 
L 241.268739 29.131796 
L 242.53924 29.1857 
L 243.809741 29.354967 
L 245.080242 29.645718 
L 246.350743 30.063446 
L 247.621244 30.612934 
L 248.891744 31.298176 
L 250.162245 32.122294 
L 251.432746 33.087471 
L 253.973748 35.444614 
L 256.51475 38.365839 
L 259.055751 41.837407 
L 261.596753 45.818513 
L 264.137755 50.238751 
L 267.949257 57.509573 
L 279.383765 80.34248 
L 281.924767 84.774979 
L 284.465768 88.681266 
L 287.00677 91.939991 
L 288.277271 93.292808 
L 289.547772 94.445674 
L 290.818273 95.388633 
L 292.088774 96.113255 
L 293.359274 96.612751 
L 294.629775 96.882063 
L 295.900276 96.917942 
L 297.170777 96.719014 
L 298.441278 96.285823 
L 299.711779 95.604147 
L 300.982279 94.695338 
L 302.25278 93.565979 
L 303.523281 92.224574 
L 304.793782 90.681498 
L 307.334784 87.040764 
L 309.875785 82.761207 
L 312.416787 77.984078 
L 316.22829 70.240529 
L 321.310293 59.771768 
L 323.851295 54.886173 
L 326.392297 50.466489 
L 328.933298 46.670397 
L 330.203799 45.049839 
L 331.4743 43.634425 
L 332.744801 42.437055 
L 334.015302 41.468699 
L 335.285803 40.738291 
L 336.556303 40.252635 
L 337.826804 40.016338 
L 339.097305 40.03176 
L 340.367806 40.298523 
L 341.638307 40.813977 
L 342.908808 41.573683 
L 344.179309 42.570989 
L 345.449809 43.797089 
L 346.72031 45.241099 
L 347.990811 46.890155 
L 350.531813 50.742767 
L 353.072815 55.217267 
L 355.613816 60.153491 
L 367.048324 83.183654 
L 369.589326 87.389666 
L 372.130327 90.911007 
L 373.400828 92.375334 
L 374.671329 93.624523 
L 375.94183 94.647817 
L 377.212331 95.4365 
L 378.482832 95.983979 
L 379.753333 96.285823 
L 381.023833 96.323085 
L 382.294334 96.112636 
L 383.564835 95.656825 
L 384.835336 94.960155 
L 386.105837 94.029233 
L 387.376338 92.872694 
L 388.646838 91.501114 
L 389.917339 89.926895 
L 392.458341 86.228551 
L 394.999343 81.908416 
L 397.540344 77.117197 
L 402.622348 66.789911 
L 406.43385 59.078943 
L 408.974852 54.27457 
L 411.515854 49.921919 
L 414.056856 46.158704 
L 415.327356 44.535416 
L 416.597857 43.10125 
L 417.868358 41.866878 
L 419.138859 40.841294 
L 420.40936 40.03176 
L 421.679861 39.42707 
L 422.950362 39.047864 
L 424.220862 38.896301 
L 425.491363 38.972793 
L 426.761864 39.276034 
L 428.032365 39.80305 
L 429.302866 40.549259 
L 430.573367 41.508542 
L 431.843868 42.673328 
L 433.114368 44.034692 
L 435.65537 47.305295 
L 438.196372 51.225945 
L 440.737374 55.687896 
L 443.278375 60.572158 
L 447.089878 68.416192 
L 454.712883 84.422423 
L 458.524386 91.810377 
L 459.794886 94.099824 
L 459.794886 94.099824 
" clip-path="url(#pf2511b97be)" style="fill: none; stroke: #ff7f0e; stroke-opacity: 0.7; stroke-width: 1.5; stroke-linecap: square"/>
   </g>
   <g id="line2d_13">
    <path d="M 34.240625 40.03176 
L 480.059375 40.03176 
" clip-path="url(#pf2511b97be)" style="fill: none; stroke-dasharray: 3.7,1.6; stroke-dashoffset: 0; stroke: #808080"/>
   </g>
   <g id="line2d_14">
    <path d="M 34.240625 96.285823 
L 480.059375 96.285823 
" clip-path="url(#pf2511b97be)" style="fill: none; stroke-dasharray: 3.7,1.6; stroke-dashoffset: 0; stroke: #808080"/>
   </g>
   <g id="line2d_15">
    <path d="M 54.505114 117.707979 
L 54.505114 22.318125 
" clip-path="url(#pf2511b97be)" style="fill: none; stroke-dasharray: 3.7,1.6; stroke-dashoffset: 0; stroke: #808080"/>
   </g>
   <g id="line2d_16">
    <path d="M 95.161141 117.707979 
L 95.161141 22.318125 
" clip-path="url(#pf2511b97be)" style="fill: none; stroke-dasharray: 3.7,1.6; stroke-dashoffset: 0; stroke: #808080"/>
   </g>
   <g id="line2d_17">
    <path d="M 135.817168 117.707979 
L 135.817168 22.318125 
" clip-path="url(#pf2511b97be)" style="fill: none; stroke-dasharray: 3.7,1.6; stroke-dashoffset: 0; stroke: #808080"/>
   </g>
   <g id="line2d_18">
    <path d="M 176.473196 117.707979 
L 176.473196 22.318125 
" clip-path="url(#pf2511b97be)" style="fill: none; stroke-dasharray: 3.7,1.6; stroke-dashoffset: 0; stroke: #808080"/>
   </g>
   <g id="line2d_19">
    <path d="M 217.129223 117.707979 
L 217.129223 22.318125 
" clip-path="url(#pf2511b97be)" style="fill: none; stroke-dasharray: 3.7,1.6; stroke-dashoffset: 0; stroke: #808080"/>
   </g>
   <g id="line2d_20">
    <path d="M 257.78525 117.707979 
L 257.78525 22.318125 
" clip-path="url(#pf2511b97be)" style="fill: none; stroke-dasharray: 3.7,1.6; stroke-dashoffset: 0; stroke: #808080"/>
   </g>
   <g id="line2d_21">
    <path d="M 298.441278 117.707979 
L 298.441278 22.318125 
" clip-path="url(#pf2511b97be)" style="fill: none; stroke-dasharray: 3.7,1.6; stroke-dashoffset: 0; stroke: #808080"/>
   </g>
   <g id="line2d_22">
    <path d="M 339.097305 117.707979 
L 339.097305 22.318125 
" clip-path="url(#pf2511b97be)" style="fill: none; stroke-dasharray: 3.7,1.6; stroke-dashoffset: 0; stroke: #808080"/>
   </g>
   <g id="line2d_23">
    <path d="M 379.753333 117.707979 
L 379.753333 22.318125 
" clip-path="url(#pf2511b97be)" style="fill: none; stroke-dasharray: 3.7,1.6; stroke-dashoffset: 0; stroke: #808080"/>
   </g>
   <g id="line2d_24">
    <path d="M 420.40936 117.707979 
L 420.40936 22.318125 
" clip-path="url(#pf2511b97be)" style="fill: none; stroke-dasharray: 3.7,1.6; stroke-dashoffset: 0; stroke: #808080"/>
   </g>
   <g id="patch_3">
    <path d="M 34.240625 117.707979 
L 34.240625 22.318125 
" style="fill: none; stroke: #000000; stroke-width: 0.8; stroke-linejoin: miter; stroke-linecap: square"/>
   </g>
   <g id="patch_4">
    <path d="M 480.059375 117.707979 
L 480.059375 22.318125 
" style="fill: none; stroke: #000000; stroke-width: 0.8; stroke-linejoin: miter; stroke-linecap: square"/>
   </g>
   <g id="patch_5">
    <path d="M 34.240625 117.707979 
L 480.059375 117.707979 
" style="fill: none; stroke: #000000; stroke-width: 0.8; stroke-linejoin: miter; stroke-linecap: square"/>
   </g>
   <g id="patch_6">
    <path d="M 34.240625 22.318125 
L 480.059375 22.318125 
" style="fill: none; stroke: #000000; stroke-width: 0.8; stroke-linejoin: miter; stroke-linecap: square"/>
   </g>
   <g id="text_11">
    <!-- QPSK -->
    <g transform="translate(241.065312 16.318125) scale(0.12 -0.12)">
     <defs>
      <path id="DejaVuSans-51" d="M 2522 4238 
Q 1834 4238 1429 3725 
Q 1025 3213 1025 2328 
Q 1025 1447 1429 934 
Q 1834 422 2522 422 
Q 3209 422 3611 934 
Q 4013 1447 4013 2328 
Q 4013 3213 3611 3725 
Q 3209 4238 2522 4238 
z
M 3406 84 
L 4238 -825 
L 3475 -825 
L 2784 -78 
Q 2681 -84 2626 -87 
Q 2572 -91 2522 -91 
Q 1538 -91 948 567 
Q 359 1225 359 2328 
Q 359 3434 948 4092 
Q 1538 4750 2522 4750 
Q 3503 4750 4090 4092 
Q 4678 3434 4678 2328 
Q 4678 1516 4351 937 
Q 4025 359 3406 84 
z
" transform="scale(0.015625)"/>
      <path id="DejaVuSans-50" d="M 1259 4147 
L 1259 2394 
L 2053 2394 
Q 2494 2394 2734 2622 
Q 2975 2850 2975 3272 
Q 2975 3691 2734 3919 
Q 2494 4147 2053 4147 
L 1259 4147 
z
M 628 4666 
L 2053 4666 
Q 2838 4666 3239 4311 
Q 3641 3956 3641 3272 
Q 3641 2581 3239 2228 
Q 2838 1875 2053 1875 
L 1259 1875 
L 1259 0 
L 628 0 
L 628 4666 
z
" transform="scale(0.015625)"/>
      <path id="DejaVuSans-53" d="M 3425 4513 
L 3425 3897 
Q 3066 4069 2747 4153 
Q 2428 4238 2131 4238 
Q 1616 4238 1336 4038 
Q 1056 3838 1056 3469 
Q 1056 3159 1242 3001 
Q 1428 2844 1947 2747 
L 2328 2669 
Q 3034 2534 3370 2195 
Q 3706 1856 3706 1288 
Q 3706 609 3251 259 
Q 2797 -91 1919 -91 
Q 1588 -91 1214 -16 
Q 841 59 441 206 
L 441 856 
Q 825 641 1194 531 
Q 1563 422 1919 422 
Q 2459 422 2753 634 
Q 3047 847 3047 1241 
Q 3047 1584 2836 1778 
Q 2625 1972 2144 2069 
L 1759 2144 
Q 1053 2284 737 2584 
Q 422 2884 422 3419 
Q 422 4038 858 4394 
Q 1294 4750 2059 4750 
Q 2388 4750 2728 4690 
Q 3069 4631 3425 4513 
z
" transform="scale(0.015625)"/>
      <path id="DejaVuSans-4b" d="M 628 4666 
L 1259 4666 
L 1259 2694 
L 3353 4666 
L 4166 4666 
L 1850 2491 
L 4331 0 
L 3500 0 
L 1259 2247 
L 1259 0 
L 628 0 
L 628 4666 
z
" transform="scale(0.015625)"/>
     </defs>
     <use xlink:href="#DejaVuSans-51"/>
     <use xlink:href="#DejaVuSans-50" transform="translate(78.710938 0)"/>
     <use xlink:href="#DejaVuSans-53" transform="translate(139.013672 0)"/>
     <use xlink:href="#DejaVuSans-4b" transform="translate(202.490234 0)"/>
    </g>
   </g>
   <g id="legend_1">
    <g id="patch_7">
     <path d="M 41.240625 112.707979 
L 81.1125 112.707979 
Q 83.1125 112.707979 83.1125 110.707979 
L 83.1125 82.351729 
Q 83.1125 80.351729 81.1125 80.351729 
L 41.240625 80.351729 
Q 39.240625 80.351729 39.240625 82.351729 
L 39.240625 110.707979 
Q 39.240625 112.707979 41.240625 112.707979 
z
" style="fill: #ffffff; opacity: 0.8; stroke: #cccccc; stroke-linejoin: miter"/>
    </g>
    <g id="line2d_25">
     <path d="M 43.240625 88.450167 
L 53.240625 88.450167 
L 63.240625 88.450167 
" style="fill: none; stroke: #1f77b4; stroke-width: 1.5; stroke-linecap: square"/>
    </g>
    <g id="text_12">
     <!-- I -->
     <g transform="translate(71.240625 91.950167) scale(0.1 -0.1)">
      <defs>
       <path id="DejaVuSans-49" d="M 628 4666 
L 1259 4666 
L 1259 0 
L 628 0 
L 628 4666 
z
" transform="scale(0.015625)"/>
      </defs>
      <use xlink:href="#DejaVuSans-49"/>
     </g>
    </g>
    <g id="line2d_26">
     <path d="M 43.240625 103.128292 
L 53.240625 103.128292 
L 63.240625 103.128292 
" style="fill: none; stroke: #ff7f0e; stroke-opacity: 0.7; stroke-width: 1.5; stroke-linecap: square"/>
    </g>
    <g id="text_13">
     <!-- Q -->
     <g transform="translate(71.240625 106.628292) scale(0.1 -0.1)">
      <use xlink:href="#DejaVuSans-51"/>
     </g>
    </g>
   </g>
  </g>
  <g id="axes_2">
   <g id="patch_8">
    <path d="M 34.240625 243.24375 
L 480.059375 243.24375 
L 480.059375 147.853896 
L 34.240625 147.853896 
z
" style="fill: #ffffff"/>
   </g>
   <g id="matplotlib.axis_3">
    <g id="xtick_8">
     <g id="line2d_27">
      <path d="M 54.505114 243.24375 
L 54.505114 147.853896 
" clip-path="url(#p1141617104)" style="fill: none; stroke: #b0b0b0; stroke-width: 0.8; stroke-linecap: square"/>
     </g>
     <g id="line2d_28">
      <g>
       <use xlink:href="#mad5c2b0ed3" x="54.505114" y="243.24375" style="stroke: #000000; stroke-width: 0.8"/>
      </g>
     </g>
     <g id="text_14">
      <!-- 0 -->
      <g transform="translate(51.323864 257.842188) scale(0.1 -0.1)">
       <use xlink:href="#DejaVuSans-30"/>
      </g>
     </g>
    </g>
    <g id="xtick_9">
     <g id="line2d_29">
      <path d="M 118.030156 243.24375 
L 118.030156 147.853896 
" clip-path="url(#p1141617104)" style="fill: none; stroke: #b0b0b0; stroke-width: 0.8; stroke-linecap: square"/>
     </g>
     <g id="line2d_30">
      <g>
       <use xlink:href="#mad5c2b0ed3" x="118.030156" y="243.24375" style="stroke: #000000; stroke-width: 0.8"/>
      </g>
     </g>
     <g id="text_15">
      <!-- 50 -->
      <g transform="translate(111.667656 257.842188) scale(0.1 -0.1)">
       <use xlink:href="#DejaVuSans-35"/>
       <use xlink:href="#DejaVuSans-30" transform="translate(63.623047 0)"/>
      </g>
     </g>
    </g>
    <g id="xtick_10">
     <g id="line2d_31">
      <path d="M 181.555199 243.24375 
L 181.555199 147.853896 
" clip-path="url(#p1141617104)" style="fill: none; stroke: #b0b0b0; stroke-width: 0.8; stroke-linecap: square"/>
     </g>
     <g id="line2d_32">
      <g>
       <use xlink:href="#mad5c2b0ed3" x="181.555199" y="243.24375" style="stroke: #000000; stroke-width: 0.8"/>
      </g>
     </g>
     <g id="text_16">
      <!-- 100 -->
      <g transform="translate(172.011449 257.842188) scale(0.1 -0.1)">
       <use xlink:href="#DejaVuSans-31"/>
       <use xlink:href="#DejaVuSans-30" transform="translate(63.623047 0)"/>
       <use xlink:href="#DejaVuSans-30" transform="translate(127.246094 0)"/>
      </g>
     </g>
    </g>
    <g id="xtick_11">
     <g id="line2d_33">
      <path d="M 245.080242 243.24375 
L 245.080242 147.853896 
" clip-path="url(#p1141617104)" style="fill: none; stroke: #b0b0b0; stroke-width: 0.8; stroke-linecap: square"/>
     </g>
     <g id="line2d_34">
      <g>
       <use xlink:href="#mad5c2b0ed3" x="245.080242" y="243.24375" style="stroke: #000000; stroke-width: 0.8"/>
      </g>
     </g>
     <g id="text_17">
      <!-- 150 -->
      <g transform="translate(235.536492 257.842188) scale(0.1 -0.1)">
       <use xlink:href="#DejaVuSans-31"/>
       <use xlink:href="#DejaVuSans-35" transform="translate(63.623047 0)"/>
       <use xlink:href="#DejaVuSans-30" transform="translate(127.246094 0)"/>
      </g>
     </g>
    </g>
    <g id="xtick_12">
     <g id="line2d_35">
      <path d="M 308.605285 243.24375 
L 308.605285 147.853896 
" clip-path="url(#p1141617104)" style="fill: none; stroke: #b0b0b0; stroke-width: 0.8; stroke-linecap: square"/>
     </g>
     <g id="line2d_36">
      <g>
       <use xlink:href="#mad5c2b0ed3" x="308.605285" y="243.24375" style="stroke: #000000; stroke-width: 0.8"/>
      </g>
     </g>
     <g id="text_18">
      <!-- 200 -->
      <g transform="translate(299.061535 257.842188) scale(0.1 -0.1)">
       <use xlink:href="#DejaVuSans-32"/>
       <use xlink:href="#DejaVuSans-30" transform="translate(63.623047 0)"/>
       <use xlink:href="#DejaVuSans-30" transform="translate(127.246094 0)"/>
      </g>
     </g>
    </g>
    <g id="xtick_13">
     <g id="line2d_37">
      <path d="M 372.130327 243.24375 
L 372.130327 147.853896 
" clip-path="url(#p1141617104)" style="fill: none; stroke: #b0b0b0; stroke-width: 0.8; stroke-linecap: square"/>
     </g>
     <g id="line2d_38">
      <g>
       <use xlink:href="#mad5c2b0ed3" x="372.130327" y="243.24375" style="stroke: #000000; stroke-width: 0.8"/>
      </g>
     </g>
     <g id="text_19">
      <!-- 250 -->
      <g transform="translate(362.586577 257.842188) scale(0.1 -0.1)">
       <use xlink:href="#DejaVuSans-32"/>
       <use xlink:href="#DejaVuSans-35" transform="translate(63.623047 0)"/>
       <use xlink:href="#DejaVuSans-30" transform="translate(127.246094 0)"/>
      </g>
     </g>
    </g>
    <g id="xtick_14">
     <g id="line2d_39">
      <path d="M 435.65537 243.24375 
L 435.65537 147.853896 
" clip-path="url(#p1141617104)" style="fill: none; stroke: #b0b0b0; stroke-width: 0.8; stroke-linecap: square"/>
     </g>
     <g id="line2d_40">
      <g>
       <use xlink:href="#mad5c2b0ed3" x="435.65537" y="243.24375" style="stroke: #000000; stroke-width: 0.8"/>
      </g>
     </g>
     <g id="text_20">
      <!-- 300 -->
      <g transform="translate(426.11162 257.842188) scale(0.1 -0.1)">
       <use xlink:href="#DejaVuSans-33"/>
       <use xlink:href="#DejaVuSans-30" transform="translate(63.623047 0)"/>
       <use xlink:href="#DejaVuSans-30" transform="translate(127.246094 0)"/>
      </g>
     </g>
    </g>
    <g id="text_21">
     <!-- Sample Index (Time) -->
     <g transform="translate(205.321875 271.520312) scale(0.1 -0.1)">
      <defs>
       <path id="DejaVuSans-61" d="M 2194 1759 
Q 1497 1759 1228 1600 
Q 959 1441 959 1056 
Q 959 750 1161 570 
Q 1363 391 1709 391 
Q 2188 391 2477 730 
Q 2766 1069 2766 1631 
L 2766 1759 
L 2194 1759 
z
M 3341 1997 
L 3341 0 
L 2766 0 
L 2766 531 
Q 2569 213 2275 61 
Q 1981 -91 1556 -91 
Q 1019 -91 701 211 
Q 384 513 384 1019 
Q 384 1609 779 1909 
Q 1175 2209 1959 2209 
L 2766 2209 
L 2766 2266 
Q 2766 2663 2505 2880 
Q 2244 3097 1772 3097 
Q 1472 3097 1187 3025 
Q 903 2953 641 2809 
L 641 3341 
Q 956 3463 1253 3523 
Q 1550 3584 1831 3584 
Q 2591 3584 2966 3190 
Q 3341 2797 3341 1997 
z
" transform="scale(0.015625)"/>
       <path id="DejaVuSans-6d" d="M 3328 2828 
Q 3544 3216 3844 3400 
Q 4144 3584 4550 3584 
Q 5097 3584 5394 3201 
Q 5691 2819 5691 2113 
L 5691 0 
L 5113 0 
L 5113 2094 
Q 5113 2597 4934 2840 
Q 4756 3084 4391 3084 
Q 3944 3084 3684 2787 
Q 3425 2491 3425 1978 
L 3425 0 
L 2847 0 
L 2847 2094 
Q 2847 2600 2669 2842 
Q 2491 3084 2119 3084 
Q 1678 3084 1418 2786 
Q 1159 2488 1159 1978 
L 1159 0 
L 581 0 
L 581 3500 
L 1159 3500 
L 1159 2956 
Q 1356 3278 1631 3431 
Q 1906 3584 2284 3584 
Q 2666 3584 2933 3390 
Q 3200 3197 3328 2828 
z
" transform="scale(0.015625)"/>
       <path id="DejaVuSans-70" d="M 1159 525 
L 1159 -1331 
L 581 -1331 
L 581 3500 
L 1159 3500 
L 1159 2969 
Q 1341 3281 1617 3432 
Q 1894 3584 2278 3584 
Q 2916 3584 3314 3078 
Q 3713 2572 3713 1747 
Q 3713 922 3314 415 
Q 2916 -91 2278 -91 
Q 1894 -91 1617 61 
Q 1341 213 1159 525 
z
M 3116 1747 
Q 3116 2381 2855 2742 
Q 2594 3103 2138 3103 
Q 1681 3103 1420 2742 
Q 1159 2381 1159 1747 
Q 1159 1113 1420 752 
Q 1681 391 2138 391 
Q 2594 391 2855 752 
Q 3116 1113 3116 1747 
z
" transform="scale(0.015625)"/>
       <path id="DejaVuSans-6c" d="M 603 4863 
L 1178 4863 
L 1178 0 
L 603 0 
L 603 4863 
z
" transform="scale(0.015625)"/>
       <path id="DejaVuSans-65" d="M 3597 1894 
L 3597 1613 
L 953 1613 
Q 991 1019 1311 708 
Q 1631 397 2203 397 
Q 2534 397 2845 478 
Q 3156 559 3463 722 
L 3463 178 
Q 3153 47 2828 -22 
Q 2503 -91 2169 -91 
Q 1331 -91 842 396 
Q 353 884 353 1716 
Q 353 2575 817 3079 
Q 1281 3584 2069 3584 
Q 2775 3584 3186 3129 
Q 3597 2675 3597 1894 
z
M 3022 2063 
Q 3016 2534 2758 2815 
Q 2500 3097 2075 3097 
Q 1594 3097 1305 2825 
Q 1016 2553 972 2059 
L 3022 2063 
z
" transform="scale(0.015625)"/>
       <path id="DejaVuSans-20" transform="scale(0.015625)"/>
       <path id="DejaVuSans-6e" d="M 3513 2113 
L 3513 0 
L 2938 0 
L 2938 2094 
Q 2938 2591 2744 2837 
Q 2550 3084 2163 3084 
Q 1697 3084 1428 2787 
Q 1159 2491 1159 1978 
L 1159 0 
L 581 0 
L 581 3500 
L 1159 3500 
L 1159 2956 
Q 1366 3272 1645 3428 
Q 1925 3584 2291 3584 
Q 2894 3584 3203 3211 
Q 3513 2838 3513 2113 
z
" transform="scale(0.015625)"/>
       <path id="DejaVuSans-64" d="M 2906 2969 
L 2906 4863 
L 3481 4863 
L 3481 0 
L 2906 0 
L 2906 525 
Q 2725 213 2448 61 
Q 2172 -91 1784 -91 
Q 1150 -91 751 415 
Q 353 922 353 1747 
Q 353 2572 751 3078 
Q 1150 3584 1784 3584 
Q 2172 3584 2448 3432 
Q 2725 3281 2906 2969 
z
M 947 1747 
Q 947 1113 1208 752 
Q 1469 391 1925 391 
Q 2381 391 2643 752 
Q 2906 1113 2906 1747 
Q 2906 2381 2643 2742 
Q 2381 3103 1925 3103 
Q 1469 3103 1208 2742 
Q 947 2381 947 1747 
z
" transform="scale(0.015625)"/>
       <path id="DejaVuSans-78" d="M 3513 3500 
L 2247 1797 
L 3578 0 
L 2900 0 
L 1881 1375 
L 863 0 
L 184 0 
L 1544 1831 
L 300 3500 
L 978 3500 
L 1906 2253 
L 2834 3500 
L 3513 3500 
z
" transform="scale(0.015625)"/>
       <path id="DejaVuSans-28" d="M 1984 4856 
Q 1566 4138 1362 3434 
Q 1159 2731 1159 2009 
Q 1159 1288 1364 580 
Q 1569 -128 1984 -844 
L 1484 -844 
Q 1016 -109 783 600 
Q 550 1309 550 2009 
Q 550 2706 781 3412 
Q 1013 4119 1484 4856 
L 1984 4856 
z
" transform="scale(0.015625)"/>
       <path id="DejaVuSans-54" d="M -19 4666 
L 3928 4666 
L 3928 4134 
L 2272 4134 
L 2272 0 
L 1638 0 
L 1638 4134 
L -19 4134 
L -19 4666 
z
" transform="scale(0.015625)"/>
       <path id="DejaVuSans-69" d="M 603 3500 
L 1178 3500 
L 1178 0 
L 603 0 
L 603 3500 
z
M 603 4863 
L 1178 4863 
L 1178 4134 
L 603 4134 
L 603 4863 
z
" transform="scale(0.015625)"/>
       <path id="DejaVuSans-29" d="M 513 4856 
L 1013 4856 
Q 1481 4119 1714 3412 
Q 1947 2706 1947 2009 
Q 1947 1309 1714 600 
Q 1481 -109 1013 -844 
L 513 -844 
Q 928 -128 1133 580 
Q 1338 1288 1338 2009 
Q 1338 2731 1133 3434 
Q 928 4138 513 4856 
z
" transform="scale(0.015625)"/>
      </defs>
      <use xlink:href="#DejaVuSans-53"/>
      <use xlink:href="#DejaVuSans-61" transform="translate(63.476562 0)"/>
      <use xlink:href="#DejaVuSans-6d" transform="translate(124.755859 0)"/>
      <use xlink:href="#DejaVuSans-70" transform="translate(222.167969 0)"/>
      <use xlink:href="#DejaVuSans-6c" transform="translate(285.644531 0)"/>
      <use xlink:href="#DejaVuSans-65" transform="translate(313.427734 0)"/>
      <use xlink:href="#DejaVuSans-20" transform="translate(374.951172 0)"/>
      <use xlink:href="#DejaVuSans-49" transform="translate(406.738281 0)"/>
      <use xlink:href="#DejaVuSans-6e" transform="translate(436.230469 0)"/>
      <use xlink:href="#DejaVuSans-64" transform="translate(499.609375 0)"/>
      <use xlink:href="#DejaVuSans-65" transform="translate(563.085938 0)"/>
      <use xlink:href="#DejaVuSans-78" transform="translate(622.859375 0)"/>
      <use xlink:href="#DejaVuSans-20" transform="translate(682.039062 0)"/>
      <use xlink:href="#DejaVuSans-28" transform="translate(713.826172 0)"/>
      <use xlink:href="#DejaVuSans-54" transform="translate(752.839844 0)"/>
      <use xlink:href="#DejaVuSans-69" transform="translate(810.798828 0)"/>
      <use xlink:href="#DejaVuSans-6d" transform="translate(838.582031 0)"/>
      <use xlink:href="#DejaVuSans-65" transform="translate(935.994141 0)"/>
      <use xlink:href="#DejaVuSans-29" transform="translate(997.517578 0)"/>
     </g>
    </g>
   </g>
   <g id="matplotlib.axis_4">
    <g id="ytick_4">
     <g id="line2d_41">
      <path d="M 34.240625 243.24375 
L 480.059375 243.24375 
" clip-path="url(#p1141617104)" style="fill: none; stroke: #b0b0b0; stroke-width: 0.8; stroke-linecap: square"/>
     </g>
     <g id="line2d_42">
      <g>
       <use xlink:href="#m653803b121" x="34.240625" y="243.24375" style="stroke: #000000; stroke-width: 0.8"/>
      </g>
     </g>
     <g id="text_22">
      <!-- 0 -->
      <g transform="translate(20.878125 247.042969) scale(0.1 -0.1)">
       <use xlink:href="#DejaVuSans-30"/>
      </g>
     </g>
    </g>
    <g id="ytick_5">
     <g id="line2d_43">
      <path d="M 34.240625 196.084174 
L 480.059375 196.084174 
" clip-path="url(#p1141617104)" style="fill: none; stroke: #b0b0b0; stroke-width: 0.8; stroke-linecap: square"/>
     </g>
     <g id="line2d_44">
      <g>
       <use xlink:href="#m653803b121" x="34.240625" y="196.084174" style="stroke: #000000; stroke-width: 0.8"/>
      </g>
     </g>
     <g id="text_23">
      <!-- 1 -->
      <g transform="translate(20.878125 199.883392) scale(0.1 -0.1)">
       <use xlink:href="#DejaVuSans-31"/>
      </g>
     </g>
    </g>
    <g id="ytick_6">
     <g id="line2d_45">
      <path d="M 34.240625 148.924597 
L 480.059375 148.924597 
" clip-path="url(#p1141617104)" style="fill: none; stroke: #b0b0b0; stroke-width: 0.8; stroke-linecap: square"/>
     </g>
     <g id="line2d_46">
      <g>
       <use xlink:href="#m653803b121" x="34.240625" y="148.924597" style="stroke: #000000; stroke-width: 0.8"/>
      </g>
     </g>
     <g id="text_24">
      <!-- 2 -->
      <g transform="translate(20.878125 152.723816) scale(0.1 -0.1)">
       <use xlink:href="#DejaVuSans-32"/>
      </g>
     </g>
    </g>
    <g id="text_25">
     <!-- Magnitude -->
     <g transform="translate(14.798437 222.038667) rotate(-90) scale(0.1 -0.1)">
      <defs>
       <path id="DejaVuSans-4d" d="M 628 4666 
L 1569 4666 
L 2759 1491 
L 3956 4666 
L 4897 4666 
L 4897 0 
L 4281 0 
L 4281 4097 
L 3078 897 
L 2444 897 
L 1241 4097 
L 1241 0 
L 628 0 
L 628 4666 
z
" transform="scale(0.015625)"/>
       <path id="DejaVuSans-67" d="M 2906 1791 
Q 2906 2416 2648 2759 
Q 2391 3103 1925 3103 
Q 1463 3103 1205 2759 
Q 947 2416 947 1791 
Q 947 1169 1205 825 
Q 1463 481 1925 481 
Q 2391 481 2648 825 
Q 2906 1169 2906 1791 
z
M 3481 434 
Q 3481 -459 3084 -895 
Q 2688 -1331 1869 -1331 
Q 1566 -1331 1297 -1286 
Q 1028 -1241 775 -1147 
L 775 -588 
Q 1028 -725 1275 -790 
Q 1522 -856 1778 -856 
Q 2344 -856 2625 -561 
Q 2906 -266 2906 331 
L 2906 616 
Q 2728 306 2450 153 
Q 2172 0 1784 0 
Q 1141 0 747 490 
Q 353 981 353 1791 
Q 353 2603 747 3093 
Q 1141 3584 1784 3584 
Q 2172 3584 2450 3431 
Q 2728 3278 2906 2969 
L 2906 3500 
L 3481 3500 
L 3481 434 
z
" transform="scale(0.015625)"/>
       <path id="DejaVuSans-74" d="M 1172 4494 
L 1172 3500 
L 2356 3500 
L 2356 3053 
L 1172 3053 
L 1172 1153 
Q 1172 725 1289 603 
Q 1406 481 1766 481 
L 2356 481 
L 2356 0 
L 1766 0 
Q 1100 0 847 248 
Q 594 497 594 1153 
L 594 3053 
L 172 3053 
L 172 3500 
L 594 3500 
L 594 4494 
L 1172 4494 
z
" transform="scale(0.015625)"/>
       <path id="DejaVuSans-75" d="M 544 1381 
L 544 3500 
L 1119 3500 
L 1119 1403 
Q 1119 906 1312 657 
Q 1506 409 1894 409 
Q 2359 409 2629 706 
Q 2900 1003 2900 1516 
L 2900 3500 
L 3475 3500 
L 3475 0 
L 2900 0 
L 2900 538 
Q 2691 219 2414 64 
Q 2138 -91 1772 -91 
Q 1169 -91 856 284 
Q 544 659 544 1381 
z
M 1991 3584 
L 1991 3584 
z
" transform="scale(0.015625)"/>
      </defs>
      <use xlink:href="#DejaVuSans-4d"/>
      <use xlink:href="#DejaVuSans-61" transform="translate(86.279297 0)"/>
      <use xlink:href="#DejaVuSans-67" transform="translate(147.558594 0)"/>
      <use xlink:href="#DejaVuSans-6e" transform="translate(211.035156 0)"/>
      <use xlink:href="#DejaVuSans-69" transform="translate(274.414062 0)"/>
      <use xlink:href="#DejaVuSans-74" transform="translate(302.197266 0)"/>
      <use xlink:href="#DejaVuSans-75" transform="translate(341.40625 0)"/>
      <use xlink:href="#DejaVuSans-64" transform="translate(404.785156 0)"/>
      <use xlink:href="#DejaVuSans-65" transform="translate(468.261719 0)"/>
     </g>
    </g>
   </g>
   <g id="line2d_47">
    <path d="M 54.505114 176.550037 
L 55.775614 178.397425 
L 57.046115 180.586018 
L 58.316616 183.105056 
L 59.587117 185.940833 
L 62.128119 192.492276 
L 64.66912 200.064679 
L 67.210122 208.409599 
L 72.292126 225.433799 
L 73.562626 228.790191 
L 74.833127 230.85092 
L 76.103628 230.893872 
L 77.374129 228.898131 
L 78.64463 225.571871 
L 81.185632 217.266724 
L 86.267635 199.962218 
L 88.808637 192.119884 
L 91.349638 185.141069 
L 93.89064 179.151094 
L 95.161141 176.550037 
L 96.431642 174.216939 
L 97.702143 172.151906 
L 98.972644 170.352881 
L 100.243144 168.815192 
L 101.513645 167.531714 
L 102.784146 166.493041 
L 104.054647 165.687679 
L 105.325148 165.102268 
L 106.595649 164.721821 
L 107.86615 164.529991 
L 109.13665 164.509356 
L 110.407151 164.641731 
L 111.677652 164.908485 
L 114.218654 165.77039 
L 116.759656 166.94979 
L 120.571158 169.032029 
L 126.923662 172.564084 
L 130.735165 174.444051 
L 134.546667 176.070222 
L 138.35817 177.444402 
L 140.899172 178.172842 
L 143.440173 178.69314 
L 145.981175 178.959527 
L 148.522177 178.934317 
L 151.063179 178.601337 
L 153.60418 177.977509 
L 156.145182 177.119103 
L 163.768187 174.226781 
L 166.309189 173.625828 
L 167.57969 173.475842 
L 168.850191 173.448324 
L 170.120691 173.558098 
L 171.391192 173.818239 
L 172.661693 174.239834 
L 173.932194 174.831769 
L 175.202695 175.600534 
L 176.473196 176.550037 
L 177.743697 177.661065 
L 179.014197 178.951316 
L 181.555199 182.047252 
L 184.096201 185.757838 
L 186.637203 189.938361 
L 192.989707 200.717587 
L 194.260208 202.529026 
L 195.530709 204.071366 
L 196.801209 205.271089 
L 198.07171 206.06028 
L 199.342211 206.385134 
L 200.612712 206.214237 
L 201.883213 205.543759 
L 203.153714 204.397444 
L 204.424215 202.82148 
L 205.694715 200.876423 
L 206.965216 198.628983 
L 209.506218 193.488288 
L 214.588221 182.1325 
L 218.399724 173.878827 
L 220.940726 168.869899 
L 223.481727 164.400157 
L 226.022729 160.553968 
L 228.563731 157.390726 
L 229.834232 156.078765 
L 231.104732 154.952119 
L 232.375233 154.014161 
L 233.645734 153.26779 
L 234.916235 152.715526 
L 236.186736 152.359589 
L 237.457237 152.201943 
L 238.727738 152.244327 
L 239.998238 152.488247 
L 241.268739 152.934942 
L 242.53924 153.58533 
L 243.809741 154.439912 
L 245.080242 155.498664 
L 246.350743 156.760883 
L 247.621244 158.225018 
L 248.891744 159.888468 
L 251.432746 163.796222 
L 253.973748 168.432631 
L 256.51475 173.710661 
L 259.055751 179.493376 
L 265.408256 194.54152 
L 267.949257 199.733492 
L 269.219758 201.861337 
L 270.490259 203.562129 
L 271.76076 204.757259 
L 273.031261 205.388429 
L 274.301762 205.429634 
L 275.572262 204.89396 
L 276.842763 203.83192 
L 278.113264 202.32208 
L 279.383765 200.458215 
L 281.924767 196.05277 
L 287.00677 186.78443 
L 289.547772 182.849747 
L 290.818273 181.190541 
L 292.088774 179.76811 
L 293.359274 178.598101 
L 294.629775 177.690221 
L 295.900276 177.048391 
L 297.170777 176.670823 
L 298.441278 176.550037 
L 299.711779 176.691672 
L 300.982279 177.055553 
L 302.25278 177.616473 
L 303.523281 178.343579 
L 306.064283 180.146113 
L 309.875785 183.042179 
L 311.146286 183.860395 
L 312.416787 184.524043 
L 313.687288 184.99173 
L 314.957789 185.231121 
L 316.22829 185.22167 
L 317.498791 184.956548 
L 318.769291 184.443389 
L 320.039792 183.703737 
L 321.310293 182.771297 
L 323.851295 180.508 
L 327.662797 176.909247 
L 328.933298 175.870731 
L 330.203799 174.996106 
L 331.4743 174.329504 
L 332.744801 173.910334 
L 334.015302 173.773006 
L 335.285803 173.946792 
L 336.556303 174.455786 
L 337.826804 175.318921 
L 339.097305 176.550037 
L 340.367806 178.157965 
L 341.638307 180.146613 
L 342.908808 182.515182 
L 344.179309 185.258356 
L 345.449809 188.366483 
L 346.72031 191.825781 
L 349.261312 199.723322 
L 351.802314 208.765564 
L 354.343315 218.709651 
L 359.425319 239.16289 
L 360.69582 238.933513 
L 361.966321 234.170244 
L 367.048324 213.250056 
L 369.589326 203.651892 
L 372.130327 195.026632 
L 374.671329 187.561004 
L 375.94183 184.304948 
L 377.212331 181.381266 
L 378.482832 178.795762 
L 379.753333 176.550037 
L 381.023833 174.681046 
L 382.294334 173.141684 
L 383.564835 171.920173 
L 384.835336 171.000524 
L 386.105837 170.362673 
L 387.376338 169.982708 
L 388.646838 169.833178 
L 389.917339 169.883516 
L 391.18784 170.100585 
L 393.728842 170.893816 
L 400.081346 173.353737 
L 402.622348 173.952467 
L 405.16335 174.186957 
L 407.704351 174.119389 
L 412.786355 173.804938 
L 414.056856 173.866595 
L 415.327356 174.048824 
L 416.597857 174.381943 
L 417.868358 174.893839 
L 419.138859 175.609391 
L 420.40936 176.550037 
L 421.679861 177.713378 
L 422.950362 179.132901 
L 424.220862 180.818393 
L 425.491363 182.775358 
L 426.761864 185.004901 
L 428.032365 187.503596 
L 430.573367 193.270612 
L 433.114368 199.945407 
L 436.925871 211.067868 
L 439.466873 218.400998 
L 440.737374 221.600229 
L 442.007874 224.104637 
L 443.278375 225.51245 
L 444.548876 225.485511 
L 445.819377 223.989388 
L 447.089878 221.312689 
L 448.360379 217.838837 
L 450.90138 209.646061 
L 457.253885 188.045356 
L 459.794886 180.189079 
L 459.794886 180.189079 
" clip-path="url(#p1141617104)" style="fill: none; stroke: #1f77b4; stroke-width: 1.5; stroke-linecap: square"/>
   </g>
   <g id="patch_9">
    <path d="M 34.240625 243.24375 
L 34.240625 147.853896 
" style="fill: none; stroke: #000000; stroke-width: 0.8; stroke-linejoin: miter; stroke-linecap: square"/>
   </g>
   <g id="patch_10">
    <path d="M 480.059375 243.24375 
L 480.059375 147.853896 
" style="fill: none; stroke: #000000; stroke-width: 0.8; stroke-linejoin: miter; stroke-linecap: square"/>
   </g>
   <g id="patch_11">
    <path d="M 34.240625 243.24375 
L 480.059375 243.24375 
" style="fill: none; stroke: #000000; stroke-width: 0.8; stroke-linejoin: miter; stroke-linecap: square"/>
   </g>
   <g id="patch_12">
    <path d="M 34.240625 147.853896 
L 480.059375 147.853896 
" style="fill: none; stroke: #000000; stroke-width: 0.8; stroke-linejoin: miter; stroke-linecap: square"/>
   </g>
  </g>
 </g>
 <defs>
  <clipPath id="pf2511b97be">
   <rect x="34.240625" y="22.318125" width="445.81875" height="95.389854"/>
  </clipPath>
  <clipPath id="p1141617104">
   <rect x="34.240625" y="147.853896" width="445.81875" height="95.389854"/>
  </clipPath>
 </defs>
</svg>
