<?xml version="1.0" encoding="utf-8" standalone="no"?>
<!DOCTYPE svg PUBLIC "-//W3C//DTD SVG 1.1//EN"
  "http://www.w3.org/Graphics/SVG/1.1/DTD/svg11.dtd">
<svg xmlns:xlink="http://www.w3.org/1999/xlink" width="970.06054pt" height="423.034375pt" viewBox="0 0 970.06054 423.034375" xmlns="http://www.w3.org/2000/svg" version="1.1">
 <metadata>
  <rdf:RDF xmlns:dc="http://purl.org/dc/elements/1.1/" xmlns:cc="http://creativecommons.org/ns#" xmlns:rdf="http://www.w3.org/1999/02/22-rdf-syntax-ns#">
   <cc:Work>
    <dc:type rdf:resource="http://purl.org/dc/dcmitype/StillImage"/>
    <dc:date>2026-06-24T23:58:47.790598</dc:date>
    <dc:format>image/svg+xml</dc:format>
    <dc:creator>
     <cc:Agent>
      <dc:title>Matplotlib v3.10.9, https://matplotlib.org/</dc:title>
     </cc:Agent>
    </dc:creator>
   </cc:Work>
  </rdf:RDF>
 </metadata>
 <defs>
  <style type="text/css">*{stroke-linejoin: round; stroke-linecap: butt}</style>
 </defs>
 <g id="figure_1">
  <g id="patch_1">
   <path d="M 0 423.034375 
L 970.06054 423.034375 
L 970.06054 0 
L 0 0 
z
" style="fill: #ffffff"/>
  </g>
  <g id="axes_1">
   <g id="patch_2">
    <path d="M 55.345312 385.478125 
L 418.505313 385.478125 
L 418.505313 22.318125 
L 55.345312 22.318125 
z
" style="fill: #ffffff"/>
   </g>
   <g id="matplotlib.axis_1">
    <g id="xtick_1">
     <g id="line2d_1">
      <defs>
       <path id="ma1a5758adf" d="M 0 0 
L 0 3.5 
" style="stroke: #000000; stroke-width: 0.8"/>
      </defs>
      <g>
       <use xlink:href="#ma1a5758adf" x="55.345313" y="385.478125" style="stroke: #000000; stroke-width: 0.8"/>
      </g>
     </g>
     <g id="text_1">
      <!-- −200 -->
      <g transform="translate(41.611719 400.076562) scale(0.1 -0.1)">
       <defs>
        <path id="DejaVuSans-2212" d="M 678 2272 
L 4684 2272 
L 4684 1741 
L 678 1741 
L 678 2272 
z
" transform="scale(0.015625)"/>
        <path id="DejaVuSans-32" d="M 1228 531 
L 3431 531 
L 3431 0 
L 469 0 
L 469 531 
Q 828 903 1448 1529 
Q 2069 2156 2228 2338 
Q 2531 2678 2651 2914 
Q 2772 3150 2772 3378 
Q 2772 3750 2511 3984 
Q 2250 4219 1831 4219 
Q 1534 4219 1204 4116 
Q 875 4013 500 3803 
L 500 4441 
Q 881 4594 1212 4672 
Q 1544 4750 1819 4750 
Q 2544 4750 2975 4387 
Q 3406 4025 3406 3419 
Q 3406 3131 3298 2873 
Q 3191 2616 2906 2266 
Q 2828 2175 2409 1742 
Q 1991 1309 1228 531 
z
" transform="scale(0.015625)"/>
        <path id="DejaVuSans-30" d="M 2034 4250 
Q 1547 4250 1301 3770 
Q 1056 3291 1056 2328 
Q 1056 1369 1301 889 
Q 1547 409 2034 409 
Q 2525 409 2770 889 
Q 3016 1369 3016 2328 
Q 3016 3291 2770 3770 
Q 2525 4250 2034 4250 
z
M 2034 4750 
Q 2819 4750 3233 4129 
Q 3647 3509 3647 2328 
Q 3647 1150 3233 529 
Q 2819 -91 2034 -91 
Q 1250 -91 836 529 
Q 422 1150 422 2328 
Q 422 3509 836 4129 
Q 1250 4750 2034 4750 
z
" transform="scale(0.015625)"/>
       </defs>
       <use xlink:href="#DejaVuSans-2212"/>
       <use xlink:href="#DejaVuSans-32" transform="translate(83.789062 0)"/>
       <use xlink:href="#DejaVuSans-30" transform="translate(147.412109 0)"/>
       <use xlink:href="#DejaVuSans-30" transform="translate(211.035156 0)"/>
      </g>
     </g>
    </g>
    <g id="xtick_2">
     <g id="line2d_2">
      <g>
       <use xlink:href="#ma1a5758adf" x="127.977313" y="385.478125" style="stroke: #000000; stroke-width: 0.8"/>
      </g>
     </g>
     <g id="text_2">
      <!-- 0 -->
      <g transform="translate(124.796063 400.076562) scale(0.1 -0.1)">
       <use xlink:href="#DejaVuSans-30"/>
      </g>
     </g>
    </g>
    <g id="xtick_3">
     <g id="line2d_3">
      <g>
       <use xlink:href="#ma1a5758adf" x="200.609313" y="385.478125" style="stroke: #000000; stroke-width: 0.8"/>
      </g>
     </g>
     <g id="text_3">
      <!-- 200 -->
      <g transform="translate(191.065563 400.076562) scale(0.1 -0.1)">
       <use xlink:href="#DejaVuSans-32"/>
       <use xlink:href="#DejaVuSans-30" transform="translate(63.623047 0)"/>
       <use xlink:href="#DejaVuSans-30" transform="translate(127.246094 0)"/>
      </g>
     </g>
    </g>
    <g id="xtick_4">
     <g id="line2d_4">
      <g>
       <use xlink:href="#ma1a5758adf" x="273.241313" y="385.478125" style="stroke: #000000; stroke-width: 0.8"/>
      </g>
     </g>
     <g id="text_4">
      <!-- 400 -->
      <g transform="translate(263.697563 400.076562) scale(0.1 -0.1)">
       <defs>
        <path id="DejaVuSans-34" d="M 2419 4116 
L 825 1625 
L 2419 1625 
L 2419 4116 
z
M 2253 4666 
L 3047 4666 
L 3047 1625 
L 3713 1625 
L 3713 1100 
L 3047 1100 
L 3047 0 
L 2419 0 
L 2419 1100 
L 313 1100 
L 313 1709 
L 2253 4666 
z
" transform="scale(0.015625)"/>
       </defs>
       <use xlink:href="#DejaVuSans-34"/>
       <use xlink:href="#DejaVuSans-30" transform="translate(63.623047 0)"/>
       <use xlink:href="#DejaVuSans-30" transform="translate(127.246094 0)"/>
      </g>
     </g>
    </g>
    <g id="xtick_5">
     <g id="line2d_5">
      <g>
       <use xlink:href="#ma1a5758adf" x="345.873312" y="385.478125" style="stroke: #000000; stroke-width: 0.8"/>
      </g>
     </g>
     <g id="text_5">
      <!-- 600 -->
      <g transform="translate(336.329563 400.076562) scale(0.1 -0.1)">
       <defs>
        <path id="DejaVuSans-36" d="M 2113 2584 
Q 1688 2584 1439 2293 
Q 1191 2003 1191 1497 
Q 1191 994 1439 701 
Q 1688 409 2113 409 
Q 2538 409 2786 701 
Q 3034 994 3034 1497 
Q 3034 2003 2786 2293 
Q 2538 2584 2113 2584 
z
M 3366 4563 
L 3366 3988 
Q 3128 4100 2886 4159 
Q 2644 4219 2406 4219 
Q 1781 4219 1451 3797 
Q 1122 3375 1075 2522 
Q 1259 2794 1537 2939 
Q 1816 3084 2150 3084 
Q 2853 3084 3261 2657 
Q 3669 2231 3669 1497 
Q 3669 778 3244 343 
Q 2819 -91 2113 -91 
Q 1303 -91 875 529 
Q 447 1150 447 2328 
Q 447 3434 972 4092 
Q 1497 4750 2381 4750 
Q 2619 4750 2861 4703 
Q 3103 4656 3366 4563 
z
" transform="scale(0.015625)"/>
       </defs>
       <use xlink:href="#DejaVuSans-36"/>
       <use xlink:href="#DejaVuSans-30" transform="translate(63.623047 0)"/>
       <use xlink:href="#DejaVuSans-30" transform="translate(127.246094 0)"/>
      </g>
     </g>
    </g>
    <g id="xtick_6">
     <g id="line2d_6">
      <g>
       <use xlink:href="#ma1a5758adf" x="418.505313" y="385.478125" style="stroke: #000000; stroke-width: 0.8"/>
      </g>
     </g>
     <g id="text_6">
      <!-- 800 -->
      <g transform="translate(408.961563 400.076562) scale(0.1 -0.1)">
       <defs>
        <path id="DejaVuSans-38" d="M 2034 2216 
Q 1584 2216 1326 1975 
Q 1069 1734 1069 1313 
Q 1069 891 1326 650 
Q 1584 409 2034 409 
Q 2484 409 2743 651 
Q 3003 894 3003 1313 
Q 3003 1734 2745 1975 
Q 2488 2216 2034 2216 
z
M 1403 2484 
Q 997 2584 770 2862 
Q 544 3141 544 3541 
Q 544 4100 942 4425 
Q 1341 4750 2034 4750 
Q 2731 4750 3128 4425 
Q 3525 4100 3525 3541 
Q 3525 3141 3298 2862 
Q 3072 2584 2669 2484 
Q 3125 2378 3379 2068 
Q 3634 1759 3634 1313 
Q 3634 634 3220 271 
Q 2806 -91 2034 -91 
Q 1263 -91 848 271 
Q 434 634 434 1313 
Q 434 1759 690 2068 
Q 947 2378 1403 2484 
z
M 1172 3481 
Q 1172 3119 1398 2916 
Q 1625 2713 2034 2713 
Q 2441 2713 2670 2916 
Q 2900 3119 2900 3481 
Q 2900 3844 2670 4047 
Q 2441 4250 2034 4250 
Q 1625 4250 1398 4047 
Q 1172 3844 1172 3481 
z
" transform="scale(0.015625)"/>
       </defs>
       <use xlink:href="#DejaVuSans-38"/>
       <use xlink:href="#DejaVuSans-30" transform="translate(63.623047 0)"/>
       <use xlink:href="#DejaVuSans-30" transform="translate(127.246094 0)"/>
      </g>
     </g>
    </g>
    <g id="text_7">
     <!-- x [m] -->
     <g transform="translate(223.605 413.754687) scale(0.1 -0.1)">
      <defs>
       <path id="DejaVuSans-78" d="M 3513 3500 
L 2247 1797 
L 3578 0 
L 2900 0 
L 1881 1375 
L 863 0 
L 184 0 
L 1544 1831 
L 300 3500 
L 978 3500 
L 1906 2253 
L 2834 3500 
L 3513 3500 
z
" transform="scale(0.015625)"/>
       <path id="DejaVuSans-20" transform="scale(0.015625)"/>
       <path id="DejaVuSans-5b" d="M 550 4863 
L 1875 4863 
L 1875 4416 
L 1125 4416 
L 1125 -397 
L 1875 -397 
L 1875 -844 
L 550 -844 
L 550 4863 
z
" transform="scale(0.015625)"/>
       <path id="DejaVuSans-6d" d="M 3328 2828 
Q 3544 3216 3844 3400 
Q 4144 3584 4550 3584 
Q 5097 3584 5394 3201 
Q 5691 2819 5691 2113 
L 5691 0 
L 5113 0 
L 5113 2094 
Q 5113 2597 4934 2840 
Q 4756 3084 4391 3084 
Q 3944 3084 3684 2787 
Q 3425 2491 3425 1978 
L 3425 0 
L 2847 0 
L 2847 2094 
Q 2847 2600 2669 2842 
Q 2491 3084 2119 3084 
Q 1678 3084 1418 2786 
Q 1159 2488 1159 1978 
L 1159 0 
L 581 0 
L 581 3500 
L 1159 3500 
L 1159 2956 
Q 1356 3278 1631 3431 
Q 1906 3584 2284 3584 
Q 2666 3584 2933 3390 
Q 3200 3197 3328 2828 
z
" transform="scale(0.015625)"/>
       <path id="DejaVuSans-5d" d="M 1947 4863 
L 1947 -844 
L 622 -844 
L 622 -397 
L 1369 -397 
L 1369 4416 
L 622 4416 
L 622 4863 
L 1947 4863 
z
" transform="scale(0.015625)"/>
      </defs>
      <use xlink:href="#DejaVuSans-78"/>
      <use xlink:href="#DejaVuSans-20" transform="translate(59.179688 0)"/>
      <use xlink:href="#DejaVuSans-5b" transform="translate(90.966797 0)"/>
      <use xlink:href="#DejaVuSans-6d" transform="translate(129.980469 0)"/>
      <use xlink:href="#DejaVuSans-5d" transform="translate(227.392578 0)"/>
     </g>
    </g>
   </g>
   <g id="matplotlib.axis_2">
    <g id="ytick_1">
     <g id="line2d_7">
      <defs>
       <path id="m2d82006074" d="M 0 0 
L -3.5 0 
" style="stroke: #000000; stroke-width: 0.8"/>
      </defs>
      <g>
       <use xlink:href="#m2d82006074" x="55.345312" y="385.478125" style="stroke: #000000; stroke-width: 0.8"/>
      </g>
     </g>
     <g id="text_8">
      <!-- −200 -->
      <g transform="translate(20.878125 389.277344) scale(0.1 -0.1)">
       <use xlink:href="#DejaVuSans-2212"/>
       <use xlink:href="#DejaVuSans-32" transform="translate(83.789062 0)"/>
       <use xlink:href="#DejaVuSans-30" transform="translate(147.412109 0)"/>
       <use xlink:href="#DejaVuSans-30" transform="translate(211.035156 0)"/>
      </g>
     </g>
    </g>
    <g id="ytick_2">
     <g id="line2d_8">
      <g>
       <use xlink:href="#m2d82006074" x="55.345312" y="312.846125" style="stroke: #000000; stroke-width: 0.8"/>
      </g>
     </g>
     <g id="text_9">
      <!-- 0 -->
      <g transform="translate(41.982812 316.645344) scale(0.1 -0.1)">
       <use xlink:href="#DejaVuSans-30"/>
      </g>
     </g>
    </g>
    <g id="ytick_3">
     <g id="line2d_9">
      <g>
       <use xlink:href="#m2d82006074" x="55.345312" y="240.214125" style="stroke: #000000; stroke-width: 0.8"/>
      </g>
     </g>
     <g id="text_10">
      <!-- 200 -->
      <g transform="translate(29.257812 244.013344) scale(0.1 -0.1)">
       <use xlink:href="#DejaVuSans-32"/>
       <use xlink:href="#DejaVuSans-30" transform="translate(63.623047 0)"/>
       <use xlink:href="#DejaVuSans-30" transform="translate(127.246094 0)"/>
      </g>
     </g>
    </g>
    <g id="ytick_4">
     <g id="line2d_10">
      <g>
       <use xlink:href="#m2d82006074" x="55.345312" y="167.582125" style="stroke: #000000; stroke-width: 0.8"/>
      </g>
     </g>
     <g id="text_11">
      <!-- 400 -->
      <g transform="translate(29.257812 171.381344) scale(0.1 -0.1)">
       <use xlink:href="#DejaVuSans-34"/>
       <use xlink:href="#DejaVuSans-30" transform="translate(63.623047 0)"/>
       <use xlink:href="#DejaVuSans-30" transform="translate(127.246094 0)"/>
      </g>
     </g>
    </g>
    <g id="ytick_5">
     <g id="line2d_11">
      <g>
       <use xlink:href="#m2d82006074" x="55.345312" y="94.950125" style="stroke: #000000; stroke-width: 0.8"/>
      </g>
     </g>
     <g id="text_12">
      <!-- 600 -->
      <g transform="translate(29.257812 98.749344) scale(0.1 -0.1)">
       <use xlink:href="#DejaVuSans-36"/>
       <use xlink:href="#DejaVuSans-30" transform="translate(63.623047 0)"/>
       <use xlink:href="#DejaVuSans-30" transform="translate(127.246094 0)"/>
      </g>
     </g>
    </g>
    <g id="ytick_6">
     <g id="line2d_12">
      <g>
       <use xlink:href="#m2d82006074" x="55.345312" y="22.318125" style="stroke: #000000; stroke-width: 0.8"/>
      </g>
     </g>
     <g id="text_13">
      <!-- 800 -->
      <g transform="translate(29.257812 26.117344) scale(0.1 -0.1)">
       <use xlink:href="#DejaVuSans-38"/>
       <use xlink:href="#DejaVuSans-30" transform="translate(63.623047 0)"/>
       <use xlink:href="#DejaVuSans-30" transform="translate(127.246094 0)"/>
      </g>
     </g>
    </g>
    <g id="text_14">
     <!-- y [m] -->
     <g transform="translate(14.798437 217.218437) rotate(-90) scale(0.1 -0.1)">
      <defs>
       <path id="DejaVuSans-79" d="M 2059 -325 
Q 1816 -950 1584 -1140 
Q 1353 -1331 966 -1331 
L 506 -1331 
L 506 -850 
L 844 -850 
Q 1081 -850 1212 -737 
Q 1344 -625 1503 -206 
L 1606 56 
L 191 3500 
L 800 3500 
L 1894 763 
L 2988 3500 
L 3597 3500 
L 2059 -325 
z
" transform="scale(0.015625)"/>
      </defs>
      <use xlink:href="#DejaVuSans-79"/>
      <use xlink:href="#DejaVuSans-20" transform="translate(59.179688 0)"/>
      <use xlink:href="#DejaVuSans-5b" transform="translate(90.966797 0)"/>
      <use xlink:href="#DejaVuSans-6d" transform="translate(129.980469 0)"/>
      <use xlink:href="#DejaVuSans-5d" transform="translate(227.392578 0)"/>
     </g>
    </g>
   </g>
   <g id="QuadContourSet_1">
    <path d="M 64.559045 385.478125 
L 80.214602 371.825493 
L 93.486225 359.993213 
L 103.584611 350.782182 
L 115.122377 339.969353 
L 123.60847 331.765906 
L 131.800049 323.58162 
L 139.674878 315.394616 
L 145.551817 309.023388 
L 151.823909 301.900122 
L 157.284962 295.341322 
L 162.245397 288.999529 
L 166.386716 283.33622 
L 170.027418 277.980031 
L 173.385915 272.616371 
L 175.998787 268.065493 
L 178.384171 263.514616 
L 180.533022 258.963739 
L 182.440484 254.412862 
L 184.102166 249.861985 
L 185.516755 245.311107 
L 186.684216 240.76023 
L 187.608171 236.209353 
L 188.293579 231.658476 
L 188.74754 227.107599 
L 188.978782 222.556721 
L 188.997358 218.005844 
L 188.814173 213.454967 
L 188.344679 207.993914 
L 187.621735 202.532862 
L 186.666348 197.071809 
L 185.498798 191.610757 
L 183.892149 185.239529 
L 182.050645 178.8683 
L 179.999945 172.497072 
L 177.308821 164.889669 
L 174.282728 157.02409 
L 170.906471 148.832511 
L 166.510839 138.820581 
L 162.297341 129.718827 
L 157.01256 118.796721 
L 150.913734 106.694739 
L 142.953958 91.491458 
L 135.579791 77.838827 
L 128.031036 64.186195 
L 117.226571 45.072511 
L 104.080154 22.318125 
L 104.080154 22.318125 
" clip-path="url(#p1b1af2ecb4)" style="fill: none; stroke-dasharray: 5.55,2.4; stroke-dashoffset: 0; stroke: #1f77b4; stroke-width: 1.5"/>
   </g>
   <g id="QuadContourSet_2">
    <path d="M 418.505313 273.057428 
L 337.499698 241.210074 
L 288.350225 222.078488 
L 255.583909 209.522049 
L 231.009172 200.324625 
L 212.805663 193.73592 
L 198.811488 188.88023 
L 185.5004 184.506792 
L 174.578295 181.143563 
L 163.460321 177.958125 
L 152.734084 175.115719 
L 140.901804 172.219862 
L 128.159348 169.332196 
L 112.686365 166.064393 
L 93.572681 162.269263 
L 68.997944 157.627732 
L 55.345313 155.121197 
L 55.345313 155.121197 
" clip-path="url(#p1b1af2ecb4)" style="fill: none; stroke-dasharray: 5.55,2.4; stroke-dashoffset: 0; stroke: #ff7f0e; stroke-width: 1.5"/>
   </g>
   <g id="QuadContourSet_3">
    <path d="M 269.936325 22.318125 
L 267.41619 35.979631 
L 265.017646 47.803037 
L 262.582208 58.725143 
L 260.124622 68.737072 
L 257.665352 77.838827 
L 255.233158 86.030406 
L 252.554634 94.221985 
L 249.929633 101.503388 
L 247.39233 107.922081 
L 244.655963 114.245844 
L 241.931277 119.997437 
L 239.200751 125.287344 
L 236.194551 130.629002 
L 232.829523 136.086864 
L 230.098997 140.163235 
L 227.132979 144.281634 
L 223.586421 148.832511 
L 219.729216 153.383388 
L 216.39979 157.02409 
L 211.905137 161.574967 
L 208.022197 165.215669 
L 203.703909 168.995587 
L 199.153032 172.712586 
L 193.691979 176.86605 
L 188.230927 180.735511 
L 181.859698 184.949155 
L 175.48847 188.890298 
L 168.207067 193.117541 
L 160.015488 197.579854 
L 150.913734 202.239814 
L 140.875135 207.083739 
L 130.889874 211.652681 
L 119.967769 216.418608 
L 107.225313 221.730766 
L 93.572681 227.184129 
L 78.099698 233.12729 
L 60.806365 239.533378 
L 55.345312 241.513235 
L 55.345312 241.513235 
" clip-path="url(#p1b1af2ecb4)" style="fill: none; stroke-dasharray: 5.55,2.4; stroke-dashoffset: 0; stroke: #2ca02c; stroke-width: 1.5"/>
   </g>
   <g id="patch_3">
    <path d="M 55.345312 385.478125 
L 55.345312 22.318125 
" style="fill: none; stroke: #000000; stroke-width: 0.8; stroke-linejoin: miter; stroke-linecap: square"/>
   </g>
   <g id="patch_4">
    <path d="M 418.505313 385.478125 
L 418.505313 22.318125 
" style="fill: none; stroke: #000000; stroke-width: 0.8; stroke-linejoin: miter; stroke-linecap: square"/>
   </g>
   <g id="patch_5">
    <path d="M 55.345313 385.478125 
L 418.505313 385.478125 
" style="fill: none; stroke: #000000; stroke-width: 0.8; stroke-linejoin: miter; stroke-linecap: square"/>
   </g>
   <g id="patch_6">
    <path d="M 55.345313 22.318125 
L 418.505313 22.318125 
" style="fill: none; stroke: #000000; stroke-width: 0.8; stroke-linejoin: miter; stroke-linecap: square"/>
   </g>
   <g id="text_15">
    <!-- TDOA hyperbolas -->
    <g transform="translate(184.740313 16.318125) scale(0.12 -0.12)">
     <defs>
      <path id="DejaVuSans-54" d="M -19 4666 
L 3928 4666 
L 3928 4134 
L 2272 4134 
L 2272 0 
L 1638 0 
L 1638 4134 
L -19 4134 
L -19 4666 
z
" transform="scale(0.015625)"/>
      <path id="DejaVuSans-44" d="M 1259 4147 
L 1259 519 
L 2022 519 
Q 2988 519 3436 956 
Q 3884 1394 3884 2338 
Q 3884 3275 3436 3711 
Q 2988 4147 2022 4147 
L 1259 4147 
z
M 628 4666 
L 1925 4666 
Q 3281 4666 3915 4102 
Q 4550 3538 4550 2338 
Q 4550 1131 3912 565 
Q 3275 0 1925 0 
L 628 0 
L 628 4666 
z
" transform="scale(0.015625)"/>
      <path id="DejaVuSans-4f" d="M 2522 4238 
Q 1834 4238 1429 3725 
Q 1025 3213 1025 2328 
Q 1025 1447 1429 934 
Q 1834 422 2522 422 
Q 3209 422 3611 934 
Q 4013 1447 4013 2328 
Q 4013 3213 3611 3725 
Q 3209 4238 2522 4238 
z
M 2522 4750 
Q 3503 4750 4090 4092 
Q 4678 3434 4678 2328 
Q 4678 1225 4090 567 
Q 3503 -91 2522 -91 
Q 1538 -91 948 565 
Q 359 1222 359 2328 
Q 359 3434 948 4092 
Q 1538 4750 2522 4750 
z
" transform="scale(0.015625)"/>
      <path id="DejaVuSans-41" d="M 2188 4044 
L 1331 1722 
L 3047 1722 
L 2188 4044 
z
M 1831 4666 
L 2547 4666 
L 4325 0 
L 3669 0 
L 3244 1197 
L 1141 1197 
L 716 0 
L 50 0 
L 1831 4666 
z
" transform="scale(0.015625)"/>
      <path id="DejaVuSans-68" d="M 3513 2113 
L 3513 0 
L 2938 0 
L 2938 2094 
Q 2938 2591 2744 2837 
Q 2550 3084 2163 3084 
Q 1697 3084 1428 2787 
Q 1159 2491 1159 1978 
L 1159 0 
L 581 0 
L 581 4863 
L 1159 4863 
L 1159 2956 
Q 1366 3272 1645 3428 
Q 1925 3584 2291 3584 
Q 2894 3584 3203 3211 
Q 3513 2838 3513 2113 
z
" transform="scale(0.015625)"/>
      <path id="DejaVuSans-70" d="M 1159 525 
L 1159 -1331 
L 581 -1331 
L 581 3500 
L 1159 3500 
L 1159 2969 
Q 1341 3281 1617 3432 
Q 1894 3584 2278 3584 
Q 2916 3584 3314 3078 
Q 3713 2572 3713 1747 
Q 3713 922 3314 415 
Q 2916 -91 2278 -91 
Q 1894 -91 1617 61 
Q 1341 213 1159 525 
z
M 3116 1747 
Q 3116 2381 2855 2742 
Q 2594 3103 2138 3103 
Q 1681 3103 1420 2742 
Q 1159 2381 1159 1747 
Q 1159 1113 1420 752 
Q 1681 391 2138 391 
Q 2594 391 2855 752 
Q 3116 1113 3116 1747 
z
" transform="scale(0.015625)"/>
      <path id="DejaVuSans-65" d="M 3597 1894 
L 3597 1613 
L 953 1613 
Q 991 1019 1311 708 
Q 1631 397 2203 397 
Q 2534 397 2845 478 
Q 3156 559 3463 722 
L 3463 178 
Q 3153 47 2828 -22 
Q 2503 -91 2169 -91 
Q 1331 -91 842 396 
Q 353 884 353 1716 
Q 353 2575 817 3079 
Q 1281 3584 2069 3584 
Q 2775 3584 3186 3129 
Q 3597 2675 3597 1894 
z
M 3022 2063 
Q 3016 2534 2758 2815 
Q 2500 3097 2075 3097 
Q 1594 3097 1305 2825 
Q 1016 2553 972 2059 
L 3022 2063 
z
" transform="scale(0.015625)"/>
      <path id="DejaVuSans-72" d="M 2631 2963 
Q 2534 3019 2420 3045 
Q 2306 3072 2169 3072 
Q 1681 3072 1420 2755 
Q 1159 2438 1159 1844 
L 1159 0 
L 581 0 
L 581 3500 
L 1159 3500 
L 1159 2956 
Q 1341 3275 1631 3429 
Q 1922 3584 2338 3584 
Q 2397 3584 2469 3576 
Q 2541 3569 2628 3553 
L 2631 2963 
z
" transform="scale(0.015625)"/>
      <path id="DejaVuSans-62" d="M 3116 1747 
Q 3116 2381 2855 2742 
Q 2594 3103 2138 3103 
Q 1681 3103 1420 2742 
Q 1159 2381 1159 1747 
Q 1159 1113 1420 752 
Q 1681 391 2138 391 
Q 2594 391 2855 752 
Q 3116 1113 3116 1747 
z
M 1159 2969 
Q 1341 3281 1617 3432 
Q 1894 3584 2278 3584 
Q 2916 3584 3314 3078 
Q 3713 2572 3713 1747 
Q 3713 922 3314 415 
Q 2916 -91 2278 -91 
Q 1894 -91 1617 61 
Q 1341 213 1159 525 
L 1159 0 
L 581 0 
L 581 4863 
L 1159 4863 
L 1159 2969 
z
" transform="scale(0.015625)"/>
      <path id="DejaVuSans-6f" d="M 1959 3097 
Q 1497 3097 1228 2736 
Q 959 2375 959 1747 
Q 959 1119 1226 758 
Q 1494 397 1959 397 
Q 2419 397 2687 759 
Q 2956 1122 2956 1747 
Q 2956 2369 2687 2733 
Q 2419 3097 1959 3097 
z
M 1959 3584 
Q 2709 3584 3137 3096 
Q 3566 2609 3566 1747 
Q 3566 888 3137 398 
Q 2709 -91 1959 -91 
Q 1206 -91 779 398 
Q 353 888 353 1747 
Q 353 2609 779 3096 
Q 1206 3584 1959 3584 
z
" transform="scale(0.015625)"/>
      <path id="DejaVuSans-6c" d="M 603 4863 
L 1178 4863 
L 1178 0 
L 603 0 
L 603 4863 
z
" transform="scale(0.015625)"/>
      <path id="DejaVuSans-61" d="M 2194 1759 
Q 1497 1759 1228 1600 
Q 959 1441 959 1056 
Q 959 750 1161 570 
Q 1363 391 1709 391 
Q 2188 391 2477 730 
Q 2766 1069 2766 1631 
L 2766 1759 
L 2194 1759 
z
M 3341 1997 
L 3341 0 
L 2766 0 
L 2766 531 
Q 2569 213 2275 61 
Q 1981 -91 1556 -91 
Q 1019 -91 701 211 
Q 384 513 384 1019 
Q 384 1609 779 1909 
Q 1175 2209 1959 2209 
L 2766 2209 
L 2766 2266 
Q 2766 2663 2505 2880 
Q 2244 3097 1772 3097 
Q 1472 3097 1187 3025 
Q 903 2953 641 2809 
L 641 3341 
Q 956 3463 1253 3523 
Q 1550 3584 1831 3584 
Q 2591 3584 2966 3190 
Q 3341 2797 3341 1997 
z
" transform="scale(0.015625)"/>
      <path id="DejaVuSans-73" d="M 2834 3397 
L 2834 2853 
Q 2591 2978 2328 3040 
Q 2066 3103 1784 3103 
Q 1356 3103 1142 2972 
Q 928 2841 928 2578 
Q 928 2378 1081 2264 
Q 1234 2150 1697 2047 
L 1894 2003 
Q 2506 1872 2764 1633 
Q 3022 1394 3022 966 
Q 3022 478 2636 193 
Q 2250 -91 1575 -91 
Q 1294 -91 989 -36 
Q 684 19 347 128 
L 347 722 
Q 666 556 975 473 
Q 1284 391 1588 391 
Q 1994 391 2212 530 
Q 2431 669 2431 922 
Q 2431 1156 2273 1281 
Q 2116 1406 1581 1522 
L 1381 1569 
Q 847 1681 609 1914 
Q 372 2147 372 2553 
Q 372 3047 722 3315 
Q 1072 3584 1716 3584 
Q 2034 3584 2315 3537 
Q 2597 3491 2834 3397 
z
" transform="scale(0.015625)"/>
     </defs>
     <use xlink:href="#DejaVuSans-54"/>
     <use xlink:href="#DejaVuSans-44" transform="translate(61.083984 0)"/>
     <use xlink:href="#DejaVuSans-4f" transform="translate(138.085938 0)"/>
     <use xlink:href="#DejaVuSans-41" transform="translate(215.046875 0)"/>
     <use xlink:href="#DejaVuSans-20" transform="translate(283.455078 0)"/>
     <use xlink:href="#DejaVuSans-68" transform="translate(315.242188 0)"/>
     <use xlink:href="#DejaVuSans-79" transform="translate(378.621094 0)"/>
     <use xlink:href="#DejaVuSans-70" transform="translate(437.800781 0)"/>
     <use xlink:href="#DejaVuSans-65" transform="translate(501.277344 0)"/>
     <use xlink:href="#DejaVuSans-72" transform="translate(562.800781 0)"/>
     <use xlink:href="#DejaVuSans-62" transform="translate(603.914062 0)"/>
     <use xlink:href="#DejaVuSans-6f" transform="translate(667.390625 0)"/>
     <use xlink:href="#DejaVuSans-6c" transform="translate(728.572266 0)"/>
     <use xlink:href="#DejaVuSans-61" transform="translate(756.355469 0)"/>
     <use xlink:href="#DejaVuSans-73" transform="translate(817.634766 0)"/>
    </g>
   </g>
   <g id="PathCollection_1">
    <defs>
     <path id="m70f4b44da0" d="M 0 -5.477226 
L -5.477226 5.477226 
L 5.477226 5.477226 
z
" style="stroke: #000000"/>
    </defs>
    <g clip-path="url(#p1b1af2ecb4)">
     <use xlink:href="#m70f4b44da0" x="151.582713" y="229.682485" style="fill: #1f77b4; stroke: #000000"/>
     <use xlink:href="#m70f4b44da0" x="373.473473" y="268.177445" style="fill: #1f77b4; stroke: #000000"/>
     <use xlink:href="#m70f4b44da0" x="183.540793" y="115.650245" style="fill: #1f77b4; stroke: #000000"/>
    </g>
   </g>
   <g id="PathCollection_2">
    <defs>
     <path id="m28440e9156" d="M 0 -8.660254 
L -1.944348 -2.676166 
L -8.236391 -2.676166 
L -3.146021 1.022204 
L -5.09037 7.006293 
L -0 3.307923 
L 5.09037 7.006293 
L 3.146021 1.022204 
L 8.236391 -2.676166 
L 1.944348 -2.676166 
z
" style="stroke: #000000"/>
    </defs>
    <g clip-path="url(#p1b1af2ecb4)">
     <use xlink:href="#m28440e9156" x="183.540793" y="183.924325" style="fill: #ff0000; stroke: #000000"/>
    </g>
   </g>
   <g id="legend_1">
    <g id="patch_7">
     <path d="M 331.031875 103.70875 
L 411.505313 103.70875 
Q 413.505313 103.70875 413.505313 101.70875 
L 413.505313 29.318125 
Q 413.505313 27.318125 411.505313 27.318125 
L 331.031875 27.318125 
Q 329.031875 27.318125 329.031875 29.318125 
L 329.031875 101.70875 
Q 329.031875 103.70875 331.031875 103.70875 
z
" style="fill: #ffffff; opacity: 0.8; stroke: #cccccc; stroke-linejoin: miter"/>
    </g>
    <g id="PathCollection_3">
     <g>
      <use xlink:href="#m70f4b44da0" x="343.031875" y="36.291562" style="fill: #1f77b4; stroke: #000000"/>
     </g>
    </g>
    <g id="text_16">
     <!-- Receivers -->
     <g transform="translate(361.031875 38.916562) scale(0.1 -0.1)">
      <defs>
       <path id="DejaVuSans-52" d="M 2841 2188 
Q 3044 2119 3236 1894 
Q 3428 1669 3622 1275 
L 4263 0 
L 3584 0 
L 2988 1197 
Q 2756 1666 2539 1819 
Q 2322 1972 1947 1972 
L 1259 1972 
L 1259 0 
L 628 0 
L 628 4666 
L 2053 4666 
Q 2853 4666 3247 4331 
Q 3641 3997 3641 3322 
Q 3641 2881 3436 2590 
Q 3231 2300 2841 2188 
z
M 1259 4147 
L 1259 2491 
L 2053 2491 
Q 2509 2491 2742 2702 
Q 2975 2913 2975 3322 
Q 2975 3731 2742 3939 
Q 2509 4147 2053 4147 
L 1259 4147 
z
" transform="scale(0.015625)"/>
       <path id="DejaVuSans-63" d="M 3122 3366 
L 3122 2828 
Q 2878 2963 2633 3030 
Q 2388 3097 2138 3097 
Q 1578 3097 1268 2742 
Q 959 2388 959 1747 
Q 959 1106 1268 751 
Q 1578 397 2138 397 
Q 2388 397 2633 464 
Q 2878 531 3122 666 
L 3122 134 
Q 2881 22 2623 -34 
Q 2366 -91 2075 -91 
Q 1284 -91 818 406 
Q 353 903 353 1747 
Q 353 2603 823 3093 
Q 1294 3584 2113 3584 
Q 2378 3584 2631 3529 
Q 2884 3475 3122 3366 
z
" transform="scale(0.015625)"/>
       <path id="DejaVuSans-69" d="M 603 3500 
L 1178 3500 
L 1178 0 
L 603 0 
L 603 3500 
z
M 603 4863 
L 1178 4863 
L 1178 4134 
L 603 4134 
L 603 4863 
z
" transform="scale(0.015625)"/>
       <path id="DejaVuSans-76" d="M 191 3500 
L 800 3500 
L 1894 563 
L 2988 3500 
L 3597 3500 
L 2284 0 
L 1503 0 
L 191 3500 
z
" transform="scale(0.015625)"/>
      </defs>
      <use xlink:href="#DejaVuSans-52"/>
      <use xlink:href="#DejaVuSans-65" transform="translate(64.982422 0)"/>
      <use xlink:href="#DejaVuSans-63" transform="translate(126.505859 0)"/>
      <use xlink:href="#DejaVuSans-65" transform="translate(181.486328 0)"/>
      <use xlink:href="#DejaVuSans-69" transform="translate(243.009766 0)"/>
      <use xlink:href="#DejaVuSans-76" transform="translate(270.792969 0)"/>
      <use xlink:href="#DejaVuSans-65" transform="translate(329.972656 0)"/>
      <use xlink:href="#DejaVuSans-72" transform="translate(391.496094 0)"/>
      <use xlink:href="#DejaVuSans-73" transform="translate(432.609375 0)"/>
     </g>
    </g>
    <g id="PathCollection_4">
     <g>
      <use xlink:href="#m28440e9156" x="343.031875" y="50.969688" style="fill: #ff0000; stroke: #000000"/>
     </g>
    </g>
    <g id="text_17">
     <!-- True Tx -->
     <g transform="translate(361.031875 53.594688) scale(0.1 -0.1)">
      <defs>
       <path id="DejaVuSans-75" d="M 544 1381 
L 544 3500 
L 1119 3500 
L 1119 1403 
Q 1119 906 1312 657 
Q 1506 409 1894 409 
Q 2359 409 2629 706 
Q 2900 1003 2900 1516 
L 2900 3500 
L 3475 3500 
L 3475 0 
L 2900 0 
L 2900 538 
Q 2691 219 2414 64 
Q 2138 -91 1772 -91 
Q 1169 -91 856 284 
Q 544 659 544 1381 
z
M 1991 3584 
L 1991 3584 
z
" transform="scale(0.015625)"/>
      </defs>
      <use xlink:href="#DejaVuSans-54"/>
      <use xlink:href="#DejaVuSans-72" transform="translate(46.333984 0)"/>
      <use xlink:href="#DejaVuSans-75" transform="translate(87.447266 0)"/>
      <use xlink:href="#DejaVuSans-65" transform="translate(150.826172 0)"/>
      <use xlink:href="#DejaVuSans-20" transform="translate(212.349609 0)"/>
      <use xlink:href="#DejaVuSans-54" transform="translate(244.136719 0)"/>
      <use xlink:href="#DejaVuSans-78" transform="translate(305.220703 0)"/>
     </g>
    </g>
    <g id="line2d_13">
     <path d="M 333.031875 64.772812 
L 343.031875 64.772812 
L 353.031875 64.772812 
" style="fill: none; stroke-dasharray: 5.55,2.4; stroke-dashoffset: 0; stroke: #1f77b4; stroke-width: 1.5"/>
    </g>
    <g id="text_18">
     <!-- Rx0-Rx1 -->
     <g transform="translate(361.031875 68.272812) scale(0.1 -0.1)">
      <defs>
       <path id="DejaVuSans-2d" d="M 313 2009 
L 1997 2009 
L 1997 1497 
L 313 1497 
L 313 2009 
z
" transform="scale(0.015625)"/>
       <path id="DejaVuSans-31" d="M 794 531 
L 1825 531 
L 1825 4091 
L 703 3866 
L 703 4441 
L 1819 4666 
L 2450 4666 
L 2450 531 
L 3481 531 
L 3481 0 
L 794 0 
L 794 531 
z
" transform="scale(0.015625)"/>
      </defs>
      <use xlink:href="#DejaVuSans-52"/>
      <use xlink:href="#DejaVuSans-78" transform="translate(69.482422 0)"/>
      <use xlink:href="#DejaVuSans-30" transform="translate(128.662109 0)"/>
      <use xlink:href="#DejaVuSans-2d" transform="translate(192.285156 0)"/>
      <use xlink:href="#DejaVuSans-52" transform="translate(228.369141 0)"/>
      <use xlink:href="#DejaVuSans-78" transform="translate(297.851562 0)"/>
      <use xlink:href="#DejaVuSans-31" transform="translate(357.03125 0)"/>
     </g>
    </g>
    <g id="line2d_14">
     <path d="M 333.031875 79.450938 
L 343.031875 79.450938 
L 353.031875 79.450938 
" style="fill: none; stroke-dasharray: 5.55,2.4; stroke-dashoffset: 0; stroke: #ff7f0e; stroke-width: 1.5"/>
    </g>
    <g id="text_19">
     <!-- Rx0-Rx2 -->
     <g transform="translate(361.031875 82.950938) scale(0.1 -0.1)">
      <use xlink:href="#DejaVuSans-52"/>
      <use xlink:href="#DejaVuSans-78" transform="translate(69.482422 0)"/>
      <use xlink:href="#DejaVuSans-30" transform="translate(128.662109 0)"/>
      <use xlink:href="#DejaVuSans-2d" transform="translate(192.285156 0)"/>
      <use xlink:href="#DejaVuSans-52" transform="translate(228.369141 0)"/>
      <use xlink:href="#DejaVuSans-78" transform="translate(297.851562 0)"/>
      <use xlink:href="#DejaVuSans-32" transform="translate(357.03125 0)"/>
     </g>
    </g>
    <g id="line2d_15">
     <path d="M 333.031875 94.129063 
L 343.031875 94.129063 
L 353.031875 94.129063 
" style="fill: none; stroke-dasharray: 5.55,2.4; stroke-dashoffset: 0; stroke: #2ca02c; stroke-width: 1.5"/>
    </g>
    <g id="text_20">
     <!-- Rx1-Rx2 -->
     <g transform="translate(361.031875 97.629063) scale(0.1 -0.1)">
      <use xlink:href="#DejaVuSans-52"/>
      <use xlink:href="#DejaVuSans-78" transform="translate(69.482422 0)"/>
      <use xlink:href="#DejaVuSans-31" transform="translate(128.662109 0)"/>
      <use xlink:href="#DejaVuSans-2d" transform="translate(192.285156 0)"/>
      <use xlink:href="#DejaVuSans-52" transform="translate(228.369141 0)"/>
      <use xlink:href="#DejaVuSans-78" transform="translate(297.851562 0)"/>
      <use xlink:href="#DejaVuSans-32" transform="translate(357.03125 0)"/>
     </g>
    </g>
   </g>
   <g id="text_21">
    <!-- Rx0 -->
    <g transform="translate(159.582713 221.682485) scale(0.1 -0.1)">
     <defs>
      <path id="DejaVuSans-Bold-52" d="M 2297 2597 
Q 2675 2597 2839 2737 
Q 3003 2878 3003 3200 
Q 3003 3519 2839 3656 
Q 2675 3794 2297 3794 
L 1791 3794 
L 1791 2597 
L 2297 2597 
z
M 1791 1766 
L 1791 0 
L 588 0 
L 588 4666 
L 2425 4666 
Q 3347 4666 3776 4356 
Q 4206 4047 4206 3378 
Q 4206 2916 3982 2619 
Q 3759 2322 3309 2181 
Q 3556 2125 3751 1926 
Q 3947 1728 4147 1325 
L 4800 0 
L 3519 0 
L 2950 1159 
Q 2778 1509 2601 1637 
Q 2425 1766 2131 1766 
L 1791 1766 
z
" transform="scale(0.015625)"/>
      <path id="DejaVuSans-Bold-78" d="M 1422 1791 
L 159 3500 
L 1344 3500 
L 2059 2463 
L 2784 3500 
L 3969 3500 
L 2706 1797 
L 4031 0 
L 2847 0 
L 2059 1106 
L 1281 0 
L 97 0 
L 1422 1791 
z
" transform="scale(0.015625)"/>
      <path id="DejaVuSans-Bold-30" d="M 2944 2338 
Q 2944 3213 2780 3570 
Q 2616 3928 2228 3928 
Q 1841 3928 1675 3570 
Q 1509 3213 1509 2338 
Q 1509 1453 1675 1090 
Q 1841 728 2228 728 
Q 2613 728 2778 1090 
Q 2944 1453 2944 2338 
z
M 4147 2328 
Q 4147 1169 3647 539 
Q 3147 -91 2228 -91 
Q 1306 -91 806 539 
Q 306 1169 306 2328 
Q 306 3491 806 4120 
Q 1306 4750 2228 4750 
Q 3147 4750 3647 4120 
Q 4147 3491 4147 2328 
z
" transform="scale(0.015625)"/>
     </defs>
     <use xlink:href="#DejaVuSans-Bold-52"/>
     <use xlink:href="#DejaVuSans-Bold-78" transform="translate(77.001953 0)"/>
     <use xlink:href="#DejaVuSans-Bold-30" transform="translate(141.503906 0)"/>
    </g>
   </g>
   <g id="text_22">
    <!-- Rx1 -->
    <g transform="translate(381.473473 260.177445) scale(0.1 -0.1)">
     <defs>
      <path id="DejaVuSans-Bold-31" d="M 750 831 
L 1813 831 
L 1813 3847 
L 722 3622 
L 722 4441 
L 1806 4666 
L 2950 4666 
L 2950 831 
L 4013 831 
L 4013 0 
L 750 0 
L 750 831 
z
" transform="scale(0.015625)"/>
     </defs>
     <use xlink:href="#DejaVuSans-Bold-52"/>
     <use xlink:href="#DejaVuSans-Bold-78" transform="translate(77.001953 0)"/>
     <use xlink:href="#DejaVuSans-Bold-31" transform="translate(141.503906 0)"/>
    </g>
   </g>
   <g id="text_23">
    <!-- Rx2 -->
    <g transform="translate(191.540793 107.650245) scale(0.1 -0.1)">
     <defs>
      <path id="DejaVuSans-Bold-32" d="M 1844 884 
L 3897 884 
L 3897 0 
L 506 0 
L 506 884 
L 2209 2388 
Q 2438 2594 2547 2791 
Q 2656 2988 2656 3200 
Q 2656 3528 2436 3728 
Q 2216 3928 1850 3928 
Q 1569 3928 1234 3808 
Q 900 3688 519 3450 
L 519 4475 
Q 925 4609 1322 4679 
Q 1719 4750 2100 4750 
Q 2938 4750 3402 4381 
Q 3866 4013 3866 3353 
Q 3866 2972 3669 2642 
Q 3472 2313 2841 1759 
L 1844 884 
z
" transform="scale(0.015625)"/>
     </defs>
     <use xlink:href="#DejaVuSans-Bold-52"/>
     <use xlink:href="#DejaVuSans-Bold-78" transform="translate(77.001953 0)"/>
     <use xlink:href="#DejaVuSans-Bold-32" transform="translate(141.503906 0)"/>
    </g>
   </g>
  </g>
  <g id="axes_2">
   <g id="patch_8">
    <path d="M 509.782585 385.478125 
L 956.49804 385.478125 
L 956.49804 22.318125 
L 509.782585 22.318125 
z
" style="fill: #ffffff"/>
   </g>
   <g id="matplotlib.axis_3">
    <g id="xtick_7">
     <g id="line2d_16">
      <path d="M 509.782585 385.478125 
L 509.782585 22.318125 
" clip-path="url(#p3e802d0166)" style="fill: none; stroke: #b0b0b0; stroke-width: 0.8; stroke-linecap: square"/>
     </g>
     <g id="line2d_17">
      <g>
       <use xlink:href="#ma1a5758adf" x="509.782585" y="385.478125" style="stroke: #000000; stroke-width: 0.8"/>
      </g>
     </g>
     <g id="text_24">
      <!-- 0 -->
      <g transform="translate(506.601335 400.076562) scale(0.1 -0.1)">
       <use xlink:href="#DejaVuSans-30"/>
      </g>
     </g>
    </g>
    <g id="xtick_8">
     <g id="line2d_18">
      <path d="M 584.235161 385.478125 
L 584.235161 22.318125 
" clip-path="url(#p3e802d0166)" style="fill: none; stroke: #b0b0b0; stroke-width: 0.8; stroke-linecap: square"/>
     </g>
     <g id="line2d_19">
      <g>
       <use xlink:href="#ma1a5758adf" x="584.235161" y="385.478125" style="stroke: #000000; stroke-width: 0.8"/>
      </g>
     </g>
     <g id="text_25">
      <!-- 2 -->
      <g transform="translate(581.053911 400.076562) scale(0.1 -0.1)">
       <use xlink:href="#DejaVuSans-32"/>
      </g>
     </g>
    </g>
    <g id="xtick_9">
     <g id="line2d_20">
      <path d="M 658.687737 385.478125 
L 658.687737 22.318125 
" clip-path="url(#p3e802d0166)" style="fill: none; stroke: #b0b0b0; stroke-width: 0.8; stroke-linecap: square"/>
     </g>
     <g id="line2d_21">
      <g>
       <use xlink:href="#ma1a5758adf" x="658.687737" y="385.478125" style="stroke: #000000; stroke-width: 0.8"/>
      </g>
     </g>
     <g id="text_26">
      <!-- 4 -->
      <g transform="translate(655.506487 400.076562) scale(0.1 -0.1)">
       <use xlink:href="#DejaVuSans-34"/>
      </g>
     </g>
    </g>
    <g id="xtick_10">
     <g id="line2d_22">
      <path d="M 733.140313 385.478125 
L 733.140313 22.318125 
" clip-path="url(#p3e802d0166)" style="fill: none; stroke: #b0b0b0; stroke-width: 0.8; stroke-linecap: square"/>
     </g>
     <g id="line2d_23">
      <g>
       <use xlink:href="#ma1a5758adf" x="733.140313" y="385.478125" style="stroke: #000000; stroke-width: 0.8"/>
      </g>
     </g>
     <g id="text_27">
      <!-- 6 -->
      <g transform="translate(729.959063 400.076562) scale(0.1 -0.1)">
       <use xlink:href="#DejaVuSans-36"/>
      </g>
     </g>
    </g>
    <g id="xtick_11">
     <g id="line2d_24">
      <path d="M 807.592888 385.478125 
L 807.592888 22.318125 
" clip-path="url(#p3e802d0166)" style="fill: none; stroke: #b0b0b0; stroke-width: 0.8; stroke-linecap: square"/>
     </g>
     <g id="line2d_25">
      <g>
       <use xlink:href="#ma1a5758adf" x="807.592888" y="385.478125" style="stroke: #000000; stroke-width: 0.8"/>
      </g>
     </g>
     <g id="text_28">
      <!-- 8 -->
      <g transform="translate(804.411638 400.076562) scale(0.1 -0.1)">
       <use xlink:href="#DejaVuSans-38"/>
      </g>
     </g>
    </g>
    <g id="xtick_12">
     <g id="line2d_26">
      <path d="M 882.045464 385.478125 
L 882.045464 22.318125 
" clip-path="url(#p3e802d0166)" style="fill: none; stroke: #b0b0b0; stroke-width: 0.8; stroke-linecap: square"/>
     </g>
     <g id="line2d_27">
      <g>
       <use xlink:href="#ma1a5758adf" x="882.045464" y="385.478125" style="stroke: #000000; stroke-width: 0.8"/>
      </g>
     </g>
     <g id="text_29">
      <!-- 10 -->
      <g transform="translate(875.682964 400.076562) scale(0.1 -0.1)">
       <use xlink:href="#DejaVuSans-31"/>
       <use xlink:href="#DejaVuSans-30" transform="translate(63.623047 0)"/>
      </g>
     </g>
    </g>
    <g id="xtick_13">
     <g id="line2d_28">
      <path d="M 956.49804 385.478125 
L 956.49804 22.318125 
" clip-path="url(#p3e802d0166)" style="fill: none; stroke: #b0b0b0; stroke-width: 0.8; stroke-linecap: square"/>
     </g>
     <g id="line2d_29">
      <g>
       <use xlink:href="#ma1a5758adf" x="956.49804" y="385.478125" style="stroke: #000000; stroke-width: 0.8"/>
      </g>
     </g>
     <g id="text_30">
      <!-- 12 -->
      <g transform="translate(950.13554 400.076562) scale(0.1 -0.1)">
       <use xlink:href="#DejaVuSans-31"/>
       <use xlink:href="#DejaVuSans-32" transform="translate(63.623047 0)"/>
      </g>
     </g>
    </g>
    <g id="text_31">
     <!-- lag [samples] -->
     <g transform="translate(699.23875 413.754687) scale(0.1 -0.1)">
      <defs>
       <path id="DejaVuSans-67" d="M 2906 1791 
Q 2906 2416 2648 2759 
Q 2391 3103 1925 3103 
Q 1463 3103 1205 2759 
Q 947 2416 947 1791 
Q 947 1169 1205 825 
Q 1463 481 1925 481 
Q 2391 481 2648 825 
Q 2906 1169 2906 1791 
z
M 3481 434 
Q 3481 -459 3084 -895 
Q 2688 -1331 1869 -1331 
Q 1566 -1331 1297 -1286 
Q 1028 -1241 775 -1147 
L 775 -588 
Q 1028 -725 1275 -790 
Q 1522 -856 1778 -856 
Q 2344 -856 2625 -561 
Q 2906 -266 2906 331 
L 2906 616 
Q 2728 306 2450 153 
Q 2172 0 1784 0 
Q 1141 0 747 490 
Q 353 981 353 1791 
Q 353 2603 747 3093 
Q 1141 3584 1784 3584 
Q 2172 3584 2450 3431 
Q 2728 3278 2906 2969 
L 2906 3500 
L 3481 3500 
L 3481 434 
z
" transform="scale(0.015625)"/>
      </defs>
      <use xlink:href="#DejaVuSans-6c"/>
      <use xlink:href="#DejaVuSans-61" transform="translate(27.783203 0)"/>
      <use xlink:href="#DejaVuSans-67" transform="translate(89.0625 0)"/>
      <use xlink:href="#DejaVuSans-20" transform="translate(152.539062 0)"/>
      <use xlink:href="#DejaVuSans-5b" transform="translate(184.326172 0)"/>
      <use xlink:href="#DejaVuSans-73" transform="translate(223.339844 0)"/>
      <use xlink:href="#DejaVuSans-61" transform="translate(275.439453 0)"/>
      <use xlink:href="#DejaVuSans-6d" transform="translate(336.71875 0)"/>
      <use xlink:href="#DejaVuSans-70" transform="translate(434.130859 0)"/>
      <use xlink:href="#DejaVuSans-6c" transform="translate(497.607422 0)"/>
      <use xlink:href="#DejaVuSans-65" transform="translate(525.390625 0)"/>
      <use xlink:href="#DejaVuSans-73" transform="translate(586.914062 0)"/>
      <use xlink:href="#DejaVuSans-5d" transform="translate(639.013672 0)"/>
     </g>
    </g>
   </g>
   <g id="matplotlib.axis_4">
    <g id="ytick_7">
     <g id="line2d_30">
      <path d="M 509.782585 369.115266 
L 956.49804 369.115266 
" clip-path="url(#p3e802d0166)" style="fill: none; stroke: #b0b0b0; stroke-width: 0.8; stroke-linecap: square"/>
     </g>
     <g id="line2d_31">
      <g>
       <use xlink:href="#m2d82006074" x="509.782585" y="369.115266" style="stroke: #000000; stroke-width: 0.8"/>
      </g>
     </g>
     <g id="text_32">
      <!-- 0 -->
      <g transform="translate(496.420085 372.914485) scale(0.1 -0.1)">
       <use xlink:href="#DejaVuSans-30"/>
      </g>
     </g>
    </g>
    <g id="ytick_8">
     <g id="line2d_32">
      <path d="M 509.782585 321.804619 
L 956.49804 321.804619 
" clip-path="url(#p3e802d0166)" style="fill: none; stroke: #b0b0b0; stroke-width: 0.8; stroke-linecap: square"/>
     </g>
     <g id="line2d_33">
      <g>
       <use xlink:href="#m2d82006074" x="509.782585" y="321.804619" style="stroke: #000000; stroke-width: 0.8"/>
      </g>
     </g>
     <g id="text_33">
      <!-- 100 -->
      <g transform="translate(483.695085 325.603838) scale(0.1 -0.1)">
       <use xlink:href="#DejaVuSans-31"/>
       <use xlink:href="#DejaVuSans-30" transform="translate(63.623047 0)"/>
       <use xlink:href="#DejaVuSans-30" transform="translate(127.246094 0)"/>
      </g>
     </g>
    </g>
    <g id="ytick_9">
     <g id="line2d_34">
      <path d="M 509.782585 274.493971 
L 956.49804 274.493971 
" clip-path="url(#p3e802d0166)" style="fill: none; stroke: #b0b0b0; stroke-width: 0.8; stroke-linecap: square"/>
     </g>
     <g id="line2d_35">
      <g>
       <use xlink:href="#m2d82006074" x="509.782585" y="274.493971" style="stroke: #000000; stroke-width: 0.8"/>
      </g>
     </g>
     <g id="text_34">
      <!-- 200 -->
      <g transform="translate(483.695085 278.29319) scale(0.1 -0.1)">
       <use xlink:href="#DejaVuSans-32"/>
       <use xlink:href="#DejaVuSans-30" transform="translate(63.623047 0)"/>
       <use xlink:href="#DejaVuSans-30" transform="translate(127.246094 0)"/>
      </g>
     </g>
    </g>
    <g id="ytick_10">
     <g id="line2d_36">
      <path d="M 509.782585 227.183324 
L 956.49804 227.183324 
" clip-path="url(#p3e802d0166)" style="fill: none; stroke: #b0b0b0; stroke-width: 0.8; stroke-linecap: square"/>
     </g>
     <g id="line2d_37">
      <g>
       <use xlink:href="#m2d82006074" x="509.782585" y="227.183324" style="stroke: #000000; stroke-width: 0.8"/>
      </g>
     </g>
     <g id="text_35">
      <!-- 300 -->
      <g transform="translate(483.695085 230.982542) scale(0.1 -0.1)">
       <defs>
        <path id="DejaVuSans-33" d="M 2597 2516 
Q 3050 2419 3304 2112 
Q 3559 1806 3559 1356 
Q 3559 666 3084 287 
Q 2609 -91 1734 -91 
Q 1441 -91 1130 -33 
Q 819 25 488 141 
L 488 750 
Q 750 597 1062 519 
Q 1375 441 1716 441 
Q 2309 441 2620 675 
Q 2931 909 2931 1356 
Q 2931 1769 2642 2001 
Q 2353 2234 1838 2234 
L 1294 2234 
L 1294 2753 
L 1863 2753 
Q 2328 2753 2575 2939 
Q 2822 3125 2822 3475 
Q 2822 3834 2567 4026 
Q 2313 4219 1838 4219 
Q 1578 4219 1281 4162 
Q 984 4106 628 3988 
L 628 4550 
Q 988 4650 1302 4700 
Q 1616 4750 1894 4750 
Q 2613 4750 3031 4423 
Q 3450 4097 3450 3541 
Q 3450 3153 3228 2886 
Q 3006 2619 2597 2516 
z
" transform="scale(0.015625)"/>
       </defs>
       <use xlink:href="#DejaVuSans-33"/>
       <use xlink:href="#DejaVuSans-30" transform="translate(63.623047 0)"/>
       <use xlink:href="#DejaVuSans-30" transform="translate(127.246094 0)"/>
      </g>
     </g>
    </g>
    <g id="ytick_11">
     <g id="line2d_38">
      <path d="M 509.782585 179.872676 
L 956.49804 179.872676 
" clip-path="url(#p3e802d0166)" style="fill: none; stroke: #b0b0b0; stroke-width: 0.8; stroke-linecap: square"/>
     </g>
     <g id="line2d_39">
      <g>
       <use xlink:href="#m2d82006074" x="509.782585" y="179.872676" style="stroke: #000000; stroke-width: 0.8"/>
      </g>
     </g>
     <g id="text_36">
      <!-- 400 -->
      <g transform="translate(483.695085 183.671895) scale(0.1 -0.1)">
       <use xlink:href="#DejaVuSans-34"/>
       <use xlink:href="#DejaVuSans-30" transform="translate(63.623047 0)"/>
       <use xlink:href="#DejaVuSans-30" transform="translate(127.246094 0)"/>
      </g>
     </g>
    </g>
    <g id="ytick_12">
     <g id="line2d_40">
      <path d="M 509.782585 132.562029 
L 956.49804 132.562029 
" clip-path="url(#p3e802d0166)" style="fill: none; stroke: #b0b0b0; stroke-width: 0.8; stroke-linecap: square"/>
     </g>
     <g id="line2d_41">
      <g>
       <use xlink:href="#m2d82006074" x="509.782585" y="132.562029" style="stroke: #000000; stroke-width: 0.8"/>
      </g>
     </g>
     <g id="text_37">
      <!-- 500 -->
      <g transform="translate(483.695085 136.361247) scale(0.1 -0.1)">
       <defs>
        <path id="DejaVuSans-35" d="M 691 4666 
L 3169 4666 
L 3169 4134 
L 1269 4134 
L 1269 2991 
Q 1406 3038 1543 3061 
Q 1681 3084 1819 3084 
Q 2600 3084 3056 2656 
Q 3513 2228 3513 1497 
Q 3513 744 3044 326 
Q 2575 -91 1722 -91 
Q 1428 -91 1123 -41 
Q 819 9 494 109 
L 494 744 
Q 775 591 1075 516 
Q 1375 441 1709 441 
Q 2250 441 2565 725 
Q 2881 1009 2881 1497 
Q 2881 1984 2565 2268 
Q 2250 2553 1709 2553 
Q 1456 2553 1204 2497 
Q 953 2441 691 2322 
L 691 4666 
z
" transform="scale(0.015625)"/>
       </defs>
       <use xlink:href="#DejaVuSans-35"/>
       <use xlink:href="#DejaVuSans-30" transform="translate(63.623047 0)"/>
       <use xlink:href="#DejaVuSans-30" transform="translate(127.246094 0)"/>
      </g>
     </g>
    </g>
    <g id="ytick_13">
     <g id="line2d_42">
      <path d="M 509.782585 85.251381 
L 956.49804 85.251381 
" clip-path="url(#p3e802d0166)" style="fill: none; stroke: #b0b0b0; stroke-width: 0.8; stroke-linecap: square"/>
     </g>
     <g id="line2d_43">
      <g>
       <use xlink:href="#m2d82006074" x="509.782585" y="85.251381" style="stroke: #000000; stroke-width: 0.8"/>
      </g>
     </g>
     <g id="text_38">
      <!-- 600 -->
      <g transform="translate(483.695085 89.0506) scale(0.1 -0.1)">
       <use xlink:href="#DejaVuSans-36"/>
       <use xlink:href="#DejaVuSans-30" transform="translate(63.623047 0)"/>
       <use xlink:href="#DejaVuSans-30" transform="translate(127.246094 0)"/>
      </g>
     </g>
    </g>
    <g id="ytick_14">
     <g id="line2d_44">
      <path d="M 509.782585 37.940734 
L 956.49804 37.940734 
" clip-path="url(#p3e802d0166)" style="fill: none; stroke: #b0b0b0; stroke-width: 0.8; stroke-linecap: square"/>
     </g>
     <g id="line2d_45">
      <g>
       <use xlink:href="#m2d82006074" x="509.782585" y="37.940734" style="stroke: #000000; stroke-width: 0.8"/>
      </g>
     </g>
     <g id="text_39">
      <!-- 700 -->
      <g transform="translate(483.695085 41.739952) scale(0.1 -0.1)">
       <defs>
        <path id="DejaVuSans-37" d="M 525 4666 
L 3525 4666 
L 3525 4397 
L 1831 0 
L 1172 0 
L 2766 4134 
L 525 4134 
L 525 4666 
z
" transform="scale(0.015625)"/>
       </defs>
       <use xlink:href="#DejaVuSans-37"/>
       <use xlink:href="#DejaVuSans-30" transform="translate(63.623047 0)"/>
       <use xlink:href="#DejaVuSans-30" transform="translate(127.246094 0)"/>
      </g>
     </g>
    </g>
    <g id="text_40">
     <!-- |cross-correlation| -->
     <g transform="translate(477.337273 248.858281) rotate(-90) scale(0.1 -0.1)">
      <defs>
       <path id="DejaVuSans-7c" d="M 1344 4891 
L 1344 -1509 
L 813 -1509 
L 813 4891 
L 1344 4891 
z
" transform="scale(0.015625)"/>
       <path id="DejaVuSans-74" d="M 1172 4494 
L 1172 3500 
L 2356 3500 
L 2356 3053 
L 1172 3053 
L 1172 1153 
Q 1172 725 1289 603 
Q 1406 481 1766 481 
L 2356 481 
L 2356 0 
L 1766 0 
Q 1100 0 847 248 
Q 594 497 594 1153 
L 594 3053 
L 172 3053 
L 172 3500 
L 594 3500 
L 594 4494 
L 1172 4494 
z
" transform="scale(0.015625)"/>
       <path id="DejaVuSans-6e" d="M 3513 2113 
L 3513 0 
L 2938 0 
L 2938 2094 
Q 2938 2591 2744 2837 
Q 2550 3084 2163 3084 
Q 1697 3084 1428 2787 
Q 1159 2491 1159 1978 
L 1159 0 
L 581 0 
L 581 3500 
L 1159 3500 
L 1159 2956 
Q 1366 3272 1645 3428 
Q 1925 3584 2291 3584 
Q 2894 3584 3203 3211 
Q 3513 2838 3513 2113 
z
" transform="scale(0.015625)"/>
      </defs>
      <use xlink:href="#DejaVuSans-7c"/>
      <use xlink:href="#DejaVuSans-63" transform="translate(33.691406 0)"/>
      <use xlink:href="#DejaVuSans-72" transform="translate(88.671875 0)"/>
      <use xlink:href="#DejaVuSans-6f" transform="translate(127.535156 0)"/>
      <use xlink:href="#DejaVuSans-73" transform="translate(188.716797 0)"/>
      <use xlink:href="#DejaVuSans-73" transform="translate(240.816406 0)"/>
      <use xlink:href="#DejaVuSans-2d" transform="translate(292.916016 0)"/>
      <use xlink:href="#DejaVuSans-63" transform="translate(329 0)"/>
      <use xlink:href="#DejaVuSans-6f" transform="translate(383.980469 0)"/>
      <use xlink:href="#DejaVuSans-72" transform="translate(445.162109 0)"/>
      <use xlink:href="#DejaVuSans-72" transform="translate(484.525391 0)"/>
      <use xlink:href="#DejaVuSans-65" transform="translate(523.388672 0)"/>
      <use xlink:href="#DejaVuSans-6c" transform="translate(584.912109 0)"/>
      <use xlink:href="#DejaVuSans-61" transform="translate(612.695312 0)"/>
      <use xlink:href="#DejaVuSans-74" transform="translate(673.974609 0)"/>
      <use xlink:href="#DejaVuSans-69" transform="translate(713.183594 0)"/>
      <use xlink:href="#DejaVuSans-6f" transform="translate(740.966797 0)"/>
      <use xlink:href="#DejaVuSans-6e" transform="translate(802.148438 0)"/>
      <use xlink:href="#DejaVuSans-7c" transform="translate(865.527344 0)"/>
     </g>
    </g>
   </g>
   <g id="line2d_46">
    <defs>
     <path id="m25f7147a80" d="M 0 3 
C 0.795609 3 1.55874 2.683901 2.12132 2.12132 
C 2.683901 1.55874 3 0.795609 3 0 
C 3 -0.795609 2.683901 -1.55874 2.12132 -2.12132 
C 1.55874 -2.683901 0.795609 -3 0 -3 
C -0.795609 -3 -1.55874 -2.683901 -2.12132 -2.12132 
C -2.683901 -1.55874 -3 -0.795609 -3 0 
C -3 0.795609 -2.683901 1.55874 -2.12132 2.12132 
C -1.55874 2.683901 -0.795609 3 0 3 
z
" style="stroke: #1f77b4"/>
    </defs>
    <g clip-path="url(#p3e802d0166)">
     <use xlink:href="#m25f7147a80" x="472.556297" y="327.763911" style="fill: #1f77b4; stroke: #1f77b4"/>
     <use xlink:href="#m25f7147a80" x="509.782585" y="338.367691" style="fill: #1f77b4; stroke: #1f77b4"/>
     <use xlink:href="#m25f7147a80" x="547.008873" y="338.432252" style="fill: #1f77b4; stroke: #1f77b4"/>
     <use xlink:href="#m25f7147a80" x="584.235161" y="293.525267" style="fill: #1f77b4; stroke: #1f77b4"/>
     <use xlink:href="#m25f7147a80" x="621.461449" y="340.951253" style="fill: #1f77b4; stroke: #1f77b4"/>
     <use xlink:href="#m25f7147a80" x="658.687737" y="240.416099" style="fill: #1f77b4; stroke: #1f77b4"/>
     <use xlink:href="#m25f7147a80" x="695.914025" y="81.133974" style="fill: #1f77b4; stroke: #1f77b4"/>
     <use xlink:href="#m25f7147a80" x="733.140313" y="45.596566" style="fill: #1f77b4; stroke: #1f77b4"/>
     <use xlink:href="#m25f7147a80" x="770.3666" y="163.501789" style="fill: #1f77b4; stroke: #1f77b4"/>
     <use xlink:href="#m25f7147a80" x="807.592888" y="336.665636" style="fill: #1f77b4; stroke: #1f77b4"/>
     <use xlink:href="#m25f7147a80" x="844.819176" y="295.524193" style="fill: #1f77b4; stroke: #1f77b4"/>
     <use xlink:href="#m25f7147a80" x="882.045464" y="313.685878" style="fill: #1f77b4; stroke: #1f77b4"/>
     <use xlink:href="#m25f7147a80" x="919.271752" y="351.470125" style="fill: #1f77b4; stroke: #1f77b4"/>
     <use xlink:href="#m25f7147a80" x="956.49804" y="312.753122" style="fill: #1f77b4; stroke: #1f77b4"/>
     <use xlink:href="#m25f7147a80" x="993.724328" y="332.072005" style="fill: #1f77b4; stroke: #1f77b4"/>
    </g>
   </g>
   <g id="line2d_47">
    <path d="M 507.455942 335.817424 
L 509.782585 338.367691 
L 512.109228 341.149 
L 514.435871 344.149364 
L 516.762514 347.355165 
L 521.4158 354.320645 
L 526.069086 361.898737 
L 528.395729 365.830072 
L 530.722372 367.866761 
L 533.049015 363.952716 
L 542.355587 346.915768 
L 549.335516 334.277355 
L 553.988802 326.245727 
L 558.642088 318.721827 
L 563.295374 311.867407 
L 565.622017 308.741133 
L 567.94866 305.841817 
L 570.275303 303.189047 
L 572.601946 300.802271 
L 574.928589 298.700777 
L 577.255232 296.903656 
L 579.581875 295.429749 
L 581.908518 294.29758 
L 584.235161 293.525267 
L 586.561804 293.130414 
L 588.888447 293.129993 
L 591.21509 293.540197 
L 593.541733 294.376286 
L 595.868376 295.652412 
L 598.195019 297.381434 
L 600.521662 299.574714 
L 602.848305 302.241902 
L 605.174948 305.390694 
L 607.501591 309.02656 
L 609.828234 313.152399 
L 612.154877 317.768076 
L 614.48152 322.869673 
L 616.808163 328.44812 
L 619.134806 334.48624 
L 621.461449 340.951253 
L 626.114735 354.739162 
L 628.441378 360.896301 
L 630.768021 361.408313 
L 633.094664 354.858604 
L 635.421307 346.319966 
L 637.74795 337.05115 
L 642.401236 317.2223 
L 647.054522 296.165476 
L 654.034451 263.052856 
L 672.647595 173.212553 
L 677.300881 152.059625 
L 681.954167 132.014916 
L 686.607453 113.348098 
L 688.934096 104.610806 
L 691.260739 96.31079 
L 693.587382 88.476258 
L 695.914025 81.133974 
L 698.240668 74.309177 
L 700.567311 68.02551 
L 702.893954 62.304931 
L 705.220597 57.167635 
L 707.54724 52.63197 
L 709.873883 48.714349 
L 712.200526 45.429168 
L 714.527169 42.788716 
L 716.853812 40.803099 
L 719.180455 39.480157 
L 721.507098 38.825398 
L 723.833741 38.841928 
L 726.160384 39.530406 
L 728.487027 40.888995 
L 730.81367 42.913343 
L 733.140313 45.596566 
L 735.466955 48.929257 
L 737.793598 52.899511 
L 740.120241 57.492963 
L 742.446884 62.692856 
L 744.773527 68.480116 
L 747.10017 74.83345 
L 749.426813 81.729467 
L 751.753456 89.142803 
L 754.080099 97.046267 
L 756.406742 105.410997 
L 761.060028 123.401454 
L 765.713314 142.856273 
L 770.3666 163.501789 
L 775.019886 185.05399 
L 781.999815 218.448598 
L 793.63303 274.530184 
L 798.286316 296.263219 
L 802.939602 317.128102 
L 807.592888 336.665636 
L 809.919531 345.621123 
L 812.246174 353.464095 
L 814.572817 358.451506 
L 816.89946 357.328078 
L 819.226103 351.779736 
L 826.206032 331.742615 
L 828.532675 325.557983 
L 830.859318 319.798792 
L 833.185961 314.501163 
L 835.512604 309.688333 
L 837.839247 305.375903 
L 840.16589 301.574193 
L 842.492533 298.2894 
L 844.819176 295.524193 
L 847.145819 293.278061 
L 849.472462 291.547525 
L 851.799105 290.326293 
L 854.125748 289.605388 
L 856.452391 289.37328 
L 858.779034 289.61601 
L 861.105677 290.317342 
L 863.43232 291.458918 
L 865.758963 293.020434 
L 868.085606 294.979826 
L 870.412249 297.313471 
L 872.738892 299.996393 
L 875.065535 303.002478 
L 877.392178 306.304684 
L 879.718821 309.875247 
L 884.372107 317.707934 
L 889.025393 326.270777 
L 893.678679 335.331176 
L 905.311894 358.386483 
L 907.638537 362.399159 
L 909.96518 364.711103 
L 912.291823 363.111493 
L 914.618466 359.499919 
L 921.598395 347.526291 
L 926.251681 340.060289 
L 930.904967 333.307212 
L 933.23161 330.236241 
L 935.558253 327.384533 
L 937.884896 324.761755 
L 940.211539 322.376227 
L 942.538182 320.234998 
L 944.864825 318.343871 
L 947.191468 316.707396 
L 949.518111 315.328836 
L 951.844754 314.210131 
L 954.171397 313.351845 
L 956.49804 312.753122 
L 958.824683 312.411643 
L 958.824683 312.411643 
" clip-path="url(#p3e802d0166)" style="fill: none; stroke: #ff7f0e; stroke-width: 1.5; stroke-linecap: square"/>
    <defs>
     <path id="m4c94ea80cf" d="M 0 1.5 
C 0.397805 1.5 0.77937 1.341951 1.06066 1.06066 
C 1.341951 0.77937 1.5 0.397805 1.5 0 
C 1.5 -0.397805 1.341951 -0.77937 1.06066 -1.06066 
C 0.77937 -1.341951 0.397805 -1.5 0 -1.5 
C -0.397805 -1.5 -0.77937 -1.341951 -1.06066 -1.06066 
C -1.341951 -0.77937 -1.5 -0.397805 -1.5 0 
C -1.5 0.397805 -1.341951 0.77937 -1.06066 1.06066 
C -0.77937 1.341951 -0.397805 1.5 0 1.5 
z
" style="stroke: #ff7f0e"/>
    </defs>
    <g clip-path="url(#p3e802d0166)">
     <use xlink:href="#m4c94ea80cf" x="507.455942" y="335.817424" style="fill: #ff7f0e; stroke: #ff7f0e"/>
     <use xlink:href="#m4c94ea80cf" x="509.782585" y="338.367691" style="fill: #ff7f0e; stroke: #ff7f0e"/>
     <use xlink:href="#m4c94ea80cf" x="512.109228" y="341.149" style="fill: #ff7f0e; stroke: #ff7f0e"/>
     <use xlink:href="#m4c94ea80cf" x="514.435871" y="344.149364" style="fill: #ff7f0e; stroke: #ff7f0e"/>
     <use xlink:href="#m4c94ea80cf" x="516.762514" y="347.355165" style="fill: #ff7f0e; stroke: #ff7f0e"/>
     <use xlink:href="#m4c94ea80cf" x="519.089157" y="350.751206" style="fill: #ff7f0e; stroke: #ff7f0e"/>
     <use xlink:href="#m4c94ea80cf" x="521.4158" y="354.320645" style="fill: #ff7f0e; stroke: #ff7f0e"/>
     <use xlink:href="#m4c94ea80cf" x="523.742443" y="358.044472" style="fill: #ff7f0e; stroke: #ff7f0e"/>
     <use xlink:href="#m4c94ea80cf" x="526.069086" y="361.898737" style="fill: #ff7f0e; stroke: #ff7f0e"/>
     <use xlink:href="#m4c94ea80cf" x="528.395729" y="365.830072" style="fill: #ff7f0e; stroke: #ff7f0e"/>
     <use xlink:href="#m4c94ea80cf" x="530.722372" y="367.866761" style="fill: #ff7f0e; stroke: #ff7f0e"/>
     <use xlink:href="#m4c94ea80cf" x="533.049015" y="363.952716" style="fill: #ff7f0e; stroke: #ff7f0e"/>
     <use xlink:href="#m4c94ea80cf" x="535.375658" y="359.749757" style="fill: #ff7f0e; stroke: #ff7f0e"/>
     <use xlink:href="#m4c94ea80cf" x="537.702301" y="355.487855" style="fill: #ff7f0e; stroke: #ff7f0e"/>
     <use xlink:href="#m4c94ea80cf" x="540.028944" y="351.201755" style="fill: #ff7f0e; stroke: #ff7f0e"/>
     <use xlink:href="#m4c94ea80cf" x="542.355587" y="346.915768" style="fill: #ff7f0e; stroke: #ff7f0e"/>
     <use xlink:href="#m4c94ea80cf" x="544.68223" y="342.652102" style="fill: #ff7f0e; stroke: #ff7f0e"/>
     <use xlink:href="#m4c94ea80cf" x="547.008873" y="338.432252" style="fill: #ff7f0e; stroke: #ff7f0e"/>
     <use xlink:href="#m4c94ea80cf" x="549.335516" y="334.277355" style="fill: #ff7f0e; stroke: #ff7f0e"/>
     <use xlink:href="#m4c94ea80cf" x="551.662159" y="330.20829" style="fill: #ff7f0e; stroke: #ff7f0e"/>
     <use xlink:href="#m4c94ea80cf" x="553.988802" y="326.245727" style="fill: #ff7f0e; stroke: #ff7f0e"/>
     <use xlink:href="#m4c94ea80cf" x="556.315445" y="322.41014" style="fill: #ff7f0e; stroke: #ff7f0e"/>
     <use xlink:href="#m4c94ea80cf" x="558.642088" y="318.721827" style="fill: #ff7f0e; stroke: #ff7f0e"/>
     <use xlink:href="#m4c94ea80cf" x="560.968731" y="315.20092" style="fill: #ff7f0e; stroke: #ff7f0e"/>
     <use xlink:href="#m4c94ea80cf" x="563.295374" y="311.867407" style="fill: #ff7f0e; stroke: #ff7f0e"/>
     <use xlink:href="#m4c94ea80cf" x="565.622017" y="308.741133" style="fill: #ff7f0e; stroke: #ff7f0e"/>
     <use xlink:href="#m4c94ea80cf" x="567.94866" y="305.841817" style="fill: #ff7f0e; stroke: #ff7f0e"/>
     <use xlink:href="#m4c94ea80cf" x="570.275303" y="303.189047" style="fill: #ff7f0e; stroke: #ff7f0e"/>
     <use xlink:href="#m4c94ea80cf" x="572.601946" y="300.802271" style="fill: #ff7f0e; stroke: #ff7f0e"/>
     <use xlink:href="#m4c94ea80cf" x="574.928589" y="298.700777" style="fill: #ff7f0e; stroke: #ff7f0e"/>
     <use xlink:href="#m4c94ea80cf" x="577.255232" y="296.903656" style="fill: #ff7f0e; stroke: #ff7f0e"/>
     <use xlink:href="#m4c94ea80cf" x="579.581875" y="295.429749" style="fill: #ff7f0e; stroke: #ff7f0e"/>
     <use xlink:href="#m4c94ea80cf" x="581.908518" y="294.29758" style="fill: #ff7f0e; stroke: #ff7f0e"/>
     <use xlink:href="#m4c94ea80cf" x="584.235161" y="293.525267" style="fill: #ff7f0e; stroke: #ff7f0e"/>
     <use xlink:href="#m4c94ea80cf" x="586.561804" y="293.130414" style="fill: #ff7f0e; stroke: #ff7f0e"/>
     <use xlink:href="#m4c94ea80cf" x="588.888447" y="293.129993" style="fill: #ff7f0e; stroke: #ff7f0e"/>
     <use xlink:href="#m4c94ea80cf" x="591.21509" y="293.540197" style="fill: #ff7f0e; stroke: #ff7f0e"/>
     <use xlink:href="#m4c94ea80cf" x="593.541733" y="294.376286" style="fill: #ff7f0e; stroke: #ff7f0e"/>
     <use xlink:href="#m4c94ea80cf" x="595.868376" y="295.652412" style="fill: #ff7f0e; stroke: #ff7f0e"/>
     <use xlink:href="#m4c94ea80cf" x="598.195019" y="297.381434" style="fill: #ff7f0e; stroke: #ff7f0e"/>
     <use xlink:href="#m4c94ea80cf" x="600.521662" y="299.574714" style="fill: #ff7f0e; stroke: #ff7f0e"/>
     <use xlink:href="#m4c94ea80cf" x="602.848305" y="302.241902" style="fill: #ff7f0e; stroke: #ff7f0e"/>
     <use xlink:href="#m4c94ea80cf" x="605.174948" y="305.390694" style="fill: #ff7f0e; stroke: #ff7f0e"/>
     <use xlink:href="#m4c94ea80cf" x="607.501591" y="309.02656" style="fill: #ff7f0e; stroke: #ff7f0e"/>
     <use xlink:href="#m4c94ea80cf" x="609.828234" y="313.152399" style="fill: #ff7f0e; stroke: #ff7f0e"/>
     <use xlink:href="#m4c94ea80cf" x="612.154877" y="317.768076" style="fill: #ff7f0e; stroke: #ff7f0e"/>
     <use xlink:href="#m4c94ea80cf" x="614.48152" y="322.869673" style="fill: #ff7f0e; stroke: #ff7f0e"/>
     <use xlink:href="#m4c94ea80cf" x="616.808163" y="328.44812" style="fill: #ff7f0e; stroke: #ff7f0e"/>
     <use xlink:href="#m4c94ea80cf" x="619.134806" y="334.48624" style="fill: #ff7f0e; stroke: #ff7f0e"/>
     <use xlink:href="#m4c94ea80cf" x="621.461449" y="340.951253" style="fill: #ff7f0e; stroke: #ff7f0e"/>
     <use xlink:href="#m4c94ea80cf" x="623.788092" y="347.771439" style="fill: #ff7f0e; stroke: #ff7f0e"/>
     <use xlink:href="#m4c94ea80cf" x="626.114735" y="354.739162" style="fill: #ff7f0e; stroke: #ff7f0e"/>
     <use xlink:href="#m4c94ea80cf" x="628.441378" y="360.896301" style="fill: #ff7f0e; stroke: #ff7f0e"/>
     <use xlink:href="#m4c94ea80cf" x="630.768021" y="361.408313" style="fill: #ff7f0e; stroke: #ff7f0e"/>
     <use xlink:href="#m4c94ea80cf" x="633.094664" y="354.858604" style="fill: #ff7f0e; stroke: #ff7f0e"/>
     <use xlink:href="#m4c94ea80cf" x="635.421307" y="346.319966" style="fill: #ff7f0e; stroke: #ff7f0e"/>
     <use xlink:href="#m4c94ea80cf" x="637.74795" y="337.05115" style="fill: #ff7f0e; stroke: #ff7f0e"/>
     <use xlink:href="#m4c94ea80cf" x="640.074593" y="327.318288" style="fill: #ff7f0e; stroke: #ff7f0e"/>
     <use xlink:href="#m4c94ea80cf" x="642.401236" y="317.2223" style="fill: #ff7f0e; stroke: #ff7f0e"/>
     <use xlink:href="#m4c94ea80cf" x="644.727879" y="306.822666" style="fill: #ff7f0e; stroke: #ff7f0e"/>
     <use xlink:href="#m4c94ea80cf" x="647.054522" y="296.165476" style="fill: #ff7f0e; stroke: #ff7f0e"/>
     <use xlink:href="#m4c94ea80cf" x="649.381165" y="285.291939" style="fill: #ff7f0e; stroke: #ff7f0e"/>
     <use xlink:href="#m4c94ea80cf" x="651.707808" y="274.241461" style="fill: #ff7f0e; stroke: #ff7f0e"/>
     <use xlink:href="#m4c94ea80cf" x="654.034451" y="263.052856" style="fill: #ff7f0e; stroke: #ff7f0e"/>
     <use xlink:href="#m4c94ea80cf" x="656.361094" y="251.764822" style="fill: #ff7f0e; stroke: #ff7f0e"/>
     <use xlink:href="#m4c94ea80cf" x="658.687737" y="240.416099" style="fill: #ff7f0e; stroke: #ff7f0e"/>
     <use xlink:href="#m4c94ea80cf" x="661.01438" y="229.045469" style="fill: #ff7f0e; stroke: #ff7f0e"/>
     <use xlink:href="#m4c94ea80cf" x="663.341023" y="217.691683" style="fill: #ff7f0e; stroke: #ff7f0e"/>
     <use xlink:href="#m4c94ea80cf" x="665.667666" y="206.393355" style="fill: #ff7f0e; stroke: #ff7f0e"/>
     <use xlink:href="#m4c94ea80cf" x="667.994309" y="195.188836" style="fill: #ff7f0e; stroke: #ff7f0e"/>
     <use xlink:href="#m4c94ea80cf" x="670.320952" y="184.116087" style="fill: #ff7f0e; stroke: #ff7f0e"/>
     <use xlink:href="#m4c94ea80cf" x="672.647595" y="173.212553" style="fill: #ff7f0e; stroke: #ff7f0e"/>
     <use xlink:href="#m4c94ea80cf" x="674.974238" y="162.515046" style="fill: #ff7f0e; stroke: #ff7f0e"/>
     <use xlink:href="#m4c94ea80cf" x="677.300881" y="152.059625" style="fill: #ff7f0e; stroke: #ff7f0e"/>
     <use xlink:href="#m4c94ea80cf" x="679.627524" y="141.881498" style="fill: #ff7f0e; stroke: #ff7f0e"/>
     <use xlink:href="#m4c94ea80cf" x="681.954167" y="132.014916" style="fill: #ff7f0e; stroke: #ff7f0e"/>
     <use xlink:href="#m4c94ea80cf" x="684.28081" y="122.49309" style="fill: #ff7f0e; stroke: #ff7f0e"/>
     <use xlink:href="#m4c94ea80cf" x="686.607453" y="113.348098" style="fill: #ff7f0e; stroke: #ff7f0e"/>
     <use xlink:href="#m4c94ea80cf" x="688.934096" y="104.610806" style="fill: #ff7f0e; stroke: #ff7f0e"/>
     <use xlink:href="#m4c94ea80cf" x="691.260739" y="96.31079" style="fill: #ff7f0e; stroke: #ff7f0e"/>
     <use xlink:href="#m4c94ea80cf" x="693.587382" y="88.476258" style="fill: #ff7f0e; stroke: #ff7f0e"/>
     <use xlink:href="#m4c94ea80cf" x="695.914025" y="81.133974" style="fill: #ff7f0e; stroke: #ff7f0e"/>
     <use xlink:href="#m4c94ea80cf" x="698.240668" y="74.309177" style="fill: #ff7f0e; stroke: #ff7f0e"/>
     <use xlink:href="#m4c94ea80cf" x="700.567311" y="68.02551" style="fill: #ff7f0e; stroke: #ff7f0e"/>
     <use xlink:href="#m4c94ea80cf" x="702.893954" y="62.304931" style="fill: #ff7f0e; stroke: #ff7f0e"/>
     <use xlink:href="#m4c94ea80cf" x="705.220597" y="57.167635" style="fill: #ff7f0e; stroke: #ff7f0e"/>
     <use xlink:href="#m4c94ea80cf" x="707.54724" y="52.63197" style="fill: #ff7f0e; stroke: #ff7f0e"/>
     <use xlink:href="#m4c94ea80cf" x="709.873883" y="48.714349" style="fill: #ff7f0e; stroke: #ff7f0e"/>
     <use xlink:href="#m4c94ea80cf" x="712.200526" y="45.429168" style="fill: #ff7f0e; stroke: #ff7f0e"/>
     <use xlink:href="#m4c94ea80cf" x="714.527169" y="42.788716" style="fill: #ff7f0e; stroke: #ff7f0e"/>
     <use xlink:href="#m4c94ea80cf" x="716.853812" y="40.803099" style="fill: #ff7f0e; stroke: #ff7f0e"/>
     <use xlink:href="#m4c94ea80cf" x="719.180455" y="39.480157" style="fill: #ff7f0e; stroke: #ff7f0e"/>
     <use xlink:href="#m4c94ea80cf" x="721.507098" y="38.825398" style="fill: #ff7f0e; stroke: #ff7f0e"/>
     <use xlink:href="#m4c94ea80cf" x="723.833741" y="38.841928" style="fill: #ff7f0e; stroke: #ff7f0e"/>
     <use xlink:href="#m4c94ea80cf" x="726.160384" y="39.530406" style="fill: #ff7f0e; stroke: #ff7f0e"/>
     <use xlink:href="#m4c94ea80cf" x="728.487027" y="40.888995" style="fill: #ff7f0e; stroke: #ff7f0e"/>
     <use xlink:href="#m4c94ea80cf" x="730.81367" y="42.913343" style="fill: #ff7f0e; stroke: #ff7f0e"/>
     <use xlink:href="#m4c94ea80cf" x="733.140313" y="45.596566" style="fill: #ff7f0e; stroke: #ff7f0e"/>
     <use xlink:href="#m4c94ea80cf" x="735.466955" y="48.929257" style="fill: #ff7f0e; stroke: #ff7f0e"/>
     <use xlink:href="#m4c94ea80cf" x="737.793598" y="52.899511" style="fill: #ff7f0e; stroke: #ff7f0e"/>
     <use xlink:href="#m4c94ea80cf" x="740.120241" y="57.492963" style="fill: #ff7f0e; stroke: #ff7f0e"/>
     <use xlink:href="#m4c94ea80cf" x="742.446884" y="62.692856" style="fill: #ff7f0e; stroke: #ff7f0e"/>
     <use xlink:href="#m4c94ea80cf" x="744.773527" y="68.480116" style="fill: #ff7f0e; stroke: #ff7f0e"/>
     <use xlink:href="#m4c94ea80cf" x="747.10017" y="74.83345" style="fill: #ff7f0e; stroke: #ff7f0e"/>
     <use xlink:href="#m4c94ea80cf" x="749.426813" y="81.729467" style="fill: #ff7f0e; stroke: #ff7f0e"/>
     <use xlink:href="#m4c94ea80cf" x="751.753456" y="89.142803" style="fill: #ff7f0e; stroke: #ff7f0e"/>
     <use xlink:href="#m4c94ea80cf" x="754.080099" y="97.046267" style="fill: #ff7f0e; stroke: #ff7f0e"/>
     <use xlink:href="#m4c94ea80cf" x="756.406742" y="105.410997" style="fill: #ff7f0e; stroke: #ff7f0e"/>
     <use xlink:href="#m4c94ea80cf" x="758.733385" y="114.206627" style="fill: #ff7f0e; stroke: #ff7f0e"/>
     <use xlink:href="#m4c94ea80cf" x="761.060028" y="123.401454" style="fill: #ff7f0e; stroke: #ff7f0e"/>
     <use xlink:href="#m4c94ea80cf" x="763.386671" y="132.962618" style="fill: #ff7f0e; stroke: #ff7f0e"/>
     <use xlink:href="#m4c94ea80cf" x="765.713314" y="142.856273" style="fill: #ff7f0e; stroke: #ff7f0e"/>
     <use xlink:href="#m4c94ea80cf" x="768.039957" y="153.047763" style="fill: #ff7f0e; stroke: #ff7f0e"/>
     <use xlink:href="#m4c94ea80cf" x="770.3666" y="163.501789" style="fill: #ff7f0e; stroke: #ff7f0e"/>
     <use xlink:href="#m4c94ea80cf" x="772.693243" y="174.182571" style="fill: #ff7f0e; stroke: #ff7f0e"/>
     <use xlink:href="#m4c94ea80cf" x="775.019886" y="185.05399" style="fill: #ff7f0e; stroke: #ff7f0e"/>
     <use xlink:href="#m4c94ea80cf" x="777.346529" y="196.079732" style="fill: #ff7f0e; stroke: #ff7f0e"/>
     <use xlink:href="#m4c94ea80cf" x="779.673172" y="207.223397" style="fill: #ff7f0e; stroke: #ff7f0e"/>
     <use xlink:href="#m4c94ea80cf" x="781.999815" y="218.448598" style="fill: #ff7f0e; stroke: #ff7f0e"/>
     <use xlink:href="#m4c94ea80cf" x="784.326458" y="229.719031" style="fill: #ff7f0e; stroke: #ff7f0e"/>
     <use xlink:href="#m4c94ea80cf" x="786.653101" y="240.998506" style="fill: #ff7f0e; stroke: #ff7f0e"/>
     <use xlink:href="#m4c94ea80cf" x="788.979744" y="252.250935" style="fill: #ff7f0e; stroke: #ff7f0e"/>
     <use xlink:href="#m4c94ea80cf" x="791.306387" y="263.440246" style="fill: #ff7f0e; stroke: #ff7f0e"/>
     <use xlink:href="#m4c94ea80cf" x="793.63303" y="274.530184" style="fill: #ff7f0e; stroke: #ff7f0e"/>
     <use xlink:href="#m4c94ea80cf" x="795.959673" y="285.483907" style="fill: #ff7f0e; stroke: #ff7f0e"/>
     <use xlink:href="#m4c94ea80cf" x="798.286316" y="296.263219" style="fill: #ff7f0e; stroke: #ff7f0e"/>
     <use xlink:href="#m4c94ea80cf" x="800.612959" y="306.827028" style="fill: #ff7f0e; stroke: #ff7f0e"/>
     <use xlink:href="#m4c94ea80cf" x="802.939602" y="317.128102" style="fill: #ff7f0e; stroke: #ff7f0e"/>
     <use xlink:href="#m4c94ea80cf" x="805.266245" y="327.10561" style="fill: #ff7f0e; stroke: #ff7f0e"/>
     <use xlink:href="#m4c94ea80cf" x="807.592888" y="336.665636" style="fill: #ff7f0e; stroke: #ff7f0e"/>
     <use xlink:href="#m4c94ea80cf" x="809.919531" y="345.621123" style="fill: #ff7f0e; stroke: #ff7f0e"/>
     <use xlink:href="#m4c94ea80cf" x="812.246174" y="353.464095" style="fill: #ff7f0e; stroke: #ff7f0e"/>
     <use xlink:href="#m4c94ea80cf" x="814.572817" y="358.451506" style="fill: #ff7f0e; stroke: #ff7f0e"/>
     <use xlink:href="#m4c94ea80cf" x="816.89946" y="357.328078" style="fill: #ff7f0e; stroke: #ff7f0e"/>
     <use xlink:href="#m4c94ea80cf" x="819.226103" y="351.779736" style="fill: #ff7f0e; stroke: #ff7f0e"/>
     <use xlink:href="#m4c94ea80cf" x="821.552746" y="345.076533" style="fill: #ff7f0e; stroke: #ff7f0e"/>
     <use xlink:href="#m4c94ea80cf" x="823.879389" y="338.290639" style="fill: #ff7f0e; stroke: #ff7f0e"/>
     <use xlink:href="#m4c94ea80cf" x="826.206032" y="331.742615" style="fill: #ff7f0e; stroke: #ff7f0e"/>
     <use xlink:href="#m4c94ea80cf" x="828.532675" y="325.557983" style="fill: #ff7f0e; stroke: #ff7f0e"/>
     <use xlink:href="#m4c94ea80cf" x="830.859318" y="319.798792" style="fill: #ff7f0e; stroke: #ff7f0e"/>
     <use xlink:href="#m4c94ea80cf" x="833.185961" y="314.501163" style="fill: #ff7f0e; stroke: #ff7f0e"/>
     <use xlink:href="#m4c94ea80cf" x="835.512604" y="309.688333" style="fill: #ff7f0e; stroke: #ff7f0e"/>
     <use xlink:href="#m4c94ea80cf" x="837.839247" y="305.375903" style="fill: #ff7f0e; stroke: #ff7f0e"/>
     <use xlink:href="#m4c94ea80cf" x="840.16589" y="301.574193" style="fill: #ff7f0e; stroke: #ff7f0e"/>
     <use xlink:href="#m4c94ea80cf" x="842.492533" y="298.2894" style="fill: #ff7f0e; stroke: #ff7f0e"/>
     <use xlink:href="#m4c94ea80cf" x="844.819176" y="295.524193" style="fill: #ff7f0e; stroke: #ff7f0e"/>
     <use xlink:href="#m4c94ea80cf" x="847.145819" y="293.278061" style="fill: #ff7f0e; stroke: #ff7f0e"/>
     <use xlink:href="#m4c94ea80cf" x="849.472462" y="291.547525" style="fill: #ff7f0e; stroke: #ff7f0e"/>
     <use xlink:href="#m4c94ea80cf" x="851.799105" y="290.326293" style="fill: #ff7f0e; stroke: #ff7f0e"/>
     <use xlink:href="#m4c94ea80cf" x="854.125748" y="289.605388" style="fill: #ff7f0e; stroke: #ff7f0e"/>
     <use xlink:href="#m4c94ea80cf" x="856.452391" y="289.37328" style="fill: #ff7f0e; stroke: #ff7f0e"/>
     <use xlink:href="#m4c94ea80cf" x="858.779034" y="289.61601" style="fill: #ff7f0e; stroke: #ff7f0e"/>
     <use xlink:href="#m4c94ea80cf" x="861.105677" y="290.317342" style="fill: #ff7f0e; stroke: #ff7f0e"/>
     <use xlink:href="#m4c94ea80cf" x="863.43232" y="291.458918" style="fill: #ff7f0e; stroke: #ff7f0e"/>
     <use xlink:href="#m4c94ea80cf" x="865.758963" y="293.020434" style="fill: #ff7f0e; stroke: #ff7f0e"/>
     <use xlink:href="#m4c94ea80cf" x="868.085606" y="294.979826" style="fill: #ff7f0e; stroke: #ff7f0e"/>
     <use xlink:href="#m4c94ea80cf" x="870.412249" y="297.313471" style="fill: #ff7f0e; stroke: #ff7f0e"/>
     <use xlink:href="#m4c94ea80cf" x="872.738892" y="299.996393" style="fill: #ff7f0e; stroke: #ff7f0e"/>
     <use xlink:href="#m4c94ea80cf" x="875.065535" y="303.002478" style="fill: #ff7f0e; stroke: #ff7f0e"/>
     <use xlink:href="#m4c94ea80cf" x="877.392178" y="306.304684" style="fill: #ff7f0e; stroke: #ff7f0e"/>
     <use xlink:href="#m4c94ea80cf" x="879.718821" y="309.875247" style="fill: #ff7f0e; stroke: #ff7f0e"/>
     <use xlink:href="#m4c94ea80cf" x="882.045464" y="313.685878" style="fill: #ff7f0e; stroke: #ff7f0e"/>
     <use xlink:href="#m4c94ea80cf" x="884.372107" y="317.707934" style="fill: #ff7f0e; stroke: #ff7f0e"/>
     <use xlink:href="#m4c94ea80cf" x="886.69875" y="321.912562" style="fill: #ff7f0e; stroke: #ff7f0e"/>
     <use xlink:href="#m4c94ea80cf" x="889.025393" y="326.270777" style="fill: #ff7f0e; stroke: #ff7f0e"/>
     <use xlink:href="#m4c94ea80cf" x="891.352036" y="330.75346" style="fill: #ff7f0e; stroke: #ff7f0e"/>
     <use xlink:href="#m4c94ea80cf" x="893.678679" y="335.331176" style="fill: #ff7f0e; stroke: #ff7f0e"/>
     <use xlink:href="#m4c94ea80cf" x="896.005322" y="339.973661" style="fill: #ff7f0e; stroke: #ff7f0e"/>
     <use xlink:href="#m4c94ea80cf" x="898.331965" y="344.648539" style="fill: #ff7f0e; stroke: #ff7f0e"/>
     <use xlink:href="#m4c94ea80cf" x="900.658608" y="349.318089" style="fill: #ff7f0e; stroke: #ff7f0e"/>
     <use xlink:href="#m4c94ea80cf" x="902.985251" y="353.930105" style="fill: #ff7f0e; stroke: #ff7f0e"/>
     <use xlink:href="#m4c94ea80cf" x="905.311894" y="358.386483" style="fill: #ff7f0e; stroke: #ff7f0e"/>
     <use xlink:href="#m4c94ea80cf" x="907.638537" y="362.399159" style="fill: #ff7f0e; stroke: #ff7f0e"/>
     <use xlink:href="#m4c94ea80cf" x="909.96518" y="364.711103" style="fill: #ff7f0e; stroke: #ff7f0e"/>
     <use xlink:href="#m4c94ea80cf" x="912.291823" y="363.111493" style="fill: #ff7f0e; stroke: #ff7f0e"/>
     <use xlink:href="#m4c94ea80cf" x="914.618466" y="359.499919" style="fill: #ff7f0e; stroke: #ff7f0e"/>
     <use xlink:href="#m4c94ea80cf" x="916.945109" y="355.497348" style="fill: #ff7f0e; stroke: #ff7f0e"/>
     <use xlink:href="#m4c94ea80cf" x="919.271752" y="351.470125" style="fill: #ff7f0e; stroke: #ff7f0e"/>
     <use xlink:href="#m4c94ea80cf" x="921.598395" y="347.526291" style="fill: #ff7f0e; stroke: #ff7f0e"/>
     <use xlink:href="#m4c94ea80cf" x="923.925038" y="343.713618" style="fill: #ff7f0e; stroke: #ff7f0e"/>
     <use xlink:href="#m4c94ea80cf" x="926.251681" y="340.060289" style="fill: #ff7f0e; stroke: #ff7f0e"/>
     <use xlink:href="#m4c94ea80cf" x="928.578324" y="336.586253" style="fill: #ff7f0e; stroke: #ff7f0e"/>
     <use xlink:href="#m4c94ea80cf" x="930.904967" y="333.307212" style="fill: #ff7f0e; stroke: #ff7f0e"/>
     <use xlink:href="#m4c94ea80cf" x="933.23161" y="330.236241" style="fill: #ff7f0e; stroke: #ff7f0e"/>
     <use xlink:href="#m4c94ea80cf" x="935.558253" y="327.384533" style="fill: #ff7f0e; stroke: #ff7f0e"/>
     <use xlink:href="#m4c94ea80cf" x="937.884896" y="324.761755" style="fill: #ff7f0e; stroke: #ff7f0e"/>
     <use xlink:href="#m4c94ea80cf" x="940.211539" y="322.376227" style="fill: #ff7f0e; stroke: #ff7f0e"/>
     <use xlink:href="#m4c94ea80cf" x="942.538182" y="320.234998" style="fill: #ff7f0e; stroke: #ff7f0e"/>
     <use xlink:href="#m4c94ea80cf" x="944.864825" y="318.343871" style="fill: #ff7f0e; stroke: #ff7f0e"/>
     <use xlink:href="#m4c94ea80cf" x="947.191468" y="316.707396" style="fill: #ff7f0e; stroke: #ff7f0e"/>
     <use xlink:href="#m4c94ea80cf" x="949.518111" y="315.328836" style="fill: #ff7f0e; stroke: #ff7f0e"/>
     <use xlink:href="#m4c94ea80cf" x="951.844754" y="314.210131" style="fill: #ff7f0e; stroke: #ff7f0e"/>
     <use xlink:href="#m4c94ea80cf" x="954.171397" y="313.351845" style="fill: #ff7f0e; stroke: #ff7f0e"/>
     <use xlink:href="#m4c94ea80cf" x="956.49804" y="312.753122" style="fill: #ff7f0e; stroke: #ff7f0e"/>
     <use xlink:href="#m4c94ea80cf" x="958.824683" y="312.411643" style="fill: #ff7f0e; stroke: #ff7f0e"/>
    </g>
   </g>
   <g id="line2d_48">
    <path d="M 721.507098 385.478125 
L 721.507098 22.318125 
" clip-path="url(#p3e802d0166)" style="fill: none; stroke-dasharray: 5.55,2.4; stroke-dashoffset: 0; stroke: #ff0000; stroke-width: 1.5"/>
   </g>
   <g id="patch_9">
    <path d="M 509.782585 385.478125 
L 509.782585 22.318125 
" style="fill: none; stroke: #000000; stroke-width: 0.8; stroke-linejoin: miter; stroke-linecap: square"/>
   </g>
   <g id="patch_10">
    <path d="M 956.49804 385.478125 
L 956.49804 22.318125 
" style="fill: none; stroke: #000000; stroke-width: 0.8; stroke-linejoin: miter; stroke-linecap: square"/>
   </g>
   <g id="patch_11">
    <path d="M 509.782585 385.478125 
L 956.49804 385.478125 
" style="fill: none; stroke: #000000; stroke-width: 0.8; stroke-linejoin: miter; stroke-linecap: square"/>
   </g>
   <g id="patch_12">
    <path d="M 509.782585 22.318125 
L 956.49804 22.318125 
" style="fill: none; stroke: #000000; stroke-width: 0.8; stroke-linejoin: miter; stroke-linecap: square"/>
   </g>
   <g id="text_41">
    <!-- Cross-correlation of Rx2 vs Rx0 -->
    <g transform="translate(639.176563 16.318125) scale(0.12 -0.12)">
     <defs>
      <path id="DejaVuSans-43" d="M 4122 4306 
L 4122 3641 
Q 3803 3938 3442 4084 
Q 3081 4231 2675 4231 
Q 1875 4231 1450 3742 
Q 1025 3253 1025 2328 
Q 1025 1406 1450 917 
Q 1875 428 2675 428 
Q 3081 428 3442 575 
Q 3803 722 4122 1019 
L 4122 359 
Q 3791 134 3420 21 
Q 3050 -91 2638 -91 
Q 1578 -91 968 557 
Q 359 1206 359 2328 
Q 359 3453 968 4101 
Q 1578 4750 2638 4750 
Q 3056 4750 3426 4639 
Q 3797 4528 4122 4306 
z
" transform="scale(0.015625)"/>
      <path id="DejaVuSans-66" d="M 2375 4863 
L 2375 4384 
L 1825 4384 
Q 1516 4384 1395 4259 
Q 1275 4134 1275 3809 
L 1275 3500 
L 2222 3500 
L 2222 3053 
L 1275 3053 
L 1275 0 
L 697 0 
L 697 3053 
L 147 3053 
L 147 3500 
L 697 3500 
L 697 3744 
Q 697 4328 969 4595 
Q 1241 4863 1831 4863 
L 2375 4863 
z
" transform="scale(0.015625)"/>
     </defs>
     <use xlink:href="#DejaVuSans-43"/>
     <use xlink:href="#DejaVuSans-72" transform="translate(69.824219 0)"/>
     <use xlink:href="#DejaVuSans-6f" transform="translate(108.6875 0)"/>
     <use xlink:href="#DejaVuSans-73" transform="translate(169.869141 0)"/>
     <use xlink:href="#DejaVuSans-73" transform="translate(221.96875 0)"/>
     <use xlink:href="#DejaVuSans-2d" transform="translate(274.068359 0)"/>
     <use xlink:href="#DejaVuSans-63" transform="translate(310.152344 0)"/>
     <use xlink:href="#DejaVuSans-6f" transform="translate(365.132812 0)"/>
     <use xlink:href="#DejaVuSans-72" transform="translate(426.314453 0)"/>
     <use xlink:href="#DejaVuSans-72" transform="translate(465.677734 0)"/>
     <use xlink:href="#DejaVuSans-65" transform="translate(504.541016 0)"/>
     <use xlink:href="#DejaVuSans-6c" transform="translate(566.064453 0)"/>
     <use xlink:href="#DejaVuSans-61" transform="translate(593.847656 0)"/>
     <use xlink:href="#DejaVuSans-74" transform="translate(655.126953 0)"/>
     <use xlink:href="#DejaVuSans-69" transform="translate(694.335938 0)"/>
     <use xlink:href="#DejaVuSans-6f" transform="translate(722.119141 0)"/>
     <use xlink:href="#DejaVuSans-6e" transform="translate(783.300781 0)"/>
     <use xlink:href="#DejaVuSans-20" transform="translate(846.679688 0)"/>
     <use xlink:href="#DejaVuSans-6f" transform="translate(878.466797 0)"/>
     <use xlink:href="#DejaVuSans-66" transform="translate(939.648438 0)"/>
     <use xlink:href="#DejaVuSans-20" transform="translate(974.853516 0)"/>
     <use xlink:href="#DejaVuSans-52" transform="translate(1006.640625 0)"/>
     <use xlink:href="#DejaVuSans-78" transform="translate(1076.123047 0)"/>
     <use xlink:href="#DejaVuSans-32" transform="translate(1135.302734 0)"/>
     <use xlink:href="#DejaVuSans-20" transform="translate(1198.925781 0)"/>
     <use xlink:href="#DejaVuSans-76" transform="translate(1230.712891 0)"/>
     <use xlink:href="#DejaVuSans-73" transform="translate(1289.892578 0)"/>
     <use xlink:href="#DejaVuSans-20" transform="translate(1341.992188 0)"/>
     <use xlink:href="#DejaVuSans-52" transform="translate(1373.779297 0)"/>
     <use xlink:href="#DejaVuSans-78" transform="translate(1443.261719 0)"/>
     <use xlink:href="#DejaVuSans-30" transform="translate(1502.441406 0)"/>
    </g>
   </g>
   <g id="legend_2">
    <g id="patch_13">
     <path d="M 788.674602 74.3525 
L 949.49804 74.3525 
Q 951.49804 74.3525 951.49804 72.3525 
L 951.49804 29.318125 
Q 951.49804 27.318125 949.49804 27.318125 
L 788.674602 27.318125 
Q 786.674602 27.318125 786.674602 29.318125 
L 786.674602 72.3525 
Q 786.674602 74.3525 788.674602 74.3525 
z
" style="fill: #ffffff; opacity: 0.8; stroke: #cccccc; stroke-linejoin: miter"/>
    </g>
    <g id="line2d_49">
     <g>
      <use xlink:href="#m25f7147a80" x="800.674602" y="35.416562" style="fill: #1f77b4; stroke: #1f77b4"/>
     </g>
    </g>
    <g id="text_42">
     <!-- coarse (1 sample/lag) -->
     <g transform="translate(818.674602 38.916562) scale(0.1 -0.1)">
      <defs>
       <path id="DejaVuSans-28" d="M 1984 4856 
Q 1566 4138 1362 3434 
Q 1159 2731 1159 2009 
Q 1159 1288 1364 580 
Q 1569 -128 1984 -844 
L 1484 -844 
Q 1016 -109 783 600 
Q 550 1309 550 2009 
Q 550 2706 781 3412 
Q 1013 4119 1484 4856 
L 1984 4856 
z
" transform="scale(0.015625)"/>
       <path id="DejaVuSans-2f" d="M 1625 4666 
L 2156 4666 
L 531 -594 
L 0 -594 
L 1625 4666 
z
" transform="scale(0.015625)"/>
       <path id="DejaVuSans-29" d="M 513 4856 
L 1013 4856 
Q 1481 4119 1714 3412 
Q 1947 2706 1947 2009 
Q 1947 1309 1714 600 
Q 1481 -109 1013 -844 
L 513 -844 
Q 928 -128 1133 580 
Q 1338 1288 1338 2009 
Q 1338 2731 1133 3434 
Q 928 4138 513 4856 
z
" transform="scale(0.015625)"/>
      </defs>
      <use xlink:href="#DejaVuSans-63"/>
      <use xlink:href="#DejaVuSans-6f" transform="translate(54.980469 0)"/>
      <use xlink:href="#DejaVuSans-61" transform="translate(116.162109 0)"/>
      <use xlink:href="#DejaVuSans-72" transform="translate(177.441406 0)"/>
      <use xlink:href="#DejaVuSans-73" transform="translate(218.554688 0)"/>
      <use xlink:href="#DejaVuSans-65" transform="translate(270.654297 0)"/>
      <use xlink:href="#DejaVuSans-20" transform="translate(332.177734 0)"/>
      <use xlink:href="#DejaVuSans-28" transform="translate(363.964844 0)"/>
      <use xlink:href="#DejaVuSans-31" transform="translate(402.978516 0)"/>
      <use xlink:href="#DejaVuSans-20" transform="translate(466.601562 0)"/>
      <use xlink:href="#DejaVuSans-73" transform="translate(498.388672 0)"/>
      <use xlink:href="#DejaVuSans-61" transform="translate(550.488281 0)"/>
      <use xlink:href="#DejaVuSans-6d" transform="translate(611.767578 0)"/>
      <use xlink:href="#DejaVuSans-70" transform="translate(709.179688 0)"/>
      <use xlink:href="#DejaVuSans-6c" transform="translate(772.65625 0)"/>
      <use xlink:href="#DejaVuSans-65" transform="translate(800.439453 0)"/>
      <use xlink:href="#DejaVuSans-2f" transform="translate(861.962891 0)"/>
      <use xlink:href="#DejaVuSans-6c" transform="translate(895.654297 0)"/>
      <use xlink:href="#DejaVuSans-61" transform="translate(923.4375 0)"/>
      <use xlink:href="#DejaVuSans-67" transform="translate(984.716797 0)"/>
      <use xlink:href="#DejaVuSans-29" transform="translate(1048.193359 0)"/>
     </g>
    </g>
    <g id="line2d_50">
     <path d="M 790.674602 50.094687 
L 800.674602 50.094687 
L 810.674602 50.094687 
" style="fill: none; stroke: #ff7f0e; stroke-width: 1.5; stroke-linecap: square"/>
     <g>
      <use xlink:href="#m4c94ea80cf" x="800.674602" y="50.094687" style="fill: #ff7f0e; stroke: #ff7f0e"/>
     </g>
    </g>
    <g id="text_43">
     <!-- 16x interpolation -->
     <g transform="translate(818.674602 53.594687) scale(0.1 -0.1)">
      <use xlink:href="#DejaVuSans-31"/>
      <use xlink:href="#DejaVuSans-36" transform="translate(63.623047 0)"/>
      <use xlink:href="#DejaVuSans-78" transform="translate(127.246094 0)"/>
      <use xlink:href="#DejaVuSans-20" transform="translate(186.425781 0)"/>
      <use xlink:href="#DejaVuSans-69" transform="translate(218.212891 0)"/>
      <use xlink:href="#DejaVuSans-6e" transform="translate(245.996094 0)"/>
      <use xlink:href="#DejaVuSans-74" transform="translate(309.375 0)"/>
      <use xlink:href="#DejaVuSans-65" transform="translate(348.583984 0)"/>
      <use xlink:href="#DejaVuSans-72" transform="translate(410.107422 0)"/>
      <use xlink:href="#DejaVuSans-70" transform="translate(451.220703 0)"/>
      <use xlink:href="#DejaVuSans-6f" transform="translate(514.697266 0)"/>
      <use xlink:href="#DejaVuSans-6c" transform="translate(575.878906 0)"/>
      <use xlink:href="#DejaVuSans-61" transform="translate(603.662109 0)"/>
      <use xlink:href="#DejaVuSans-74" transform="translate(664.941406 0)"/>
      <use xlink:href="#DejaVuSans-69" transform="translate(704.150391 0)"/>
      <use xlink:href="#DejaVuSans-6f" transform="translate(731.933594 0)"/>
      <use xlink:href="#DejaVuSans-6e" transform="translate(793.115234 0)"/>
     </g>
    </g>
    <g id="line2d_51">
     <path d="M 790.674602 64.772812 
L 800.674602 64.772812 
L 810.674602 64.772812 
" style="fill: none; stroke-dasharray: 5.55,2.4; stroke-dashoffset: 0; stroke: #ff0000; stroke-width: 1.5"/>
    </g>
    <g id="text_44">
     <!-- sub-sample peak = 5.688 -->
     <g transform="translate(818.674602 68.272812) scale(0.1 -0.1)">
      <defs>
       <path id="DejaVuSans-6b" d="M 581 4863 
L 1159 4863 
L 1159 1991 
L 2875 3500 
L 3609 3500 
L 1753 1863 
L 3688 0 
L 2938 0 
L 1159 1709 
L 1159 0 
L 581 0 
L 581 4863 
z
" transform="scale(0.015625)"/>
       <path id="DejaVuSans-3d" d="M 678 2906 
L 4684 2906 
L 4684 2381 
L 678 2381 
L 678 2906 
z
M 678 1631 
L 4684 1631 
L 4684 1100 
L 678 1100 
L 678 1631 
z
" transform="scale(0.015625)"/>
       <path id="DejaVuSans-2e" d="M 684 794 
L 1344 794 
L 1344 0 
L 684 0 
L 684 794 
z
" transform="scale(0.015625)"/>
      </defs>
      <use xlink:href="#DejaVuSans-73"/>
      <use xlink:href="#DejaVuSans-75" transform="translate(52.099609 0)"/>
      <use xlink:href="#DejaVuSans-62" transform="translate(115.478516 0)"/>
      <use xlink:href="#DejaVuSans-2d" transform="translate(178.955078 0)"/>
      <use xlink:href="#DejaVuSans-73" transform="translate(215.039062 0)"/>
      <use xlink:href="#DejaVuSans-61" transform="translate(267.138672 0)"/>
      <use xlink:href="#DejaVuSans-6d" transform="translate(328.417969 0)"/>
      <use xlink:href="#DejaVuSans-70" transform="translate(425.830078 0)"/>
      <use xlink:href="#DejaVuSans-6c" transform="translate(489.306641 0)"/>
      <use xlink:href="#DejaVuSans-65" transform="translate(517.089844 0)"/>
      <use xlink:href="#DejaVuSans-20" transform="translate(578.613281 0)"/>
      <use xlink:href="#DejaVuSans-70" transform="translate(610.400391 0)"/>
      <use xlink:href="#DejaVuSans-65" transform="translate(673.876953 0)"/>
      <use xlink:href="#DejaVuSans-61" transform="translate(735.400391 0)"/>
      <use xlink:href="#DejaVuSans-6b" transform="translate(796.679688 0)"/>
      <use xlink:href="#DejaVuSans-20" transform="translate(854.589844 0)"/>
      <use xlink:href="#DejaVuSans-3d" transform="translate(886.376953 0)"/>
      <use xlink:href="#DejaVuSans-20" transform="translate(970.166016 0)"/>
      <use xlink:href="#DejaVuSans-35" transform="translate(1001.953125 0)"/>
      <use xlink:href="#DejaVuSans-2e" transform="translate(1065.576172 0)"/>
      <use xlink:href="#DejaVuSans-36" transform="translate(1097.363281 0)"/>
      <use xlink:href="#DejaVuSans-38" transform="translate(1160.986328 0)"/>
      <use xlink:href="#DejaVuSans-38" transform="translate(1224.609375 0)"/>
     </g>
    </g>
   </g>
  </g>
 </g>
 <defs>
  <clipPath id="p1b1af2ecb4">
   <rect x="55.345312" y="22.318125" width="363.16" height="363.16"/>
  </clipPath>
  <clipPath id="p3e802d0166">
   <rect x="509.782585" y="22.318125" width="446.715455" height="363.16"/>
  </clipPath>
 </defs>
</svg>
