<?xml version="1.0" encoding="UTF-8" standalone="no"?>
<svg
   version="1.1"
   viewBox="-5 -10 82.990555 74.39724"
   id="svg2"
   sodipodi:docname="donate.svg"
   width="82.990555"
   height="74.39724"
   inkscape:version="1.4 (86a8ad7, 2024-10-11)"
   xmlns:inkscape="http://www.inkscape.org/namespaces/inkscape"
   xmlns:sodipodi="http://sodipodi.sourceforge.net/DTD/sodipodi-0.dtd"
   xmlns="http://www.w3.org/2000/svg"
   xmlns:svg="http://www.w3.org/2000/svg">
  <defs
     id="defs2" />
  <sodipodi:namedview
     id="namedview2"
     pagecolor="#ffffff"
     bordercolor="#000000"
     borderopacity="0.25"
     inkscape:showpageshadow="2"
     inkscape:pageopacity="0.0"
     inkscape:pagecheckerboard="0"
     inkscape:deskcolor="#d1d1d1"
     inkscape:zoom="5.8518519"
     inkscape:cx="41.525316"
     inkscape:cy="45.113924"
     inkscape:window-width="1920"
     inkscape:window-height="992"
     inkscape:window-x="-8"
     inkscape:window-y="-8"
     inkscape:window-maximized="1"
     inkscape:current-layer="svg2" />
  <path
     d="m 48.515468,34.551509 c -17.578,-11.648 -23.984,-22.352 -24.422,-30.2540003 -0.22266,-4.01950001 1.0508,-7.3555 3.2031,-9.7969 2.1484,-2.4375 5.168,-3.9648 8.4414,-4.3828 4.6602,-0.5937497 9.8398,1.0625 13.707,5.5508 3.8828,-4.5039 9.1016,-6.1561997 13.797,-5.5469 3.2891,0.42578 6.3242,1.9609 8.4883,4.4102 2.1719,2.457 3.4609,5.79689999 3.2461,9.8203 -0.42578,7.9062003 -6.8164,18.5980003 -24.379,30.2270003 -0.64844,0.43359 -1.4766,0.39453 -2.082,-0.02734 z m -9.5195,25.426 c 2.6484,0.48828 5.1406,0.46875 7.4688,-0.05859 2.3867,-0.54297 4.5781,-1.6094 6.5703,-3.1992 0.02344,-0.01953 0.04687,-0.03906 0.07031,-0.05859 l 22.375,-16.988 c 2.1602,-1.2891 2.7852,-3.4414 2.4062,-5.5156 -0.13672,-0.75391 -0.41406,-1.4844 -0.79688,-2.1484 -0.38281,-0.66016 -0.88281,-1.2656 -1.4766,-1.7656 -1.6445,-1.3828 -3.8945,-1.9141 -6.207,-0.58203 l -0.0039,0.0039 -0.0039,-0.0039 -22.77,13.168 c 0.22656,-0.38672 0.40625,-0.80469 0.53516,-1.25 0.02344,-0.06641 0.03906,-0.13281 0.05469,-0.20312 0.35938,-1.4375 0.10938,-2.8984 -0.58594,-4.0977 -0.70703,-1.2266 -1.8828,-2.1875 -3.3555,-2.582 l -15.113,-4.0742 c -0.02734,-0.0078 -0.05859,-0.01563 -0.08594,-0.01953 -2.2461,-0.62109 -4.4102,-0.83594 -6.4961,-0.63281 -2.3828,0.22656 -4.6328,0.98828 -6.7539,2.2773 l -0.05469,0.03516 -6.1719003,3.5625 -0.59766,-1.0352 c -0.50781,-0.88281 -1.6367,-1.1875 -2.5195,-0.67969 l -9.5586,5.5195 c -0.88281,0.50781 -1.1875,1.6367 -0.67969,2.5234 l 12.297,21.297 c 0.50781,0.88281 1.6367,1.1914 2.5195003,0.67969 l 9.5586,-5.5195 c 0.88281,-0.50781 1.1914,-1.6367 0.67969,-2.5234 l -0.59766,-1.0391 1.7852,-1.0312 c 4.2617,1.5547 7.375,2.668 9.9297,3.5391 2.793,0.95312 4.9844,1.6484 7.3008,2.3398 0.08984,0.03125 0.18359,0.05078 0.27734,0.0625 z m -21.148,-8.1133 2.5312,-1.4609 c 0.45703,-0.26172 1.0234,-0.33203 1.5586,-0.13672 4.5625,1.668 7.8789,2.8555 10.664,3.8086 2.6797,0.91406 4.8164,1.5938 7.0977,2.2734 2.1445,0.39062 4.1289,0.37891 5.9531,-0.03516 1.8242,-0.41406 3.5195,-1.2422 5.0781,-2.4883 0.04687,-0.03516 0.09375,-0.07031 0.14453,-0.10156 l 22.488,-17.07 c 0.0625,-0.04687 0.125,-0.08984 0.19141,-0.12891 l -0.0039,-0.0039 c 0.63672,-0.36719 0.81641,-1.0352 0.69531,-1.6914 -0.05859,-0.32422 -0.18359,-0.65234 -0.36328,-0.96094 -0.17969,-0.3086 -0.40234,-0.58203 -0.65234,-0.79297 -0.53125,-0.44922 -1.2539,-0.625 -1.9844,-0.20703 l 0.0039,0.0039 -23.906,13.816 c -0.44141,0.25781 -0.94531,0.30859 -1.4062,0.1875 v 0.0039 l -5.4453,-1.4688 h -0.01172 c -0.05078,-0.01172 -0.10156,-0.02344 -0.15234,-0.04297 l -7.8477,-2.1016 c -0.98828,-0.26172 -1.5742,-1.2812 -1.3125,-2.2695 0.2617,-0.9883 1.2773,-1.5742 2.2695,-1.3125 l 7.9258,2.1211 h 0.0039 c 0.46094,0.12109 0.92969,0.05859 1.3203,-0.14453 l 0.06641,-0.03906 c 0.40625,-0.23438 0.72266,-0.62109 0.85547,-1.1055 v -0.0039 c 0.12891,-0.48828 0.05078,-0.98047 -0.18359,-1.3867 -0.23438,-0.41016 -0.625,-0.72656 -1.1094,-0.85547 l -14.18,-3.8203 c -0.11328,-0.01172 -0.22656,-0.03906 -0.33984,-0.07422 -0.14844,-0.04688 -0.29688,-0.09375 -0.44531,-0.13672 l -0.14844,-0.03906 c -0.04297,-0.01172 -0.08203,-0.02344 -0.125,-0.03906 -1.8047,-0.5 -3.5234,-0.67578 -5.1523,-0.51562 -1.6719,0.16016 -3.2695,0.67188 -4.7969,1.5352 l -0.22266,0.12891 -0.15234,0.08984 c -0.04687,0.02734 -0.08984,0.05469 -0.13672,0.07813 l -6.168,3.5625 z m -11.5120003,-12.555 9.8398003,17.039 -6.3594003,3.6719 -10.44899996,-18.098 6.35939996,-3.6719 0.58594,1.0156 0.01172,0.01953 z M 27.788968,4.0942087 c 0.375,6.7578003 6.1055,16.1020003 21.789,26.7110003 15.633,-10.574 21.344,-19.891 21.707,-26.6410003 0.16016,-2.9844 -0.76172,-5.4258 -2.3203,-7.1836 -1.5664,-1.7695 -3.7773,-2.8789 -6.1836,-3.1914 -4.0664,-0.52734 -8.6836,1.2305 -11.773,5.94529999 -0.13672,0.21875 -0.32422,0.41016 -0.55469,0.55859 -0.85547,0.55469 -2.0039,0.3125 -2.5586,-0.54297 -3.0781,-4.71479999 -7.6641,-6.48049999 -11.695,-5.96479999 -2.3828,0.30469 -4.5742,1.4062 -6.1211,3.1641 -1.5391,1.75 -2.4531,4.1797 -2.2891,7.1445 z"
     fill-rule="evenodd"
     id="path1" />
</svg>
