<?xml version="1.0" encoding="UTF-8" standalone="no"?>
<!-- Created with Inkscape (http://www.inkscape.org/) -->

<svg
   width="127.96029mm"
   height="127.87443mm"
   viewBox="0 0 127.96029 127.87443"
   version="1.1"
   id="svg5"
   xml:space="preserve"
   xmlns:inkscape="http://www.inkscape.org/namespaces/inkscape"
   xmlns:sodipodi="http://sodipodi.sourceforge.net/DTD/sodipodi-0.dtd"
   xmlns="http://www.w3.org/2000/svg"
   xmlns:svg="http://www.w3.org/2000/svg"><sodipodi:namedview
     id="namedview7"
     pagecolor="#ffffff"
     bordercolor="#000000"
     borderopacity="0.25"
     inkscape:showpageshadow="2"
     inkscape:pageopacity="0.0"
     inkscape:pagecheckerboard="0"
     inkscape:deskcolor="#d1d1d1"
     inkscape:document-units="mm"
     showgrid="false" /><defs
     id="defs2" /><g
     inkscape:label="Layer 1"
     inkscape:groupmode="layer"
     id="layer1"
     transform="translate(-37.059982,-38.626953)"><path
       style="fill:none;stroke:#000000;stroke-width:0.264583;stroke-opacity:1"
       d="M 93.183023,165.82701 C 75.059815,163.69711 58.086201,153.26256 48.097925,137.97521 38.404116,123.47587 34.758771,104.93498 38.844303,87.920576 43.278866,68.936911 56.813335,52.221114 74.686086,44.318632 c 16.872367,-7.557416 37.001324,-7.416215 53.735284,0.467485 11.37245,5.2642 21.07358,14.038176 27.40945,24.853612 8.2759,13.934893 11.22552,31.085481 7.40763,46.897321 -4.27105,18.40221 -16.89784,34.75951 -33.84355,43.20401 -11.09961,5.5939 -23.89376,7.73596 -36.211877,6.08595 z m 15.277617,-0.67822 c 18.45242,-2.02629 35.68901,-12.85498 45.56792,-28.56619 9.0009,-13.98216 12.37578,-31.59721 8.59785,-47.845787 -4.2173,-18.731754 -17.26592,-35.435939 -34.81228,-43.423874 -16.99849,-7.892632 -37.509686,-7.797033 -54.378656,0.408886 -12.06295,5.763024 -22.037712,15.612617 -28.201307,27.452036 -6.411643,12.178647 -8.872511,26.491993 -6.34965,40.063999 3.161191,17.80532 14.285582,33.99515 29.747596,43.36694 11.818155,7.25048 26.081711,10.26106 39.828527,8.54399 z m 14.44888,-29.80762 c -2.47156,-0.31523 -3.86023,-2.62944 -5.45929,-4.26365 -3.8136,-4.61323 -7.71575,-9.15176 -11.50549,-13.78517 -1.14048,-1.49283 -2.30253,-2.89044 -3.36142,-4.2563 -5.716932,-0.81738 -11.509389,-0.43322 -17.261671,-0.44738 -1.769616,0.13495 -3.996279,-0.19649 -5.570223,0.0908 -0.278381,2.46205 -0.251807,6.35177 -0.379041,8.60827 -0.04673,4.40496 0.04253,8.81425 -0.210417,13.21459 -1.299039,1.15539 -3.174392,0.50622 -4.735997,0.8139 -1.803803,0.0418 -3.61645,-0.0181 -5.40002,-0.30714 -1.097506,-1.24251 -0.300063,-3.05373 -0.643487,-4.53954 -0.378359,-15.28507 -0.367831,-30.577273 -0.308571,-45.865902 0.03719,-4.255991 0.104824,-8.511812 0.220864,-12.766419 -0.681277,-1.972755 1.705059,-2.519911 3.123872,-2.11965 12.36248,-0.304823 24.7306,-0.215563 37.095591,-0.195771 4.76939,0.06053 9.54761,0.03627 14.30924,0.297251 3.98325,0.519801 8.05589,2.79675 9.55818,6.694521 1.10373,1.905974 1.11298,4.158939 1.34773,6.285586 0.21674,5.540973 0.15171,11.091484 0.0115,16.632963 -0.27732,2.557161 -0.38461,5.358411 -2.07644,7.445531 -1.72874,2.43499 -4.21453,4.48324 -7.21793,5.02435 -2.20731,0.67883 -4.52987,0.49439 -6.79797,0.71327 0.555,1.56933 1.37198,2.54247 2.41808,3.75893 2.83847,3.43582 5.77628,6.78453 8.60058,10.2312 1.82376,2.20065 3.86962,4.31074 5.09548,6.92162 0.36111,2.30612 -2.492,1.97954 -3.96652,1.93828 -2.29585,0.0719 -4.59421,0.0104 -6.88662,-0.12417 z m -45.20669,-1.55932 c 1.066111,-1.52331 0.271318,-3.4887 0.582275,-5.20445 0.04665,-5.61067 -0.04622,-11.67224 0.191531,-17.27978 1.851316,-0.26354 3.711411,-0.0632 5.806331,-0.1335 5.853887,0.0238 11.726663,-0.0905 17.565573,0.30224 2.17811,0.14615 3.25721,3.07317 4.82818,4.63819 4.64264,5.50557 9.17336,11.11288 13.96836,16.48536 1.45164,1.46325 3.59124,1.25918 5.47197,1.29424 1.82685,-0.0203 3.68264,0.13608 5.4913,-0.0601 1.14814,-1.24834 -1.37666,-2.75602 -1.91837,-3.91186 -4.58688,-5.49216 -9.20075,-10.96171 -13.8241,-16.42319 -0.66823,-1.69822 -0.41517,-2.2798 1.49209,-2.45566 3.50992,-0.0853 7.3589,0.19136 10.35542,-1.99932 3.31523,-2.12243 4.92641,-6.19607 4.66485,-10.038031 0.0692,-6.592824 0.22528,-13.212769 -0.38878,-19.78255 -0.78659,-3.32688 -3.30637,-6.230562 -6.50819,-7.438344 -3.31614,-0.747792 -6.7605,-0.529519 -10.13509,-0.76657 -13.59166,-0.428573 -27.196565,-0.559009 -40.792189,-0.262717 -1.452767,0.157298 -3.083761,-0.116416 -4.419602,0.365257 -1.068938,1.542754 -0.124,3.567896 -0.473695,5.314233 -0.14075,17.150636 -0.104778,34.302642 -0.0089,51.453422 0.01679,1.88382 0.0374,3.76762 0.06276,5.65135 1.551731,0.78827 3.350854,0.16718 5.007706,0.41208 0.995039,-0.0146 1.990195,-0.0612 2.980534,-0.16026 z m 1.31569,-32.17854 c -0.996841,-2.24344 -0.714423,-4.766882 -0.972418,-7.150292 -0.172142,-4.397447 -0.120054,-8.82008 0.493019,-13.184545 0.672931,-1.824255 2.939454,-1.379258 4.471994,-1.455581 9.652057,-0.18633 19.306075,0.01815 28.958915,-0.0034 3.35131,0.02256 6.70419,0.06675 10.05047,0.264665 1.90463,0.769028 1.24223,3.195709 1.54474,4.804845 0.32904,5.192537 0.33884,10.423166 -0.15833,15.602198 -0.52743,1.84269 -2.74628,1.60042 -4.2488,1.60096 -9.31029,0.22109 -18.62403,0.0393 -27.935718,0.11516 -3.870511,-0.0282 -7.763157,0.0459 -11.61564,-0.2997 -0.209887,-0.0659 -0.412341,-0.16092 -0.588232,-0.29428 z m 42.7064,-1.03268 c 1.03018,-2.253278 0.68887,-4.804415 0.98457,-7.199577 0.0629,-2.975203 0.085,-5.955263 -0.11385,-8.926187 -0.28423,-1.568461 -0.54949,-3.890269 -2.75665,-3.423728 -5.33665,-0.403532 -10.69406,-0.16198 -16.04012,-0.242847 -7.515527,-0.01099 -15.033438,-0.0678 -22.54617,0.180545 -2.034324,0.582904 -1.366139,3.150608 -1.735249,4.74062 -0.39389,4.678976 -0.468725,9.40426 -0.03351,14.079757 0.603968,1.662197 2.710842,0.980217 4.062468,1.187377 10.032286,0.36432 20.075631,0.26743 30.110981,0.10264 2.68868,-0.0988 5.40541,-0.10251 8.06753,-0.4986 z"
       id="path304"
       sodipodi:nodetypes="ccccccccccccccccccscccccccccccccccccccccccccssscccccccccccccccccccccccssccccccccccssscccccccccs" /></g></svg>
