<?xml version="1.0" encoding="UTF-8" standalone="no"?>
<!-- Uploaded to: SVG Repo, www.svgrepo.com, Generator: SVG Repo Mixer Tools -->

<svg
   width="756.53979"
   height="610.17346"
   viewBox="0 0 484.18547 390.51102"
   version="1.1"
   id="svg4"
   sodipodi:docname="kiwi-bird.svg"
   inkscape:version="1.2.1 (9c6d41e410, 2022-07-14)"
   xmlns:inkscape="http://www.inkscape.org/namespaces/inkscape"
   xmlns:sodipodi="http://sodipodi.sourceforge.net/DTD/sodipodi-0.dtd"
   xmlns="http://www.w3.org/2000/svg"
   xmlns:svg="http://www.w3.org/2000/svg">
  <defs
     id="defs8" />
  <sodipodi:namedview
     id="namedview6"
     pagecolor="#ffffff"
     bordercolor="#000000"
     borderopacity="0.25"
     inkscape:showpageshadow="2"
     inkscape:pageopacity="0.0"
     inkscape:pagecheckerboard="0"
     inkscape:deskcolor="#d1d1d1"
     showgrid="false"
     inkscape:zoom="1.28375"
     inkscape:cx="252.77507"
     inkscape:cy="294.44985"
     inkscape:window-width="2560"
     inkscape:window-height="1369"
     inkscape:window-x="-8"
     inkscape:window-y="-8"
     inkscape:window-maximized="1"
     inkscape:current-layer="svg4" />
  <path
     d="m 219.6675,318.96803 a 239.162,239.162 0 0 1 -18.141,3.78 l 21.887,45.798 c -18.37,-0.055 -38.017,0.352 -58.946,1.387 l -11.842,-44.215 c -6.45,-0.31 -12.826,-0.9 -19.105,-1.764 l 12.598,47.041 c -7.103,0.46 -14.296,0.969 -21.664,1.578 l 1.484,17.938 c 76.27,-6.31 137.96,-4.22 183.404,-0.008 l 1.66,-17.922 c -19.613,-1.818 -42.188,-3.236 -67.525,-3.793 z"
     id="path344" />
  <path
     d="m 455.93151,148.96748 c -8.908,4.545 -18.736,7.692 -29.059,9.242 21.96,44.054 29.427,92.59 45.61,138.432 2.761,-32.499 2.588,-94.97 -16.551,-147.674 z"
     id="path342" />
  <path
     d="m 427.15789,108.26821 a 9,9 0 0 1 9,9 9,9 0 0 1 -9,9 9,9 0 0 1 -9,-9 9,9 0 0 1 9,-9 z"
     id="path340" />
  <path
     d="m 237.77389,6.728214 c -77.058,0.06 -152.457,51.774 -181.7,89.022 -68.442,87.177996 -106.879,263.939996 174.293,217.956996 82.987,-13.571 135.481,-92.932 146.56,-163.43 39.376,13.812 99.225,-2.416 100.503,-38.236 1.713,-48.027996 -82.63,-99.394996 -130.756,-60.739996 -33.239,-32.311 -71.268,-44.602 -108.9,-44.573 z"
     id="path2"
     style="fill:none;stroke:#000000;stroke-width:13.4563;stroke-dasharray:none;stroke-opacity:1" />
</svg>
