<?xml version="1.0" encoding="UTF-8" standalone="no"?>
<svg
   viewBox="0 0 496 496"
   version="1.1"
   xml:space="preserve"
   x="0px"
   y="0px"
   fill-rule="evenodd"
   clip-rule="evenodd"
   stroke-linejoin="round"
   stroke-miterlimit="2"
   id="svg3"
   sodipodi:docname="python.svg"
   width="496"
   height="496"
   inkscape:version="1.4 (86a8ad7, 2024-10-11)"
   xmlns:inkscape="http://www.inkscape.org/namespaces/inkscape"
   xmlns:sodipodi="http://sodipodi.sourceforge.net/DTD/sodipodi-0.dtd"
   xmlns="http://www.w3.org/2000/svg"
   xmlns:svg="http://www.w3.org/2000/svg"><defs
     id="defs3" /><sodipodi:namedview
     id="namedview3"
     pagecolor="#ffffff"
     bordercolor="#000000"
     borderopacity="0.25"
     inkscape:showpageshadow="2"
     inkscape:pageopacity="0.0"
     inkscape:pagecheckerboard="0"
     inkscape:deskcolor="#d1d1d1"
     inkscape:zoom="1.234375"
     inkscape:cx="247.89873"
     inkscape:cy="311.89873"
     inkscape:window-width="1920"
     inkscape:window-height="992"
     inkscape:window-x="-8"
     inkscape:window-y="-8"
     inkscape:window-maximized="1"
     inkscape:current-layer="svg3" /><g
     transform="translate(-570,-2256)"
     id="g2"><g
       id="g1"><path
         d="m 1066,2264 c 0,-4.42 -3.58,-8 -8,-8 H 578 c -4.418,0 -8,3.58 -8,8 v 480 c 0,4.42 3.582,8 8,8 h 480 c 4.42,0 8,-3.58 8,-8 z m -16,8 v 464 c 0,0 -464,0 -464,0 0,0 0,-464 0,-464 z m -298.151,240 h 96.603 c 4.416,0 8,-3.59 8,-8 0,-4.41 -3.584,-8 -8,-8 h -96.603 c -4.415,0 -8,3.59 -8,8 0,4.41 3.585,8 8,8 z m -84.996,-2.34 90.653,-90.66 c 3.124,-3.12 3.124,-8.19 0,-11.31 l -90.653,-90.65 c -3.122,-3.13 -8.192,-3.13 -11.314,0 -3.122,3.12 -3.122,8.19 0,11.31 l 84.996,85 c 0,0 -84.996,84.99 -84.996,84.99 -3.122,3.13 -3.122,8.19 0,11.32 3.122,3.12 8.192,3.12 11.314,0 z"
         id="path1" /></g></g></svg>
